<?xml version="1.0" encoding="UTF-8"?><svg id="uuid-10ba3970-fd27-47c3-af0a-d9b0f28860b0" xmlns="http://www.w3.org/2000/svg" viewBox="0 0 1918.8 413"><path d="M866.1,413c-7.5-7.4-15.6-14.1-21.8-22.7-12.4-16.9-17.7-36-19.2-56.8v-103.5s-66.9,0-66.9,0v-32.5c0-.1,1.4-1.5,1.5-1.5h167.5v34h-66v104.5c0,2.3,2,10.5,2.7,13.3,3.8,14.2,12.8,27.7,24.2,36.8.7,2.8-18.7,23.3-19.9,28.4h-2Z" style="fill:#830355;"/><path d="M.3,232c2.6-20.1,22.9-36,42.5-36h80c.1,0,1.5,1.4,1.5,1.5v24.5H40.8c-1.3,0-7.8,3.6-9,5-8.7,9.3-3.6,25.6,9,27.1,21,2.5,49-4.8,68.4,4.6,28.2,13.6,31.8,53.6,6.5,72.2s-14.5,8.2-18.8,8.2H7.3v-26h86.5c.9,0,7.3-4.5,8.3-5.7,9.2-10.6,1.2-25.8-12.3-27.3-23.1-2.6-53.1,6.4-72.8-8.2-7.9-5.8-15.4-18.1-16.7-27.8s-.4-9.3,0-12Z" style="fill:#830355;"/><path d="M1445.1,0c1.9.2,15.9,4,16.6,5l-2.7,12c-2,1.7-21.3-8-26.8.7s15.5,16.9,22.2,21.6c12.8,8.8,13.5,29.5.6,38.3s-29,4.2-40.7-.9l2.8-12.6c7.7,2.1,28.8,9.3,31.7-1.7,4.5-17.2-29.4-15.4-32.5-34s6-24.3,20.8-28.3c2.6.2,5.5-.3,8,0Z" style="fill:#f37b3c;"/><path d="M516.2,405h-119.4c-73.7-5.9-115.2-77.2-88.4-145.2,38.3-97,188.6-92.4,205.4,16.1,1.3,8.5,2,19,2.3,27.7,1.3,33.7-1,67.8,0,101.5ZM480.2,371c-3.2-43.7,13.4-110.7-32.1-137.4-61.2-35.9-133.1,28.8-108.9,94.9,8.3,22.8,34.8,42.5,59.5,42.5h81.5Z" style="fill:#830254;"/><path d="M1906,230h-121.5c-10.6,0-21.8,12.6-23.2,22.8-2.5,18.4,11.4,28.9,28.2,30.2,23.9,1.8,50.2-1.9,74,0,47.4,3.7,72.3,62.1,42,99-8.5,10.4-27.2,23-41,23h-129.5v-34h125.5c3.1,0,12.1-5.1,14.5-7.5,16-15.6,7-44.1-15.5-46.5-42.8-4.6-104.5,15.7-128-34-17.7-37.4,8.9-87,51-87h122c.1,0,1.5,1.4,1.5,1.5v32.5Z" style="fill:#830254;"/><path d="M1023.9,191.4c91.1-8.1,154.2,87.9,106,167-45.3,74.3-157.4,67.9-193.6-10.9-31-67.3,13.4-149.5,87.6-156ZM982.5,354.7c35.5,35.4,95.6,26.7,119.8-17,32.9-59.3-22.6-128.9-87.7-109.7-54.8,16.2-72.7,86.1-32.1,126.6Z" style="fill:#830354;"/><path d="M1527.1,196.1v107.5c2.5,43,30,75.5,75.5,71.4,29.4-2.6,57.5-34.2,57.5-63.5v-114c0-.1,1.4-1.5,1.5-1.5h34.5v116.5c-16.5,142.3-211.3,123-205-18.9,2.7-29.6-3.4-65.1,0-94.1.1-1,.5-3.4,1.6-3.4h34.5Z" style="fill:#830354;"/><path d="M757.2,405h-36v-113.5c0-2.6-2.1-11-2.9-14.1-18.1-72.8-118.1-67.5-129,10.3-2.5,38.9-.5,78.3-1.1,117.3h-36c1.4-35.4-1.8-72.2,0-107.5,7.1-141.5,194.9-140.8,205-4.9v112.5Z" style="fill:#830355;"/><path d="M1379.1,405h-35c-1.2-33.5,1.6-68.1,0-101.5-1.6-32.7-13.9-65.1-48.2-74.8-50.8-14.4-83.2,24.2-85.8,71.7-1.9,34.2,1.5,70.1,0,104.5h-36c1-33-1.3-66.6,0-99.5.8-20,3.2-38.8,11.9-57.1,34.9-73.3,138.7-77.5,178.7-6.3s14.5,63.2,14.4,98.5c0,21.5.1,43,0,64.5Z" style="fill:#830254;"/><path d="M1453.1,196.1v209h-35v-207.5c0-.1,1.4-1.5,1.5-1.5h33.5Z" style="fill:#830254;"/><path d="M244.2,196.1v26h-42v43.5c0,2.3,2,9.6,2.7,12.3,3.3,11.3,10,19.8,18.2,27.9-2.1,2.9-13.6,19.9-15.6,20.2-4.9.8-21.1-21.4-23.5-26.2-3.4-6.6-8.8-23.1-8.8-30.2v-47.5h-40v-24.5c0-.1,1.4-1.5,1.5-1.5h107.5Z" style="fill:#830355;"/><path d="M1109.1,2.6c1-3.1,14.8-1,17.7.3,7.9,3.6,14.4,27.2,19.3,34.7l5,13.5V1.1c2.4.3,15-1.1,15,1.5v78.5h-17l-25-55v55h-15V2.6Z" style="fill:#f37b3c;"/><path d="M1212.1,1.1v31.5c0,.1,1.4,1.5,1.5,1.5h25.5V2.6c0-2.1,13.4-2.3,14.6-.6l.3,77.4c-1,3.2-11.8,1-14.9,1.6v-34h-27v34h-15V2.6c0-2.6,12.6-1.2,15-1.5Z" style="fill:#f37b3c;"/><path d="M1299.1,1.1v52.5c0,.8,1.6,6.8,2.1,7.9,5.8,11.5,24.1,8.5,25.9-5.9,2-16.2-1.6-36.2.1-52.9,1-3.2,11.8-1,14.9-1.6v58.5c0,9.9-13.3,20.9-22.8,22.2-46.9,6.5-33.4-49.8-35.2-78.2.9-4.7,11.4-1.7,15-2.5Z" style="fill:#f37b3c;"/><path d="M972.1,33.1c2.7-.3,6.4.9,8.5-1,4-3.5,9.9-27.2,13.9-30.1s10.7-.3,14.6-.9c2,1.9-14,29.2-14,33.5s3.6,4.2,4.8,6.1c6.7,10.7,9.1,28.4,14.2,40.3h-15.5c-4.1-5.6-8.2-30.3-11.7-33.8s-10,.4-13.8-.2v32.5c0,2.6-12.6,1.2-15,1.5V2.1h14v31Z" style="fill:#f37b3c;"/><path d="M775.2,68.1h35v13h-51.5c-2,0-1.7-9.7-2-12l33.5-54h-31l-1-14h48.5c1.7,2.2,3,9.4,2.3,12.2l-33.8,54.7Z" style="fill:#f37b3c;"/><path d="M929.1,15.1h-26.5c-5,0-5,15.6-4.5,19h30v13h-30v14.5c0,2.4,4.1,6.5,6.5,6.5h25.5c-.4,2.7,1,11.2-.9,12.6-16.6.5-44,5.2-46.1-18-.9-10.3-1.1-32.9,0-43,1.4-12.7,11.9-17.6,23.5-18.5s16.2-.7,20,0,1.7,10.2,2.5,14Z" style="fill:#f37b3c;"/><path d="M1080.1,1.1v14h-25.5c-5.5,0-7.1,19-4,19h28.5v13h-28.5c-2.7,0-2.8,21,5,21h25.5c-.4,2.8,1,11.2-.9,12.6-13.6,0-37.3,4.9-43.9-11.3-3.4-8.4-3.4-45.3-.5-54.1,2.1-6.5,6.4-10.1,12.7-12.2s7.3-1.9,8.1-1.9h23.5Z" style="fill:#f37b3c;"/><rect x="837.1" y="1.1" width="15" height="80" style="fill:#f37b3c;"/><path d="M1387.1,1.1v80h-15V2.6c0-2.6,12.6-1.2,15-1.5Z" style="fill:#f37b3c;"/></svg>