<svg id="Laag_1" data-name="Laag 1" xmlns="http://www.w3.org/2000/svg" viewBox="0 0 145 60"><defs><style>.cls-1{fill:#0065b0;}.cls-2{fill:#dc2215;}.cls-3{fill:#e32013;}</style></defs><title>logo</title><path class="cls-1" d="M101.89,54.52a6.54,6.54,0,0,0,4.48,1.74h0a6.24,6.24,0,0,0,6.37-6.09,5.86,5.86,0,0,0-1.92-4.29,6.65,6.65,0,0,0-9,0,5.83,5.83,0,0,0,0,8.6Zm4.47-7.39h0a3.57,3.57,0,0,1,2.42.91,2.85,2.85,0,0,1,0,4.29,3.66,3.66,0,0,1-4.86,0,2.9,2.9,0,0,1-1-2.14A3.25,3.25,0,0,1,106.36,47.13Z"/><path class="cls-1" d="M129.89,45.89a1.48,1.48,0,0,0-.88-.28h0a1.5,1.5,0,0,0-1.21.62A26.6,26.6,0,0,1,106.27,57h-.14A26.64,26.64,0,0,1,84.74,46.6a1.5,1.5,0,0,0-2.09-.31,1.49,1.49,0,0,0-.31,2.09A29.64,29.64,0,0,0,106.12,60h.16a29.6,29.6,0,0,0,24-12A1.49,1.49,0,0,0,129.89,45.89Z"/><path class="cls-2" d="M47.17,5.48a6.54,6.54,0,0,0-4.48-1.74h0a6.55,6.55,0,0,0-4.5,1.78,5.83,5.83,0,0,0,0,8.6,6.54,6.54,0,0,0,4.48,1.74h0a6.55,6.55,0,0,0,4.5-1.78,5.83,5.83,0,0,0,0-8.6ZM40.27,12a2.9,2.9,0,0,1-1-2.14,3.25,3.25,0,0,1,3.39-3.09h0a3.57,3.57,0,0,1,2.42.91,2.9,2.9,0,0,1,1,2.14,3.25,3.25,0,0,1-3.39,3.09A3.55,3.55,0,0,1,40.27,12Z"/><path class="cls-2" d="M66.73,11.61A29.64,29.64,0,0,0,42.94,0h-.16a29.6,29.6,0,0,0-24,12A1.49,1.49,0,0,0,20,14.39h0a1.5,1.5,0,0,0,1.21-.62A26.6,26.6,0,0,1,42.8,3h.14A26.63,26.63,0,0,1,64.33,13.4a1.5,1.5,0,0,0,2.4-1.78Z"/><path class="cls-1" d="M35,30.9a10.57,10.57,0,0,1-.56,3.51,7.63,7.63,0,0,1-1.61,2.72,7.25,7.25,0,0,1-2.53,1.75,8.45,8.45,0,0,1-3.3.62,8.36,8.36,0,0,1-3.27-.62,7.24,7.24,0,0,1-2.53-1.75,8,8,0,0,1-1.64-2.72,10.06,10.06,0,0,1-.59-3.51,9.71,9.71,0,0,1,.6-3.5,7.93,7.93,0,0,1,1.67-2.69A7.52,7.52,0,0,1,23.74,23,8.2,8.2,0,0,1,27,22.35a8.29,8.29,0,0,1,3.24.62,7.37,7.37,0,0,1,2.53,1.73,7.87,7.87,0,0,1,1.64,2.69A9.94,9.94,0,0,1,35,30.9Zm-4.71,0a5.79,5.79,0,0,0-.85-3.36A2.79,2.79,0,0,0,27,26.32a2.83,2.83,0,0,0-2.45,1.22,5.71,5.71,0,0,0-.87,3.36,5.86,5.86,0,0,0,.87,3.39A2.81,2.81,0,0,0,27,35.54a2.77,2.77,0,0,0,2.43-1.25A5.94,5.94,0,0,0,30.24,30.9Z"/><path class="cls-1" d="M48.35,26.87q-.62-.15-1.46-.32a9,9,0,0,0-1.8-.17,8.43,8.43,0,0,0-1,.08,6.18,6.18,0,0,0-.92.17V39.07H38.52V23.65a27.92,27.92,0,0,1,2.93-.82,16.94,16.94,0,0,1,3.77-.39q.37,0,.9,0t1.05.12q.53.08,1.05.19a5,5,0,0,1,.9.26Z"/><path class="cls-1" d="M65.38,37q0,4-2,5.93t-6.28,1.93a17.12,17.12,0,0,1-3-.26,18.61,18.61,0,0,1-2.76-.7l.81-3.87a13.61,13.61,0,0,0,2.28.68,13.45,13.45,0,0,0,2.71.25,3.76,3.76,0,0,0,2.81-.87,3.11,3.11,0,0,0,.82-2.23v-.59a7.41,7.41,0,0,1-1.54.51A8.17,8.17,0,0,1,57.5,38a6.61,6.61,0,0,1-5.18-2,8.05,8.05,0,0,1-1.8-5.59,9.14,9.14,0,0,1,.56-3.27,7,7,0,0,1,1.63-2.52A7.28,7.28,0,0,1,55.33,23a10.07,10.07,0,0,1,3.5-.57q.84,0,1.72.08t1.75.2q.87.12,1.66.29t1.41.36ZM55.24,30.4q0,3.87,3.13,3.87a4.63,4.63,0,0,0,1.33-.19,5.07,5.07,0,0,0,1.05-.43V26.29q-.34-.06-.81-.11t-1.09,0a3.18,3.18,0,0,0-2.73,1.21A5,5,0,0,0,55.24,30.4Z"/><path class="cls-2" d="M75.9,35.39a7,7,0,0,0,1.69-.17,3.11,3.11,0,0,0,1.07-.46,1.56,1.56,0,0,0,.56-.7,2.48,2.48,0,0,0,.16-.9,2.07,2.07,0,0,0-1-1.75A14.22,14.22,0,0,0,75,29.91q-1.05-.37-2.11-.85A7.76,7.76,0,0,1,71,27.85a5.76,5.76,0,0,1-1.36-1.76,5.51,5.51,0,0,1-.53-2.52,6.24,6.24,0,0,1,.56-2.68,5.72,5.72,0,0,1,1.58-2,7.24,7.24,0,0,1,2.48-1.28A11.17,11.17,0,0,1,77,17.12a13.17,13.17,0,0,1,6.36,1.49l-1.4,3.81a13.29,13.29,0,0,0-2-.82,8.69,8.69,0,0,0-2.65-.36,4.87,4.87,0,0,0-2.5.48A1.62,1.62,0,0,0,74,23.19a1.7,1.7,0,0,0,.28,1,2.72,2.72,0,0,0,.79.73,6.92,6.92,0,0,0,1.18.59q.67.26,1.47.54,1.67.62,2.92,1.22a7.8,7.8,0,0,1,2.06,1.41A5.11,5.11,0,0,1,84,30.56a7.59,7.59,0,0,1,.4,2.63,5.58,5.58,0,0,1-2.11,4.66Q80.15,39.5,75.9,39.5a17.69,17.69,0,0,1-2.57-.17,16.72,16.72,0,0,1-2-.42,11.62,11.62,0,0,1-1.52-.53,11.4,11.4,0,0,1-1.07-.53L70.07,34a12.14,12.14,0,0,0,2.37.94A12.34,12.34,0,0,0,75.9,35.39Z"/><path class="cls-2" d="M94,22.35a10.73,10.73,0,0,1,3.41.46,5.31,5.31,0,0,1,2.19,1.33,4.9,4.9,0,0,1,1.16,2.1,10.37,10.37,0,0,1,.34,2.75v9.6q-1,.22-2.76.51a26.62,26.62,0,0,1-4.28.29,13.6,13.6,0,0,1-2.87-.28A6.23,6.23,0,0,1,89,38.22a4.18,4.18,0,0,1-1.43-1.66,5.7,5.7,0,0,1-.5-2.51,4.74,4.74,0,0,1,.57-2.41,4.41,4.41,0,0,1,1.54-1.58,7,7,0,0,1,2.2-.85,12.38,12.38,0,0,1,2.57-.26,14.75,14.75,0,0,1,1.6.08,7.18,7.18,0,0,1,1.13.2v-.43A2.55,2.55,0,0,0,96,26.9a3.46,3.46,0,0,0-2.48-.71,15.86,15.86,0,0,0-2.33.17,10,10,0,0,0-2,.48l-.59-3.71q.4-.12,1-.26t1.32-.25q.71-.11,1.5-.19T94,22.35Zm.37,13.5q.68,0,1.3,0a9,9,0,0,0,1-.09v-3.5q-.28-.06-.84-.12a9.39,9.39,0,0,0-1-.06,9.25,9.25,0,0,0-1.23.08,3.22,3.22,0,0,0-1,.29,1.72,1.72,0,0,0-.68.59,1.63,1.63,0,0,0-.25.93,1.58,1.58,0,0,0,.73,1.5A4,4,0,0,0,94.38,35.85Z"/><path class="cls-2" d="M111.16,22.35a10.73,10.73,0,0,1,3.41.46,5.31,5.31,0,0,1,2.19,1.33,4.9,4.9,0,0,1,1.16,2.1,10.37,10.37,0,0,1,.34,2.75v9.6q-1,.22-2.76.51a26.62,26.62,0,0,1-4.28.29,13.6,13.6,0,0,1-2.87-.28,6.23,6.23,0,0,1-2.22-.91,4.18,4.18,0,0,1-1.43-1.66,5.7,5.7,0,0,1-.5-2.51,4.74,4.74,0,0,1,.57-2.41,4.41,4.41,0,0,1,1.54-1.58,7,7,0,0,1,2.2-.85,12.38,12.38,0,0,1,2.57-.26,14.75,14.75,0,0,1,1.6.08,7.18,7.18,0,0,1,1.13.2v-.43a2.55,2.55,0,0,0-.71-1.89,3.46,3.46,0,0,0-2.48-.71,15.86,15.86,0,0,0-2.33.17,10,10,0,0,0-2,.48l-.59-3.71q.4-.12,1-.26t1.32-.25q.71-.11,1.5-.19T111.16,22.35Zm.37,13.5q.68,0,1.3,0a9,9,0,0,0,1-.09v-3.5q-.28-.06-.84-.12a9.39,9.39,0,0,0-1-.06,9.25,9.25,0,0,0-1.23.08,3.22,3.22,0,0,0-1,.29,1.72,1.72,0,0,0-.68.59,1.63,1.63,0,0,0-.25.93,1.58,1.58,0,0,0,.73,1.5A4,4,0,0,0,111.53,35.85Z"/><path class="cls-3" d="M144.72,26.84a5.8,5.8,0,0,0-1-2.35,4.84,4.84,0,0,0-2-1.53,8.17,8.17,0,0,0-3.21-.54,8.65,8.65,0,0,0-4.65,1.52A6.48,6.48,0,0,0,132,22.86a7.71,7.71,0,0,0-2.87-.45q-.9,0-1.83.08t-1.81.22q-.88.14-1.67.31t-1.38.32V39.07h4.62V26.5l.9-.11q.47,0,.9,0a2.13,2.13,0,0,1,2,.93,6.35,6.35,0,0,1,.57,3.16v8.64H136V30.19q0-.9-.06-1.69a7.07,7.07,0,0,0-.28-1.5,4.05,4.05,0,0,1,1.1-.46,4.17,4.17,0,0,1,1-.19,2.13,2.13,0,0,1,2,.93,6.35,6.35,0,0,1,.57,3.16v6c0,1.43,2.06,2.59,4.62,2.64V29.88A15.16,15.16,0,0,0,144.72,26.84Z"/><path class="cls-1" d="M6,35q1.12-1.86,2.54-3.9t2.89-4q1.46-1.92,2.82-3.54T16.56,21V17.62H.5c0,2.25,1.21,4.06,2.64,4.06h7Q8.93,23.13,7.52,25T4.75,28.78q-1.37,2-2.62,3.9T0,36.19v2.88H16.9V35Z"/></svg>