<?xml version="1.0" encoding="UTF-8"?><svg id="uuid-43db1292-52b1-48f1-8956-6fd360ec892a" xmlns="http://www.w3.org/2000/svg" viewBox="0 0 370.1 111.4"><path d="M346.6,35.8c0,.7-.4,1.7.7,1.4s5.8-3.6,6.5-3.1l16.3,29.9v1c-5.8-.6-12.5-4.5-18-5.3s.7,1.9.2,2.4c-1.1,0-2-.5-3.1-.5-3.1-.1-14.5-.5-16.7.1s-3.6,3.9-3.6,4.4c0,.9,2.1,1.6,2.2,1.7.5.9-3.8,6.8-4.7,7.8s-.6.9-1.4.7c-.2-.2,0-3.9-1.2-3.3s-3.2,3.9-3.4,4.3c-.3,1,4.2,5,4.8,5.2,1.7.7-.6-4.5.5-4.8l24.7,20.5-21.6-3.1c-1-.7-.5-8.9-3.1-8.9h-12.5c-.5,0-.7,1-.6,1.6.2,1.2,5.1,9.5,4.7,9.9-7-2.3-13.7-7-20.5-9.4-3-1.1-1.6.2-2.3.4-1.5.3-2-.8-2.6-1l2.2-1.9c.6,2.9.9,1.1,2.2,0,.5.2,3.1,1.2,3.4,1l.5-1.4.2,1.9c1-1.3,2.5-2.2,3.6-3.3.9.3.3,2.2.5,2.4s6.2-.2,7.2,0c.7-.7-2.9-5.8-2.9-7.2,1.9-1.8,4.2-3.7,5.8-5.3l4.3,2.9c.4-.5-.8-5.4-1.4-6.2,1.5-1.5,3.2-3.2,4.8-4.8,1.1,1.5,1.1,3.5,1.7,5.2s.1,1.4.7.7c.6-1.4,3.7-4.2,3.8-5.3s-2.9-2.1-3.3-3.5c1.2-1.2,2.2-2.9,3.8-3.8.1.1,2.6,1.8,2.7,1.9,1.1.3,7.7-5.4,7.3-5.7-1.7.1-3.4-1.2-4.8-1.4.8-1,1.1-1.2.5-2.4s-1.9-1.6-1.9-2.9l13.4.5v-11c-5.3,1.8-10.3,5.2-15.3,7.6s-.7-.1-1,0l-1.2-1.4-2.2,2.9c-.8,0-1.6,0-2.4,0-.4-.8-.6-1.7-1-2.4,1.4-.6,2.8-1.1,4.3-1.4s1-.7,1.7-.8c1.9-.4,3.7,1.3,4.8-2l12.7-4.8ZM349.9,58.8l-6-7.2-4.6,4.1,10.5,3.1ZM350.7,59.3v.5c.3-.2.3-.3,0-.5ZM329.8,86.5l-3.4-2.9c.2,2.9.4,3.2,3.4,2.9Z" style="fill:#e8e8e8;"/><path d="M291,87.9l-12.5,9.1c0-.4.3-4.8-1-3.3l-1,4.5,1.9-.2c.3,4.5.5,8.9,1,13.4h-.5l-13.4-16.3c.2,0,.7.2.9,0,.7-3.1,1.9-6,2.9-9,1.6,0,8.2,1.5,8.6,2.7s-.4,2.8.6,3l1.9-8.1c.4.4,9.1,3.8,10.5,4.3Z" style="fill:#e8e8e8;"/><path d="M110.7,57.8l13.6-20.1c4.4-4.5,14.1-5,19.4-2.1s3.4,3.1,4,3,4.3-2.8,5.7-3.4c7.6-2.9,19.3-2,23.1,6.4s1.3,3.2,1.3,3.5v31.3h-13.9v-26.5c0-.1-1-1.9-1.3-2.2-2.6-2.5-11.2-1.6-11.2,1.7v27h-14.4v-27c0-2.7-5.4-3.4-7.4-3.1s-5,2.1-5,3.6v26.5h-13.9v-17.2l-13.9,16.3v-25.6c0-3.7-7-4.3-9.7-3s-2.7,2.4-2.7,3v26.5h-13.9v-26c0-.2-.7-1.6-1-1.9-2.8-4-12-2.2-12,1.9v26h-13.9v-41.6h12.5c.2,0-.1,2.9,0,3.3l6.3-3.5c6.9-2.1,13.3-.6,18.8,3.9,7.3-6.7,22.8-7.2,28,2.3s1.5,3.2,1.5,3.7v13.1Z" style="fill:#19a086;"/><polygon points="35 18.2 35 30.1 14.9 30.1 14.9 41.1 31.2 41.1 31.2 53.1 14.9 53.1 14.9 64.5 37.9 64.5 37.9 76.5 0 76.5 0 18.2 35 18.2" style="fill:#19a186;"/><path d="M224.8,67.9c.3.4-3.3,8-3.9,8.8-1.3,1.6-4.7.4-6.3-.3s-3.3-2.7-3.6-2.7c-.4,0-4.2,2.6-5.5,3-11.2,3.7-24.5-2.7-21.7-15.9,2-9.8,14.6-10.6,22.7-11.1,0-9.2-13.8-4.9-19.2-2.9-.4-3.4-1.1-7-.9-10.4,2.5-1.2,5.2-1.9,8-2.3,10-1.5,23.7.6,25.4,12.7s-1.4,16.9,2,20,2.8,1.1,2.9,1.2ZM207.1,58.3c-.2-.2-5.6.4-6.3.6-8.1,1.7-5.3,11.8,2.4,8.6s4.2-5.2,4-9.2Z" style="fill:#19a086;"/><path d="M235.9,49.2l2.9-8.1-14.4,1-2.4-30.6,23.2,16.2,1-1.4,1.2,2.9c-.7-.5-1.4-1.2-2.4-.9-.4,1.8-5.9,11.8-5.3,12.4l12.9-1c.3-.3-3.2-6.8-3.6-7.7s-.1-1.2-.2-1.4l2.4.7-9.1-14.1c5.1,1.3,10.2,2.7,15.2,4.2s2.7,1.3,3.5,1.6l1,5.7c0,0-.3,1.1-.5,1.4s-.5,0-.5.2c0,.3.3.2.5.2s.7-.1.9,0,0,1,0,1.4c-1.7-.1-2.3,4.8-2.9,5.3l-6.2-3.8c-.3.3,2.9,5.1,3.3,5.4.6.5,1.4.3,1.5.3.5.4-.5.9-.5,1-.6-.6-4.3-.7-4.3-.2l1.9,4.5c1.1-.8,1.9-2.6,2.4-3.8.8,0,2.5,4.3,3.4,3.3l1.9-7.6c1-.1.2,1.7.5,1.9s3.1-.2,3.8-.5c-1,6.5-2,13.1-2.9,19.6-1.3-.3-2.3.3-3.4.5s-.3,0-.5,0l-2.7-7.2-15.5,1.5,1-1.2,10.1-5c-5.8.9-11.6,2.1-17.3,3.3ZM255.7,45.4c.4.9,1.1,4.2,1.7,4.5s6.7.5,6.7-.5-7.3-3.3-8.4-4.1Z" style="fill:#e8e8e8;"/><path d="M248.8,59.3c1.2,1,.9,1.2,1.6,1.9s5.4,5.6,5.9,5.7c.8.1,2.6-2.1,3.1-2.8.2,0,.7,0,1,0,.6.3,1.5,1.3,2.4,1.4,0,.8,0,1.6,0,2.4l2.9.2-2.9,1.2c1.3.9,2.9,1.2,4.3,1.9l-9.8.5c-1.3.2,2.1,2.7,2.9,2.9,2.7.5,5.7-.5,8.4-.5s1.3-.2,1.4.2l-4.8,4.5c-1.3,0-3.5,2.2-4.6,3.1s-.1.7-.2.8c-.2.1-1,0-1.4.2s-1.8,1.6-1.9,1.7c-.3.5.4,1.2.4,1.3,0,.2-1.1,1.8-1,1.9.8.4,1.6-.4,1.9-.5s.7,0,1,0c1,3,4.6,4.6,5.3,7.6-6.7,1.1-14.7.4-21.6,1l13.3-11.2c0-.4-3-3.9-3.6-4-1.3-.2-7,4.3-8.8,3.5l-13-13.4,24,.2c-.7-2-10.8-8.6-11-9.3s-.2-1.3.3-1.2c.9-.2,4.6.3,4.5-1.4Z" style="fill:#eaeaea;"/><path d="M332.2,20.1l.5-7.6,10.1,1c-.5,1.3-2.9,2.6-3.4,3.6s0,.9.7.7l27.1-8.6-20.6,15.8c0-.2,0-.5,0-.7-.5-1.2-2.1,1.6-2.4,2.4l2.4-.7c.1,2.4,0,4.8,0,7.2l5.8.2-5.8,2.2c0-.6,0-1.3,0-1.9-2.6.3-6.2,0-8.6.5l1.9-3.1-3.3,1.7c-.5-.4-2.7-7.6-3.8-8.6l4.8-5.3c-1.8.2-3.5.9-5.3,1.4ZM343.5,27.2v.5c.3-.2.3-.3,0-.5Z" style="fill:#e8e8e8;"/><path d="M263.2,22.9c-3-2.4-7.8-3.1-10.9-5.1s-.9,0-.6-1.1c7.4-1.1,15.2-4.8,22.4-6.1s1.9-.5,2.3.8l5.5-6.2v15.3c2.7,0,5.1-.9,7.7-1.4l-3.4,4.3,3.4.5c-1.4.2-3,.3-4.3.5-.2-.7-3-2.8-3.4-2.4v2.9c-.5,0-1.2.4-1.9.5l-3.4-13.4c-3.8,3.3-6.6,7.6-9.9,11.4s-1.1.5-1.2.5c-.9.2-1.9-.8-2.4-1Z" style="fill:#e8e8e8;"/><path d="M308.2,15.3c.9-.2,5.5-.8,5.7-1,.5-.5-.9-3.5-.4-4.2s11.7-5.4,13.4-6.3c.7.7-9.2,14.2-8.2,17,0,.8,6.7-.2,7.7-.2-2.1,3.4-3.8,7.3-5.8,10.7s-.6.2-1.4,2.2,0,1.5-1.4,1.4c-.3-.6-.6-1.3-1-1.9s-.3-1.1-.5-1.4c2-.5,0-2.6-1-3.1s-.4.3-.5.3c-.2,0-.4,0-.5,0,0-.3,0-.8,0-1,1-1.2,3.5-5.2,3.8-6.5s-1.1-.2-.7-1.2c-.8.8-1.6.8-2.6.9s-.3,0-.5,0l-.5-6.2c-1.5,1.2-4.2,3.8-3.8,5.7h-.5c-.6,0-1.3,0-1.9,0-.3-1.8.3-3.5.5-5.3-5.7,1.2-11.5,2.2-17.3,3.3L309.4,0c-.4,5.1-.7,10.2-1.2,15.3ZM318.5,31.5v.5c.3-.2.3-.3,0-.5Z" style="fill:#e8e8e8;"/><path d="M235.9,49.2c5.7-1.3,11.5-2.5,17.3-3.3l-10.1,5-1,1.2,15.5-1.5,2.7,7.2c-1.4.3-8.7,1.4-9.1,2.2,2.7,1.3,5.4,2.8,8.1,4.1-.5.7-2.3,3-3.1,2.8s-5-4.9-5.9-5.7-.4-.9-1.6-1.9-1.7-1.3-2.4-1.9c-1-1-4.2-4.9-5.1-5.2s-2.4,1.2-3,1.4-1.2,0-1.4,0c-1.7-.5-3.1-2.1-1.9-3.8.2,0,.5-.4,1-.5Z" style="fill:#d7d7d7;"/><path d="M308.2,15.3c-.2,1.7-.8,3.4-.5,5.3-6.1,1-12.1,2.3-18.2,3.3l-3.4-.5,3.4-4.3c.5-.1,1-.4,1.4-.5,5.7-1.1,11.5-2.1,17.3-3.3Z" style="fill:#d6d7d7;"/><path d="M265.1,78.9c1.6,0,4.3,1.7,6.2,1.4,0,.1,0,.3,0,.5-.4,1.4-1,2.9-1.4,4.3s-.3.6-.5,1c-1,3-2.2,5.9-2.9,9-.2.2-.6,0-.9,0s-.7,0-1,0c-.7-3-4.3-4.7-5.3-7.6,3.1-.5,6.1-1.3,9.1-1.9l-8.1-2.9s0-.6.2-.8c1.1-.9,3.3-3.1,4.6-3.1Z" style="fill:#d7d7d7;"/><path d="M247.4,29.2c.7.5,1,.6,1.4,1.4s0,.9.2,1.4c.4.8,3.9,7.4,3.6,7.7l-12.9,1c-.6-.6,4.9-10.6,5.3-12.4,1-.2,1.7.4,2.4.9Z" style="fill:#d7d7d7;"/><path d="M338,33.9c2.5-.4,6-.1,8.6-.5,0,.6,0,1.3,0,1.9s0,.3,0,.5l-12.7,4.8c-1.1,3.3-2.9,1.7-4.8,2s-1.2.7-1.7.8l-1.4-2.9c2.5-.3,4.5-.7,6.7-1.9s2.5-2.8,4.3-4.3.3-.4,1-.5Z" style="fill:#d7d7d7;"/><path d="M326.5,20.5c.5-.8,1.3-2.4,2.2-2.4,0,.8.6,1.7.7,2.4s.3,1.9.5,2.9,0,1,0,1.4c-1.6.8-8.1,5.9-8.6,7-.7,1.9,3.4,1.5,3.3,3.5-1,.1-1.8.4-2.4.5s-.7,0-1,0c.1-1.3-.6-2.3-1.9-2.4.7-2,.7-1.1,1.4-2.2,2-3.4,3.7-7.3,5.8-10.7Z" style="fill:#d7d7d7;"/><path d="M246.4,57.4c-2.7-.7-6.1-2.1-8.1-3.8.7-.2,1.7-1.7,3-1.4s4.1,4.2,5.1,5.2Z" style="fill:#e8e8e8;"/><path d="M263.2,22.9c.5.1,1.5,1.1,2.4,1,0,0,0,.7,0,1-1.4.8-2.1,2.4-3.1,3.7s-.7.1-.8.2l-1-5.7c.6.2,1.7-.2,2.4,0Z" style="fill:#d7d7d7;"/><path d="M234.9,49.7c-1.1,1.8.2,3.3,1.9,3.8-.2.9-4,2.7-4.3,2.4-.2-.9,1.8-3.8,1.4-4.3s-2.8-.5-2.9-1.4c1.2-.4,2.8-.2,3.8-.5Z" style="fill:#eaeaea;"/><path d="M332.2,20.1c1.8-.5,3.5-1.2,5.3-1.4l-4.8,5.3c0,0-.3,0-.5,0h-.5c0-.2,0-.6,0-1,0-.8,0-1.6,0-2.4.1,0,.3-.4.5-.5Z" style="fill:#d6d7d7;"/><path d="M331.7,20.5c0,.8,0,1.6,0,2.4l-1.9.5c-.2-1-.3-2-.5-2.9.7,0,1.7.1,2.4,0Z" style="fill:#e8e8e8;"/><path d="M346.6,25.8l-2.4.7c.3-.7,1.9-3.6,2.4-2.4,0,.2,0,.5,0,.7s0,.6,0,1Z" style="fill:#d7d7d7;"/><path d="M367.9,8.6c.3.2.3.3,0,.5v-.5Z" style="fill:#e8e8e8;"/><path d="M356.2,70.7l-5.8,20.5-11.7-16.7c-.8.5-1.1,2.6-2,2.8s-5.7-2.6-5.9-3.1l5.8-2.9-4.8-7.4,24.4,6.7ZM340.4,70.3c-1.6.4-3.5.6-2.8,2.5,1.1,3.1,2.3-1,2.8-2.5Z" style="fill:#e8e8e8;"/><path d="M296.3,86c-1.2,1.1-1.6,2.9-2.2,0l-2.2,1.9c-.3,0-.7,0-1,0-1.4-.5-10.1-3.9-10.5-4.3s1.1-1.1-1.9-.5c-.5-1.8,1.7-.5,2.3-1s.6-3.1.5-3.8c5.1,2.1,9.8,5.4,14.9,7.6Z" style="fill:#d6d7d7;"/><path d="M278.5,98l-1.9.2,1-4.5c1.2-1.5.9,2.9,1,3.3s0,.6,0,1Z" style="fill:#d7d7d7;"/><path d="M276.1,41.6c2.1,4,4.1,8,6.2,11.9s.6,1.3,1,1.9,0,.4,0,.5c-.9.8-3,1.1-3.8,1.7s-.9,1.9-1.7,2.6c-1.8,1.8-4.8,2.3-3.1,5.7-2.5.1-5,1.2-7.6,1l-.3,1.4c3.1-.7,5.8-1,8.9-1.9s1.4-.7,2.4-.5c.8,1.4-1.1,5.4-.9,5.9.3,1.2,7.5,1.8,8-2s-1.7-3.2,1.3-3.5,2.5,1.9,3.9,2.3c3,.9,6.5-.5,7.5-.3s1.7,2.7,3.6,2.3c0,.5,0,1,0,1.4-.3,2-.7,4.2-1,6.2s-.7,4.1-1,6.2c.4-.2,1.4-.4,1.5-.8.3-1.1.2-3.9.5-5.4s.7-4.1,1-6.2,1.1-4.8.5-7.6,0-1,0-1.4c.3,0,.6,0,1,0,0-.3,0-.7,0-1,2.8.4,5.8-.8,8.6-1,.3-.3-2.9-7.1-3.4-8.1,5.7-.9,4,6,6,7.7s2.4-.5,3.1,0,.6,3.9.5,4.7l3.8-.5c-.2.2-.3.8-.5,1-1.6,1.6-3.3,3.3-4.8,4.8s-2.2,2.7-2.9,3.3c-1.6,1.6-3.9,3.4-5.8,5.3s-3.2,3.2-4.8,4.8-2.6,2.1-3.6,3.3l-.2-1.9-.5,1.4c-.2.2-2.8-.7-3.4-1-5-2.2-9.7-5.6-14.9-7.6-.3,0-.6,0-1,0-.4-1.2-1.7-1.1-2.4-1.4-1.3-.7-2.4-1-3.4-1.4s-1.3-.7-1.9-1c-.9-.4-2.1-1.3-3.4-1.9s-1.5-1-2.4-1.4c-1.4-.7-3-1-4.3-1.9l2.9-1.2-2.9-.2c0-.8,0-1.6,0-2.4.3-2.6,1.1-5.4,1.4-8.1.9-6.5,1.9-13.1,2.9-19.6.5-3.3.7-6.8,1.7-10,2.3,4.7,5,9.2,7.4,13.9Z" style="fill:#41ad98;"/><path d="M312.1,23.4c.7,1.3,1.8,3.1,2.4,4.3s0,.7,0,1c-2.6,1.1-3,5-3.4,7.6l5.7-3.3c.3.6.6,1.3,1,1.9.5.9,1.3,1.6,1.4,1.9.8,1.5,1.5,3.5,2.4,5.3s1,1.9,1.4,2.9.6,1.6,1,2.4c.8,1.6,1.7,3.2,2.4,4.8s1.5,2.5,1.9,3.3.4,1.6.5,1.9-.6,1.3,0,1.9c-1.6.9-2.6,2.6-3.8,3.8s-1.8,1.3-2.4,1.9l-3.8.5c0-.9,0-4.4-.5-4.7s-2.2.8-3.1,0c-1.9-1.7-.3-8.6-6-7.7-.7-1.5-2.2-3-2.4-4.8,3.2.9,8.8,3.8,12,5.3s4.8,3,7.4,3.8c1-.7.2-.8-.4-1.1-1.8-1.1-4.5-2.4-6.6-2.8-.3-.8-1.1-1-1.7-1.4-6.4-3.5-13.3-6.3-19.8-9.6s-1.3-.4-1.4-.5c-.8-.4-2.3-2.1-3.3-2.6,0-.4,4.8-4.2,5.3-5.5s0-.4,0-.5h.5c-.3,1.3.9,1.1,1.7.9,2.2-.6,2-2.4,2.9-3.8s1.7-2.8,2.6-4.3c1.4-2.3,3.4-2.5,4.8-4.8.9.4,1,1.2,1.4,1.9Z" style="fill:#3daa95;"/><path d="M330.8,45.9c5-2.5,10.1-5.9,15.3-7.6v11l-13.4-.5c0,1.3,1.4,1.8,1.9,2.9l-5.3-1.9,2.9-.5-1.4-3.3Z" style="fill:#d7d7d7;"/><path d="M324.5,35.4c.9,0,1.9,0,2.9,0,0,1.5,3.4,2.3,4.8,2.9s.4.3.5.5c-2.2,1.2-4.2,1.6-6.7,1.9l1.4,2.9c-1.5.4-2.9.8-4.3,1.4-.5-.9-1-1.9-1.4-2.9,1-1,2.5-1,3.8-1,.7-.6-3.1-4.3-3.4-5.3.6,0,1.4-.4,2.4-.5Z" style="fill:#c9caca;"/><path d="M330.8,45.9l1.4,3.3-2.9.5,5.3,1.9c.6,1.2.4,1.4-.5,2.4-.3,0-.6,0-1,0s-1.1,0-1.4,0c-1-1.4-3.6-1.8-5.3-1.9-.7-1.6-1.6-3.2-2.4-4.8.8,0,1.6,0,2.4,0,2.8,0,1.9-.7,3.4-1.4s.7.1,1,0Z" style="fill:#c9caca;"/><path d="M308.7,79.3c0,1.3,3.6,6.5,2.9,7.2-1-.2-6.9.3-7.2,0s.4-2.1-.5-2.4c1.6-1.6,3.2-3.2,4.8-4.8Z" style="fill:#d6d7d7;"/><polygon points="349.9 58.8 339.4 55.7 344 51.6 349.9 58.8" style="fill:#d7d7d7;"/><path d="M325,63.1c.4,1.4,3.4,2.3,3.3,3.5s-3.2,4-3.8,5.3c-.6.6-.6-.3-.7-.7-.6-1.7-.6-3.8-1.7-5.2.2-.2.3-.8.5-1,.6-.6,1.8-1.3,2.4-1.9Z" style="fill:#d7d7d7;"/><path d="M329.8,45.9c-1.4.7-.6,1.5-3.4,1.4l2.2-2.9,1.2,1.4Z" style="fill:#d7d7d7;"/><path d="M329.8,86.5c-3,.4-3.2,0-3.4-2.9l3.4,2.9Z" style="fill:#d7d7d7;"/><path d="M280,25.3c-3.3.6-6.7,1.3-10.1,1.4,0,.5,0,1,.2,1.5,1.1,3.2,5.2,9.9,7,13.4h-1c-2.4-4.6-5.1-9.1-7.4-13.9-.9,3.3-1.2,6.7-1.7,10-.7.3-3.6.8-3.8.5s.5-2-.5-1.9l-1.9,7.6c-.8.9-2.5-3.3-3.4-3.3,0-.1,0-.3,0-.5s1-.5.5-1-.9.2-1.5-.3-3.6-5.1-3.3-5.4l6.2,3.8c.6-.5,1.2-5.4,2.9-5.3,1.3,4.9,1.5-.2,2.1-1s1.4-.5,2.2-.5c-1.2-2.2-.7-3-.6-5.1s-.3-.6-.3-.6c0-.3,0-.9,0-1s.8,0,1.2-.5c3.3-3.8,6.1-8.2,9.9-11.4l3.4,13.4ZM262.9,34.9v.5c.3-.2.3-.3,0-.5Z" style="fill:#d6d7d7;"/><path d="M260.3,57.8c.2,0,.3,0,.5,0-.5,1.3,1,2.7,1,3.6s-1.5,1.5-1.4,2.6c-.2,0-.7,0-1,0-2.8-1.2-5.4-2.8-8.1-4.1.4-.8,7.7-1.9,9.1-2.2Z" style="fill:#c9caca;"/><path d="M265.6,24.9s.3.2.3.6c0,2.1-.5,2.9.6,5.1-.7,0-1.6-.2-2.2.5s-.9,5.9-2.1,1,.2-1.1,0-1.4-.7,0-.9,0v-.5c.2-.4.4-1.4.5-1.4s.6,0,.8-.2c1-1.2,1.7-2.8,3.1-3.7Z" style="fill:#c9caca;"/><path d="M264.1,57.4c-.4,2.7-1.1,5.5-1.4,8.1-.9-.1-1.8-1.2-2.4-1.4-.1-1.1,1.4-1.6,1.4-2.6s-1.4-2.3-1-3.6c1-.2,2.1-.8,3.4-.5Z" style="fill:#d7d7d7;"/><path d="M261.3,30.6c-.2,0-.4,0-.5-.2,0-.3.5-.2.5-.2v.5Z" style="fill:#d6d7d7;"/><path d="M272.8,74.6c0,2-.9,3.9-1.4,5.7-1.9.3-4.7-1.3-6.2-1.4l4.8-4.5c-.1-.5-1-.2-1.4-.2l1-1.4c1.2.6,2.5,1.5,3.4,1.9Z" style="fill:#e8e8e8;"/><path d="M260.3,82.7l8.1,2.9c-3,.7-6,1.4-9.1,1.9s-.7,0-1,0c0-.7-.3-1.2-1-1.4,0-.1-.7-.9-.4-1.3s1.7-1.6,1.9-1.7c.4-.3,1.2-.1,1.4-.2Z" style="fill:#c9caca;"/><path d="M267,71.2c.9.4,1.7,1.1,2.4,1.4l-1,1.4c-2.7,0-5.7,1-8.4.5s-4.1-2.7-2.9-2.9l9.8-.5Z" style="fill:#d7d7d7;"/><path d="M258.4,87.5c-.3,0-1.1.8-1.9.5-.2-.1.9-1.7,1-1.9.7.2,1,.7,1,1.4Z" style="fill:#d7d7d7;"/><path d="M343.5,27.2c.3.2.3.3,0,.5v-.5Z" style="fill:#d7d7d7;"/><path d="M309.7,20.5c-.9,1.6-2.6,3.1-3.9,4.5s-.4,1.1-.5,1.2c-.2.1-.3.3-.5.5s-.3.3-.5.5-.3.3-.5.5-.3.3-.5.5-.3.3-.5.5c0,0-.8.4-1.4,1-1.8,1.6-2.3,1.9-3.4,3.8s0,.3,0,.5c-1.1-.2-1.5.4-2.2.9-3,2.4-5.6,5.9-8.4,8.6s-1,1-1.4,1.4-1,1-1.4,1.4-3.3,3.2-3.8,2.9c-1-2.6-2.5-5.1-3.8-7.6s-5.8-10.1-7-13.4-.3-.9-.2-1.5c3.4-.1,6.7-.9,10.1-1.4s1.4-.4,1.9-.5c1.1-.2,2.3-.3,3.4-.5s2.9-.3,4.3-.5c6.1-1,12.2-2.3,18.2-3.3s1.3,0,1.9,0Z" style="fill:#41ad98;"/><path d="M305.8,26.3c-.9,1.6-1.4,2.6-2.6,4.3s-.7,3.2-2.9,3.8-2,.4-1.7-.9c1.4-.8,2.3-2.2,3.4-3.3s.8-1.2,1-1.4c.2-.2.3-.3.5-.5s.3-.3.5-.5.3-.3.5-.5.3-.3.5-.5.3-.3.5-.5h.5Z" style="fill:#41ad98;"/><path d="M314.5,28.7c.1,0,.3,0,.5,0,0,1.2,1,2,1.4,2.9s.2.9.5,1.4l-5.7,3.3c.4-2.7.7-6.6,3.4-7.6Z" style="fill:#41ad98;"/><path d="M315,21c1,0,1.9-.2,2.6-.9-.4,1,.8,1,.7,1.2-.3,1.3-2.8,5.3-3.8,6.5-.6-1.2-1.7-3-2.4-4.3,1.3-.2,2.8-.9,2.9-2.4Z" style="fill:#d6d7d7;"/><path d="M314.5,21c.2,0,.3,0,.5,0,0,1.5-1.6,2.2-2.9,2.4-.4-.7-.6-1.5-1.4-1.9v-.5c.9.2,2.9,0,3.8,0Z" style="fill:#e8e8e8;"/><path d="M321.2,35.8c-1.1.2-2.2-.6-1.9,1-.1-.3-1-1-1.4-1.9,1.4,0,1.1-.6,1.4-1.4,1.4,0,2,1.1,1.9,2.4Z" style="fill:#c9caca;"/><path d="M303.9,27.7c.1-.2.3-.3.5-.5-.2.2-.3.3-.5.5Z" style="fill:#eaeaea;"/><path d="M304.9,26.8c.2-.1.3-.3.5-.5-.2.2-.3.3-.5.5Z" style="fill:#eaeaea;"/><path d="M303,28.7c.1-.2.3-.3.5-.5-.2.2-.3.3-.5.5Z" style="fill:#eaeaea;"/><path d="M303,28.7c-.2.2-.3.7-1,1.4l-.5-.5c.6-.6,1.4-.9,1.4-1Z" style="fill:#eaeaea;"/><path d="M303.4,28.2c.1-.2.3-.3.5-.5-.2.2-.3.3-.5.5Z" style="fill:#eaeaea;"/><path d="M304.4,27.2c.2-.2.3-.3.5-.5-.1.2-.3.3-.5.5Z" style="fill:#eaeaea;"/><path d="M310.6,21v.5c-1.4,2.3-3.4,2.5-4.8,4.8h-.5c0-.1.1-.8.5-1.2,1.2-1.5,3-2.9,3.9-4.5h.5c0,.4.2.4.5.5Z" style="fill:#eaeaea;"/><path d="M318.5,31.5c.3.2.3.3,0,.5v-.5Z" style="fill:#d7d7d7;"/><path d="M278,76.9l-3.6,4.3c1.6-.9,4.2-2.7,6-2.9s.6,0,1,0c0,.7-.3,3.6-.5,3.8-.6.5-2.8-.8-2.3,1-2.9.6-5.7,1.7-8.6,1.9.5-1.4,1-2.9,1.4-4.3,1.1,0,1.1,1.1,1.4-.2s.6-3.7,1.9-5c.9.5,2,.7,3.4,1.4Z" style="fill:#e8e8e8;"/><path d="M329.8,24.9c.3,1.3,1.6,9.2,2,9.5s4.2-.1,5.2,0c-1.8,1.5-1.6,2.8-4.3,4.3-.1-.2-.3-.4-.5-.5.2-5-1.7-3.1-4.8-2.9s-2,0-2.9,0c.1-2-4-1.6-3.3-3.5s7-6.2,8.6-7Z" style="fill:#e8e8e8;"/><path d="M321.2,35.8c.3,0,.7,0,1,0,.3,1,4.1,4.6,3.4,5.3-1.3,0-2.8,0-3.8,1-.9-1.8-1.6-3.8-2.4-5.3-.3-1.6.8-.8,1.9-1Z" style="fill:#bbbabb;"/><path d="M331.7,23.9h.5l-.2.5c-.3,0-.2-.3-.2-.5Z" style="fill:#e8e8e8;"/><path d="M340.4,70.3c-.5,1.6-1.7,5.6-2.8,2.5s1.2-2.1,2.8-2.5Z" style="fill:#d7d7d7;"/><path d="M284.8,57.8c.6,1.2,1.3,2.6,1.9,3.8s.4,1.7,1,2.4c-2.3.6-5,.5-7.2,1s-1.1.6-1.9,1.2c.8,1.1,1.8-.7,1.9-.7,3.3,0,4.2-.5,7.2-1s1,0,1.4,0c4.3-.6,9.7-1.9,13.9-1.4,0,.4,0,1,0,1.4-.3,0-.9,0-1,0-.2.2-.3,5-.5,6.2-2,.4-2.9-2.1-3.6-2.3s-4.6,1.2-7.5.3-.8-2.5-3.9-2.3-1.1,1.8-1.3,3.5c-.6,3.8-7.8,3.2-8,2s1.7-4.5.9-5.9c-1-.2-1.6.2-2.4.5-.1-.4-.6-.5-1-.5-1.6-3.4,1.3-3.9,3.1-5.7s.9-2.1,1.7-2.6,2.9-.9,3.8-1.7c.4.7,1.2,1.4,1.4,1.9Z" style="fill:#3daa95;"/><path d="M306.8,48.3c.2,1.8,1.7,3.3,2.4,4.8s3.7,7.8,3.4,8.1c-2.8.1-5.8,1.3-8.6,1,1.2-4.2,1.5-9.5,1.9-13.9v-.5c.5,0,.8.4,1,.5Z" style="fill:#2282e7;"/><path d="M303.9,62.1c0,.3,0,.7,0,1-.3,0-.6,0-1,0-4.2-.4-9.6.8-13.9,1.4.9-1.1,1.9-2.4,2.9-3.3s1.4-1.5,1.9-1.9,1.2-.6,1.4-1.4h.5c2.4.9,5.7,4,8.1,4.3Z" style="fill:#428af0;"/><path d="M277.1,41.6c1.3,2.5,2.8,5,3.8,7.6.5.4,3.2-2.3,3.8-2.9l1,2.9c-1.2.1-2.6,0-3.8,0-.3,1.1.2.8.6,1.1.9.6,1.9,1.3,2.7,1.8-1,.6-1.6,1.7-2.9,1.4-2.1-4-4.2-8-6.2-11.9h1Z" style="fill:#c9caca;"/><path d="M289.5,54.5c0,.5-.5,1.1-.5,1.4-2.1-.3-1.9,2.6-4.3,1.9-.3-.5-1.1-1.2-1.4-1.9s0-.4,0-.5l3.4-2.4c.7.4,1.9.9,2.9,1.4Z" style="fill:#c9caca;"/><path d="M303,64.5c.7,2.8-.1,4.7-.5,7.6h-1c0-.5,0-1,0-1.4.1-1.2.3-6,.5-6.2s.7,0,1,0Z" style="fill:#c9caca;"/><path d="M274.7,66c.4,0,.9,0,1,.5-3.1.9-5.8,1.2-8.9,1.9l.3-1.4c2.6.2,5.2-.9,7.6-1Z" style="fill:#c9caca;"/><path d="M286.7,53.1l-3.4,2.4c-.3-.6-.6-1.3-1-1.9,1.3.2,1.9-.8,2.9-1.4.5.3,1.1.7,1.4,1Z" style="fill:#e8e8e8;"/><path d="M302.5,72.2c-.3,2.1-.6,4.2-1,6.2h-1c.3-2.1.7-4.2,1-6.2h1Z" style="fill:#d7d7d7;"/><path d="M301.5,78.4c-.2,1.5-.2,4.3-.5,5.4s-1.1.6-1.5.8c.3-2.1.7-4.1,1-6.2h1Z" style="fill:#c9caca;"/><path d="M319.3,53.5h-.5c-3.1-1.5-8.8-4.4-12-5.3s-.4-.4-1-.5c-2.8-.4-7.9.3-11,.5-.2-1.9,6.5-2.5,4.8-4.3-1.4,0-3.3.6-1.9-1.4,6.5,3.4,13.4,6.1,19.8,9.6s1.4.5,1.7,1.4Z" style="fill:#c9caca;"/><path d="M298.2,33.9c-.5,1.3-5.3,5.1-5.3,5.5,1.1.5,2.6,2.2,3.3,2.6-1.7,1.7-3.3.5-5.3.5.6,1.6.4,3.1.5,4.8-.5,1.1-.6,1.2-1.4.2s-1-3.2-2.5-4c2.8-2.7,5.3-6.2,8.4-8.6s1.1-1.1,2.2-.9Z" style="fill:#c9caca;"/><path d="M297.7,42.5c-1.4,2,.5,1.4,1.9,1.4,1.7,1.8-5,2.4-4.8,4.3-1,0-2.2.4-3.4.5.8-.7,0-1.3,0-1.4,0-1.6.1-3.1-.5-4.8,2,0,3.6,1.2,5.3-.5.2,0,.8.2,1.4.5Z" style="fill:#bbbabb;"/><path d="M331.7,54c-.6.2-2.2,1.6-3.4,1.4-.4-.8-1.3-1.9-1.9-3.3,1.7.1,4.3.5,5.3,1.9Z" style="fill:#d6d7d7;"/><path d="M333.2,54c-.2,1.4-2.8,3.1-4.3,3.3,0-.4-.4-1.8-.5-1.9,1.2.2,2.8-1.3,3.4-1.4s1,0,1.4,0Z" style="fill:#e8e8e8;"/><path d="M319.3,53.5c2.1.4,4.7,1.7,6.6,2.8s1.3.3.4,1.1c-2.6-.8-5-2.7-7.4-3.8h.5Z" style="fill:#bbbabb;"/><path d="M302,30.1c-1.1,1.2-1.9,2.5-3.4,3.3h-.5c1.1-1.9,1.6-2.2,3.4-3.8l.5.5Z" style="fill:#e8e8e8;"/><path d="M327.4,35.4c3.1-.2,5-2.2,4.8,2.9-1.4-.5-4.8-1.4-4.8-2.9Z" style="fill:#d7d7d7;"/><path d="M262.9,34.9c.3.2.3.3,0,.5v-.5Z" style="fill:#c9caca;"/><path d="M291.5,47.3c0,.2.8.7,0,1.4-1.3.1-2.6,0-3.8,0-.1-1.3-.4-2.9-1.4-3.8.5-.5,1-1,1.4-1.4,1.4.8,1.6,2.8,2.5,4s.8.9,1.4-.2Z" style="fill:#d7d7d7;"/><path d="M287.6,48.7c-.6,0-1.3.4-1.9.5l-1-2.9c.5-.4,1-1,1.4-1.4,1,.9,1.3,2.5,1.4,3.8Z" style="fill:#e8e8e8;"/><path d="M289.1,55.9c0,.3.5.9.2,1.4s-1.5.9-1.2,1.9c5,1,1.7,1-.5,2.4-.3,0-.6,0-1,0-.6-1.2-1.3-2.6-1.9-3.8,2.4.7,2.2-2.2,4.3-1.9Z" style="fill:#bbbabb;"/><path d="M291.9,61.2c-1,1-2,2.3-2.9,3.3-.5,0-1,0-1.4,0v-.5c-.6-.7-.6-1.7-1-2.4.3,0,.6,0,1,0,1.5,0,2.8-.2,4.3-.5Z" style="fill:#c9caca;"/><path d="M287.6,64v.5c-3,.5-3.9.9-7.2,1v-.5c2.2-.5,4.9-.3,7.2-1Z" style="fill:#bbbabb;"/><path d="M280.4,65v.5c-.1,0-1.1,1.8-1.9.7.8-.6.9-1,1.9-1.2Z" style="fill:#41ad98;"/><path d="M305.8,47.8v.5l-10.1,9.6h-.5c-.8-1.5-3.1-1.5-3.8-1.9s-.9-.9-1.9-1.4-2.2-1-2.9-1.4-.9-.6-1.4-1c-.9-.5-1.9-1.2-2.7-1.8s-.9,0-.6-1.1c1.3,0,2.6.1,3.8,0s1.3-.4,1.9-.5c1.3,0,2.6.1,3.8,0s2.4-.4,3.4-.5c3.1-.2,8.2-.9,11-.5Z" style="fill:#7a2f7a;"/><path d="M303.9,62.1c-2.5-.3-5.7-3.4-8.1-4.3l10.1-9.6c-.5,4.4-.8,9.7-1.9,13.9Z" style="fill:#591e80;"/><path d="M291.5,55.9l-1.4,1.2,3.8,2.2c-.5.4-1.4,1.4-1.9,1.9-1.5.3-2.8.5-4.3.5,2.1-1.4,5.4-1.4.5-2.4-.3-1,.9-1.3,1.2-1.9s-.2-1.1-.2-1.4.5-1,.5-1.4c1,.6,1.6,1.3,1.9,1.4Z" style="fill:#d7d7d7;"/><path d="M295.3,57.8c-.2.8-1,1-1.4,1.4l-3.8-2.2,1.4-1.2c.8.4,3.1.4,3.8,1.9Z" style="fill:#e8e8e8;"/></svg>