<?xml version="1.0" encoding="UTF-8"?><svg id="uuid-bb35c56f-7253-420b-9308-5caba67613c9" xmlns="http://www.w3.org/2000/svg" viewBox="0 0 462.2 72.5"><rect y="41.5" width="462.2" height="2.6" style="fill:#1f3459;"/><path d="M199.8,6c3.7,0,4.5-4.7,1.1-6h-2.2c-3.3,1.5-2.6,5.9,1.1,6Z" style="fill:#577884;"/><path d="M265.7,5.4c2.2-1.4,1.6-4.4-.7-5.4h-2.2c-4.8,1.9-1.1,7.8,2.9,5.4Z" style="fill:#1e3359;"/><path d="M411.5,5.9c3.6.3,4.9-4.4,1.3-5.9h-2.2c-3.3,1.3-2.9,5.6.8,5.9Z" style="fill:#1e3359;"/><path d="M31,22.4c0,0,.5-1.4.6-1.5.9-1.4,2.8-2,4.4-1.8l7,11.2h6.7l-7.4-11.4c10.3-3.1,8.8-17.4-2.3-18.1-4.7-.3-9.7.2-14.4,0v29.5c-.1,0,5.4,0,5.4,0v-7.8ZM31,5.8c2.9.3,6.8-.5,9.5,0,3.3.5,4.2,6,1.3,7.7-3.2,1.8-7.4-1.1-9.7,2.8l-1,2.4V5.8Z" style="fill:#1e3359;"/><path d="M135.1,20.8c0-.4,2-1.5,2.5-1.5,2.1-.3,3.5.7,4.8,2.2,2.2,2.6,3.8,6.2,6,8.9h6.8l-8.8-12.5c-2.1-1.8-4.9-1.7-7.3-.5-.2,0-.9.8-1,.7,0-.5.3-.7.7-1L154.8.7h-6.8c-.3,0-2.4,2.6-2.8,3-3.3,3.4-6.7,6.7-10.1,10V.7h-5.5v29.5h5.5v-9.5Z" style="fill:#577883;"/><path d="M231.8,30.2h24.7s0-4.8,0-4.8h-21.6v-.2c.4,0,.8-.1,1.2-.2,4.3-1.1,6.3-3.3,9.2-6.5,3.8-4.1,7.2-8.7,10.9-12.8V.7h-23v5h19.2l-3.3,1.3c-4.1,2.1-13,13.1-16.2,17.1-1.1,1.3-1.1,2-1.1,3.7,0,.8.5,1.4,0,2.3Z" style="fill:#1e3359;"/><path d="M81.4,30.1c5,2.3,8-1.5,9.1-5.9,0-.4.1-1.3.5-1.4v7.4c1.1.3,4-.3,5.3,0V.7h-5.3v10.3c-6.2-6.7-14.7-1.3-15.4,6.8-.4,4.5,1.4,10.2,5.8,12.2ZM85.1,12.8c7.3-1.2,7.7,12.7,1.3,13.2-6.9.6-7.2-12.3-1.3-13.2Z" style="fill:#1e3359;"/><path d="M290.9,23h-5.5c-2.1,6.4-9.3,3.5-9.4-2.4h15.4c1.8-17.9-24.2-16.4-20.5,1.7,2.2,11,17.5,11.3,20.1.7ZM276.9,14.9c2.5-4.9,8.4-2.9,9,2.1-2.7-.2-5.6.3-8.3,0-1.9-.2-1.5-.7-.7-2.1Z" style="fill:#1e3359;"/><path d="M120.7,23h-5.4c-2.6,6.2-9.5,3.7-9.5-2.4h15.4c1.6-16.8-22.5-17.1-20.8.3,1.1,12.1,17.2,13.3,20.4,2.1ZM106.4,15.3c1.4-3.4,5.4-4.5,7.9-1.5.5.6,2,3.2.6,3.2h-8.6c-.5-.1,0-1.4.2-1.7Z" style="fill:#1e3359;"/><path d="M336,23h-5.4c-.2,0-1.2,2.2-2.2,2.8-3.9,2.6-7.2-1.5-7.5-5.2h15.6c1.2-16.9-22.5-17.2-20.9.6,1.1,11.8,17.4,12.9,20.4,1.8ZM329.2,13.4c.4.4,2.3,3.6,1.2,3.6h-9.2c.4-3.9,4.9-6.8,8-3.6Z" style="fill:#1e3359;"/><path d="M300.7,23.2c0,0,.6-.6.8-.7,1.7-.7,3.1.8,4.1,2,1.4,1.7,2.7,3.9,4,5.7h5.8l-6.6-9.1c-1.6-1.2-3.4-1.3-5.2-.5-.3.1-.5.6-1,.5,0-.4.5-.5.7-.7,3.3-3.5,8.1-7.7,10.9-11.3.2-.2.5-.3.4-.7-1.8.5-4.7-.6-6.5.4-2.6,2.5-4.8,5.4-7.5,7.8V.7h-5.3v29.5h5.3v-7.1Z" style="fill:#1e3359;"/><path d="M60.6,30.7c15,1,14.8-23.2.8-22.7-13.7.5-13.3,21.9-.8,22.7ZM61.2,12.5c6.8-.7,7.1,13.1.9,13.6-6.8.6-7.3-13-.9-13.6Z" style="fill:#1e3359;"/><path d="M211.9,24.9c-.3-.5-.4-1.4-.5-1.6-.5-.6-4.4,0-5.4-.2-.2,10.3,21.1,10.4,18.9-.5-1.1-5.1-8.4-4.7-11.7-6.5-3.8-2.1,1.9-5.8,4.8-3.4.8.6,1.1,2.2,1.3,2.3.6.2,3.8,0,4.8,0s0-2.1-.2-2.5c-3-7-18.7-5.6-17.2,3.5.4,2.1,2.5,3.7,4.4,4.4,2.3.9,9.7,1.1,8.2,4.7-1.1,2.6-6.2,2.1-7.5-.2Z" style="fill:#577884;"/><path d="M436.9,23.7c-.2-3.3-2.6-4.9-5.5-5.9-1.6-.6-6.4-1.1-7.2-2.4-1.9-2.9,4.1-4.7,6.1-2.5.5.6.6,2,.7,2.1,0,0,.4-.2.6-.2.2,0,.4.2.5.2h4.2c-.2-9.7-19.1-8.9-17.7.8.1.9.5,1.6,1,2.3,2.7,3.6,10.4,3.1,11.6,5.2,2,3.5-5.9,5.6-7.7,1.2-.4-.9.2-1.3-.8-1.3h-4.6c-.5,0-.2,1.3-.2,1.6,2.2,8.7,19.5,7.9,18.9-1Z" style="fill:#1e3359;"/><path d="M368.6,15.7c0-.5.3-1.6.5-2h-.2c-.3,0-.2-.4-.3-.6-.4-3.9.3-8.4,0-12.4h-5.2c-.3,0-.4,1-.4,1.3v28.2h5.5c.3-4.7-.4-9.9,0-14.5Z" style="fill:#1e3359;"/><path d="M163,14.6v-.3c0,.2,0,.3,0,.3Z" style="fill:#577884;"/><path d="M163.1,14.3v.3c0,0,0-.1,0-.3Z" style="fill:#577884;"/><path d="M163,17.2c0-.2.7-2,.9-2.3,1.5-2.3,4.6-2,6.8-1.5.2-1-.2-1.9-.3-2.8,0-1,.8-1.8-.3-2.3-3.5-1.6-6.2,1.2-6.6,4.6l-.4,1.3c0,.2,0,.4,0,.3,0,0,0-.1,0-.3v-5.7c-.6-.6-4.2,0-5.3-.2v21.8h5.3v-13.1Z" style="fill:#577884;"/><path d="M180.1,30.7c4,.4,5.9-2.2,7.3-5.5,0-.3-.3-.3-.5-.2-1.2,2.3-5.4,2.3-6.7,0,0-.2-.5-1.1-.5-1.2v-15.1s-.3-.4-.4-.4h-4.8s-.4.3-.4.4v14.4c0,3.3,2.5,7.2,5.9,7.5Z" style="fill:#577884;"/><path d="M369.1,13.7c1-1.9,4.6-2.2,6.1-.7.3.2,1.1,1.8,1.1,2v15.2h5.3c0-.5.2-1,.3-1.6.2-3.4.4-12.1-.4-15.2-1.9-7.4-11.1-7.2-12.6.2,0-.2.1-.2.2,0Z" style="fill:#1e3359;"/><path d="M368.9,13.7h.2c0-.2-.2-.2-.2,0Z" style="fill:#1e3359;"/><path d="M352.7,13.5c.2.3.9,1.7.9,2v14.8h5.3v-16c0-.2-.6-2-.8-2.3-2.7-6-10.8-4.9-11.9,1.5,0,0,.2.2.2.2,1.2-2.1,5-2.2,6.3-.2Z" style="fill:#1e3359;"/><path d="M398.9,25.4c0,0-.2-.2-.2-.2-1.2,1.8-4.8,2-6.2.4-.3-.3-1-1.8-1-2.2v-15c-1.7.1-3.5.1-5.3,0v16.2c0,.8,1.1,2.9,1.7,3.6,3.6,4.5,9.8,2.6,11-2.8Z" style="fill:#1e3359;"/><path d="M187.4,25.2c.3,1.2-.2,3.7,0,5h5.5V8.8s-.3-.4-.4-.4h-4.8c-.3,0-.3.6-.4.8-.5,4.3.5,9.6,0,13.9,0,.4-.3,1.5-.5,1.8.4-.7.8-.5.5.2Z" style="fill:#577884;"/><path d="M187.4,25.2c.3-.7-.1-.9-.5-.2.2,0,.4,0,.5.2Z" style="fill:#577884;"/><path d="M398.9,25.4c.5.9.3,3.6.2,4.8h5.5V8.4c-.2.2-.5,0-.6,0h-4.6c-.4.4-.3,1.4-.4,2-.2,4.2.5,9.2,0,13.2,0,.3-.3,1.3-.5,1.6.3-.3.5-.2.2.2Z" style="fill:#1e3359;"/><path d="M398.9,25.4c.2-.4,0-.6-.2-.2,0,0,.2.1.2.2Z" style="fill:#1e3359;"/><path d="M409.3,8.4s-.4.3-.4.4v21.5h5.5V8.8c0-.2-.7-.4-.8-.4h-4.3Z" style="fill:#1e3359;"/><path d="M345.8,15c0-.5.2-.9.5-1.3-.4.3-.5.2-.2-.2-.8-.7-.2-.6-.2-1.3,0-.5-.2-1-.3-1.4,0-.4.4-2.3-.1-2.3h-5.2v21.8h5.5v-15.2Z" style="fill:#1e3359;"/><path d="M346.3,13.7c0,0-.2-.2-.2-.2-.2.4-.1.6.2.2Z" style="fill:#1e3359;"/><rect x="261.1" y="8.4" width="5.3" height="21.8" style="fill:#1e3359;"/><rect x="197.3" y="8.4" width="5.3" height="21.8" style="fill:#577884;"/><path d="M196.3,60.6c-.4-.2-1.7,0-.6-.6.9-.5,1.2-.2,1.8-1.3,1.6-3-.6-4.8-3.5-5.1-1.6-.2-3.5.1-5.2,0v14.2h5.4c.2,0,1.9-.5,2.2-.7,2.5-1.2,2.6-5.2-.2-6.4ZM189.8,54.6c.2-.7,4.5-.2,5.3,0,2.4.7,2.4,4.3,0,5.1-.7.2-5.3.7-5.3,0s-.2-4.4,0-5ZM194.7,66.7c-.7.2-4.9.6-4.9,0v-5.9h4.9c.7,0,2.1,1,2.3,1.7.7,2.1-.3,3.7-2.4,4.2Z" style="fill:#1f345a;"/><path d="M251.4,66.2c-.5-1.1-2.5-9-2.9-9.1-.2,0-.9,0-1,0l-2.7,9.1-.4-.2c-.5-1.1-2-8.6-2.3-8.9,0,0-1-.1-1.2,0,.8,1.2,2.6,10,3.1,10.3.2.1.8.2.9,0,.4-.3,2.5-8.2,3-9.3l2.8,9.3c0,0,1,0,1.2,0,.5-.3,2.3-9.3,2.9-10.5h-1c0,.1-2.5,9.1-2.5,9.1Z" style="fill:#1f345a;"/><path d="M274.3,57.1l-1.3.2-5.1,5.5v-10.3c-.2,0-1,0-1,0v15.1s1,0,1,0v-3.5c0-.1,1.5-1.7,1.8-1.8.7.1,3.2,4.7,4,5.1.4.2.8.1,1.2.1l-4.5-6.1,4-4.4Z" style="fill:#21355b;"/><path d="M225.3,57c-4.9.8-5.3,10.9,1.3,11,.5,0,4.2-.5,3.2-1.5-.1-.1-2.5.7-3.2.7-2.7,0-4.1-2.3-4-4.8h7.7c.1-3.3-1.4-6-5.1-5.4ZM229.1,61.7c-1.3,0-5.1.3-6,0-.8-.2.2-2.3.6-2.8,1.3-1.6,3.8-1.8,5,0,.3.5,1.1,2.7.4,2.7Z" style="fill:#1f3459;"/><path d="M204.7,57c-4.9.8-5.3,10.9,1.3,11,.5,0,4.2-.5,3.2-1.5-.1-.1-2.5.7-3.2.7-2.7,0-4.1-2.3-4-4.8h7.7c.1-3.3-1.4-6-5.1-5.4ZM208.4,61.7c-1.3,0-5.1.3-6,0-.8-.2.2-2.3.6-2.8,1.3-1.6,3.8-1.8,5,0,.3.5,1.1,2.7.4,2.7Z" style="fill:#1f3459;"/><path d="M219.1,57.7l-3.1,8.8-3.6-9.3h-1.2c0,0,4,10.3,4,10.3.2.3.6.3.9.2.6-.2,3.6-9.3,4.2-10.5-.6,0-1.1,0-1.3.5Z" style="fill:#20345a;"/><path d="M262.1,57.1v13.6c0,.9-1.9,1.3-2.6.8v1c.9,0,2.4.1,3.1-.5,0,0,.5-1,.5-1v-13.8c-.2,0-1,0-1,0Z" style="fill:#23385d;"/><path d="M235,58.3c-.2.3-.1.8-.5.7,0-.3,0-.6,0-1,0-.3,0-.6,0-1-.2,0-1,0-1,0v10.6s1,0,1,0v-6.4c0-.1.4-1.7.5-1.9.4-.9,1.7-1.7,2.7-1.8,1,0,1.8.8,1.5-.8-1.9,0-3.1-.2-4.3,1.4Z" style="fill:#23385d;"/><path d="M257.5,57.2v10.4h1.2v-10.4c0-.5-1.2-.5-1.2,0Z" style="fill:#314467;"/><path d="M257.9,53c-.6.2-.5,2,.5,1.7.6-.2.5-2-.5-1.7Z" style="fill:#263a5f;"/><path d="M262.4,53c-.6.2-.5,2,.5,1.7.6-.2.5-2-.5-1.7Z" style="fill:#263a5f;"/></svg>