<?xml version="1.0" encoding="UTF-8"?><svg id="uuid-f1eef34b-fcd9-4699-9c6d-f032a91806e2" xmlns="http://www.w3.org/2000/svg" viewBox="0 0 2226.309577 399.999982"><g id="uuid-e9cabd59-9a40-4bd3-bc7d-12ad6b454ba2"><g id="uuid-196664f3-13a9-4079-be82-d33bb69714ec"><polygon id="uuid-6af6dd82-9046-4fbb-9c9a-9d4b1b143415" points="263.902458 131.951279 263.902458 0 131.951276 0 131.951276 131.951279 0 263.902558 131.951276 263.902558 131.951276 395.853837 263.902458 395.853837 263.902458 263.902558 395.853734 131.951279 263.902458 131.951279" style="fill:#7bcaef;"/><g id="uuid-3c1ec831-4040-40f8-8124-2d3105a1bedf"><path d="M131.951276,131.951372H52.780492C23.630653,131.951372,0,108.320718,0,79.170786v-26.3902C0,23.630747,23.630653.000093,52.780492.000093h79.170784v131.951279Z" style="fill:#3b6d89;"/><path d="M395.853734,131.951372h-131.951183V.000093h79.170691C372.223174.000093,395.853734,23.630747,395.853734,52.780586v79.170786Z" style="fill:#3b6d89;"/><path d="M131.951276,395.853837H52.780492c-29.149838,0-52.780492-23.630654-52.780492-52.780493v-79.170786h131.951276v131.951279Z" style="fill:#3b6d89;"/><path d="M343.073242,395.853837h-79.170691v-131.951279h79.170691c29.149931,0,52.780492,23.630654,52.780492,52.780586v26.3902c0,29.149839-23.63056,52.780493-52.780492,52.780493Z" style="fill:#3b6d89;"/></g></g><line id="uuid-bce0bf49-6154-4744-a817-3b8a37ecc9d5" x1="510.365511" x2="510.365511" y2="395.853837" style="fill:none; stroke:#3b6d89; stroke-miterlimit:10; stroke-width:5.585937px;"/><g id="uuid-7f5d8e0b-eb1f-4968-9585-340083c34845"><path d="M619.44266,252.668171h45.033888c17.76517,0,32.020037,5.183175,42.76642,15.551343,10.744564,10.367259,16.117755,24.082988,16.117755,41.145371,0,17.064201-5.373191,30.779021-16.117755,41.14628-10.746382,10.367259-25.001249,15.551343-42.76642,15.551343h-45.033888v-113.394336ZM664.476549,270.001486h-26.728671v78.727706h26.728671c12.90566,0,22.746509-3.59031,29.523458-10.772748,6.77604-7.18062,10.165423-16.711443,10.165423-28.591559,0-11.987399-3.389384-21.544587-10.165423-28.672476-6.776949-7.126979-16.617798-10.690923-29.523458-10.690923Z" style="fill:#3b6d89;"/><path d="M782.486737,286.442905c10.852755,0,19.668062,3.766689,26.445011,11.299157,6.77604,7.532469,10.191789,17.346952,10.24543,29.442542,0,1.62014-.108191,3.725776-.323664,6.317818h-57.344951c1.079184,6.641483,3.725776,11.596456,7.937049,14.862192,4.212182,3.267555,9.2608,4.900423,15.146762,4.900423,8.09979,0,15.577709-2.72569,22.435573-8.180706l8.423455,12.068315c-8.531646,7.28972-19.168928,10.93458-31.911846,10.93458-11.718284,0-21.261836-3.752142-28.632472-11.258245-7.370636-7.505193-11.0555-17.359681-11.0555-29.563462,0-12.149231,3.575763-21.99099,10.731836-29.523458,7.154254-7.532469,16.455057-11.299157,27.903318-11.299157ZM782.162164,301.508752c-5.831413,0-10.489087,1.714693-13.971206,5.143171-3.483028,3.429387-5.684127,8.087062-6.601479,13.972115h40.255294c-.91917-6.046886-3.092085-10.744564-6.520563-14.093944-3.429387-3.347562-7.816129-5.021343-13.162045-5.021343Z" style="fill:#3b6d89;"/><path d="M951.92773,288.468535v12.311063l-42.36093,49.893399h43.171v15.389511h-65.68749v-12.311063l43.090084-49.894308h-41.794518v-15.388601h63.581853Z" style="fill:#3b6d89;"/><path d="M992.020283,291.788821c6.371459-3.563944,13.499347-5.345916,21.383664-5.345916,7.882499,0,15.010387,1.770153,21.382755,5.305913,6.37055,3.536669,11.365527,8.423455,14.984021,14.660357,3.617585,6.235993,5.426832,13.189321,5.426832,20.856346,0,7.667935-1.809247,14.619444-5.426832,20.856346-3.618494,6.236902-8.613471,11.124597-14.984021,14.660357-6.372368,3.53576-13.500257,5.305003-21.382755,5.305003-7.884317,0-15.012205-1.781972-21.383664-5.345916-6.371459-3.563035-11.352798-8.44982-14.943108-14.660357-3.592128-6.208718-5.386829-13.147499-5.386829-20.815434,0-7.667026,1.7947-14.605807,5.386829-20.816343,3.59031-6.208718,8.571649-11.096413,14.943108-14.660357ZM1030.818178,309.364884c-4.644946-4.643128-10.449084-6.965147-17.414231-6.965147-6.966056,0-12.757465,2.322019-17.374227,6.965147-4.616762,4.644946-6.925143,10.610916-6.925143,17.900636s2.308381,13.256599,6.925143,17.899727c4.616762,4.644946,10.408171,6.966056,17.374227,6.966056,6.965147,0,12.769284-2.321109,17.414231-6.966056,4.643128-4.643128,6.965147-10.610007,6.965147-17.899727s-2.322019-13.25569-6.965147-17.900636Z" style="fill:#3b6d89;"/><path d="M1119.020339,286.442905c5.022252,0,9.368082.729154,13.040217,2.187462l-4.049441,16.765993c-3.618494-1.889254-7.911592-2.83479-12.878385-2.83479-5.507748,0-9.962678,1.85016-13.36479,5.548661-3.401203,3.698501-5.102259,8.788031-5.102259,15.267682v42.684594h-16.928734v-77.593972h16.766902v8.747119c4.966792-7.18062,12.472895-10.772748,22.51649-10.772748Z" style="fill:#3b6d89;"/><path d="M1180.01015,286.442905c11.23097,0,19.844441,3.780326,25.838595,11.34007v-9.314441h17.008741v72.16714c0,12.202872-3.69941,21.814611-11.096413,28.834308-7.398821,7.018788-17.576063,10.53-30.535364,10.53-5.940513,0-11.839204-.783704-17.697892-2.349294-5.859597-1.566499-10.786386-3.780326-14.782185-6.641483l6.155986-14.335783c8.585287,5.236816,17.359681,7.856133,26.324091,7.856133,7.883408,0,13.957569-2.038358,18.224301-6.115073,4.264914-4.077625,6.398734-9.759934,6.398734-17.049654v-6.236902c-5.941422,7.560653-14.553075,11.339161-25.838595,11.339161-4.482205,0-8.856219-.930989-13.121133-2.793878-4.265823-1.862888-8.09979-4.45493-11.500993-7.776126-3.402112-3.320287-6.143258-7.545197-8.221619-12.67564-2.07927-5.129534-3.118451-10.718198-3.118451-16.765993,0-6.046886,1.039181-11.63555,3.118451-16.765993,2.078361-5.129534,4.819507-9.355353,8.221619-12.676549,3.401203-3.320287,7.23517-5.912329,11.500993-7.775217,4.264914-1.862888,8.638928-2.794787,13.121133-2.794787ZM1184.384164,302.399738c-6.965147,0-12.527445,2.308381-16.685077,6.925143-4.158541,4.616762-6.236902,10.327255-6.236902,17.13057,0,6.750583,2.078361,12.446529,6.236902,17.090566,4.157632,4.644037,9.71993,6.965147,16.685077,6.965147,6.749674,0,12.257422-2.280197,16.523245-6.844227,4.264914-4.562212,6.398734-10.299071,6.398734-17.211486,0-6.911506-2.133821-12.648365-6.398734-17.211486-4.265823-4.562212-9.773571-6.844227-16.523245-6.844227Z" style="fill:#3b6d89;"/><path d="M1369.94564,288.468535l-31.02086,77.593972h-20.087189l-31.183601-77.593972h18.467049l22.921979,60.017909,22.921979-60.017909h17.980643Z" style="fill:#3b6d89;"/><path d="M1462.361801,288.468535v77.593972h-16.927825v-9.314441c-5.885963,7.560653-14.012119,11.339161-24.379378,11.339161-10.962765,0-20.168105-3.859424-27.619657-11.581909-7.452462-7.721576-11.178238-17.467872-11.178238-29.239797,0-11.771016,3.725776-21.517312,11.178238-29.239797,7.451552-7.721576,16.656893-11.582818,27.619657-11.582818,10.367259,0,18.493415,3.807601,24.379378,11.420986v-9.395357h16.927825ZM1423.079318,302.399738c-7.075156,0-12.744737,2.389297-17.00965,7.167892-4.265823,4.778594-6.398734,10.679104-6.398734,17.697892,0,7.019697,2.132911,12.918388,6.398734,17.697892,4.264914,4.778594,9.934494,7.167892,17.00965,7.167892,6.910597,0,12.540174-2.349294,16.887822-7.046972,4.34583-4.697678,6.519654-10.637282,6.519654-17.818811,0-7.18062-2.173824-13.121133-6.519654-17.81972-4.347648-4.697678-9.977225-7.046063-16.887822-7.046063Z" style="fill:#3b6d89;"/><path d="M1533.152458,286.442905c9.233524,0,16.792359,2.875703,22.678322,8.626199,5.885054,5.751406,8.828944,13.162045,8.828944,22.233738v48.759664h-17.00965v-43.171c0-6.47965-1.579227-11.487355-4.737682-15.024934-3.159364-3.53576-7.601565-5.305003-13.323878-5.305003-5.724131,0-10.502725,1.821975-14.336692,5.466836-3.834877,3.64486-5.750496,8.654384-5.750496,15.024934v43.009168h-17.00965v-77.593972h16.847818v9.476273c5.236816-7.667026,13.173865-11.501902,23.812965-11.501902Z" style="fill:#3b6d89;"/><path d="M1658.773304,288.468535v87.151161c0,7.776126-2.07927,13.782099-6.235993,18.021556-4.158541,4.238548-9.666289,6.358731-16.523245,6.358731-4.535846,0-8.45073-.783704-11.74465-2.349294l3.968524-14.741273c1.997445.75552,4.076716,1.134643,6.236902,1.134643,2.159277,0,3.913974-.757338,5.265-2.268378,1.349207-1.511949,2.02472-3.834877,2.02472-6.965147v-86.342h17.008741ZM1641.683647,253.153667c2.267468-2.321109,5.074984-3.482119,8.423455-3.482119,3.347562,0,6.182352,1.161009,8.504371,3.482119,2.321109,2.322928,3.483028,5.157718,3.483028,8.50528,0,3.348471-1.161919,6.155077-3.483028,8.423455-2.322019,2.267468-5.156809,3.401203-8.504371,3.401203-3.348471,0-6.155986-1.133734-8.423455-3.401203-2.268378-2.268378-3.402112-5.074984-3.402112-8.423455,0-3.347562,1.133734-6.182352,3.402112-8.50528Z" style="fill:#3b6d89;"/><path d="M1721.948758,286.442905c10.853664,0,19.668062,3.766689,26.44592,11.299157,6.77513,7.532469,10.19088,17.346952,10.24543,29.442542,0,1.62014-.1091,3.725776-.323664,6.317818h-57.344951c1.079184,6.641483,3.725776,11.596456,7.937049,14.862192,4.212182,3.267555,9.25989,4.900423,15.146762,4.900423,8.098881,0,15.577709-2.72569,22.435573-8.180706l8.423455,12.068315c-8.532555,7.28972-19.168928,10.93458-31.912755,10.93458-11.717375,0-21.260927-3.752142-28.631563-11.258245-7.370636-7.505193-11.056409-17.359681-11.056409-29.563462,0-12.149231,3.576672-21.99099,10.732745-29.523458,7.153345-7.532469,16.454148-11.299157,27.902409-11.299157ZM1721.625094,301.508752c-5.831413,0-10.489087,1.714693-13.972115,5.143171-3.482119,3.429387-5.683218,8.087062-6.60057,13.972115h40.254385c-.918261-6.046886-3.091176-10.744564-6.519654-14.093944-3.430296-3.347562-7.816129-5.021343-13.162045-5.021343Z" style="fill:#3b6d89;"/><path d="M1847.490507,249.427891v116.634616h-17.00965v-116.634616h17.00965Z" style="fill:#3b6d89;"/><path d="M1910.66687,286.442905c10.853664,0,19.668062,3.766689,26.44592,11.299157,6.77513,7.532469,10.19088,17.346952,10.24543,29.442542,0,1.62014-.1091,3.725776-.323664,6.317818h-57.344951c1.079184,6.641483,3.725776,11.596456,7.937049,14.862192,4.212182,3.267555,9.25989,4.900423,15.146762,4.900423,8.098881,0,15.577709-2.72569,22.435573-8.180706l8.423455,12.068315c-8.532555,7.28972-19.168928,10.93458-31.912755,10.93458-11.717375,0-21.260927-3.752142-28.631563-11.258245-7.370636-7.505193-11.056409-17.359681-11.056409-29.563462,0-12.149231,3.576672-21.99099,10.732745-29.523458,7.153345-7.532469,16.454148-11.299157,27.902409-11.299157ZM1910.343206,301.508752c-5.831413,0-10.489087,1.714693-13.972115,5.143171-3.482119,3.429387-5.683218,8.087062-6.60057,13.972115h40.254385c-.918261-6.046886-3.091176-10.744564-6.519654-14.093944-3.430296-3.347562-7.816129-5.021343-13.162045-5.021343Z" style="fill:#3b6d89;"/><path d="M2041.962752,288.468535l-31.02086,77.593972h-20.087189l-31.183601-77.593972h18.467049l22.921979,60.017909,22.921979-60.017909h17.980643Z" style="fill:#3b6d89;"/><path d="M2092.908969,286.442905c10.853664,0,19.668062,3.766689,26.44592,11.299157,6.77513,7.532469,10.19088,17.346952,10.24543,29.442542,0,1.62014-.1091,3.725776-.323664,6.317818h-57.344951c1.079184,6.641483,3.725776,11.596456,7.937049,14.862192,4.212182,3.267555,9.25989,4.900423,15.146762,4.900423,8.098881,0,15.577709-2.72569,22.435573-8.180706l8.423455,12.068315c-8.532555,7.28972-19.168928,10.93458-31.912755,10.93458-11.717375,0-21.260927-3.752142-28.631563-11.258245-7.370636-7.505193-11.056409-17.359681-11.056409-29.563462,0-12.149231,3.576672-21.99099,10.732745-29.523458,7.153345-7.532469,16.454148-11.299157,27.902409-11.299157ZM2092.585304,301.508752c-5.831413,0-10.489087,1.714693-13.972115,5.143171-3.482119,3.429387-5.683218,8.087062-6.60057,13.972115h40.254385c-.918261-6.046886-3.091176-10.744564-6.519654-14.093944-3.430296-3.347562-7.816129-5.021343-13.162045-5.021343Z" style="fill:#3b6d89;"/><path d="M2194.802311,286.442905c9.233524,0,16.792359,2.875703,22.678322,8.626199,5.885054,5.751406,8.828944,13.162045,8.828944,22.233738v48.759664h-17.00965v-43.171c0-6.47965-1.579227-11.487355-4.737682-15.024934-3.159364-3.53576-7.601565-5.305003-13.323878-5.305003-5.724131,0-10.502725,1.821975-14.336692,5.466836-3.834877,3.64486-5.750496,8.654384-5.750496,15.024934v43.009168h-17.00965v-77.593972h16.847818v9.476273c5.236816-7.667026,13.173865-11.501902,23.812965-11.501902Z" style="fill:#3b6d89;"/></g><g id="uuid-b86d43b6-e1f3-4e3d-8f50-4372b7021778"><path d="M722.477793,30.918116v20.499043l-68.360448,86.97751h68.360448v24.165723h-103.245278v-20.498133l68.359538-86.978419h-68.17134v-24.165723h103.05708Z" style="fill:#3b6d89;"/><path d="M832.963696,71.445252v52.280878c0,6.957873-1.1601,13.132952-3.478482,18.523417-2.3202,5.392284-5.501384,9.701747-9.54446,12.929298-4.043076,3.22937-8.60347,5.657761-13.681181,7.287902-5.077711,1.629232-10.531818,2.444757-16.361413,2.444757-4.639491,0-9.058964-.502771-13.258417-1.504675-4.200363-1.001905-8.13343-2.585678-11.80011-4.748592-3.667589-2.162914-6.833317-4.82678-9.497184-7.992508-2.665685-3.164819-4.764957-7.052427-6.300544-11.660098-1.536496-4.606761-2.303835-9.699928-2.303835-15.279501v-52.280878h24.542119v50.117963c0,6.958783,1.692873,12.115591,5.077711,15.467699,3.384838,3.354835,7.898864,5.031343,13.54026,5.031343,5.642305,0,10.155422-1.676508,13.54026-5.031343,3.384838-3.352108,5.077711-8.508916,5.077711-15.467699v-50.117963h24.447565Z" style="fill:#3b6d89;"/><path d="M954.449639,71.445252l-69.676016,129.102965h-26.893231l31.876389-57.357679-39.304303-71.745285h27.832403l25.01216,46.82677,24.259367-46.82677h26.893231Z" style="fill:#3b6d89;"/><path d="M1006.919624,69.000495c11.282792,0,20.216291,3.981253,26.797768,11.94194V27.156882h24.448474v135.403509h-23.978434v-10.060869c-6.707852,8.274351-15.796818,12.411981-27.267809,12.411981-12.538355,0-23.022897-4.57585-31.453625-13.728458-8.431637-9.151699-12.647456-20.560866-12.647456-34.227501,0-13.664816,4.215819-25.073074,12.647456-34.226591,8.430728-9.151699,18.915269-13.728458,31.453625-13.728458ZM1011.432741,91.849741c-7.021515,0-12.693823,2.39748-17.019651,7.193348-4.324919,4.795869-6.487833,10.766384-6.487833,17.912456,0,7.146981,2.162914,13.117496,6.487833,17.913365,4.325828,4.794959,9.998136,7.193348,17.019651,7.193348,6.957873,0,12.614726-2.365659,16.972374-7.099704,4.355831-4.732227,6.53511-10.733654,6.53511-18.007009,0-7.270628-2.179279-13.272964-6.53511-18.0061-4.357649-4.732227-10.014501-7.099704-16.972374-7.099704Z" style="fill:#3b6d89;"/><path d="M1128.499212,69.000495c13.101131,0,23.742959,4.419472,31.923665,13.258417s12.301971,20.373577,12.364704,34.602988c0,3.19664-.157286,5.955969-.470041,8.274351h-64.598305c1.252835,6.332365,3.949432,11.064592,8.086153,14.198499,4.13763,3.135725,9.246253,4.701315,15.326778,4.701315,3.949432,0,7.960687-.76643,12.036494-2.302926,4.073988-1.535587,7.740668-3.682136,11.00095-6.441465l14.386697,15.796818c-10.029957,9.215341-22.97562,13.823012-38.834262,13.823012-14.043031,0-25.434923-4.373105-34.180224-13.117496-8.744391-8.744391-13.116587-20.263568-13.116587-34.555711,0-14.354876,4.262186-25.983152,12.787468-34.885739,8.524372-8.899859,19.619876-13.352062,33.28651-13.352062ZM1128.311923,90.157776c-5.642305,0-10.188152,1.59832-13.634814,4.794959-3.44848,3.197549-5.73595,7.679754-6.864229,13.446616h40.338937c-1.128279-5.830503-3.401203-10.327255-6.816952-13.493892-3.417568-3.16391-7.757943-4.747683-13.022943-4.747683Z" style="fill:#3b6d89;"/><path d="M1246.411211,69.000495c4.889513,0,9.151699.658239,12.788377,1.974716l-3.667589,24.353921c-4.388561-1.942895-9.340806-2.914797-14.856737-2.914797-5.829594,0-10.484542,1.771971-13.963024,5.312277-3.479391,3.542124-5.218632,8.60347-5.218632,15.185857v49.647923h-24.542119v-91.115139h23.789327v9.967224c5.515931-8.274351,14.072124-12.411981,25.670398-12.411981Z" style="fill:#3b6d89;"/><path d="M1304.616236,27.156882v135.403509h-24.542119V27.156882h24.542119Z" style="fill:#3b6d89;"/><path d="M1424.21929,71.445252v91.115139h-23.978434v-10.060869c-6.707852,8.274351-15.796818,12.411981-27.267809,12.411981-12.538355,0-23.022897-4.57585-31.453625-13.728458-8.431637-9.151699-12.646546-20.560866-12.646546-34.227501,0-13.664816,4.214909-25.073074,12.646546-34.226591,8.430728-9.151699,18.915269-13.728458,31.453625-13.728458,11.408258,0,20.498133,4.169451,27.267809,12.506534v-10.061778h23.978434ZM1377.486164,91.849741c-7.021515,0-12.693823,2.39748-17.019651,7.193348-4.324919,4.795869-6.487833,10.766384-6.487833,17.912456,0,7.146981,2.162914,13.117496,6.487833,17.913365,4.325828,4.794959,9.998136,7.193348,17.019651,7.193348,6.957873,0,12.614726-2.365659,16.972374-7.099704,4.355831-4.732227,6.53511-10.733654,6.53511-18.007009,0-7.270628-2.179279-13.272964-6.53511-18.0061-4.357649-4.732227-10.014501-7.099704-16.972374-7.099704Z" style="fill:#3b6d89;"/><path d="M1504.802611,69.000495c10.404535,0,18.91436,3.291193,25.528568,9.87358,6.613298,6.581477,9.919947,15.13858,9.919947,25.669489v58.016827h-24.54121v-50.117963c0-6.518745-1.551952-11.549179-4.654947-15.092212-3.102995-3.540306-7.475191-5.312277-13.116587-5.312277-5.580482,0-10.188152,1.786518-13.823012,5.359554-3.635768,3.573036-5.453198,8.650747-5.453198,15.233133v49.929765h-24.542119v-91.115139h23.88388v10.719107c5.891418-8.775303,14.824007-13.163864,26.798677-13.163864Z" style="fill:#3b6d89;"/><path d="M1607.857872,69.000495c11.282792,0,20.216291,3.981253,26.797768,11.94194V27.156882h24.448474v135.403509h-23.978434v-10.060869c-6.707852,8.274351-15.796818,12.411981-27.267809,12.411981-12.538355,0-23.022897-4.57585-31.453625-13.728458-8.431637-9.151699-12.646546-20.560866-12.646546-34.227501,0-13.664816,4.214909-25.073074,12.646546-34.226591,8.430728-9.151699,18.915269-13.728458,31.453625-13.728458ZM1612.370989,91.849741c-7.021515,0-12.693823,2.39748-17.019651,7.193348-4.324919,4.795869-6.487833,10.766384-6.487833,17.912456,0,7.146981,2.162914,13.117496,6.487833,17.913365,4.325828,4.794959,9.998136,7.193348,17.019651,7.193348,6.957873,0,12.614726-2.365659,16.972374-7.099704,4.355831-4.732227,6.53511-10.733654,6.53511-18.007009,0-7.270628-2.179279-13.272964-6.53511-18.0061-4.357649-4.732227-10.014501-7.099704-16.972374-7.099704Z" style="fill:#3b6d89;"/></g></g></svg>