<?xml version="1.0" encoding="UTF-8"?><svg id="uuid-bb617735-b5cd-4d1f-8cc9-0a666eedfa76" xmlns="http://www.w3.org/2000/svg" viewBox="0 0 175.7 82.1"><path d="M148.2,80.2c.2-1,.5-2,.8-3-18.4-6.4-4-19-9.5-30.1-26.3-8.5-8.5,30.5,8.7,33.1h0Z" style="fill:#f2982a; fill-rule:evenodd;"/><path d="M151.8,9.1c-2.1-2.1-5.8-4.1-9.4-5-11.9-2.9-10.6,7.6-12.2,9.9-4.7,7-5.2,7.9-3.2,8.5,1.8.5,2.6.4,2.6,1,0,1.4-1.9,1.4-.1,3.2,0,0-.2.2-.6.6-.9,1.1.9,1.4.5,2-1.6,1.5-.6,2.6,0,2.9,2.4,1.4,14.3.4,17.4,11.4,1.4-1.4,2.8-2.4,4.4-3l.3-.2c11.8-5.2,26.4,7.8,11.9,24-4.3,4.8-9.7,8.6-12.5,13.3.9.3,1.7.5,2.6.7,4.1-6.2,12.4-10.9,16.7-16,6-7.1,12.8-26.7-13.5-28.9-4.1-.3-1.5-4.1.8-5.6,7.4-4.8,3.1-8.5-4.4-9.5-.2,0-.4,0-.6,0-.5,0-.9-.1-1.3-.2-14.4-2.4-5.8-8.2.6-9.2h0Z" style="fill:#85cce2; fill-rule:evenodd;"/><path d="M132.3,14.6c.8-.1,1.1.1,1.4.4.5.6-.6,2.1,1.3,2.2,1.3.1,1.8-.8,2.2-1.7.4-1.1-.3-1.6-1.1-1.8-1.2-.3-2.8-.5-3.8.3v.5h0Z" style="fill:#722e57; fill-rule:evenodd;"/><path d="M142.4,4.1c4.7,1.2,9.5,4.4,11.1,7.1,0,0,5.9-3.1-2.6-7.5-2.5-1.2-7.1-3.1-12.5-3.7-8.9-.9-8.9,8.3-9.8,12.2-.5,2.1-2.8,4.9-3.8,6.9-1.9,3.8-1.1,3.6,1.4,4.7,1.9.8.5,4.4.3,6.2-.4,3.8,3.4,3.5,7.2,4.5,6.6,1.7,9.8,11,10.4,13.6.8,3.2,3.6,4.5,9.9-3.4,1.8-2.3,3-1.1,2.3.3-1.4,2.8-3.1,5-5.3,7.3-.6.6-.9,1.6-.8,2.5,3-1.8,5.8-4.8,7.7-8.1,1.2-1.9,2.4-.8,1.9.7-1.4,3.8-4,7.2-6.9,10.3-.7.7-1,1.5-1,2.6,3.4-2.4,6-5.3,7.8-8.8.9-1.6,2.2-.6,1.7.9-1.1,3.2-3.5,7.7-7,10.7-1.2,1-1.2,2-1.2,2.7,3.6-2.4,4.8-3.8,7.1-7.2,1.1-1.7,2.3-.6,1.5,1.1-1.6,3.4-3.3,5.5-6.3,8-3.7,3.2-6.8,7.9-7.6,12.5-17.1-2.6-35-41.6-8.7-33.1-.2-.5-.6-1-1-1.3-30.8-13.9-17,32.7,10.7,36.2,1.2-7,8.6-11.4,14.1-17.6,16.4-18.5-4.7-32.7-16.6-20.8-3-11-15-10-17.4-11.4-.6-.3-1.6-1.4,0-2.9.5-.6-1.4-.9-.5-2,.4-.5.6-.6.6-.6-1.8-1.9,0-1.8.1-3.2,0-.5-.9-.5-2.6-1-2-.6-1.5-1.5,3.2-8.5,1.6-2.3.4-12.9,12.2-9.9h0Z" style="fill:#722e57; fill-rule:evenodd;"/><path d="M46.4,77.6l2.4-3.1c.3-.4.6-.7.9-1h0s-3.1,0-3.1,0v-1.3h5v1s-2.3,2.9-2.3,2.9c-.3.4-.6.8-.9,1.1h0s3.3,0,3.3,0v1.3h-5.3v-.9h0Z" style="fill:#f2982a; fill-rule:evenodd;"/><path d="M53.1,72.2h1.6v6.3h-1.6v-6.3h0ZM53.9,71.2c-.5,0-.9-.4-.9-.9s.4-.9.9-.9,1,.4,1,.9c0,.5-.4.9-1,.9h0Z" style="fill:#f2982a; fill-rule:evenodd;"/><path d="M57.8,74.7c0-.6.5-1.5,1.4-1.5s1.3,1,1.3,1.5h-2.8ZM62.1,75.8c0-.1,0-.4,0-.7,0-1.3-.7-3-2.7-3s-3.1,1.7-3.1,3.4,1.2,3.2,3.3,3.2,1.7-.2,2.2-.4l-.2-1.1c-.5.2-1,.3-1.7.3s-1.9-.5-1.9-1.7h4.2Z" style="fill:#f2982a; fill-rule:evenodd;"/><path d="M65.2,74.9h0c.1-.2.3-.5.5-.7l1.6-2h1.9l-2.3,2.5,2.7,3.8h-2l-1.8-2.8-.5.6v2.2h-1.6v-9.2h1.6v5.6h0Z" style="fill:#f2982a; fill-rule:evenodd;"/><path d="M71.6,74.7c0-.6.5-1.5,1.4-1.5s1.3,1,1.3,1.5h-2.8ZM75.8,75.8c0-.1,0-.4,0-.7,0-1.3-.7-3-2.7-3s-3.1,1.7-3.1,3.4,1.2,3.2,3.3,3.2,1.7-.2,2.2-.4l-.2-1.1c-.5.2-1,.3-1.7.3s-1.9-.5-1.9-1.7h4.2Z" style="fill:#f2982a; fill-rule:evenodd;"/><path d="M77.4,74.1c0-.7,0-1.3,0-1.9h1.4v1h.1c.3-.5.9-1.1,2-1.1s2.2.7,2.2,2.7v3.8h-1.6v-3.6c0-.9-.3-1.5-1.2-1.5s-1.1.5-1.2.9c0,.1,0,.3,0,.5v3.8h-1.6v-4.4h0Z" style="fill:#f2982a; fill-rule:evenodd;"/><path d="M85.1,69.3h1.6v3.8h0c.2-.3.5-.6.8-.7.3-.2.7-.3,1.1-.3,1.1,0,2.2.7,2.2,2.7v3.8h-1.6v-3.6c0-.9-.3-1.6-1.2-1.6s-1.1.4-1.3.9c0,.1,0,.3,0,.4v3.8h-1.6v-9.2h0Z" style="fill:#f2982a; fill-rule:evenodd;"/><path d="M98.4,76.6c0,.8,0,1.4,0,1.9h-1.4v-1h-.1c-.3.4-.9,1.1-2,1.1s-2.2-.7-2.2-2.8v-3.7h1.6v3.4c0,1.1.3,1.7,1.2,1.7s1.1-.4,1.2-.9c0-.1,0-.3,0-.5v-3.8h1.6v4.4h0Z" style="fill:#f2982a; fill-rule:evenodd;"/><path d="M100.4,72.2h1.6v6.3h-1.6v-6.3h0ZM101.2,71.2c-.6,0-.9-.4-.9-.9s.4-.9.9-.9.9.4.9.9c0,.5-.4.9-1,.9h0Z" style="fill:#f2982a; fill-rule:evenodd;"/><path d="M103.9,77.1c.4.2,1,.5,1.6.5s1-.3,1-.7-.3-.7-1.1-.9c-1.2-.4-1.7-1.1-1.7-1.8,0-1.1.9-2,2.4-2s1.3.2,1.7.4l-.3,1.2c-.3-.2-.8-.4-1.3-.4s-.9.3-.9.7.3.6,1.1.8c1.1.4,1.7,1,1.7,1.9,0,1.2-.9,2-2.6,2s-1.4-.2-1.9-.4l.3-1.2h0Z" style="fill:#f2982a; fill-rule:evenodd;"/><path d="M11.4,55.2h-1.8c-.3-2-2.1-3.2-3.7-3.2s-2.1.4-2.1,1.7c0,2.4,8.2.5,8.2,5.9s-2.6,4.1-5.2,4.1-3-.3-4.2-1.2l-.5,1H.5v-5h1.8c.2,2,1.9,3.4,4.1,3.4s2.2-.6,2.2-1.6c0-2.8-8.3-.5-8.3-6s2.9-4,5.5-4,2.5.4,3.6,1.1l.3-.9h1.6v4.7h0Z" style="fill:#722e57; fill-rule:evenodd;"/><path d="M22.2,60.2c0,2.4-1.8,3.4-3.9,3.4s-4.7-1.6-4.7-4.7,2.3-4.8,4.7-4.8,3.9,1,3.9,3.1-.6,1.9-1.7,1.9-1.7-.4-1.7-1.4.6-1.4,1.5-1.4c-.3-.4-.9-.6-1.5-.6-1,0-1.9.9-1.9,3.1s.6,3.1,1.9,3.1,1.4-.9,1.5-1.7h1.9Z" style="fill:#722e57; fill-rule:evenodd;"/><path d="M27.9,50.7v5.2h0c.8-1.2,1.7-1.7,3.2-1.7,2.2,0,2.9,1.3,2.9,3.2v3.6c0,.5.1.8.7.8h.7v1.5h-5.6v-1.5h.4c.5,0,.7-.3.7-.8v-3.2c0-1.1-.2-1.9-1.5-1.9s-1.4.8-1.4,1.6v3.5c0,.5.1.8.7.8h.5v1.5h-5.8v-1.5h.8c.6,0,.7-.3.7-.8v-7.9c0-.5-.1-.8-.7-.8h-.8v-1.5h4.5Z" style="fill:#722e57; fill-rule:evenodd;"/><path d="M35.8,54.4h5.4v1.5h-.3c-.4,0-.7,0-.7.3s0,.1,0,.3l1.3,4.7h0l1.4-4.7c0-.1,0-.2,0-.3,0-.2-.3-.3-.7-.3h-.3v-1.5h5.2v1.5h-.4c-.4,0-.7,0-.7.3s0,.1,0,.3l1.4,4.8h0l1.3-4.5c0-.2,0-.4,0-.5,0-.2-.3-.3-.7-.3h-.3v-1.5h4.1v1.5h-.6c-.4,0-.7.2-1,1.2l-1.9,6.2h-3.4l-1.3-4.3h0l-1.4,4.3h-3.4l-1.7-6.2c-.3-1-.8-1.2-1.2-1.2h-.4v-1.5h0Z" style="fill:#722e57; fill-rule:evenodd;"/><path d="M55.9,59.3c0,1.3.3,2.6,1.9,2.6s1.7-.5,1.9-1.6h2.2c-.3,2.3-2.5,3.3-4.6,3.3-3.3,0-4.8-1.9-4.8-4.7s2.1-4.8,4.8-4.8,4.8,2.2,4.8,5.2h-6.3ZM58.8,57.7v-.5c0-1-.5-1.6-1.4-1.6s-1.4.6-1.4,1.6v.5h2.8Z" style="fill:#722e57; fill-rule:evenodd;"/><path d="M68.2,60.9c0,.5.1.8.7.8h.8v1.5h-6.2v-1.5h.8c.6,0,.7-.3.7-.8v-4.2c0-.5-.1-.8-.7-.8h-.9v-1.5h4.7v6.5h0ZM68.2,51.9c0,1-.7,1.7-1.6,1.7s-1.6-.7-1.6-1.7.7-1.6,1.6-1.6,1.6.7,1.6,1.6h0Z" style="fill:#722e57; fill-rule:evenodd;"/><path d="M75.5,50.8v3.5h2.3v1.5h-2.3v5.2c0,.4.2.7.7.7.7,0,.9-.5.9-1.4v-1.5h1.5v1.7c0,1.9-.9,2.9-3.2,2.9s-3-1-3-2.9v-4.8h-1.3v-1.5c1.9,0,2.4-2,2.6-3.5h1.9Z" style="fill:#722e57; fill-rule:evenodd;"/><path d="M83.9,61.7h1.7c1.1,0,1.6-.5,1.6-1.5v-1h1.5v4.1h-8.4v-1.9l4.8-5.5h-1.8c-1,0-1.3.4-1.3,1.3v.9h-1.5v-3.7h8.2v1.6l-4.9,5.7h0Z" style="fill:#722e57; fill-rule:evenodd;"/><path d="M94.2,59.3c0,1.3.3,2.6,1.9,2.6s1.8-.5,1.9-1.6h2.2c-.3,2.3-2.5,3.3-4.6,3.3-3.3,0-4.8-1.9-4.8-4.7s2.1-4.8,4.8-4.8,4.8,2.2,4.8,5.2h-6.3ZM97.1,57.7v-.5c0-1-.5-1.6-1.4-1.6s-1.5.6-1.5,1.6v.5h2.9Z" style="fill:#722e57; fill-rule:evenodd;"/><path d="M101.5,54.4h4.5v1.5h0c.4-.9,1.1-1.8,2.2-1.8s2.2.9,2.2,2.1-.6,1.7-1.5,1.7-1.5-.4-1.5-1.3.4-1,1-1.1c-.2-.2-.4-.2-.6-.2-1,0-1.6,1.2-1.6,2.2v3.4c0,.5.1.8.7.8h.8v1.5h-6.1v-1.5h.8c.5,0,.7-.3.7-.8v-4.2c0-.5-.1-.8-.7-.8h-.8v-1.5h0Z" style="fill:#722e57; fill-rule:evenodd;"/><path d="M9,32.2l3.1,9.5c.4,1.2.7,1.5,1.3,1.5h.6v1.7h-6.9v-1.7h.6c.6,0,1.1,0,1.1-.3s0-.4-.1-.7l-.4-1.3h-3.9l-.2.7c-.2.7-.3,1-.3,1.2s.7.4,1.2.4h.6v1.7H0v-1.7h.6c.7,0,1-.3,1.4-1.5l3.2-9.5h3.8ZM4.9,39.2h2.8l-1.4-4.1h0l-1.4,4.1h0Z" style="fill:#722e57; fill-rule:evenodd;"/><path d="M20,42.5c0,.5.1.8.7.8h.7v1.5h-6.1v-1.5h.8c.5,0,.7-.3.7-.8v-7.9c0-.5-.1-.8-.7-.8h-.9v-1.6h4.7v10.3h0Z" style="fill:#722e57; fill-rule:evenodd;"/><path d="M24.2,34.6c0-.5-.1-.8-.7-.8h-.9v-1.6h4.7v4.7c.7-.7,1.6-1.3,2.5-1.3,2.9,0,3.9,2.2,3.9,4.8s-1,4.7-3.9,4.7-2.3-.4-2.9-1.5l-.6,1.2h-2.2v-10.3h0ZM27.4,40.5c0,1.9.4,3.1,1.5,3.1s1.5-1.2,1.5-3.1-.4-3.2-1.5-3.2-1.5,1.2-1.5,3.2h0Z" style="fill:#722e57; fill-rule:evenodd;"/><path d="M39,40.9c0,1.3.3,2.6,1.9,2.6s1.7-.5,1.9-1.7h2.2c-.3,2.3-2.5,3.3-4.6,3.3-3.2,0-4.8-1.8-4.8-4.7s2.1-4.8,4.8-4.8,4.8,2.2,4.8,5.2h-6.3ZM41.9,39.3v-.5c0-1-.5-1.7-1.5-1.7s-1.4.7-1.4,1.7v.5h2.9Z" style="fill:#722e57; fill-rule:evenodd;"/><path d="M46.6,36h4.5v1.5h0c.4-.9,1.1-1.8,2.2-1.8s2.2.9,2.2,2.1-.6,1.7-1.5,1.7-1.5-.4-1.5-1.3.4-1.1,1-1.2c-.2-.2-.4-.2-.6-.2-1,0-1.6,1.3-1.6,2.2v3.4c0,.5.1.8.7.8h.8v1.5h-6.1v-1.5h.8c.6,0,.7-.3.7-.8v-4.2c0-.5-.1-.8-.7-.8h-.8v-1.5h0Z" style="fill:#722e57; fill-rule:evenodd;"/><path d="M61,32.4v3.6h2.3v1.5h-2.3v5.3c0,.4.2.7.7.7.7,0,.9-.5.9-1.4v-1.4h1.5v1.6c0,1.9-.9,2.9-3.2,2.9s-3-1-3-2.9v-4.8h-1.3v-1.5c1.9,0,2.4-2,2.6-3.6h1.9Z" style="fill:#722e57; fill-rule:evenodd;"/></svg>