<?xml version="1.0" encoding="UTF-8"?><svg id="Layer_2" xmlns="http://www.w3.org/2000/svg" viewBox="0 0 35.91 43.62"><g id="Layer_1-2"><path d="M15.91.16c-1.59.6-2.68,1.58-3.36,3.05-.33.71-.4,1.08-.39,2.17,0,1.11.06,1.45.43,2.28.76,1.66,2.29,2.85,4.07,3.13,2.46.39,4.83-.87,5.87-3.13.39-.82.45-1.15.45-2.28-.02-1.08-.08-1.47-.42-2.18-.54-1.18-1.32-2-2.48-2.62-.85-.46-1.15-.53-2.29-.57-.85-.03-1.52.03-1.89.15h0ZM19.19,2.13c1.84.96,2.54,3.13,1.58,4.95-.77,1.52-2.48,2.29-4.06,1.87-2.71-.71-3.72-4.04-1.81-6.02,1.18-1.24,2.85-1.55,4.29-.81h0ZM11.22,13.21c-2.37.59-3.9,2.35-4.07,4.74-.03.57.05,3.28.2,6.02.23,4.24.25,5,.06,5.11-.12.08-1.58.94-3.24,1.92-1.66.98-3.17,1.94-3.37,2.14-.57.53-.81,1.1-.81,1.97s.15,1.27.81,1.95c.45.48.46.49.2.99-.37.71-.46,2.01-.22,2.89.26.94,1.52,2.26,2.4,2.51.88.25,28.67.23,29.49-.02.34-.09.88-.42,1.22-.71,1.27-1.07,1.67-2.65,1.1-4.29-.31-.91-.31-.93-.02-1.18,1.33-1.13,1.21-3.61-.23-4.46-.25-.15-1.81-1.07-3.44-2.03l-2.99-1.75v-.56c0-.31.11-2.76.26-5.45.22-3.98.22-5.06.06-5.74-.39-1.8-1.75-3.31-3.48-3.93-.71-.26-1.41-.29-6.9-.32-4.94-.02-6.28.02-7.04.2h0ZM25,15.24c1.39.74,1.97,1.8,1.97,3.61,0,.63-.12,3.33-.28,5.98-.14,2.66-.23,4.92-.17,5.05.05.12,1.67,1.18,3.62,2.32,3.56,2.12,4.07,2.49,4.07,2.96,0,.36-.56.88-.91.88-.23,0-8.53-4.6-8.82-4.88-.03-.05.03-2.79.14-6.11.15-4.85.15-6.08,0-6.27-.25-.29-1.15-.29-1.39,0-.14.17-.26,2-.42,6.55-.11,3.47-.17,6.45-.12,6.62.05.25,1.22.99,4.37,2.79,4.89,2.77,5.56,3.2,6.05,3.93.65.96.36,2.28-.65,2.88-.45.28-.99.29-10.11.34l-9.61.05-.2-.59c-.46-1.39-.14-2.41.96-3.06.48-.28.88-.31,4.6-.39,4.41-.08,4.36-.08,4.36-.96,0-.82-.34-.9-4.13-.9s-4.63.12-5.79.71c-1.49.74-2.11,2.03-1.95,4.01l.11,1.16h-3.22c-2.82,0-3.28-.05-3.85-.29-.77-.36-1.13-.98-1.13-1.97,0-.68.06-.79.74-1.44.48-.46,2.31-1.61,5.32-3.33,2.52-1.42,4.63-2.69,4.68-2.82.14-.37-.36-12.89-.53-13.22-.11-.22-.33-.31-.68-.31-.96,0-.94-.14-.73,6.53.09,3.33.17,6.07.14,6.08-.45.36-8.59,4.88-8.81,4.88-.39,0-.91-.53-.91-.91,0-.17.11-.42.23-.54.14-.14,1.84-1.21,3.81-2.37,2.35-1.42,3.58-2.24,3.64-2.45.05-.17-.06-2.82-.23-5.88-.31-5.37-.29-6.05.11-7.04.29-.74,1.3-1.55,2.35-1.87.22-.06,3.17-.11,6.58-.09,6.02.03,6.21.05,6.81.37h0Z" style="fill:#231f20;"/></g></svg>