<?xml version="1.0" encoding="UTF-8"?><svg id="Layer_2" xmlns="http://www.w3.org/2000/svg" viewBox="0 0 53.29 53.26"><g id="Layer_1-2"><path d="M31.04,14.5c-4,0-7.25-3.25-7.25-7.25S27.04,0,31.04,0s7.25,3.25,7.25,7.25-3.25,7.25-7.25,7.25h0ZM31.04,2.36c-2.69,0-4.89,2.19-4.89,4.88s2.19,4.89,4.89,4.89,4.89-2.19,4.89-4.89-2.19-4.88-4.89-4.88h0Z" style="fill:#231f20;"/><path d="M45.03,53.26c-1.08,0-2.16-.41-2.98-1.23l-9.24-11.07c-.4-.48-.98-.75-1.6-.75h-.34c-.62,0-1.2.27-1.6.75l-9.17,10.99c-1.71,1.72-4.39,1.72-6.04.08-.79-.79-1.23-1.85-1.23-2.98s.42-2.14,1.18-2.93c2.59-3.29,9.19-12.7,9.19-17.49S13.71,14.23,10.06,10.9c-.93-.92-1.37-2.15-1.25-3.4.11-1.25.77-2.38,1.81-3.09,1.67-1.15,3.98-.89,5.5.63l10.95,10.95c2.67,1.82,5.28,1.82,7.95,0l10.95-10.95c1.52-1.52,3.83-1.78,5.5-.63,1.04.72,1.7,1.84,1.81,3.09.11,1.25-.33,2.48-1.21,3.37-3.7,3.36-13.18,13.03-13.18,17.77s6.6,14.2,9.19,17.49c.76.79,1.18,1.82,1.18,2.93s-.44,2.19-1.23,2.98c-.82.82-1.9,1.23-2.98,1.23h0ZM30.87,37.85h.34c1.32,0,2.57.58,3.42,1.6l9.17,10.99c.55.54,1.85.62,2.55-.08.72-.72.72-1.9,0-2.62-.03-.03-.06-.07-.09-.1-.4-.5-9.74-12.38-9.74-19.01s12.49-18.18,13.92-19.48c.35-.35.54-.89.49-1.44-.05-.56-.33-1.04-.8-1.36-.72-.49-1.78-.34-2.48.36l-11.03,11.02s-.1.09-.16.13c-3.54,2.46-7.28,2.46-10.82,0-.06-.04-.11-.09-.16-.13L14.44,6.7c-.7-.7-1.76-.85-2.48-.36-.47.32-.75.81-.8,1.36-.05.55.14,1.09.53,1.48,1.38,1.26,13.88,12.81,13.88,19.44s-9.34,18.51-9.74,19.01c-.03.04-.06.07-.09.1-.72.72-.72,1.9,0,2.62.7.7,1.92.69,2.62,0l9.1-10.91c.85-1.02,2.09-1.6,3.41-1.6h0Z" style="fill:#231f20;"/><path d="M6.35,25.4c-.65,0-1.18-.53-1.18-1.18v-4.48c0-.65.53-1.18,1.18-1.18s1.18.53,1.18,1.18v4.48c0,.65-.53,1.18-1.18,1.18h0Z" style="fill:#231f20;"/><path d="M6.35,33.78c-.65,0-1.18-.53-1.18-1.18v-4.48c0-.65.53-1.18,1.18-1.18s1.18.53,1.18,1.18v4.48c0,.65-.53,1.18-1.18,1.18h0Z" style="fill:#231f20;"/><path d="M3.98,27.27H1.18c-.65,0-1.18-.53-1.18-1.18s.53-1.18,1.18-1.18h2.79c.65,0,1.18.53,1.18,1.18s-.53,1.18-1.18,1.18h0Z" style="fill:#231f20;"/><path d="M11.31,27.27h-2.79c-.65,0-1.18-.53-1.18-1.18s.53-1.18,1.18-1.18h2.79c.65,0,1.18.53,1.18,1.18s-.53,1.18-1.18,1.18h0Z" style="fill:#231f20;"/></g></svg>