<?xml version="1.0" encoding="UTF-8"?><svg id="Layer_2" xmlns="http://www.w3.org/2000/svg" viewBox="0 0 50.28 54.22"><g id="Layer_1-2"><path d="M10.07,22.07c.69.26,1.33.5,1.95.77.41.18.62.11.8-.34.77-1.92,1.89-3.62,3.42-5.02,2.09-1.9,4.52-3.11,7.33-3.48,1.2-.16,1.2-.13,1.21-1.54,0-.98.3-1.37,1.02-1.35.54.01.86.27.9.81.03.35.05.71,0,1.06-.1.75.31.93.96,1.02,3.54.46,6.39,2.16,8.66,4.91.73.89,1.32,1.84,1.8,2.88.23.49.48.65.99.33.38-.24.83-.38,1.24-.55.55-.23.99-.13,1.28.43.28.54.11,1.14-.43,1.42-.56.29-1.15.52-1.72.79-.26.12-.44.25-.37.63.53,2.93.25,5.77-.93,8.52-.03.07-.02.15-.03.29.65.29,1.3.59,1.97.86.59.24.84.67.67,1.25-.2.66-.72.83-1.33.62-.81-.28-1.6-.61-2.43-.93-.96,1.17-1.97,2.3-3.19,3.21-1.84,1.36-3.88,2.22-6.16,2.52-.35.05-.83,0-.92.49-.08.49-.07.91.48,1.29,1.36.91,1.6,2.29,1.15,3.99-.33,1.23-1.6,2.01-2.92,1.97-1.35-.05-2.61-1.16-2.78-2.56-.18-1.47.1-2.84,1.69-3.63.44-.22.42-.58.4-.97-.01-.45-.34-.42-.65-.46-2.8-.35-5.29-1.4-7.46-3.21-.84-.7-1.57-1.5-2.2-2.39-.26-.37-.49-.43-.88-.23-.58.3-1.19.55-1.79.82-.66.29-1.35.16-1.56-.28-.27-.6.02-1.24.71-1.56.25-.12.49-.26.75-.38,1.37-.65,1.37-.64.91-2.04-.66-2.01-.97-4.06-.61-6.18.09-.5-.01-.87-.59-1.05-.58-.17-1.13-.44-1.69-.66-.56-.23-.84-.62-.74-1.24.09-.58.5-.77,1.08-.81M34.66,35.04c.27-.37.55-.72.79-1.11,1.74-2.74,2.37-5.69,1.65-8.9-.67-3-2.33-5.36-4.82-7.09-2.63-1.83-5.55-2.54-8.75-1.91-2.89.57-5.26,1.96-7.09,4.28-2.11,2.67-2.98,5.72-2.44,9.06.51,3.1,2.04,5.69,4.6,7.56,3.16,2.3,6.61,3.04,10.44,1.87,2.24-.68,3.99-2.01,5.61-3.76M25.87,44.38c-1.02-.03-1.5.64-1.27,1.78.09.44.35.73.8.79.45.06.85-.07,1.09-.51.43-.78.26-1.45-.62-2.06h0ZM46.83,8.86c1.66.93,1.74,3.01,1.22,4.25-.53,1.27-1.36,1.96-3.78,1.71l.93,1.09c.22.05.33-.07.42-.19.89-1.11,1.85-1.28,3.14-.54,1,.58,1.53,1.43,1.5,2.61-.01.53-.02,1.06,0,1.59.03.62-.29.9-.85.92-.57.01-.88-.34-.92-.89-.03-.43-.02-.86,0-1.29.01-.41-.12-.75-.41-1.02-.38-.36-.75-.62-1.15.04-.23.38-.58.7-.89,1.02-.42.44-.88.4-1.36.07-.38-.27-.57-.71-.9-1.02-.24-.23-.43-.61-.88-.43-.44.19-.67.53-.69,1-.02.45,0,.91-.01,1.37-.03.6-.19,1.13-.91,1.16-.63.03-1-.4-1-1.16,0-.58-.05-1.15.09-1.73.41-1.76,1.31-2.56,3.14-2.69.1,0,.19-.03.31-.04-1.52-1.55-1.88-3.64-.89-5.06.76-1.1,2.28-1.41,3.89-.76M45.61,12.98c.76-.46,1.01-1.31.62-2.06-.31-.6-1.02-.75-1.52-.3-.42.38-.58.85-.42,1.42.18.63.54,1,1.32.94h0ZM5.84,15.87c2.06-.74,4.15.72,4.16,2.91,0,.51,0,1.01,0,1.52-.01.61-.31.96-.94.93-.57-.03-.84-.32-.85-.93,0-.69.16-1.41-.26-2.07-.45-.71-.85-.75-1.36-.1-.25.32-.5.63-.78.92-.44.45-.94.48-1.41.07-.38-.33-.73-.7-1.07-1.07-.45-.49-.87-.45-1.22.13-.25.42-.14.89-.17,1.34-.03.42.07.86-.16,1.26-.22.38-.53.52-.95.47-.43-.05-.75-.32-.77-.71-.07-1.18-.2-2.38.5-3.46.66-1,1.87-1.52,3.36-1.32-.85-.55-1.58-1.11-1.7-2.05-.12-.89-.24-1.8.21-2.67.56-1.12,1.67-1.71,3.07-1.58,1.05.1,2.08.99,2.37,2.07.51,1.9-.06,3.15-2.04,4.31-.58-.05-1.07-.14-1.6.1.13.44.36.81.75.9.38.09.47-.38.66-.63.08-.1.14-.21.21-.32M4.13,13.38c.6.72,1.21.79,1.69.21.37-.45.37-1.36.01-1.84-.33-.46-.77-.59-1.25-.31-.62.36-.8.94-.59,1.63.02.07.06.14.13.32h0ZM8.55,32.21c.81,1.96.53,3.1-1.18,4.8.48.17.96.05,1.41.21,1.47.53,2.13,1.39,2.13,2.93,0,.51,0,1.01,0,1.52,0,.6-.35.95-.87.95-.55,0-.93-.34-.91-.98.01-.46.03-.91-.01-1.37-.05-.52-.23-1.01-.79-1.19-.55-.18-.73.29-.99.62-.2.26-.44.49-.68.71-.46.42-1.04.38-1.47-.07-.26-.27-.51-.56-.79-.82-.24-.23-.44-.64-.87-.43-.42.2-.64.58-.67,1.03-.03.53.02,1.07-.03,1.59-.07.77-.67,1.1-1.35.8-.17-.08-.3-.17-.38-.34-.42-.91-.18-3.76,1.08-4.51,1.36-.8,2.29-.79,3.41.29.1.1.23.18.38.29.33-.35.63-.67,1-1.07-.91,0-1.75.13-2.53-.36-.76-.48-1.2-1.15-1.37-1.99-.33-1.72.38-3.31,1.72-3.84,1.18-.47,2.97-.18,3.74,1.22M5.23,34.95c.38.34.79.43,1.25.18.53-.3.52-.8.54-1.32.02-.66-.36-1.02-.91-1.12-.53-.1-.87.28-1.11.74-.27.52-.07.97.24,1.52h0ZM42.12,37.34c.6-.27,1.18-.26,2.03-.24-1.1-.79-1.72-1.6-1.75-2.82-.03-1.19.22-2.2,1.18-2.96,1.11-.87,3.1-.64,4.05.47,1.18,1.37.81,3.56-.92,5.2.49.18,1,.07,1.47.24,1.38.5,2.09,1.43,2.09,2.9,0,.53,0,1.06,0,1.6,0,.61-.4.9-.92.89-.49,0-.84-.32-.85-.88,0-.46,0-.91,0-1.37,0-.4-.14-.74-.42-1.02-.44-.43-.86-.4-1.19.11-.24.37-.54.67-.86.96-.47.41-1.04.37-1.47-.08-.26-.27-.51-.56-.78-.82-.25-.23-.45-.63-.88-.42-.38.19-.62.53-.65.97-.03.48-.01.96-.01,1.44,0,.6-.22,1.06-.87,1.13-.62.07-1.03-.39-1.05-1.12-.03-.96-.03-1.91.41-2.82.3-.63.71-1.09,1.42-1.36M46.25,34.73c.21-.38.14-.79.11-1.18-.05-.55-.8-1.07-1.27-.87-.53.22-.81.69-.86,1.23-.05.52.13,1.03.63,1.27.5.23.98.1,1.4-.45M44.66,37.65c.74.68.8.66,1.58-.44h-1.89c.11.17.18.27.31.44h0Z" style="fill:#231f20;"/><path d="M26.5,6.45c1.93-.72,4.09.73,4.16,2.79.02.56.01,1.11,0,1.67-.02.61-.35.91-.97.91-.63,0-.81-.38-.81-.95,0-.58.06-1.15-.14-1.73-.16-.46-.44-.75-.88-.84-.41-.09-.54.29-.73.54-.02.02-.03.04-.05.06-1.28,1.31-1.36,1.59-2.71.13-.02-.02-.03-.04-.05-.05-.36-.22-.51-.87-1.07-.66-.59.23-.7.84-.77,1.38-.06.42-.02.86-.02,1.29,0,.47-.21.77-.71.81-.47.03-.96-.09-1-.59-.1-1.22-.3-2.47.44-3.6.68-1.04,1.72-1.32,2.87-1.37.31-.01.51.19.71.39.29.28.52.62.93.81.34-.23.51-.6.79-.95.02-.04.02-.04.02-.04h0ZM22.24,49.09c1.35-.66,2.47-.54,3.23.84.19-.13.3-.16.35-.23.59-.98,1.45-1.15,2.48-.86,1.14.32,1.87,1.06,2.2,2.18.2.68.2,1.4.16,2.1-.04.73-.41,1.1-1.07,1.1-.75,0-.84-.5-.85-1.07,0-.46.01-.91-.01-1.37-.03-.55-.39-.87-.87-1.03-.46-.16-.59.28-.81.52-.21.22-.38.47-.6.68-.64.62-1.03.61-1.68.03-.45-.41-.95-.76-1.57-1.25-.38.12-.73.57-.73,1.29,0,.43,0,.86,0,1.29-.02.59-.27.94-.93.92-.63-.02-.87-.35-.83-.92.07-.97-.23-1.97.26-2.91.29-.56.66-1.01,1.29-1.31h0Z" style="fill:#231f20;"/><path d="M26.51,6.45c-.32-.03-.65-.09-.98-.09-1.65-.01-2.72-1.08-2.72-2.75,0-.51-.04-1.03.06-1.51.28-1.34,1.71-2.24,3.2-2.07,1.43.16,2.48,1.28,2.46,2.69,0,.72.12,1.44-.23,2.16-.38.76-1.04,1.13-1.76,1.55-.04.04-.03.03-.03.03M25.45,1.95c-.41.1-.63.39-.78.75-.25.62-.04,1.38.45,1.68.48.3.92.21,1.29-.17.41-.42.46-.96.27-1.47-.18-.49-.51-.88-1.24-.79h0ZM23.62,30.91c-.13-.13-.22-.21-.3-.31-.85-1.04-1.9-.93-2.57.27-.27.49-.44,1.01-.42,1.59.02.61.01,1.21,0,1.82-.02.86-.24,1.07-1,1.09-.76.02-.97-.41-.92-1.06.09-1.28-.23-2.58.26-3.83.59-1.53,1.71-2.32,3.29-2.68,1.25-.29,2.03.17,2.67,1.15.15.23.38.41.57.61.3.31.58.26.84-.05.37-.44.75-.88,1.1-1.34.28-.35.66-.52,1.06-.48,2.71.22,4.69,1.6,4.75,4.79,0,.53,0,1.06,0,1.59-.01.9-.32,1.28-1.01,1.29-.73,0-1.05-.39-1.06-1.33,0-.63-.01-1.27,0-1.9.01-.62-.25-1.14-.64-1.57-.87-.95-1.75-.89-2.55.12-.4.52-.8,1.04-1.26,1.51-.58.59-1.27.53-1.74-.13-.3-.42-.68-.74-1.06-1.15h0ZM29.74,23.55c-.34,2.04-1.45,3.33-3.43,3.71-2.47.47-4.68-1.48-4.71-3.72-.01-1.1-.15-2.23.47-3.25.99-1.62,2.75-2.36,4.55-1.9,1.84.47,3.06,1.97,3.13,3.88.02.4,0,.81,0,1.28M24.12,21c-.7.68-.64,1.56-.57,2.42.07.89,1.04,1.79,1.92,1.88.86.09,1.86-.59,2.13-1.48.15-.47.05-.96.07-1.43.04-.91-.38-1.54-1.22-1.9-.86-.37-1.62-.27-2.34.52h0Z" style="fill:#231f20;"/></g></svg>