<?xml version="1.0" encoding="UTF-8"?><svg id="Layer_2" xmlns="http://www.w3.org/2000/svg" viewBox="0 0 63.56 42.99"><g id="Layer_1-2"><path d="M41.62,25.49c.23-.49-.11-.71-.35-.94-2.3-2.17-4.19-4.66-5.78-7.38-1.03-1.76-1.93-3.58-2.62-5.5-.11-.3-.21-.59-.34-.96-.77.33-1.46.65-2.27.63-1.75-.03-2.85-.83-3.23-2.55-.22-.98-.68-1.97-.43-2.99.55-2.15,1.74-2.9,4.2-2.59.45.06.69.02,1.03-.33,1.03-1.08,2.3-1.54,3.79-1.13.56.16.93.11,1.3-.45.77-1.18,2-1.47,3.3-1.24,1.27.22,2.11,1.05,2.46,2.31.25.89.44,1.8.43,2.74-.03,1.55-.64,2.53-2.1,3.04-.72.25-.45.62-.23.99,1.04,1.75,2.28,3.37,3.75,4.78,1.83,1.75,3.86,3.28,6.3,4.11,1.59.54,3.24.9,4.82,1.44,2.07.71,4.06,1.57,5.63,3.19,1.42,1.47,2.15,3.24,2.25,5.23.14,2.67-.22,5.32-.47,7.98-.05.52,0,1.05-.05,1.57-.06.52-.14,1.07-.72,1.29-.83.31-1.48-.12-1.46-1.05.02-1.21.2-2.42.25-3.64.09-2.16.54-4.31.23-6.48-.39-2.8-2.34-4.3-4.71-5.37-1.83-.82-3.78-1.27-5.71-1.81-2.52-.71-4.71-2.05-6.71-3.74-3.7-3.14-6.1-7.17-7.99-11.56-.27-.64-.57-1.22-1.38-1.25-1-.04-1.67.71-1.46,1.68,1.07,4.94,2.99,9.51,6.02,13.57,1.26,1.69,2.64,3.32,4.36,4.59.67.5.77,1.15.4,1.85-1.74,3.25-2.46,6.79-2.93,10.4-.07.54-.03,1.11-.02,1.66,0,.72-.28,1.17-1.06,1.2-.79.03-1.13-.48-1.13-1.15,0-1.07.07-2.14.2-3.21.4-3.06,1.2-6.02,2.42-8.92M39.38,5.95c.79.29,1.64-.17,1.59-.93-.04-.63-.15-1.27-.35-1.86-.18-.53-.55-.98-1.23-.9-.59.07-.94.56-.9,1.01.09.89.1,1.86.89,2.68M29.39,8.73c.34.33.66.67,1.2.38.56-.3.78-.77.67-1.37-.1-.57-.18-1.15-.4-1.68-.2-.49-.63-.9-1.23-.69-.56.19-.99.6-.83,1.25.16.67.2,1.37.58,2.11h0Z" style="fill:#231f20;"/><path d="M14.39,20.19c.93.83,2.08,1.35,2.89,2.35,1.31,1.61,1.98,3.53,2.78,5.39.53,1.25,1.08,2.49,1.68,3.86.27-1.21,1.03-2,1.58-2.9.89-1.46,1.84-2.89,2.78-4.31.38-.58.9-.75,1.58-.45,3.04,1.36,6.1,2.69,9.14,4.05.99.45,1.17,1.11.59,2.03-1.06,1.7-2.15,3.38-3.21,5.07-.22.35-.51.52-.97.58.8.98,1.18,1.99,1.15,3.19-.06,2.27-1.52,3.87-3.8,3.89-3.99.04-7.98.05-11.96-.01-1.74-.03-3.05-.98-3.78-2.54-1.19-2.58-2.28-5.2-3.4-7.82-.26-.61-.04-1.13.55-1.37.59-.23,1.15-.14,1.45.55.85,1.97,1.7,3.94,2.56,5.91.28.64.55,1.29.91,1.88.6,1,1.61,1.33,2.68,1.35,3.32.04,6.64.07,9.95-.01,1.51-.04,2.38-.3,2.62-1.61.22-1.16-.43-1.98-1.59-2.09-2.91-.28-5.81-.59-8.72-.88-.6-.06-.87-.43-1.09-.96-1.36-3.26-2.65-6.56-4.21-9.74-1.3-2.64-3.63-4.05-6.38-3.78-2.9.29-4.73,1.96-5.71,4.66-.62,1.71-.75,3.5-1.02,5.27-.41,2.72-.76,5.44-1.13,8.16-.04.29-.08.57-.11.86-.1.78-.57,1.18-1.27,1.11-.81-.08-1.01-.63-.92-1.3.22-1.78.48-3.55.73-5.33.33-2.32.64-4.64,1.01-6.95.46-2.89,1.48-5.52,4.03-7.23,2.33-1.56,4.9-1.76,7.57-1.06.31.08.59.25.98.17.05-.02.05-.02.05-.02M26.33,28.36c-.61.95-1.21,1.91-1.82,2.86-.27.41-.54.83-.86,1.2-.39.45-.99.09-1.55.31.39.54.23,1.42,1.09,1.53,1.6.22,3.21.38,4.82.53,1.12.11,1.33-.15.99-1.2-.22-.68-.16-1.23.53-1.53.66-.29,1.19.07,1.56.81.29.59.32,1.34.91,1.81.83-1.75,2.12-3.16,2.95-4.92-1.92-.85-3.77-1.65-5.61-2.48-2.13-.96-1.6-1.07-2.99,1.07h0Z" style="fill:#231f20;"/><path d="M14.4,20.19c-.65-.38-1.31-.73-1.94-1.14-4.21-2.84-4.97-8.7-1.7-12.59,3.15-3.74,9.14-4.01,12.59-.39,2.37,2.49,2.92,5.55,1.87,8.74-1.03,3.15-3.43,4.98-6.68,5.57-1.34.24-2.71,0-4.11-.21-.05.01-.04.02-.04.02M17.75,5.75c-2.31-.13-4.19.64-5.59,2.53-1.49,2.03-1.63,4.67-.37,6.88,1.1,1.93,3.86,3.44,6.24,3.08,3.08-.47,5.92-3.43,5.41-7.08-.4-2.84-2.68-5.13-5.68-5.41h0ZM61.07,11.16c-.75,2.88-2.4,4.9-5.19,5.82-4.79,1.58-9.78-1.41-10.41-6.3-.77-5.95,4.37-10.18,9.83-8.82,3.4.84,6.02,4.04,5.81,7.4-.04.61-.02,1.22-.04,1.91M57.64,13.2c.84-1.05,1.37-2.23,1.41-3.57.08-2.26-1.59-4.66-3.66-5.45-2.3-.87-5.04-.17-6.55,1.83-1.99,2.63-1.59,5.89,1.03,8.02,2.25,1.83,5.7,1.51,7.77-.83h0ZM56.82,31.15c.12,1.66-.21,3.23-.36,4.8-.06.65-.03,1.32-.2,1.98-.2.75-.65.88-1.29.82-.63-.06-.83-.47-.78-1.04.13-1.58.24-3.17.42-4.75.05-.43.07-.86.1-1.29.04-.52.16-.96.77-1.1.57-.13,1.02-.05,1.34.58h0Z" style="fill:#231f20;"/></g></svg>