<?xml version="1.0" encoding="UTF-8"?><svg id="Layer_2" xmlns="http://www.w3.org/2000/svg" viewBox="0 0 54.59 44.67"><g id="Layer_1-2"><path d="M3.72,24.73C1.58,22.5.52,19.86.1,16.88c-.24-1.74-.1-3.37.81-4.88.94-1.56,2.38-2.35,4.15-2.6.79-.11,1.58-.3,2.41-.04-.69-1.61-1.88-2.53-3.39-3.09-1.16-.43-1.53-.89-1.25-1.62.25-.67.73-.78,1.91-.38,1.16.39,2.2.97,3.07,1.84.18.18.37.34.52.48.25,0,.34-.12.42-.25,1.57-2.47,3.89-2.88,6.44-2.28,1.41.33,2.65,1.08,3.78,1.99.51.41.71.93.44,1.49-.24.49-.7.63-1.3.5-.71-.15-1.26.31-1.72.81-.22.24-.35.55-.57.91,1.01.54,1.92,1.17,2.47,2.2.76,1.42,1.02,2.9.82,4.51-.23,1.8-.72,3.51-1.48,5.13-.74,1.56-1.71,2.94-3.16,3.97-1,.71-2.09.83-3.22.68-1.18-.15-2.34-.17-3.51,0-1.6.24-2.92-.3-4.01-1.56M5.98,23.93c.47.26.93.41,1.52.3,1.31-.26,2.65-.32,3.96,0,.69.17,1.26.01,1.78-.41,2.93-2.38,3.92-5.63,3.77-9.21-.09-2.03-1.82-3.27-3.89-3.23-1.06.02-2.07.33-3.05.7-.52.2-1,.17-1.46-.1-.5-.29-1.05-.4-1.59-.55-1.17-.32-3.74.45-4.34,1.69-.64,1.32-.73,2.63-.46,4.02.52,2.63,1.61,4.94,3.75,6.79M14.12,5.94c-1.49-.61-3.71.99-3.89,2.33,2.48,1.66,3.67.57,5.35-1.77-.13-.08-.25-.18-.39-.23-.31-.11-.63-.2-1.07-.32h0ZM41.56,21.96c-3.24-.58-5.7-2.25-7.46-4.92-2.57-3.9-2.32-9.1.56-12.78C37.14,1.11,40.45-.29,44.36.05c5.21.45,9.11,4.08,9.92,9.16.64,3.94-.56,7.4-3.56,10.1-1.81,1.63-3.95,2.58-6.44,2.71-.9.05-1.78-.08-2.73-.06M35.81,6.31c-1.78,2.94-1.84,5.93-.28,8.98,1.77,3.47,6.09,5.38,9.87,4.5,4.35-1.01,7.63-5.56,6.86-10.2-.6-3.66-4.15-7.2-7.84-7.47-3.63-.27-6.48,1.11-8.62,4.19h0ZM41.41,23.99c3.58-.46,7.1-.88,10.62-1.35.56-.07,1.11-.13,1.68-.13.58,0,.88.37.89.86.01.48-.15,1-.76,1.08-1.59.22-3.18.42-4.77.63-2.22.29-4.45.58-6.67.86-1.82.23-3.65.44-5.47.67-2.23.28-4.45.58-6.67.86-2.2.28-4.4.55-6.6.83-2.28.29-4.55.58-6.83.87-2.17.28-4.35.56-6.53.83-1.85.23-3.7.43-5.54.68-.46.07-.92.08-1.38.08-.62,0-.86-.44-.9-.95-.04-.51.23-.9.78-.98,2.02-.27,4.05-.53,6.07-.79,2.15-.28,4.3-.55,6.45-.83,1.85-.24,3.69-.47,5.54-.71,2.25-.29,4.5-.59,6.75-.87,1.82-.23,3.64-.45,5.46-.67,1.8-.22,3.59-.45,5.39-.67.81-.1,1.62-.2,2.5-.32h0ZM30.7,44.66c-4,0-7.93,0-11.86,0-.49,0-1.04.05-1.23-.54-.17-.53-.06-1,.35-1.47,1.73-1.97,3.4-4,5.1-6,1.01-1.18,2.04-2.35,3.07-3.52.47-.54.95-1.07,1.4-1.62.56-.67,1.3-.72,1.88-.07,1.93,2.14,3.79,4.34,5.63,6.55,1.32,1.59,2.69,3.13,4.06,4.68.37.42.56.89.35,1.41-.21.52-.69.6-1.22.59-2.49-.02-4.98,0-7.55,0M29.51,34.76c-.26-.41-.56-.78-1.09-1.05l-7.65,8.93h15.53c-2.33-2.71-4.52-5.26-6.79-7.89h0Z" style="fill:#231f20;"/><path d="M3.48,13.23c.76-.82,1.62-1.32,2.71-1.36.48-.02.9.06.96.63.06.55.05,1.09-.63,1.31-.77.24-1.49.57-1.81,1.39-.08.21-.13.44-.19.66-.23.81-.59,1.05-1.41.89-.73-.15-.71-.76-.64-1.27.12-.81.38-1.59,1.01-2.24h0ZM45.31,7.28c1.67.94,2.38,2.34,2.24,4.17-.12,1.6-.98,2.72-2.39,3.41-2.63,1.3-5.79-.72-5.91-3.64-.08-2.14,1.29-3.81,2.92-4.17,1.03-.23,2.08-.25,3.14.22M45.06,9.84c-.14-.15-.27-.31-.43-.44-.62-.53-1.48-.59-2.21-.18-.69.39-1.27,1.39-1.17,2.03.14.85.84,1.66,1.67,1.82.81.16,1.58-.04,2.07-.71.55-.75.69-1.59.06-2.53h0ZM45,16.81c.27,1.08-.41,1.69-1.03,2.27-.35.33-.9.21-1.27-.11-.33-.28-.42-.67-.23-1.12.19-.45.43-.87.78-1.22.6-.62,1.14-.57,1.75.18h0ZM38.61,5.34c.72.36.9.86.64,1.55-.11.28-.14.6-.25.88-.22.56-.7.72-1.25.65-.51-.07-.76-.46-.76-.92,0-.67.2-1.32.54-1.89.21-.35.62-.43,1.08-.26h0ZM36.09,12.08c-.54-.33-.71-.76-.67-1.32.04-.54.38-.77.83-.85.65-.11,1.99,1.01,2.05,1.67.03.38-.07.74-.39.94-.32.2-.7.34-1.07.08-.23-.16-.46-.31-.74-.51h0ZM39.13,16.84c-.61.32-1.09.21-1.49-.25-.46-.53-1.01-1.05-.81-1.86.12-.49.54-.71.99-.66.84.08,1.21.8,1.59,1.41.28.44.13.93-.29,1.36h0ZM47.23,17.01c-.77-.88-.57-1.59.47-1.94.41-.14.82-.28,1.27-.26.44.02.75.27.85.66.1.39.18.89-.24,1.13-.7.4-1.45.72-2.35.42h0ZM48.56,10.79c.36-.41.68-.77,1.04-1.1.46-.43.99-.41,1.46-.04.47.38.45,1,0,1.48-.17.19-.36.36-.54.55-.39.41-.81.71-1.41.46-.6-.25-.6-.76-.54-1.35h0ZM44.51,6.08c-.95.05-2.02-.88-2.13-1.76-.06-.53.33-1.01.86-1.07.65-.06,1.49.51,1.77,1.34.18.53.21,1.13-.5,1.49h0ZM49.56,6.88c-.01.39.03.73-.15,1.03-.24.39-.59.58-1.03.48-.41-.1-.75-.33-.77-.83-.01-.36,0-.71-.01-1.07-.03-.49.04-.95.54-1.16.37-.15.82-.21,1.16.08.39.33.42.78.27,1.25-.01.05,0,.1-.01.22h0Z" style="fill:#231f20;"/></g></svg>