<?xml version="1.0" encoding="UTF-8"?><svg id="Layer_2" xmlns="http://www.w3.org/2000/svg" viewBox="0 0 55.84 54.96"><g id="Layer_1-2"><path d="M47.66,46.71c-2.57,1.84-5.31,1.89-8.05.74-2.53-1.07-3.42-3.53-3.17-6.11.08-.83.29-1.66.7-2.4.19-.34.07-.6-.17-.84-1.11-1.09-2.21-2.19-3.31-3.28-.19-.19-.38-.24-.64-.14-1.2.45-2.41.87-3.72.89-.35,0-.4.29-.4.57,0,2.05,0,4.11,0,6.16,0,.41.19.51.56.59.84.18,1.69.4,2.44.86,1.41.87,2.24,2.16,2.47,3.76.47,3.37-.67,6.39-4.53,7.21-2.58.55-5.08.31-7.07-1.75-.72-.74-1.1-1.65-1.28-2.65-.62-3.37.71-6.62,4.41-7.31.79-.15,1.06-.47,1.02-1.3-.07-1.81-.03-3.63-.02-5.45,0-.48-.11-.7-.65-.74-1.13-.09-2.21-.43-3.24-.91-.38-.18-.62-.1-.9.18-1.13,1.15-2.26,2.28-3.41,3.41-.31.3-.35.52-.14.94,1.32,2.65,1.24,5.26-.68,7.58-.87,1.05-2.17,1.59-3.53,1.73-1.9.19-3.78.15-5.49-.91-1.62-1.01-2.41-2.47-2.59-4.35-.2-2.15.31-4.05,2-5.43,1.59-1.3,3.53-1.53,5.52-1.32.78.08,1.55.26,2.27.58.39.18.68.1.98-.21,1.09-1.11,2.19-2.21,3.3-3.3.28-.27.4-.49.13-.87-.82-1.11-1.39-2.34-1.65-3.7-.06-.31-.27-.35-.52-.35-1.58,0-3.16,0-4.74,0-.37,0-.55.15-.64.54-.64,2.64-2.83,4.35-5.54,4.36-1.31,0-2.61.04-3.89-.44C1.48,32.26.02,30.31.03,28.14c0-.73-.1-1.48.07-2.2.53-2.38,2.07-3.75,4.39-4.31,1.9-.46,3.74-.33,5.52.49,1.57.72,2.5,1.98,2.89,3.62.13.55.37.68.86.68,1.34,0,2.69-.05,4.03.02.7.03.95-.29,1.02-.88.16-1.44.66-2.75,1.56-3.99-1.01-1.17-2.13-2.23-3.26-3.29-.25-.23-.5-.05-.73.06-2.11.98-4.26.98-6.43.25-2.96-.99-4-3.77-3.71-6.46.11-1.04.48-1.99,1.07-2.84.9-1.31,2.24-2.03,3.74-2.22,1.95-.25,3.93-.23,5.72.87,1.4.86,2.15,2.11,2.49,3.66.35,1.58.09,3.08-.6,4.5-.16.34-.09.53.13.75.93.93,1.87,1.86,2.79,2.8.29.3.57.31.91.11,1.19-.71,2.49-1.1,3.87-1.23.41-.04.54-.23.54-.61,0-1.71-.01-3.42,0-5.14,0-.43-.2-.59-.58-.69-.71-.19-1.42-.35-2.08-.7-1.94-1.04-2.79-2.69-2.88-4.81-.05-1.3,0-2.57.75-3.72C23.26,1.07,24.93.18,26.97.04c2.3-.17,4.46.19,6.12,2.02.86.95,1.31,2.07,1.35,3.35.05,1.38-.04,2.72-.76,3.97-.85,1.48-2.2,2.22-3.79,2.57-.74.16-1.05.43-1.01,1.24.07,1.52.03,3.06.02,4.58,0,.46.07.73.64.75,1.39.03,2.67.49,3.91,1.09.26.13.47.33.77.04,1.13-1.13,2.28-2.25,3.45-3.4-.94-1.21-1.29-2.54-1.26-3.96.09-3.61,2.41-5.9,5.96-5.96,1.57-.03,3.07.09,4.48.9,2.32,1.33,3.01,3.78,2.72,6-.56,4.33-4.35,5.62-7.73,5.12-.67-.1-1.34-.27-1.97-.52-.41-.16-.72-.11-1.05.23-.91.95-1.86,1.87-2.79,2.8-.23.23-.49.48-.22.81.95,1.19,1.38,2.58,1.57,4.05.07.55.3.69.81.68,1.26-.03,2.53-.02,3.79,0,.46,0,.74-.14.87-.61.72-2.69,2.54-4.01,5.26-4.34,1.67-.2,3.24-.02,4.73.73,1.61.8,2.64,2.13,2.87,3.9.21,1.69.23,3.42-.86,4.92-1.13,1.56-2.68,2.34-4.56,2.43-1.33.07-2.67.13-3.97-.38-1.79-.71-2.98-1.94-3.43-3.81-.13-.53-.34-.69-.84-.69-1.34.01-2.69.01-4.03,0-.45,0-.69.08-.79.62-.29,1.49-1,2.8-2.08,4.05,1.2,1.18,2.37,2.34,3.55,3.5.35.35.63,0,.92-.11,2.51-.93,5.02-.95,7.37.4,3.43,1.97,3.36,7.41.66,9.68M22.58,31.71c.4.34.83.64,1.29.89,2.1,1.14,4.35,1.16,6.58.68,1.37-.3,2.67-.92,3.58-2.14,1.26-1.69,1.59-3.57,1.21-5.58-.3-1.63-1.07-3.01-2.55-3.9-1.86-1.12-3.92-1.33-6.01-1.11-1.58.17-3.11.7-4.22,1.89-2.27,2.44-2.29,6.75.11,9.26M45.34,29.65c.22.33.46.63.79.86,1.49,1.06,3.13,1.18,4.82.74,2.6-.68,3.74-4.16,2.16-6.18-1.56-1.98-4.95-1.84-6.52-1-1.7.91-2.37,3.44-1.24,5.57M14.05,46.33c1.96-.27,3.01-1.36,3.28-3.7.13-1.16-.27-2.81-2.08-3.63-1.01-.46-2.03-.49-3.08-.46-3.01.09-4.22,2.46-3.73,4.98.5,2.56,3.63,3.31,5.6,2.82M30.09,52.46c.2-.12.41-.24.61-.36,2.38-1.47,2.31-5.35-.14-6.66-1.35-.72-2.83-.78-4.29-.4-1.71.44-2.69,1.6-2.86,3.35-.15,1.57.35,2.92,1.77,3.76,1.53.9,3.15.82,4.91.31M10.14,30.12c1.59-1.96.99-5.03-.93-6.04-1.12-.59-2.33-.65-3.53-.54-1.46.14-2.71.77-3.3,2.2-.68,1.63-.52,3.22.76,4.52,1.66,1.7,4.87,1.64,7-.14M24.39,3.42c-1.94,2.24-1.01,5.6,1.81,6.45,1.08.33,2.17.34,3.26.05,1.34-.37,2.34-1.13,2.76-2.53.47-1.54.12-2.84-.89-4.09-1.23-1.52-5.68-1.58-6.94.12M38.71,40.83c-.62,2.21.24,4.04,2.28,4.9.83.35,1.7.3,2.56.29,3.08-.07,4.44-2.38,3.77-5.2-.44-1.83-1.94-2.46-3.6-2.7-1.95-.28-4.32.33-5.01,2.72M10.14,9.57c-.21.16-.42.31-.62.47-1.78,1.46-1.58,4.84.32,6.1,1.12.74,2.34.82,3.62.79,1.85-.04,3.43-1.22,3.74-2.99.32-1.83-.16-3.64-2.08-4.46-1.62-.69-3.25-.72-4.97.09M40.88,8.67c-1.18.51-1.97,1.36-2.24,2.65-.36,1.79.13,3.67,2.05,4.54,1.09.5,2.21.5,3.32.39,1.43-.15,2.65-.78,3.15-2.24.54-1.57.61-3.15-.71-4.39-1.57-1.48-3.48-1.53-5.57-.95h0Z" style="fill:#231f20;"/></g></svg>