<?xml version="1.0" encoding="UTF-8"?><svg id="Layer_2" xmlns="http://www.w3.org/2000/svg" viewBox="0 0 48.71 55.38"><g id="Layer_1-2"><path d="M15.51,55.38c-3.33,0-6.58,0-9.82,0-2.81,0-4.92-1.66-5.6-4.37-.1-.39-.09-.78-.09-1.16C0,39.82,0,29.8,0,19.78,0,17.47,1.36,15.49,3.5,14.65c.76-.3,1.19-1.45.82-2.16-.15-.28-.41-.26-.65-.27-.81,0-1.62,0-2.44-.01-.83-.01-1.22-.38-1.22-1.14,0-.84.28-1.19,1.17-1.14.84.05,1.04-.28,1.03-1.07-.04-2.52-.02-5.04-.01-7.56C2.19.29,2.48,0,3.48,0,12.94,0,22.4,0,31.86,0c1.11,0,1.35.25,1.35,1.41,0,2.52.02,5.04-.01,7.56-.01.83.32,1.3,1.1,1.53.21.06.41.17.59.3.27.2.57.41.45.81-.12.4-.46.57-.84.58-.84.03-1.68.05-2.52,0-.73-.04-.98.21-.98.95,0,.8.12,1.28,1.01,1.59,2.09.73,3.42,2.75,3.4,5.05-.06,6.66,0,13.32-.04,19.98,0,.79.19,1.08,1.03,1.05,1.73-.06,3.47.05,5.2-.03,3.58-.16,7.2,3.26,7.1,7.05-.08,2.89-1.13,5.07-3.58,6.56-1.14.69-2.42.97-3.76.97-8.59,0-17.18,0-25.86,0M15.76,43.67c1.37,0,2.75-.06,4.11.02.99.06,1.68-.27,2.35-.98,1.2-1.28,2.75-1.87,4.5-1.89,1.82-.02,3.64-.03,5.46,0,.69.01.93-.21.92-.91-.02-4.34-.02-8.68,0-13.02,0-.68-.19-.93-.91-.93-9.66.02-19.32.02-28.98,0-.76,0-.94.26-.94.97.03,5.24.03,10.47,0,15.71,0,.82.25,1.05,1.05,1.04,4.09-.03,8.17-.02,12.43-.02M4.18,23.69h24.27c1.29,0,2.58-.02,3.86,0,.58.01.81-.2.79-.79-.03-.81-.06-1.63,0-2.43.18-2.32-1.19-3.63-3.33-3.89-.7-.09-1.04-.47-1.04-1.16,0-.67-.05-1.35.01-2.01.07-.81-.21-1.05-1.03-1.05-5.35.03-10.69.02-16.04.02-1.4,0-2.8.03-4.2,0-.63-.01-.85.22-.81.84.04.67.01,1.34,0,2.01,0,.97-.23,1.22-1.18,1.37-2.06.32-3.18,1.64-3.19,3.75,0,.53,0,1.06,0,1.6.02,2.03-.26,1.73,1.88,1.76M29.03,9.74c.28,0,.56-.03.84,0,.79.1,1.08-.2,1.06-1.02-.05-1.87-.03-3.75,0-5.63,0-.55-.13-.81-.75-.81-8.29.01-16.57.02-24.85,0-.69,0-.85.29-.84.91.03,1.73,0,3.47.02,5.21,0,.46-.11.95.08,1.34h24.45M8.04,45.97c-1.57,0-3.13.04-4.7-.01-.78-.03-1.13.18-1.06,1.02.07.75.01,1.51.01,2.26,0,2.43,1.42,3.83,3.86,3.84,4.81,0,9.62,0,14.43,0,.3,0,.61.08.98-.15-1.53-2.06-2.07-4.37-1.48-6.95h-12.05M32.9,43.21c-1.95-.21-3.9-.09-5.85-.09-2.48,0-4.75,2.14-4.83,4.75-.07,2.3,1.4,4.5,4.04,5.02,2.07.41,4.17.1,6.26.17.58.02.57-.4.57-.81,0-1.79.02-3.58,0-5.36-.02-1.2.11-2.4-.19-3.69M46.19,49.44c.79-2.6-.84-5.58-3.48-6.13-2.26-.47-4.57-.13-6.86-.17-.47,0-.47.39-.47.74,0,2.82,0,5.65,0,8.48,0,.54.19.74.73.74,1.51-.02,3.02-.01,4.53,0,2.59.01,4.54-.99,5.54-3.64h0Z" style="fill:#231f20;"/><path d="M17.83,29.24c.86.13,1.12.65,1.11,1.38-.01.73.03,1.46-.01,2.18-.04.64.23.83.84.8.75-.04,1.51-.02,2.27,0,.86.03,1.27.43,1.27,1.22,0,.78-.41,1.2-1.27,1.23-.78.02-1.57.02-2.35,0-.53-.01-.77.19-.75.74.03.78.02,1.57,0,2.35-.02.85-.43,1.26-1.22,1.27-.8.01-1.21-.38-1.23-1.24-.02-.73-.05-1.46,0-2.18.06-.76-.27-.99-.98-.94-.7.04-1.4.02-2.1,0-.93-.02-1.31-.41-1.3-1.27,0-.81.39-1.18,1.28-1.2.78-.02,1.57-.02,2.35,0,.54.02.76-.2.74-.74-.02-.75-.01-1.51,0-2.27.02-1,.28-1.27,1.36-1.35h0ZM43.82,49.1c-.92.12-1.72.14-1.89-1.01-.05-.33-.43-.39-.71-.51-.8-.34-1.1-.9-.88-1.66.21-.71.8-.76,1.42-.74,1.1.03,1.87.66,2.31,1.56.35.73.52,1.61-.25,2.36h0Z" style="fill:#231f20;"/></g></svg>