<?xml version="1.0" encoding="UTF-8"?><svg id="Layer_2" xmlns="http://www.w3.org/2000/svg" viewBox="0 0 50.08 50.08"><g id="Layer_1-2"><path d="M50.07,36.3l-1.04-8.82c-.67-5.73-5.14-10.26-10.85-11.02l-2.46-.33c-.66-.08-1.27.38-1.36,1.04-.09.66.38,1.27,1.04,1.36l2.46.33c4.62.62,8.23,4.28,8.77,8.91l1.03,8.75v8.22c0,1.62-1.32,2.94-2.94,2.94h-26.56c-.67,0-1.21.54-1.21,1.21s.54,1.21,1.21,1.21h26.56c2.95,0,5.35-2.4,5.35-5.35v-8.29s0-.09,0-.14Z" style="fill:#231f20;"/><path d="M38.43,44.57c.18.01.36.02.54.02,3.25,0,6.22-1.94,7.51-4.95l.21-.49c.37-.87.29-1.86-.24-2.65s-1.4-1.26-2.35-1.26h-4.39v-3.97c0-.67-.54-1.21-1.21-1.21s-1.21.54-1.21,1.21v3.97h-6.09c2.64-2.29,4.36-6,4.36-10.19,0-1.55-.23-3.07-.69-4.51-.2-.63-.89-.99-1.52-.78-.64.2-.99.88-.78,1.52.39,1.2.58,2.48.58,3.78,0,5.62-3.64,10.19-8.12,10.19s-8.12-4.57-8.12-10.19,3.64-10.19,8.12-10.19c.41,0,.82.04,1.23.12.65.12,1.29-.3,1.41-.96.12-.65-.31-1.29-.96-1.41-.55-.1-1.12-.16-1.68-.16-5.81,0-10.53,5.65-10.53,12.61,0,4.19,1.72,7.9,4.36,10.19h-6.09v-3.97c0-.67-.54-1.21-1.21-1.21s-1.21.54-1.21,1.21v5.18c0,.67.54,1.21,1.21,1.21h32.54c.19,0,.29.11.33.18.04.07.11.2.03.37l-.21.49c-.96,2.24-3.24,3.63-5.65,3.48l-8.29-.71c-.08,0-.15.02-.23.02-.06,0-.11,0-.17,0l-.06.02s-.03,0-.04.01l-24.61,6.15c-1.56-.07-2.8-1.36-2.8-2.93v-8.22l1.03-8.75c.55-4.63,4.15-8.3,8.77-8.91l2.46-.33c.66-.09,1.13-.7,1.04-1.36-.09-.66-.69-1.12-1.36-1.04l-2.46.33c-5.72.76-10.18,5.29-10.85,11.02L0,36.3s0,.09,0,.14v8.29c0,2.95,2.4,5.35,5.35,5.35.1,0,.2-.01.29-.04l24.67-6.17,8.11.69Z" style="fill:#231f20;"/><path d="M27.11,2.41h3.8l-4.77,6.36c-.27.37-.32.86-.11,1.26.21.41.62.67,1.08.67h6.22c.67,0,1.21-.54,1.21-1.21s-.54-1.21-1.21-1.21h-3.8l4.77-6.36c.27-.37.32-.86.11-1.26-.21-.41-.62-.67-1.08-.67h-6.22c-.67,0-1.21.54-1.21,1.21s.54,1.21,1.21,1.21Z" style="fill:#231f20;"/><path d="M28.62,18.33c.21.41.62.67,1.08.67h3.11c.67,0,1.21-.54,1.21-1.21s-.54-1.21-1.21-1.21h-.7l1.66-2.21c.27-.37.32-.86.11-1.26-.21-.41-.62-.67-1.08-.67h-3.11c-.67,0-1.21.54-1.21,1.21s.54,1.21,1.21,1.21h.7l-1.66,2.21c-.27.37-.32.86-.11,1.26Z" style="fill:#231f20;"/><path d="M37.48,8.63h2.25l-3.22,4.29c-.27.37-.32.86-.11,1.26.21.41.62.67,1.08.67h4.66c.67,0,1.21-.54,1.21-1.21s-.54-1.21-1.21-1.21h-2.25l3.22-4.29c.27-.37.32-.86.11-1.26-.21-.41-.62-.67-1.08-.67h-4.66c-.67,0-1.21.54-1.21,1.21s.54,1.21,1.21,1.21Z" style="fill:#231f20;"/></g></svg>