<?xml version="1.0" encoding="UTF-8"?><svg id="Layer_2" xmlns="http://www.w3.org/2000/svg" viewBox="0 0 51.46 55.65"><g id="Layer_1-2"><path d="M26.5,47.56c31.43,5.74,29.56-49.6.48-39.76-.89.3-3.72,2.11-4.57,2.31-3.57.74-3.55-5.3-3.43-7.48.05-1.13.12-3.35,1.78-2.4.61.53.14,2.4.12,3.16-.02.77.1,4.69.97,4.86,33.26-19.58,43.95,46.18,3.34,41.05.19.91.3,1.23.38,2.39.12,1.83.17,3.93-1.17,3.92-1.27-.2-.71-2.01-.72-2.96-.03-1.63-.42-3.39-.89-4.94.29-1.64,1.61-.86,2.58-.45l1.14.3h0Z" style="fill:#231f20;"/><path d="M24.3,26.89c.24,0,1-.41,1.22-.55,4.26,4.96,2.69,13.46-4.93,8.38-7.68-4.03-14.44,4.55-9.89,11.41,1.55,2.56,4,3.58,3.59,7.03-.08.71-.79,1.75.02,2.29.87.57,1.37-.12,1.63-.89,2.28-6.71-6.18-8.32-4.54-14.67,1.17-4.56,4.91-4.97,8.78-3.22,1.8.81,2.54,1.83,4.8,1.59,3.26-.34,5.15-3.19,4.89-6.34,0-1.65-1.56-4.16-2.14-5.59.1-.42-1.02-1.1-.77-2.13l1.09-.43c4,5.82,12.58.63,12.44-5.26-.72-1.47-2.84.22-4,.38-3.23.95-6.37,2.24-9.6,3.19-.32.07-.14-.41-.21-.66-.35-1.83-2.62.01-3.39-.28-5.15-4.28-10.75-9.29-10.39-16.6,0-.97.44-2.79.33-3.61-.15-1.13-1.58-1.23-1.91-.12-.18.6-.29,2.05-.32,2.72-.44,9.24,4.35,12.96,10.26,18.56-.97.33-18.02,5.99-18.54,6.22-3.9.38-3.54,6.33.72,5.66,1.34-.46,20.07-6.76,20.87-7.06h0ZM3.15,32.02c-1.15.37-1.81-1.15-.64-1.65l22.29-7.54.07,1.78-21.72,7.41h0ZM30.13,23.15l7.98-2.72c-1.41,3.04-5.03,5.58-7.98,2.72h0Z" style="fill:#231f20;"/><path d="M47.44,31.79c-.81.88-2.18-.12-1.51-1.44.69-1.36,2.65.19,1.51,1.44h0Z" style="fill:#231f20;"/><path d="M42.88,15.26c1.43-.31,1.95,1.71.8,2.07-1.29.41-2.13-1.78-.8-2.07h0Z" style="fill:#231f20;"/><path d="M46.05,22.23c1.53-.46,1.96,1.7.8,2.07-1.4.45-1.83-1.76-.8-2.07h0Z" style="fill:#231f20;"/><path d="M40.72,39.46c1.06-.06,1.4,1.43.34,1.97-1.69.87-2.14-1.87-.34-1.97h0Z" style="fill:#231f20;"/><path d="M41.23,12.99c1.09,1.22-.93,2.43-1.72,1.15-.72-1.16.83-2.15,1.72-1.15h0Z" style="fill:#231f20;"/><path d="M36.68,10.82c1.84-.33,1.92,2.7-.17,1.89-.92-.36-.7-1.73.17-1.89h0Z" style="fill:#231f20;"/><path d="M45.29,33.63c2.06-.48,1.37,2.83-.26,1.98-.81-.42-.47-1.81.26-1.98h0Z" style="fill:#231f20;"/><path d="M42.7,38.76c-.88-.82.43-2.6,1.5-1.68,1.13.97-.66,2.47-1.5,1.68h0Z" style="fill:#231f20;"/><path d="M37.4,41.51c1.52-.04,1.13,2.17-.24,2.09-1.43-.08-1.13-2.05.24-2.09h0Z" style="fill:#231f20;"/><path d="M33.64,43c1.15-.16,1.64,1.25.65,1.8-1.66.93-2.41-1.56-.65-1.8h0Z" style="fill:#231f20;"/><path d="M44.91,18.56c1.41-.32,1.92,1.72.8,2.07-1.35.43-1.97-1.8-.8-2.07h0Z" style="fill:#231f20;"/><path d="M32.75,10.07c2.1-.5,2.06,2.29.13,1.85-.96-.22-.99-1.64-.13-1.85h0Z" style="fill:#231f20;"/><path d="M46.68,26.03c1.54-.34,1.56,1.84.71,2.1-1.62.48-1.75-1.87-.71-2.1h0Z" style="fill:#231f20;"/></g></svg>