<?xml version="1.0" encoding="UTF-8"?><svg id="Layer_2" xmlns="http://www.w3.org/2000/svg" viewBox="0 0 63.26 44.55"><g id="Layer_1-2"><path d="M31.64,8.73c2.41,0,4.36-1.96,4.36-4.36s-1.96-4.36-4.36-4.36-4.36,1.96-4.36,4.36,1.96,4.36,4.36,4.36h0ZM31.64,1.63c1.51,0,2.74,1.23,2.74,2.74s-1.23,2.74-2.74,2.74-2.74-1.23-2.74-2.74,1.23-2.74,2.74-2.74h0Z" style="fill:#231f20;"/><path d="M54.33,8.73c2.41,0,4.36-1.96,4.36-4.36s-1.96-4.36-4.36-4.36-4.36,1.96-4.36,4.36,1.96,4.36,4.36,4.36h0ZM54.33,1.63c1.51,0,2.74,1.23,2.74,2.74s-1.23,2.74-2.74,2.74-2.74-1.23-2.74-2.74,1.23-2.74,2.74-2.74h0Z" style="fill:#231f20;"/><path d="M57.74,10.39h-6.87c-1.93,0-3.73,1.09-4.95,2.97l-2.93,4.37-2.92-4.35c-1.22-1.9-3.03-2.99-4.96-2.99h-6.96c-1.93,0-3.73,1.09-4.95,2.97l-2.92,4.35-2.92-4.34c-1.23-1.9-3.03-2.99-4.96-2.99h-6.87c-3.05,0-5.53,2.48-5.53,5.53v8.22c0,2.82,1.1,4.71,3.01,5.31v12.72c0,1.31,1.07,2.38,2.38,2.38h.74c1.31,0,2.38-1.07,2.38-2.38v-9.88h1.15v9.88c0,1.31,1.07,2.38,2.38,2.38h.73c1.31,0,2.38-1.07,2.38-2.38v-14.45c0-.16-.01-.31-.04-.45l.03-7.19,1.75,2.67-1.09,1.63c-.25.37-.15.87.22,1.12,3.01,2.06,5.29.15,7.12-1.98.02-.02.04-.04.05-.07l2.39-3.48.03,7.3c-.03.14-.04.29-.04.45v14.45c0,1.31,1.07,2.38,2.38,2.38h.73c1.31,0,2.38-1.07,2.38-2.38v-9.88h1.15v9.88c0,1.31,1.07,2.38,2.38,2.38h.74c1.31,0,2.38-1.07,2.38-2.38v-14.45c0-.16-.01-.32-.04-.46l.03-7.24,2.35,3.42s.03.05.05.07c1.28,1.49,2.77,2.87,4.58,2.87.79,0,1.63-.26,2.54-.88.37-.25.47-.75.22-1.12l-1.08-1.61,1.76-2.68.03,7.19c-.03.14-.04.29-.04.45v14.45c0,1.31,1.07,2.38,2.38,2.38h.73c1.31,0,2.38-1.07,2.38-2.38v-9.88h1.15v9.88c0,1.31,1.07,2.38,2.38,2.38h.74c1.31,0,2.38-1.07,2.38-2.38v-12.72c1.91-.61,3.01-2.5,3.01-5.31v-8.22c0-3.05-2.48-5.53-5.53-5.53h0ZM15.03,16.92h-.01c-.15-.21-.38-.37-.66-.37h0c-.45,0-.81.36-.81.81l-.04,9.99c0,.07,0,.14.03.21,0,.03.02.07.02.15v14.45c0,.41-.35.76-.76.76h-.73c-.41,0-.76-.35-.76-.76v-10.7c0-.45-.36-.81-.81-.81h-2.78c-.45,0-.81.36-.81.81v10.7c0,.41-.35.76-.76.76h-.74c-.41,0-.75-.34-.75-.76v-14.45c0-.08,0-.13.02-.16.02-.07.03-.14.03-.21l-.04-9.98c0-.45-.37-.81-.81-.81h0c-.45,0-.81.37-.81.82l.04,9.89c-.02.12-.03.26-.04.4-1.18-.74-1.39-2.42-1.39-3.52v-8.22c0-2.15,1.75-3.9,3.9-3.9h6.87c1.36,0,2.67.82,3.6,2.25l3.29,4.9-1.41,2.11-2.85-4.36h0ZM41.37,22.49l-3.71-5.41c-.11-.31-.41-.53-.75-.53h0c-.45,0-.81.36-.81.81l-.04,9.98c0,.07,0,.14.03.21,0,.03.02.08.02.16v14.45c0,.42-.34.76-.75.76h-.74c-.41,0-.76-.35-.76-.76v-10.7c0-.45-.36-.81-.81-.81h-2.78c-.45,0-.81.36-.81.81v10.7c0,.41-.35.76-.76.76h-.73c-.41,0-.76-.35-.76-.76v-14.45c0-.08,0-.13.02-.15.02-.07.03-.14.03-.21l-.04-9.99c0-.45-.37-.81-.81-.81h0c-.23,0-.43.09-.58.24h-.01s-3.91,5.69-3.91,5.69c-1.92,2.22-3.08,2.58-4.24,2.07l6.92-10.3c.92-1.43,2.23-2.24,3.59-2.24h6.96c1.36,0,2.67.82,3.6,2.25l6.91,10.28c-1.16.51-2.32.16-4.24-2.07h0ZM61.64,24.14c0,1.11-.21,2.78-1.39,3.52,0-.14-.01-.27-.04-.4l.04-9.89c0-.45-.36-.81-.81-.82h0c-.45,0-.81.36-.81.81l-.04,9.98c0,.07,0,.14.03.21.01.04.02.09.02.16v14.45c0,.42-.34.76-.75.76h-.74c-.41,0-.76-.35-.76-.76v-10.7c0-.45-.36-.81-.81-.81h-2.78c-.45,0-.81.36-.81.81v10.7c0,.41-.35.76-.76.76h-.73c-.41,0-.76-.35-.76-.76v-14.45c0-.08,0-.13.02-.15.02-.07.03-.14.03-.21l-.04-9.99c0-.45-.37-.81-.81-.81h0c-.28,0-.52.16-.66.38h-.01s-2.86,4.37-2.86,4.37l-1.41-2.11,3.31-4.93c.92-1.43,2.23-2.24,3.59-2.24h6.87c2.15,0,3.9,1.75,3.9,3.9v8.22h0Z" style="fill:#231f20;"/><path d="M8.94,8.73c2.41,0,4.36-1.96,4.36-4.36S11.34,0,8.94,0s-4.36,1.96-4.36,4.36,1.96,4.36,4.36,4.36h0ZM8.94,1.63c1.51,0,2.74,1.23,2.74,2.74s-1.23,2.74-2.74,2.74-2.74-1.23-2.74-2.74,1.23-2.74,2.74-2.74h0Z" style="fill:#231f20;"/></g></svg>