<?xml version="1.0" encoding="UTF-8"?><svg id="Layer_2" xmlns="http://www.w3.org/2000/svg" viewBox="0 0 45.9 45.17"><g id="Layer_1-2"><path d="M23.11,29.62c0-.55-.45-1-1-1h-.86s-.01,0-.02,0c-.87,0-1.69-.34-2.31-.95-.62-.62-.97-1.44-.97-2.32v-1.71c-.01-.87.69-1.57,1.55-1.58h0c.42,0,.81.16,1.11.45.3.3.46.69.47,1.11,0,.55.44.99,1,1,.55,0,1-.45,1-1,0-.95-.38-1.85-1.06-2.52-.67-.67-1.57-1.03-2.51-1.03h-.02c-1.97,0-3.56,1.62-3.55,3.59v1.71c.02,1.41.57,2.74,1.58,3.73,1,.99,2.32,1.53,3.72,1.53h.88c.55,0,1-.46,1-1.01Z" style="fill:#231f20;"/><path d="M30.54,3.73c7.63-1.73,11.83-1.92,13.14-1.62-.15.15-.4.36-.79.63-.45.31-.57.94-.25,1.39.19.28.51.43.82.43.2,0,.39-.06.57-.18.61-.42,2.24-1.55,1.81-2.93-.24-.75-.97-3.03-15.74.32-.54.12-.88.66-.75,1.2.12.54.65.88,1.2.75Z" style="fill:#231f20;"/><path d="M41.46,10.4c-.49-.25-1.09-.06-1.35.43-.25.49-.06,1.09.43,1.35,1.99,1.02,2.81,1.68,3.15,2.03-.78.2-2.53.17-5.04-.15-.98-1.96-2.38-3.7-4.11-5.15,1.2-.46,2.34-.91,3.4-1.37.51-.22.74-.81.52-1.31-.22-.51-.81-.74-1.31-.52-1.37.59-2.9,1.19-4.54,1.79-2.87-1.8-6.34-2.87-10.09-2.87h-.1c-3.58.02-6.9,1-9.68,2.67C6.84,5.09,3.14,3.13,2.2,2.12c1.29-.32,5.56-.13,13.38,1.66.54.13,1.08-.21,1.2-.75.12-.54-.21-1.07-.75-1.2C1.04-1.6.31.71.07,1.46c-.09.29-.14.76.16,1.31.89,1.66,5.15,3.83,10.52,5.9-1.88,1.51-3.41,3.38-4.45,5.49-2.22.22-3.49.16-4.08.03.38-.38,1.33-1.13,3.69-2.3.49-.25.7-.85.45-1.34-.25-.49-.85-.7-1.34-.45C1.13,12.03-.36,13.45.07,14.85c.17.54.47,1.47,3.75,1.47.48,0,1.04-.02,1.65-.07-.45,1.42-.7,2.91-.69,4.46.02,4.18,1.81,8.12,5.05,11.11,1.21,1.12,1.63,2.85,1.08,4.41l-2.7,7.62c-.18.52.09,1.09.61,1.28.11.04.22.06.33.06.41,0,.8-.26.94-.67l2.7-7.62c.82-2.32.19-4.89-1.61-6.55-2.82-2.6-4.38-6.03-4.4-9.65,0-1.64.32-3.21.89-4.67.92-.12,1.95-.27,3.11-.48.04,0,.08-.03.12-.05.58,1.06,1.69,1.79,2.98,1.79,1.78,0,3.23-1.38,3.38-3.12.04,0,.07,0,.11-.01,1.79-.43,3.66-.93,5.55-1.46,3.05.86,9.18,2.48,14.35,3.21.58,1.45.92,3.01.93,4.64,0,.07,0,.14,0,.21v.19c-.01.07,0,.14,0,.21v1.54c0,.23.09.45.23.63l2.77,3.39c.25.3.2.76-.1,1l-2.49,2.03c-.23.19-.37.48-.37.78l.03,5.88c0,.65-.25,1.26-.7,1.72-.46.46-1.07.72-1.71.72l-3.43.02c-4.16-.02-7.88-2.77-8.99-6.79-.15-.53-.7-.84-1.23-.7-.53.15-.84.7-.7,1.23,1.35,4.87,5.82,8.26,10.88,8.26h.06l3.43-.02c1.18,0,2.29-.47,3.13-1.31.83-.84,1.29-1.96,1.28-3.14l-.03-5.4,2.12-1.73c.56-.46.91-1.11.98-1.83.07-.72-.14-1.43-.6-1.99l-2.55-3.11v-1.36s0-.09-.02-.14c0-.09,0-.19,0-.29,0-1.52-.26-2.98-.71-4.37.8.07,1.56.12,2.26.12,2.19,0,3.75-.4,4.07-1.43.42-1.33-.89-2.66-4.37-4.45ZM22.43,6.62h.09c2.75,0,5.34.64,7.59,1.75-2.05.7-4.21,1.39-6.42,2.04-.25.07-.49.14-.74.21-.24-.07-.48-.13-.72-.2-2.52-.74-4.83-1.48-6.93-2.21,2.14-.99,4.57-1.57,7.14-1.58ZM13.89,15.29c-.78,0-1.41-.63-1.41-1.41s.63-1.41,1.41-1.41,1.41.63,1.41,1.41-.63,1.41-1.41,1.41ZM16.92,12.21s-.04.02-.06.03c-.58-1.05-1.69-1.77-2.97-1.77-1.78,0-3.23,1.37-3.38,3.12-.02,0-.04,0-.06,0-.6.1-1.16.19-1.68.27,1.06-1.7,2.5-3.17,4.23-4.34,2.03.73,4.16,1.44,6.29,2.1-.79.21-1.59.41-2.36.6ZM26.61,11.62c2-.62,3.93-1.26,5.74-1.9,1.53,1.1,2.82,2.44,3.8,3.97-2.64-.44-5.86-1.11-9.54-2.07Z" style="fill:#231f20;"/></g></svg>