<?xml version="1.0" encoding="UTF-8"?><svg id="Layer_2" xmlns="http://www.w3.org/2000/svg" viewBox="0 0 16 16"><path d="M5.47,2.59c.43.11.76-.14,1.07-.39.14-.11.28-.22.44-.3.86.31,1.54.66,2.17,1.13.82.62,1.47,1.4,1.91,2.27l.48-.14c-.48-.97-1.19-1.84-2.1-2.53-.7-.52-1.44-.91-2.4-1.24-.06-.02-.13-.02-.18,0-.24.11-.45.27-.62.41-.28.22-.46.35-.64.3-.29-.07-.44-.54-.45-1.38,0-.14-.11-.25-.25-.25h0c-.14,0-.25.11-.25.25,0,.71.1,1.67.83,1.86Z"/><path d="M5.82,5.92c.11.1.22.2.32.3l.55-.16c-.22-.22-.42-.41-.54-.52l-.94-.82-.31-.29c-1.13-1.04-1.71-2.3-1.72-3.74,0-.14-.11-.25-.25-.25h0c-.14,0-.25.11-.25.25,0,1.59.64,2.97,1.88,4.1l1.26,1.12Z"/><path d="M11.47,6.34c.16.52.25,1.07.27,1.62.04,1.83-1,3.91-2.79,5.58-1.21.2-2.12.05-2.94-.49-.09-.06-.21-.05-.29.01-.08.07-.12.18-.08.28.31.82.43,1.5.38,2.23,0,.14.09.26.23.27,0,0,.01,0,.02,0,.13,0,.24-.1.25-.23.04-.61-.02-1.2-.2-1.83.8.35,1.7.43,2.79.23.05,0,.09-.03.13-.06,1.93-1.77,3.05-4.02,3-6.01-.02-.68-.15-1.35-.36-1.98l-.4.37Z"/><path d="M4.04,10.28c.48.03.98.2,1.52.54.54.34,1.21.33,1.81-.02,1.2-.68.84-2.09.71-2.62-.02-.07-.03-.12-.03-.14,0-.03,0-.06-.02-.08l-.18-.4c-.09-.15-.19-.3-.29-.44l-.49.15c.13.18.25.35.34.51l.15.35s.02.11.04.18c.2.77.3,1.62-.47,2.06-.44.25-.92.26-1.3.03-.61-.38-1.18-.58-1.75-.61-.75-.04-1.37.34-1.7,1.06-.34.73-.32,1.45.05,2.09.22.38.45.65.65.89.43.51.69.81.53,1.74-.02.14.07.27.21.29.01,0,.03,0,.04,0,.12,0,.23-.09.25-.21.19-1.16-.2-1.61-.64-2.14-.19-.22-.4-.48-.6-.82-.36-.62-.22-1.23-.03-1.62.24-.53.68-.8,1.21-.77Z"/><path d="M13.18,3.47c.05.07.12.1.2.1.05,0,.1-.02.15-.05.11-.08.14-.24.05-.35-.12-.17-.25-.32-.39-.48-.09-.1-.25-.11-.35-.02-.1.09-.11.25-.02.35.12.14.25.28.35.43Z"/><path d="M11.33,1.63c.05-.13,0-.27-.13-.33-.19-.08-.38-.15-.58-.21-.13-.04-.27.03-.31.17-.04.13.03.27.17.31.18.06.36.12.53.19.03.01.07.02.1.02.1,0,.19-.06.23-.15Z"/><path d="M9.73.89c-.2-.03-.41-.04-.61-.05-.14,0-.25.11-.26.24,0,.14.11.25.24.26.19,0,.37.02.56.04.01,0,.02,0,.03,0,.12,0,.23-.09.25-.22.02-.14-.08-.26-.21-.28Z"/><path d="M13.65,4.19c.09.17.18.33.26.5.04.09.13.14.23.14.04,0,.07,0,.11-.02.12-.06.18-.21.12-.33-.08-.18-.18-.36-.28-.54-.07-.12-.22-.16-.34-.09-.12.07-.16.22-.09.34Z"/><path d="M14.54,6.86c.02.19.04.38.04.57,0,.13.12.24.25.24h0c.14,0,.25-.12.24-.26,0-.2-.02-.4-.05-.61-.02-.14-.12-.24-.28-.22-.14.02-.24.14-.22.28Z"/><path d="M14.23,5.48c.06.18.11.36.16.54.03.11.13.19.24.19.02,0,.04,0,.06,0,.13-.03.22-.17.18-.3-.05-.2-.11-.39-.17-.58-.04-.13-.18-.2-.32-.16-.13.04-.2.19-.16.32Z"/><path d="M12.82,12.02c-.14.13-.28.24-.44.36-.11.08-.13.24-.05.35.05.07.12.1.2.1.05,0,.1-.02.15-.05.17-.12.32-.25.47-.39.1-.09.11-.25.02-.35-.09-.1-.25-.11-.35-.02Z"/><path d="M13.72,10.95c-.1.16-.21.31-.32.46-.09.11-.07.26.04.35.05.04.1.05.16.05.07,0,.15-.03.2-.09.13-.16.25-.33.36-.5.07-.12.04-.27-.08-.34-.12-.07-.27-.04-.34.08Z"/><path d="M14.59,9.5c-.13-.04-.27.03-.31.16-.06.18-.12.36-.19.54-.05.13.01.27.14.33.03.01.06.02.09.02.1,0,.19-.06.23-.16.08-.19.14-.38.2-.57.04-.13-.03-.27-.16-.31Z"/><path d="M14.83,8.05c-.15-.01-.26.09-.27.23-.02.19-.04.37-.08.56-.02.14.07.27.2.29.02,0,.03,0,.04,0,.12,0,.22-.08.25-.21.04-.2.06-.4.08-.6.01-.14-.09-.26-.23-.27Z"/><path d="M11.67,12.83c-.17.09-.33.17-.51.25-.13.06-.18.2-.13.33.04.09.13.15.23.15.03,0,.07,0,.1-.02.19-.08.37-.17.55-.27.12-.07.17-.22.1-.34s-.22-.17-.34-.1Z"/><path d="M12.56,2.43c.08-.11.07-.27-.04-.35-.16-.13-.33-.24-.5-.35-.11-.07-.27-.04-.34.08-.07.12-.04.27.08.34.16.1.31.21.46.32.05.04.1.05.15.05.07,0,.15-.03.2-.1Z"/><path d="M10.37,13.37c-.09.03-.19.05-.28.07-.13.03-.22.17-.18.3.03.11.13.19.24.19.02,0,.04,0,.06,0,.1-.02.2-.05.3-.08.13-.04.21-.18.17-.31-.04-.13-.17-.21-.31-.17Z"/><path d="M8.17.9c-.1.02-.21.04-.31.06-.13.03-.22.16-.19.3.03.12.13.19.24.19.02,0,.04,0,.06,0,.09-.02.19-.04.28-.05.14-.02.23-.15.21-.29-.02-.14-.15-.23-.29-.21Z"/><path d="M8.77,6.88c.03-.12.03-.27-.01-.48l.31-.12c1.15,1.67,3.62.18,3.58-1.51-.21-.42-.82.06-1.15.11-.93.27-1.89.67-2.82.94-.09.02-.12-.43-.25-.45l-.77.25-.54.18c-.28.09-5.18,1.72-5.33,1.79-1.12.11-1.02,1.82.21,1.63.39-.13,6-2.03,6-2.03h0s.38-.15.38-.15l.4-.16ZM1.91,8.65c-.33.11-.52-.33-.18-.47l6.41-2.17.02.51-6.24,2.13ZM9.67,6.1l2.29-.78c-.41.87-1.45,1.6-2.29.78"/></svg>