<?xml version="1.0" encoding="UTF-8"?><svg id="Layer_2" xmlns="http://www.w3.org/2000/svg" viewBox="0 0 54.13 51.59"><g id="Layer_1-2"><path d="M49.91,51.59h-7.83c-2.28,0-4.43-.86-6.07-2.42l-12.66-12.07c-1.37-1.31-2.14-3.07-2.16-4.96-.02-1.89.72-3.66,2.07-4.99l7.89-7.78s.01-.01.02-.02h0s0,0,0,0c.09-.08.19-.15.3-.19.11-.05.23-.07.36-.08h.05c.12,0,.25.03.36.07.12.05.23.12.33.22,0,0,0,0,0,0h0s0,0,0,0c0,0,0,0,0,0h0s0,0,0,0h0s0,0,0,0c.09.09.16.2.2.31h0c.05.12.08.25.08.38v2.68c0,1.66,1.38,3.01,3.06,3.01h6.89c.55,0,1,.45,1,1,0,.03,0,.07,0,.1l5.07,12.77c.25.64.87,1.05,1.57,1.05,2.03,0,3.68,1.63,3.68,3.64v3.08c0,2.3-1.89,4.18-4.22,4.18ZM23.49,30.39c-.2.55-.3,1.13-.3,1.73.01,1.34.56,2.59,1.54,3.53l12.66,12.07c1.26,1.2,2.93,1.87,4.68,1.87h7.83c1.23,0,2.22-.98,2.22-2.18v-3.08c0-.91-.75-1.64-1.68-1.64-1.52,0-2.87-.91-3.43-2.31l-.34-.87h-4.5c-.55,0-1-.45-1-1s.45-1,1-1h3.71l-.47-1.18h-4.53c-.55,0-1-.45-1-1s.45-1,1-1h3.74l-.47-1.18h-4.56c-.55,0-1-.45-1-1s.45-1,1-1h3.77l-1.35-3.39h-6.09c-2.79,0-5.06-2.25-5.06-5.01v-.29l-6.19,6.1s-.06.06-.09.09l16.78,16.55c.79.77,1.83,1.2,2.94,1.2h6.24c.55,0,1,.45,1,1s-.45,1-1,1h-6.24c-1.64,0-3.19-.63-4.35-1.78l-16.47-16.24ZM29.93,48.41h-7.73c-.55,0-1-.45-1-1s.45-1,1-1h7.73c.55,0,1,.45,1,1s-.45,1-1,1ZM26.06,45.23h-3.87c-.55,0-1-.45-1-1s.45-1,1-1h3.87c.55,0,1,.45,1,1s-.45,1-1,1Z" style="fill:#231f20;"/><path d="M12.94,22.57c-.2,0-.39-.08-.53-.22l-2.51-2.48c-.29-.29-.29-.75,0-1.04l9.18-9.07c.28-.28.77-.28,1.05,0l2.51,2.48c.29.29.29.75,0,1.04l-9.18,9.06c-.14.14-.33.22-.53.22h0ZM11.48,19.36l1.46,1.44,8.13-8.03-1.46-1.44-8.13,8.03h0Z" style="fill:#231f20;"/><path d="M28.96,6.96c-.19,0-.38-.07-.53-.21-.29-.29-.29-.75,0-1.04l1.8-1.78-1.54-1.52-1.87,1.85c-.29.29-.76.29-1.05,0-.29-.29-.29-.75,0-1.04l2.4-2.37c.29-.29.76-.29,1.05,0l2.59,2.56c.14.14.22.32.22.52s-.08.38-.22.52l-2.33,2.3c-.15.14-.34.21-.53.21h0Z" style="fill:#231f20;"/><path d="M3.98,31.62c-.19,0-.38-.07-.53-.22l-2.59-2.56c-.29-.29-.29-.75,0-1.04l2.12-2.09c.29-.29.76-.29,1.05,0,.29.29.29.75,0,1.04l-1.59,1.57,1.54,1.52,1.83-1.81c.29-.29.76-.29,1.05,0,.29.29.29.75,0,1.04l-2.36,2.33c-.15.14-.34.22-.53.22h0Z" style="fill:#231f20;"/><path d="M10.38,32.25c-.75,0-1.5-.28-2.08-.85L.86,24.06c-.55-.55-.86-1.27-.86-2.05s.31-1.5.86-2.05l.22-.21c1.14-1.13,3-1.13,4.15,0l7.44,7.35c1.14,1.13,1.14,2.97,0,4.1l-.22.21c-.57.56-1.32.85-2.08.85h0ZM3.15,20.37c-.37,0-.74.14-1.02.42l-.22.21c-.27.27-.42.63-.42,1.01s.15.74.42,1.01l7.44,7.35c.57.56,1.49.56,2.05,0l.22-.21c.56-.56.56-1.46,0-2.02l-7.44-7.35c-.28-.28-.65-.42-1.02-.42h0Z" style="fill:#231f20;"/><path d="M28.79,19.19c-.75,0-1.51-.28-2.08-.85L14.09,5.88c-1.14-1.13-1.14-2.97,0-4.1l.22-.21c.55-.55,1.29-.85,2.08-.85h0c.79,0,1.52.3,2.08.85l12.63,12.47c.55.55.86,1.27.86,2.05s-.3,1.5-.86,2.05l-.21.21c-.57.56-1.33.85-2.08.85h0ZM27.77,17.31c.57.56,1.48.56,2.05,0l.21-.21c.27-.27.42-.63.42-1.01s-.15-.74-.42-1.01L17.4,2.61c-.27-.27-.64-.42-1.02-.42h0c-.39,0-.75.15-1.02.42l-.22.21c-.56.56-.56,1.46,0,2.02l12.63,12.46h0Z" style="fill:#231f20;"/><path d="M29.52,13.35c-.75,0-1.5-.28-2.08-.85l-7.44-7.35c-1.15-1.13-1.15-2.97,0-4.1l.22-.21c.55-.55,1.29-.85,2.08-.85h0c.79,0,1.52.3,2.08.85l7.44,7.35c1.15,1.13,1.15,2.97,0,4.1l-.21.21c-.57.57-1.33.85-2.08.85h0ZM22.3,1.47c-.39,0-.75.15-1.02.42l-.22.21c-.56.56-.56,1.46,0,2.02l7.44,7.35c.57.56,1.48.56,2.05,0l.22-.21c.27-.27.42-.63.42-1.01s-.15-.74-.42-1.01l-7.44-7.35c-.27-.27-.64-.42-1.02-.42h0Z" style="fill:#231f20;"/><path d="M16.29,31.53c-.75,0-1.5-.28-2.08-.85L1.59,18.22c-1.15-1.13-1.15-2.97,0-4.1l.22-.21c.55-.55,1.29-.85,2.07-.85h0c.79,0,1.52.3,2.08.85l12.63,12.47c1.14,1.13,1.14,2.97,0,4.1l-.21.21c-.57.57-1.32.85-2.08.85h0ZM3.88,14.53c-.39,0-.75.15-1.02.42l-.22.21c-.56.56-.56,1.46,0,2.02l12.63,12.47c.56.56,1.48.56,2.05,0l.21-.21c.56-.56.56-1.47,0-2.02L4.9,14.94c-.27-.27-.64-.42-1.02-.42h0Z" style="fill:#231f20;"/></g></svg>