<?xml version="1.0" encoding="UTF-8"?><svg id="Layer_2" xmlns="http://www.w3.org/2000/svg" viewBox="0 0 62.62 53.73"><g id="Layer_1-2"><path d="M6.96,50.25c-.41,0-.73-.33-.73-.73v-14.86c0-.41.33-.73.73-.73s.73.33.73.73v14.86c0,.41-.33.73-.73.73h0Z" style="fill:#231f20;"/><path d="M17.9,50.25c-.41,0-.73-.33-.73-.73v-11.71h-4.37v11.71c0,.41-.33.73-.73.73s-.73-.33-.73-.73v-12.44c0-.41.33-.73.73-.73h5.83c.41,0,.73.33.73.73v12.44c0,.41-.33.73-.73.73h0Z" style="fill:#231f20;"/><path d="M3,35.75c-.2,0-.41-.08-.55-.25l-2.26-2.56c-.13-.15-.19-.34-.18-.53.01-.19.1-.38.25-.51L19.25,15.22c.13-.12.31-.18.48-.18h0c.17,0,.34.06.47.17l6.39,5.38c.24.2.33.54.21.83l-1.38,3.44c-.09.22-.28.38-.51.44-.23.06-.47,0-.65-.15l-4.52-3.85L3.48,35.57c-.14.12-.31.18-.48.18h0ZM1.77,32.52l1.29,1.46,16.19-14.21c.27-.24.68-.24.96,0l4.23,3.6.8-2-5.5-4.63L1.77,32.52h0Z" style="fill:#231f20;"/><path d="M7.05,24.4c-.41,0-.73-.33-.73-.73v-5.77c0-.41.33-.73.73-.73h3.61c.41,0,.73.33.73.73v2.39c0,.41-.33.73-.73.73s-.73-.33-.73-.73v-1.66h-2.14v5.03c0,.41-.33.73-.73.73h0Z" style="fill:#231f20;"/><path d="M27.59,50.34H3.43c-.41,0-.73-.33-.73-.73s.33-.73.73-.73h24.15c.41,0,.73.33.73.73s-.33.73-.73.73h0Z" style="fill:#231f20;"/><path d="M55.28,43.81c-1.52,0-3-.48-4.24-1.35-1.23.87-2.72,1.35-4.24,1.35-.04,0-4.34-.05-5.63-1.85-.24-.33-.16-.79.17-1.03.33-.24.79-.16,1.02.17.59.82,3.17,1.24,4.44,1.24,1.37,0,2.71-.49,3.77-1.37.27-.23.67-.23.94,0,1.05.88,2.39,1.37,3.77,1.37,3.23,0,5.86-2.63,5.86-5.86,0-2.43-1.47-4.57-3.74-5.46-.23-.09-.4-.29-.45-.54-.6-3.03-3.09-5.23-5.91-5.23-.66,0-4.04.11-5.53,2.37-.22.34-.68.43-1.02.21-.34-.22-.43-.68-.21-1.02,1.85-2.82,5.64-3.04,6.75-3.04,3.4,0,6.39,2.51,7.26,6.03,2.63,1.19,4.31,3.76,4.31,6.67,0,4.04-3.29,7.33-7.33,7.33h0Z" style="fill:#231f20;"/><path d="M51.03,50c-.41,0-.73-.33-.73-.73v-16.57c0-.41.33-.73.73-.73s.73.33.73.73v16.57c0,.41-.33.73-.73.73h0Z" style="fill:#231f20;"/><path d="M50.7,39.74c-.14,0-.28-.04-.4-.12l-3.09-2.01c-.34-.22-.44-.68-.22-1.02.22-.34.67-.44,1.02-.22l3.09,2.01c.34.22.44.68.22,1.02-.14.22-.38.33-.62.33h0Z" style="fill:#231f20;"/><path d="M51.03,37.32c-.29,0-.57-.17-.68-.46-.15-.38.03-.8.41-.96l3.43-1.38c.37-.15.8.03.96.41.15.38-.03.8-.41.96l-3.43,1.38c-.09.04-.18.05-.27.05h0Z" style="fill:#231f20;"/><path d="M36.45,43.05c-.09,0-.17,0-.26,0-3.03-.07-5.92-1.41-7.74-3.59-1.82-2.19-2.51-5.08-1.98-8.36.42-2.63,1.46-6.64,3.1-10.04,1.96-4.07,4.21-6.13,6.68-6.13,5.45,0,8.65,10.09,9.69,16.06h0c.79,4.55-.6,7.32-1.9,8.84-1.75,2.03-4.57,3.23-7.59,3.23h0ZM36.25,16.4c-4.04,0-7.36,8.91-8.33,14.93-.46,2.85.11,5.33,1.66,7.18,1.55,1.86,4.03,3.01,6.64,3.07,2.68.07,5.19-.95,6.71-2.71,1.58-1.83,2.12-4.47,1.57-7.63h0c-1.04-5.97-4.09-14.84-8.24-14.84h0Z" style="fill:#231f20;"/><path d="M36.08,37.81c-.16,0-.33-.06-.47-.17l-5.4-4.45c-.31-.26-.36-.72-.1-1.03.26-.31.72-.36,1.03-.1l5.4,4.45c.31.26.36.72.1,1.03-.15.18-.36.27-.57.27h0Z" style="fill:#231f20;"/><path d="M35.99,31.49c-.16,0-.33-.05-.47-.17l-3.25-2.69c-.31-.26-.36-.72-.1-1.03.26-.31.72-.36,1.03-.1l3.25,2.69c.31.26.36.72.1,1.03-.15.18-.36.27-.57.27h0Z" style="fill:#231f20;"/><path d="M36.38,37.81c-.21,0-.42-.09-.57-.27-.26-.31-.21-.78.1-1.03l5.4-4.45c.31-.26.78-.21,1.03.1.26.31.21.78-.1,1.03l-5.4,4.45c-.14.11-.3.17-.47.17h0Z" style="fill:#231f20;"/><path d="M36.47,31.49c-.21,0-.42-.09-.57-.27-.26-.31-.21-.78.1-1.03l3.25-2.69c.31-.26.78-.21,1.03.1.26.31.21.78-.1,1.03l-3.25,2.69c-.14.11-.3.17-.47.17h0Z" style="fill:#231f20;"/><path d="M36.24,50.3c-.41,0-.73-.33-.73-.73v-24.66c0-.41.33-.73.73-.73s.73.33.73.73v24.66c0,.41-.33.73-.73.73h0Z" style="fill:#231f20;"/><path d="M28.96,53.73c-.22,0-.43-.1-.58-.28-.25-.32-.2-.78.12-1.03,3.4-2.68,9.33-4.28,15.86-4.28s12.42,1.59,15.83,4.25c.32.25.38.71.13,1.03-.25.32-.71.37-1.03.13-3.11-2.43-8.83-3.94-14.92-3.94s-11.85,1.52-14.95,3.96c-.13.11-.29.16-.45.16h0Z" style="fill:#231f20;"/><path d="M45.49,10.48c-1.84,0-3.34-1.49-3.35-3.33h0c0-1.85,1.49-3.36,3.34-3.36h.01c1.84,0,3.34,1.49,3.35,3.33,0,1.85-1.49,3.36-3.33,3.36h-.02ZM43.61,7.13c0,1.03.85,1.87,1.88,1.87h0c1.04,0,1.88-.85,1.87-1.89,0-1.03-.85-1.87-1.88-1.87h0c-.5,0-.97.2-1.33.56-.35.36-.55.83-.55,1.33h0Z" style="fill:#231f20;"/><path d="M42.88,14.23c-.09,0-.19-.02-.28-.06-.37-.16-.55-.59-.39-.96l.57-1.36c.16-.37.58-.55.96-.39.37.16.55.59.39.96l-.57,1.36c-.12.28-.39.45-.68.45h0Z" style="fill:#231f20;"/><path d="M47.55,2.83c-.09,0-.19-.02-.28-.06-.37-.16-.55-.59-.39-.96l.57-1.36c.16-.37.59-.55.96-.39.37.16.55.59.39.96l-.57,1.36c-.12.28-.39.45-.68.45h0Z" style="fill:#231f20;"/><path d="M39.14,10.51c-.29,0-.56-.17-.68-.46-.15-.38.03-.8.4-.96l1.37-.56c.37-.16.81.03.96.4.15.38-.03.8-.4.96l-1.37.56c-.09.04-.18.05-.28.05h0Z" style="fill:#231f20;"/><path d="M50.5,5.75c-.29,0-.56-.17-.68-.46-.15-.38.03-.8.4-.96l1.37-.56c.37-.15.8.03.96.4.15.38-.03.8-.4.96l-1.37.56c-.09.04-.19.05-.28.05h0Z" style="fill:#231f20;"/><path d="M40.48,5.81c-.09,0-.19-.02-.28-.06l-1.36-.57c-.37-.16-.55-.59-.39-.96.16-.37.59-.55.96-.39l1.36.57c.37.16.55.59.39.96-.12.28-.39.45-.68.45h0Z" style="fill:#231f20;"/><path d="M51.88,10.47c-.09,0-.19-.02-.28-.06l-1.36-.57c-.37-.16-.55-.59-.39-.96.16-.38.59-.55.96-.39l1.36.57c.37.16.55.59.39.96-.12.28-.39.45-.68.45h0Z" style="fill:#231f20;"/><path d="M48.16,14.22c-.29,0-.56-.17-.68-.46l-.56-1.37c-.15-.37.03-.8.4-.96.37-.15.8.03.96.4l.56,1.37c.15.37-.03.8-.4.96-.09.04-.19.05-.28.05h0Z" style="fill:#231f20;"/><path d="M43.4,2.86c-.29,0-.56-.17-.68-.46l-.56-1.37c-.15-.37.03-.8.4-.96.37-.15.8.03.96.4l.56,1.37c.15.37-.03.8-.4.96-.09.04-.19.05-.28.05h0Z" style="fill:#231f20;"/></g></svg>