<?xml version="1.0" encoding="UTF-8"?><svg id="Layer_2" xmlns="http://www.w3.org/2000/svg" viewBox="0 0 45.98 46.5"><g id="Layer_1-2"><path d="M23.39,46.5c-5.99,0-11.97-2.28-16.53-6.84C2.43,35.25,0,29.37,0,23.13S2.43,11.01,6.85,6.59c1.7-1.7,3.63-3.12,5.75-4.23.39-.21.88-.13,1.2.18.32.32.39.8.19,1.2-4.31,8.3-2.76,18.31,3.85,24.92,6.61,6.61,16.62,8.15,24.92,3.85.4-.21.88-.13,1.2.19.32.32.39.8.18,1.2-1.11,2.12-2.53,4.05-4.23,5.76-4.56,4.56-10.55,6.84-16.53,6.84h0ZM10.84,5.87c-.9.66-1.75,1.38-2.54,2.17-4.03,4.03-6.25,9.38-6.25,15.08s2.22,11.06,6.25,15.09c8.32,8.32,21.84,8.32,30.16,0,.79-.8,1.52-1.65,2.17-2.55-8.4,2.95-17.8.9-24.25-5.55-6.44-6.44-8.5-15.85-5.55-24.25h0Z" style="fill:#231f20;"/><path d="M32.49,14.03h-9.93c-.4,0-.76-.23-.93-.59-.17-.36-.11-.79.14-1.09L30.35,2.05h-7.83c-.57,0-1.03-.46-1.03-1.03s.46-1.03,1.03-1.03h10.03c.4,0,.76.23.93.59.17.36.11.79-.14,1.09l-8.58,10.29h7.74c.57,0,1.03.46,1.03,1.03s-.46,1.03-1.03,1.03h0Z" style="fill:#231f20;"/><path d="M44.92,22.63h-7.09c-.4,0-.76-.23-.93-.59-.17-.36-.11-.79.14-1.09l5.72-6.87h-4.97c-.57,0-1.03-.46-1.03-1.03s.46-1.03,1.03-1.03h7.16c.4,0,.76.23.93.59.17.36.11.79-.14,1.09l-5.73,6.87h4.9c.57,0,1.03.46,1.03,1.03s-.46,1.03-1.03,1.03h0Z" style="fill:#231f20;"/><path d="M32.25,26.91h-4.98c-.4,0-.76-.23-.93-.59-.17-.36-.11-.79.14-1.09l3.6-4.32h-2.84c-.57,0-1.03-.46-1.03-1.03s.46-1.03,1.03-1.03h5.03c.4,0,.76.23.93.59.17.36.11.79-.14,1.09l-3.6,4.32h2.79c.57,0,1.03.46,1.03,1.03s-.46,1.03-1.03,1.03h0Z" style="fill:#231f20;"/></g></svg>