<?xml version="1.0" encoding="UTF-8"?><svg id="Layer_2" xmlns="http://www.w3.org/2000/svg" viewBox="0 0 43.48 53.26"><g id="Layer_1-2"><path d="M6.64,30.12c-.08,0-.16,0-.24-.03-.55-.13-.89-.69-.76-1.24.89-3.68,2.72-6.05,5.43-7.06.53-.19,1.12.07,1.32.6.2.53-.07,1.12-.6,1.32-2.04.76-3.43,2.65-4.15,5.62-.11.47-.53.79-1,.79h0Z" style="fill:#231f20;"/><path d="M14.28,53.26c-2.69,0-4.7-1.33-5.59-2.33C-2.28,41.06.21,27.26.32,26.67c.28-1.14.61-2.17.99-3.1.12-.56.68-2.62,2.72-4.26,5.52-4.45,11.83-2.67,12.1-2.59,3.79.71,5.33.7,5.36.7h.49s1.55.01,5.4-.71c.71-.24,5.26-1.63,9.5.63,3.07,1.64,5.18,4.76,6.28,9.28.12.63,2.61,14.43-8.36,24.31-1.27,1.43-4.8,3.51-9.4,1.47-.58-.23-2.43-.87-3.59-.87h-.12c-1.17,0-3.02.64-3.63.89-1.36.61-2.63.85-3.78.85h0ZM12.73,18.38c-2.05,0-4.86.47-7.41,2.53h0c-1.69,1.36-1.99,3.06-2.01,3.13-.01.08-.04.16-.07.23-.36.85-.67,1.81-.92,2.84-.01.08-2.36,13.25,7.78,22.34.03.03.07.06.09.1.1.12,2.67,2.94,7.06.99.14-.06,2.62-1.05,4.43-1.05h.12c1.81,0,4.29.99,4.4,1.03,4.47,1.99,7.06-.94,7.09-.97.03-.03.06-.07.09-.1,10.14-9.09,7.79-22.26,7.77-22.39-.94-3.86-2.7-6.54-5.22-7.89-3.69-1.99-7.89-.51-7.93-.49-.05.02-.11.03-.16.04-4.18.78-5.82.76-5.88.76h-.45s-1.67.03-5.86-.76c-.07-.02-1.24-.34-2.92-.34h0ZM4.67,20.11h.01-.01Z" style="fill:#231f20;"/><path d="M22.26,13.92c-.24,0-.4,0-.43,0-.39-.02-.74-.27-.9-.63-2.13-5.12-5.29-6.53-5.32-6.54-.52-.22-.76-.82-.55-1.34.22-.52.81-.77,1.33-.55.15.06,3.68,1.57,6.16,7.02,1.5-.04,5.31-.39,7.22-2.8,1.17-1.48,2.19-4.6,2.75-6.71-2.22.5-5.53,1.4-6.97,2.44-.6.44-1.11,1.11-1.52,2-.14.3-.27.64-.39.98-.18.54-.76.83-1.3.66-.54-.18-.83-.76-.66-1.3.14-.42.3-.83.47-1.21.56-1.21,1.29-2.15,2.18-2.8C26.96,1.24,33.46.07,33.73.02c.34-.06.68.05.92.3.24.25.34.6.26.93-.06.26-1.41,6.41-3.53,9.1-2.63,3.32-7.61,3.58-9.12,3.58h0Z" style="fill:#231f20;"/></g></svg>