<?xml version="1.0" encoding="UTF-8"?><svg id="Layer_2" xmlns="http://www.w3.org/2000/svg" viewBox="0 0 44.54 57.88"><g id="Layer_1-2"><path d="M15.63,21.28c-1.17-1.2-2.19-1.86-2.4-1.99-1.09-.48-2.24-.39-2.93-.33-.19.02-.34.03-.45.03-2.61.09-5.21-.92-7.06-2.77C.08,13.51-.74,9.48.7,5.93c.12-.29.37-.5.68-.56.31-.06.62.03.84.25l4.5,4.5c.92.91,2.47.91,3.39-.02.45-.45.7-1.06.71-1.7,0-.64-.24-1.24-.69-1.69L5.62,2.22c-.22-.22-.32-.54-.25-.84s.27-.56.56-.68c3.55-1.43,7.58-.61,10.28,2.09,1.86,1.86,2.87,4.44,2.78,7.09,0,.09-.01.24-.03.42-.08.93-.23,2.67,1.04,4l4.19,4.19-1.31,1.31-4.21-4.21c-1.86-1.96-1.65-4.41-1.56-5.45.01-.13.02-.23.02-.31.08-2.15-.74-4.23-2.23-5.72-1.82-1.82-4.4-2.58-6.86-2.1l3.4,3.4c.8.8,1.24,1.87,1.23,3.01,0,1.14-.45,2.21-1.25,3-1.66,1.67-4.36,1.67-6.02.02l-3.4-3.4c-.48,2.46.28,5.04,2.1,6.86,1.49,1.49,3.56,2.3,5.7,2.23.1,0,.21-.01.34-.02.83-.07,2.36-.2,3.91.51.14.08,1.42.84,2.91,2.36l-1.33,1.3h0Z" style="fill:#231f20;"/><path d="M40.49,44.54c-.13,0-.26,0-.39-.02-.98-.11-1.96-.66-2.93-1.63l-12.77-12.63,1.31-1.32,12.77,12.63c.67.67,1.28,1.04,1.83,1.1.53.06,1.06-.18,1.62-.73.55-.55.79-1.08.73-1.62-.06-.55-.43-1.16-1.1-1.83l-2.03-2.03,1.31-1.31,2.03,2.03c.97.97,1.52,1.96,1.63,2.93.13,1.12-.3,2.18-1.27,3.14-.85.85-1.78,1.29-2.76,1.29h0Z" style="fill:#231f20;"/><path d="M38.07,37.41h-.03c-.93,0-1.8-.37-2.45-1.03l-.42-.42c-1.36-1.36-1.37-3.56-.03-4.91l2.97-2.97c.64-.64,1.5-1,2.42-1h.03c.93,0,1.8.37,2.45,1.03l.42.41c1.36,1.37,1.37,3.57.03,4.91l-2.97,2.97c-.64.65-1.51,1-2.43,1h0ZM39.43,29.4l-2.97,2.97c-.62.62-.61,1.65.03,2.28l.42.42c.31.31.72.48,1.15.48.43,0,.83-.16,1.13-.45l2.97-2.97c.62-.62.61-1.64-.03-2.28l-.42-.41c-.31-.31-.72-.49-1.16-.49-.43,0-.83.16-1.13.45h0Z" style="fill:#231f20;"/><path d="M34.03,33.37h-.03c-.93,0-1.8-.37-2.45-1.03l-.42-.42c-.65-.65-1.02-1.53-1.03-2.45,0-.93.35-1.81,1-2.46l4.08-4.08c1.34-1.34,3.55-1.33,4.91.03l.42.42c1.36,1.37,1.37,3.57.03,4.91l-4.08,4.07c-.64.65-1.51,1-2.43,1h0ZM37.6,23.8c-.41,0-.81.15-1.11.46l-4.08,4.07c-.3.3-.46.7-.45,1.13,0,.44.17.85.48,1.15l.42.42c.31.31.72.48,1.15.48.44,0,.83-.16,1.13-.46l4.08-4.07c.62-.62.61-1.64-.03-2.28l-.42-.42c-.32-.32-.75-.49-1.17-.49h0Z" style="fill:#231f20;"/><path d="M28.12,24.54l-1.31-1.31,3.74-3.73c.62-.62.61-1.64-.03-2.28l-.42-.42c-.31-.31-.72-.48-1.15-.48-.41.02-.83.16-1.13.45l-3.85,3.85-1.31-1.31,3.84-3.85c1.35-1.34,3.55-1.33,4.91.03l.42.42c1.36,1.36,1.37,3.56.03,4.91l-3.74,3.73h0Z" style="fill:#231f20;"/><path d="M32.41,28.33l-1.31-1.31,5.09-5.09c.62-.62.61-1.64-.03-2.28l-.41-.41c-.62-.62-1.68-.63-2.28-.03l-5.1,5.09-1.31-1.31,5.1-5.09c1.3-1.3,3.59-1.29,4.91.03l.41.41c1.36,1.37,1.38,3.57.03,4.92l-5.09,5.09h0Z" style="fill:#231f20;"/><path d="M23.2,36.09c-.14,0-.27-.03-.41-.09-.46-.22-.65-.78-.43-1.24.09-.19,2.06-4.43-1.26-7.76-.36-.36-.36-.95,0-1.31.36-.36.95-.36,1.31,0,3.43,3.43,2.56,7.97,1.62,9.89-.16.33-.49.52-.84.52h0Z" style="fill:#231f20;"/><path d="M19.6,50.79c-.24,0-.48-.09-.66-.27-.36-.36-.36-.95,0-1.31l2.68-2.68c.24-.24.59-.33.92-.24.06.02,1.75.46,3.94-.52,1.87-.84,4.7-3.01,8.39-6.46.37-.35.96-.33,1.31.04.35.37.33.96-.04,1.31-3.89,3.64-6.8,5.86-8.89,6.8-2.04.91-3.79.85-4.65.73l-2.33,2.33c-.18.18-.42.27-.66.27h0Z" style="fill:#231f20;"/><path d="M11.02,36.98c-.19,0-.39-.06-.55-.18-.41-.3-.5-.89-.2-1.3,0,0,.57-.81.67-2.07.15-1.29.9-7.62,1.7-9.22.2-.47,1.92-4.27,6.29-6.75.11-.06.24-.1.37-.12.09,0,2.16-.19,3.81,1.46l8.42,8.42c.17.17.27.41.27.66s-.1.48-.27.66c-1.54,1.53-5.2,3.68-8.07.81l-3.91-3.91c-.36-.36-.36-.95,0-1.31.36-.36.95-.36,1.31,0l3.91,3.91c1.63,1.63,3.66.57,4.72-.21l-7.7-7.7c-.8-.8-1.76-.91-2.14-.92-3.83,2.27-5.29,5.73-5.3,5.76-.54,1.02-1.23,5.84-1.55,8.65-.14,1.75-.93,2.87-1.02,3-.18.25-.46.38-.75.38h0Z" style="fill:#231f20;"/><path d="M16.7,57.88c-.24,0-.48-.09-.66-.27-.36-.36-.36-.95,0-1.31l4.22-4.22-14.03-14.03-4.22,4.22c-.36.36-.95.36-1.31,0-.36-.36-.36-.95,0-1.31l4.88-4.87c.36-.36.95-.36,1.31,0l15.35,15.35c.36.36.36.95,0,1.31l-4.88,4.87c-.18.18-.42.27-.66.27h0Z" style="fill:#231f20;"/></g></svg>