<?xml version="1.0" encoding="UTF-8"?><svg id="Layer_2" xmlns="http://www.w3.org/2000/svg" viewBox="0 0 57.03 57.66"><g id="Layer_1-2"><path d="M53.47,42.48v-6.44c-.33.1-.66.21-1.03.21s-.7-.11-1.03-.21v6.44c.33-.1.66-.21,1.03-.21s.7.11,1.03.21h0ZM43.89,52.29l6.4-3.69c-.55-.43-.97-1-1.19-1.69l-6.19,3.58c.51.47.82,1.1.98,1.8h0ZM49.1,31.61c.22-.69.63-1.25,1.19-1.69l-6.4-3.69c-.16.7-.48,1.33-.98,1.8l6.19,3.58h0ZM40.48,21.88c.36,0,.7.11,1.03.21v-6.9c-.33.1-.66.21-1.03.21s-.7-.11-1.03-.21v6.9c.33-.1.66-.21,1.03-.21h0ZM37.13,10.75c.22-.69.63-1.25,1.19-1.69l-6.4-3.69c-.16.7-.48,1.33-.98,1.8l6.19,3.58h0ZM37.05,26.11l-6.48,3.74c.61.44,1.06,1.03,1.3,1.76l6.19-3.58c-.54-.5-.86-1.18-1.01-1.93h0ZM28.52,42.27c.36,0,.7.11,1.03.21v-6.44c-.33.1-.66.21-1.03.21s-.7-.11-1.03-.21v6.44c.33-.1.66-.21,1.03-.21h0ZM26.47,29.85l-6.48-3.74c-.15.75-.47,1.42-1.01,1.93l6.19,3.58c.23-.73.69-1.32,1.3-1.76h0ZM19.9,10.75l6.19-3.58c-.51-.48-.82-1.1-.98-1.8l-6.4,3.69c.55.43.97,1,1.19,1.69h0ZM13.15,26.23l-6.4,3.69c.55.43.97,1,1.19,1.69l6.19-3.58c-.51-.47-.82-1.1-.98-1.8h0ZM7.94,46.91c-.22.69-.63,1.25-1.19,1.69l6.4,3.69c.16-.7.48-1.33.98-1.8l-6.19-3.58h0ZM4.59,42.27c.36,0,.7.11,1.03.21v-6.44c-.33.1-.66.21-1.03.21s-.7-.11-1.03-.21v6.44c.33-.1.66-.21,1.03-.21h0ZM15.53,15.19v6.9c.33-.1.66-.21,1.03-.21s.7.11,1.03.21v-6.9c-.33.1-.66.21-1.03.21s-.7-.11-1.03-.21h0ZM25.17,46.91l-6.19,3.58c.51.47.82,1.1.98,1.8l6.4-3.69c-.55-.43-.97-1-1.19-1.69h0ZM31.86,46.91c-.22.69-.63,1.25-1.19,1.69l6.4,3.69c.16-.7.48-1.33.98-1.8l-6.19-3.58h0Z" style="fill:#231f20;"/><path d="M50.08,7.22c-.52-.47-.86-1.08-1.03-1.78l-6.25,3.78c.53.45.92,1.03,1.12,1.72l6.16-3.73h0Z" style="fill:#231f20;"/><path d="M40.48,16.42c-2.53,0-4.59-2.06-4.59-4.59s2.06-4.59,4.59-4.59,4.59,2.06,4.59,4.59-2.06,4.59-4.59,4.59h0ZM40.48,9.29c-1.4,0-2.54,1.14-2.54,2.54s1.14,2.54,2.54,2.54,2.54-1.14,2.54-2.54-1.14-2.54-2.54-2.54h0Z" style="fill:#231f20;"/><path d="M16.55,16.42c-2.53,0-4.59-2.06-4.59-4.59s2.06-4.59,4.59-4.59,4.59,2.06,4.59,4.59-2.06,4.59-4.59,4.59h0ZM16.55,9.29c-1.4,0-2.54,1.14-2.54,2.54s1.14,2.54,2.54,2.54,2.54-1.14,2.54-2.54-1.14-2.54-2.54-2.54h0Z" style="fill:#231f20;"/><path d="M28.52,9.18c-2.53,0-4.59-2.06-4.59-4.59S25.99,0,28.52,0s4.59,2.06,4.59,4.59-2.06,4.59-4.59,4.59h0ZM28.52,2.05c-1.4,0-2.54,1.14-2.54,2.54s1.14,2.54,2.54,2.54,2.54-1.14,2.54-2.54-1.14-2.54-2.54-2.54h0Z" style="fill:#231f20;"/><path d="M52.44,9.18c-2.53,0-4.59-2.06-4.59-4.59s2.06-4.59,4.59-4.59,4.59,2.06,4.59,4.59-2.06,4.59-4.59,4.59h0ZM52.44,2.05c-1.4,0-2.54,1.14-2.54,2.54s1.14,2.54,2.54,2.54,2.54-1.14,2.54-2.54-1.14-2.54-2.54-2.54h0Z" style="fill:#231f20;"/><path d="M52.44,37.28c-2.53,0-4.59-2.06-4.59-4.59s2.06-4.59,4.59-4.59,4.59,2.06,4.59,4.59-2.06,4.59-4.59,4.59h0ZM52.44,30.15c-1.4,0-2.54,1.14-2.54,2.54s1.14,2.54,2.54,2.54,2.54-1.14,2.54-2.54-1.14-2.54-2.54-2.54h0Z" style="fill:#231f20;"/><path d="M40.48,30.04c-2.53,0-4.59-2.06-4.59-4.59s2.06-4.59,4.59-4.59,4.59,2.06,4.59,4.59-2.06,4.59-4.59,4.59h0ZM40.48,22.91c-1.4,0-2.54,1.14-2.54,2.54s1.14,2.54,2.54,2.54,2.54-1.14,2.54-2.54-1.14-2.54-2.54-2.54h0Z" style="fill:#231f20;"/><path d="M52.44,50.43c-2.53,0-4.59-2.06-4.59-4.59s2.06-4.59,4.59-4.59,4.59,2.06,4.59,4.59-2.06,4.59-4.59,4.59h0ZM52.44,43.3c-1.4,0-2.54,1.14-2.54,2.54s1.14,2.54,2.54,2.54,2.54-1.14,2.54-2.54-1.14-2.54-2.54-2.54h0Z" style="fill:#231f20;"/><path d="M40.48,57.66c-2.53,0-4.59-2.06-4.59-4.59s2.06-4.59,4.59-4.59,4.59,2.06,4.59,4.59-2.06,4.59-4.59,4.59h0ZM40.48,50.54c-1.4,0-2.54,1.14-2.54,2.54s1.14,2.54,2.54,2.54,2.54-1.14,2.54-2.54-1.14-2.54-2.54-2.54h0Z" style="fill:#231f20;"/><path d="M28.52,37.28c-2.53,0-4.59-2.06-4.59-4.59s2.06-4.59,4.59-4.59,4.59,2.06,4.59,4.59-2.06,4.59-4.59,4.59h0ZM28.52,30.15c-1.4,0-2.54,1.14-2.54,2.54s1.14,2.54,2.54,2.54,2.54-1.14,2.54-2.54-1.14-2.54-2.54-2.54h0Z" style="fill:#231f20;"/><path d="M4.59,37.28c-2.53,0-4.59-2.06-4.59-4.59s2.06-4.59,4.59-4.59,4.59,2.06,4.59,4.59-2.06,4.59-4.59,4.59h0ZM4.59,30.15c-1.4,0-2.54,1.14-2.54,2.54s1.14,2.54,2.54,2.54,2.54-1.14,2.54-2.54-1.14-2.54-2.54-2.54h0Z" style="fill:#231f20;"/><path d="M16.55,30.04c-2.53,0-4.59-2.06-4.59-4.59s2.06-4.59,4.59-4.59,4.59,2.06,4.59,4.59-2.06,4.59-4.59,4.59h0ZM16.55,22.91c-1.4,0-2.54,1.14-2.54,2.54s1.14,2.54,2.54,2.54,2.54-1.14,2.54-2.54-1.14-2.54-2.54-2.54h0Z" style="fill:#231f20;"/><path d="M4.59,50.43c-2.53,0-4.59-2.06-4.59-4.59s2.06-4.59,4.59-4.59,4.59,2.06,4.59,4.59-2.06,4.59-4.59,4.59h0ZM4.59,43.3c-1.4,0-2.54,1.14-2.54,2.54s1.14,2.54,2.54,2.54,2.54-1.14,2.54-2.54-1.14-2.54-2.54-2.54h0Z" style="fill:#231f20;"/><path d="M28.52,50.43c-2.53,0-4.59-2.06-4.59-4.59s2.06-4.59,4.59-4.59,4.59,2.06,4.59,4.59-2.06,4.59-4.59,4.59h0ZM28.52,43.3c-1.4,0-2.54,1.14-2.54,2.54s1.14,2.54,2.54,2.54,2.54-1.14,2.54-2.54-1.14-2.54-2.54-2.54h0Z" style="fill:#231f20;"/><path d="M16.55,57.66c-2.53,0-4.59-2.06-4.59-4.59s2.06-4.59,4.59-4.59,4.59,2.06,4.59,4.59-2.06,4.59-4.59,4.59h0ZM16.55,50.54c-1.4,0-2.54,1.14-2.54,2.54s1.14,2.54,2.54,2.54,2.54-1.14,2.54-2.54-1.14-2.54-2.54-2.54h0Z" style="fill:#231f20;"/></g></svg>