<?xml version="1.0" encoding="UTF-8"?><svg id="Layer_2" xmlns="http://www.w3.org/2000/svg" viewBox="0 0 58.97 56.16"><g id="Layer_1-2"><path d="M29.52,1.67c.4,0,.8.07,1.12.2.27.1.67.41.89.67.4.48.4.52.4,2.59v2.11l.95,1.64.95,1.64,7.68.08,7.68.08.39.39c.27.27.41.61.46,1.08.08.62.05.71-.45,1.2-.46.46-.61.52-1.28.52s-.76.04-.76.1c.01.08,1.86,3.66,4.14,8l4.12,7.89.75.08.75.08-.04.81c-.27,4.36-3.42,8.16-7.77,9.32-.65.17-1.58.26-2.53.26s-1.89-.09-2.53-.26c-3.8-.98-6.64-3.8-7.59-7.59-.17-.66-.3-1.51-.3-1.91v-.71h1.43l4.12-7.89c2.27-4.33,4.12-7.94,4.12-8.03s-1.63-.12-5.01-.12h-2.09l-7.11.05v34.95l4.24.08c4.11.08,4.25.09,4.72.41,1.48,1.06,1.43,3.72-.09,4.74l-.52.35-10.93-.03c-12.46-.04-11.41.08-12.14-1.37-.68-1.35-.35-2.98.79-3.74l.55-.37h8.4V13.87h-7.14c-3.93,0-7.14.04-7.14.1s1.86,3.67,4.14,8.03l4.12,7.93h1.46l-.09,1.15c-.26,3.67-2.91,7.15-6.5,8.57-1.23.48-2.49.7-3.74.7-4.3,0-8.37-2.69-9.83-6.95-.26-.73-.48-1.74-.52-2.37l-.09-1.1h1.46l4.09-7.82c2.24-4.32,4.11-7.93,4.14-8.03.05-.17-.15-.21-.71-.21s-.84-.08-1.19-.43c-.75-.73-.77-1.56-.09-2.35l.36-.41,7.71-.08,7.71-.08.94-1.56.93-1.56v-2.1c.01-1.92.04-2.14.36-2.59.18-.27.57-.61.85-.76.33-.18.83-.28,1.32-.28M50.44,29.91c1.8,0,3,0,3.01-.03.03-.03-1.28-2.78-2.9-6.13-1.62-3.35-3.12-6.39-3.31-6.78l-.36-.7-3.29,6.79-3.3,6.79,6.56.04h3.59M16.01,29.91c1.57,0,2.61,0,2.63-.02.01-.03-1.39-3.03-3.17-6.66-1.75-3.63-3.27-6.66-3.35-6.74h-.01c-.11,0-.52.71-1.07,1.86-.52,1.1-2,4.14-3.27,6.75l-2.32,4.76,6.57.04h3.99M29.52,0c-.46,0-1.33.06-2.1.47-.52.28-1.12.8-1.44,1.29-.64.91-.64,1.63-.64,3.52v1.64s-.7,1.17-.7,1.17l-.46.76-6.77.07-7.71.08c-.48,0-.94.22-1.25.58l-.36.41c-1.26,1.46-1.19,3.28.18,4.63.22.22.45.4.66.52-.74,1.44-1.89,3.65-3.2,6.18l-3.61,6.93h-.45c-.47,0-.91.2-1.23.54-.31.35-.48.8-.43,1.27l.09,1.09c.06.77.3,1.92.61,2.79.83,2.4,2.38,4.44,4.48,5.9,2.05,1.42,4.45,2.18,6.93,2.18s2.96-.28,4.34-.81c2.05-.81,3.86-2.19,5.22-3.98,1.38-1.82,2.19-3.89,2.34-6.02l.09-1.14c.03-.47-.12-.93-.44-1.27-.31-.35-.76-.54-1.23-.54h-.45l-3.65-7.03c-1.17-2.24-2.21-4.24-2.95-5.67,1.13-.01,2.62-.02,4.46-.02h5.47v31.76h-6.73c-.33,0-.66.1-.94.29l-.55.37c-1.83,1.23-2.41,3.76-1.35,5.88.03.08.07.14.11.22.16.35.39.87.97,1.28.58.41,1.28.55,1.9.61,1.27.15,3.4.15,8.09.17h2.57l10.93.03c.32,0,.65-.1.91-.28l.52-.35s.01,0,.02-.01c1.17-.79,1.89-2.2,1.91-3.76.02-1.53-.65-2.93-1.79-3.74-.54-.38-.99-.54-1.81-.6-.68-.06-1.79-.08-3.84-.12l-2.6-.04V15.61l5.44-.03h4.43c-.69,1.35-1.7,3.29-2.96,5.7l-3.65,6.98h-.41c-.93,0-1.67.75-1.67,1.67v.71c0,.6.18,1.62.35,2.31,1.1,4.37,4.38,7.66,8.79,8.8,1.03.27,2.29.31,2.96.31s1.93-.04,2.96-.31c2.47-.66,4.64-2.04,6.27-4,1.64-1.96,2.59-4.33,2.73-6.83h0s.04-.83.04-.83c.05-.89-.61-1.66-1.51-1.75l-.59-.06-3.7-7.08c-1.32-2.51-2.42-4.64-3.15-6.06.25-.16.49-.36.75-.61.85-.85,1.06-1.43.93-2.57-.08-.85-.4-1.55-.94-2.09l-.39-.39c-.31-.31-.73-.49-1.17-.49l-7.68-.08-6.73-.07-.47-.81-.73-1.25v-1.66c0-2.2,0-2.72-.79-3.67,0,0-.01-.02-.02-.03-.35-.39-.94-.88-1.51-1.11-.64-.27-1.31-.32-1.75-.32h-.01ZM42.95,28.2l2.14-4.41,1.81-3.73c.6,1.22,1.36,2.79,2.15,4.41.76,1.56,1.36,2.81,1.81,3.76h-4l-3.9-.02h0ZM8.12,28.2l1.16-2.38c.95-1.95,2.09-4.28,2.8-5.76.54,1.08,1.19,2.42,1.9,3.88.8,1.64,1.52,3.13,2.06,4.28h-4l-3.92-.02h0Z" style="fill:#231f20;"/></g></svg>