<?xml version="1.0" encoding="UTF-8"?><svg id="Layer_2" xmlns="http://www.w3.org/2000/svg" viewBox="0 0 58.25 56.66"><g id="Layer_1-2"><path d="M10.49,50.88c-.99-3.44-1.71-6.86-2.16-10.34-.26-2.05-.37-4.12-.33-6.18.08-3.81,1.11-7.32,3.2-10.53,1.08-1.65,2.3-3.22,3.18-5,1.47-2.97,1.65-6.11,1.3-9.33-.29-2.64-1.11-5.12-2.17-7.53-.35-.79-.2-1.51.36-1.81.72-.38,1.47-.13,1.9.73,1.01,2.05,1.66,4.22,2.12,6.45.38,1.81.35,3.64.36,5.47.03,3.45-1.03,6.55-2.89,9.42-.93,1.43-2.04,2.75-2.79,4.31-.14.29-.26.59-.38.87,4.86,3.41,27.91,3.39,33.89-.02-.15-.82-.69-1.46-1.11-2.15-.86-1.41-1.91-2.7-2.73-4.13-1.13-1.97-1.81-4.07-2.08-6.33-.53-4.36.13-8.52,1.79-12.56.2-.49.42-.98.67-1.45.3-.56.72-.9,1.44-.71.72.19.89.65.87,1.32-.02.82-.52,1.44-.8,2.14-1.22,3.15-1.91,6.4-1.68,9.78.2,2.9,1.12,5.58,2.88,7.96,1.99,2.7,3.76,5.51,4.45,8.86.61,2.95.56,5.92.33,8.9-.33,4.34-1.37,8.54-2.53,12.71-.37,1.33-.8,2.65-1.23,3.97-.26.81-.86,1.1-1.65.87-.59-.17-.95-.95-.7-1.7.59-1.73,1.08-3.5,1.56-5.26.88-3.21,1.61-6.46,2.04-9.77.2-1.57.36-3.16.15-4.82-1.29.33-2.33,1.09-3.42,1.71-3.24,1.82-6.39,3.79-9.39,6-1.09.8-2.03,1.9-3.31,2.33-1.2.4-1.34,1.06-1.31,2.14.07,2.66.03,5.33.02,8,0,1-.33,1.39-1.17,1.41-.86.02-1.25-.4-1.25-1.43-.01-2.93-.01-5.87,0-8.8,0-.57-.1-.87-.75-1.05-1.4-.39-2.38-1.51-3.52-2.34-3.21-2.36-6.58-4.51-10.07-6.44-.98-.54-1.96-1.06-3.04-1.63-.22.99-.17,1.87-.09,2.73.53,5.51,1.81,10.85,3.48,16.12.13.42.26.85.35,1.28.15.68,0,1.26-.72,1.52-.76.28-1.42-.05-1.68-.86-.49-1.57-.94-3.16-1.42-4.82M34,32.3c-2.06.16-4.12.35-6.18.25-.79-.04-1.59-.07-2.38-.12-1.03-.06-2.07-.08-3.09-.21-3.53-.46-7.05-1.02-10.46-2.09-.21-.06-.44-.2-.68-.02-.59.45-.5,1.94.15,2.3,1.22.67,2.45,1.32,3.65,2,4.17,2.35,8.23,4.86,11.95,7.89,1.36,1.11,2.94,1.15,4.23.11,4.76-3.83,9.95-7,15.4-9.73.94-.47,1.04-.95.81-1.83-.19-.76-.45-.98-1.27-.74-3.91,1.14-7.89,1.93-12.13,2.18h0Z" style="fill:#231f20;"/><path d="M7.81,11.12c-.55-.68-1.07-1.32-1.62-1.93-.57-.62-.7-1.42-.26-1.89.5-.55,1.36-.58,1.99.04,1.12,1.1,2.18,2.25,3.25,3.39,1.68,1.78,1.67,1.94-.08,3.71-1.06,1.07-2.07,2.19-3.12,3.27-.61.64-1.43.7-1.95.2-.51-.5-.47-1.36.14-1.96.63-.62,1.3-1.19,1.98-1.81-.44-.45-.79-.35-1.08-.35-1.87-.01-3.73,0-5.6,0C.4,13.77,0,13.42,0,12.54c0-.84.41-1.19,1.48-1.2,1.81-.01,3.61,0,5.42-.01.3,0,.65.14.91-.2h0ZM47.96,15.22c-.51-.51-.97-.96-1.42-1.43-.85-.88-.85-1.64.03-2.53,1.27-1.28,2.57-2.54,3.83-3.83.55-.56,1.1-.8,1.78-.28.5.39.57,1.34.1,1.93-.45.55-.98,1.02-1.47,1.54-.16.17-.39.28-.44.59.35.16.73.11,1.1.11,1.84,0,3.67,0,5.51,0,.9,0,1.29.39,1.29,1.2,0,.82-.39,1.21-1.27,1.22-1.86.01-3.73,0-5.59.01-.31,0-.65-.08-1.05.15.62.7,1.26,1.33,1.8,2.04.48.63.59,1.57.11,1.99-.49.43-1.49.33-1.99-.31-.68-.87-1.49-1.6-2.29-2.43h0ZM30.45,19.18c-.64.7-1.36.82-2.13.44-.94-.46-.8-1.36-.75-2.17.05-.71.47-1.17,1.18-1.37,1.16-.33,2.37.97,2.06,2.22-.07.28-.21.55-.36.88h0Z" style="fill:#231f20;"/></g></svg>