<?xml version="1.0" encoding="UTF-8"?><svg id="Layer_2" xmlns="http://www.w3.org/2000/svg" viewBox="0 0 60.17 54.93"><g id="Layer_1-2"><path d="M60.17,24.57c0-4.42-6.21-4.42-8.54-4.42h-1.76v-2.98c0-.52-.42-.94-.94-.94h-29.18L13.86,1.47c-.23-.58-.67-1.03-1.24-1.28-.57-.25-1.21-.25-1.78-.02-.58.23-1.03.67-1.28,1.24-.25.57-.25,1.21-.02,1.78l5.19,13.04h-4.12c-.52,0-.94.42-.94.94v2.98h-1.12c-2.34,0-8.54,0-8.54,4.42,0,3.97,5.8,5.81,9.66,6.11v15.76c0,4.68,3.81,8.5,8.5,8.5h23.22c4.68,0,8.5-3.81,8.5-8.5v-15.73c3.82-.12,10.3-1.95,10.3-6.14h0ZM49.87,24.9c1.45,0,2.82.08,3.66.22-.77.27-2.17.48-3.66.54v-.76h0ZM11.28,2.5c-.09-.23.02-.49.25-.57h0c.06-.02.11-.03.16-.03.08,0,.14.02.18.04.06.03.18.09.24.24l5.6,14.06h-.95L11.28,2.5h0ZM1.89,24.57c0-.69,0-2.53,6.66-2.53h1.12v.97c-2,.02-4.29.21-5.05.94-.26.25-.41.59-.41.93,0,.47.19.91.55,1.26.95.95,3.2,1.27,4.91,1.38v1.26c-3.43-.29-7.77-1.89-7.77-4.21h0ZM9.66,25.63c-1.24-.09-2.36-.28-3.01-.51.71-.12,1.81-.2,3.01-.21v.73h0ZM47.98,46.44c0,3.64-2.97,6.61-6.61,6.61h-23.22c-3.64,0-6.61-2.97-6.61-6.61v-28.32h36.43v28.32h0ZM49.87,28.82v-1.27c1.73-.06,4.47-.34,5.55-1.41.36-.36.55-.79.55-1.26,0-.35-.15-.68-.41-.93-.84-.81-3.57-.97-5.69-.94v-.97h1.76c6.65,0,6.65,1.84,6.65,2.53,0,2.47-4.91,4.13-8.42,4.25h0Z" style="fill:#231f20;"/><path d="M22.69,14.34c.11,0,.22-.02.33-.06.04-.01,3.92-1.55,1.97-6.87-1.27-3.45.64-4.36.87-4.46.48-.19.72-.73.54-1.21-.18-.49-.73-.73-1.22-.55-.04.01-3.92,1.55-1.97,6.87,1.27,3.46-.65,4.37-.86,4.46-.49.18-.73.73-.55,1.22.14.38.5.61.88.61h0Z" style="fill:#231f20;"/><path d="M28.35,14.34c.11,0,.22-.02.33-.06.04-.01,3.92-1.55,1.97-6.87-1.27-3.45.64-4.36.88-4.46.48-.19.72-.73.54-1.21-.19-.49-.73-.73-1.22-.55-.04.01-3.92,1.55-1.97,6.87,1.27,3.46-.65,4.37-.86,4.46-.49.18-.73.73-.55,1.22.14.38.5.61.88.61h0Z" style="fill:#231f20;"/><path d="M34.01,14.34c.11,0,.22-.02.33-.06.04-.01,3.92-1.55,1.97-6.87-1.27-3.45.64-4.36.87-4.46.48-.19.72-.73.54-1.21-.18-.49-.73-.73-1.22-.55-.04.01-3.92,1.55-1.97,6.87,1.27,3.46-.65,4.37-.86,4.46-.49.18-.73.73-.55,1.22.14.38.5.61.88.61h0Z" style="fill:#231f20;"/></g></svg>