<?xml version="1.0" encoding="UTF-8"?><svg id="Layer_2" xmlns="http://www.w3.org/2000/svg" viewBox="0 0 36.6 58.22"><g id="Layer_1-2"><path d="M8.97,14.21c3.78,3.04,6.99,6.51,9.43,10.77.85-1.42,1.69-2.77,2.69-4.02,2.24-2.79,4.67-5.37,7.67-7.37.5-.33,1.03-.62,1.59-.82.43-.15.58-.42.58-.87,0-4.08,1.44-7.7,3.54-11.1.48-.77,1.12-1.01,1.68-.64.57.37.59.89.09,1.71-1.81,2.93-2.97,6.09-3.38,9.51-.08.67-.06,1.3.52,1.85,1.02.98,1.14,2.38,1.41,3.66.48,2.28.39,4.6.33,6.91-.04,1.52-.39,3.02-1.03,4.41-.7,1.54-2.09,2.29-3.53,2.86-3.46,1.37-7.05,1.65-10.59.42-1.17-.41-2.04-.38-3.16.05-2.06.78-4.25.78-6.43.55-1.94-.21-3.75-.76-5.47-1.7-1.73-.96-2.54-2.5-2.87-4.32-.68-3.85-.58-7.67.59-11.43.17-.55.39-1.08.83-1.48.31-.27.32-.61.3-.97-.1-2.22-.65-4.34-1.42-6.41-.49-1.31-1.15-2.52-1.89-3.7-.1-.16-.19-.33-.28-.5C-.13,1-.06.45.55.13c.55-.28,1.06-.08,1.41.44.91,1.36,1.64,2.81,2.25,4.33.91,2.28,1.53,4.64,1.47,7.12,0,.29.04.5.39.62,1.04.35,1.97.91,2.91,1.58M33.22,20.5c-.24-1.55-.28-3.13-.78-4.63-.5-1.5-.73-1.6-2.09-.76-.3.18-.6.36-.89.57-2.6,1.87-4.81,4.16-6.77,6.67-1.31,1.67-2.49,3.43-3.13,5.5-.28.91-.16,1.23.69,1.62.29.14.61.24.92.32,1.69.45,3.42.54,5.15.32,1.8-.23,3.5-.79,5.01-1.82.52-.35.91-.82,1.12-1.45.68-2.01.81-4.09.78-6.34M3.92,17.91c-.29,2.3-.28,4.6-.05,6.91.24,2.39,1.49,3.86,3.75,4.58,1.3.41,2.6.68,3.98.77,1.66.12,3.24-.07,4.78-.64.99-.37,1.16-.79.86-1.85-.26-.92-.68-1.78-1.19-2.59-1.93-3.05-4.22-5.79-6.97-8.14-1.01-.86-2.08-1.66-3.28-2.25-.54-.27-.84-.13-1.09.41-.4.85-.54,1.76-.76,2.8h0ZM10.86,48.03c-2.14-2.08-4.66-3.45-7.33-4.58-.99-.42-1.1-.67-.94-1.74.19-1.31.34-2.63.52-3.95.13-.97.71-1.34,1.61-.97,3.48,1.43,7.12,1.95,10.86,2.21,2.27.15,4.51.1,6.75-.08,3.17-.25,6.3-.78,9.25-2.03,1.27-.54,1.71-.27,1.93,1.1.21,1.36.43,2.72.61,4.09.08.61-.22,1.01-.81,1.25-1.97.8-3.85,1.76-5.58,3.01-3.78,2.72-6.44,6.17-7.18,10.9-.1.62-.48.96-1.12.96-.74,0-1.47,0-2.21,0-.71,0-1.09-.36-1.19-1.07-.45-3.37-2.21-6.07-4.43-8.53-.2-.22-.47-.37-.74-.59M8.42,40.1c-1.18-.14-2.27-.69-3.48-.9-.09.65-.16,1.24-.24,1.82-.07.48.15.78.59.93.93.32,1.78.82,2.62,1.31,4.83,2.85,8.51,6.62,9.89,12.25.07.26.12.57.46.59.4.02.47-.31.54-.6.85-3.61,2.78-6.54,5.5-9.03,2.05-1.88,4.32-3.37,6.87-4.44.65-.28.85-.7.7-1.35-.05-.21-.12-.42-.12-.63,0-.72-.27-.9-.97-.66-2.97,1.03-6.07,1.49-9.18,1.61-4.37.17-8.75.14-13.19-.9h0Z" style="fill:#231f20;"/></g></svg>