<?xml version="1.0" encoding="UTF-8"?><svg id="Layer_2" xmlns="http://www.w3.org/2000/svg" viewBox="0 0 59.85 41.9"><g id="Layer_1-2"><path d="M29.92,39.9c-10.45,0-18.95-8.5-18.95-18.95S19.47,1.99,29.92,1.99s18.95,8.5,18.95,18.95-8.5,18.95-18.95,18.95h0ZM29.92,3.99c-9.35,0-16.96,7.61-16.96,16.96s7.61,16.96,16.96,16.96,16.96-7.61,16.96-16.96S39.27,3.99,29.92,3.99h0Z" style="fill:#231f20;"/><path d="M29.92,33.91c-7.15,0-12.97-5.82-12.97-12.97s5.82-12.97,12.97-12.97,12.97,5.82,12.97,12.97-5.82,12.97-12.97,12.97h0ZM29.92,9.97c-6.05,0-10.97,4.92-10.97,10.97s4.92,10.97,10.97,10.97,10.97-4.92,10.97-10.97-4.92-10.97-10.97-10.97h0Z" style="fill:#231f20;"/><path d="M4.98,6.85c-.55,0-1-.45-1-1V1c0-.55.45-1,1-1s1,.45,1,1v4.85c0,.55-.45,1-1,1h0Z" style="fill:#231f20;"/><path d="M4.99,41.9c-1.65,0-2.99-1.34-2.99-2.99V14.8c-1.16-.41-2-1.52-2-2.82v-6.12c0-.55.45-1,1-1h7.98c.55,0,1,.45,1,1v6.12c0,1.3-.83,2.41-1.99,2.82v24.11c0,1.65-1.34,2.99-2.99,2.99h0ZM2,6.85v5.13c0,.55.45,1,1,1s1,.45,1,1v24.94c0,.55.45,1,1,1s1-.45,1-1V13.97c0-.55.45-1,1-1s1-.45,1-1v-5.13H2Z" style="fill:#231f20;"/><path d="M8.98,6.85c-.55,0-1-.45-1-1V1C7.98.45,8.43,0,8.98,0s1,.45,1,1v4.85c0,.55-.45,1-1,1h0Z" style="fill:#231f20;"/><path d="M56.85,41.89c-1.65,0-2.99-1.34-2.99-2.99v-12.09c0-1.1-.9-1.99-2-1.99-.55,0-1-.45-1-1v-9.01c0-8.76,4.49-13.83,4.68-14.04.75-.75,1.82-.97,2.75-.58.93.39,1.54,1.29,1.54,2.3v36.4c0,1.65-1.34,2.99-2.99,2.99h0ZM52.86,22.95c1.72.44,2.99,2.01,2.99,3.86v12.09c0,.55.45,1,1,1s1-.45,1-1V2.5c0-.3-.21-.42-.31-.46-.09-.04-.33-.11-.54.11,0,0-4.14,4.71-4.14,12.67v8.14h0Z" style="fill:#231f20;"/></g></svg>