<?xml version="1.0" encoding="UTF-8"?><svg id="Layer_2" xmlns="http://www.w3.org/2000/svg" viewBox="0 0 48.9 49.69"><g id="Layer_1-2"><path d="M24.45,49.69C10.97,49.69,0,38.54,0,24.84S10.97,0,24.45,0s24.45,11.14,24.45,24.84-10.97,24.84-24.45,24.84h0ZM24.45,3.07C12.66,3.07,3.07,12.83,3.07,24.84s9.59,21.78,21.39,21.78,21.39-9.77,21.39-21.78S36.24,3.07,24.45,3.07h0Z" style="fill:#231f20;"/><path d="M26.21,37.63c-6.95,0-12.61-5.74-12.61-12.79s5.66-12.79,12.61-12.79c1.72,0,3.39.35,4.96,1.03.78.34,1.13,1.24.79,2.02-.34.77-1.24,1.13-2.02.79-1.18-.52-2.44-.78-3.74-.78-5.26,0-9.54,4.36-9.54,9.72s4.28,9.73,9.54,9.73c1.43,0,2.8-.31,4.08-.93.77-.37,1.68-.05,2.05.71.37.76.05,1.68-.71,2.05-1.7.82-3.52,1.24-5.42,1.24h0Z" style="fill:#231f20;"/><path d="M24.45,24h-12.68c-.85,0-1.53-.69-1.53-1.53s.69-1.53,1.53-1.53h12.68c.85,0,1.53.69,1.53,1.53s-.69,1.53-1.53,1.53h0Z" style="fill:#231f20;"/><path d="M24.45,28.75h-12.68c-.85,0-1.53-.69-1.53-1.53s.69-1.53,1.53-1.53h12.68c.85,0,1.53.69,1.53,1.53s-.69,1.53-1.53,1.53h0Z" style="fill:#231f20;"/></g></svg>