<?xml version="1.0" encoding="UTF-8"?><svg id="Layer_2" xmlns="http://www.w3.org/2000/svg" xmlns:xlink="http://www.w3.org/1999/xlink" viewBox="0 0 51.34 49.49"><defs><clipPath id="clippath"><path d="M50.31,18.69H1.03c-.57,0-1.03-.46-1.03-1.03v-6.16c0-3.96,3.23-7.19,7.19-7.19h1.23c.57,0,1.03.46,1.03,1.03v1.85c0,.79.65,1.44,1.44,1.44s1.44-.64,1.44-1.44v-1.85c0-.57.46-1.03,1.03-1.03h24.64c.57,0,1.03.46,1.03,1.03v1.85c0,.79.64,1.44,1.44,1.44s1.44-.64,1.44-1.44v-1.85c0-.57.46-1.03,1.03-1.03h1.23c3.96,0,7.19,3.23,7.19,7.19v6.16c0,.57-.46,1.03-1.03,1.03h0ZM2.05,16.63h47.23v-5.13c0-2.83-2.3-5.13-5.13-5.13h-.21v.82c0,1.93-1.57,3.49-3.49,3.49s-3.49-1.57-3.49-3.49v-.82H14.37v.82c0,1.93-1.57,3.49-3.49,3.49s-3.49-1.57-3.49-3.49v-.82h-.21c-2.83,0-5.13,2.3-5.13,5.13v5.13h0Z" style="fill:#231f20;"/></clipPath></defs><g id="Layer_1-2"><path d="M44.15,49.49H7.19c-3.96,0-7.19-3.22-7.19-7.19v-24.64c0-.57.46-1.03,1.03-1.03h49.28c.57,0,1.03.46,1.03,1.03v24.64c0,3.96-3.22,7.19-7.19,7.19h0ZM2.05,18.69v23.61c0,2.83,2.3,5.13,5.13,5.13h36.96c2.83,0,5.13-2.3,5.13-5.13v-23.61H2.05Z" style="fill:#231f20;"/><path d="M50.31,18.69H1.03c-.57,0-1.03-.46-1.03-1.03v-6.16c0-3.96,3.23-7.19,7.19-7.19h1.23c.57,0,1.03.46,1.03,1.03v1.85c0,.79.65,1.44,1.44,1.44s1.44-.64,1.44-1.44v-1.85c0-.57.46-1.03,1.03-1.03h24.64c.57,0,1.03.46,1.03,1.03v1.85c0,.79.64,1.44,1.44,1.44s1.44-.64,1.44-1.44v-1.85c0-.57.46-1.03,1.03-1.03h1.23c3.96,0,7.19,3.23,7.19,7.19v6.16c0,.57-.46,1.03-1.03,1.03h0ZM2.05,16.63h47.23v-5.13c0-2.83-2.3-5.13-5.13-5.13h-.21v.82c0,1.93-1.57,3.49-3.49,3.49s-3.49-1.57-3.49-3.49v-.82H14.37v.82c0,1.93-1.57,3.49-3.49,3.49s-3.49-1.57-3.49-3.49v-.82h-.21c-2.83,0-5.13,2.3-5.13,5.13v5.13h0Z" style="fill:#231f20;"/><path d="M50.31,18.69H1.03c-.57,0-1.03-.46-1.03-1.03v-6.16c0-3.96,3.23-7.19,7.19-7.19h1.23c.57,0,1.03.46,1.03,1.03v1.85c0,.79.65,1.44,1.44,1.44s1.44-.64,1.44-1.44v-1.85c0-.57.46-1.03,1.03-1.03h24.64c.57,0,1.03.46,1.03,1.03v1.85c0,.79.64,1.44,1.44,1.44s1.44-.64,1.44-1.44v-1.85c0-.57.46-1.03,1.03-1.03h1.23c3.96,0,7.19,3.23,7.19,7.19v6.16c0,.57-.46,1.03-1.03,1.03h0ZM2.05,16.63h47.23v-5.13c0-2.83-2.3-5.13-5.13-5.13h-.21v.82c0,1.93-1.57,3.49-3.49,3.49s-3.49-1.57-3.49-3.49v-.82H14.37v.82c0,1.93-1.57,3.49-3.49,3.49s-3.49-1.57-3.49-3.49v-.82h-.21c-2.83,0-5.13,2.3-5.13,5.13v5.13h0Z" style="fill:#231f20;"/><path d="M50.31,18.69H1.03c-.57,0-1.03-.46-1.03-1.03v-6.16c0-3.96,3.23-7.19,7.19-7.19h1.23c.57,0,1.03.46,1.03,1.03v1.85c0,.79.65,1.44,1.44,1.44s1.44-.64,1.44-1.44v-1.85c0-.57.46-1.03,1.03-1.03h24.64c.57,0,1.03.46,1.03,1.03v1.85c0,.79.64,1.44,1.44,1.44s1.44-.64,1.44-1.44v-1.85c0-.57.46-1.03,1.03-1.03h1.23c3.96,0,7.19,3.23,7.19,7.19v6.16c0,.57-.46,1.03-1.03,1.03h0ZM2.05,16.63h47.23v-5.13c0-2.83-2.3-5.13-5.13-5.13h-.21v.82c0,1.93-1.57,3.49-3.49,3.49s-3.49-1.57-3.49-3.49v-.82H14.37v.82c0,1.93-1.57,3.49-3.49,3.49s-3.49-1.57-3.49-3.49v-.82h-.21c-2.83,0-5.13,2.3-5.13,5.13v5.13h0Z" style="fill:#231f20;"/><g style="clip-path:url(#clippath);"><path d="M50.31,18.69H1.03c-.57,0-1.03-.46-1.03-1.03v-6.16c0-3.96,3.23-7.19,7.19-7.19h36.96c3.96,0,7.19,3.23,7.19,7.19v6.16c0,.57-.46,1.03-1.03,1.03h0ZM2.05,16.63h47.23v-5.13c0-2.83-2.3-5.13-5.13-5.13H7.19c-2.83,0-5.13,2.3-5.13,5.13v5.13h0Z" style="fill:#231f20;"/></g><path d="M10.88,10.68c-1.92,0-3.49-1.57-3.49-3.49v-3.7c0-1.93,1.57-3.49,3.49-3.49s3.49,1.57,3.49,3.49v3.7c0,1.93-1.57,3.49-3.49,3.49h0ZM10.88,2.05c-.79,0-1.44.64-1.44,1.44v3.7c0,.79.65,1.44,1.44,1.44s1.44-.64,1.44-1.44v-3.7c0-.79-.64-1.44-1.44-1.44h0Z" style="fill:#231f20;"/><path d="M40.45,10.68c-1.93,0-3.49-1.57-3.49-3.49v-3.7c0-1.93,1.57-3.49,3.49-3.49s3.49,1.57,3.49,3.49v3.7c0,1.93-1.57,3.49-3.49,3.49h0ZM40.45,2.05c-.79,0-1.44.64-1.44,1.44v3.7c0,.79.64,1.44,1.44,1.44s1.44-.64,1.44-1.44v-3.7c0-.79-.65-1.44-1.44-1.44h0Z" style="fill:#231f20;"/><path d="M15.06,31.57h-2.84c-1.87,0-3.38-1.52-3.38-3.38v-2.28c0-1.87,1.52-3.38,3.38-3.38h2.84c1.87,0,3.38,1.52,3.38,3.38v2.28c0,1.87-1.52,3.38-3.38,3.38h0ZM12.22,24.57c-.73,0-1.33.6-1.33,1.33v2.28c0,.73.6,1.33,1.33,1.33h2.84c.73,0,1.33-.6,1.33-1.33v-2.28c0-.73-.6-1.33-1.33-1.33h-2.84Z" style="fill:#231f20;"/><path d="M27.09,31.57h-2.84c-1.87,0-3.38-1.52-3.38-3.38v-2.28c0-1.87,1.52-3.38,3.38-3.38h2.84c1.87,0,3.39,1.52,3.39,3.38v2.28c0,1.87-1.52,3.38-3.39,3.38h0ZM24.25,24.57c-.73,0-1.33.6-1.33,1.33v2.28c0,.73.6,1.33,1.33,1.33h2.84c.73,0,1.33-.6,1.33-1.33v-2.28c0-.73-.6-1.33-1.33-1.33h-2.84Z" style="fill:#231f20;"/><path d="M39.12,31.57h-2.84c-1.87,0-3.38-1.52-3.38-3.38v-2.28c0-1.87,1.52-3.38,3.38-3.38h2.84c1.87,0,3.38,1.52,3.38,3.38v2.28c0,1.87-1.52,3.38-3.38,3.38h0ZM36.28,24.57c-.73,0-1.33.6-1.33,1.33v2.28c0,.73.6,1.33,1.33,1.33h2.84c.73,0,1.33-.6,1.33-1.33v-2.28c0-.73-.6-1.33-1.33-1.33h-2.84Z" style="fill:#231f20;"/><path d="M15.06,43.6h-2.84c-1.87,0-3.38-1.52-3.38-3.38v-2.28c0-1.87,1.52-3.38,3.38-3.38h2.84c1.87,0,3.38,1.52,3.38,3.38v2.28c0,1.87-1.52,3.38-3.38,3.38h0ZM12.22,36.6c-.73,0-1.33.6-1.33,1.33v2.28c0,.73.6,1.33,1.33,1.33h2.84c.73,0,1.33-.6,1.33-1.33v-2.28c0-.73-.6-1.33-1.33-1.33h-2.84Z" style="fill:#231f20;"/><path d="M27.09,43.6h-2.84c-1.87,0-3.38-1.52-3.38-3.38v-2.28c0-1.87,1.52-3.38,3.38-3.38h2.84c1.87,0,3.39,1.52,3.39,3.38v2.28c0,1.87-1.52,3.38-3.39,3.38h0ZM24.25,36.6c-.73,0-1.33.6-1.33,1.33v2.28c0,.73.6,1.33,1.33,1.33h2.84c.73,0,1.33-.6,1.33-1.33v-2.28c0-.73-.6-1.33-1.33-1.33h-2.84Z" style="fill:#231f20;"/><path d="M39.12,43.6h-2.84c-1.87,0-3.38-1.52-3.38-3.38v-2.28c0-1.87,1.52-3.38,3.38-3.38h2.84c1.87,0,3.38,1.52,3.38,3.38v2.28c0,1.87-1.52,3.38-3.38,3.38h0ZM36.28,36.6c-.73,0-1.33.6-1.33,1.33v2.28c0,.73.6,1.33,1.33,1.33h2.84c.73,0,1.33-.6,1.33-1.33v-2.28c0-.73-.6-1.33-1.33-1.33h-2.84Z" style="fill:#231f20;"/></g></svg>