<?xml version="1.0" encoding="UTF-8"?><svg id="Layer_2" xmlns="http://www.w3.org/2000/svg" viewBox="0 0 53.57 58.2"><g id="Layer_1-2"><path d="M35.3,29.35c-1.82,0-3.68-.73-5.53-2.19l1.24-1.57c1.73,1.37,3.41,1.95,4.98,1.72,2.25-.33,3.63-2.23,3.64-2.25l.29-.41h.51c1.41-.04,3.23-.31,3.86-1.41.65-1.14-.08-2.95-.41-3.55l-.14-.24v-.28c.1-2.73-.63-4.81-2.17-6.19-3.03-2.72-8.2-2.02-8.25-2.01l-.28-1.98c.25-.03,6.16-.83,9.87,2.5,1.94,1.75,2.9,4.26,2.85,7.48.39.8,1.41,3.26.28,5.26-.83,1.45-2.54,2.26-5.08,2.39-.65.76-2.25,2.31-4.64,2.67-.33.05-.66.07-1,.07Z" style="fill:#231f20;"/><path d="M26.94,28.15c-.12,0-.24,0-.35-.01-1.48-.1-2.73-.79-3.65-1.52-.08-.04-.17-.09-.24-.16-.12-.11-.23-.22-.34-.33-.41-.39-.73-.75-.93-1-4.7-.72-7.3-2.22-7.96-4.58-1.04-3.76,3.66-7.7,4.2-8.14l.27-.16c-.04-.63.06-1.52.71-2.41,1.16-1.61,3.65-2.64,7.41-3.07,1.77-.21,4.96-.25,6.86,1.64,1.12,1.12,1.57,2.68,1.35,4.65-.06.55-.55.94-1.1.88-.55-.06-.94-.56-.88-1.11.15-1.35-.1-2.33-.78-3.01-.95-.95-2.84-1.34-5.17-1.07-4.21.48-5.6,1.62-6.06,2.26-.22.3-.31.59-.33.85,2.91-.2,6.59,1.13,6.76,1.19.52.19.79.76.6,1.28s-.76.78-1.28.6c-1.15-.42-4.58-1.42-6.57-1l-.68.17c-1.27,1.08-3.93,3.88-3.37,5.91.38,1.36,2.26,2.39,5.45,2.99-.36-1.87.02-3.55.05-3.66.13-.54.67-.87,1.2-.74.54.13.87.66.74,1.2h0s-.69,3.09.95,4.93c.7.64,1.73,1.35,2.94,1.42,1.34.1,2.7-.64,4.04-2.15l.15-.13c.74-.56,3.28-2.38,4.81-2.42.58-.04,1.01.42,1.03.97.02.55-.42,1.01-.97,1.03-.6.02-2.32,1.02-3.6,1.97-1.65,1.83-3.42,2.75-5.25,2.75ZM44.98,21.02c-.3,0-.6-.13-.79-.39-2-2.61-4.04-1.94-4.12-1.92-.52.18-1.09-.09-1.27-.6-.19-.51.07-1.08.58-1.27.14-.05,3.46-1.25,6.4,2.58.34.44.25,1.07-.18,1.4-.18.14-.4.21-.61.21ZM29.13,19.8c-1.26,0-2.16-.21-2.24-.23-.54-.13-.87-.67-.74-1.21.13-.54.67-.86,1.21-.74.04.01,3.5.8,5.91-1.1.44-.34,1.06-.27,1.4.17.34.43.27,1.06-.17,1.4-1.76,1.38-3.84,1.7-5.38,1.7Z" style="fill:#231f20;"/><path d="M45.42,58.2c-.48,0-.9-.34-.98-.83-.51-2.99-1.16-7.47-.9-11.79,0-.05.01-.1.02-.16.07-.3,1.66-7.38,4.91-12.05.35-.61,9.42-16.54-4.73-26.97-.53-.39-13.02-9.38-28.36-.67-.03.02-.06.03-.1.05-.33.15-8.25,3.78-6.5,15.27.05.44.39,3.94-.88,5.82-.02.03-.04.06-.07.09l-5.82,6.84c-.03.17-.05.41.03.54.08.13.36.23.73.26.04,0,.08,0,.12.02l3.63.75c.3.06.55.25.69.52.06.12,1.31,2.58,1.69,4.85l4.12.07c.55,0,.99.46.98,1.02,0,.55-.48,1.02-1.02.98l-3.97-.07c-.03,2.03-.4,4.01-.42,4.11-.01.06-.03.11-.05.17,0,.02-.93,2.63.31,3.69.04.02.08.04.12.06,2.07,1.07,7.48.23,11.64-.66.22-.04.44-.02.64.07,1.26.6,1.91,4.04,2.24,6.82.06.55-.33,1.04-.88,1.11-.55.06-1.04-.33-1.11-.88-.37-3.13-.84-4.49-1.1-5.03-9.31,1.93-11.59.74-12.36.35-.13-.03-.2-.08-.31-.16-2.41-1.79-1.33-5.34-1.11-5.98.08-.44.48-2.84.35-4.76-.1-1.57-.96-3.57-1.36-4.43l-3.09-.64c-1.28-.12-1.9-.71-2.2-1.19-.67-1.06-.23-2.3-.17-2.44.04-.11.1-.21.17-.29l5.92-6.96c.62-.98.65-3.21.52-4.4C4.9,8.85,13.58,4.37,14.43,3.97c16.48-9.33,30.37.72,30.51.82,15.6,11.5,5.33,29.48,5.22,29.66-2.89,4.16-4.45,10.57-4.63,11.33-.24,4.09.38,8.38.88,11.25.09.54-.27,1.06-.82,1.15-.06,0-.11.01-.17.01Z" style="fill:#231f20;"/></g></svg>