<?xml version="1.0" encoding="UTF-8"?><svg id="Layer_2" xmlns="http://www.w3.org/2000/svg" viewBox="0 0 50.71 51.96"><g id="Layer_1-2"><path d="M18.24,11.38c-3.14,0-5.69-2.55-5.69-5.69S15.1,0,18.24,0s5.69,2.55,5.69,5.69-2.55,5.69-5.69,5.69h0ZM18.24,2.2c-1.93,0-3.49,1.57-3.49,3.49s1.57,3.49,3.49,3.49,3.49-1.57,3.49-3.49-1.57-3.49-3.49-3.49h0Z" style="fill:#231f20;"/><path d="M4.81,40.9s-.07.06-.12.08v-.02s.12-.07.12-.07h0Z" style="fill:#231f20;"/><path d="M4.7,42.08c-.1,0-.2-.01-.3-.04-.29-.08-.53-.28-.67-.54-.14-.26-.17-.57-.08-.85.08-.28.27-.52.53-.66l.13-.07c.5-.27,1.12-.1,1.43.37.31.47.21,1.11-.24,1.46-.09.07-.16.12-.24.17-.17.1-.36.15-.56.15h0Z" style="fill:#231f20;"/><path d="M7.22,45.15l-.08.05h0s.06-.03.09-.05h0Z" style="fill:#231f20;"/><path d="M7.13,46.3c-.28,0-.57-.11-.78-.32-.25-.25-.37-.61-.31-.96.06-.35.28-.65.6-.81.53-.25,1.21-.07,1.49.45.28.52.15,1.14-.35,1.44l-.08.05c-.17.11-.37.16-.57.16h0Z" style="fill:#231f20;"/><path d="M5.15,23.56s-.03.07-.03.11h-.02s.05-.11.05-.11h0Z" style="fill:#231f20;"/><path d="M5.11,24.77c-.17,0-.34-.04-.49-.12-.26-.13-.47-.37-.56-.64-.09-.28-.08-.59.05-.85l.05-.09s0-.01,0-.02c.28-.54.94-.75,1.48-.47.5.26.72.84.53,1.35-.08.31-.29.57-.57.71-.15.08-.32.12-.49.12h0Z" style="fill:#231f20;"/><path d="M9.11,25.27l-.07.17h-.02c.03-.06.07-.12.09-.17h0Z" style="fill:#231f20;"/><path d="M9.03,26.53c-.18,0-.36-.04-.52-.13-.27-.15-.48-.4-.56-.7-.08-.3-.03-.62.14-.88.26-.54.92-.79,1.46-.53.54.25.79.88.55,1.43l-.07.17c-.12.28-.36.49-.65.59-.12.04-.24.06-.36.06h0Z" style="fill:#231f20;"/><path d="M28.89,18.71c-.06.02-.12.03-.18.05l.17-.07v.02h0Z" style="fill:#231f20;"/><path d="M28.79,19.83c-.47,0-.92-.28-1.07-.73-.19-.55.05-1.14.59-1.36l.17-.07c.52-.2,1.11,0,1.38.5.15.29.17.65.05.95-.13.31-.38.54-.7.64,0,0-.1.03-.1.03-.1.03-.21.04-.31.04h0Z" style="fill:#231f20;"/><path d="M30.43,22.73l-.14.05s.08-.04.13-.07v.02h0Z" style="fill:#231f20;"/><path d="M30.28,23.87c-.42,0-.81-.24-1-.64-.24-.51-.05-1.12.44-1.41.03-.02.14-.08.17-.09.54-.26,1.23-.06,1.5.48.14.28.16.62.04.91-.12.29-.35.53-.65.63l-.14.05c-.12.04-.24.06-.36.06h0Z" style="fill:#231f20;"/><path d="M21.15,46.77h-.02v-.23c0,.08,0,.16.02.23h0Z" style="fill:#231f20;"/><path d="M21.15,47.87h-.02c-.61,0-1.1-.49-1.1-1.1v-.23c0-.61.49-1.1,1.1-1.1s1.1.49,1.1,1.1v.12c.04.31-.06.62-.27.85-.21.23-.5.36-.81.36h0ZM21.15,46.77h.01-.01Z" style="fill:#231f20;"/><path d="M23.58,50.03c-.62,0-1.24-.16-1.8-.5-.95-.55-1.57-1.51-1.71-2.62-.02-.15-.02-.26-.02-.37s0-.23.01-.35l.11-9.11c0-.32-.07-.64-.22-.92l-.03.49c-.09,1.67-1.07,3.17-2.56,3.94l-.18.09-8.98,5.18s-.07.05-.11.07l-.28.16s-.06.03-.09.05c-.03.01-.1.05-.12.06-2.49,1.03-4.96-.83-4.96-3.26,0-1.07.47-2.06,1.29-2.73.06-.06.13-.11.21-.16.17-.12.28-.19.38-.24l8.48-4.9-.65-3.3c-.07-.37-.11-.74-.11-1.12l-.11-8.43-1.92,3.45c-.04.11-.09.21-.15.31-.01.03-.07.13-.13.22-.17.29-.43.59-.75.84-1.26.98-3.07.91-4.21-.17-.91-.86-1.26-2.12-.92-3.3.02-.09.06-.21.12-.34h0s.03-.1.07-.18l2.22-4.9c.41-.9,1.11-1.63,2-2.07l4.34-2.15c1.62-.8,3.34-1.09,4.96-.84,2.07.31,3.8,1.37,4.99,3.08,1.09,1.57,1.68,2.53,2.02,3.11l3.44-1.32c.09-.04.18-.07.29-.09.02,0,.11-.04.13-.04.4-.1.83-.12,1.26-.05,1.78.28,3,1.95,2.72,3.73,0,0,0,.01,0,.02-.17.99-.77,1.84-1.66,2.33-.02.01-.09.05-.11.06-.13.07-.2.09-.26.12l-5.66,2.15c-.39.14-.8.16-1.17.07l.57,3.89,2.45,4.79c.33.51.5,1.1.5,1.71l-.13,10.4c0,.14-.03.28-.08.41-.08.36-.22.71-.41,1.04-.67,1.11-1.85,1.73-3.06,1.73h0ZM18.98,32.52c.27,0,.54.1.75.29l1.32,1.22c.85.79,1.34,1.91,1.32,3.07l-.12,9.21c-.01.14,0,.19,0,.23v.12c.06.4.3.77.66.98.31.19.68.24,1.02.15.35-.09.64-.31.83-.62.09-.15.15-.32.17-.48,0-.03.01-.07.02-.1l.13-10.16c0-.18-.05-.35-.15-.5-.03-.04-.05-.08-.07-.12l-2.57-5.01c-.05-.11-.09-.22-.11-.34l-1.1-7.49c-.07-.5.21-.99.67-1.18.47-.19,1.01-.04,1.31.38l1.24,1.72,5.46-2.08.54.97-.39-1.04c.28-.16.48-.44.54-.77.08-.58-.31-1.12-.88-1.21-.15-.02-.29-.02-.41.01-.02,0-.07.02-.13.04l-4.3,1.65c-.38.15-.8.07-1.11-.19-.24-.2-.38-.44-.64-.88-.3-.51-.87-1.47-2.04-3.15-.85-1.21-2.03-1.94-3.51-2.16-1.18-.18-2.45.04-3.66.64l-4.34,2.15c-.43.21-.77.57-.97,1l-2.29,5.07s0,.04-.02.05c-.12.39,0,.81.31,1.11.35.33.95.34,1.35.03.1-.08.18-.17.24-.26,0-.02.07-.13.08-.14.02-.06.07-.17.1-.23l2.51-4.5c.13-.23.34-.41.6-.5l1.48-.52c.33-.12.7-.06.99.14.29.2.46.53.47.89l.14,10.47c0,.25.02.48.07.71l.8,4.07c.09.46-.12.93-.53,1.16l-9.19,5.3c-.07.04-.12.07-.17.1-.02.02-.05.04-.07.06-.33.25-.52.64-.52,1.06,0,.75.61,1.35,1.35,1.35.18,0,.35-.03.51-.1,0,0,0,0,.01,0l.25-.14s.05-.04.08-.05l9.31-5.36c.79-.4,1.32-1.21,1.36-2.1l.16-2.96c.02-.42.29-.8.68-.96.13-.05.27-.08.41-.08h0ZM6.18,23.94v.02s0,0,0-.02h0ZM31.53,21.15h.01-.01Z" style="fill:#231f20;"/><path d="M49.61,51.96H1.1c-.61,0-1.1-.49-1.1-1.1s.49-1.1,1.1-1.1h47.15c-.97-4.35-4.02-17.99-4.82-21.13-.91-3.58-1.77-4.17-3.66-4.77-1.26-.4-3.89.36-5.25.93-.55.24-1.2-.03-1.44-.58-.24-.56.02-1.2.58-1.44.44-.19,4.32-1.78,6.77-1.01,2.92.92,4.12,2.4,5.12,6.32.96,3.76,4.97,21.77,5.14,22.54.07.33,0,.67-.22.93-.21.26-.52.41-.86.41h0Z" style="fill:#231f20;"/><path d="M37.37,51.96s-.06,0-.09,0c-.61-.05-1.06-.57-1.01-1.18l1.64-21.28c.15-1.78,1-3.37,2.34-4.36.9-.67,1.91-1.02,3.01-1.06.59-.04,1.12.45,1.14,1.06.02.61-.45,1.11-1.06,1.14-.64.02-1.24.23-1.77.63-.83.61-1.36,1.62-1.46,2.77l-1.64,21.27c-.05.58-.53,1.01-1.09,1.01h0Z" style="fill:#231f20;"/></g></svg>