<?xml version="1.0" encoding="UTF-8"?><svg id="Layer_2" xmlns="http://www.w3.org/2000/svg" viewBox="0 0 55.5 28.66"><g id="Layer_1-2"><path d="M51.3,4.2c-2.71-2.71-6.3-4.2-10.13-4.2-2.54,0-5.03.67-7.21,1.95l-.29-1.16c-.06-.25-.27-.43-.53-.46-.26-.02-.5.12-.6.36l-2.31,5.25c-.1.23-.06.48.12.66s.43.23.66.14l5.33-2.13c.24-.1.39-.33.38-.59s-.18-.48-.44-.55l-.87-.25c1.77-.92,3.76-1.41,5.77-1.41,3.34,0,6.48,1.3,8.85,3.66,2.36,2.36,3.66,5.5,3.66,8.85,0,6.9-5.61,12.51-12.51,12.51s-12.51-5.61-12.51-12.51C28.66,6.43,22.23,0,14.33,0S0,6.43,0,14.33s6.43,14.33,14.33,14.33c2.54,0,5.03-.67,7.21-1.95l.29,1.16c.06.25.27.43.53.45.25.01.5-.12.6-.36l2.31-5.25c.1-.23.06-.48-.12-.66s-.42-.23-.65-.14l-5.33,2.13c-.24.1-.39.33-.38.59s.18.48.44.55l.87.25c-1.77.92-3.76,1.41-5.78,1.41-6.9,0-12.51-5.61-12.51-12.51S7.43,1.82,14.33,1.82s12.51,5.61,12.51,12.51c0,7.9,6.43,14.33,14.33,14.33s14.33-6.43,14.33-14.33c0-3.83-1.49-7.43-4.2-10.13Z" style="fill:#231f20;"/><path d="M19.81,7.3c-1.51,0-2.75,1.23-2.75,2.75s1.23,2.75,2.75,2.75,2.75-1.23,2.75-2.75-1.23-2.75-2.75-2.75ZM20.74,10.05c0,.51-.42.93-.93.93s-.93-.42-.93-.93.42-.93.93-.93.93.42.93.93Z" style="fill:#231f20;"/><path d="M8.85,12.8c1.51,0,2.75-1.23,2.75-2.75s-1.23-2.75-2.75-2.75-2.75,1.23-2.75,2.75,1.23,2.75,2.75,2.75ZM7.92,10.05c0-.51.42-.93.93-.93s.93.42.93.93-.42.93-.93.93-.93-.42-.93-.93Z" style="fill:#231f20;"/><path d="M14.33,22.56c4.54,0,8.23-3.01,8.23-6.71,0-.5-.41-.91-.91-.91s-.91.41-.91.91c0,2.7-2.88,4.89-6.41,4.89s-6.41-2.19-6.41-4.89c0-.5-.41-.91-.91-.91s-.91.41-.91.91c0,3.7,3.69,6.71,8.23,6.71Z" style="fill:#231f20;"/><path d="M49.4,10.05c0-1.51-1.23-2.75-2.75-2.75s-2.75,1.23-2.75,2.75,1.23,2.75,2.75,2.75,2.75-1.23,2.75-2.75ZM45.72,10.05c0-.51.42-.93.93-.93s.93.42.93.93-.42.93-.93.93-.93-.42-.93-.93Z" style="fill:#231f20;"/><path d="M38.43,10.05c0-1.51-1.23-2.75-2.75-2.75s-2.75,1.23-2.75,2.75,1.23,2.75,2.75,2.75,2.75-1.23,2.75-2.75ZM34.76,10.05c0-.51.42-.93.93-.93s.93.42.93.93-.42.93-.93.93-.93-.42-.93-.93Z" style="fill:#231f20;"/><path d="M33.85,22.56c.5,0,.91-.41.91-.91,0-2.7,2.88-4.89,6.41-4.89s6.41,2.19,6.41,4.89c0,.5.41.91.91.91s.91-.41.91-.91c0-3.7-3.69-6.71-8.23-6.71s-8.23,3.01-8.23,6.71c0,.5.41.91.91.91Z" style="fill:#231f20;"/></g></svg>