<?xml version="1.0" encoding="UTF-8"?><svg id="Layer_2" xmlns="http://www.w3.org/2000/svg" viewBox="0 0 44.97 44.8"><g id="Layer_1-2"><path d="M21.26,16.17c-2.19,0-3.98-1.78-3.98-3.98s1.79-3.98,3.98-3.98,3.98,1.79,3.98,3.98-1.78,3.98-3.98,3.98h0ZM21.26,9.91c-1.26,0-2.29,1.03-2.29,2.29s1.03,2.29,2.29,2.29,2.29-1.03,2.29-2.29-1.03-2.29-2.29-2.29h0Z" style="fill:#231f20;"/><path d="M24.07,44.8c-.65,0-1.29-.27-1.75-.73-.47-.47-.73-1.09-.73-1.74v-7.97h-.65v7.73c0,1.36-1.11,2.47-2.48,2.47-.65,0-1.27-.26-1.74-.73-.47-.47-.73-1.09-.73-1.74v-11.54c0-.14.01-.29.04-.42l-.04-10.19c0-1.8,1.69-3.26,3.77-3.26h3c2.08,0,3.77,1.46,3.77,3.26l-.04,10.43c.03.14.04.28.04.43v11.54c0,1.36-1.11,2.47-2.47,2.47h0ZM20.1,32.67h2.34c.47,0,.85.38.85.85v8.81c0,.2.08.4.23.55.15.15.35.23.56.23.43,0,.78-.35.78-.78v-11.54c0-.06,0-.11-.02-.15-.01-.06-.02-.13-.02-.2l.04-10.51c0-.85-.95-1.57-2.08-1.57h-3c-1.15,0-2.08.7-2.08,1.57l.04,10.28c0,.07,0,.13-.02.2,0,.04-.02.09-.02.15v11.54c0,.2.08.4.23.55.15.15.35.23.55.23.43,0,.79-.35.79-.78v-8.57c0-.47.38-.85.85-.85h0Z" style="fill:#231f20;"/><path d="M36.14,9.43c-2.6,0-4.72-2.12-4.72-4.72s2.12-4.72,4.72-4.72,4.72,2.12,4.72,4.72-2.12,4.72-4.72,4.72h0ZM36.14,1.69c-1.67,0-3.03,1.36-3.03,3.03s1.36,3.03,3.03,3.03,3.03-1.36,3.03-3.03-1.36-3.03-3.03-3.03h0Z" style="fill:#231f20;"/><path d="M40.35,44.8h-.77c-1.37,0-2.48-1.11-2.48-2.47v-5.31h-1.56v5.01c0,1.36-1.11,2.47-2.48,2.47h-.77c-1.36,0-2.47-1.11-2.47-2.47v-6.14c-.08-.05-.16-.1-.25-.15-1.01-.61-2.26-1.38-2.26-2.53,0-.05,0-.09.01-.14l3.14-18.87c.06-2.15,2.72-3.74,5.1-3.74h1.15c2.38,0,5.04,1.6,5.1,3.74l3.14,18.87s.01.09.01.14c0,.97-.95,1.57-1.78,2.11-.13.08-.26.17-.37.24v6.78c0,1.36-1.11,2.47-2.47,2.47h0ZM34.7,35.33h3.25c.47,0,.85.38.85.85v6.15c0,.43.35.78.79.78h.77c.43,0,.78-.35.78-.78v-7.2c0-.23.1-.46.27-.61.23-.22.55-.42.89-.64.29-.19.82-.52.98-.73l-3.12-18.75s-.01-.09-.01-.14c0-1.04-1.75-2.13-3.41-2.13h-1.15c-1.66,0-3.41,1.1-3.41,2.13,0,.05,0,.09-.01.14l-3.13,18.81c.13.27,1.04.83,1.44,1.07.27.16.52.32.71.46.22.16.35.41.35.69v6.59c0,.42.36.78.78.78h.77c.44,0,.79-.35.79-.78v-5.85c0-.47.38-.85.85-.85h0Z" style="fill:#231f20;"/><path d="M6.32,9.43c-2.6,0-4.72-2.12-4.72-4.72S3.72,0,6.32,0s4.72,2.12,4.72,4.72-2.12,4.72-4.72,4.72h0ZM6.32,1.69c-1.67,0-3.03,1.36-3.03,3.03s1.36,3.03,3.03,3.03,3.03-1.36,3.03-3.03-1.36-3.03-3.03-3.03h0Z" style="fill:#231f20;"/><path d="M10.16,44.66h-.77c-1.37,0-2.48-1.11-2.48-2.48v-10.27h-1.2v10.27c0,1.37-1.11,2.48-2.48,2.48h-.76c-1.37,0-2.48-1.11-2.48-2.48v-15.02c0-.16.01-.32.05-.47l-.05-12.41c0-2.11,2-3.82,4.46-3.82h3.71c2.46,0,4.46,1.71,4.46,3.82l-.04,12.41c.03.15.04.31.04.48v15.02c0,1.37-1.11,2.48-2.47,2.48h0ZM4.87,30.21h2.89c.47,0,.85.38.85.85v11.12c0,.43.36.79.79.79h.77c.43,0,.78-.35.78-.79v-15.02c0-.07,0-.13-.02-.17-.02-.07-.03-.14-.03-.21l.04-12.5c0-1.17-1.24-2.13-2.77-2.13h-3.71c-1.53,0-2.77.96-2.77,2.13l.05,12.51c0,.07,0,.15-.03.22-.01.04-.02.1-.02.16v15.02c0,.43.36.79.79.79h.76c.43,0,.79-.36.79-.79v-11.12c0-.47.38-.85.84-.85h0Z" style="fill:#231f20;"/></g></svg>