<?xml version="1.0" encoding="UTF-8"?><svg id="Layer_2" xmlns="http://www.w3.org/2000/svg" viewBox="0 0 57.03 57.03"><g id="Layer_1-2"><path d="M37.64,57.03c-.63,0-1.14-.51-1.14-1.14,0-4.97,2.03-5.98,2.43-6.14.37-.14.79-.07,1.1.17,1.17.91,2.29,1.27,3.32,1.05,1.98-.41,3.24-2.7,3.26-2.72.23-.42.71-.66,1.18-.59,1.61.25,3-.12,4.14-1.1,2.07-1.77,2.82-5,2.82-6.73,0-2.94-2.2-5.87-2.22-5.9-.3-.4-.31-.95-.02-1.35,2.22-3.12.22-6.46.13-6.6-.24-.4-.22-.91.06-1.28.57-.77,2.05-3.17,2.05-5.06,0-2.35-1.35-4.73-1.37-4.75-.18-.31-.2-.68-.07-1,.11-.26.3-.47.55-.59.13-.15.89-1.15.89-5.06,0-2.86-4.9-2.92-4.95-2.92-.33,0-.65-.15-.86-.39-3.06-3.53-6.48-.89-6.63-.78-.37.29-.88.33-1.29.08-4.56-2.71-8.11.62-8.26.77-.45.43-1.16.42-1.6-.01-2.3-2.3-7.15.18-7.19.2-.49.26-1.1.13-1.44-.31-2.45-3.18-6.45-.84-6.62-.74-.43.26-.97.21-1.35-.12-.02-.01-2.01-1.74-4.48-1.74-1.87,0-3.19.53-4.04,1.61-1.93,2.48-.79,7.06-.77,7.1.11.44-.05.91-.41,1.19-3.49,2.67-.81,7.71-.79,7.76.19.35.18.78-.02,1.13-.21.35-.58.56-.98.56-.24.04-.8.6-.8,2.41,0,3.04,1.89,5.22,1.91,5.24.35.39.38.97.09,1.4-.02.03-2,2.97-2,5.95,0,3.58,3.39,6.97,6.97,6.97s5.96-2.08,5.96-4.94-3.5-5.1-3.54-5.13c-.49-.32-.66-.95-.4-1.47,2.38-4.68-.67-7.67-.7-7.7-.24-.23-.37-.55-.35-.87.01-.33.17-.63.42-.84,2.28-1.85-.23-6.08-.25-6.12-.18-.29-.22-.64-.11-.96.11-.32.35-.58.67-.7,1.49-.58,2.12-2.9,2.24-3.74.06-.4.32-.74.7-.9.37-.15.8-.1,1.13.15,2.33,1.78,6.47.27,6.51.26.41-.15.86-.06,1.18.24,2.93,2.76,5.82.75,6.14.51.47-.35,1.13-.29,1.52.14,2.49,2.69,6.5.69,6.67.61.4-.2.87-.16,1.22.12,1.73,1.35,5.7-.28,6.95-.95.44-.24.99-.16,1.35.2.36.36.43.91.19,1.35-2.6,4.77.57,7.32.71,7.42.3.23.47.6.44.98-.03.38-.24.72-.57.91-3.32,1.9-.7,6.79-.58,6.99.23.43.17.96-.16,1.32-2.39,2.59.01,6.39.12,6.55.22.34.24.78.05,1.15-.19.36-.56.6-.97.61-1.41.05-2.75,1.85-3.11,2.47-.16.28-.43.48-.75.55-.31.07-.65,0-.91-.2-3.28-2.41-6.49.76-6.62.9-.26.27-.65.38-1.01.32-.03,0-3.34-.56-5.29,1.07-.98.83-1.48,2.13-1.48,3.89,0,2.11.98,3.12,2.03,4.2.95.98,2.03,2.09,2.03,3.92,0,.63-.51,1.14-1.14,1.14s-1.14-.51-1.14-1.14c0-.86-.5-1.41-1.39-2.33-1.19-1.23-2.67-2.75-2.67-5.78,0-2.47.78-4.37,2.31-5.65,2.19-1.83,5.27-1.76,6.56-1.64,1.66-1.44,4.9-3.05,8.17-1.36.58-.75,1.51-1.72,2.71-2.25-.74-1.72-1.55-4.73.32-7.34-1.06-2.32-1.84-6.14.63-8.51-1.11-1.4-2.05-3.7-1.33-6.64-1.86.62-4.35,1.07-6.25.03-1.46.59-5.15,1.69-8.07-.71-1.79.95-4.86,1.57-7.73-.74-1.27.37-4.13.98-6.59.01-.35,1.07-1.01,2.47-2.19,3.37.76,1.64,1.85,4.86.02,7.22,1.23,1.73,2.34,4.86.81,8.62,1.32,1.05,3.78,3.43,3.78,6.45,0,4.12-3.54,7.22-8.24,7.22S0,41.47,0,36.63c0-2.74,1.26-5.31,1.96-6.52-.73-1.06-1.96-3.25-1.96-6.07,0-2.39.78-3.56,1.56-4.13-.96-2.48-1.48-6.39,1.36-9.05-.3-1.63-.76-5.66,1.33-8.35C5.54.84,7.5,0,10.1,0c2.4,0,4.38,1.13,5.35,1.82,2.09-1,5.67-1.68,8.3.97,1.66-.7,5.46-1.94,8.23-.08,1.95-1.43,5.58-2.8,9.57-.79,2-1.22,5.65-2.12,8.78,1.14,2.58.14,6.71,1.34,6.71,5.18,0,3.6-.59,5.42-1.25,6.34.5,1.07,1.25,3.03,1.25,5.07,0,2.31-1.38,4.72-2.09,5.82.64,1.36,1.72,4.54-.13,7.75.77,1.19,2.22,3.82,2.22,6.61,0,2.58-1.13,6.33-3.62,8.46-1.46,1.25-3.26,1.83-5.22,1.7-.68.99-2.18,2.74-4.36,3.2-1.46.3-2.93,0-4.39-.91-.28.5-.66,1.55-.66,3.6,0,.63-.51,1.14-1.14,1.14h0ZM54.06,13.22h0,0ZM54.06,13.22h0,0ZM54.07,13.22s0,0,0,0c0,0,0,0,0,0h0Z" style="fill:#231f20;"/><path d="M18.38,17.66c-.29,0-.58-.11-.81-.33-.44-.44-.45-1.17,0-1.61.02-.02,2.17-2.19,3.34-4.52.28-.56.97-.79,1.53-.51.56.28.79.97.51,1.53-1.33,2.67-3.67,5.01-3.76,5.11-.22.22-.51.33-.81.33h0Z" style="fill:#231f20;"/><path d="M17.36,23.57c-3.9,0-5.52-2.63-5.83-4.02-.14-.61.25-1.22.86-1.36.61-.14,1.22.24,1.36.85.06.24.66,2.25,3.61,2.25,3.8,0,7.17-6.01,8.15-8.32.24-.58.91-.85,1.49-.61.58.25.85.91.61,1.49-.17.4-4.15,9.72-10.25,9.72h0Z" style="fill:#231f20;"/><path d="M30.54,19.52c-.36,0-.71-.17-.93-.48-.36-.51-.24-1.23.27-1.59,1.02-.72,3.83-2.87,4.6-4.18.32-.54,1.02-.72,1.56-.4.54.32.72,1.02.4,1.56-1.16,1.96-4.84,4.59-5.25,4.88-.2.14-.43.21-.66.21h0Z" style="fill:#231f20;"/><path d="M27.5,26.61c-5.01,0-6.34-4.37-6.34-6.68,0-.63.51-1.14,1.14-1.14s1.14.51,1.14,1.14c0,.45.15,4.4,4.06,4.4,3.33,0,7.84-4.12,9.3-5.71.43-.47,1.15-.49,1.61-.07.46.43.5,1.15.07,1.61-.24.26-5.97,6.45-10.98,6.45h0ZM23.44,19.94h.01-.01Z" style="fill:#231f20;"/><path d="M37.8,27.72c-4.8,0-7.05-2.57-7.17-2.72-.41-.48-.35-1.2.13-1.61.48-.41,1.19-.35,1.6.13.16.18,3.6,3.9,11.73.48.58-.24,1.25.03,1.49.61.24.58-.03,1.25-.61,1.5-2.83,1.19-5.22,1.62-7.18,1.62h0Z" style="fill:#231f20;"/><path d="M38.65,34.73c-.63,0-1.14-.51-1.14-1.13,0-.63.5-1.14,1.13-1.15.07,0,3.15-.08,5.43-2.23.45-.43,1.18-.42,1.61.05.43.46.41,1.18-.05,1.61-2.96,2.8-6.82,2.85-6.98,2.85h0Z" style="fill:#231f20;"/><path d="M22.91,30.78c-6.54,0-10.09-2.15-10.26-2.25-.54-.33-.7-1.04-.37-1.57.33-.53,1.03-.7,1.57-.37h0s4.12,2.43,11.52,1.81c.64-.06,1.18.41,1.23,1.04.05.63-.41,1.18-1.04,1.23-.93.08-1.82.11-2.66.11h0Z" style="fill:#231f20;"/><path d="M21.72,36.69c-2.13,0-4.49-.21-7.07-.64-.62-.1-1.04-.69-.94-1.31.1-.62.67-1.05,1.31-.94,7.42,1.22,12.73.62,15.8-1.8,2.58-2.03,2.78-4.8,2.85-5.84h1.14s1.13.16,1.13.16c-.09,1.19-.35,4.82-3.72,7.47-2.44,1.93-5.97,2.9-10.52,2.9h0Z" style="fill:#231f20;"/><path d="M24.63,44.68c-6.04,0-9.17-3.84-9.32-4.02-.39-.49-.31-1.21.18-1.6.49-.39,1.21-.31,1.6.18.15.18,3.38,4.06,9.73,2.97.62-.09,1.21.31,1.32.93.11.62-.31,1.21-.93,1.32-.91.15-1.77.22-2.58.22h0Z" style="fill:#231f20;"/><path d="M34.83,41.86c-.13,0-.27-.02-.4-.07-.59-.22-.89-.87-.67-1.47.45-1.22.44-2.2-.05-2.97-.91-1.47-3.38-2.03-4.26-2.12-.63-.07-1.08-.63-1.02-1.25.06-.63.61-1.07,1.25-1.02.17.02,4.26.46,5.96,3.18.87,1.4.96,3.07.26,4.98-.17.46-.61.75-1.07.75h0Z" style="fill:#231f20;"/></g></svg>