<?xml version="1.0" encoding="UTF-8"?><svg id="Layer_2" xmlns="http://www.w3.org/2000/svg" viewBox="0 0 52.41 49.29"><g id="Layer_1-2"><path d="M11.84,3.8c-.47-.3-1.08-.16-1.38.31l-.41.65c-.3.47-.16,1.08.31,1.38.17.11.35.16.53.16.33,0,.66-.16.85-.47l.41-.65c.3-.47.16-1.08-.31-1.38Z" style="fill:#231f20;"/><path d="M36.57,22.42c6.18,0,11.21-5.03,11.21-11.21S42.75,0,36.57,0s-11.21,5.03-11.21,11.21,5.03,11.21,11.21,11.21ZM36.57,2c5.08,0,9.21,4.13,9.21,9.21s-4.13,9.21-9.21,9.21-9.21-4.13-9.21-9.21,4.13-9.21,9.21-9.21Z" style="fill:#231f20;"/><path d="M50.17,29.46c-2.69-3.37-7.74-5.44-14.24-5.81-7.7-.44-13.5-2.21-17.3-5.24,1.02-.7,1.92-1.59,2.63-2.66.28-.43.2-1-.2-1.33-.2-.17-.32-.4-.32-.65,0-.13.04-.26.11-.4.22-.41.13-.91-.21-1.22-.11-.1-.29-.3-.29-.63,0-.38.26-.72.64-.81.41-.11.71-.47.74-.89.02-.23.16-.43.37-.54.42-.2.64-.67.54-1.12C21.64,3.67,17.71.54,13.11.54h0c-3.28,0-6.35,1.69-8.16,4.41-.62.08-1.1.19-1.13.2h0s0,0,0,0C-.15,6.11-.07,8.79.03,11.9v.34c.07,2.08.14,4.43,1.36,5.8.68.77,1.5,1.11,2.67,1.11.2,0,.42-.01.66-.03,2.5,7.5,9.95,12.91,16.52,15.13-4.76,6.73-4.43,14.51-4.41,14.85l2-.1c0-.08-.34-8.3,4.85-14.66.21-.26.28-.62.18-.94-.1-.32-.36-.57-.69-.66-6.28-1.72-13.9-6.79-16.45-13.97.34-.08.67-.18.98-.29,1.61,1.07,3.47,1.64,5.42,1.64,1.26,0,2.49-.25,3.62-.7,4.12,3.64,10.53,5.73,19.08,6.22,5.92.34,10.47,2.14,12.79,5.06,1.57,1.97,2.12,4.41,1.64,7.21l-2.42,10.91,1.95.43,2.43-10.96c.58-3.44-.1-6.41-2.04-8.84ZM2.88,16.7c-.74-.82-.79-2.87-.84-4.52v-.34c-.11-3.24-.03-4.19,2.25-4.75h0c.32-.08,1.22-.23,1.86-.23.13,0,.25,0,.35.02,1.9.26,3.98,2.29,4.06,4.89.09,2.89-2.29,4.67-4.69,5.15-.77.15-1.37.23-1.82.23-.73,0-.96-.2-1.18-.44ZM11.72,8.6c.39-.31.88-.49,1.39-.49,1.23,0,2.23,1,2.23,2.23s-1,2.23-2.23,2.23c-.19,0-.38-.03-.57-.08.02-.26.03-.52.02-.78-.03-1.09-.34-2.16-.85-3.11ZM13.11,18.12c-1.17,0-2.3-.27-3.33-.77,1.05-.78,1.84-1.78,2.3-2.93.33.08.68.13,1.03.13,2.33,0,4.23-1.9,4.23-4.23s-1.9-4.23-4.23-4.23c-.93,0-1.82.31-2.55.86-.87-.93-1.95-1.63-3.14-1.94,1.46-1.56,3.51-2.49,5.69-2.49h0c3.45,0,6.41,2.21,7.43,5.44-.29.29-.52.64-.65,1.03-.92.48-1.52,1.44-1.52,2.51,0,.56.17,1.11.48,1.57-.06.22-.09.45-.09.68,0,.52.14,1.02.41,1.46-1.47,1.82-3.69,2.89-6.05,2.89Z" style="fill:#231f20;"/><rect x="34.6" y="43.25" width="9.9" height="2" transform="translate(-13.21 71.42) rotate(-75.46)" style="fill:#231f20;"/><path d="M13.67,15.34c-.4-.39-1.03-.38-1.42.01-.39.39-.38,1.03.01,1.41l.55.54c.2.19.45.29.7.29s.52-.1.71-.3c.39-.39.38-1.03-.01-1.41l-.55-.54Z" style="fill:#231f20;"/><path d="M16.32,14.15l-.54.55c-.39.4-.38,1.03.02,1.41.19.19.45.28.7.28s.52-.1.72-.3l.54-.55c.39-.4.38-1.03-.02-1.41-.39-.39-1.03-.38-1.41.02Z" style="fill:#231f20;"/><path d="M18.69,8.2l.54-.55c.39-.4.38-1.03-.02-1.41s-1.03-.38-1.41.02l-.54.55c-.39.4-.38,1.03.02,1.41.19.19.45.29.7.29s.52-.1.71-.3Z" style="fill:#231f20;"/><path d="M15.93,4.03c-.18-.52-.76-.79-1.28-.61-.52.19-.79.76-.6,1.28l.26.72c.15.41.53.66.94.66.11,0,.23-.02.34-.06.52-.19.79-.76.6-1.28l-.26-.72Z" style="fill:#231f20;"/></g></svg>