<?xml version="1.0" encoding="UTF-8"?><svg id="Layer_2" xmlns="http://www.w3.org/2000/svg" viewBox="0 0 52.63 53.24"><g id="Layer_1-2"><path d="M26.89.06c1.89.35,3.08,1.39,3.63,3.17.19.62.08,1.24.09,1.86,0,.36.09.6.43.79.98.52,1.95,1.06,2.9,1.62.3.18.51.16.81-.03,1.73-1.1,3.48-1.05,5.18.07.33.22.58.21.89.02.91-.54,1.83-1.06,2.73-1.6.34-.2.48-.44.4-.93-.28-1.65.28-3.07,1.6-4.1,1.32-1.02,2.82-1.21,4.36-.54,1.82.79,2.88,2.55,2.7,4.38-.18,1.95-1.47,3.44-3.47,3.91-1.12.27-2.23.08-3.19-.58-.59-.4-1.08-.55-1.65-.02-.17.16-.41.28-.63.37-1.57.65-2.34,1.63-2.22,3.51.09,1.47-1.14,2.47-2.45,3.06-.59.26-.76.56-.74,1.15.04.84.02,1.68,0,2.52,0,.41.16.61.55.77,1.81.69,2.77,2.05,2.68,3.99-.05,1,.31,1.57,1.18,1.93.27.11.53.28.77.45,1.02.7,1.93,1.02,3.23.31,1.86-1.02,4.71.08,5.6,2.39.82,2.12-.12,4.73-2.22,5.59-.56.23-.78.5-.72,1.07.03.24.03.49,0,.73-.18,1.29.15,2.16,1.44,2.84,1.43.75,1.92,2.25,1.79,3.82-.13,1.69-1.02,2.95-2.6,3.64-1.41.61-2.8.49-4.1-.35-.44-.29-.79-.3-1.25.01-.71.49-1.47.93-2.25,1.29-.67.31-.94.75-.85,1.47.18,1.47-.37,2.64-1.51,3.57-1.4,1.14-2.97,1.32-4.56.62-1.51-.66-2.53-1.9-2.47-3.6.04-1.25-.33-1.99-1.47-2.41-.22-.08-.41-.26-.62-.39-.93-.56-1.73-1.02-2.92-.26-1.19.76-2.63.57-3.85-.2-.59-.37-1.07-.36-1.63-.01-.74.46-1.5.86-2.25,1.3-.41.24-.64.49-.59,1.08.22,2.67-1.43,4.71-4.08,4.88-2.63.17-4.87-1.95-4.6-4.85.05-.54-.08-.81-.49-1.04-.87-.49-1.75-.97-2.61-1.49-.43-.26-.76-.18-1.18.07-1.31.76-2.72.95-4.12.3-1.66-.78-2.55-2.12-2.56-3.99-.02-1.89.88-3.21,2.54-3.99.53-.25.78-.51.72-1.08-.03-.27-.03-.54,0-.81.1-1.12-.06-1.9-1.3-2.55-2.1-1.09-2.58-4.1-1.26-6.14,1.2-1.86,4.03-2.43,5.99-1.16.47.31.76.3,1.21,0,.83-.55,1.73-1.01,2.6-1.5.36-.2.53-.41.46-.9-.28-1.95.78-3.79,2.62-4.59.46-.2.61-.45.6-.92-.02-.79-.04-1.58,0-2.36.04-.65-.16-1-.8-1.28-1.68-.75-2.47-2.17-2.45-3.96.02-1.79.87-3.19,2.55-3.92,1.39-.61,2.82-.52,4.12.28.5.31.87.28,1.33,0,.81-.49,1.63-.97,2.46-1.42.47-.25.64-.59.6-1.12-.08-1.04,0-2.05.68-2.93C23.76.51,25.12-.09,26.89.06M34.55,20.09c1.59-.51,1.9-1.68,1.67-3.16-.06-.37-.02-.76,0-1.14.01-.32-.12-.53-.41-.63-2.04-.72-3.17-2.63-2.81-5.08.06-.39-.09-.57-.34-.72-.96-.56-1.94-1.08-2.9-1.63-.24-.14-.41-.18-.65.01-1.79,1.39-3.62,1.34-5.48.11-.27-.18-.54-.32-.9-.1-.9.55-1.82,1.07-2.74,1.59-.28.16-.49.33-.41.7.5,2.18-.59,4.24-2.58,5.02-.46.18-.58.49-.57.95.03.84.03,1.68,0,2.52-.02.5.13.77.63.97.81.32,1.49.84,1.95,1.63.63,1.07.81,2.22.61,3.44,1.12.65,2.2,1.26,3.27,1.9.36.22.65.22,1.04,0,1.58-.92,3.18-.98,4.75.05.3.2.6.21.91.03.84-.49,1.66-1.02,2.53-1.46.64-.33.88-.77.83-1.49-.1-1.39.43-2.54,1.58-3.51M15.91,44.51c.45.1.97.1,1.3.41,1.08,1.01,2.03.46,3-.16.29-.19.6-.38.91-.53.66-.32,1.03-.73.93-1.55-.22-1.69.22-3.33,1.8-4,1.55-.67,1.51-1.71,1.44-2.96-.01-.22-.02-.44,0-.65.06-.45-.14-.7-.56-.85-1.34-.48-2.19-1.44-2.6-2.8-.21-.69-.08-1.4-.1-2.1,0-.41-.09-.72-.49-.94-.88-.47-1.75-.96-2.61-1.48-.36-.22-.6-.2-.94.05-1.65,1.24-3.64,1.24-5.34.01-.32-.23-.55-.27-.87-.08-.84.49-1.67,1-2.55,1.42-.59.28-.68.69-.59,1.25.29,1.75-.29,3.31-1.77,4.1-1.32.7-1.47,1.59-1.35,2.79.02.22.03.44,0,.65-.09.6.16.94.72,1.18,1.39.58,2.07,1.69,2.41,3.14.18.78-.12,1.49-.07,2.21,1.05.63,2.08,1.23,3.1,1.84.3.18.57.22.89-.04.93-.74,2.02-1.01,3.34-.92M28.36,34.01c-.79.22-1.13.69-1.01,1.54.08.61.03,1.25.01,1.87,0,.34.11.57.44.69,2.04.78,3.08,2.44,2.8,4.92-.04.4,0,.67.36.88.97.54,1.94,1.08,2.89,1.65.26.16.43.14.64-.05,1.43-1.31,3.83-1.39,5.55-.1.32.24.55.23.87.03.83-.5,1.68-.99,2.55-1.43.5-.25.63-.54.5-1.1-.36-1.54.32-3.57,1.76-4.2,1.42-.63,1.56-1.57,1.43-2.81-.02-.19-.03-.38,0-.57.1-.63-.17-.95-.76-1.22-1.86-.86-2.81-2.77-2.41-4.74.08-.41.01-.66-.36-.87-.9-.5-1.78-1.02-2.66-1.55-.37-.23-.67-.2-1.03.05-1.78,1.24-3.59,1.17-5.37,0-.38-.25-.66-.26-1.02-.03-.83.51-1.66,1.01-2.51,1.48-.34.19-.5.33-.43.8.3,2-.36,3.62-2.22,4.78M46.75,5.97c.18.12.35.25.55.34,1.12.55,2.29.12,2.92-1.07.47-.88.02-2.18-.94-2.72-.82-.47-2-.29-2.61.4-.76.85-.76,1.84.08,3.05M14.33,46.96c-1.06.67-1.44,1.75-.96,2.77.43.91,1.58,1.47,2.49,1.19,1.23-.37,1.91-1.56,1.54-2.7-.4-1.22-1.6-1.76-3.07-1.26M16.57,25.29c.15-.15.33-.29.45-.46.67-.9.59-2.04-.2-2.79-.86-.83-1.91-.92-2.78-.23-.9.71-1.12,1.85-.54,2.83.59,1.01,1.65,1.27,3.06.65M50.39,42.21c.06-1.25-1.45-2.44-2.6-2.1-1.14.34-1.82,1.27-1.68,2.43.12,1.02,1,1.79,2.07,1.81,1.21.02,2.03-.72,2.21-2.14M14.68,9c-.12.06-.25.11-.37.17-.97.53-1.35,1.5-1,2.54.31.91,1.4,1.63,2.25,1.5,1.06-.16,1.91-1.14,1.9-2.18-.01-1.41-.98-2.16-2.79-2.03M39.33,24.08c.24-.92-.12-1.89-.9-2.39-.76-.49-1.7-.45-2.49.13-.63.45-.96,1.53-.72,2.33.21.7,1.19,1.51,1.91,1.58.75.08,1.71-.6,2.2-1.65M38.47,50.62c.12-.11.25-.21.36-.33.85-.95.8-2.17-.12-3.04-.82-.76-2.18-.69-3,.15-.76.78-.8,1.85-.1,2.79.6.82,1.65,1,2.87.42M24.34,41.37c-.31.66-.29,1.29.12,1.92.71,1.09,1.83,1.38,2.95.73,1.01-.59,1.3-1.69.75-2.79-.81-1.6-2.7-1.58-3.82.14M2.34,30.78c.05.12.1.25.16.37.51.97,1.75,1.42,2.69.98,1.03-.48,1.6-1.66,1.25-2.58-.45-1.17-1.58-1.77-2.7-1.42-1.14.35-1.54,1.05-1.41,2.65M50.38,30.54c0-.22.03-.44,0-.65-.13-.95-1.1-1.84-2.04-1.89-.95-.05-1.95.68-2.19,1.59-.26.98.24,2.03,1.19,2.49,1.19.58,2.28.07,3.05-1.55M25.87,28.02c-.22.1-.45.18-.66.3-.73.42-1.25,1.5-1.08,2.2.21.86,1.2,1.73,2.01,1.76,1.22.04,2.32-.92,2.37-2.09.05-1.21-1.09-2.2-2.64-2.18M5.99,40.86c-1.19-1.13-2.66-1.07-3.4.15-.56.91-.39,2.15.38,2.82.78.68,1.9.7,2.68.04.95-.8,1.25-1.92.34-3.01M38.74,12.57c.92-1.08.94-1.93.09-2.96-.57-.69-1.83-.92-2.6-.47-.95.55-1.34,1.69-.96,2.64.54,1.34,2.15,1.96,3.47.8M28.07,5.63c.54-.81.48-1.61,0-2.42-.59-.97-1.78-1.24-2.84-.63-.97.56-1.35,1.79-.84,2.71.84,1.53,2.29,1.7,3.69.34h0Z" style="fill:#231f20;"/></g></svg>