<?xml version="1.0" encoding="UTF-8"?><svg id="Layer_2" xmlns="http://www.w3.org/2000/svg" viewBox="0 0 53.58 49.69"><g id="Layer_1-2"><path d="M48.03,49.65h-10.84c-.5,0-.91-.41-.91-.91s.41-.91.91-.91h10.05l4.37-30.15h-6.02c-.49,4.1-4.19,7.53-8.38,7.53s-7.9-3.42-8.38-7.53h-6.02l.33,2.3c.07.5-.27.96-.77,1.03-.5.08-.96-.27-1.03-.77l-.48-3.34c-.04-.26.04-.53.21-.73.17-.2.42-.31.69-.31h7.92c.5,0,.91.41.91.91,0,3.12,2.83,6.62,6.62,6.62s6.62-3.5,6.62-6.62c0-.5.41-.91.91-.91h7.92c.26,0,.51.11.69.31.17.2.25.46.21.73l-4.64,31.96c-.07.45-.45.78-.9.78h0Z" style="fill:#231f20;"/><path d="M39.8,9.83h0c-.5,0-.91-.41-.91-.91V1.82s-3.1,0-3.1,0v5.33c0,.5-.41.91-.91.91s-.91-.41-.91-.91V.91c0-.5.41-.91.91-.91h4.92c.24,0,.47.1.64.27.17.17.27.4.27.64v8.02c0,.5-.41.91-.92.91h0Z" style="fill:#231f20;"/><path d="M36.94,17.41c-.42,0-.8-.3-.89-.73l-1.72-8.63-3.06.46,1.05,5.73c.09.49-.24.97-.73,1.06-.49.1-.97-.24-1.06-.73l-1.22-6.65c-.04-.24.01-.49.15-.69.14-.2.36-.33.6-.37l4.85-.73c.48-.07.93.25,1.03.72l1.89,9.48c.1.49-.22.97-.71,1.07-.06.01-.12.02-.18.02h0Z" style="fill:#231f20;"/><path d="M36.57,21.53s-.07,0-.11,0c-.5-.06-.85-.51-.79-1.01l1.38-11.55c.06-.49.49-.85.99-.8l4.86.45c.25.02.47.15.62.34.15.19.22.44.19.68l-1.05,8.44c-.06.5-.51.85-1.01.79-.5-.06-.85-.52-.79-1.01l.94-7.51-3.05-.29-1.27,10.67c-.06.46-.45.8-.9.8h0Z" style="fill:#231f20;"/><path d="M27.86,14.9c-.44,0-.83-.32-.9-.78l-1.57-10.56c-.04-.24.03-.48.17-.68.15-.19.36-.32.6-.35l5.01-.7c.49-.08.94.26,1.02.75l.76,4.49c.08.5-.25.96-.75,1.05-.49.08-.96-.25-1.05-.75l-.61-3.62-3.22.45,1.43,9.66c.07.5-.27.96-.77,1.03-.05,0-.09,0-.13,0h0Z" style="fill:#231f20;"/><path d="M23.89,17.42c-.31,0-.61-.15-.78-.44l-4.33-7.08c-.13-.22-.17-.48-.1-.73.07-.25.24-.45.47-.56l4.29-2.09c.42-.21.93-.05,1.18.35l4,6.66c.26.43.12.99-.31,1.25-.43.26-.99.12-1.25-.31l-3.58-5.94-2.65,1.29,3.81,6.23c.26.43.13.99-.3,1.25-.15.09-.31.13-.47.13h0Z" style="fill:#231f20;"/><path d="M30.6,49.69H4.88c-1.74,0-3.16-1.43-3.16-3.2v-4.16c0-.5.41-.91.91-.91h18.97c.5,0,.91.41.91.91s-.41.91-.91.91H3.54v3.25c0,.75.62,1.38,1.34,1.38h25.72c.73,0,1.34-.63,1.34-1.38v-3.25h-7.48c-.5,0-.91-.41-.91-.91s.41-.91.91-.91h8.39c.5,0,.91.41.91.91v4.16c0,1.76-1.42,3.2-3.16,3.2h0Z" style="fill:#231f20;"/><path d="M32.89,34.61H2.59c-.5,0-.91-.41-.91-.91v-1.53c0-5.3,6.16-9.62,13.74-9.62h4.64c7.58,0,13.74,4.31,13.74,9.62v1.53c0,.5-.41.91-.91.91h0ZM3.5,32.79h28.49v-.62c0-4.23-5.46-7.8-11.93-7.8h-4.64c-6.46,0-11.93,3.57-11.93,7.8v.62h0Z" style="fill:#231f20;"/><path d="M23.71,45.01c-.21,0-.42-.07-.58-.21l-7.02-5.91H.91c-.5,0-.91-.41-.91-.91s.41-.91.91-.91h15.53c.21,0,.42.07.59.21l6.3,5.3,1.88-4.93c.13-.35.47-.58.85-.58h8.53c.5,0,.91.41.91.91s-.41.91-.91.91h-7.9l-2.11,5.54c-.11.27-.34.48-.62.56-.08.02-.15.03-.23.03h0Z" style="fill:#231f20;"/></g></svg>