<?xml version="1.0" encoding="UTF-8"?><svg id="Layer_2" xmlns="http://www.w3.org/2000/svg" viewBox="0 0 58.64 45.34"><g id="Layer_1-2"><path d="M58.64,32.06H15.33L7.98,2.05H2.05v2.56H0V0h9.6l1.22,5,47.82,4.07v22.99h0ZM16.94,30.01h39.64V10.96L11.33,7.1l5.61,22.9h0Z" style="fill:#231f20;"/><polygon points="21.83 31.03 19.77 31.03 19.77 5.97 21.83 5.97 21.83 31.03 21.83 31.03" style="fill:#231f20;"/><polygon points="36.2 31.03 34.15 31.03 34.15 8.1 36.2 8.1 36.2 31.03 36.2 31.03" style="fill:#231f20;"/><polygon points="50.58 31.03 48.52 31.03 48.52 9.33 50.58 9.33 50.58 31.03 50.58 31.03" style="fill:#231f20;"/><polygon points="57.61 20.28 13.25 20.28 13.25 18.23 57.61 18.23 57.61 20.28 57.61 20.28" style="fill:#231f20;"/><path d="M30.29,43.87c-5.81,4.47-12.45-2.16-7.98-7.98,5.82-4.48,12.46,2.16,7.98,7.98h0ZM28.8,37.39c-3.63-2.8-7.78,1.35-4.98,4.98,3.62,2.78,7.75-1.35,4.98-4.98h0Z" style="fill:#231f20;"/><path d="M51.29,43.87c-5.81,4.47-12.45-2.16-7.98-7.98,5.82-4.48,12.46,2.16,7.98,7.98h0ZM49.79,37.39c-3.63-2.8-7.78,1.35-4.98,4.98,3.62,2.78,7.75-1.35,4.98-4.98h0Z" style="fill:#231f20;"/></g></svg>