<?xml version="1.0" encoding="UTF-8"?><svg id="Layer_2" xmlns="http://www.w3.org/2000/svg" viewBox="0 0 39.48 55.48"><g id="Layer_1-2"><path d="M7.05,42.59c.85,0,1.62,0,2.38,0,.5,0,.92.05.91.71,0,.64-.32.94-.94.94-.91,0-1.82,0-2.73,0-1.39,0-2.78.02-4.17,0-.61-.01-.86.17-.85.82.03,2.67.02,5.34,0,8.01,0,.59.2.79.79.79,2.61-.02,5.22-.03,7.84,0,.66,0,.85-.27.81-.87-.03-.54-.01-1.08,0-1.62.02-.57.34-.91.91-.91.58,0,.74.42.73.94,0,1.02-.02,2.04,0,3.07.02.69-.33,1.02-.96,1.02-3.6.01-7.21.01-10.81,0-.64,0-.96-.35-.96-1.03.01-3.66.02-7.32,0-10.99,0-.68.28-.88.92-.88,2.02.02,4.03,0,6.13,0h0ZM0,3.12c0-.79,0-1.5,0-2.21C0,.33.27,0,.87,0,3.74,0,6.6,0,9.47,0c.59,0,.86.29.88.89.02.7-.4.77-.94.76-2.27,0-4.54.02-6.81-.02-.76-.01-.97.24-.96.98.04,2.58.03,5.16,0,7.74,0,.64.15.91.85.9,2.58-.04,5.16-.03,7.74,0,.62,0,.88-.21.84-.84-.03-.51-.03-1.02.01-1.53.05-.53.28-.9.91-.88.65.02.72.4.71.91-.01,1.02-.02,2.04,0,3.06.02.61-.25.91-.84.91-3.69,0-7.37,0-11.06,0C.17,12.89,0,12.5,0,11.89c.02-2.89,0-5.79,0-8.76H0ZM9.61,34.19c-2.84,0-5.59,0-8.34,0-1.09,0-1.25-.16-1.25-1.22,0-3.52,0-7.04,0-10.56,0-.99.12-1.11,1.15-1.11,2.7,0,5.39,0,8.09,0,.55,0,1.13,0,1.09.81-.03.73-.51.84-1.12.84-2.21,0-4.43.02-6.64-.02-.7,0-.94.22-.93.93.03,2.58.03,5.17,0,7.75,0,.68.17.95.9.94,2.55-.04,5.11-.03,7.66,0,.67,0,.92-.23.88-.89-.04-.54-.04-1.08.02-1.62.06-.5.39-.87.91-.84.55.02.73.42.72.96-.02.99-.02,1.99,0,2.98.02.76-.34,1.08-1.09,1.06-.65-.02-1.31,0-2.04,0h0Z" style="fill:#231f20;"/><path d="M12.36,1.04c.92-.53,1.82-.46,2.29.12.48.59.44,1.56-.23,2.24-2.02,2.07-4.06,4.12-6.12,6.14-.71.7-1.69.63-2.41-.08-.81-.8-1.61-1.59-2.4-2.41-.71-.73-.76-1.67-.15-2.27.56-.55,1.64-.5,2.3.12.23.21.44.44.67.65.22.21.45.42.79.74,1.75-1.75,3.49-3.48,5.28-5.26h0ZM3.94,46.95c.81-.23,1.38.13,1.9.59.27.25.53.51.78.78.4.45.71.37,1.11-.04,1.48-1.53,3-3.01,4.49-4.52.76-.77,1.53-.85,2.23-.22.68.61.68,1.58-.05,2.32-2.03,2.05-4.08,4.1-6.13,6.13-.82.81-1.7.77-2.52-.06-.74-.75-1.49-1.48-2.21-2.23-.96-.99-.83-1.99.41-2.75h0ZM13.79,25.19c-1.83,1.83-3.61,3.61-5.4,5.39-.99.98-1.68.98-2.68,0-.77-.76-1.54-1.51-2.28-2.29-.69-.72-.7-1.64-.04-2.25.61-.57,1.54-.53,2.18.14.45.47.85.99,1.22,1.41.68-.21.93-.61,1.24-.92,1.43-1.42,2.85-2.85,4.26-4.28.6-.61,1.26-.69,2-.29.69.38.75,1.03.64,1.69-.1.64-.73.9-1.14,1.4h0ZM35.84,3.24c.91,0,1.73,0,2.55,0,.55,0,1.06.05,1.07.77.01.72-.45.88-1.07.88-4.65,0-9.3,0-13.95,0-.91,0-1.81,0-2.72,0-.6,0-1.1-.13-1.08-.87.02-.69.52-.78,1.08-.78,4.68,0,9.36,0,14.12,0h0ZM22.74,26.18c-.48,0-.88.03-1.27-.03-.48-.07-.87-.29-.83-.88.04-.57.36-.75.91-.75,5.68.01,11.35.01,17.03,0,.55,0,.85.19.9.76.05.6-.32.81-.82.87-.31.04-.62.03-.94.03-4.97,0-9.93,0-14.98,0h0ZM34.14,47.31c-4.17,0-8.26,0-12.34,0-.61,0-1.18-.02-1.16-.84.02-.76.6-.81,1.15-.81,5.5,0,11.01,0,16.51,0,.17,0,.35,0,.51.05.46.13.74.41.66.93-.07.47-.34.67-.81.67-1.48-.01-2.95,0-4.51,0h0ZM25.79,9.66c-1.45,0-2.81-.01-4.16,0-.55,0-.96-.1-.99-.75-.04-.7.43-.88.98-.89,1.19-.03,2.38-.01,3.57-.01,1.67,0,3.34,0,5.01,0,.46,0,.93.05,1.08.61.18.67-.09,1.02-.81,1.03-1.53.01-3.06,0-4.67,0h0ZM27.33,30.95c-1.93,0-3.77-.01-5.61,0-.62,0-1.09-.15-1.07-.87.02-.69.5-.78,1.07-.78,2.83,0,5.67,0,8.5,0,.61,0,1.09.14,1.08.87-.01.7-.52.78-1.07.78-.93,0-1.87,0-2.89,0h0ZM26.13,52.25c-1.53,0-2.98,0-4.42,0-.56,0-1.05-.11-1.07-.79-.01-.73.48-.86,1.09-.86,2.84,0,5.67,0,8.51,0,.52,0,1.07,0,1.05.77-.01.72-.46.89-1.08.88-1.33-.01-2.67,0-4.08,0h0Z" style="fill:#231f20;"/></g></svg>