<?xml version="1.0" encoding="UTF-8"?><svg id="Layer_2" xmlns="http://www.w3.org/2000/svg" viewBox="0 0 53.68 44.67"><g id="Layer_1-2"><path d="M36.16.85c3.16-1.31,6.14-1.15,8.9.86,2.25,1.64,3.45,3.9,3.56,6.68.09,2.22-.06,4.44.48,6.64.38,1.57.92,3.11,1.61,4.57.57,1.23.38,1.72-.9,2.18-.31.11-.68.12-.92.46.53.51,1.24.65,1.86.96,1.01.51,1.72,1.22,2.02,2.35.5,1.87.87,3.76.93,5.7.02.61-.15,1.05-.86,1.02-.67-.03-.95-.4-.99-1.06-.12-1.69-.43-3.36-.88-5-.15-.54-.43-.93-.95-1.17-1.91-.86-3.81-1.73-5.71-2.61-.44-.2-.76-.15-1.11.21-.72.76-1.48,1.49-2.22,2.23-.65.64-1.23.66-1.91.01-.78-.74-1.55-1.5-2.29-2.28-.35-.37-.64-.38-1.09-.17-1.75.81-3.53,1.58-5.31,2.35-.79.35-1.32.86-1.5,1.76-.18.92-.45,1.83-.54,2.76-.06.54-.22.94-.99,1.01.79.37,1.41.7,2.06.97,1.06.45,1.6,1.31,1.89,2.36.09.33.18.66.23.99.12.86.38,1.53,1.31,1.89.68.26.82,1.05.83,1.75.02,1.73.01,3.46,0,5.2,0,.76-.37,1.24-.96,1.19-.67-.06-.89-.52-.88-1.17.02-1.52-.01-3.04.01-4.57.01-.68-.19-.99-.94-.99-9.37.02-18.74.02-28.11,0-.74,0-.96.29-.94.99.03,1.5.02,2.99,0,4.49,0,.83-.36,1.31-.98,1.25-.72-.08-.88-.6-.87-1.26.02-1.76.01-3.52,0-5.28,0-.89.3-1.6,1.2-1.9.44-.15.6-.46.68-.87.1-.46.22-.91.31-1.38.27-1.54,1.21-2.48,2.64-3.04,2.14-.85,4.26-1.75,6.38-2.64,1.03-.43,1.2-1.03.53-1.89-.93-1.19-1.57-2.54-2.09-3.94-.27-.72-.56-1.36-1.08-1.95-.72-.82-.72-1.86-.21-2.8.41-.76.3-1.5.25-2.28-.11-1.95-.03-3.87,1.08-5.58.36-.56.89-.99,1.51-1.21.58-.22,1.03-.57,1.46-.99,1.41-1.39,3.21-1.59,4.99-1.25,3.94.77,6.4,3.23,7.41,7.11.28,1.07.25,2.17.06,3.25-.07.42,0,.75.15,1.12.36.88.42,1.83-.23,2.52-.89.95-1.07,2.18-1.6,3.27-.47.97-.93,1.94-1.66,2.74-.54.59-.5,1.35.23,1.68,1.44.67,2.92,1.23,4.48,1.88-.11-1.57.3-2.95.63-4.34.24-1.01.75-1.82,1.76-2.26.74-.32,1.45-.72,2.27-1.13-.56-.25-1.04-.46-1.53-.68-.72-.32-.96-.89-.6-1.59,1.1-2.11,1.79-4.37,2.1-6.7.16-1.19.17-2.42.14-3.66-.08-3.32.95-6.23,3.93-8.14.31-.2.61-.41.97-.64M33.35,12.09c.02-.44.05-.89.05-1.33,0-1.32.1-1.45,1.38-1.75,1.43-.34,2.82-.79,4.11-1.5.88-.49,1.71-1.01,1.96-2.11.11-.46.55-.48.97-.48.38,0,.73.14.78.52.2,1.37,1.07,2.31,2.21,2.76,1.67.67,1.95,1.83,1.79,3.37-.08.75,0,1.52-.02,2.28-.02.68-.11,1.35-.29,2.01-.32,1.22-.96,2.25-1.91,3.09-.24.21-.51.4-.37.86.14.45.43.54.8.61.85.16,1.72.16,2.57,0,.44-.08.96-.01,1.31-.47-.07-.19-.14-.39-.21-.58-1.13-2.76-1.79-5.61-1.7-8.62.03-1.02.05-2.03-.13-3.05-.55-2.99-2.74-5.27-5.96-5.76-2.39-.36-4.76.74-6.4,3.19-1.46,2.18-1.11,4.66-1.06,7.17-.3.79-.22,1.64-.39,2.45-.38,1.82-.95,3.57-1.67,5.33,1.43.5,2.8.57,4.22.28.39-.08.48-.34.56-.65.08-.31-.07-.47-.29-.65-1.1-.92-1.77-2.09-2.1-3.48-.27-1.11-.01-2.25-.2-3.48M15.45,8.29c-.77.22-1.44.61-1.9,1.3-.19.28-.39.57-.77.61-1.31.15-1.88,1.05-2.1,2.2-.28,1.5-.25,3.01-.05,4.53.08.61.2,1.25-.49,1.69-.34.22-.25.64.03.8.71.4.86,1.09,1.06,1.76.31,1.04.8,2,1.33,2.92.55.94,1.11,1.9,2.38,2.06.81.1,1.61.23,2.42.15,1.28-.13,2.53-.32,3.27-1.64.46-.82.92-1.64,1.3-2.5.44-.98.53-2.14,1.51-2.87.38-.29.08-.62-.2-.84-.43-.35-.51-.79-.31-1.27.8-1.98.32-3.79-.71-5.53-1.38-2.32-4.21-3.77-6.79-3.37M29.23,33.7c-.12-.39-.46-.59-.78-.73-2.25-.97-4.51-1.92-6.78-2.85-.38-.16-.76-.25-1.21-.09-2.44.85-4.91.93-7.36.02-.43-.16-.82-.11-1.21.05-2,.83-3.99,1.7-6.01,2.49-1.13.45-1.75,1.23-1.98,2.41-.21,1.1-.25,1.1.87,1.1,7.66,0,15.31.01,22.97,0,2.39,0,2.36.53,1.5-2.4M37.82,18.16c3.29,1.87,6.97-1.06,6.77-4.19-.06-.97-.04-1.94,0-2.91.02-.49-.16-.8-.56-1.02-.75-.43-1.45-.92-2.05-1.56-.22-.24-.49-.43-.82-.16-1.59,1.26-3.48,1.87-5.39,2.43-.39.11-.55.33-.53.74.02.81,0,1.63,0,2.44.04,1.85.9,3.23,2.57,4.23M39.17,22.32l.91.65c.73-.55,1.32-1.22,1.93-1.86.15-.15.27-.34.16-.57-.13-.27-.36-.13-.55-.1-1.14.2-2.28.28-3.41-.03-.18-.05-.35-.12-.47.11-.12.22.03.34.16.47.4.41.8.83,1.28,1.32M18.03,28.18c-1.33.02-2.67.06-4.12-.26.86,1.14,4.72,1.14,5.64.12-.49-.08-.93.04-1.52.14h0Z" style="fill:#231f20;"/></g></svg>