<?xml version="1.0" encoding="UTF-8"?><svg id="Layer_2" xmlns="http://www.w3.org/2000/svg" viewBox="0 0 45.72 45.78"><g id="Layer_1-2"><path d="M32.29,33.16c1.11.49,2.35.77,3.65.77.16,0,.31,0,.47-.01h0c4.66-.36,8.32-4.25,8.32-9,0-2.03-.67-3.9-1.81-5.41l-.03-.05-7.16-10.33-6.57,9.47" style="fill:none; stroke:#231f20; stroke-linecap:round; stroke-linejoin:round; stroke-width:2px;"/><path d="M22.42,44.78c5.52,0,10-4.47,10-10,0-2.26-.74-4.33-2.01-6.01l-.04-.06-7.95-11.46-7.95,11.46-.04.06c-1.27,1.68-2.01,3.75-2.01,6.01,0,5.52,4.47,10,10,10Z" style="fill:none; stroke:#231f20; stroke-linecap:round; stroke-linejoin:round; stroke-width:2px;"/><path d="M22.42,40.02c-2.89,0-5.24-2.35-5.24-5.24" style="fill:none; stroke:#231f20; stroke-linecap:round; stroke-linejoin:round; stroke-width:2px;"/><path d="M9.02,23.08c4.43,0,8.02-3.59,8.02-8.02,0-1.81-.6-3.48-1.61-4.82l-.03-.05L9.02,1,2.64,10.2l-.03.05c-1.02,1.34-1.61,3.01-1.61,4.82,0,4.43,3.59,8.02,8.02,8.02Z" style="fill:none; stroke:#231f20; stroke-linecap:round; stroke-linejoin:round; stroke-width:2px;"/><path d="M9.02,18.32c-1.8,0-3.26-1.46-3.26-3.26" style="fill:none; stroke:#231f20; stroke-linecap:round; stroke-linejoin:round; stroke-width:2px;"/></g></svg>