<?xml version="1.0" encoding="UTF-8"?><svg id="Layer_2" xmlns="http://www.w3.org/2000/svg" viewBox="0 0 51.85 49.48"><g id="Layer_1-2"><path d="M11.9.3c-1.13.36-1.52.55-2.48,1.29-.95.72-1.99,2.17-2.46,3.42q-.36.93-.41,18.41l-.03,17.5H.67l-.33.42c-.28.34-.34.67-.34,1.61,0,3.07.88,4.83,2.97,5.97l1.03.55h35.22l.77-.36c1.08-.49,2.17-1.57,2.69-2.64l.46-.91.05-18.47.03-18.46h7.84l.42-.42c.41-.41.41-.46.34-2.33-.05-1.68-.11-2.04-.51-2.84-.57-1.14-1.81-2.27-2.98-2.71C47.45-.01,47.21-.01,30.12,0,14.02,0,12.73.02,11.9.3h0ZM41.61,2.96l-.44.85-.08,20.56c-.1,22.63-.02,21.13-1.08,22.13-.47.44-1.65.95-2.17.95-.62,0-1.53-.38-2.09-.86-.91-.82-1.19-1.57-1.19-3.42,0-2.49,1.58-2.23-13.29-2.23h-12.64l.03-17.25c.05-16.29.07-17.28.34-18,.34-.88,1.48-2.22,2.33-2.76,1.29-.78,1.04-.78,16.32-.78l14.38-.02-.44.85h0ZM47.58,2.37c1.29.54,2.15,1.91,2.15,3.44v.54h-6.52v-.85c0-2.36,2.28-4.01,4.37-3.13h0ZM32.46,44.42c.07.95.21,1.53.54,2.17l.44.85-14.4-.03-14.4-.05-.68-.37c-1.04-.55-1.58-1.47-1.65-2.82l-.07-1.13,15.05.03,15.07.05.1,1.3h0Z" style="fill:#231f20;"/><path d="M15.98,11.84c-.83.31-1.08,1.26-.49,1.84.33.33.54.33,9.38.33s9.05,0,9.38-.33c.42-.42.42-1.17-.02-1.57-.33-.29-.75-.31-9.18-.34-4.84-.02-8.94.02-9.07.07h0ZM15.49,18.58c-.42.42-.42,1.17.02,1.57.33.29.72.31,9.36.31s9.03-.02,9.36-.31c.44-.39.44-1.14.02-1.57-.33-.33-.54-.33-9.38-.33s-9.05,0-9.38.33h0ZM15.42,25.13c-.15.2-.26.52-.26.7s.11.51.26.7l.25.36h18.39l.25-.36c.34-.49.33-1.16-.03-1.48-.28-.24-1.17-.28-9.46-.28h-9.15l-.25.36h0ZM15.98,31.25c-.83.31-1.08,1.26-.49,1.84.31.31.54.33,5.06.33s4.74-.02,5.05-.33c.42-.42.42-1.17-.02-1.57-.33-.29-.67-.31-4.86-.34-2.48-.02-4.61.02-4.74.07h0Z" style="fill:#231f20;"/></g></svg>