<?xml version="1.0" encoding="UTF-8"?><svg id="Layer_2" xmlns="http://www.w3.org/2000/svg" viewBox="0 0 43.38 44.94"><g id="Layer_1-2"><path d="M16.37,21.03c.7-.24,1.36-.35,2.04-.35,2.22,0,4.44,0,6.65,0,2.99,0,5.18,1.73,5.88,4.61.07.27.07.54.07.81,0,2.78,0,5.57,0,8.35,0,.97-.26,1.87-.67,2.73-.48,1.02-1.27,1.7-2.35,2-.41.12-.53.31-.52.71.02,1.34.01,2.67,0,4.01,0,.69-.33,1.04-.96,1.04-.58,0-.88-.34-.89-1.03-.01-1.52-.01-3.03-.01-4.55,0-3.75,0-7.49,0-11.24,0-.55.09-1,.77-1.04.79-.05,1.09.2,1.09.99,0,2.74,0,5.48,0,8.22,0,.24-.06.5.09.78.59-.22.92-.69,1.12-1.24.2-.55.33-1.12.33-1.72-.02-2.56,0-5.12,0-7.67,0-1.68-1.28-3.25-2.93-3.6-.51-.11-1.02-.16-1.54-.15-1.95.01-3.89,0-5.84,0-2.55,0-4.26,1.7-4.26,4.23,0,2.29-.01,4.57,0,6.86,0,.91.2,1.79.64,2.6.18.33.4.58.77.69.2-.25.12-.51.12-.74,0-2.69,0-5.39,0-8.08,0-.82.26-1.15.89-1.17.82-.03,1.1.23,1.1,1.07,0,5.21,0,10.41,0,15.62,0,.71-.41,1.19-1.01,1.18-.57,0-.98-.51-.98-1.21,0-1.27,0-2.54,0-3.8,0-.33-.01-.58-.43-.71-1.85-.61-2.73-2.04-2.94-3.86-.37-3.08-.16-6.19-.13-9.28.02-2.22,1.74-4.31,3.89-5.04h0ZM3.62,28.23c.07-.97.3-1.2,1.09-1.16.65.03.9.34.9,1.16,0,5.16,0,10.32,0,15.47,0,.74-.38,1.22-.95,1.24-.59.02-1.03-.5-1.04-1.24,0-1.29,0-2.58,0-3.87,0-.28,0-.5-.37-.61-1.87-.57-2.77-2-3-3.81-.39-3.13-.24-6.28-.12-9.41.12-2.96,2.59-5.18,5.6-5.31,1.74-.07,3.48-.01,5.23-.01.46,0,.82.17,1.06.6.21.38.07.69-.12,1.02-.22.38-.58.38-.95.38-1.52,0-3.03.02-4.55,0-2.56-.05-4.38,1.79-4.32,4.32.05,2.26,0,4.52.01,6.79,0,.91.18,1.79.65,2.59.17.3.38.55.89.75,0-3,0-5.91,0-8.89h0ZM37.86,38.38c.1-.46.13-.86.13-1.27,0-2.99,0-5.98,0-8.96,0-.9.31-1.16,1.21-1.08.37.03.57.2.66.56.08.35.14.7.13,1.07,0,2.51,0,5.02,0,7.54,0,.24-.06.5.11.77.68-.28.91-.92,1.11-1.51.15-.43.19-.92.19-1.4-.02-2.47-.07-4.94,0-7.4.07-2.22-1.69-3.98-4.01-4.01-1.63-.02-3.26,0-4.89,0-.67,0-.98-.29-1.03-.9-.04-.54.32-1.07.9-1.06,2.3.04,4.61-.29,6.89.24,2.25.52,4.15,2.9,4.12,5.25-.04,2.74-.01,5.48,0,8.22,0,.87-.22,1.69-.54,2.49-.45,1.12-1.25,1.88-2.37,2.27-.41.15-.5.35-.5.73.01,1.27.03,2.54,0,3.8-.02.98-.63,1.4-1.46,1.12-.47-.16-.53-.49-.53-.9,0-1.47,0-2.94,0-4.41,0-.36-.03-.72-.13-1.13h0ZM17.51.44c1.35.69,2.31,1.69,2.57,3.17.59,3.31-1.46,5.66-4.5,5.71-1.78.03-3.28-.78-4.11-2.48-.85-1.73-.74-3.43.42-4.97C13.23.11,15.16-.36,17.51.44M16.94,2.49c-1.44-.89-2.68-.33-3.49.75-.57.77-.71,1.64-.22,2.54.5.91,1.25,1.5,2.29,1.56,1.03.07,2.26-.92,2.57-1.96.31-1.02-.12-2.14-1.16-2.89h0ZM24.09,7.34c-1.18-2.07-1.1-4.06.43-5.82,1.29-1.49,3.35-2.01,5.45-1.01,1.83.86,2.75,2.31,2.54,4.93-.12,1.6-1.52,3.2-3.24,3.71-1.8.53-3.7-.05-4.86-1.47-.09-.1-.19-.2-.32-.33M29.22,2.42c-.62-.29-1.23-.49-1.94-.27-1.11.34-2.11,1.61-1.96,2.7.2,1.41,1.15,2.35,2.54,2.49,1.02.1,2.23-.87,2.59-1.94.35-1.05-.12-2.22-1.23-2.97h0ZM13.6,16.35c-1.19,2.59-4.22,3.36-6.5,2.07-1.55-.87-2.25-2.24-2.28-4.07-.04-2.43,1.71-4.23,3.66-4.51,4.23-.62,6.58,3.24,5.12,6.51M9.77,11.81c-1.38,0-2.4.57-2.78,1.6-.43,1.14-.13,2.24.83,3.03.9.75,1.95.77,3.07.06.82-.52,1.27-1.68,1.04-2.65-.26-1.1-1-1.72-2.16-2.03h0ZM18.15,11.44c1.4-1.75,3.86-2.06,5.62-1.23,2.02.95,2.96,2.92,2.51,5.15-.41,2.06-2.16,3.56-4.12,3.66-2.53.13-4.44-1.42-4.88-3.5-.3-1.41-.18-2.84.87-4.08M19.81,16.05c.08.08.16.16.24.24.81.78,2.01.94,2.93.4,1.07-.63,1.63-1.81,1.35-2.85-.32-1.19-1.35-2-2.48-2.05-1.11-.04-1.89.5-2.38,1.39-.51.94-.43,1.92.33,2.86h0ZM38.7,15.33c-.8,3.25-4.24,4.74-7.04,2.99-1.27-.79-2.03-1.99-2.1-3.59-.08-1.94.57-3.48,2.31-4.4,1.53-.81,3.15-.81,4.66.07,1.34.79,2.12,2,2.23,3.58.03.43-.02.86-.05,1.34M36.01,16.19c.79-.93,1-1.94.41-3.05-.63-1.2-2.33-1.71-3.51-1.07-1.29.71-1.76,2.38-1.01,3.61.93,1.51,2.44,1.73,4.11.51h0Z" style="fill:#231f20;"/></g></svg>