<?xml version="1.0" encoding="UTF-8"?><svg id="Layer_2" xmlns="http://www.w3.org/2000/svg" viewBox="0 0 50.36 49.24"><g id="Layer_1-2"><path d="M.01,30.56c.3-2.44,3.65-3.54,5.76-3.19,1.14.19,2.16.74,3.06,1.44l-1.19-9.87c-.17-3.11,2.84-5.1,5.63-3.73v-.75c0-1.03,1.02-2.35,1.88-2.85.26-.15.54-.24.8-.39.04-.84-.08-1.71.1-2.54.54-2.43,3.44-3.59,5.53-2.25,0-.6-.02-1.17.1-1.76.58-2.81,3.95-3.93,6.19-2.21.76-1.81,2.59-2.79,4.53-2.35,1.61.37,2.85,1.9,2.91,3.55l.93-.46c2.05-.7,4.29.39,4.93,2.47.03.11.16.53.16.61v10.34c.07.02.09-.03.13-.06,1.24-.95,1.88-1.65,3.57-1.89,2.73-.38,7,1.75,4.66,4.83-.76,1-1.76,1.88-2.56,2.9-1.6,2.07-2.33,3.96-3.36,6.32-1.7,3.89-4.06,7.6-8.36,8.89-.08,1.5-.38,2.95-.99,4.32-2.43,5.45-8.24,7.3-13.83,7.32-6.13.02-9.45-2.74-12.46-7.75-1.52-2.53-2.53-4.56-4.72-6.67-.94-.91-3.23-2.41-3.39-3.71-.02-.13-.02-.43,0-.55ZM29.3,15.5c1.18-.13,2.46.46,3.17,1.41s.72,1.87.87,3.01c.7,5.28,1.25,10.58,1.92,15.86l.06.11c2.67-.99,4.48-3.1,5.8-5.54,1.09-2.02,1.76-4.21,2.87-6.21.82-1.47,1.82-2.85,2.93-4.11.34-.39,1.75-1.73,1.77-2.15.02-.55-.92-1.14-1.37-1.32-2.08-.83-4.04.2-5.3,1.86-.27.35-.72,1.25-.97,1.46-.51.44-1.32.13-1.36-.55V6.7c-.27-2.66-3.95-2.78-4.35-.13v9.85c-.13,1.16-1.58,1.03-1.66.09-.09-4.06.14-8.15-.04-12.2-.02-.47.05-.77-.13-1.24-.52-1.38-2.26-1.87-3.41-.94-.32.26-.81.95-.81,1.37v12ZM27.21,16.31c.13-.14.4-.19.43-.4V5.25c-.38-2.68-4.17-2.55-4.4.12v6.53s.07.1.07.1c1.41-.03,2.74.79,3.39,2.02.37.71.44,1.51.5,2.29ZM21.58,12.38v-3.13c-.24-1.78-2.47-2.38-3.57-.93-.61.81-.33,1.83-.39,2.78,1.19.17,2.34.91,2.85,2.01.06.04.22-.17.28-.21.25-.2.53-.4.82-.52ZM27.23,28.79c-.21-.21-.22-.46-.27-.74-.67-4.29-.87-8.69-1.61-12.98-1-2.46-4.58-1.54-4.24,1.13l1.41,11.6c.09.97-1.17,1.29-1.59.44l-1.72-13.89c-.49-1.77-2.87-2.23-3.91-.67-.46.69-.4,1.22-.33,2.01.35,4,1.06,7.99,1.44,11.99.04,1.05-1.32,1.28-1.63.3-.5-3.13-.64-6.39-1.15-9.51-.45-2.76-3.88-2.72-4.34-.09.38,4.37,1.08,8.72,1.48,13.08-.14.54-.68.81-1.19.57-.29-.13-.72-.84-.97-1.12-1.23-1.38-2.9-2.32-4.8-1.86-.61.15-1.4.56-1.81,1.05-.59.71-.32.99.25,1.53,1.38,1.31,2.67,2.23,3.92,3.75,3.12,3.78,4.46,9.07,9.28,11.23,3.33,1.49,8.96,1.1,12.27-.38,3.75-1.69,6.17-5.21,6-9.4l-2.25-18.26c-.74-2.17-3.81-1.8-3.92.53l1.09,9.08c-.02.74-.91,1.13-1.43.6Z"/><path d="M5.1,5.84c.35-.35.97-.31,1.26.09l3.56,4.89c.38.9-.69,1.62-1.38.91l-3.57-4.91c-.17-.3-.11-.74.14-.98Z"/><path d="M12.24,3.28c.63-.1.89.34.98.87.3,1.6.37,3.32.65,4.94.1.88-1.13,1.23-1.55.48-.07-.13-.09-.26-.11-.4-.32-1.7-.42-3.48-.65-5.2.02-.34.34-.64.67-.69Z"/><path d="M1.58,11.08c.19-.03.32.02.5.08,1.51.56,3.08,1.69,4.6,2.3.81.55.27,1.76-.7,1.51l-4.75-2.38c-.62-.43-.4-1.41.34-1.52Z"/></g></svg>