<?xml version="1.0" encoding="UTF-8"?><svg id="Layer_2" xmlns="http://www.w3.org/2000/svg" viewBox="0 0 37.88 59.75"><g id="Layer_1-2"><path d="M22.2,54.24h-7.43c-1.63,0-2.96-1.33-2.96-2.96v-.39c0-.43.09-.84.26-1.22.14-.31.51-.45.81-.31.31.14.45.51.31.82-.1.22-.15.46-.15.71v.39c0,.95.77,1.73,1.73,1.73h7.43c.34,0,.62.28.62.62s-.28.62-.62.62h0Z" style="fill:#231f20;"/><path d="M15.69,59.75c-.34,0-.62-.28-.62-.62v-3.13c0-1.65,1.33-2.99,2.96-2.99.34,0,.62.28.62.62s-.28.62-.62.62c-.94,0-1.73.8-1.73,1.76v3.13c0,.34-.28.62-.62.62h0Z" style="fill:#231f20;"/><path d="M18.85,59.75c-.34,0-.62-.28-.62-.62v-1.45c0-1.14.93-2.08,2.08-2.08h2.69c.95,0,1.73-.77,1.73-1.73v-.39c0-.95-.79-1.76-1.73-1.76-.34,0-.62-.28-.62-.62s.28-.62.62-.62c1.63,0,2.96,1.34,2.96,2.99v.39c0,1.63-1.33,2.96-2.96,2.96h-2.69c-.47,0-.85.38-.85.84v1.45c0,.34-.28.62-.62.62h0Z" style="fill:#231f20;"/><path d="M.82,47.28c-.06,0-.12,0-.19-.02-.44-.1-.72-.54-.62-.98l1.07-4.66-.37-9.26c-.15-3.66,2.36-6.86,6.24-7.96,3.28-.93,5.57-2,5.59-2.01.55-.29.74-.51,1.03-1.21.18-.42.66-.62,1.07-.44.42.18.61.66.44,1.07-.38.91-.78,1.5-1.82,2.04-.13.06-2.46,1.15-5.88,2.12-3.13.89-5.16,3.42-5.05,6.31l.38,9.48-1.12,4.88c-.09.38-.43.64-.8.64h0Z" style="fill:#231f20;"/><path d="M37.06,47.28c-.34,0-.66-.21-.78-.56l-1.67-4.91.38-9.53c.12-3-1.98-5.65-5-6.3-4.76-1.03-6.44-2.84-6.51-2.92-.31-.34-.28-.86.06-1.16.33-.3.85-.28,1.15.05.03.03,1.5,1.52,5.65,2.42,3.8.82,6.44,4.18,6.29,7.97l-.37,9.22,1.57,4.62c.15.43-.08.9-.51,1.04-.09.03-.18.04-.26.04h0Z" style="fill:#231f20;"/><path d="M7.61,51.25c-.45,0-.82-.37-.82-.82v-16.91c0-.45.37-.82.82-.82s.82.37.82.82v16.91c0,.45-.37.82-.82.82h0Z" style="fill:#231f20;"/><path d="M29.74,51.25c-.45,0-.82-.37-.82-.82v-16.91c0-.45.37-.82.82-.82s.82.37.82.82v16.91c0,.45-.37.82-.82.82h0Z" style="fill:#231f20;"/><path d="M24.09,23.33c-.23,0-.45-.09-.61-.28-1.62-1.83-1.69-5.04-1.58-6.78l.02-.13c.02-.11.6-2.65,1.78-4.35.09-.16,3.02-5.34-1.53-8.7-.17-.13-4.29-3.06-9.32-.2l-.08.04c-.1.04-2.52,1.19-1.97,4.79.03.29.15,1.58-.38,2.36l-.05.07-1.66,1.95,1.33.27.18.35s.33.64.52,1.33l.03.17.11,1.84v.07c-.05.43-.14.74-.15.78-.1.29-.14.66-.07.78.21.09,1.03.29,3.7-.28l.74-.16.21.73c.02.06.44,1.55-.15,3.72-.12.44-.57.69-1.01.57-.44-.12-.69-.57-.57-1.01.24-.87.28-1.59.26-2.08-2.44.45-3.38.23-3.91-.03l-.08-.02-.13-.1c-.94-.7-.78-1.99-.54-2.64h0s.04-.16.07-.38l-.1-1.61c-.07-.22-.15-.43-.22-.59l-.81-.17c-.62-.07-.93-.38-1.09-.63-.35-.55-.15-1.15-.1-1.27l.05-.13,2.12-2.49c.1-.19.15-.74.1-1.2-.59-3.83,1.62-5.91,2.91-6.49,5.97-3.36,10.87.18,11.07.33,4.6,3.39,3.28,8.61,1.94,10.9-.94,1.35-1.45,3.39-1.54,3.76-.07,1.24-.08,4.11,1.17,5.53.3.34.27.86-.07,1.16-.16.14-.35.21-.54.21h0Z" style="fill:#231f20;"/><path d="M24.73,51.73h-9.16c-.34,0-.62-.28-.62-.62s.28-.62.62-.62h9.16c.95,0,1.73-.78,1.73-1.73v-.39c0-.95-.78-1.73-1.73-1.73h-11.25c-.34,0-.62-.28-.62-.62s.28-.62.62-.62h11.25c1.63,0,2.96,1.33,2.96,2.96v.39c0,1.63-1.33,2.96-2.96,2.96h0Z" style="fill:#231f20;"/><path d="M21.7,45.31c-.09,0-.18-.02-.27-.06-.31-.15-.43-.52-.29-.82.11-.24.17-.49.17-.75v-3.5c0-.34.28-.62.62-.62s.62.28.62.62v3.5c0,.45-.1.88-.29,1.28-.11.22-.33.35-.56.35h0Z" style="fill:#231f20;"/><path d="M23.94,49.15h-11.22c-1.63,0-2.96-1.33-2.96-2.96v-.39c0-1.63,1.33-2.96,2.96-2.96h4.59c.47,0,.85-.38.85-.84v-1.81c0-.34.28-.62.62-.62s.62.28.62.62v1.81c0,1.14-.93,2.08-2.08,2.08h-4.59c-.95,0-1.73.77-1.73,1.73v.39c0,.95.78,1.73,1.73,1.73h11.22c.34,0,.62.28.62.62s-.28.62-.62.62h0Z" style="fill:#231f20;"/><path d="M18.73,28.47c-.34,0-.62-.28-.62-.62v-10c0-1.23-1-1.5-1.11-1.52l-7.1-.81c-.34-.04-.58-.34-.54-.68.04-.34.34-.58.68-.54l7.16.82c.78.16,2.14.92,2.14,2.74v10c0,.34-.28.62-.62.62h0Z" style="fill:#231f20;"/><path d="M22.21,33.38c-.1,0-.2-.02-.3-.08l-2.6-1.44c-.48-.27-1.11.02-1.11.02l-2.54,1.42c-.3.17-.67.06-.84-.24-.17-.3-.06-.67.24-.84l2.58-1.44c.08-.04,1.23-.59,2.28,0l2.59,1.44c.3.16.4.54.24.84-.11.2-.32.32-.54.32h0Z" style="fill:#231f20;"/><path d="M22.1,30.92c-.1,0-.2-.02-.3-.08l-1.8-1c-1.26-.6-1.89-1.39-1.89-2.39,0-.34.28-.62.62-.62s.62.28.62.62c0,.21,0,.71,1.22,1.3l1.83,1.02c.3.17.4.54.24.84-.11.2-.32.32-.54.32h0Z" style="fill:#231f20;"/><path d="M15.36,30.92c-.22,0-.43-.11-.54-.32-.17-.3-.06-.67.24-.84l1.8-1c1.26-.6,1.26-1.1,1.26-1.32,0-.34.28-.62.62-.62s.62.28.62.62c0,1-.63,1.79-1.92,2.41l-1.76.98c-.09.05-.2.08-.3.08h0Z" style="fill:#231f20;"/><path d="M11.3,39.2c-.57,0-.94-.21-1.15-.4-.5-.44-.54-1.07-.54-1.14-.74-7.43,3.93-10.78,4.13-10.91,1.06-.73,2.16-.74,3.09-.02l.15.11.76,2.27c.11.32-.06.67-.39.78-.32.11-.67-.06-.78-.39l-.64-1.9c-.46-.28-.93-.23-1.49.16-.17.12-4.27,3.1-3.6,9.81.03.38.34.4.5.39l4.87-1.29c.08-.03.94-.34,1.03-1.6v-3.67c0-.34.27-.62.61-.62s.62.28.62.62v3.71c-.14,2.21-1.86,2.73-1.93,2.75l-5.05,1.33c-.06,0-.13,0-.19,0h0Z" style="fill:#231f20;"/><path d="M26.27,39.2c-.06,0-.12,0-.19,0l-.11-.02-4.93-1.3c-.09-.02-1.8-.54-1.94-2.71v-3.75c0-.34.27-.62.61-.62s.62.28.62.62v3.71c.08,1.23.95,1.54,1.05,1.57l4.85,1.28c.17,0,.47,0,.5-.37.67-6.74-3.43-9.72-3.61-9.84-.56-.39-1.04-.43-1.5-.14l-.74,1.92c-.12.32-.48.47-.8.35-.32-.12-.47-.48-.35-.8l.87-2.25.14-.1c.93-.72,2.03-.72,3.09.02.2.14,4.88,3.48,4.13,10.95,0,.04-.04.66-.54,1.1-.21.19-.58.4-1.15.4h0Z" style="fill:#231f20;"/></g></svg>