<?xml version="1.0" encoding="UTF-8"?><svg id="Layer_2" xmlns="http://www.w3.org/2000/svg" viewBox="0 0 56.51 44.75"><g id="Layer_1-2"><g id="Generative_Object"><path d="M37.95,1.15c.43-.13,8.54-.11,8.97,0,.29.07.52.42.67.67v36.13c-.05.19-.64.75-.79.79-.41.11-8.08.1-8.49,0-.13-.03-.74-.55-.79-.67l-.12-36.01c.14-.25.21-.8.55-.91Z"/><path d="M22.55,11.58c.5-.11,8.31-.12,8.73,0,.12.04.5.56.67.67v25.7c-.05.19-.64.75-.79.79-.4.1-7.89.1-8.37,0-.38-.08-.66-.4-.91-.67l-.12-25.46c.22-.51.13-.88.79-1.03Z"/><path d="M6.91,22.25c.46-.11,8.31-.11,8.73,0,.22.06.73.68.79.91.2.85.19,13.45,0,14.43-.07.35-.56,1.06-.91,1.15-.4.11-7.89.1-8.37,0-.38-.08-.66-.4-.91-.67v-15.28c.06-.19.51-.51.67-.55Z"/><path d="M56.5,44.75l-55.03-.13c-.77,0-1.39-.62-1.39-1.39L0,0h2.79s.07,41.82.07,41.82l53.65.13v2.79Z"/></g></g></svg>