<?xml version="1.0" encoding="UTF-8"?><svg id="Layer_2" xmlns="http://www.w3.org/2000/svg" viewBox="0 0 57.78 46.62"><g id="Layer_1-2"><path d="M31.59,42.54c4.83-4.83,9.59-9.66,14.43-14.4,1.81-1.78,3.67-3.51,5.46-5.32,2.64-2.67,4.1-5.87,3.81-9.66-.29-3.87-2.16-6.9-5.47-8.99-2.16-1.37-4.54-1.89-7.05-1.67-2.76.25-5.2,1.3-7.22,3.24-1.33,1.28-2.61,2.6-3.92,3.9-.75.74-1.52.71-2.29-.03-1.57-1.51-2.98-3.2-4.7-4.55-4.48-3.51-10.33-3.54-14.76.03-2.25,1.81-3.61,4.22-4.04,7.13-.38,2.52.04,4.88,1.18,7.14.24.47.5.96.24,1.54-.21.45-.53.69-1.01.73-.5.04-.91-.07-1.17-.57-2.29-4.39-2.54-8.85-.38-13.35C6.72,3.56,10.11,1.11,14.6.25c2.88-.55,5.7-.17,8.43.96,2.21.92,3.95,2.43,5.56,4.14.6.64,1.22,1.26,1.85,1.89.69-.45,1.14-1.03,1.66-1.53,1.41-1.37,2.73-2.83,4.48-3.82,1.82-1.02,3.75-1.65,5.8-1.83,3.29-.29,6.39.41,9.18,2.23,3.37,2.2,5.39,5.36,6.01,9.3.75,4.79-.5,9.05-3.94,12.53-6.19,6.26-12.41,12.49-18.68,18.68-1.16,1.14-2.35,2.26-3.54,3.38-.62.59-1.19.57-1.83-.03-5.11-4.76-9.91-9.84-14.89-14.74-.47-.46-.49-1.35-.08-1.77.43-.44,1.33-.42,1.83.06,2.22,2.19,4.38,4.44,6.65,6.57,2.41,2.26,4.68,4.64,7.05,6.93.11.11.24.19.36.29.45-.23.72-.63,1.11-.97h0Z" style="fill:#231f20;"/><path d="M9.24,24.2c2.13,0,4.18-.02,6.23.01.56,0,.92-.19,1.23-.62.77-1.07,1.55-2.13,2.33-3.2.15-.21.31-.42.49-.6.73-.7,1.64-.54,2.1.36,1.01,2.02,2.02,4.04,3.03,6.06.16.32.33.64.54,1.02.45-.49.49-1.07.65-1.58,1.1-3.56,2.19-7.12,3.27-10.69.21-.69.58-1.15,1.36-1.11.57.03.94.29,1.14.87.99,2.81,2.01,5.6,3.01,8.4.43,1.22.42,1.22,1.73,1.23,1.27,0,2.55,0,3.82,0,.85,0,1.19.32,1.22,1.07.04.75-.41,1.34-1.17,1.35-2,.03-4,.03-6,0-.58,0-1-.35-1.21-.93-.78-2.14-1.57-4.27-2.36-6.4-.03-.09-.09-.18-.19-.38-.68,2.23-1.33,4.36-1.99,6.48-.57,1.85-1.14,3.71-1.74,5.55-.16.5-.41.97-1.05,1-.64.02-1.05-.27-1.34-.85-1.16-2.38-2.35-4.74-3.54-7.1-.16-.32-.26-.68-.65-.96-.72.95-1.45,1.88-2.13,2.84-.32.46-.68.63-1.23.63-5.12-.01-10.23,0-15.35-.01-.89,0-1.43-.44-1.44-1.15-.01-.73.57-1.28,1.45-1.28,2.57-.02,5.14,0,7.79,0h0Z" style="fill:#231f20;"/></g></svg>