<?xml version="1.0" encoding="UTF-8"?><svg id="Layer_2" xmlns="http://www.w3.org/2000/svg" viewBox="0 0 51.12 40.73"><g id="Layer_1-2"><path d="M28.24.62c3.24.77,6.22,1.98,8.85,3.96,3.28,2.47,5.75,5.53,6.71,9.63.12.52.35.85.84,1.11,2.64,1.36,4.72,3.31,5.77,6.12,1.33,3.53.76,6.84-1.52,9.85-.73.97-1.63,1.77-2.61,2.46-.41.29-.31.62-.2.96.28.94.59,1.87.88,2.81.05.16.13.32.16.49.1.6.29,1.29-.35,1.68-.61.37-1.27.27-1.86-.18-1.06-.8-2.18-1.52-3.16-2.4-.93-.84-1.93-.75-3.01-.6-2.72.36-5.37.02-7.96-.89-.14-.05-.29-.09-.41-.17-1.5-1.13-3.09-.46-4.66-.26-1.98.26-3.94.35-5.94.14-1.12-.12-2.23-.25-3.34-.48-.36-.07-.62-.02-.94.22-2.23,1.68-4.48,3.33-6.73,4.98-.22.16-.46.28-.68.44-.55.41-1.09.22-1.57-.09-.45-.3-.44-.82-.32-1.28.26-.99.57-1.98.87-2.96.4-1.31.8-2.63,1.22-3.93.13-.41,0-.63-.33-.85-1.11-.72-2.16-1.54-3.08-2.48C2.41,26.34.68,23.36.16,19.79c-.47-3.25.1-6.33,1.7-9.21C4.54,5.75,8.77,2.95,13.87,1.21,17.4,0,21.04-.1,24.7.06c1.16.05,2.31.36,3.53.56M24.14,2.49c-2.03-.03-4.04-.08-6.06.28-4.49.8-8.49,2.54-11.68,5.88-2.73,2.86-4.22,6.21-3.82,10.25.33,3.39,2.01,6.1,4.36,8.43,1.03,1.01,2.21,1.85,3.49,2.56.5.28.77.7.74,1.33-.03.53-.24,1-.36,1.49-.26,1.04-.74,2.04-.89,3.29,1.6-1.15,3.09-2.15,4.49-3.26.69-.55,1.35-.58,2.13-.41,2.21.46,4.45.79,6.71.61.82-.06,1.7.04,2.59-.39-1.19-1.04-1.97-2.25-2.55-3.58-1.15-2.61-1.17-5.24-.02-7.84,1.26-2.85,3.45-4.76,6.22-6.1,3.01-1.45,6.17-1.8,9.46-1.46.68.07,1.35.32,2.05.25.02-.1.04-.16.03-.2-.93-2.68-2.66-4.8-4.84-6.54-3.47-2.76-7.52-4.14-12.04-4.6M28.93,31.81c.37.24.73.51,1.12.71,3.22,1.64,6.6,2.07,10.13,1.25.64-.15,1.25-.1,1.8.37.48.41,1.01.75,1.57,1.15.06-.54-.18-.93-.3-1.34-.21-.73-.02-1.29.65-1.68,1.54-.89,2.8-2.04,3.71-3.58.93-1.59,1.29-3.31.89-5.09-.58-2.55-2.17-4.4-4.4-5.72-2.31-1.37-4.82-2.01-7.51-1.95-3.71.08-6.99,1.21-9.55,3.99-2.32,2.52-2.87,5.96-.94,9,.73,1.14,1.69,2.03,2.84,2.88h0Z" style="fill:#231f20;"/></g></svg>