<?xml version="1.0" encoding="UTF-8"?><svg id="Layer_2" xmlns="http://www.w3.org/2000/svg" viewBox="0 0 51.95 52.37"><g id="Layer_1-2"><g id="Generative_Object"><path d="M38.06,34c.08-.03.23.02.33,0,1.9,2.38,16.65,14.55,12.98,17.92-3.46,3.17-15.38-11.54-17.75-13.36l4.44-4.55Z"/><path d="M19.95,40.85C6.84,40.85.43,30.86.02,21.38-.41,11.29,6.03.72,19.16.03h0c7.59-.39,13.87,2.68,17.71,8.67,4.14,6.46,4.54,15.32,1,22.05-3.28,6.25-9.34,9.83-17.05,10.08-.3,0-.59.01-.88.01ZM19.32,3.03h0C7.61,3.64,2.66,12.9,3.02,21.25c.35,8.26,6.04,16.95,17.71,16.58,6.59-.22,11.73-3.23,14.49-8.48,3.05-5.8,2.7-13.45-.87-19.03-3.23-5.04-8.56-7.63-15.03-7.29Z" style="fill:#231f20;"/><rect x="8.03" y="18.04" width="25.22" height="5.33"/><rect x="8.03" y="18.04" width="25.22" height="5.33" transform="translate(41.34 .07) rotate(90)"/></g></g></svg>