<?xml version="1.0" encoding="UTF-8"?><svg id="Layer_2" xmlns="http://www.w3.org/2000/svg" viewBox="0 0 48.58 51.59"><g id="Layer_1-2"><path d="M42.07,49.8c-1.77,1.35-3.74,1.79-5.87,1.79-8.05-.02-16.11,0-24.16,0-3.2,0-5.7-1.29-7.42-4.02-.65-1.03-.9-2.19-1.06-3.37-.42-3.07-.84-6.13-1.24-9.2-.38-2.92-.73-5.83-1.12-8.75-.34-2.58-.69-5.16-1.06-7.74-.29-2.04-.14-3.95,1.2-5.66,1.07-1.35,2.47-2.04,4.12-2.2,1.13-.11,2.28,0,3.43-.03.49,0,.7.15.7.67-.02,1.96.14,1.57-1.53,1.63-.93.03-1.87-.14-2.79.15-2.16.69-3.2,2.54-2.84,4.78.37,2.26.61,4.55.91,6.82.29,2.12.61,4.24.89,6.36.28,2.1.54,4.2.82,6.29.32,2.4.58,4.82.97,7.21.41,2.55,2.93,4.6,5.51,4.6,3.48,0,6.96,0,10.44,0q1.21,0,1.21-1.25c0-4.96,0-9.92,0-14.89,0-.65.27-1.04.84-1.25.55-.2.95.1,1.29.48.25.29.17.64.17.97,0,4.96,0,9.92,0,14.89,0,1.03,0,1.04,1.02,1.04,3.59,0,7.17,0,10.76,0,2.66,0,5.15-2.38,5.45-5.04.28-2.54.69-5.06,1.03-7.6.34-2.53.65-5.07.98-7.6.34-2.53.7-5.06,1.03-7.59.19-1.46.38-2.92.51-4.38.18-1.9-1.3-3.9-3.85-4-.88-.03-1.77-.03-2.65,0-.57.02-.85-.14-.83-.78.05-1.77-.12-1.52,1.49-1.5,1.19.01,2.38-.15,3.57.14,2.55.61,4.46,2.76,4.59,5.38.08,1.62-.24,3.17-.43,4.75-.26,2.2-.56,4.4-.85,6.6-.28,2.1-.57,4.19-.85,6.29-.29,2.2-.57,4.4-.86,6.6-.22,1.64-.4,3.28-.7,4.9-.35,1.82-1.36,3.28-2.81,4.51h0Z" style="fill:#231f20;"/><path d="M23.71.02c3.47-.21,6.41.9,8.87,3.18,1.83,1.69,3.04,3.82,3.46,6.29.74,4.31-.27,8.16-3.52,11.2-1.97,1.85-4.34,2.92-7.09,3.16-3.23.28-6.12-.53-8.62-2.54-2.66-2.14-4.15-4.93-4.41-8.4-.23-2.97.45-5.65,2.19-8.04C16.82,1.84,19.84.2,23.71.02M30.38,4.56c-2.25-1.84-4.8-2.6-7.67-2.08-3.28.6-5.71,2.45-7.11,5.45-1.46,3.13-1.23,6.27.67,9.17,2.15,3.27,5.28,4.85,9.15,4.38,5.75-.69,9.34-6.04,8.35-11.23-.43-2.25-1.46-4.19-3.39-5.7h0ZM18.78,41.4c.28,1.12-.01,1.9-.82,2.3-.82.41-1.74.26-2.27-.37-.59-.71-.61-1.66-.05-2.36.87-1.1,2.46-.91,3.13.42h0ZM12.41,40.45c.95.69,1.2,1.29.95,2.12-.26.86-.78,1.32-1.58,1.36-.75.04-1.37-.21-1.74-.91-.4-.76-.38-1.62.17-2.17.59-.6,1.33-.75,2.2-.4h0ZM38.37,40.76c1.2,1.79-.07,3.19-1.31,3.18-.73,0-1.3-.29-1.64-.97-.38-.76-.29-1.52.22-2.11.47-.54,1.15-.76,1.91-.49.27.1.55.16.82.39h0ZM15.24,35.34c.46-1.42.8-1.67,2.11-1.63.87.03,1.54.71,1.57,1.59.03,1.01-.62,1.86-1.51,1.94-1.32.13-1.88-.34-2.17-1.9h0ZM30.32,40.67c.8-.47,1.55-.61,2.3-.04.74.57.92,1.86.37,2.58-.58.76-1.74.95-2.5.42-.82-.58-1.01-1.77-.42-2.7.05-.09.14-.15.26-.26h0ZM38.71,29.5c-.47.91-1.21,1.16-2.11,1.01-.6-.1-1.02-.47-1.25-1.03-.33-.81-.11-1.66.54-2.16.52-.4,1.59-.46,2.13-.11.77.5,1.01,1.24.69,2.29h0ZM32.91,30c-.92.75-2.27.72-2.82-.02-.65-.87-.45-2.16.44-2.74.65-.42,1.77-.33,2.31.2.57.55.62,1.61.08,2.56h0ZM38.72,34.72c.31,1.05-.08,2.04-.91,2.41-.9.39-1.89.07-2.35-.76-.49-.87-.28-1.83.51-2.4.84-.61,2.03-.31,2.75.75h0ZM11.27,33.7c1.69-.32,2.51,1.44,2.01,2.47-.38.79-1.21,1.23-2.19,1.05-.72-.14-1.31-.94-1.32-1.79-.01-.89.52-1.54,1.49-1.73h0ZM10.28,27.5c.8-.61,1.79-.7,2.4-.23.59.46.87,1.08.7,1.83-.17.72-.55,1.28-1.35,1.41-.87.14-1.61-.11-2.05-.89-.41-.72-.23-1.44.3-2.12h0ZM30.82,33.74c.27-.02.48-.04.69-.04.91,0,1.49.37,1.7,1.05.25.83.03,1.75-.53,2.13-.7.48-1.7.49-2.25.03-.7-.59-.9-1.43-.57-2.24.18-.44.51-.7.96-.94h0ZM17.8,30.46c-1.55.17-2.07-.1-2.43-1.23-.25-.76.12-1.69.81-2.06.77-.41,1.83-.19,2.38.51.5.63.49,1.62-.05,2.21-.19.21-.44.36-.71.57h0Z" style="fill:#231f20;"/><path d="M23.78,10.75c1.23-1.08,2.41-2.12,3.59-3.16.17-.15.33-.33.52-.47.53-.38,1.36-.31,1.71.12.36.44.33,1.28-.13,1.7-1.16,1.07-2.35,2.11-3.52,3.16-.31.28-.61.56-.92.83-.26.22-.51.45-.79.62-.53.31-1.34.17-1.62-.28-.35-.55-.28-1.09.18-1.55.31-.31.63-.62.98-.97h0Z" style="fill:#231f20;"/></g></svg>