<?xml version="1.0" encoding="UTF-8"?><svg id="Layer_2" xmlns="http://www.w3.org/2000/svg" viewBox="0 0 32.5 48"><g id="Layer_1-2"><path d="M16.5,13c-3.38,0-6.57,1.16-8.54,3.1-.42.42-.85.83-1.27,1.24-3.59,3.49-6.68,6.49-6.68,9.18,0,.91.22,1.69.56,2.4,0,0,0,0,0,0l3.13,8.77-1.74,9.11c-.1.54.25,1.07.79,1.17.06.01.13.02.19.02.47,0,.89-.33.98-.81l1.84-9.64-1.66-4.65c1.67,1.49,4.11,3.47,5.12,4.28l-1.69,9.65c-.1.54.27,1.06.81,1.16.06,0,.12.01.17.01.48,0,.9-.34.98-.83l1.79-10.24c.06-.36-.08-.73-.36-.96-.03-.03-3.48-2.76-5.54-4.61l-.36-.32c-1.7-1.51-3.04-2.71-3.04-4.52s3.09-4.85,6.08-7.75c.43-.42.86-.83,1.28-1.25,1.58-1.56,4.32-2.52,7.14-2.52,4,0,4,1.46,4,3v10c0,2.02-1.81,2.68-3,2.9v-9.9c0-.55-.45-1-1-1s-1,.45-1,1v1.57l-4.26,3.98-1.02-.98c-.4-.38-1.03-.37-1.41.03-.38.4-.37,1.03.03,1.41l1.71,1.63s0,0,0,0c0,0,0,0,0,0l1.93,1.77c.19.18.43.26.68.26.27,0,.54-.11.74-.32.37-.41.35-1.04-.06-1.41l-1.13-1.04,2.79-2.61v6.7c0,.55.45,1,1,1,2.07,0,6-1.04,6-5v-10c0-2.47-.71-5-6-5Z" style="fill:#231f20;"/><path d="M16.56,34.59c-.53-.14-1.08.17-1.23.7l-3.13,11.44c-.15.53.17,1.08.7,1.23.09.02.18.04.26.04.44,0,.84-.29.96-.74l3.13-11.44c.15-.53-.17-1.08-.7-1.23Z" style="fill:#231f20;"/><path d="M28,11c-2.48,0-4.5,2.02-4.5,4.5s2.02,4.5,4.5,4.5,4.5-2.02,4.5-4.5-2.02-4.5-4.5-4.5ZM28,18c-1.38,0-2.5-1.12-2.5-2.5s1.12-2.5,2.5-2.5,2.5,1.12,2.5,2.5-1.12,2.5-2.5,2.5Z" style="fill:#231f20;"/><path d="M9.36,9.45c-.3.46-.18,1.08.28,1.39.17.11.36.17.55.17.32,0,.64-.16.84-.45,1.95-2.96.83-4.48.08-5.49-.64-.87-.99-1.34.97-3.36.38-.4.38-1.03-.02-1.41-.4-.38-1.03-.38-1.41.02-2.91,2.99-2.2,4.52-1.15,5.94.63.85,1.04,1.41-.14,3.2Z" style="fill:#231f20;"/><path d="M15.36,9.45c-.3.46-.18,1.08.28,1.38.17.11.36.17.55.17.32,0,.64-.16.84-.45,1.95-2.96.83-4.48.08-5.49-.64-.87-.99-1.34.97-3.36.39-.4.38-1.03-.02-1.41-.4-.38-1.03-.38-1.41.02-2.91,2.99-2.2,4.52-1.15,5.94.63.85,1.04,1.41-.14,3.2Z" style="fill:#231f20;"/><path d="M23.11,5.06c-.64-.87-.99-1.34.97-3.36.38-.4.38-1.03-.02-1.41-.4-.38-1.03-.38-1.41.02-2.91,2.99-2.2,4.52-1.15,5.94.63.85,1.04,1.41-.14,3.2-.3.46-.18,1.08.28,1.39.17.11.36.17.55.17.32,0,.64-.16.83-.45,1.95-2.96.83-4.48.08-5.49Z" style="fill:#231f20;"/></g></svg>