<?xml version="1.0" encoding="UTF-8"?><svg id="Layer_2" xmlns="http://www.w3.org/2000/svg" viewBox="0 0 46.04 56.15"><g id="Layer_1-2"><path d="M44.92,56.15h-5.61c-.62,0-1.12-.5-1.12-1.12,0-10.53-6.85-16.23-15.81-22.59-.3-.21-.47-.55-.47-.92s.18-.71.47-.92l1.62-1.15c1.06-.75,2.13-1.51,3.2-2.29.39-.29.93-.29,1.32,0,8.48,6.15,17.53,13.88,17.53,27.86,0,.62-.5,1.12-1.12,1.12h0ZM40.4,53.9h3.37c-.47-11.88-8.32-18.87-15.92-24.44-.86.62-1.72,1.23-2.57,1.82l-.33.23c8.29,5.99,14.99,12.04,15.45,22.38h0Z" style="fill:#231f20;"/><path d="M18.19,29.2c-.23,0-.46-.07-.66-.21C9.05,22.83,0,15.1,0,1.12,0,.5.5,0,1.12,0h5.61c.62,0,1.12.5,1.12,1.12,0,10.53,6.85,16.23,15.81,22.6.3.21.47.55.47.92s-.18.7-.47.91l-1.62,1.15c-1.06.75-2.13,1.51-3.2,2.29-.2.14-.43.21-.66.21h0ZM2.27,2.25c.47,11.88,8.32,18.87,15.92,24.44.86-.62,1.72-1.23,2.56-1.82l.33-.23C12.8,18.64,6.09,12.59,5.64,2.25h-3.37Z" style="fill:#231f20;"/><path d="M6.74,56.15H1.12c-.62,0-1.12-.5-1.12-1.12,0-15.51,11.02-23.29,20.75-30.16,8.97-6.33,17.43-12.3,17.43-23.74,0-.62.5-1.12,1.12-1.12h5.61c.62,0,1.12.5,1.12,1.12,0,15.51-11.03,23.29-20.75,30.16-8.96,6.33-17.43,12.3-17.43,23.74,0,.62-.5,1.12-1.12,1.12h0ZM2.27,53.9h3.37c.51-11.86,9.19-17.98,18.35-24.45,9.04-6.38,19.25-13.59,19.79-27.21h-3.37c-.51,11.86-9.19,17.98-18.35,24.45-9.04,6.38-19.25,13.59-19.78,27.2h0Z" style="fill:#231f20;"/><path d="M38.84,6.79H7.21c-.53,0-.99-.37-1.1-.9-.07-.33,0-.73.22-.99.21-.26.52-.47.86-.47h31.68c.34,0,.65.15.87.41.21.26.3.6.23.93,0,.02-.02.1-.03.13-.13.49-.59.89-1.1.89h0Z" style="fill:#231f20;"/><path d="M36.76,12.41H9.28c-.42,0-.8-.23-.99-.6l-.05-.09c-.19-.35-.19-.77.01-1.12.2-.34.57-.55.97-.55h27.6c.4,0,.76.21.97.55.2.34.21.76.02,1.11,0,0-.06.11-.07.11-.2.35-.58.58-.99.58h0Z" style="fill:#231f20;"/><path d="M32.54,18.02H13.52c-.3,0-.59-.12-.81-.34l-.12-.12c-.31-.33-.39-.8-.21-1.21s.58-.68,1.03-.68h19.23c.45,0,.86.27,1.03.69.18.42.09.9-.23,1.22l-.11.12c-.21.21-.5.33-.79.33h0Z" style="fill:#231f20;"/><path d="M25.94,23.64h-5.84c-.24,0-.47-.08-.67-.22l.51-.73-.59.68c-.39-.29-.59-.82-.44-1.28.15-.46.54-.8,1.03-.8h6.15c.48,0,.91.31,1.07.77.15.46-.01.97-.4,1.25l-.15.11c-.19.14-.43.22-.67.22h0Z" style="fill:#231f20;"/><path d="M26.1,34.87h-6.15c-.49,0-.91-.31-1.07-.77-.15-.46.01-.97.4-1.25l.15-.11c.19-.14.43-.22.67-.22h5.84c.24,0,.47.08.67.22.39.29.63.85.47,1.31-.15.46-.51.83-.99.83h0Z" style="fill:#231f20;"/><path d="M32.57,40.48H13.48c-.62,0-1.12-.5-1.12-1.12,0-.29.11-.64.31-.86.21-.23.52-.38.84-.38h19.02c.3,0,.58.12.79.33.21.21.37.54.37.84,0,.62-.5,1.19-1.12,1.19h0Z" style="fill:#231f20;"/><path d="M36.82,46.09H9.22c-.4,0-.76-.21-.97-.55-.2-.34-.21-.76-.02-1.11,0-.01.05-.09.06-.1.2-.34.6-.6.99-.6h27.48c.42,0,.8.23.99.6.19.35.21.82.01,1.16-.2.34-.55.6-.94.6h0Z" style="fill:#231f20;"/><path d="M38.86,51.71H7.18c-.34,0-.65-.15-.87-.41-.21-.26-.3-.6-.23-.93,0-.02.02-.1.03-.13.13-.49.59-.89,1.1-.89h31.63c.53,0,.99.38,1.1.9l.03.12c.07.33-.02.67-.23.93-.21.26-.53.41-.87.41h0Z" style="fill:#231f20;"/></g></svg>