<?xml version="1.0" encoding="UTF-8"?><svg id="Layer_2" xmlns="http://www.w3.org/2000/svg" viewBox="0 0 51.22 59.88"><g id="Layer_1-2"><path d="M36.49,59.88h-2v-8.59l12.93-5.84c1.3-.59,2.01-1.98,1.73-3.38l-2.77-13.73c-.11-.57-.45-1.05-.92-1.33-1.07-.63-2.23-.67-3.17-.13-.87.5-1.4,1.44-1.4,2.46v8.83l-.69.23c-3.95,1.41-8.22,2.12-12.77,2.12h-3.64s0,0-.01,0c-4.55,0-8.83-.71-12.72-2.1l-.66-.24-.09-.74v-8.1c0-1.02-.53-1.96-1.4-2.46-.96-.55-2.09-.51-3.17.13-.47.27-.8.76-.92,1.33l-2.77,13.73c-.28,1.4.43,2.79,1.73,3.38l12.93,5.84v8.59h-2v-7.3l-11.75-5.31c-2.16-.97-3.34-3.28-2.87-5.59l2.77-13.73c.23-1.13.91-2.1,1.87-2.66,1.71-1,3.59-1.05,5.18-.14,1.49.86,2.41,2.47,2.4,4.2v7.38c3.58,1.19,7.41,1.78,11.48,1.78h3.65c4.09,0,7.94-.6,11.46-1.78v-7.39c0-1.73.91-3.34,2.4-4.19,1.59-.91,3.47-.86,5.18.14.96.56,1.64,1.53,1.87,2.66l2.77,13.73c.47,2.32-.71,4.62-2.87,5.59l-11.75,5.31v7.3ZM25.68,36.54c-7.14,0-12.94-5.81-12.94-12.94s5.81-12.94,12.94-12.94,12.94,5.81,12.94,12.94-5.81,12.94-12.94,12.94ZM25.68,12.65c-6.03,0-10.94,4.91-10.94,10.94s4.91,10.94,10.94,10.94,10.94-4.91,10.94-10.94-4.91-10.94-10.94-10.94Z" style="fill:#231f20;"/><path d="M7.41,13.4c-.29-.05-.6.02-.83.2l-1.55,1.13-1.08-1.58c-.34-.5-1.02-.63-1.53-.29-.5.34-.63,1.02-.29,1.53l1.72,2.52c.17.25.43.41.72.46.29.05.6-.02.84-.2l1.55-1.13,1.08,1.58c.21.31.56.48.91.48.21,0,.43-.06.62-.19.5-.34.63-1.02.29-1.53l-1.72-2.52c-.17-.25-.43-.41-.72-.46h0Z" style="fill:#231f20;"/><path d="M11.04,11.5c.1.53.56.89,1.08.89.07,0,.14,0,.21-.02.6-.11.99-.69.87-1.29l-.61-3.14c-.11-.57-.64-.96-1.22-.88l-2.15.28-.41-2.12c-.11-.59-.68-.99-1.28-.87-.6.11-.99.69-.87,1.29l.6,3.14c.11.57.64.96,1.22.88l2.15-.29.41,2.13h0Z" style="fill:#231f20;"/><path d="M17.32,9.03c.09.02.18.03.27.03.49,0,.94-.33,1.06-.83l.76-3.04c.15-.58-.2-1.17-.79-1.33l-1.98-.52.5-1.98c.15-.59-.21-1.18-.8-1.33-.58-.15-1.18.21-1.33.8l-.76,3.03c-.15.58.2,1.17.78,1.33l1.98.52-.49,1.99c-.15.59.21,1.18.8,1.33h0Z" style="fill:#231f20;"/><path d="M42.42,18.1c.35,0,.7-.17.91-.48l1.08-1.58,1.55,1.13c.24.18.54.25.84.2.29-.05.55-.22.72-.46l1.72-2.52c.34-.5.21-1.18-.29-1.53-.5-.34-1.18-.21-1.53.29l-1.08,1.58-1.55-1.13c-.24-.18-.54-.25-.83-.2-.29.05-.55.22-.72.46l-1.72,2.52c-.34.5-.21,1.18.29,1.53.19.13.4.19.62.19h0Z" style="fill:#231f20;"/><path d="M44.1,8.78l.6-3.14c.11-.6-.28-1.17-.87-1.29-.6-.11-1.17.28-1.29.87l-.41,2.12-2.15-.28c-.57-.07-1.11.31-1.22.88l-.61,3.14c-.11.6.28,1.17.87,1.29.07.01.14.02.21.02.52,0,.98-.37,1.08-.89l.41-2.13,2.15.29c.57.07,1.11-.31,1.22-.88h0Z" style="fill:#231f20;"/><path d="M31.96,5.2l.76,3.04c.12.5.57.83,1.06.83.09,0,.18-.01.27-.03.59-.15.95-.74.8-1.33l-.49-1.99,1.98-.52c.58-.15.93-.75.78-1.33l-.76-3.03c-.15-.59-.74-.95-1.33-.8-.59.15-.95.74-.8,1.33l.5,1.98-1.98.52c-.58.15-.93.74-.78,1.33h0Z" style="fill:#231f20;"/></g></svg>