<?xml version="1.0" encoding="UTF-8"?><svg id="Layer_2" xmlns="http://www.w3.org/2000/svg" viewBox="0 0 52.59 51.17"><g id="Layer_1-2"><path d="M31.63,51.17c-3.64,0-6.61-2.96-6.61-6.61v-13.62c0-3.64,2.96-6.61,6.61-6.61,1.74,0,3.44.71,4.67,1.94,1.23,1.23,1.94,2.93,1.94,4.67v13.62c0,3.64-2.96,6.61-6.61,6.61h0ZM31.63,26.39c-2.51,0-4.55,2.04-4.55,4.55v13.62c0,2.51,2.04,4.55,4.55,4.55s4.55-2.04,4.55-4.55v-13.62c0-1.2-.49-2.37-1.34-3.22-.85-.85-2.02-1.34-3.22-1.34h0Z" style="fill:#231f20;"/><path d="M37.21,38.77h-11.16c-.57,0-1.03-.46-1.03-1.03v-6.8c0-3.64,2.96-6.61,6.61-6.61,1.74,0,3.44.71,4.67,1.94,1.23,1.23,1.94,2.93,1.94,4.67v6.8c0,.57-.46,1.03-1.03,1.03h0ZM27.08,36.72h9.11v-5.77c0-1.2-.49-2.37-1.34-3.22-.85-.85-2.02-1.34-3.22-1.34-2.51,0-4.55,2.04-4.55,4.55v5.77h0Z" style="fill:#231f20;"/><path d="M31.63,51.17c-3.64,0-6.61-2.96-6.61-6.61v-6.82c0-.57.46-1.03,1.03-1.03h11.16c.57,0,1.03.46,1.03,1.03v6.82c0,3.64-2.96,6.61-6.61,6.61h0ZM27.08,38.77v5.79c0,2.51,2.04,4.55,4.55,4.55s4.55-2.04,4.55-4.55v-5.79h-9.11Z" style="fill:#231f20;"/><path d="M46.01,25.56c-.77,0-1.55-.14-2.3-.41-1.66-.61-2.98-1.82-3.72-3.42l-5.72-12.36c-1.53-3.31-.09-7.24,3.22-8.77,1.58-.73,3.42-.8,5.05-.2,1.64.6,2.99,1.85,3.72,3.42l5.72,12.36c1.53,3.31.09,7.24-3.22,8.77-.87.41-1.81.61-2.75.61h0ZM40.26,2.05c-.66,0-1.31.14-1.91.42-2.28,1.05-3.27,3.77-2.22,6.05l5.72,12.36c.51,1.1,1.42,1.93,2.57,2.35,1.15.42,2.38.38,3.48-.13,2.28-1.05,3.27-3.77,2.22-6.05h0l-5.72-12.36c-.5-1.09-1.44-1.95-2.56-2.36-.51-.19-1.04-.28-1.57-.28h0Z" style="fill:#231f20;"/><path d="M38.06,16.14c-.39,0-.76-.22-.93-.6l-2.85-6.17c-1.53-3.31-.09-7.24,3.22-8.77,1.58-.73,3.42-.8,5.05-.2,1.64.6,2.99,1.85,3.72,3.42l2.85,6.17c.11.25.13.53.03.79-.09.26-.29.46-.53.58l-10.13,4.69c-.14.07-.29.1-.43.1h0ZM40.26,2.05c-.66,0-1.31.14-1.91.42-2.28,1.05-3.27,3.77-2.22,6.05l2.42,5.24,8.27-3.82-2.42-5.24h0c-.5-1.09-1.44-1.95-2.56-2.36-.51-.19-1.04-.28-1.57-.28h0Z" style="fill:#231f20;"/><path d="M46.01,25.56c-.77,0-1.55-.14-2.3-.41-1.66-.61-2.98-1.82-3.72-3.42l-2.86-6.19c-.11-.25-.13-.53-.03-.79.09-.26.29-.46.53-.58l10.13-4.69c.25-.11.53-.13.79-.03.26.09.46.29.58.53l2.86,6.19c1.53,3.31.09,7.24-3.22,8.77-.87.41-1.81.61-2.75.61h0ZM39.42,15.61l2.43,5.26c.51,1.1,1.42,1.93,2.57,2.35,1.15.42,2.38.38,3.48-.13,2.28-1.05,3.27-3.77,2.22-6.05l-2.43-5.26-8.27,3.82h0Z" style="fill:#231f20;"/><path d="M6.62,34.63c-.28,0-.57-.02-.85-.05-1.76-.22-3.32-1.12-4.39-2.51-2.23-2.89-1.69-7.04,1.19-9.27l10.78-8.32c1.39-1.07,3.12-1.54,4.88-1.31,1.76.23,3.31,1.12,4.39,2.5,1.06,1.38,1.54,3.15,1.32,4.88-.22,1.73-1.14,3.33-2.51,4.39l-10.78,8.32c-1.17.9-2.57,1.37-4.02,1.37h0ZM17.36,15.16c-1,0-1.97.33-2.76.94L3.82,24.42c-1.99,1.53-2.36,4.4-.82,6.39.74.96,1.82,1.57,3.03,1.73,1.21.15,2.4-.17,3.36-.91h0l10.78-8.32c.95-.73,1.58-1.83,1.73-3.02.15-1.19-.18-2.42-.91-3.36-.74-.96-1.81-1.57-3.02-1.72-.2-.03-.4-.04-.6-.04h0Z" style="fill:#231f20;"/><path d="M15.41,29.31c-.31,0-.61-.14-.81-.4l-6.82-8.83c-.17-.22-.24-.49-.21-.76.03-.27.18-.52.39-.68l5.38-4.15c1.39-1.07,3.12-1.54,4.88-1.31,1.76.23,3.31,1.12,4.39,2.5,1.06,1.38,1.54,3.15,1.32,4.88-.22,1.73-1.14,3.33-2.51,4.39l-5.38,4.15c-.19.14-.41.21-.63.21h0ZM10.03,19.63l5.57,7.21,4.57-3.53h0c.95-.73,1.58-1.83,1.73-3.02.15-1.19-.18-2.42-.91-3.36-.74-.96-1.81-1.57-3.02-1.72-1.21-.16-2.41.16-3.36.9l-4.57,3.53h0Z" style="fill:#231f20;"/><path d="M6.62,34.63c-.28,0-.57-.02-.85-.05-1.76-.22-3.32-1.12-4.39-2.51-2.23-2.89-1.69-7.04,1.19-9.27l5.4-4.17c.45-.34,1.09-.26,1.44.19l6.82,8.83c.17.22.24.49.21.76-.03.27-.18.52-.39.68l-5.4,4.17c-1.16.9-2.57,1.37-4.02,1.37h0ZM8.41,20.88l-4.58,3.54c-.96.74-1.57,1.81-1.72,3.02-.16,1.21.16,2.41.9,3.36.74.96,1.82,1.57,3.03,1.73,1.21.15,2.4-.17,3.36-.91l4.59-3.54-5.57-7.21h0Z" style="fill:#231f20;"/></g></svg>