<svg xmlns="http://www.w3.org/2000/svg" xml:space="preserve" viewBox="0 0 416 400"><path d="M195.042 346.649c32.447.106 60.65-10.114 85.486-30.237 9.014-7.303 16.48-15.846 23.293-25.082 3.987-5.406 10.742-6.605 15.069-2.555 3.13 2.93 3.62 8.493.789 12.743-8.445 12.678-18.899 23.432-30.95 32.776-21.384 16.58-45.6 26.402-72.238 29.859-27.554 3.576-54.173-.387-79.74-11.687-17.737-7.838-33.404-18.612-46.7-32.5-21.335-22.286-34.403-48.873-39.473-79.432-3.995-24.077-2.104-47.697 5.293-70.77 5.828-18.182 15.032-34.615 27.432-49.367 24.18-28.766 55.052-45.592 91.766-51.416 20.97-3.327 42.051-2.024 62.67 3.764 5.263 1.477 7.831 6.305 6.464 12.193-.99 4.263-6.29 7.47-11.101 6.009-14.367-4.363-29.064-5.165-43.9-4.565-19.964.807-38.4 7.017-55.8 16.498-12.992 7.08-24.204 16.586-33.741 27.733-15.711 18.363-26.07 39.475-30.397 63.46-5.444 30.172.007 58.473 14.4 85.175 9.103 16.886 21.726 30.805 37.23 42.19 17.059 12.53 36.092 20.242 56.827 23.789 5.52.944 11.145 1.863 17.321 1.422z"/><path d="M239.896 166.712c20.004 5.98 24.882 35.55 4.65 48.735 5.764 3.254 10.118 7.526 12.891 13.423 9.307 19.787-2.568 40.906-24.52 42.285-10.467.657-21.218 1.684-31.233-3.75-8.073-4.382-13.097-10.58-13.984-19.755-1.141-11.8 1.214-22.21 12.39-28.763a11.577 11.577 0 0 0 1.62-1.118c.233-.197.318-.567 1.129-2.12-2.257-1.936-5.333-3.795-7.353-6.455-6.941-9.141-7.291-19.471-3.034-29.59 4.056-9.64 12.808-13.415 22.646-14.883 8.274-1.235 16.447-.948 24.798 1.991m-30.494 71.355c-.122 8.885 2.47 12.716 9.726 14.372 7.528 1.719 15.803-1.3 18.336-6.69 2.904-6.177.123-12.874-6.436-16.748-9.96-5.882-12.877-3.945-19.628 4.235-.916 1.11-1.276 2.679-1.998 4.831m15.888-30.878c4.443-2.097 8.42-4.757 10.224-9.594 3.499-9.376-2.503-15.738-14.134-15.23-4.799.209-7.76 2.992-9.408 6.966-1.544 3.723-.895 7.525 2.07 10.598 3.025 3.136 6.512 5.62 11.248 7.26zM328.349 131.987c0 13.68 0 13.68 12.974 13.68 7.497 0 14.994-.044 22.49.013 6.523.05 9.394 2.765 9.526 8.83.12 5.534-3.762 9.69-9.563 9.774-9.827.143-19.663.228-29.485-.032-4.422-.116-6.226 1.006-6.05 5.825.358 9.816.125 19.654.078 29.483-.024 4.966-3.62 9.175-8.131 9.689-4.168.475-8.046-2.433-9.599-6.939-1.685-4.892-.738-9.906-.885-14.86-.178-5.993-.237-12.002.015-17.99.164-3.892-1.126-5.296-5.115-5.2-9.657.231-19.324.151-28.986.042-6.97-.078-9.902-3.016-9.96-9.572-.05-5.744 2.92-8.971 8.722-9.037 9.828-.11 19.666-.257 29.484.071 4.759.16 6.003-1.594 5.874-6.076-.273-9.488-.215-18.992-.017-28.484.177-8.476 6.156-12.428 13.81-9.582 3.798 1.412 4.756 4.354 4.785 7.878.06 7.33.027 14.66.033 22.487zM152.283 270.006c-2.283-1.927-1.576-4.226-1.582-6.299-.06-22.302-.028-44.605-.07-66.908-.004-1.946.494-3.993-.879-6.234-4.692.505-8.878 2.922-13.203 4.719-3.426 1.423-4.896.675-6.367-2.762-5.544-12.958-5.708-12.962 6.904-18.569 5.907-2.626 11.887-5.113 17.94-7.38 5.123-1.92 10.528-.81 15.804-.703 2.96.06 2.467 2.676 2.476 4.56.06 11.318.042 22.636.042 33.954 0 20.139-.125 40.28.08 60.416.045 4.438-1.371 5.924-5.722 5.61-4.97-.36-9.976-.193-15.423-.404z"/></svg>