<svg xmlns="http://www.w3.org/2000/svg" xml:space="preserve" viewBox="0 0 416 400"><path d="M157.651 76.942c1.032-12.509 2.033-24.557 3.113-36.598.294-3.283 1.932-4.765 5.556-4.754 36.984.117 73.97.12 110.954.004 3.947-.013 5.24 1.278 5.125 5.182-.235 7.99-.281 16 .025 23.985.169 4.392-1.268 5.717-5.673 5.683-24.822-.186-49.646-.09-74.469-.084-7.003.002-7.494.782-7.994 7.603-.97 13.205-2.115 26.404-3.585 39.562-.447 4.004 1.51 4.067 4.253 4.13 13.28.303 26.47 1.63 39.311 5.056 17.687 4.719 33.586 12.541 44.628 27.97 7.752 10.83 11.73 23.11 12.318 36.226.602 13.41.775 26.846-4.053 39.876-7.353 19.847-21.048 33.318-40.592 40.492-28.782 10.566-57.844 9.903-86.681-.071-9.508-3.289-17.633-9.183-25.327-15.574-1.758-1.46-3.713-3.237-2.37-5.966 4.908-9.978 9.892-19.918 14.927-30.03 4.068 1.537 6.327 4.56 9.18 6.698 16.343 12.248 34.307 18.11 54.916 15.522 10.6-1.331 20.544-3.676 28.723-11.036 5.387-4.847 8.654-10.911 10.025-17.918 2.248-11.483 1.642-22.744-4.139-33.205-6.1-11.038-16.24-16.946-27.885-20.24-19.73-5.581-40.053-5.15-60.307-5.106-7.285.015-7.06.005-6.193-7.165.974-8.055 1.467-16.167 2.207-24.25 1.298-14.179 2.629-28.354 3.93-42.532.092-.993.054-1.997.077-3.46zM179.598 302.118c4.941-1.122 9.38-.207 13.726.807 6.245 1.457 9.571 6.244 10.72 11.986 2.266 11.323 1.172 22.872 1.254 34.335.015 2.052-.977 3.253-3.027 3.02-2.968-.34-6.171 1.319-8.915-1.481-1.238-1.264-2.651.66-3.944 1.162-6.602 2.569-13.378 3.334-19.558-.39-6.19-3.731-7.127-10.144-5.977-16.767.983-5.665 6.492-10.088 12.702-11.16 5.065-.875 10.19-.93 15.24-1.173.424-6.898-4.73-11.404-10.99-9.749-2.847.753-5.776 1.535-8.205 3.46-2.197 1.74-4.264 2.458-6.055-.743-1.634-2.919-3.254-5.657.263-8.305 3.662-2.758 7.738-4.5 12.766-5.002m13.02 34.967c.478-3.424-.958-4.977-4.452-4.725-2.464.177-4.916-.116-7.38.7-2.787.923-5.197 2.359-4.698 5.411.487 2.977 3.079 5.203 6.08 4.928 4.025-.369 8.255-1.222 10.45-6.314zM231.423 353.585c-9.278 1.464-16.142-2.766-18.066-10.785-2.255-9.402 1.103-15.418 10.409-18.375 4.45-1.414 9.047-1.855 13.735-1.837 4.13.016 5.033-1.717 3.017-5.264-2.136-3.758-5.635-5.237-9.671-4.612-2.725.422-5.906 1.197-7.804 2.97-3.872 3.616-5.757 1.952-8.015-1.538-2.548-3.937-.713-6.043 2.615-7.924 8.037-4.542 16.462-6.061 25.359-3.115 7.111 2.355 11.055 8.4 11.28 17.61.222 9.144-.042 18.3.097 27.447.051 3.335-1.444 4.785-4.479 4.18-6.163-1.227-12.12-.376-18.477 1.243m10.209-17.22c-.758-7.27-6.321-3.473-9.623-3.72-3.24-.243-6.612 1.386-6.592 5.782.011 2.556 1.858 3.788 3.881 4.656 4.274 1.833 10.573-1.259 12.334-6.718zM151.187 368.055c-2.567 2.903-5.49 4.002-8.924 4.636-9.775 1.806-12.018-.389-9.956-10.339 9.38-.966 10.338-2.047 10.344-11.73.009-14.307.24-28.62-.098-42.918-.134-5.669 3.183-4.979 6.721-5.087 3.7-.114 6.27.106 6.176 5.138-.29 15.465.034 30.942-.195 46.41-.07 4.736-.61 9.614-4.068 13.89zM264.668 319.003c0-3.657-.21-6.832.07-9.964.195-2.186-1.479-5.77 2.237-6.088 3.542-.303 8.06-2.317 10.146 2.874 2.248-1.028 4.265-2.35 6.469-2.848 2.332-.527 5.4-1.361 7.034.746 1.622 2.09.806 5.129.49 7.743-.25 2.07-2.076 1.71-3.518 1.883-7.765.937-11.218 4.714-11.25 12.345-.032 7.311-.257 14.633.06 21.93.213 4.881-2.591 4.724-5.995 4.782-3.616.06-5.982-.34-5.833-4.992.297-9.296.09-18.607.09-28.411zM152.825 284.772c2.453 2.123 3.631 10.534 1.746 11.64-3.267 1.92-7.59 1.928-10.419.294-3.264-1.886-1.251-6.319-1.302-9.629-.04-2.625 2.3-2.32 4.058-2.386 1.811-.068 3.628.012 5.917.081z"/></svg>