<svg xmlns="http://www.w3.org/2000/svg" xml:space="preserve" viewBox="0 0 416 400"><path d="M269.567 278.626c.824-17.352 2.487-34.17 3.891-51.011.482-5.779.456-11.626 1.573-17.324 1.679-8.56 6.905-14.862 14.118-19.916-4.717-3.693-9.628-3.487-14.56-2.588-5.38.98-10.614 2.513-15.74 4.482-4.345 1.67-7.68.251-9.378-3.688-1.847-4.283.657-6.835 4.073-8.252 16.078-6.668 32.135-9.888 47.758 1.375 5.25 3.784 8.1 9.15 10.107 15.033 6.654 19.497 10.156 39.79 14.843 59.778 5.025 21.433 9.582 42.976 14.314 64.477 1.682 7.643-.559 10.345-8.617 10.347-59.485.014-118.97.009-178.455.007-21.495 0-42.99.018-64.484-.033-5.568-.013-8.331-2.24-8.303-6.374.025-3.745 1.793-5.956 5.634-6.219 1.493-.102 2.998-.056 4.497-.056 30.659-.006 61.318-.009 91.977-.012h7.297c-8.23-9.467-7.881-19.868-6.774-30.89 1.009-10.035.214-20.252.214-30.664-2.722 8.652-8.746 13.818-16.307 17.97-14.977 8.225-29.498 17.291-44.576 25.316-13.529 7.2-27.407-.214-28.691-15.317-.697-8.194 3.66-14.482 11.041-18.597 12.185-6.794 24.202-13.89 36.395-20.667 3.708-2.06 5.766-3.969 4.378-8.863-4.422-15.58-2.963-31.647-3.161-47.567-.024-1.926.415-3.92-.738-6.483-2.683 4.719-5.25 8.914-7.508 13.268-5.4 10.414-14.346 12.3-24.004 8.807-8.127-2.939-12.028-12.88-8.421-22.312 3.668-9.594 8.199-18.86 12.46-28.222 1.414-3.11 3.928-5.783 6.748-7.195 12.008-6.01 23.373-13.477 36.607-16.838 15.044-3.821 32.506 3.013 41.021 16.06 2.267 3.474 4.885 6.744 6.881 10.361 1.976 3.58 4.449 3.802 7.838 2.461 4.31-1.705 8.63-3.479 13.092-4.682 10.4-2.804 18.533 1.757 21.79 11.868 2.8 8.695-1.89 18.173-11.037 21.69-10.056 3.868-20.154 7.652-30.37 11.068-3.792 1.269-2.479 3.69-2.355 5.971.741 13.65 8.564 24.572 14.228 36.295 1.493 3.089 2.518 6.028 2.507 9.443-.052 15.329-.176 30.66.042 45.987.113 7.956-1.2 15.181-7.598 20.358.941 1.606 2.048 1.338 2.988 1.34 14.997.03 29.994-.056 44.988.093 3.71.037 4.746-1.328 4.962-4.954.688-11.57 1.815-23.113 2.815-35.13m-114.219-92.129c.032 7.142.673 14.291.75 21.387.122 11.378 1.291 22.471 3.916 33.505 1.594 6.7-.21 9.372-6.372 12.838-14.17 7.971-28.168 16.249-42.281 24.321-3.326 1.902-5.36 4.372-3.314 8.064 2.103 3.794 5.491 3.871 9.034 1.83 15.834-9.122 31.683-18.219 47.479-27.406 3.638-2.116 5.424-5.385 6.274-9.65.929-4.66.555-9.274.864-13.9.389-5.813 5.71-9.334 10.17-6.15 7.954 5.677 14.724 12.317 14.533 23.43-.265 15.49-.057 30.99-.057 46.487 0 3.52 1.185 6.396 4.963 6.995 3.215.51 6.129-2.85 6.316-6.928.717-15.617 1.378-31.235 1.076-46.878-.043-2.244-.712-4.166-1.597-6.183-5.493-12.515-14.042-23.738-15.138-38.117-.715-9.387-2.559-18.684-3.725-28.042-.329-2.634.925-4.785 3.258-6.274 2.292-1.464 4.342-.906 6.544.264 2.683 1.426 3.76 4.132 5.472 6.33 1.63 2.092 3.022 3.277 6.159 1.874 6.956-3.11 14.17-5.668 21.36-8.221 3.003-1.067 5.56-2.446 4.275-5.936-1.22-3.31-4.215-3.305-7.178-2.192-5.742 2.157-11.475 4.34-17.223 6.482-6.328 2.357-9.541 1.128-12.928-4.476-3.175-5.252-6.386-10.504-9.943-15.498-8.263-11.596-21.473-14.974-34.366-8.852-7.511 3.566-14.875 7.444-22.328 11.136-2.62 1.298-4.824 3.067-6.034 5.726-3.642 8-7.156 16.06-10.727 24.094-.62 1.396-1.14 2.756-.176 4.242.837 1.292 1.76 2.713 3.385 2.604 2.342-.156 3.825-1.852 4.908-3.802 3.791-6.824 7.628-13.624 11.286-20.52 3.222-6.075 9.02-7.696 14.975-8.18 3.78-.306 6.477 2.14 6.404 6.602-.098 5.997-.017 11.996-.014 18.994m126.003 104.159c-.32 7.61-.685 15.221-1.888 22.753-.621 3.894.694 5.381 4.778 5.317 12.493-.197 24.992-.06 37.488-.102 1.422-.005 3.045.47 4.646-1.712-8.836-38.196-16.686-77.176-26.83-115.443-7.214.684-11.53 8.393-12.058 13.495-1.246 12.02-2.152 24.075-3.127 36.122-1.042 12.875-2.006 25.756-3.009 39.57zM195.502 115.513c-9.364 8.786-20.032 10.721-31.507 6.653-11.118-3.943-17.664-12.512-19.116-23.997-1.519-12.012 2.462-22.641 13.032-29.254 11.676-7.305 30.338-6.882 40.869 6.757 8.764 11.352 7.48 28.873-3.278 39.841m-4.124-18.674c1.061-4.81-1.029-8.836-3.516-12.57-4.15-6.235-12.11-8.597-18.89-5.943-6.685 2.618-12.155 10.533-11.404 16.501 1.067 8.473 7.601 15.192 15.369 15.803 8.432.664 15.526-4.428 18.441-13.79z"/></svg>