<svg xmlns="http://www.w3.org/2000/svg" xml:space="preserve" viewBox="0 0 416 400"><path d="M150.525 215.57c-8.507 7.47-17.743 12.3-29.063 11.755-3.185-.153-4.771 1.084-5.752 4.14a6215.545 6215.545 0 0 1-20.555 62.933c-1.038 3.12-.614 4.54 2.508 6.142 8.124 4.17 16.28 8.525 20.38 17.492 1.68 3.678 2.978 7.245 1.467 11.468-1.62 4.527-4.49 6.655-8.999 5.194a7730.828 7730.828 0 0 1-64.761-21.292c-5.099-1.702-5.924-9.1-1.637-13.724 4.882-5.265 11.479-6.299 18.152-6.99 5.18-.537 10.295.35 15.337 1.265 2.683.488 3.579-.424 4.309-2.669 7.392-22.724 14.838-45.43 22.254-68.095-19.397-12.458-21.779-31.094-19.73-51.638 3.53-35.366 16.072-68.333 26.653-101.828 1.682-5.325 4.79-6.486 11.664-4.288 17.221 5.507 34.407 11.125 51.593 16.742 7.41 2.422 14.794 4.927 22.174 7.44 6.643 2.261 7.978 4.838 5.839 11.245-8.512 25.49-16.537 51.169-27.368 75.808-6.164 14.022-13.205 27.604-24.465 38.9m4.645-29.842c7.91-15.321 14.697-31.098 19.913-47.467-2.205-1.33-4.08-.878-5.856-.882-18.82-.042-37.642-.073-56.463-.011-9.348.03-7.86-1.14-10.102 7.856-3.855 15.459-7.175 31.036-4.319 47.15 1.848 10.425 7.597 17.404 17.868 20.393 9.44 2.747 17.125-.248 24.005-6.928 5.927-5.756 10.426-12.46 14.954-20.111m-37.813-91.102c-3.034 9.72-6.64 19.284-8.591 29.197.808.4 1.1.671 1.392.672 22.279.052 44.558.083 66.837.115 1.569.002 3.018-.233 3.619-1.991 2.39-7.001 4.778-14.003 7.3-21.396l-65.621-21.784c-1.76 5.333-3.257 9.872-4.936 15.187zM364.279 317.46c-16.441 5.442-32.49 10.794-48.55 16.11-3.76 1.245-7.711 3.092-10.958-.89-3.19-3.91-2.837-8.496-1.182-12.765 3.326-8.58 10.627-13.441 18.148-17.79 6.705-3.879 7.349-2.038 4.473-10.809-6.51-19.853-13.044-39.699-19.498-59.57-.897-2.763-1.888-4.656-5.427-4.44-16.722 1.025-27.876-8.464-36.898-20.81-15.69-21.475-23.844-46.53-32.604-71.243-3.714-10.477-7.27-21.01-10.85-31.535-3.333-9.795-1.815-12.071 7.904-15.181 21.821-6.983 43.535-14.305 65.26-21.585 13.6-4.557 15.381-3.892 19.684 9.627 8.193 25.74 16.967 51.321 22.011 77.954 2.546 13.44 3.612 26.907 1.649 40.548-1.56 10.842-7.067 19.116-15.659 25.592-1.654 1.247-3.587 2.124-2.593 5.112 7.537 22.657 14.905 45.371 22.392 68.269 8.339-.451 16.332-2.638 24.41-.424 4.837 1.326 9.577 2.557 12.84 6.834 4.51 5.913 3.202 11.252-3.676 13.786-3.414 1.257-6.987 2.084-10.876 3.21m-53.623-106.25c3.746-1.637 6.779-4.079 9.035-7.549 5.124-7.878 6.322-16.762 5.754-25.74-.751-11.883-3.402-23.534-5.82-35.191-.795-3.827-2.463-5.516-6.707-5.471-19.98.212-39.963.079-59.945.106-1.604.002-3.35-.46-4.97 1.062-.108 4.145 2.182 7.77 3.614 11.557 6.758 17.864 13.981 35.519 25.764 50.85 7.652 9.958 19.186 16.76 33.275 10.377M293.5 124.656c5.322-.001 10.648-.112 15.967.034 3.713.102 4.57-1.11 3.544-4.786-3.738-13.392-8.015-26.598-12.72-39.757-.582.067-1.074.043-1.513.185-20.319 6.582-40.626 13.202-60.956 19.747-2.644.85-2.724 2.41-1.961 4.613 1.574 4.542 3.35 9.043 4.494 13.696 1.189 4.838 3.648 6.522 8.734 6.397 14.463-.356 28.94-.128 44.41-.13z"/></svg>