<svg xmlns="http://www.w3.org/2000/svg" xml:space="preserve" viewBox="0 0 416 400"><path d="M338 258.348c-68.144 0-135.787-.07-203.43.129-5.408.016-7.513-1.669-8.748-6.825-8.756-36.556-17.824-73.039-26.75-109.554-3.895-15.932-7.745-31.875-11.495-47.84-.84-3.582-2.384-5.213-6.405-5.016-7.48.364-14.992.2-22.487.07-3.218-.056-4.653 1.145-4.356 4.398.12 1.322.022 2.664.017 3.997-.022 6.648-.038 6.37-6.523 6.722-4.752.259-6.59-1.192-6.26-6.118.39-5.806.183-11.658.07-17.487-.057-2.932.994-4.194 4.052-4.179 15.827.08 31.656.115 47.482-.04 3.259-.032 4.4 1.611 5.066 4.249 1.664 6.59 3.48 13.146 4.93 19.783.61 2.791 1.908 3.86 4.674 4.084 10.884.886 21.754 1.938 32.628 2.945 13.677 1.266 27.348 2.596 41.03 3.81 9.074.804 18.166 1.405 27.243 2.184 14.674 1.258 29.338 2.638 44.015 3.868 9.577.802 19.177 1.33 28.75 2.16 13.682 1.188 27.345 2.601 41.025 3.802 9.409.826 18.837 1.422 28.252 2.184 5.936.48 11.853 1.233 17.796 1.566 4.341.243 4.888 2.648 4.834 6.308-.172 11.66-.061 23.324-.061 34.987 0 27.824-.122 55.648.108 83.47.042 5.062-1.402 6.653-6.472 6.45-9.481-.381-18.989-.109-28.985-.107M246.34 221.5c0 6.496.136 12.996-.055 19.486-.1 3.398.978 4.74 4.537 4.719a4699.86 4699.86 0 0 1 58.962.014c3.695.024 4.96-1.265 4.923-4.945-.145-14.49-.144-28.982.003-43.47.037-3.641-1.14-5.017-4.87-4.994-19.654.123-39.308.115-58.962.004-3.505-.02-4.661 1.27-4.583 4.702.177 7.824.05 15.656.045 24.484m-70.762 24.167c17.663-.003 35.326-.064 52.988.041 3.479.02 5.181-.854 5.14-4.744-.154-14.828-.109-29.66-.025-44.489.017-2.983-1.066-4.16-4.092-4.15-19.662.074-39.325.064-58.987.012-2.817-.007-4.314.77-4.294 3.953.094 15.163.077 30.326.006 45.49-.012 2.749.99 4.044 3.797 3.882 1.494-.086 2.998-.003 5.467.005m-9.243-112.108c.005 13.488.09 26.977-.039 40.464-.032 3.42 1.067 4.709 4.587 4.687 19.316-.118 38.633-.124 57.95.007 3.744.025 4.918-1.368 4.878-4.993-.146-13.153-.211-26.312.031-39.463.073-3.947-1.63-5.663-5.078-5.77-4.653-.143-9.255-.661-13.881-1.061-13.69-1.185-27.411-2.007-41.101-3.194-7.353-.638-7.335-.845-7.344 6.352 0 .666 0 1.332-.003 2.97m119.958-.2c-11.079-.612-22.146-1.382-33.147-2.87-5.801-.785-6.802-.026-6.806 5.743-.008 12.495.104 24.991-.05 37.485-.045 3.59.977 5.029 4.793 5 19.49-.142 38.984-.14 58.475.015 3.96.031 5.23-1.36 5.16-5.239-.193-10.659-.225-21.327.008-31.984.102-4.669-1.924-6.005-6.243-6.217-7.101-.347-14.175-1.247-22.19-1.932M139.48 178.658c2.33-.001 4.685-.219 6.985.043 4.739.538 6.397-1.222 6.301-6.116-.283-14.474-.096-28.957-.102-43.437-.002-6.707-.813-7.585-7.767-7.76-7.295-.182-14.507-1.377-21.757-1.764-4.952-.264-9.978-1.664-15.62-.713 4.774 19.554 9.383 38.503 14.048 57.438.562 2.282 2.551 2.305 4.438 2.304 4.16-.004 8.321.002 13.474.005M359.65 224.5c0-9.152-.094-18.306.046-27.456.052-3.388-1.095-4.816-4.61-4.743-7.818.162-15.641.096-23.461.03-2.826-.023-4.313.893-4.298 4.016a4911.94 4911.94 0 0 1 0 45.428c-.011 2.719.963 3.94 3.783 3.91 8.153-.086 16.308-.09 24.46.005 3.032.035 4.149-1.291 4.095-4.217-.099-5.323-.02-10.649-.015-16.973m-27.786-45.84c7.823-.004 15.646-.03 23.469.002 2.413.01 4.315-.367 4.306-3.431-.034-10.818-.016-21.637-.002-32.456.003-1.895-.548-3.215-2.732-3.384-8.414-.654-16.825-1.35-25.236-2.041-2.78-.229-4.384.58-4.353 3.817.108 11.317.074 22.636.026 33.954-.011 2.567 1.133 3.672 4.522 3.538m-194.983 60.19c.442 5.166 2.78 7.944 8.391 6.86 1.285-.249 2.655-.077 3.985-.065 2.256.022 3.37-1.053 3.37-3.332-.003-15.468.004-30.937.019-46.406.001-1.89-.6-3.409-2.723-3.427-7.895-.066-15.79-.026-24.278-.026 3.775 15.774 7.348 30.705 11.236 46.396zM322.029 330.394c-22.548 9.909-46.477-6.646-45.215-29.946.904-16.685 8.935-27.66 27.357-29.878 19.852-2.388 35.411 10.832 35.853 30.57.281 12.592-4.29 23.94-17.995 29.254m1.137-18.694c4.86-7.424 4.679-17.041-1.169-22.472-6.13-5.693-14.097-8.198-22.784-2.908-6.443 3.923-10.013 11.384-8.789 18.711 1.176 7.04 6.474 12.681 13.48 14.35 6.837 1.63 14.686-1.296 19.262-7.681zM203.78 272.882c21.896 10.51 22.448 38.163 9.715 51.356-10.746 11.132-29.71 13.138-43.155 2.052-14.1-11.627-15.132-29.95-5.334-44.885 3.923-5.98 10.359-8.799 17.101-10.341 7.188-1.645 14.41-1.409 21.673 1.818m3.845 33.284c1.92-6.137-.596-14.94-5.283-18.485-6.027-4.558-14.98-5.472-20.592-2.102-7.31 4.39-11.042 13.076-8.988 20.917 1.96 7.477 8.196 12.746 15.574 13.155 8.995.5 16.06-4.215 19.289-13.485z"/></svg>