<svg xmlns="http://www.w3.org/2000/svg" xml:space="preserve" viewBox="0 0 416 400"><path d="M267.812 224.347c1.339-2.826-.654-4.089-2.016-5.375-13.15-12.421-23.96-26.682-33.057-42.244-5.875-10.05-11.043-20.473-14.979-31.464-.605-1.69-1.192-3.389-1.921-5.464-4.392 1.883-8.36 3.712-12.982 3.626-9.985-.184-16.3-4.722-18.48-14.604-1.236-5.61-3.904-11.286-2.436-17.083 3.122-12.332 9.942-16.614 24.06-14.844 2.602.326 3.978.131 5.874-1.867 5.88-6.199 13.14-8.835 21.67-6.447 3.191.893 5.322.606 7.417-2.58 4.431-6.743 11.435-8.428 18.9-7.12 7.294 1.28 12.101 6.008 14.081 13.197 1.407 5.108 2.531 10.277 2.433 15.676-.162 8.863-3.652 14.49-12.005 17.388-4.143 1.437-2.6 3.52-1.336 5.64 5.976 10.022 13.036 19.288 21.45 27.327 10.502 10.034 22.082 18.762 36.027 23.515 9.082 3.096 18.526 5.13 27.607 8.227 11.83 4.035 23.213 8.98 32.192 18.27 8.138 8.419 12.323 18.562 12.906 29.951.783 15.277-1.277 30.469-2.683 45.665-.275 2.977.035 6.011-.282 8.981-.316 2.96-.797 6.135-4.132 7.382-4.742 1.774-8.442-.663-8.347-6.006.123-6.944 1.14-13.867 1.418-20.814.495-12.366 3.073-24.69 1.338-37.099-2.242-16.033-13.375-24.594-26.942-30.716-10.459-4.719-21.642-7.25-32.656-10.347-14.405-4.05-26.966-11.732-38.385-21.42-21.192-17.981-34.927-41.046-45.71-66.173-1.564-3.646-3.255-6.958-7.907-7.164-5.7-.253-9.549 4.063-8.346 9.594 6.143 28.256 17.134 54.446 34.452 77.67 7.22 9.684 15.089 18.99 24.956 26.28 3.838 2.836 4.42 6.561 2.264 10.584-9.97 18.606-14.064 38.86-16.774 59.493-.41 3.115-.162 6.324-.13 9.49.043 4.14-1.608 6.703-6.05 6.854-4.53.155-6.484-2.75-6.485-6.553a142.668 142.668 0 0 1 1.164-18.357c2.27-17.517 6.859-34.442 13.832-51.069M254.981 112.55c4.513 1.69 9.395-.982 9.127-5.32-.223-3.592-.847-7.268-2.016-10.657-1.037-3.005-3.164-5.602-7.037-5.134-3.378.408-5.406 3.19-5.141 5.799.519 5.117.599 10.641 5.067 15.312m-57.137 15.89c1.921 1.882 3.758 3.85 6.872 2.183 3.215-1.722 4.442-4.42 3.863-7.856-.548-3.249-1.024-6.609-2.276-9.61-1.165-2.792-3.587-5.125-7.051-3.957-3.181 1.072-5.64 3.416-4.724 7.15.94 3.826 1.123 7.862 3.316 12.09z"/><path d="M111.987 193.99c5.312 4.723 11.884 7.755 16.537 13.478 7.504 9.229 11.352 20.182 15.92 30.839 3.057 7.129 6.18 14.23 9.603 22.102 1.535-6.938 5.881-11.426 9.04-16.577 5.118-8.346 10.521-16.52 15.917-24.692 2.197-3.328 5.13-4.321 9.048-2.569 17.414 7.792 34.92 15.378 52.32 23.203 5.687 2.558 6.693 6.364 3.388 11.642-6.08 9.71-12.321 19.317-18.38 29.04-1.232 1.976-2.92 2.966-5.53 3.334 4.605 5.586 6.75 11.36 6.577 18.228-.328 13.01-8.706 22.15-21.728 22.267-22.821.205-45.65.303-68.468-.066-9.94-.16-17.48-5.6-21.612-14.513-6.833-14.744-13.056-29.772-19.432-44.726-1.477-3.463-.246-6.483 3.169-7.812 3.358-1.306 6.597-.796 8.295 3.137 4.869 11.275 9.733 22.553 14.67 33.798 1.602 3.65 3.161 7.36 5.2 10.767 3.415 5.706 9.214 7.627 15.349 7.701 18.989.229 37.99.398 56.97-.06 8.615-.209 13.591-1.731 14.99-9.217 1.237-6.626-2.485-11.31-9.117-11.946-16.64-1.594-33.263-3.353-49.894-5.036-3.422-.346-4.977-2.435-6.26-5.51-7.8-18.674-15.172-37.544-24.106-55.72-7.437-15.131-20.798-23.183-36.532-21.634-16.609 1.634-27.093 11.216-32.696 26.693-3.537 9.772-4.304 20.04-5.814 30.167-2.318 15.544-4.32 31.135-6.453 46.706-.225 1.636-.436 3.275-.652 4.912-.587 4.45-3.256 6.772-7.277 6.355-4.61-.477-5.769-3.613-5.288-7.465 1.272-10.18 2.76-20.332 4.204-30.49 1.886-13.266 3.66-26.55 5.762-39.784 2.629-16.552 8.46-31.573 23.05-41.355 13.338-8.942 28.049-10.079 43.34-6.066 1.746.458 3.389 1.411 5.608.98.312-.092.282-.111.282-.111m68.349 46.763c-3.471 5.46-6.906 10.945-10.43 16.37-1.536 2.364-3.102 4.739-4.93 6.872-2.229 2.6-5.675.531-8.868 1.778 2.215 3.093 1.314 8.114 6.21 8.776 9.17 1.24 18.39 2.152 27.605 3.034 6.394.611 7.637-.86 5.671-6.848-1.272-3.876-.887-7.03 3.005-8.765 3.753-1.674 6.834.418 8.906 4.651 1.658 3.388 1.81 7.644 5.229 10.355 4.75-10.017 12.122-18.066 16.855-28.161-10.974-4.838-21.583-9.442-32.13-14.184-12.193-5.482-9.16-6.112-17.123 6.122z"/><path d="M112.033 194.018c-3.691-2.166-7.526-4.152-11.085-6.547-24.108-16.226-28.461-49.774-9.748-72.03 18.014-21.426 52.318-22.962 72.039-2.256 13.587 14.265 16.717 31.785 10.72 50.032-5.92 18.008-19.624 28.512-38.201 31.892-7.662 1.394-15.524.043-23.496-1.197-.275.078-.245.097-.23.106m19.194-82.656c-13.194-.755-23.999 3.647-31.991 14.491-8.551 11.602-9.353 26.747-2.141 39.386 6.319 11.073 22.093 19.696 35.699 17.643 17.652-2.663 33.901-19.629 30.949-40.534-2.296-16.253-15.337-29.348-32.516-30.986zM379.129 142.345c-4.288 16.5-13.722 28.037-29.705 33.293-27.425 9.019-55.967-8.067-59.57-36.044-4.384-34.04 25.012-58.236 56.26-50.5 19.459 4.817 34.431 23.145 33.258 42.338-.212 3.485-.104 6.989-.243 10.913m-19.63 11.64c4.792-5.99 7.824-12.757 8.098-20.454.458-12.91-9.12-26.666-20.975-31.16-13.14-4.981-28.815-.948-37.467 10.454-11.401 15.025-9.105 33.701 5.899 45.901 12.904 10.493 32.631 8.633 44.444-4.741zM354.786 256.765c.69 9.51-1.197 18.462-2.058 27.48-.358 3.744-.154 7.539-1.166 11.327-1.153 4.32-3.744 5.061-7.395 4.71-3.594-.348-4.744-2.718-4.488-5.932.721-9.065 1.362-18.143 2.42-27.17.29-2.477.407-4.937.581-7.407.21-2.98.93-5.519 4.429-6.312 3.248-.737 5.863-.298 7.677 3.304z"/></svg>