<svg xmlns="http://www.w3.org/2000/svg" xml:space="preserve" viewBox="0 0 416 400"><path d="M144.428 344.73c-14.873-10.644-25.789-24.366-35.125-39.41-9.828-15.837-15.902-33.13-18.92-51.5-2.4-14.6-3.615-29.18-1.872-44.04 1.788-15.253 5.717-29.758 14.207-42.481 8.317-12.465 21.534-18.38 35.396-22.48 15.329-4.534 30.722-3.116 46.17.187 8.544 1.827 17.364 3.555 26.019 3.372 11.357-.239 22.737-1.856 33.865-4.732 21.17-5.473 41.526-4.51 59.836 8.95 11.893 8.744 19.407 20.735 24.284 34.5 5.578 15.741 6.56 31.84 5.299 48.468-1.307 17.22-4.704 33.74-11.107 49.732-5.726 14.3-13.518 27.267-23.572 38.97-5.425 6.316-11 12.38-17.504 17.616-14.803 11.918-31.53 12.566-47.95 5.873-15.922-6.489-30.516-6.003-46.149.34-14.308 5.807-28.92 5.15-42.877-3.366m-38.994-85.518c3.402 13.05 7.935 25.636 14.834 37.31 8.007 13.55 17.74 25.689 30.076 35.46 10.617 8.41 22.3 7.8 34.294 2.729 8.912-3.767 18.145-6.415 28.01-6.06 8.77.315 17.018 2.826 24.959 6.216 12.113 5.172 24.053 5.09 34.264-3.217 12.787-10.402 23.213-23.123 31.147-37.759 9.64-17.782 14.758-36.76 16.892-56.85 2.128-20.032.31-39.138-9.818-56.847-9.457-16.537-23.508-25.459-42.969-25.965-10.363-.27-19.948 3.032-29.883 4.696-15.819 2.65-31.544 3.268-47.51.762-13.319-2.092-26.516-6.49-40.342-3.35-18.692 4.243-34.285 11.398-41.768 31.555-8.753 23.577-7.1 46.822-2.186 71.32zM222.287 96.257c-2.815 4.19-6.472 3.781-9.925 2.164-3.653-1.71-3.172-5.329-2.288-8.328 4.427-15.018 14.542-24.479 29.192-29.54a277.55 277.55 0 0 1 35.002-9.571c1.928-.395 3.983-.373 5.964-.267 3.95.213 6.802 3.23 5.919 6.984-3.99 16.962-8.261 33.88-17.746 48.833-5.718 9.014-14.006 15.024-23.943 18.605-10.216 3.682-20.78 5.597-31.721 5.256-3.564-.11-5.881-1.308-7.346-4.71-3.566-8.28-8.56-15.733-14.055-22.845-4.022-5.206-9.281-9.02-14.74-12.535-4.382-2.82-5.845-6.174-3.902-9.745 1.963-3.61 6.516-4.52 10.855-2.105 7.95 4.427 14.494 10.467 20.054 17.62 4.184 5.385 8.113 10.939 11.042 17.129 1.098 2.318 2.62 3.716 5.41 3.461 13.04-1.19 25.225-4.5 34.462-14.533 3.856-4.189 6.029-9.45 8.283-14.658 2.777-6.414 4.658-13.074 6.67-19.407-1.062-1.877-2.385-1.787-3.711-1.394-9.376 2.776-18.88 5.21-27.764 9.402-8.446 3.985-12.493 11.544-15.712 20.184z"/><path d="M137.66 202.598c-1.874 4.811-3.621 9.278-5.233 13.794-1.394 3.907-4.122 5.48-8.107 4.796-3.96-.681-5.05-3.6-4.606-7.045 1.864-14.453 8.478-26.354 19.927-35.376 3.345-2.635 6.914-5.197 11.335-5.95 3.702-.63 7.002.354 8.026 4.082 1.005 3.659.396 7.11-4.163 8.785-8.059 2.96-13.282 9.057-17.179 16.914z"/></svg>