<svg xmlns="http://www.w3.org/2000/svg" xml:space="preserve" viewBox="0 0 416 400"><path d="M200.448 39.915c11.58 2.175 18.926 8.507 22.264 19.448 1.153 3.781.504 7.605.578 11.404.043 2.21.542 3.706 2.647 4.822a459.16 459.16 0 0 1 17.81 9.942c1.87 1.1 3.14.984 4.948-.167 10.643-6.776 21.335-6.431 31.777.442 2.02 1.33 3.558 1.258 5.453.132 5.567-3.308 11.201-6.504 16.747-9.847 2.075-1.251 2.93-2.678 2.43-5.685-1.688-10.13 1.7-18.863 9.826-25.133 8.092-6.244 17.328-7.434 26.784-3.317 11.16 4.858 17.644 15.675 16.592 26.864-1.124 11.957-9.008 21.092-21.267 24.008-6.898 1.64-13.667.469-19.553-3.53-3.6-2.447-6.642-3.386-10.138-.11-1.061.994-2.485 1.69-3.854 2.254-9.644 3.976-14.369 9.981-13.644 21.541.564 8.998-6.98 15.174-15.027 18.797-3.597 1.62-4.689 3.436-4.53 7.043.227 5.156.136 10.33.037 15.494-.049 2.544.962 3.768 3.402 4.7 11.078 4.231 17.002 12.561 16.45 24.475-.286 6.15 1.902 9.639 7.26 11.845 1.67.688 3.23 1.705 4.731 2.733 6.266 4.288 11.867 6.258 19.822 1.882 11.39-6.266 28.897.502 34.361 14.666 5.016 13.001-.727 29.046-13.624 34.317-3.446 1.408-4.773 3.089-4.41 6.568.155 1.484.206 3.023-.004 4.493-1.133 7.906.942 13.278 8.85 17.4 8.8 4.585 11.775 13.81 11.006 23.46-.825 10.357-6.287 18.118-15.978 22.308-8.674 3.75-17.213 3-25.188-2.132-2.72-1.75-4.863-1.838-7.67.071-4.381 2.98-8.996 5.722-13.8 7.938-4.141 1.91-5.743 4.597-5.215 8.997 1.085 9.034-2.288 16.216-9.258 21.916-8.569 7.008-18.218 8.086-27.963 3.821-9.274-4.059-15.51-11.681-15.167-22.083.251-7.657-2.01-12.217-8.995-14.79-1.366-.504-2.503-1.61-3.78-2.383-5.683-3.443-10.632-6.26-17.92-1.598-7.282 4.659-16.118 3.515-23.646-1.223-3.633-2.286-6.548-2.234-10.023-.073-4.51 2.804-9.224 5.275-13.817 7.948-2.494 1.451-3.897 2.995-3.598 6.6 1.36 16.403-8.799 28.902-25.024 29.98-16.124 1.07-29.87-11.974-28.239-29.782.306-3.33-.514-4.947-3.005-6.364-5.34-3.037-10.742-5.97-16.009-9.128-2.65-1.59-4.66-1.09-7.248.421-8.04 4.694-16.717 5.847-25.278 1.833-10.183-4.775-15.619-12.988-15.716-24.502-.098-11.589 5.428-19.7 15.606-24.489 3.275-1.541 4.775-3.155 4.437-6.654a27.225 27.225 0 0 1-.003-4.994c.61-6.894-.346-11.663-7.979-15.626-12.912-6.704-15.849-25.172-7.748-37.675 7.386-11.4 24.732-14.93 36.766-7.117 2.908 1.889 4.657 1.813 7.442-.022 5.124-3.376 10.606-6.212 15.976-9.208 2.226-1.242 3.225-2.504 2.798-5.515-1.704-11.998 4.794-23.29 16.058-28.149 2.804-1.21 3.77-2.771 3.694-5.624-.128-4.83-.265-9.68.043-14.492.256-4.012-.999-6.134-4.893-7.875-10.296-4.603-15.18-13.315-15.044-24.291.135-11.006 5.364-19.553 15.635-24.07 8.546-3.758 17.297-3.212 25.313 1.708 3.048 1.871 5.353 1.736 8.167.031 4.974-3.012 9.997-5.953 15.107-8.726 2.859-1.55 3.942-3.636 3.69-6.867-.501-6.401.05-12.596 4.197-17.999 6.376-8.308 14.724-12.007 25.55-11.062m47.004 122.922c9.764-3.097 11.663-10.29 10.254-19.362-.354-2.28-.14-4.661-.05-6.99.076-1.94-.738-3.259-2.49-3.875-12.516-4.4-19.477-16.134-17.216-31.162.364-2.414-.536-3.514-2.105-4.42-5.893-3.407-11.89-6.634-17.79-10.03-1.465-.843-2.538-1.077-4.02.074-11.01 8.545-22.24 8.244-33.632.697-1.653-1.095-3.32-1.943-5.514-.595-5.514 3.39-11.17 6.553-16.8 9.751-1.714.974-3.03 1.996-2.499 4.29 3.09 13.358-3.62 26.033-15.813 30.838-2.824 1.112-3.56 2.996-3.47 5.822a242.84 242.84 0 0 1-.006 15.497c-.099 3.051.804 4.75 3.892 5.961 4.98 1.953 9.142 5.174 11.966 9.992 3.857 6.582 4.944 13.615 3.766 21.092 6.873 3.97 13.512 7.741 20.08 11.632 2.228 1.32 4.01 1.342 6.39-.038 9.684-5.62 19.484-6.02 29.122.277 1.87 1.222 3.705 1.297 5.609.188 5.161-3.007 10.206-6.24 15.513-8.962 3.936-2.019 5.417-4.707 5.093-9.126-.625-8.518 2.646-15.576 9.72-21.551M133.097 312.71c2.74.637 5.961.617 7.99 2.509 6.645 6.194 12.454 2.841 18.405-.982 1.812-1.165 3.657-2.31 5.592-3.248 4.03-1.954 6.35-4.455 5.677-9.543-1.368-10.338 1.37-20.414 11.041-24.564 9.542-4.094 9.29-10.491 8.863-18.168-.073-1.33-.15-2.683.018-3.995.355-2.783-.868-4.277-3.433-5.2-8.238-2.963-13.44-8.819-15.95-17.156-1.28-4.25-.495-8.594-.598-12.891-.06-2.531-.55-4.433-3.004-5.75-5.411-2.901-10.766-5.922-16.012-9.112-2.187-1.33-3.67-1.243-5.77.331-10.143 7.601-22.327 7.639-32.787.073-1.942-1.404-3.377-1.644-5.342-.513-5.18 2.983-10.273 6.16-15.65 8.74-3.632 1.744-4.18 4.22-3.608 7.682 1.769 10.727-1.785 20.34-10.886 25.182-8.1 4.31-9.01 9.739-8.312 17.134.124 1.321.174 2.687-.012 3.993-.527 3.699 1.013 5.797 4.448 7.232 8.531 3.563 12.71 10.364 14.804 19.242 1.132 4.8-.72 9.128-.45 13.579 6.467 3.837 12.74 7.565 19.017 11.283 1.855 1.098 3.491 1.333 5.446-.232 5.71-4.57 12.37-6.219 20.513-5.626m76.37-64.462c-4.85 1.336-6.93 4.233-6.217 9.474.511 3.762.173 7.65.084 11.478-.048 2.094.686 3.505 2.675 4.267 12.503 4.794 18.883 14.957 17.205 30.19-.272 2.471-.044 4.135 2.178 5.382 5.935 3.328 11.884 6.634 17.723 10.126 1.6.958 2.647.868 3.94-.317 8.763-8.031 23.477-8.515 34.081-.637 1.952 1.451 3.353 1.381 5.35.177 5.116-3.085 10.304-6.074 15.619-8.798 3.042-1.56 3.852-3.309 3.05-6.753-2.205-9.46 1.95-21.886 10.781-25.797 8.738-3.87 9.57-9.608 8.745-17.252-.125-1.152-.168-2.354.013-3.491.62-3.894-1.036-5.807-4.65-7.476-11.414-5.271-17.22-16.989-14.784-29.113.508-2.525.087-4.068-2.185-5.344a586.897 586.897 0 0 1-16.34-9.54c-2.287-1.384-4.113-1.23-6.344.322-10.942 7.604-22.05 7.151-32.944-.053-2.333-1.543-4.021-1.579-6.276-.178-5.067 3.15-10.193 6.217-15.415 9.101-2.108 1.164-3.07 2.017-2.64 4.896 1.834 12.29-2.193 22.221-13.65 29.336M322.32 76.2c1.117.71 2.18 1.525 3.359 2.11 6.848 3.403 14.07.743 17.92-6.548 2.852-5.403.1-13.39-5.76-16.721-5.026-2.855-12.253-1.748-16.034 2.457-4.663 5.186-4.666 11.278.515 18.702M123.385 327.714c-6.519 4.102-8.827 10.75-5.894 16.976 2.64 5.603 9.722 8.993 15.298 7.323 7.573-2.268 11.71-9.547 9.428-16.59-2.428-7.495-9.837-10.78-18.832-7.71m13.752-132.953c.94-.94 2.01-1.782 2.795-2.836 4.112-5.518 3.587-12.534-1.204-17.14-5.296-5.093-11.714-5.617-17.06-1.395-5.548 4.381-6.882 11.342-3.332 17.384 3.633 6.182 10.115 7.764 18.801 3.987M344.66 298.553c.367-7.691-8.897-14.983-15.962-12.9-7 2.064-11.148 7.787-10.307 14.888.74 6.248 6.162 11.002 12.685 11.123 7.424.137 12.48-4.443 13.584-13.11M125.518 94.751c-.752.346-1.529.648-2.254 1.044-5.968 3.258-8.306 9.222-6.123 15.565 1.915 5.563 8.594 10.004 13.831 9.197 6.499-1.001 11.74-6.998 11.674-13.356-.09-8.653-5.996-13.23-17.128-12.45m151.293 92.581c1.479-5.629-.757-11.57-5.516-14.661-4.666-3.03-10.415-2.733-15.304.79-3.865 2.785-5.909 9.387-4.424 14.29 1.298 4.288 7.31 9.265 11.725 9.708 4.603.462 10.505-3.677 13.52-10.127m-5.275 162.85c.731-.677 1.523-1.3 2.184-2.038 5.24-5.862 4.923-13.347-.76-18.636-5.029-4.68-13.377-4.25-18.395.946-4.647 4.812-4.883 11.326-.62 17.122 3.688 5.015 10.103 6.136 17.591 2.605m-86.747-56.785c-1.915 4.065-1.76 7.918.762 11.776 4.375 6.697 11.234 8.475 18.083 4.49 6.17-3.59 8-10.385 4.605-17.094-4.967-9.811-16.558-9.724-23.45.828M49.813 228.439c.334.758.625 1.538 1.008 2.27 3.107 5.938 10.74 8.721 16.505 6.034 6.334-2.952 9.844-10.168 7.693-15.82-2.728-7.171-9.705-10.844-16.574-8.725-6.985 2.154-9.459 6.463-8.632 16.24m294.794-1.49c-.001-1.328.154-2.677-.03-3.979-.824-5.856-6.77-11.31-12.519-11.59-5.829-.284-11.939 4.157-13.444 9.772-1.61 6.006 1.468 12.474 7.272 15.278 7.332 3.543 13.996.427 18.72-9.482M194.22 211.504c-1.36.614-2.783 1.118-4.068 1.86-4.482 2.59-7.679 9.2-6.627 13.52 1.284 5.27 7.393 10.604 12.342 10.776 7.51.26 14.232-5.653 14.545-12.794.325-7.417-6.668-13.53-16.192-13.362m-122 78.816c-7.27-6.943-16.3-6.553-20.866.9-3.428 5.598-2.405 13.208 2.327 17.311 4.796 4.158 11.635 4.31 16.44.257 5.834-4.92 7.684-11.803 2.1-18.468m200.96-173.617c5.642-6.604 5.793-11.82.53-18.184-3.5-4.23-11.222-5.64-15.933-2.91-5.839 3.383-8.23 10.35-5.897 16.186 3.298 8.25 13.211 12.027 21.3 4.908m-65.494-42.598c3.337-4.96 2.976-9.858-.059-14.84-3.61-5.93-10.947-7.627-17.42-3.893-5.927 3.419-8.276 10.967-5.176 16.628 5.142 9.39 14.066 10.46 22.655 2.105z"/></svg>