<svg xmlns="http://www.w3.org/2000/svg" xml:space="preserve" viewBox="0 0 416 400"><path d="M291.241 53.754c3.393-.338 5.904.502 8.19 2.525 15.038 13.306 29.634 27.082 44.115 40.989 8.016 7.697 16.38 15.031 24.475 22.65 2.728 2.568 3.338 8.896 1.313 11.485-2.185 2.796-5.474 3.927-8.465 2.546-3.07-1.418-5.557-4.115-8.267-6.291-1.915-1.537-3.18-3.844-5.84-4.952-11.536 12.738-23.93 24.686-35.071 38.09 2.556 3.866 5.726 6.88 9.042 9.512 6.924 5.494 12.302 12.597 19.366 17.935 3.546 2.68 4.086 7.78 1.694 10.721-2.526 3.105-10.083 3.63-13.205.534-4.235-4.2-8.126-8.747-12.43-13.434-11.78 12.724-22.673 24.528-33.612 36.29-5.885 6.328-12 12.43-17.826 18.826-12.531 13.759-25.586 27.04-38.346 40.593a1893.926 1893.926 0 0 0-24.678 26.717c-3.328 3.673-6.89 4.37-11.625 2.9-13.313-4.134-25.323-10.655-37.642-20.113-4.394 4.876-8.984 9.472-12.991 14.53-6.724 8.486-14.949 15.533-22.02 23.691-6.741 7.778-14.06 15.058-21.195 22.49-3.993 4.16-7.913 4.3-11.62.626-3.183-3.154-2.596-6.494 1.329-10.737 14.993-16.21 29.87-32.527 44.826-48.771 2.367-2.571 4.726-5.21 7.427-7.4 3.545-2.875 3.388-5.69.584-8.744-7.393-8.052-12.59-17.468-17.284-27.238-4.482-9.327-3.953-12.425 3.347-19.823 10.05-10.184 20.275-20.22 29.877-30.817 11.608-12.81 23.85-25.002 35.602-37.654 11.986-12.905 24.028-25.744 36.322-38.355 3.228-3.311 6.059-7.01 9.766-11.343-4.243-4.003-8.626-7.992-12.836-12.156-3.729-3.687-3.765-7.364-.388-10.815 3.036-3.102 7.497-2.995 11.07.332 9.108 8.483 18.194 16.989 27.572 25.75 5.054-3.048 8.487-7.347 12.194-11.254 6.97-7.346 13.533-15.086 20.646-22.286 3.05-3.086 2.832-4.998-.234-7.575a48.444 48.444 0 0 1-6.308-6.4c-4.065-4.975-2.811-10.837 3.126-13.574M265.23 218.71c5.397-6.784 12.079-12.41 17.6-19.017 6.085-7.282 13.779-13.032 19.167-20.948 1.446-2.124 1.501-3.4-.335-5.05-4.185-3.76-8.426-7.47-12.416-11.43-12.741-12.643-25.964-24.77-39.085-37.01-3.212-2.997-4.965-.739-6.419 1.274-3.842 5.317-8.973 9.349-13.338 14.129-1.09 1.194-2.655 2.07-2.904 4.189.425.497.857 1.244 1.495 1.71 5.42 3.956 9.632 9.17 14.388 13.812 3.678 3.59 3.62 8.455.275 11.472-2.64 2.38-6.895 1.785-10.2-1.31-4.244-3.973-8.691-7.74-12.789-11.856-2.799-2.811-5.156-2.707-7.46.24-4.524 5.788-9.89 10.771-15.067 15.93-2.035 2.028-1.808 3.474.18 5.362 4.226 4.013 8.263 8.222 12.399 12.329 4.441 4.41 5.108 9.657 1.63 13.1-3.94 3.901-7.23 3.48-12.308-1.551-4.927-4.88-9.868-9.746-15.24-15.051-6.215 7.35-12.094 13.889-18.641 19.712-3.695 3.287-2.716 5.597.645 7.74 5.148 3.283 8.758 8.14 13 12.331 3.486 3.443 3.312 8.246.16 11.108-2.565 2.328-7.863 1.933-10.89-.844-4.526-4.155-9.155-8.21-13.502-12.546-2.298-2.294-4.078-2.499-6.115.048-4.159 5.201-8.809 9.948-13.572 14.588-1.69 1.646-1.687 3.187-.445 5.299a153.362 153.362 0 0 0 14.24 20.317c10.7 12.9 24.278 21.387 39.358 27.947 2.255.981 3.627.641 5.527-1.288 10.607-10.766 20.682-22.018 30.985-33.064 12.92-13.85 26.101-27.458 39.677-41.672m51.926-86.08c1.959-3.344 4.906-5.814 7.52-8.584 2.954-3.128 6.267-5.874 8.827-9.438 1.827-2.543 1.366-3.985-.708-5.82-4.712-4.17-9.281-8.501-13.96-12.711-2.94-2.646-5.97-5.19-8.936-7.76-4.855 2.32-7.06 6.833-10.347 10.246-7.595 7.886-15.09 15.869-22.766 23.675-2.36 2.4-2.459 3.935.027 6.509 6.474 6.704 13.756 12.518 20.331 19.085 2.545 2.541 4.451 1.681 6.145-.613 3.881-5.254 8.97-9.335 13.867-14.59z"/></svg>