<svg xmlns="http://www.w3.org/2000/svg" xml:space="preserve" viewBox="0 0 416 400"><path d="M225.384 341.366c30.996-30.994 61.552-61.946 92.605-92.392 11.637-11.41 23.562-22.54 35.02-34.14 16.946-17.16 26.298-37.679 24.463-61.952-1.878-24.845-13.882-44.248-35.093-57.682-13.841-8.766-29.126-12.147-45.233-10.71-17.686 1.58-33.393 8.362-46.302 20.819-8.512 8.214-16.751 16.711-25.159 25.035-4.795 4.747-9.755 4.557-14.678-.198-10.055-9.711-19.09-20.507-30.135-29.16-28.744-22.517-66.26-22.704-94.691.196-14.424 11.619-23.147 27.054-25.927 45.71-2.41 16.178.239 31.332 7.593 45.833 1.542 3.04 3.237 6.159 1.532 9.906-1.326 2.914-3.403 4.423-6.47 4.659-3.181.244-5.841-.462-7.505-3.657-14.662-28.164-16.288-56.787-2.412-85.621C65.854 91.286 87.59 75.568 116.418 70.04c18.485-3.545 36.58-1.119 54.093 6.173 14.19 5.909 25.355 15.578 35.641 26.59 3.839 4.11 7.856 8.054 11.844 12.127 4.442-2.899 7.336-6.593 10.646-9.815 9.042-8.803 17.492-18.178 28.757-24.5 11.655-6.54 24.071-10.603 37.194-11.755 21.098-1.852 40.994 2.634 58.874 14.32 21.627 14.133 34.566 34.366 38.552 59.64 4.842 30.7-3.222 58.087-25.274 80.403-39.701 40.177-79.63 80.132-119.815 119.822-7.43 7.339-15.085 14.513-22.7 21.696-3.995 3.77-7.629 3.657-11.765-.193-32.812-30.54-63.576-63.151-95.518-94.571-2.99-2.942-3.113-8.664-.54-11.32 2.729-2.818 8.556-2.717 11.712.404 14.219 14.056 28.073 28.498 42.652 42.168 15.43 14.47 30.027 29.755 45.199 44.47.7.679 1.521 1.234 2.316 1.87 2.904-1.483 4.608-4.04 7.098-6.203z"/><path d="M82 223.663c13.666 0 26.835-.142 39.996.093 3.61.065 5.925-1.19 7.907-3.961 4.919-6.878 9.933-13.687 14.935-20.504.984-1.34 1.962-2.723 3.155-3.864 4.701-4.495 10.548-3.455 13.446 2.332 6.485 12.95 12.95 25.911 19.437 38.86 1.034 2.063 2.145 4.087 3.452 6.568 2.907-3.113 3.175-6.841 4.199-10.14 7.084-22.827 14.048-45.691 20.97-68.568 1.35-4.459 3.713-7.397 8.748-7.128 3.663.196 6.02 1.865 7.32 5.57 6.323 17.998 12.89 35.908 19.284 53.88 2.778 7.812 2.684 7.85 11.117 7.859 8.166.008 16.333-.052 24.499.03 5.422.056 7.605 2.064 7.853 6.884.249 4.815-2.646 8.568-7.529 8.652-12.828.222-25.665.192-38.495-.003-3.744-.057-6.4-2.24-7.758-5.977-4.989-13.718-10.084-27.397-15.153-41.085-.224-.604-.58-1.16-1.235-2.447-4.382 14.278-8.556 27.942-12.772 41.593-3.672 11.89-7.331 23.784-11.133 35.633-1.034 3.223-2.632 6.241-6.722 6.395-4.108.154-6.757-1.71-8.6-5.476-7.46-15.243-15.093-30.401-22.727-45.559-1.018-2.021-1.659-4.35-4.195-6.162-4.6 6.105-9.318 12.032-13.632 18.24-2.051 2.95-4.384 4.045-7.899 4.035-32.831-.095-65.663-.053-98.495-.071-5.68-.003-9.18-2.852-9.246-7.406-.067-4.68 3.674-8.203 9.275-8.237 16.5-.098 32.999-.035 49.998-.036z"/></svg>