<svg xmlns="http://www.w3.org/2000/svg" xml:space="preserve" viewBox="0 0 416 400"><path d="M62.654 217.056c-.079-11.735 4.535-21.08 13.118-27.85 21.225-16.74 42.432-33.559 64.43-49.248 22.571-16.1 54.17-1.556 58.243 25.8 2.54 17.064-4.636 29.371-17.733 39.34-18.729 14.254-37.492 28.478-55.868 43.18-22.203 17.762-56.952 5.492-61.975-22.267-.497-2.749-.163-5.649-.215-8.955m76.483 1.95c.432-2.322-1.384-3.648-2.51-5.138-5.3-7.008-10.756-13.898-16.167-20.822-3.25-4.16-6.52-8.304-9.898-12.603-9.463 5.724-17.389 12.788-25.732 19.256-6.093 4.723-9.694 11.78-9.149 19.124 1.486 20.046 21.033 30.452 36.927 20.51 9.234-5.777 17.485-13.124 26.53-20.328m.802-23.399 11.215 14.327c9.399-7.466 19.248-13.617 27.491-21.833 9.3-9.27 9.366-23.069.22-33.155-8.063-8.89-23.34-10.217-32.706-2.885-7.03 5.503-14.054 11.018-21.186 16.388-2.687 2.024-3.144 3.7-.877 6.52 5.283 6.572 10.245 13.401 15.843 20.638zM322.917 205.335c-16.55-.114-28.522-6.848-35.452-21.708-11.018-23.622-22.331-47.112-32.967-70.904-10.01-22.392 4.764-48.136 28.837-52.218 17.838-3.026 35.754 6.784 43.58 26.035 6.87 16.905 15.304 33.169 22.729 49.858 3.88 8.723 9.085 16.892 9.988 26.894.86 9.516-.794 18.17-6.327 25.828-7.308 10.115-17.15 15.97-30.388 16.215m-26.02-33.614c1.027 2.086 2.034 4.184 3.087 6.258 5.321 10.484 15.766 15.718 27.11 13.6 12.506-2.336 21.964-16.662 18.698-28.974-2.946-11.11-9.355-20.803-13.654-31.377-1.007-2.479-2.738-1.733-4.526-.914-12.366 5.667-24.721 11.357-37.14 16.907-3.19 1.426-3.704 3.239-2.2 6.274 2.874 5.797 5.525 11.705 8.625 18.226m4.84-94.976c-16.153-10.05-37.591 3.425-36.27 21.849 1.005 13.991 10.417 24.798 15.078 38.057 14.324-6.616 27.866-12.893 41.432-19.117 2.153-.988 2.388-2.302 1.545-4.395-3.419-8.482-7.523-16.639-11.47-24.875-2.229-4.65-5.54-8.224-10.315-11.52zM275.139 328.89c-10.679 21.705-37.416 26.348-55.729 14.107-9.14-6.11-15.004-15.138-15.86-26.946-1.913-26.425-.765-52.867-.72-79.291.028-17.333 7.702-30.608 24.498-37.49 21.65-8.871 47.08 5.245 51.111 28.231.697 3.976.902 7.895.904 11.872.008 23.638-.029 47.277.025 70.915.014 6.42-1.222 12.506-4.229 18.602m-9.486-38.353c0-1.83-.184-3.682.035-5.485.518-4.252-.945-5.879-5.483-5.784-12.968.27-25.947.173-38.92.023-3.579-.04-5.09 1.016-5.006 4.817.205 9.31-.358 18.654.185 27.937.746 12.763 9.854 24.009 24.372 24.183 14.297.172 24.81-11.95 24.82-24.743.004-6.654-.002-13.307-.003-20.948m-16.16-23.88c3.664 0 7.34-.188 10.987.05 3.87.251 5.344-1.15 5.244-5.13-.224-8.819-.06-17.648-.074-26.473-.02-12.337-9.328-23.221-21.088-24.683-12.435-1.546-24.532 6.643-27.159 18.926-2.421 11.326-.639 22.876-1 34.319-.104 3.32 2.48 2.97 4.619 2.977 9.158.026 18.316.013 28.472.014z"/></svg>