<svg xmlns="http://www.w3.org/2000/svg" xml:space="preserve" viewBox="0 0 416 400"><path d="M162.403 259.329c-7.814-1.115-8.287-7.192-8.563-12.495-1.089-20.887 3.052-40.19 17.522-56.454 5.266-5.92 10.315-11.065 18.97-10.782 5.73.188 10.09 1.76 11.53 7.983.193.838.424 2.027 1.696 2.355 2.363-.307 2.06-2.196 2.062-3.797.023-18.664.083-37.33-.03-55.994-.029-4.911-3.103-8.14-7.844-8.755-10.333-1.343-20.679-2.587-31.017-3.884-1.99-.25-3.225.354-3.384 2.562a16.69 16.69 0 0 1-.608 3.412c-1.046 3.617.011 5.624 4.016 5.122 4.922-.617 9.852-1.254 14.721-2.183 7.378-1.409 8.026-1.427 9.166 6.032 2.505 16.392-1.407 29.949-14.801 35.54-7.044 2.94-14.215 5.596-21.41 8.149-5.31 1.884-10.849 3.143-16.12 5.12-13.508 5.066-23.077 14.174-25.508 28.733-1.444 8.642-.767 17.595-.073 26.402.13 1.646.53 3.276.595 4.921.304 7.794.081 15.569.829 23.395 1.32 13.81-3.625 26.808-6.9 39.967-.93 3.74-4.15 4.375-7.193 3.368-3.334-1.103-4.836-3.769-3.947-7.512 2.03-8.55 3.882-17.142 5.975-25.676.53-2.16.657-4.29.541-6.432-.978-18.075-2.078-36.147-1.95-54.258.13-18.452 9.7-31.233 24.866-40.4 8.485-5.13 18.333-6.79 27.549-10.05 6.272-2.22 12.48-4.557 18.509-7.347 5.104-2.362 8.615-8.86 7.97-14.444-.438-3.797-3.408-2.704-5.407-2.293-5.153 1.058-10.208 1.114-15.278-.24-5.505-1.472-8.254-4.712-8.17-10.337.078-5.298.7-10.587.904-15.887.171-4.467-1.053-7.71-6.52-8.04-3.16-.191-6.59-1.732-7.126-5.267-.572-3.774-1.487-7.887 2.079-11.216 3.628-3.388 6.468-7.508 9.61-11.346 2.085-2.545 2.266-5.116 1.787-7.917-3.36-19.634 5.454-35.646 23.937-43.088 22.966-9.246 45.005-7.752 64.91 7.481 13.778 10.545 18.205 25.458 16.619 42.493-1.147 12.32-7.812 22.41-12.68 33.245-5.693 12.674-5.33 25.588-.634 38.314 3.558 9.644 13.038 12.328 21.378 15.7 6.718 2.717 13.968 4.103 20.946 6.198 19.911 5.976 33.917 24.618 33.488 46.148a930.33 930.33 0 0 1-1.953 44.771c-.45 6.59-.474 13.145 2.383 19.59 2.945 6.644 4.812 13.77 7.072 20.71 1.029 3.159.025 5.774-3.091 6.916-2.972 1.089-6.54 1.108-7.758-2.335-5.061-14.31-12.01-28.158-10.45-44.126 1.502-15.373 2.075-30.812 2.034-46.266-.04-15.027-10.537-29.4-24.926-33.823-9.815-3.017-19.708-5.62-29.33-9.413-17.255-6.802-23.45-20.147-24.77-37.277-1.18-15.318 2.878-28.998 10.432-42.311 11.282-19.886 7.997-37.5-5.994-48.747-14.712-11.825-31.588-14.248-49.665-7.37-10.895 4.144-18.8 10.506-20.618 22.627-.318 2.12-.76 4.434-.248 6.427 2.596 10.094-.386 18.276-7.88 25.143-.83.76-1.436 1.765-2.78 3.455 7.107 1.329 9.406 6.3 10.64 12.2.407 1.945 2.488 2.24 4.03 2.42 10.028 1.162 20.073 2.177 30.117 3.199 6.894.701 12.992 2.638 16.43 9.44 1.112 2.204 1.25 4.43 1.249 6.773-.01 17.831.032 35.663-.025 53.494-.01 3.41.49 6.598 2.396 9.537 1.48.122 1.404-1.264 1.74-1.993 4.753-10.328 14.738-12.791 23.903-5.714 13.868 10.71 20.765 25.395 24.01 42.204 1.339 6.941.969 13.912.962 20.88-.01 10.572-5.324 15.073-15.681 12.804-9.064-1.987-18.047-4.411-26.955-7.02-8.127-2.38-12.961-9.347-13.036-17.982-.052-5.953-.01-11.907-.01-19.052-2.383 2.492-2.23 4.42-2.238 6.272-.022 4.833.213 9.679-.066 14.495-.394 6.796-3.455 12.947-9.823 14.973-11.944 3.799-23.87 8.233-37.113 8.553m40.449-55.842c-3.358 1.814-6.605 3.9-10.115 5.343-2.212.91-5.31 1.542-6.571-1.422-1.251-2.942-.906-5.95 2.763-7.405.925-.367 1.755-.989 2.693-1.304 4.142-1.394 2.834-4.303 1.727-6.84-1.222-2.799-3.282-4.044-6.415-2.304-1.755.975-3.44 1.938-4.887 3.376-14.965 14.865-19.964 33.175-18.696 53.689.17 2.74 1.193 3.962 4.137 3.182 7.05-1.87 14.16-3.514 21.205-5.404 10.707-2.874 15.292-12.913 10.83-23.57-2.554.3-4.514 1.958-6.77 2.924-2.257.966-5.282 1.575-6.552-1.341-1.136-2.61-1.187-5.405 2.27-7.143 4.444-2.235 8.559-5.121 12.998-7.364 5.572-2.814 11.37-3.616 17.16-.41 4.644 2.573 9.267 5.183 13.903 7.77 2.553 1.424 4.327 3.282 2.94 6.414-1.558 3.523-4.287 2.89-7.172 1.874-2.128-.749-3.869-2.642-6.866-2.265 0 4.992-.23 9.96.087 14.892.19 2.957 2.025 5.483 4.957 6.326 8.91 2.562 17.905 4.82 26.847 7.27 2.759.755 3.923-.157 4.374-2.98 1.976-12.374-.761-24.043-5.433-35.312-3.287-7.931-8.479-14.68-15.182-20.096-1.835-1.482-3.902-3.362-6.706-2.372-2.836 1.002-3.298 3.771-3.654 6.114-.588 3.87 3.602 3.71 5.536 5.4 2.246 1.963 3.983 3.745 2.483 6.699-1.606 3.164-4.503 2.473-6.955 1.418-3.192-1.373-6.25-3.102-9.24-4.89-4.948-2.96-9.812-5.618-15.696-.269z"/><path d="M160.433 314.519c-8.08-9.173-7.469-22.556 1.048-30.207 4.428-3.978 9.98-4.326 15.397-4.567 7.479-.334 14.985-.162 22.478-.068 4.412.056 6.457-1.913 6.312-6.336-.092-2.827-.101-5.67.09-8.49.19-2.784 1.991-4.068 4.694-4.115 2.46-.043 4.523 1.045 4.675 3.522.305 4.958.882 10.007-.327 14.9-1.677 6.783-5.883 10.05-12.954 10.153-8.658.126-17.32.01-25.98.045-6.77.029-11.412 4.271-11.503 10.428-.103 6.889 3.933 10.838 11.339 10.854 20.817.044 41.634.014 62.45.022 1.498.001 3.024-.088 4.486.162 2.22.379 3.424 1.848 3.623 4.124.177 2.033-.522 3.467-2.411 4.477-1.888 1.01-3.855.919-5.838.92-17.82.014-35.64.008-53.458.008h-6.427c.97 4.947-2.808 8.944-.878 13.787 2.113 5.303 4.657 7.492 10.372 7.509 13.988.042 27.978.106 41.966-.034 3.547-.035 6.114.895 6.134 4.691.018 3.538-2.873 4.832-5.82 4.925-7.486.236-14.984.107-22.478.143-7.276.036-10.942 3.655-11.059 11.036-.084 5.327-.06 10.658-.032 15.987.016 3.174-.812 5.891-4.536 5.783-3.387-.098-4.233-2.66-4.143-5.65.26-8.617-.635-17.265.81-26.722-19.252-2.315-24.089-13.972-19.107-31.548-2.785-1.961-6.533-2.49-8.923-5.739z"/><path d="M229.868 335.362c-12.644.004-24.808.035-36.972-.01-2.739-.011-6.123.636-6.149-3.77-.025-4.4 2.984-4.94 6.476-4.935 17.163.026 34.325.02 51.488-.023 4.922-.013 8.777-1.989 10.614-6.777 1.843-4.806.492-9.56-3.197-12.566-2.087-1.7-4.475-1.94-7.034-1.937-20.495.026-40.99.003-61.485-.008-1.5-.001-3.005.046-4.497-.066-3.005-.226-5.32-1.645-5.238-4.847.084-3.318 2.109-4.845 5.634-4.812 12.996.12 25.995-.045 38.99.104 3.392.04 4.689-.695 5.373-4.483 1.236-6.835.4-13.611.783-20.395.104-1.828-.126-3.7.187-5.485.453-2.58 1.486-4.825 4.793-4.646 3.337.181 4.785 2.074 4.667 5.216-.358 9.588 1.258 19.26-1.564 28.904 3.956 1.525 7.792.748 11.518.793 11.685.14 18.395 4.31 20.484 14.214 1.979 9.386 1.265 18.092-10.806 24.679-.281.153-.5.422-1.003.858 1.28 5.396 2.935 10.818 1.498 16.773-2.05 8.496-8.45 14.153-17.337 14.203-4.333.024-8.665-.024-12.997.008-6.949.05-8.688 1.855-8.746 8.981-.012 1.5.062 3.008-.08 4.496-.254 2.663-1.667 4.436-4.468 4.337-2.519-.089-3.966-1.769-4.042-4.223-.13-4.16-.33-8.358.075-12.484.486-4.951 6.019-9.644 11.078-9.767 4.996-.122 9.997-.004 14.996-.04 7.87-.057 12.744-4.262 12.733-10.931-.012-7.139-4.66-11.267-12.793-11.358-.832-.01-1.666-.003-2.98-.003zM270.658 261c0-11.984-.047-23.468.028-34.952.025-3.8 1.209-7.107 5.737-7.274 3.996-.148 5.983 1.825 5.955 6.118-.117 17.641-.044 35.283-.042 52.925.003 15.645-.018 31.29.02 46.935.01 3.886-.02 7.61-5.413 7.565-3.927-.033-6.247-2.788-6.26-7.905-.057-20.97-.025-41.941-.025-63.412zM143.857 218.721c4.713.89 4.49 4.2 4.49 7.42-.01 28.476-.01 56.952-.015 85.428 0 4.83-.062 9.66.003 14.488.05 3.653-1 6.22-5.238 6.267-4.14.046-5.458-2.255-5.454-6.036.034-33.971.036-67.943-.002-101.914-.005-4.004 1.823-5.847 6.216-5.653z"/></svg>