<svg xmlns="http://www.w3.org/2000/svg" xml:space="preserve" viewBox="0 0 416 400"><path d="M335.951 326.064c-16.271 11.65-33.605 11.979-50.892 4.68-15.973-6.744-21.65-22.305-20.032-38.672.521-5.272 1.827-10.482 4.456-15.201 1.207-2.166.467-3.768-1.098-5.315a6179.675 6179.675 0 0 1-20.926-20.771c-1.201-1.199-2.404-1.509-4.042-.894-7.609 2.853-15.261 5.515-23.55 5.596-2.214.021-2.5 1.845-2.502 3.62-.006 12.997.03 25.995-.034 38.992-.013 2.56 1.178 3.224 3.535 3.738 5.336 1.163 10.691 2.513 15.422 5.435 8.89 5.49 14.166 13.633 15.594 23.795 2.998 21.345-4.248 40.425-28.649 45.592-16.336 3.46-32.099 1.93-44.707-11.038-4.563-4.692-6.963-10.45-8.12-16.75-3.916-21.326 4.482-41.838 27.921-46.254 5.009-.944 6.691-2.98 6.48-8.205-.464-11.48-.203-22.99-.102-34.488.027-3.01-.721-4.416-4.121-4.7-7.144-.594-13.994-2.727-20.485-5.753-2.42-1.13-3.925-.659-5.667 1.115a1627.686 1627.686 0 0 1-21.56 21.563c-1.942 1.904-2.203 3.3-.877 5.971 8.326 16.777 7.867 33.234-4.304 47.941-5.471 6.61-13.7 10.07-22.323 10.929-11.997 1.195-23.931.96-34.741-5.74-10.255-6.357-15.226-15.612-16.357-27.517-1.293-13.612 1.944-25.608 12.618-34.36 10.052-8.242 22.334-9.685 34.935-8.328 4.934.53 9.807 1.621 14.372 3.695 2.465 1.12 4.33.614 6.226-1.326 6.873-7.027 13.84-13.964 20.842-20.864 1.753-1.728 2.54-3.132.793-5.504-5.173-7.024-8.76-14.826-10.43-23.43-.383-1.977-1.695-2.221-3.301-2.222-9.998-.005-19.996-.012-29.994-.03-2.325-.004-3.463.954-4.059 3.394-4.07 16.68-17.903 27.5-35.025 27.574-8.293.036-16.502.282-24.578-2.79-12.803-4.87-22.001-17.195-21.977-30.895.009-4.647-.607-9.34.426-13.943 3.381-15.053 13.064-23.727 27.775-27.274 11.994-2.892 23.66-2.088 34.935 3.075 9.94 4.551 15.81 12.549 18.296 22.899.83 3.459 2.37 4.296 5.415 4.275 8.498-.059 17.01-.304 25.49.1 4.456.212 6.033-1.824 6.462-5.574 1.041-9.107 4.197-17.387 9.843-25.246-6.38-7.399-13.501-14.082-20.589-20.793-1.568-1.484-3.168-.33-4.625.35-13.348 6.229-26.93 6.214-40.69 1.59-18.725-6.291-25.288-23.85-23.494-40.88.69-6.557 3.018-12.571 6.745-17.988 5.712-8.303 14.19-12.85 23.676-14.066 12.362-1.585 24.84-1.457 36.201 5.521 8.828 5.422 13.563 13.333 15.748 23.149 2.218 9.971.551 19.454-3.808 28.483-1.04 2.153-.6 3.34.834 4.763 5.91 5.872 11.832 11.732 17.662 17.682 1.85 1.887 3.605 1.952 5.776.67 7.55-4.457 15.758-6.963 24.456-7.76 2.605-.239 3.434-1.459 3.428-3.846-.03-10.831-.069-21.663.037-32.493.027-2.737-1.257-3.722-3.686-4.368-4.47-1.188-8.96-2.199-13.157-4.441-12.255-6.547-17.646-17.012-18.185-30.44-.33-8.216.032-16.272 4.734-23.531 7.241-11.177 17.812-16.753 30.72-17.688 14.517-1.05 28.22 1.203 38.715 12.754 5.466 6.015 8.26 13.07 8.53 21.214.29 8.745-.263 17.224-4.783 25.1-5.388 9.385-13.946 14.05-23.98 16.25-4.662 1.022-6.63 2.7-6.384 7.823.465 9.643.192 19.324.102 28.988-.027 2.913.477 4.645 4.035 4.722 8.782.19 16.91 3.073 24.71 6.917 1.634.805 3.003 2.077 4.844.238 7.164-7.155 14.408-14.232 21.812-21.524-5.942-7.646-8.183-16.093-7.972-25.023.538-22.805 15.225-37.3 37.706-37.708 9.905-.18 19.39.596 28.347 5.724 14.692 8.413 19.056 23.882 17.232 37.958-3.55 27.4-27.496 35.527-48.867 32.404a57.678 57.678 0 0 1-12.464-3.274c-2.595-.999-4.583-.715-6.646 1.449-5.748 6.029-11.733 11.831-17.615 17.732-1.442 1.446-3.08 3.015-1.373 5.146 6.019 7.515 8.722 16.337 9.947 25.639.457 3.472 1.884 4.393 5.14 4.32 7.994-.18 15.996-.134 23.993-.028 2.898.038 4.682-.865 5.476-3.843 4.546-17.045 16.084-25.36 33.271-27.432 10.571-1.274 20.502-.103 29.939 4.604 10.196 5.086 16.701 13.5 18.122 24.683 1.36 10.708 1.425 21.613-5.45 31.147-7.125 9.88-16.97 14.79-28.828 15.368-8.412.41-16.89.828-25.116-2.423-11.345-4.484-18.878-12.255-21.682-24.097-.801-3.384-2.168-4.39-5.314-4.356-8.498.092-16.998.084-25.495-.006-2.845-.03-4.365.533-5.015 3.899-1.824 9.45-6.333 17.74-13.171 25.634 7.56 7.45 15.005 14.777 22.44 22.115 2.24 2.21 3.985.014 5.847-.678 15.903-5.905 31.772-6.03 46.587 2.503 21.688 12.49 21.249 46.846 4.194 61.252m-158.644-94.888a47.089 47.089 0 0 0 8.184 5.62c13.305 7.225 27.526 7.357 41.645 4.313 8.69-1.873 16.866-5.842 22.614-13.534 7.967-10.661 10.032-22.551 7.68-35.26-1.91-10.32-6.775-19.032-16.109-24.659-11.787-7.106-24.787-8.435-38.013-7.013-10.012 1.076-19.675 4.406-26.718 11.984-14.326 15.413-14.484 42.693.717 58.55m143.981-12.984c1.401 2.062 2.887 3.968 4.995 5.467 9.402 6.688 19.788 7.48 30.468 4.685 16.417-4.295 23.684-26.338 13.639-39.063-9.875-12.508-31.283-11.646-41.263-6.301-10.738 5.75-14.98 21.768-7.839 35.212M123.36 323.689c12.375-1.699 19.062-8.609 20.767-23.43.844-7.34-1.708-17.77-13.138-22.97-6.369-2.897-12.813-3.108-19.448-2.917-19.069.55-26.712 15.576-23.595 31.504 3.167 16.184 22.973 20.955 35.414 17.813m101.447 38.763c1.285-.762 2.583-1.503 3.853-2.288 15.046-9.304 14.614-33.856-.907-42.106-8.571-4.557-17.878-4.952-27.135-2.548-10.812 2.808-17.011 10.147-18.078 21.204-.96 9.95 2.183 18.474 11.216 23.802 9.673 5.706 19.932 5.193 31.051 1.936M98.627 221.117c10.055-12.421 6.274-31.804-5.888-38.23-7.085-3.744-14.72-4.14-22.333-3.41-9.24.886-17.115 4.884-20.85 13.91-4.274 10.328-3.258 20.356 4.817 28.61 10.494 10.727 30.818 10.38 44.254-.88M188.755 52.27c-12.293 14.155-6.355 35.39 11.42 40.818 6.83 2.087 13.747 2.156 20.59.299 8.502-2.307 14.793-7.116 17.475-15.995 2.942-9.742.76-17.98-5.622-25.868-7.762-9.595-35.906-10.01-43.863.746m90.595 236.605c-3.912 13.953 1.54 25.575 14.398 30.967 5.255 2.204 10.736 1.924 16.196 1.805 19.473-.423 28.1-15.064 23.856-32.857-2.756-11.556-12.301-15.587-22.78-17.09-12.321-1.767-27.306 2.093-31.67 17.175M98.657 91.141c-1.314.998-2.662 1.954-3.936 3-11.25 9.241-10.005 30.607 2.032 38.592 7.076 4.695 14.809 5.17 22.882 4.974 11.694-.284 21.687-7.721 23.63-18.938 2.012-11.604-1.028-23.022-13.168-28.202-10.268-4.38-20.557-4.551-31.44.574m194.421-5.638c-7.486 3.254-12.488 8.614-14.139 16.776-2.285 11.301.813 23.206 12.955 28.74 6.882 3.138 13.967 3.186 21.003 2.471 9.054-.92 16.739-4.936 19.907-14.191 3.389-9.9 3.858-19.908-4.482-27.755-9.952-9.365-21.98-9.693-35.244-6.041z"/></svg>