<svg xmlns="http://www.w3.org/2000/svg" xml:space="preserve" viewBox="0 0 416 400"><path d="M189.082 228.9c16.343 17.074 24.497 37.197 23.083 60.37-1.626 26.622-13.21 48.357-36.565 62.135-29.299 17.286-58.66 15.434-85.96-4.28-16.13-11.647-25.78-28.416-29-48.386-3.307-20.512.174-39.807 11.756-57.138 12.002-17.96 28.808-29.307 50.254-32.79 23.136-3.757 44.146 1.313 62.185 16.869 1.252 1.08 2.657 1.982 4.247 3.22m-63.649-6.741c-16.82 2.957-30.03 11.643-40.217 25.21-8.483 11.299-12.369 24.363-12.537 38.1-.128 10.397 2.73 20.553 7.982 29.942 11.804 21.105 29.697 32.973 53.661 34.03 18.262.806 34.238-6.531 46.654-19.876 14.617-15.712 20.318-34.485 16.722-55.99-5.544-33.151-38.57-57.198-72.265-51.416zM358.544 229.448c15.154 15.185 22.412 33.13 22.93 54.293.534 21.842-6.718 40.668-21.53 56.06-13.383 13.908-30.174 21.617-49.959 22.672-19.901 1.06-37.286-4.589-52.781-16.879-13.418-10.642-21.64-24.56-25.84-40.915-4.892-19.052-3.211-37.798 5.976-55.088 12.124-22.817 30.798-37.386 57.082-41.01 24.64-3.396 45.864 3.572 64.122 20.867m-58.53 119.977c6.026.856 11.948-.137 17.756-1.45 16.391-3.708 29.786-12.301 39.105-26.31 10.02-15.063 14.141-31.601 9.924-49.664-3.465-14.844-10.622-27.297-22.703-36.956-14.028-11.216-30.09-16.071-47.485-13.331-21.371 3.366-37.483 15.124-47.377 34.85-13.244 26.406-6.789 54.55 12.175 74.386 10.082 10.545 23.096 16.439 38.604 18.475zM162.028 172.86c-8.6-11.282-14.747-23.307-16.605-37.16-3.091-23.04 1.18-44.148 16.205-62.626 12.328-15.162 28.178-24.547 47.223-27.022 20.448-2.656 40.095.809 57.036 13.906 18.3 14.148 28.558 32.548 30.553 55.788 2.318 27.007-7.01 49.188-27.06 66.804-10.785 9.477-23.718 14.854-38.125 16.914-22.22 3.177-41.68-2.947-59.058-16.521-3.646-2.848-6.662-6.502-10.17-10.083m-.505-27.9c3.674 8.02 7.514 16.03 13.896 22.255 15.667 15.28 34.18 22.584 56.206 18.417 29.754-5.628 50.59-30.586 51.862-60.568.876-20.673-7.14-38.004-23.102-51.579-19.793-16.832-45.762-20.022-68.674-7.634-27.43 14.831-41.469 47.457-30.188 79.11z"/><path d="M154.612 317.436c-16.317-5.634-31.358-3.749-45.535 5.341-.978.627-1.898 1.423-2.964 1.82-3.486 1.298-6.974 1.575-9.335-1.96-2.14-3.2-1.538-6.376 1.303-8.92 6.63-5.934 14.83-8.812 23.189-10.947 18.903-4.828 36.388-1.017 52.507 9.677 3.727 2.473 4.777 6.771 2.63 10.23-1.886 3.036-6.729 3.87-10.163 1.178-3.468-2.72-7.405-4.4-11.632-6.42zM162.326 279.786c-5.526 1.147-9.044-1.286-11.407-5.535-2.08-3.74-1.31-7.395 1.29-10.653 3.256-4.083 7.868-3.5 11.963-2.523 4.24 1.013 5.628 4.98 5.646 9 .022 4.8-2.325 8.175-7.492 9.71zM104.079 278.063c-4.708-3.814-4.305-8.752-2.704-12.987 1.915-5.069 7.056-4.833 11.572-4.298 4.195.497 6.106 3.667 6.995 7.394.943 3.952-.73 7.194-3.68 9.643-3.732 3.097-7.8 3.132-12.183.248zM280.109 311.664c18.14.007 35.796.055 53.452-.01 3.989-.014 6.947.663 6.798 5.635-.15 5.009-1.811 6.992-6.922 7.011-18.323.07-36.645.05-54.968.018-5.84-.01-8.594-1.965-8.726-5.98-.15-4.578 2.587-6.634 8.883-6.671.333-.002.666-.001 1.483-.003zM338.033 275.638c-3.607 3.584-7.365 5.693-12.203 3.776-4.316-1.71-6.44-4.778-6.22-9.61.27-5.934 2.597-8.734 8.156-9.11 7.39-.5 10.621 1.661 11.475 7.85.317 2.3.278 4.635-1.208 7.094zM289.341 269.982c.222 5.898-3.13 8.767-7.782 9.955-3.72.95-7.517-.37-9.792-3.444-2.733-3.695-2.943-7.945-.495-12.158 2.803-4.822 7.426-3.967 11.551-3.415 4.617.618 6.545 4.086 6.518 9.062zM214.363 167.323c-10.853-1.772-20.747-4.858-29.5-10.954-3.985-2.776-5.49-7.39-3.516-10.634 2.056-3.378 6.306-3.87 10.884-.693 8.126 5.64 17.249 8.681 26.873 9.386 10.714.785 20.48-3.191 29.674-8.477.717-.412 1.348-.972 2.064-1.387 4.45-2.587 8.483-2.19 10.69 1.025 2.167 3.155.808 7.952-3.22 10.673-13.158 8.891-27.764 12.2-43.95 11.061zM187.438 114.51c-3.376-4.458-3.705-8.88-.803-13.152 2.542-3.74 6.55-4.355 10.659-3.44 5.842 1.3 8.808 7.641 6.69 13.79-1.596 4.629-8.169 7.118-13.381 4.977-1.042-.428-1.922-1.252-3.165-2.175zM244.056 97.662c5.9.546 9.709 3.417 10.244 7.403.818 6.094-1.08 9.772-6.002 11.628-4.617 1.742-9.105.362-11.944-3.443-3.95-5.297-.722-15.619 7.702-15.588z"/></svg>