<svg xmlns="http://www.w3.org/2000/svg" xml:space="preserve" viewBox="0 0 416 400"><path d="M222.688 342.706c-4.75 2.8-9.164 5.431-13.558 8.098-2.618 1.588-5.338 2.615-7.498-.409-1.966-2.752-1.063-5.352 1.38-7.471 6.502-5.638 14.114-9.292 22.075-12.315 2.174-.826 4.344-1.66 6.531-2.45 9.05-3.265 9.052-3.26 9.049-12.935-.002-5.83-.077-11.661.025-17.49.048-2.753-.684-4.001-3.796-4.505-17.113-2.766-30.876-11.064-39.85-26.142-6.376-10.713-8.046-22.406-6.648-34.88 2.091-18.66 7.264-36.41 14.508-53.58 4.783-11.336 10.37-22.273 19.42-31.056 12.532-12.163 28.63-12.16 41.257-.19 10.701 10.147 16.67 22.99 21.876 36.354 1.726 4.43 3.272 8.929 5.031 13.757 6.461-4.013 12.682-7.687 19.922-9.39 24.54-5.776 44.854 4.966 53.48 28.653.806 2.211 2.012 3.56 4.04 4.675 21.916 12.058 27.1 42.63 10.993 61.91-10.537 12.612-28.477 18.02-44.9 12.632-1.233-.405-2.52-.645-4.591-1.165 0 9.184-.051 17.922.035 26.658.022 2.247 1.813 2.795 3.725 3.322 7.822 2.157 15.56 4.52 23.094 7.641 6.211 2.573 11.731 6.129 17.324 9.718 3.31 2.124 3.553 5.029 2.032 7.698-1.797 3.151-5 2.974-7.825 1.006-6.155-4.287-12.555-8.043-19.613-10.713-15.156-5.735-30.87-8.365-46.957-9.92-18.743-1.812-37.008.485-55.245 4.164-8.64 1.743-16.867 4.779-25.316 8.325m-22.34-96.372c3.185 20.234 17.653 32.585 36.96 36.839 1.547.34 2.534.182 3.164-1.394 2.962-7.4-.856-19.265-7.364-24.31-7.199-5.581-14.11-11.535-21.08-17.408-2.229-1.878-3.487-4.28-1.247-6.922 2.31-2.724 5.03-2.907 7.868-.58 3.72 3.047 7.34 6.246 11.273 8.993 3.412 2.383 5.777 6.323 10.746 7.587 0-5.3-.122-10.108.043-14.907.107-3.123-.95-5.242-3.515-7.161-4.51-3.375-8.691-7.19-13.015-10.815-2.823-2.366-3.663-5.534-1.644-8.398 2.259-3.203 5.043-1.518 7.816.202 3.326 2.062 5.523 5.773 9.975 6.774.114-1.269.293-2.382.302-3.497.045-5.83.03-11.66.072-17.49.021-2.86 1.212-4.935 4.31-5.024 2.911-.083 4.66 1.69 5.14 4.446.31 1.784.108 3.654.19 5.483.223 5.072-.501 10.196.59 16.144 3.775-2.918 6.924-5.467 10.196-7.846 2.685-1.951 5.072-.94 7.02 1.285 1.903 2.173 1.404 4.318-.604 6.132-3.69 3.332-7.351 6.709-11.195 9.858-6.053 4.958-8.373 16.27-4.492 23.674.696-.4 1.452-.71 2.058-1.204 5.658-4.617 11.29-9.266 16.93-13.905 2.543-2.092 5.425-3.328 7.948-.482 2.483 2.8 1.961 5.775-1.064 8.205-3.743 3.007-7.315 6.237-11.157 9.11-16.63 12.437-16.656 12.402-16.227 29.239.013.5.031 1 .017 1.499-.084 2.799 1.636 3.538 3.915 3.065 25.767-5.348 38.745-23.461 36.045-49.053-1.652-15.661-5.994-30.916-11.737-45.608-5.018-12.836-10.362-25.591-20.948-35.232-7.162-6.523-15.372-7.053-23.003-1.257-6.232 4.733-10.494 11.008-14.2 17.71-9.158 16.56-14.998 34.37-18.657 52.82-1.455 7.336-3.777 14.874-1.43 23.428m85.51 32.895c-.868 1.562-3.147 1.863-3.593 3.821 8.242 5.885 27.366 7.176 36.434.423 4.053-3.018 4.188-7.308-.014-10.132-4.268-2.87-8.516-5.792-12.965-8.359-3.56-2.053-4.028-5.133-2.32-7.993 1.857-3.107 4.998-2.594 7.86-.677 3.098 2.075 6.144 4.279 10.409 5.774 0-9.046-.004-17.505.002-25.964.002-2.102.19-4.142 2.937-4.354 2.36-.182 4.658-.272 5.966 2.43.853 1.761.612 3.565.791 5.368.318 3.186-.855 6.551.86 9.631 4.49-.776 8.04-3.894 12.592-3.536 1.893.149 3.865.196 4.27 2.524.396 2.274.846 4.731-1.812 6.165-.877.473-1.753 1.123-2.696 1.273-11.79 1.875-14.837 9.137-13.38 20.128.839 6.336 1.396 8.571 7.585 10.44 4.507 1.36 9.045 2.35 14.054 1.611 14.246-2.099 25.185-12.29 27.533-27.497 1.615-10.458-4.417-24.998-17.039-30.61-3.927-1.746-5.73-4.4-6.75-8.429-1.754-6.919-5.468-13.029-11.075-17.349-14.898-11.48-31.16-8.66-45.134 1.083-2.676 1.865-4.741 4.83-3.856 8.594 1.366 5.806 2.387 11.651 3.166 17.572 2.343 17.806-.755 33.993-13.825 48.063m1.804 17.091c-3.13-1.07-6.729-1.494-9.289-3.35-4.83-3.504-9.504-4.125-14.702-1.502-4.12 2.08-10.56-.228-12.664 3.72-1.949 3.656-.613 9.082-.658 13.73-.046 4.703-.01 9.407-.01 14.478 12.5-2.148 24.01-3.249 35.563-3.69 9.78-.374 19.498.728 29.216 1.771 2.146.23 6.011 1.642 6.25-1.87.558-8.17.178-16.402.178-25.541-11.45 4.951-22.2 4.599-33.884 2.254zM146.378 144.347c7.294-6.907 9.448-6.818 16.508-.632 9.1 7.974 18.179 16.011 27.763 23.375 3.882 2.983 4.414 6.085 3.156 9.878-1.721 5.19-3.84 10.267-6.082 15.261-2.442 5.44-5.865 5.98-10.552 2.025-7.225-6.095-14.472-12.165-22.12-18.591-6.384 5.497-12.779 10.931-19.095 16.455a26992.915 26992.915 0 0 0-46.749 41.006c-6.6 5.798-13.24 11.553-19.72 17.483-5.22 4.78-7.913 4.669-12.116-.893-2.706-3.582-6.448-6.204-8.958-10.027-2.485-3.785-2.652-7.056.865-10.118 12.498-10.882 25.045-21.71 37.528-32.61 8.122-7.093 16.16-14.28 24.243-21.416 11.687-10.32 23.382-20.631 35.329-31.196m6.32 8.17c-2.877 2.5-5.776 4.975-8.624 7.506-9.666 8.591-19.253 17.272-28.983 25.79-14.842 12.992-29.793 25.86-44.663 38.82-3.248 2.831-6.372 5.806-9.508 8.763-2.182 2.058-.966 3.89.548 5.617 1.67 1.906 3.304 1.687 5.15.08 4.997-4.35 10.153-8.52 15.121-12.903 12.177-10.743 24.255-21.597 36.426-32.347 10.184-8.994 20.512-17.826 30.637-26.885 4.614-4.128 7.437-4.348 12.101-.253 5.234 4.595 10.5 9.154 15.76 13.721 1.104.958 2.116 2.331 3.862 1.233 2.74-1.722 3.041-7.325.488-9.455-8.016-6.685-16.081-13.312-24.05-20.052-1.407-1.19-2.483-1.56-4.266.365z"/><path d="M107.655 283c.004-6.828-.068-13.158.034-19.485.11-6.785 1.23-7.842 7.808-7.849 8.993-.01 17.986-.02 26.979 0 6.585.013 6.85.249 6.859 6.686.025 18.486.15 36.973-.084 55.455-.058 4.588 1.263 6.044 5.906 5.95 13.65-.278 27.31-.067 40.965-.108 3.624-.011 6.237.86 6.218 5.209-.013 2.82-1.032 4.464-4.04 4.447-1.165-.006-2.33.034-3.496.034-41.967.004-83.934.007-125.9.008-1 0-1.999-.017-2.998-.025-2.895-.024-4.914-1.304-5.084-4.31-.18-3.184 1.73-5.017 4.793-5.24 3.314-.24 6.672-.301 9.983-.063 4.015.288 5.142-1.433 5.122-5.258-.12-23.315-.033-46.63-.072-69.945-.006-3.33.304-6.033 4.703-5.844 4.11.177 4.895 2.92 4.947 6.113.109 6.826.044 13.655.045 20.483.003 16.487.083 32.974-.059 49.46-.031 3.6.983 5.077 4.791 4.994 15.005-.329 12.343 1.87 12.552-12.235.138-9.324.027-18.651.028-28.477m10.684-1.496c.003 12.497.093 24.996-.048 37.492-.038 3.408 1.009 4.887 4.561 4.706 4.156-.212 8.332-.124 12.495-.022 2.84.07 4.333-.851 4.32-3.982-.066-16.83-.058-33.66.007-50.49.01-2.746-1-3.958-3.809-3.888-4.496.112-9 .13-13.496.003-3.042-.086-4.175 1.22-4.06 4.187.143 3.66.032 7.33.03 11.994zM278.21 104.292c-3.336-11.294-.828-19.058 7.54-24.284 6.392-3.992 16.553-3.207 22.934 1.772 5.268 4.11 7.744 13.842 5.333 20.959-2.756 8.135-8.989 12.45-17.662 12.665-8.354.207-14.408-3.1-18.144-11.112m22.233-.213c4.692-4.216 5.584-8.749 2.533-12.87-2.81-3.798-8.037-5.002-11.928-2.748-3.772 2.184-5.41 7.665-3.472 11.621 2.677 5.467 6.096 6.696 12.867 3.997zM80.665 157.23c-.233-4.626 1.626-6.655 5.886-6.589 5.991.094 11.986.085 17.977.004 3.929-.054 5.893 1.655 5.816 5.666-.064 3.328-.038 6.658.007 9.987.049 3.572-.25 7.016-4.988 6.913-4.363-.094-5.008-3.346-4.643-6.725.523-4.845-1.376-6.551-6.195-6.21-3.334.236-4.265 1.636-4.212 4.684.117 6.657.02 13.317.035 19.975.007 3.27.256 6.445-4.62 6.467-5.029.024-5.042-3.27-5.051-6.732-.024-8.989-.012-17.978-.012-27.44zM37.238 333.338c-4.178.3-5.52-1.74-5.509-5.105.012-3.258 2.29-4.318 4.905-4.46 3.965-.216 7.971-.27 11.92.068 2.841.243 5.053 1.758 4.695 5.201-.317 3.046-2.26 4.232-5.099 4.262-3.48.037-6.962.025-10.912.034zM277.938 126.32c.787-1.723 1.371-3.1 2.08-4.41 1.322-2.447 3.183-3.743 6.105-2.718 2.924 1.026 3.725 3.326 3.097 5.953-.645 2.701-1.755 5.314-2.873 7.874-1.233 2.824-3.596 4.006-6.505 3.033-3.087-1.033-3.534-3.66-2.964-6.523.193-.967.603-1.89 1.06-3.21zM331.088 87.244c-2.746.82-4.832 2.345-7.481 2.108-1.969-.175-4.272.215-4.741-2.443-.434-2.457-.655-5.1 2.253-6.434 2.7-1.237 5.386-2.584 8.213-3.437 2.428-.733 4.894.15 5.68 2.67 1.02 3.267.494 6.308-3.924 7.536zM305.304 132.451c-1.001-2.848-1.999-5.308-2.55-7.863-.543-2.526.372-4.593 3.062-5.453 2.59-.828 4.59.07 5.814 2.393 1.072 2.035 1.932 4.187 2.8 6.323 1.185 2.916 1.922 5.786-1.692 7.663-3.416 1.774-5.666.436-7.434-3.063zM279.262 57.036c5.78.171 11.742 9.292 9.545 14.04-1.287 2.778-3.47 3.953-6.53 2.514-4.75-2.236-6.815-12.17-3.015-16.554zM334.174 107.13c1.522 2.685 1.964 5.3-.006 7.23-1.795 1.759-4.333 1.094-6.619.4-2.558-.777-5.08-1.618-7.145-3.404-2.072-1.791-2.25-4.13-1.197-6.362 1.073-2.278 3.258-2.814 5.546-1.963 3.092 1.15 6.106 2.512 9.42 4.1zM307.173 57.826c2.607-1.808 4.845-1.286 6.623.422 1.688 1.623 1.78 3.759.713 5.934-1.23 2.506-2.148 5.187-3.578 7.566-1.033 1.718-2.78 2.885-5.046 2.052-2.029-.746-3.118-2.063-3.25-4.419-.25-4.453 1.793-7.924 4.538-11.555zM257 113.437c-.331-5.7 7.356-11.765 12.58-10.437 3.196.813 4.62 3.86 3.275 7.007-1.867 4.365-11.755 6.77-15.856 3.43zM266.592 78.919c1.267.585 2.15 1.03 3.038 1.468 3.072 1.512 4.816 3.68 2.932 7.113-1.792 3.268-4.572 3.34-7.639 1.856-1.336-.647-2.653-1.363-4.049-1.849-3.369-1.171-5.538-3.352-4.491-6.977 1.14-3.952 4.568-2.94 7.485-2.514.8.116 1.563.5 2.724.903z"/></svg>