<svg xmlns="http://www.w3.org/2000/svg" xml:space="preserve" viewBox="0 0 416 400"><path d="M275.534 69.943c7.907-13.727 20.881-16.53 32.71-7.268 4.925 3.857 6.353 9.539 7.005 15.37.271 2.422 1.016 3.413 3.529 3.75 8.676 1.162 16.686 3.918 23.495 9.823 8.477 7.352 13.86 16.54 13.914 27.607.295 60.165.211 120.332.11 180.498-.033 19.495-18.509 37.594-38.035 37.6-71.166.024-142.332.02-213.498.002-18.147-.004-35.52-15.35-38.14-33.205-.828-5.638-.964-11.24-.965-16.883-.008-54-.133-108 .067-161.999.068-18.548 8.17-32.497 25.534-40.385 3.995-1.815 8.298-2.379 12.51-3.036 3.04-.474 3.796-1.69 3.927-4.484.47-9.988 5.925-16.818 15.09-19.27 8.688-2.326 18.17 1.669 23.23 9.665 1.663 2.63 2.58 5.44 2.283 8.483-.392 4.03.973 5.548 5.251 5.533 38.333-.136 76.666-.104 114.999-.028 3.434.007 5.293-.755 5.232-4.689-.035-2.233 1.022-4.484 1.752-7.084M343.649 236.5c0-21.991-.118-43.984.097-65.974.046-4.677-1.12-6.306-6.083-6.297-83.967.148-167.936.15-251.903.016-5.025-.008-6.541 1.39-6.518 6.482.19 41.817.103 83.634.117 125.452 0 1.982.042 3.921.628 5.91 4.22 14.324 15.106 22.564 30.208 22.568 66.641.016 133.283.01 199.924.007 21.692-.001 33.528-11.897 33.531-33.684.002-17.827 0-35.653-.001-54.48M175.5 95.357c-7.496-.002-14.994.104-22.487-.055-3.372-.071-4.664 1.032-4.755 4.57-.297 11.45-8.771 19.471-20.172 19.487-11.41.016-20.17-8.11-20.333-19.415-.064-4.464-2.168-5.282-5.607-4.339-10.838 2.975-18.696 9.392-21.693 20.543-2.455 9.134-.765 18.546-1.055 27.828-.24 7.677-.047 7.685 7.413 7.685h183.903c22.488 0 44.976-.069 67.463.078 3.972.026 5.736-.947 5.552-5.281-.305-7.15.041-14.325-.107-21.485-.294-14.183-9.133-25.405-22.263-28.954-3.815-1.031-5.817-.983-6.243 3.804-.522 5.864-2.592 11.436-7.498 15.186-13.406 10.25-31.723 2.68-33.678-14.26-.577-4.99-2.462-5.462-6.488-5.448-30.317.106-60.635.057-91.952.056m-52.118 8.71c6.45 3.13 10.806 1.519 11.817-5.104 1.073-7.035.93-14.245.025-21.312-.557-4.342-4.293-6.868-8.14-6.21-4.133.706-5.722 3.545-5.725 7.501-.003 4.812-.094 9.627.02 14.436.08 3.419-.831 7.019 2.003 10.689m178.27-22.271c-.103-7.034-2.43-10.432-7.143-10.424-4.81.008-7.125 3.353-7.155 10.406-.022 5.14-.039 10.28.007 15.419.043 4.974 2.99 8.455 7.049 8.441 4.048-.013 7.077-3.452 7.21-8.487.127-4.805.03-9.615.031-15.355z"/><path d="M189.387 257.392c2.669-2.69 5.5-4.337 8.917-4.86 9.087-1.388 18.22-1.806 27.183.441 8 2.005 13.437 9.144 13.799 17.532.222 5.155.164 10.33.02 15.49-.232 8.287-8.595 19.108-19.3 18.42-5.972-.385-11.99-.04-17.987-.076-10.35-.061-18.177-7.861-18.344-18.318-.077-4.83.177-9.672-.071-14.49-.285-5.556 1.749-10.025 5.783-14.139m36.266 20.167c0-.998.004-1.997-.002-2.995-.037-6.938-2.283-9.19-9.22-9.221-3.494-.016-6.989-.03-10.483-.004-6.285.045-8.758 2.067-9.538 7.744-1.415 10.305.973 16.742 6.813 18.3.635.168 1.314.233 1.973.236 4.326.02 8.672.263 12.974-.063 3.907-.297 7.05-2.104 7.438-6.57.186-2.147.04-4.323.045-7.427zM290.22 252.144c11.179 2.699 16.105 8.881 16.118 19.906.006 4.822.042 9.644-.012 14.466-.107 9.665-8.073 17.687-17.714 17.814-5.32.07-10.688-.429-15.954.112-10.833 1.112-20.128-6.261-21.358-16.936-.973-8.447-1.683-16.873 1.962-24.872 3.2-7.023 9.372-10.28 16.638-10.83 6.598-.5 13.276.07 20.32.34m3.432 28.144c-.001-13.637-1.115-14.938-12.804-14.95-16.291-.018-16.688.384-16.502 16.72.076 6.644 2.63 9.326 9.289 9.567 3.153.115 6.313.052 9.469.021 7.749-.074 10.384-2.699 10.548-11.358zM143.013 251.655c8.51-.13 16.613-.496 22.806 6.047 3.413 3.608 5.613 7.756 5.542 12.91-.073 5.328.095 10.662-.049 15.988-.25 9.298-8.274 17.432-17.575 17.697-6.824.194-13.66.174-20.485.001-8.13-.205-16.32-7.66-17.324-16.539-.706-6.244-.735-12.709.026-18.942 1.25-10.25 9.35-16.767 20.073-17.141 2.163-.076 4.33-.018 6.986-.021m-13.644 20.496c-.006 3.663-.048 7.326-.01 10.989.053 5.34 2.8 8.26 8.183 8.466 3.99.154 7.996.155 11.986-.002 4.466-.177 7.513-2.36 8.561-6.89.99-4.276.875-8.62.208-12.878-.683-4.361-3.492-6.576-8.036-6.502-4.327.071-8.658.036-12.987-.004-4.183-.038-7.036 1.61-7.905 6.821zM126.628 234.76c-5.831-2.542-8.937-6.845-10.07-12.547-1.53-7.713-1.411-15.483-.089-23.216 1.445-8.442 10.788-15.28 18.81-14.442 5.597.584 11.303.097 16.96.112 11.403.03 19.006 7.608 19.102 19.044.032 3.827.01 7.654.005 11.48-.015 12.594-4.998 19.448-17.387 21.52-8.946 1.496-18.184 1.704-27.33-1.95m2.887-16.26c1.9 3.851 4.885 5.57 9.267 5.214 3.308-.27 6.656-.032 9.986-.063 6.203-.057 9.08-1.718 9.57-7.169.8-8.895 1.425-15.705-4.45-18.004-1.072-.42-2.183-1.002-3.288-1.027-4.825-.11-9.69-.403-14.472.073-4.197.417-6.981 2.84-6.809 7.652.149 4.158.064 8.324.196 13.324zM239.346 205.206c-.057 5.29.44 10.194-.288 14.909-1.473 9.55-6.786 14.534-16.771 16.375-8.218 1.515-16.523 1.65-24.66-.4-8.442-2.127-13.91-9.554-13.963-18.297-.03-4.987-.036-9.974.003-14.961.08-10.445 7.798-18.09 18.327-18.158 5.652-.036 11.304-.018 16.956-.01 12.133.018 20.06 7.822 20.396 20.542m-28.794-7.86c-1.999.013-4.008-.099-5.993.068-4.069.341-7.157 2.458-7.806 6.484-.76 4.718-.964 9.56.317 14.33.968 3.604 3.38 5.264 6.874 5.364 4.825.139 9.664.185 14.486 0 4.393-.169 7.132-3.27 7.212-7.81.062-3.497.05-6.996-.002-10.493-.068-4.626-2.579-7.453-7.15-7.866-2.314-.21-4.66-.063-7.938-.078zM273.214 237.332c-14.813-.931-22.442-8.775-22.515-22.92-.025-4.796-.266-9.57.786-14.396 2.032-9.32 8.678-15.255 18.106-15.335a1348.42 1348.42 0 0 1 18.497-.01c10.763.055 18.187 7.454 18.244 18.158.023 4.333-.472 8.73.095 12.986 1.698 12.732-9.348 21.506-21.244 21.514-3.832.002-7.665.003-11.969.003m-1.104-13.694c4.314.004 8.63.105 12.94-.012 5.674-.153 8.42-2.967 8.578-8.696.092-3.315.144-6.643-.03-9.952-.244-4.63-2.932-7.37-7.554-7.56-4.638-.19-9.294-.186-13.933-.023-4.647.163-7.37 2.812-7.683 7.448-.223 3.304-.025 6.634-.087 9.951-.091 4.84 2.074 7.861 7.77 8.844z"/></svg>