<svg xmlns="http://www.w3.org/2000/svg" xml:space="preserve" viewBox="0 0 416 400"><path d="M163.609 212.6c-9.952 13.204-24.436 19.302-37.863 11.263-4.626-2.77-5.432-5.433-2.665-10.25 4.892-8.513 4.892-8.513-2.112-16.176-1.208 1.484-.595 3.2-.597 4.758-.04 37.162-.028 74.323-.04 111.485-.004 8.246-3.933 13.226-11.397 14.553-9.737 1.73-16.505-1.371-19.565-8.766-.812-1.963-.7-3.909-.704-5.88-.029-15.665.048-31.33-.09-46.994-.02-2.133 1.548-5.863-2.41-5.913-4.314-.053-2.722 3.872-2.744 6.162-.14 14.663-.559 29.35.079 43.987.535 12.269-5.465 18.587-18.102 17.594-6.66-.523-11.001-3.252-13.209-9.429-.7-1.958-.522-3.947-.524-5.929-.023-20.997-.094-41.995.06-62.99.025-3.586-.99-5.657-4.22-7.5-9.159-5.227-12.459-14.18-12.713-23.974-.453-17.486-.607-35.009.002-52.486.635-18.245 16.882-28.98 29.588-28.541 11.984.412 24.028.661 35.983-.061 14.98-.905 25.47 5.433 33.285 17.615 4.376 6.821 9.072 13.437 13.786 20.385 3.6-2.39 4.969-5.885 7.067-8.752 4.51-6.161 7.982-13.06 13.27-18.67 6.592-6.993 14.398-10.777 24.305-10.515 13.322.351 26.66.062 39.992.09 10.506.023 18.414 5.002 24.361 13.288 5.128 7.142 9.968 14.49 14.975 21.721.639.921 1.517 1.676 2.63 2.884 5.615-6.493 9.734-13.682 14.282-20.523 7.635-11.482 17.412-18.186 31.888-17.497 12.47.593 24.993.282 37.488.077 15.662-.257 29.24 13.262 29.565 29.012.35 16.99.445 34.004-.055 50.987-.319 10.828-3.627 20.694-14.345 26.095-2.89 1.456-2.517 4.009-2.518 6.482-.005 21.164.013 42.328-.004 63.492-.008 9.965-4.912 14.657-15.239 14.666-11.166.01-16.42-4.625-16.44-14.61-.032-16.164.018-32.329-.05-48.493-.008-1.761.985-4.352-2.29-4.551-3.52-.214-2.946 2.413-2.95 4.49-.033 15.498-.509 31.016.112 46.489.58 14.429-9.295 18.666-21.4 16.209-6.967-1.414-10.393-6.245-10.409-13.775-.067-31.161-.094-62.323-.13-93.484-.01-7.943-.002-15.885-.002-25.2-2.578 3.898-4.4 6.733-6.308 9.508-1.096 1.594-.233 2.884.527 4.143 1.032 1.708 2.32 3.264 3.305 4.996 2.505 4.403 1.458 7.345-2.891 9.868-14.206 8.24-28.132 1.19-37.516-10.551-4.332-5.421-8.125-11.274-12.532-17.448-1.15 2.504-.751 4.613-.753 6.615-.03 37.161-.015 74.323-.032 111.485-.004 7.518-4.257 13.124-10.684 14.239-10.504 1.821-17.434-1.305-20.367-9.062-.74-1.96-.615-3.931-.618-5.911-.025-15.331-.014-30.663-.018-45.994 0-1.333-.013-2.667-.051-3.999-.052-1.795-.932-2.823-2.792-2.751-1.64.063-2.361 1.117-2.404 2.63-.07 2.497-.069 4.997-.07 7.497-.006 14.498.017 28.996-.012 43.494-.018 9.08-5.372 14.15-14.864 14.167-11.336.022-16.778-4.571-16.787-14.347-.031-37.495-.017-74.99-.02-112.485v-5.764c-5.727 5.164-8.298 11.633-13.044 16.844m23.74 85.897c.014 4.83-.084 9.665.086 14.49.1 2.878 1.728 4.596 4.778 4.634 3.158.04 5.047-1.45 5.374-4.642.135-1.32.064-2.663.064-3.995.003-16.992-.01-33.984.008-50.976.007-7.054 1.302-8.303 8.498-8.341 3.498-.019 6.997-.042 10.495.007 6.103.086 7.648 1.6 7.662 7.722.04 17.159.018 34.317.028 51.476 0 1.499-.102 3.02.113 4.491.43 2.952 2.386 4.25 5.253 4.23 2.728-.019 4.399-1.492 4.813-4.124.257-1.63.127-3.324.127-4.989.009-38.149.011-76.298.016-114.447 0-5.33-.025-10.662.027-15.992.025-2.574.397-5.29 3.254-6.106 2.852-.815 5.521-.283 7.366 2.643 2.122 3.364 4.49 6.581 6.854 9.785 6.489 8.792 11.437 18.787 19.716 26.167 3.683 3.282 7.596 6.904 13.324 5.734.607-2.011-.353-2.996-1.088-4.09-12.047-17.923-23.911-35.974-36.206-53.725-4.622-6.673-10.962-10.659-19.864-10.236a362.082 362.082 0 0 1-33.972.01c-9.513-.444-15.886 4.082-20.816 11.267-10.902 15.89-21.616 31.91-32.27 47.968-1.78 2.682-4.302 5.034-5.003 8.702 2.341.564 4.294.546 6.407-.431 5.291-2.448 9.57-6.156 12.902-10.77a966.73 966.73 0 0 0 20.153-29.058c2.233-3.344 4.866-5.132 8.718-3.923 3.748 1.175 3.178 4.603 3.178 7.575.005 39.315.004 78.63.004 118.944M45.383 216.97c2.095 10.04 2.366 10.62 6.264 12.749v-5.638c.004-15.495.03-30.99-.004-46.485-.008-3.472.999-5.82 4.998-5.938 3.908-.116 5.288 2.185 5.633 5.534.153 1.485.062 2.996.062 4.495.004 38.655.005 77.309.008 115.963 0 4.998.027 9.997.008 14.995-.013 3.325 1.728 4.872 4.926 4.952 3.186.08 5.031-1.471 5.316-4.668.133-1.489.072-2.996.072-4.496.003-16.994-.019-33.989.008-50.983.01-6.25 1.457-7.714 7.54-7.782 3.831-.043 7.664-.038 11.495.003 6.117.066 7.605 1.528 7.622 7.725.042 14.995.014 29.99.017 44.985 0 3.499-.051 7 .04 10.496.078 2.956 1.665 4.607 4.67 4.727 3.126.125 5.148-1.247 5.505-4.47.183-1.647.087-3.327.087-4.993.005-42.986.005-85.972.012-128.958 0-2.98-.5-6.358 3.463-7.312 3.958-.953 6.718.857 8.528 4.395a43.632 43.632 0 0 0 2.797 4.708c3.295 4.828 6.653 9.612 10.083 14.55 6.829-7.556 7.005-8.505 2.89-14.555-4.948-7.278-9.821-14.611-14.943-21.766-4.979-6.956-11.193-11.399-20.492-10.98-11.141.5-22.321.114-33.484.122-14.654.01-23.148 8.53-23.154 23.233-.005 14.829.007 29.657.033 45.392m249.599-32.425c2.373-3.6 4.653-7.268 7.151-10.779 1.823-2.56 4.648-2.584 7.251-1.735 2.35.767 2.814 3.08 2.92 5.326.062 1.33.028 2.665.028 3.998.003 42.49.003 84.979.009 127.468 0 1.499-.091 3.016.1 4.493.384 2.981 2.332 4.263 5.2 4.275 2.73.01 4.41-1.433 4.877-4.057.26-1.459.13-2.99.13-4.49.008-17.328-.018-34.657.023-51.986.013-5.78 1.627-7.336 7.441-7.4a453.37 453.37 0 0 1 11.997.016c5.55.086 7.177 1.62 7.212 7.124.073 11.83.025 23.66.028 35.49.002 6.666.016 13.33.008 19.996-.003 3.416 1.535 5.375 5.09 5.328 3.476-.045 5.14-1.942 5.181-5.352.018-1.5.018-3 .018-4.5.003-42.655 0-85.311.013-127.967.002-6.347 1.259-8.133 5.463-8.11 5.991.034 5.189 4.383 5.195 8.177.024 15.163.002 30.326.056 45.488.005 1.405-.582 2.979.928 4.572 4.505-3.9 5.114-9.322 5.226-14.423.334-15.322.217-30.657.106-45.985-.086-11.967-9.353-21.106-21.267-21.154-12.496-.05-24.995.096-37.49-.052-5.537-.066-10.04 1.948-13.821 5.753-7.678 7.726-12.599 17.48-18.98 26.164-5.146 7.002-4.687 8.642 2.595 15.151 2.315-3.458 4.594-6.862 7.312-10.829zM320.427 123.605c-12.03-10.07-10.966-28.65-.55-37.763 7.523-6.582 16.097-7.879 25.114-4.991 8.962 2.87 14.788 9.056 16.405 18.827 2.677 16.18-7.533 26.713-16.859 28.851-8.432 1.933-16.911 2.012-24.11-4.924m29.418-13.558c1.083-1.841.813-3.881.787-5.86-.085-6.3-4.27-11.374-10.817-13.218-5.33-1.5-11.219 1.063-14.922 6.496-3.187 4.677-2.696 11.545 1.156 16.165 3.896 4.673 10.212 6.297 15.795 4.019 3.375-1.378 5.53-4.149 8.001-7.602zM191.404 120.462c-10.763-15.854-5.077-34.181 12.042-39.915 10.167-3.406 23.775 1.418 28.983 10.274 6.336 10.776 4.852 23.408-3.704 31.526-11.245 10.67-25.418 10.05-37.321-1.885m31.708-8.926c3.02-5.067 3.133-10.144-.613-14.796-3.487-4.33-7.88-7.303-13.85-6.151-6.039 1.165-11.446 7.314-11.91 13.264-.446 5.71 4.015 12.012 9.924 14.02 6.102 2.072 11.901-.02 16.449-6.337zM60.644 109.053c-2.147-11.015 2.486-20.794 11.608-26.21 8.373-4.971 21.09-4.234 28.615 1.959 7.573 6.232 10.692 14.377 9.065 23.926-1.732 10.166-7.672 17.533-17.783 19.969-15.81 3.809-28.728-4.209-31.505-19.644m28.694 9.096c1.137-.676 2.266-1.368 3.413-2.026 4.851-2.786 6.912-7.595 6.565-12.534-.455-6.482-5.013-10.779-11.113-12.694-5.01-1.573-9.444.374-13.031 4.058-3.904 4.008-5.518 10.796-2.972 15.147 3.536 6.04 8.029 9.783 17.138 8.05z"/></svg>