<svg xmlns="http://www.w3.org/2000/svg" xml:space="preserve" viewBox="0 0 416 400"><path d="M167 369.34c-19.827 0-39.154.013-58.481-.008-16.72-.019-29.263-9.889-33.333-26.018-.587-2.33-.511-4.62-.512-6.932-.02-59.647-.017-119.294-.013-178.941 0-13.763 8.065-25.59 20.826-30.577 4.535-1.771 7.1-8.616 4.861-12.879-.874-1.665-2.42-1.572-3.898-1.587-4.831-.05-9.664.002-14.495-.076-4.957-.08-7.236-2.254-7.277-6.775-.044-5.007 1.688-7.074 6.954-6.787 4.988.272 6.188-1.677 6.11-6.346-.247-14.99-.114-29.989-.077-44.984.015-6.013 1.732-7.748 7.706-7.75 56.315-.017 112.63-.018 168.945.005 6.619.003 8.007 1.503 8.016 8.375.021 14.995.138 29.992-.063 44.984-.067 4.955 1.934 7.756 6.554 9.08 1.238.356 2.437 1.04 3.49 1.801 1.616 1.166 3.413 2.433 2.691 4.85-.713 2.39-2.743 3.38-4.98 3.459-4.993.175-10.008.318-14.99.035-4.337-.246-5.807 1.262-5.82 5.683-.014 4.775.702 7.614 6.038 9.484 12.414 4.352 20.329 16.393 20.214 30.084-.332 39.65-.045 79.307-.212 118.96-.02 4.705 1.156 6.445 6.103 6.276 10.317-.353 20.673.275 30.982-.184 21.295-.947 42.888 19.424 42.257 41.947-.483 17.21-6.732 30.189-21.29 39.033-6.777 4.117-14.394 5.798-22.358 5.797-51.15-.01-102.299-.007-153.948-.008m1.5-69.688c8.166.002 16.355-.375 24.49.13 5.893.366 10.03-1.616 13.98-5.83 7.154-7.634 16.374-11.135 26.775-11.27 10.83-.142 21.667-.177 32.495.04 4.101.082 5.51-1.242 5.485-5.419a7013.78 7013.78 0 0 1-.008-77.493c.02-4.049-1.15-5.552-5.387-5.543-57.495.117-114.99.134-172.486.007-4.508-.01-5.613 1.522-5.592 5.787.152 31.164.182 62.329-.01 93.492-.03 4.864 1.504 6.241 6.265 6.2 24.33-.204 48.662-.098 73.993-.1M99.538 180.665h144.48c7.665 0 15.333-.11 22.995.045 3.446.07 4.815-1.199 4.68-4.673-.185-4.825-.364-9.689.018-14.491 1.097-13.79-7.073-21.618-19.834-23.164-4.194-.508-6.198-2.775-6.207-6.926-.008-4-.296-8.025.063-11.992.435-4.794-1.249-6.256-6.115-6.225-31.827.201-63.657.101-95.486.103-8.332.001-16.667.15-24.995-.04-3.742-.086-5.062 1.31-4.849 4.973.232 3.986.083 7.996.047 11.995-.052 5.748-1.37 7.247-7.03 8.127-12.24 1.904-18.937 9.778-18.965 22.306-.007 3.166-.033 6.333.003 9.499.136 12.064-1.535 10.294 11.195 10.463M247.45 97.668c1.666 0 3.354-.173 4.994.031 4.717.588 6.453-1.164 6.308-6.094-.326-11.154-.174-22.325-.048-33.487.037-3.27-.788-4.834-4.456-4.827-49.32.087-98.638.096-147.957-.002-4.125-.008-5.059 1.73-5 5.425.164 10.328 0 20.66.094 30.99.025 2.762-.674 5.636.493 7.963l145.572.001M122.5 313.337c-9.32.003-18.648.22-27.958-.08-4.66-.15-6.726 1.096-6.281 6.094.396 4.458.075 8.98.082 13.473.025 14.44 8.448 22.826 22.98 22.833 28.626.014 57.251.017 85.877-.018 1.758-.002 3.626.502 5.842-.913-9.103-12.277-12.324-26.003-8.795-41.389H122.5m147.997-16.416c-11.595-1.253-23.226-.507-34.835-.507-14.739 0-28.267 12.712-28.736 28.295-.411 13.679 8.338 26.803 24.025 29.89 12.317 2.423 24.851.598 37.28 1.027 3.477.12 3.42-2.364 3.417-4.798-.009-10.645.11-21.292-.038-31.935-.1-7.124.68-14.275-1.113-21.972m79.14 37.058c4.687-15.47-5.024-33.224-20.696-36.471-13.442-2.786-27.195-.772-40.807-1.032-2.814-.054-2.778 2.327-2.778 4.385 0 16.818.054 33.637-.051 50.455-.02 3.234 1.11 4.434 4.36 4.383 8.99-.138 17.983-.085 26.974-.035 15.448.086 27.005-5.875 32.997-21.685z"/><path d="M180.777 213.721c5.121.77 6.64 3.861 6.578 8.221-.06 4.328.192 8.67-.064 12.984-.227 3.83 1.382 4.964 4.98 4.788 4.484-.22 8.991-.14 13.483-.006 5.127.154 7.546 2.583 7.562 7.283.016 4.642-2.47 7.157-7.545 7.31-4.658.14-9.326.144-13.985.03-3.15-.076-4.573 1.113-4.469 4.388.15 4.658.113 9.326-.005 13.985-.13 5.09-2.549 7.528-7.252 7.59-4.77.065-7.2-2.29-7.351-7.41-.129-4.326-.304-8.679.026-12.982.349-4.55-1.59-5.876-5.817-5.606-4.146.264-8.324.138-12.484.037-5.507-.133-7.804-2.437-7.741-7.532.06-4.817 2.324-7.007 7.606-7.115 4.66-.096 9.328-.137 13.986.008 3.229.1 4.507-1.21 4.403-4.424-.145-4.49-.085-8.991-.002-13.485.11-5.936 1.68-7.54 8.09-8.064zM335.52 331.984c-5.5.716-10.222.844-11.23-6.016-.29-1.964-2.551-2.322-4.246-3.045-4.772-2.036-6.574-5.38-5.211-9.87 1.277-4.21 4.751-4.525 8.457-4.409 6.57.207 11.143 3.955 13.73 9.299 2.1 4.34 3.068 9.558-1.5 14.041z"/></svg>