<svg xmlns="http://www.w3.org/2000/svg" xml:space="preserve" viewBox="0 0 416 400"><path d="M102.653 331.142c-5.587-19.352-9.619-38.587-12.123-58.192a233.42 233.42 0 0 1-1.847-34.769c.467-21.408 6.232-41.198 18.02-59.208 6.083-9.293 12.938-18.088 17.902-28.116 8.278-16.718 9.3-34.359 7.284-52.498-1.647-14.83-6.214-28.776-12.186-42.343-1.955-4.441-1.098-8.518 2.02-10.154 4.052-2.125 8.296-.71 10.673 4.124 5.665 11.523 9.318 23.74 11.944 36.29 2.127 10.164 1.968 20.45 2.052 30.754.158 19.406-5.805 36.846-16.25 52.961-5.232 8.073-11.479 15.49-15.67 24.233-.781 1.63-1.458 3.31-2.155 4.903 27.358 19.193 156.997 19.068 190.615-.131-.857-4.625-3.878-8.234-6.261-12.116-4.862-7.92-10.725-15.174-15.375-23.256-6.377-11.08-10.178-22.878-11.728-35.588-2.986-24.5.74-47.953 10.068-70.646 1.136-2.763 2.347-5.511 3.755-8.142 1.696-3.167 4.034-5.084 8.084-4.014 4.05 1.07 5.007 3.64 4.915 7.442-.112 4.593-2.937 8.078-4.475 12.054-6.862 17.733-10.74 36.014-9.443 55.007 1.114 16.32 6.325 31.4 16.19 44.765 11.191 15.16 21.133 31.005 25.04 49.867 3.436 16.589 3.14 33.275 1.868 50.054-1.852 24.435-7.735 48.038-14.228 71.525-2.075 7.507-4.5 14.92-6.91 22.33-1.475 4.532-4.826 6.18-9.307 4.894-3.325-.955-5.333-5.368-3.917-9.544 3.309-9.756 6.06-19.667 8.776-29.597 4.947-18.084 9.07-36.35 11.456-54.947 1.135-8.839 2-17.777.836-27.103-7.276 1.864-13.11 6.15-19.227 9.592-18.218 10.25-35.941 21.338-52.805 33.74-6.138 4.514-11.438 10.695-18.638 13.087-6.729 2.236-7.546 5.97-7.392 12.012.381 14.989.146 29.994.114 44.992-.012 5.636-1.88 7.817-6.577 7.934-4.828.12-7.03-2.234-7.055-8.054-.072-16.498-.077-32.997.018-49.494.018-3.192-.55-4.88-4.224-5.907-7.871-2.204-13.39-8.5-19.778-13.187a521.54 521.54 0 0 0-56.625-36.198c-5.49-3.03-11.047-5.937-17.074-9.17-1.24 5.547-.983 10.54-.52 15.37 2.97 30.977 10.178 61.062 19.608 90.655.755 2.368 1.46 4.763 1.99 7.189.835 3.825-.046 7.099-4.031 8.552-4.285 1.562-8.004-.304-9.434-4.86-2.778-8.852-5.294-17.787-7.973-27.092m132.265-104.527c-11.574.923-23.181 1.943-34.768 1.393-4.451-.211-8.938-.392-13.405-.65-5.797-.336-11.63-.425-17.378-1.166-19.878-2.566-39.65-5.731-58.854-11.737-1.164-.364-2.47-1.116-3.804-.094-3.34 2.558-2.838 10.914.846 12.943 6.842 3.767 13.756 7.406 20.556 11.247 23.434 13.24 46.303 27.334 67.234 44.382 7.665 6.243 16.542 6.475 23.783.648 26.795-21.562 55.974-39.388 86.649-54.75 5.29-2.648 5.834-5.356 4.567-10.305-1.094-4.276-2.531-5.523-7.17-4.174-22.001 6.397-44.392 10.869-68.256 12.263z"/><path d="M87.598 107.478c-3.064-3.82-5.995-7.432-9.121-10.865-3.186-3.499-3.912-7.995-1.47-10.658 2.812-3.065 7.637-3.26 11.181.214 6.283 6.162 12.253 12.645 18.3 19.045 9.466 10.018 9.37 10.885-.466 20.864-5.95 6.037-11.65 12.321-17.544 18.414-3.459 3.575-8.072 3.95-10.995 1.1-2.892-2.82-2.668-7.65.804-11.051 3.537-3.466 7.312-6.69 11.136-10.158-2.49-2.536-4.42-1.963-6.097-1.975-10.498-.076-20.997-.015-31.495-.051-5.884-.02-8.132-1.977-8.162-6.928-.03-4.747 2.319-6.713 8.336-6.747 10.165-.056 20.33.022 30.495-.078 1.71-.017 3.663.805 5.098-1.126zM313.469 130.53c-2.84-2.84-5.455-5.406-8.008-8.032-4.801-4.938-4.781-9.23.17-14.22 7.153-7.208 14.448-14.279 21.541-21.546 3.074-3.148 6.208-4.515 10.006-1.546 2.832 2.214 3.223 7.548.537 10.857-2.507 3.088-5.534 5.751-8.279 8.653-.884.934-2.192 1.564-2.475 3.343 1.972.888 4.112.593 6.173.602 10.323.043 20.646-.025 30.969.052 5.079.037 7.237 2.169 7.23 6.77-.006 4.612-2.217 6.829-7.163 6.862-10.489.072-20.98.01-31.468.072-1.769.01-3.626-.437-5.932.83 3.478 3.918 7.073 7.487 10.147 11.49 2.72 3.543 3.29 8.85.618 11.221-2.727 2.421-8.385 1.854-11.184-1.728-3.817-4.883-8.402-8.975-12.882-13.68zM214.967 152.79c-3.597 3.962-7.658 4.596-11.961 2.495-5.298-2.587-4.522-7.661-4.23-12.227.257-4.012 2.639-6.602 6.614-7.727 6.526-1.846 13.354 5.436 11.579 12.498-.4 1.59-1.182 3.083-2.002 4.96z"/></svg>