<svg xmlns="http://www.w3.org/2000/svg" width="560" height="541.333" version="1.0" viewBox="0 0 420 406"><path d="M154.4 38.4c-9.5 3.1-17.8 11.4-21 20.8-2.3 7.1-1.6 18.8 1.6 25.3 5.3 11 15.3 17.5 28 18.3 6 .3 8.6 0 13.2-1.8 7.5-2.8 15-9.6 18.5-16.8 2.4-4.9 2.8-6.9 2.8-14.2 0-10.1-2-15.4-8.6-22.5-6.4-6.9-12.7-9.8-22.4-10.2-4.9-.2-9.6.2-12.1 1.1zm21.7 15.1c4.9 3.5 8 8.8 8.7 15 .3 3.5-.1 5.7-2.3 10-7.4 15.3-27.9 15.4-35.6.2-3.2-6.1-2.4-15.3 1.7-20.4 5-6.2 9.8-8.4 17.1-8 5 .2 7.1.9 10.4 3.2zM245.4 38.4c-9.5 3.1-17.8 11.4-21 20.8-2.3 7.1-1.6 18.8 1.6 25.3 5.3 11 15.3 17.5 28 18.3 6 .3 8.6 0 13.2-1.8 7.5-2.8 15-9.6 18.5-16.8 2.4-4.9 2.8-6.9 2.8-14.2 0-10.1-2-15.4-8.6-22.5-6.4-6.9-12.7-9.8-22.4-10.2-4.9-.2-9.6.2-12.1 1.1zm19.7 13.9c2.4 1.3 5.7 4.3 7.4 6.6 2.5 3.6 3 5.2 3 10.4 0 7.7-2.6 13.1-8.3 17.1-13.1 9.2-31.2-.3-31.2-16.4 0-15.2 15.7-24.7 29.1-17.7zM109.3 109.8c-13.7 4.9-21.7 14.9-23 28.8-.7 7.5 1.4 15.3 6 22 13.8 19.9 44.4 17.9 56.2-3.8 2.4-4.4 3-6.8 3.3-13.9.4-7.8.2-9.3-2.3-14.8-3.2-7-10.3-14.2-17.1-17.2-6.5-2.9-16.7-3.4-23.1-1.1zm18.4 13.7c12.4 5.7 15.4 21.5 6 31.3-5.6 5.9-12 7.9-19.2 6.1-8.6-2.2-15.5-10.8-15.5-19.4 0-8 6-16.3 13.6-19 5.6-2 9.2-1.8 15.1 1zM200.3 109.8c-11.2 4-18.8 11.8-21.7 22.3-2 6.9-2 12.1-.1 18.5 4.3 14.5 16.5 23.5 32 23.7 12.1.1 23-6.5 29.1-17.5 2.7-4.9 2.9-6.1 2.9-15.3 0-8.6-.3-10.7-2.4-14.7-7.5-14.6-25.3-22.2-39.8-17zm15.8 12.3c9.4 3.2 14.3 10.6 13.7 20.4-.4 7.1-3 11.7-8.4 15.4-16.3 11.2-37.8-6.5-29.5-24.4 4.4-9.6 14.9-14.5 24.2-11.4zM292.9 109.3c-22.4 6.4-31.7 31.5-18.8 51 5.8 8.8 15.8 13.9 27.4 14 13 .1 24.6-7.5 30-19.5 2.4-5.3 2.7-7 2.3-14.6-.4-10.2-2.7-15.8-8.9-22.1-8.2-8.2-21.4-11.8-32-8.8zm14.2 12.8c16.7 5.6 19.3 27.7 4.3 36.5-16.6 9.7-36.5-7.8-28.5-25.1 4.4-9.6 14.9-14.5 24.2-11.4zM81.9 190.4c-10.8 2.9-20.7 11.4-26.1 22.4l-3.3 6.7V259c0 35.5.2 40 1.8 44 4.1 10.4 11.2 17.6 20 20.2l3.7 1.1v18.8c0 20.6.3 21.9 6 21.9s6-1.1 6.1-24.3c.2-82.4-.2-102.1-1.8-103.9-2.1-2.3-6.5-2.3-8.6 0-1.5 1.7-1.7 5.7-1.7 37.5 0 32.4-.2 35.7-1.6 35.7-2.7 0-7.9-6.4-9.7-12-1.5-4.5-1.7-10-1.7-38.9 0-39.4.2-40.4 8.4-48.7 7.9-7.8 10.6-8.4 37.8-8.4 21.5 0 22.9-.1 24.8-2 2.5-2.5 2.6-7.2.2-9.3-1.6-1.5-4.9-1.7-25.8-1.6-15.6 0-25.5.5-28.5 1.3zM171 191.3c-8.8 3-16 8.5-21 15.9-7 10.5-7.2 11.8-6.8 54 .3 36.6.4 37.4 2.7 43.2 3.2 8 10.8 15.8 17.9 18.2l5.2 1.9v18.7c0 20.5.4 21.8 6 21.8 5.7 0 6-1.1 6.1-24.3.2-82.4-.2-102.1-1.8-103.9-2.1-2.3-6.5-2.3-8.6 0-1.5 1.7-1.7 5.7-1.7 37.5 0 29.5-.2 35.7-1.4 35.7-2.4 0-6.3-3.9-8.7-8.7-2.4-4.7-2.4-5.3-2.7-40.1-.4-39.9-.1-41.6 6.7-49.4 2.1-2.4 6-5.4 8.7-6.8l4.9-2.5h34c38.9 0 37.8-.2 46.7 9.3 7.7 8.2 8 10.4 7.6 49.5-.4 36.8-.8 39-7 45.4-5.9 6.1-5.8 6.7-5.8-32.2 0-34.2-.1-35.6-2-37.5-1.1-1.1-3.1-2-4.5-2s-3.4.9-4.5 2c-2 2-2 3.3-2 62.8 0 67.7-.2 65.2 6.5 65.2 6 0 6.5-1.9 6.5-22.7v-18.2l3.8-1.1c8.8-2.3 15.7-9.8 19.4-21 2.1-6.1 2.2-8.8 2.6-40.2.2-22.7 0-35.6-.8-39.3-2.7-13.1-11.3-23.9-23.8-29.8l-6.7-3.2-34.5-.2c-33.5-.3-34.7-.2-41 2zM285.4 189.7c-1.9 1.4-3.5 5.3-2.9 7.2 1.3 4.3 2.8 4.6 28.4 5.1 28.2.6 28.9.8 37.3 9.8 7.7 8.2 8 10.3 7.6 49.4-.4 36.9-.7 39-7 45.5-5.9 6.1-5.8 6.7-5.8-32.2 0-34.2-.1-35.6-2-37.5-1.1-1.1-3.1-2-4.5-2s-3.4.9-4.5 2c-2 2-2 3.3-2 62.8 0 67.7-.2 65.2 6.5 65.2 5.9 0 6.5-1.9 6.5-22.5v-18l4.8-1.7c10.3-3.7 18-14.3 20.2-27.8 1.4-8.9 1.3-66.5-.1-73.2-2.6-12.5-11.4-23.3-23.7-29.1l-6.7-3.2-25.5-.3c-14-.1-26 .1-26.6.5z"/></svg>