<svg xmlns="http://www.w3.org/2000/svg" width="560" height="541.333" version="1.0" viewBox="0 0 420 406"><path d="M245.7 49.8c-1.4 1.6-1.7 4.4-1.7 18.5V85h-2.5c-1.4 0-2.8.1-3.2.2-.4.2-1.6-5.2-2.8-12-2.2-12.9-2.9-14.2-7.7-14.2-6.3 0-31.4 4.2-32.8 5.6-1.3 1.3-1.2 3.6 1.2 19.7 1.4 10 2.5 18.3 2.4 18.5-.2.1-2.5-3.5-5.3-8-3.8-6.5-5.4-8.4-7.4-8.6-4-.5-29.6 12.1-31 15.2-1.1 2.2-.1 4.1 10 20.8l11.1 18.3-3 .3c-5.6.6-6.2 3.1-4.1 16.6 1.1 7.5 2.3 12.1 3.2 12.7 2.2 1.4 5.6 1.1 7.4-.8 1.7-1.6 1.7-3.5-.2-14.1l-.5-3.2h34.9l1.8 6.5c6.8 25.4 32.8 41.6 57.7 36.1 17.9-4 33.8-19.6 38-37.4l1.3-5.2h17.2c16.2 0 17.3.1 17.3 1.9 0 1.6-23.1 162.7-24.5 170.8l-.6 3.3h-29.7c-25.3 0-30.1.2-32 1.6-2.8 2-3 6.9-.3 8.4 1.3.6 14.3 1 35.5 1 29.1 0 33.7-.2 35-1.6.9-.8 1.6-2.1 1.6-2.7 0-.7 6.1-43 13.5-94.1 7.4-51.1 13.5-93.6 13.5-94.5 0-2.7-1.6-4.3-4.8-4.9l-3.1-.7 12.6-20.7c9.5-15.7 12.3-21.1 11.8-22.7-.8-2.5-26.9-16.1-30.9-16.1-2.8 0-5.1 2.7-11.6 13.7-2.3 4-4.3 7.3-4.4 7.3-.1 0 .7-5.6 1.8-12.5 2.6-16.2 3.1-15.6-15.4-18-7.4-.9-14.5-1.9-15.7-2.2-4.1-.9-5.9 2.4-7.8 15.3-.9 6.5-2.1 12.3-2.5 12.7-.4.5-1.7.6-2.9.2-2.1-.6-2.1-1.2-2.1-22.8 0-18.5-.3-22.6-1.6-24.5-1.5-2.1-2.1-2.2-18.3-2.2-15 0-17 .2-18.4 1.8zM273 77.5V96h-3.9c-4.8 0-7.1 2-7.2 6.3-.1 1.8-.4 4.5-.8 6.2-.5 2.4-1.2.2-3.4-10.5-2.1-10.5-2.7-16.4-2.7-26.3V59h18v18.5zm-48.5-5.3c1.4 6.8 2.4 14.1 1.9 14.9-.3.5-1.8.9-3.4.9-3.3 0-6 2.3-6 5.2 0 1.1 1.6 10.8 3.6 21.6 3.9 21.4 5 24 9.8 22.8 4.6-1.1 4.7-3 1.4-21.5-2.6-14.3-3-17.4-1.8-18.1 1.1-.7 13.1-2.3 15.7-2.1.4 0 3 11.6 5.8 25.8l5.1 25.8-1.3 9.5c-.7 5.2-1.2 10.5-1.3 11.7 0 4.7 6.1 7.1 9.2 3.5 1.1-1.2 2.6-10.9 5.2-33.1 2-17.3 3.8-31.6 4-31.8.5-.5 15.4.9 16.4 1.6.7.4 0 8.4-1.7 22.6-1.7 13.2-2.5 22.9-2 24.2 1.1 3 4.5 3.8 7.4 1.9 1.4-.9 2.5-1.9 2.5-2.3 0-.3 1.4-11.4 3.1-24.7 1.7-13.2 2.8-25.8 2.6-28-.5-3.5.3-10.9 1.9-19 .6-2.8.7-2.8 5.8-2.2 10.7 1.4 11.6 1.7 11.6 4 0 1.1-1.8 12-4 24.1-3.5 19.7-3.7 22.2-2.4 24.2 1.7 2.7 5.5 3 7.6.5.9-.9 6.6-10 12.8-20.2 6.2-10.2 11.7-19 12.2-19.7.7-.9 2.8-.3 8.4 2.5 4.1 2 7.4 4 7.4 4.4 0 .4-5.3 9.4-11.8 20l-11.8 19.3-17.1.5c-9.4.3-17.5.8-17.9 1.2-.4.5-1.1 3.6-1.6 7-1.8 13.5-11.1 26.4-23.3 32.4-5.3 2.5-7.1 2.9-15 2.9-7.8 0-9.8-.4-15-2.8-12.1-5.7-21.3-17.8-23.6-31.3-.6-3.9-1.8-7.4-2.7-8.2-1.1-.8-6.2-1.2-17.3-1.2h-15.7l-10.1-16.4c-5.6-9.1-10.3-17.1-10.6-17.8-.4-.9 2-2.6 6.9-5l7.3-3.7 11.1 18.2c6.2 10.3 11.7 18.3 12.7 18.5 2.8.6 6.3-.7 6.9-2.6.3-.9-1.4-14.5-3.8-30.2s-4.1-28.7-3.9-28.9c.3-.4 12.9-2.6 17-3 .7 0 1.5.9 1.8 2.1z"/><path d="M120.5 181.1C99.2 184 78.2 194 67.1 206.7c-2.3 2.5-5.8 8-7.8 12-3.4 6.8-3.7 8.3-4.1 18.2-.4 9.1-.2 11 1.3 12.4C58 250.9 65 251 149 251c81.3 0 91-.2 92.4-1.6 2.3-2.3 2.2-17.4-.2-25.2-6.1-19.3-27.4-35.5-55.2-41.7-8.9-2-54-3-65.5-1.4zm66 12.6c27.2 7.8 43.6 22.5 46 41l.7 5.3H65.7l.5-6.3c.7-7.9 3.5-13.5 10.6-21 9.3-9.7 21.6-15.9 39.2-19.8 7.4-1.6 12-1.8 36-1.5 23.9.3 28.4.6 34.5 2.3zM47.2 266.6c-2.7 1.8-2.9 5.5-.4 7.7 1.7 1.5 6.4 1.7 47.2 1.7h45.3l8.6 7.2 8.6 7.3-49.8.5c-42.8.4-49.9.7-50.8 2-.6.9-.8 8.1-.7 17.6.3 15.6.4 16.2 3.1 20.2 1.5 2.3 4.5 5.1 6.7 6.2 3.8 2 5.6 2 84 2s80.2 0 84-2c2.2-1.1 5.2-3.9 6.7-6.2 2.7-4 2.8-4.6 3.1-20.3.3-14 .1-16.5-1.3-17.9-1.4-1.4-4.6-1.6-23.7-1.6-20.5 0-22-.1-21.4-1.8.4-.9 1.7-4.3 2.9-7.5l2.2-5.7h24.2c26.2 0 27.3-.2 27.3-5.5 0-5.1-2.2-5.5-30.5-5.5-19.4 0-26.5.3-27.8 1.2-.9.7-3.9 7.4-6.8 14.8-2.8 7.4-5.4 14.1-5.8 14.8-.6 1-5.4-2.5-17.2-12.5-9-7.6-17.7-14.8-19.3-16.1l-2.9-2.2H96.1c-40.6 0-46.9.2-48.9 1.6zm128.4 39.9c8.7 7.4 11.4 7.2 14.5-.7l1.7-4.3 20.1-.3 20.1-.2v11.3c0 10.9-.1 11.4-2.6 13.8l-2.6 2.4h-156l-2.4-2.8c-2.2-2.6-2.4-3.6-2.4-13.8V301h103.1l6.5 5.5z"/></svg>