<svg xmlns="http://www.w3.org/2000/svg" width="561.333" height="541.333" version="1.0" viewBox="0 0 421 406"><path d="M43.5 88.4c-1.4 2.1-1.6 6.8-1.3 36.3.3 33.3.3 33.9 2.6 37.5 1.3 2 3.9 4.7 5.8 5.8l3.4 2.2v140.5l2.3 3.4c3.2 4.9 10 8.2 15.6 7.5 5.9-.8 10.7-4 13.1-8.7 1.9-3.7 2-6.2 2-73.6l.1-69.8 3.2-2c1.7-1.1 4.2-3.5 5.4-5.4 2.2-3.2 2.3-4.3 2.4-22.5.2-41.3-.1-51-1.9-52.4-2.5-1.9-5.9-1.4-7.6 1-1.2 1.7-1.6 4.9-1.6 13.5V113H76v-11.8c0-10.3-.3-12.1-1.8-13.5-2.3-2.1-5.6-2.2-7.6-.1-1.3 1.2-1.6 4-1.6 13.5V113H54.2l-.4-12.1c-.3-10.6-.5-12.2-2.2-13.5-3-2.1-6.3-1.7-8.1 1zM87 140.2c0 16.2-.7 18.8-5.3 18.8-1.1 0-2.9.7-3.9 1.7-1.7 1.5-1.8 5.1-1.8 73.6 0 65.6-.1 72.2-1.7 73.9-2.2 2.4-6.9 2.4-8.3-.1-.7-1.3-1-26-1-73.3 0-63-.2-71.6-1.6-73.6-.8-1.2-2.5-2.2-3.6-2.2-1.2 0-3-.7-4-1.7-1.6-1.4-1.8-3.4-1.8-17V125h33v15.2zM357.9 88.2c-6.8 3.9-17.8 23.1-23.3 40.6-5 16-5.8 23.3-6.3 58.9l-.5 33.1 2.5 2.6c1.5 1.5 3.7 2.6 5.3 2.6 1.6 0 3.8 1.2 6 3.4l3.4 3.4v37.3c0 34.1.2 37.7 1.9 41.4 4.8 10.5 17.4 13.5 25.8 6.2 6.7-5.9 6.3.9 6.3-115.4 0-103.8 0-105.9-2-109.1-4.2-6.9-12.3-9-19.1-5zm8.9 10c.9.9 1.2 25.4 1.2 104.3 0 114.4.4 108-6.3 107.3-5.5-.5-5.7-1.5-5.7-42.1 0-28.7-.3-37.5-1.4-40-1.7-4.2-7.1-9.6-11.3-11.4L340 215v-28.9c0-31.9.9-40 6.1-55.5 3.5-10.4 10.5-24.5 14.9-29.9 3.4-4 4-4.3 5.8-2.5zM197.2 98.1c-17.6 2.3-36.6 10-51 20.9-28 21.1-43.6 54.6-41.9 89.9 2.3 46.6 33.8 85.6 79.4 98.3 6.7 1.9 10.4 2.2 26.8 2.2 16.3 0 20.1-.3 26.7-2.1 40.2-11.2 69.6-42.3 77.8-82.3 3-14.5 2.4-35-1.5-49-14.1-51.2-64.1-84.7-116.3-77.9zm32.3 12.5c28.6 5.5 53.3 24.7 66.6 51.9 7.5 15.4 9.2 23 9.3 41 0 12.5-.4 16.4-2.3 23.5-8.9 33.3-33.8 58.8-66.8 68.6-12.6 3.7-31.1 4.4-44.5 1.6-18.1-3.8-32.5-11.3-46-24.1-27.6-26.1-37.3-63.6-25.6-98.8 11.8-35.8 44.1-61.7 81.1-65.2 9.7-.9 17.3-.5 28.2 1.5z"/><path d="M195.5 132.4c-28 6.5-50.5 28.8-56.1 55.6-2.3 11.1-1.5 28 1.9 38.5 14.3 44 66.1 63.7 106.2 40.3 4-2.4 10.4-7.6 15-12.2 15.8-15.9 23-36.8 20.4-59.1-3.3-29-22.9-52.5-51.4-61.5-8.9-2.8-27.2-3.6-36-1.6zm34 13c19.7 6.3 35.8 23.5 41 44.1 1.9 7.6 1.9 21.4 0 29-4.3 17.2-17.1 32.9-32.6 40.3-10.8 5.1-17.3 6.6-28.4 6.5-26.3-.4-48.5-16.9-57.6-43-2.9-8.3-3.6-22.8-1.5-31.8 4.2-17.9 16.5-33.5 32.6-41.4 4.7-2.3 11.4-4.8 15-5.6 9-2 21.5-1.3 31.5 1.9z"/></svg>