<svg xmlns="http://www.w3.org/2000/svg" width="560" height="541.333" version="1.0" viewBox="0 0 420 406"><path d="M195.8 63.3c-10.3 3.9-17.3 10.2-21.7 19.7-2.1 4.6-2.6 7-2.5 14 0 7.2.4 9.4 2.8 14.7 4.9 10.7 14.8 18.4 26.3 20.2 15.9 2.5 31.2-5.6 37.9-20.2 2.5-5.3 2.9-7.4 2.9-14.7-.1-7-.5-9.5-2.7-14.1-3.5-7.6-8.5-12.9-16-16.9-5.5-3-7.4-3.4-14.8-3.7-5.5-.2-9.8.2-12.2 1zM217 76c11.9 6.2 16.4 20.2 10.2 32-5 9.8-16 14.8-26.2 12.1-17.5-4.6-24-26.1-11.7-38.9 7.6-8 18.4-10 27.7-5.2zM165.5 147.6c-15.3 3.8-25.2 15.2-26.3 30.6-.2 3.7.3 21.2 1.3 38.9 1.5 27.4 1.6 32.3.4 33-.8.5-10.2 6.1-20.9 12.4-10.7 6.3-20.5 12.5-21.8 13.8-3.7 3.4-5.2 7.1-5.2 12.7 0 5.8 1 8.2 5.2 12.6 2.9 3.1 3 3.2 1.3 6.4-2.4 4.6-3 13-1.4 18.7 1.7 6.1 9.8 14.6 15.5 16.2 5.7 1.6 185.2 1.5 190.5-.1 2.2-.6 5.7-2.7 7.9-4.6 8.2-6.9 10.8-17.1 7.1-27.7-2-5.9-2-6-.1-7.6 8.6-7.3 7.8-23.3-1.5-28.8-1.6-1-11.7-6.9-22.2-13.1L276 249.7v-3.6c0-2 .7-17.8 1.7-35.2 1.4-25.7 1.4-32.7.4-37.1-2.5-11.6-11.3-21.4-22.5-25.4-4.6-1.7-9.1-1.9-44.6-2.1-31.9-.1-40.6.1-45.5 1.3zm89 13.1c9 4.8 12.7 11.6 12.7 23.3 0 4.1-.8 21.5-1.8 38.6-.9 17.2-1.5 31.8-1.1 32.6.3.8 10.8 7.6 23.4 15 23 13.7 26.3 16.1 26.3 19.1 0 2.3-3.6 5.7-5.9 5.7-1.5 0-55.1-29.7-57-31.5-.2-.3.2-18 .9-39.5 1-31.3 1-39.3 0-40.5-1.6-1.9-7.4-1.9-9 0-.9 1.1-1.7 12.9-2.7 42.3-.7 22.4-1.1 41.7-.8 42.8.3 1.6 7.9 6.4 28.2 18 31.6 17.9 35.9 20.7 39.1 25.4 4.2 6.2 2.3 14.7-4.2 18.6-2.9 1.8-6.4 1.9-65.3 2.2l-62.1.3-1.3-3.8c-3-9-.9-15.6 6.2-19.8 3.1-1.8 5.7-2 29.7-2.5 28.5-.5 28.2-.5 28.2-6.2 0-5.3-2.2-5.8-26.7-5.8-23.6 0-29.9.8-37.4 4.6-9.6 4.8-13.6 13.1-12.6 25.9l.7 7.5h-20.8c-18.2 0-21.2-.3-24.9-1.9-5-2.3-7.3-6.3-7.3-12.7 0-4.4.4-5.1 4.8-9.3 3.1-3 14.9-10.4 34.4-21.5 16.3-9.2 29.9-17.4 30.2-18.2.9-2.4-2.3-83.3-3.4-85.4-.7-1.4-2.1-2-4.4-2-6.2 0-6.1-.9-4.7 42.2.6 21.5 1.1 39.2.9 39.3-2.9 2.3-55.5 31.5-56.9 31.5-2.5 0-5.9-3.4-5.9-5.9 0-1.1.7-2.7 1.5-3.5.9-.9 11.9-7.8 24.6-15.3 15.2-9.2 23.1-14.5 23.5-15.8.3-1.1-.4-18.2-1.5-38-2-34.7-1.9-39.1.7-45.5 1.9-4.8 8.4-10 15.2-12.1 1.4-.4 20.5-.7 42.5-.6 38.9.2 40.1.3 44 2.4z"/></svg>