<?xml version="1.0" standalone="no"?>
<!DOCTYPE svg PUBLIC "-//W3C//DTD SVG 1.1//EN" "http://www.w3.org/Graphics/SVG/1.1/DTD/svg11.dtd" >
<svg xmlns="http://www.w3.org/2000/svg" xmlns:xlink="http://www.w3.org/1999/xlink" version="1.1">
<metadata></metadata>
<defs>
<font id="realistbold" horiz-adv-x="1122" >
<font-face units-per-em="2048" ascent="1577" descent="-471" />
<missing-glyph horiz-adv-x="534" />
<glyph unicode="&#xfb01;" horiz-adv-x="1253" d="M49 788v222h127v57q0 198 109 298.5t290 100.5q82 0 130 -18v-219q-36 12 -84 12q-81 0 -123.5 -39t-42.5 -127v-65h250v-222h-250v-788h-279v788h-127zM852 1149v256h281v-256h-281zM854 0v1010h276v-1010h-276z" />
<glyph unicode="&#xfb02;" horiz-adv-x="1253" d="M49 788v222h127v57q0 198 109 298.5t290 100.5q82 0 130 -18v-219q-36 12 -84 12q-81 0 -123.5 -39t-42.5 -127v-65h250v-222h-250v-788h-279v788h-127zM854 0v1454h279v-1454h-279z" />
<glyph unicode="&#xfb03;" horiz-adv-x="1984" d="M49 788v222h127v59q0 198 108.5 297.5t290.5 99.5q82 0 130 -18v-219q-36 12 -84 12q-81 0 -123.5 -39t-42.5 -127v-65h223v-222h-223v-788h-279v788h-127zM780 788v222h127v57q0 198 109 298.5t291 100.5q81 0 129 -18v-219q-36 12 -84 12q-81 0 -123.5 -39t-42.5 -127 v-65h250v-222h-250v-788h-279v788h-127zM1583 1149v256h281v-256h-281zM1585 0v1010h277v-1010h-277z" />
<glyph unicode="&#xfb04;" horiz-adv-x="1984" d="M49 788v222h127v59q0 198 108.5 297.5t290.5 99.5q82 0 130 -18v-219q-36 12 -84 12q-81 0 -123.5 -39t-42.5 -127v-65h223v-222h-223v-788h-279v788h-127zM780 788v222h127v57q0 198 109 298.5t291 100.5q81 0 129 -18v-219q-36 12 -84 12q-81 0 -123.5 -39t-42.5 -127 v-65h250v-222h-250v-788h-279v788h-127zM1585 0v1454h279v-1454h-279z" />
<glyph horiz-adv-x="0" />
<glyph horiz-adv-x="0" />
<glyph unicode="&#xd;" horiz-adv-x="0" />
<glyph unicode=" "  horiz-adv-x="534" />
<glyph unicode="&#x09;" horiz-adv-x="534" />
<glyph unicode="&#xa0;" horiz-adv-x="534" />
<glyph unicode="!" horiz-adv-x="583" d="M154 1413h307l-29 -1007h-252zM162 0v279h291v-279h-291z" />
<glyph unicode="&#x22;" horiz-adv-x="808" d="M121 922v491h237l-39 -491h-198zM451 922v491h237l-39 -491h-198z" />
<glyph unicode="#" horiz-adv-x="1325" d="M98 350v185l195 8v340h-195v182l195 10l18 338h207v-338h289l18 338h207v-338h197v-184l-197 -8v-340h197v-183l-197 -10l-14 -350h-211v350h-289l-16 -350h-209v350h-195zM518 543h289v340h-289v-340z" />
<glyph unicode="$" horiz-adv-x="1069" d="M47 127l100 225q157 -131 345 -131q221 0 221 135q0 66 -57.5 107t-221.5 96q-172 58 -262 148.5t-90 238.5q0 149 96 245.5t264 121.5v198h224v-196q31 -4 60.5 -10t52 -12.5t47.5 -16.5t40 -16.5t36.5 -18.5t29.5 -17.5t27 -17.5t22 -14l-104 -215q-31 21 -49 31.5 t-59.5 30.5t-91 30t-104.5 10q-204 0 -204 -114q0 -73 54.5 -109.5t231.5 -93.5q178 -56 264.5 -148t86.5 -247q0 -144 -89 -244.5t-251 -132.5v-205h-224v192q-76 6 -141.5 22.5t-115 41.5t-78 43t-60.5 43z" />
<glyph unicode="%" horiz-adv-x="1714" d="M61 1069q0 177 103.5 273t259.5 96t259 -96t103 -273q0 -175 -104 -273t-258 -98q-156 0 -259.5 96.5t-103.5 274.5zM147 0l1141 1413h283l-1141 -1413h-283zM287 1069q0 -94 36.5 -142t100.5 -48t100.5 48t36.5 142q0 93 -37 140.5t-100 47.5t-100 -47.5t-37 -140.5z M934 344q0 176 104 273.5t258 97.5q158 0 261.5 -96.5t103.5 -274.5q0 -176 -104 -272.5t-261 -96.5q-101 0 -181.5 40.5t-130.5 125.5t-50 203zM1159 344q0 -93 37 -140.5t100 -47.5q64 0 102 48t38 140q0 94 -38 142.5t-102 48.5q-63 0 -100 -48.5t-37 -142.5z" />
<glyph unicode="&#x26;" horiz-adv-x="1308" d="M74 332q0 277 346 411q-88 160 -88 324q0 172 118.5 271.5t301.5 99.5q178 0 274 -94t96 -250q0 -282 -348 -426q10 -13 30.5 -39.5t29.5 -38.5l446 -590h-342l-369 518q-7 10 -22.5 31t-22.5 31q-82 -36 -129 -85.5t-47 -129.5q0 -82 45.5 -125t132.5 -43q81 0 150 24 l37 -207q-103 -39 -234 -39q-193 0 -299 88.5t-106 268.5zM600 1063q0 -113 68 -234q102 44 154 101.5t52 146.5q0 67 -34 105.5t-95 38.5q-67 0 -106 -42t-39 -116z" />
<glyph unicode="'" horiz-adv-x="483" d="M125 922v491h237l-38 -491h-199z" />
<glyph unicode="(" horiz-adv-x="665" d="M102 604q0 531 306 850h227q-297 -325 -297 -850t297 -850h-227q-306 319 -306 850z" />
<glyph unicode=")" horiz-adv-x="665" d="M31 -246q297 325 297 850t-297 850h227q305 -318 305 -850t-305 -850h-227z" />
<glyph unicode="*" horiz-adv-x="884" d="M39 881l260 129l-260 127l90 155l242 -162l-21 291h182l-20 -291l242 162l90 -155l-262 -127l262 -129l-90 -158l-242 162l20 -289h-182l21 291l-242 -164z" />
<glyph unicode="+" d="M90 526v228h352v354h236v-354h352v-228h-352v-362h-236v362h-352z" />
<glyph unicode="," horiz-adv-x="514" d="M63 -197q87 4 126.5 51t39.5 146h-116v283h290v-201q0 -112 -20.5 -188t-64.5 -120.5t-105.5 -63.5t-149.5 -19v112z" />
<glyph unicode="-" horiz-adv-x="657" d="M66 494v231h526v-231h-526z" />
<glyph unicode="." horiz-adv-x="514" d="M113 0v283h290v-283h-290z" />
<glyph unicode="/" horiz-adv-x="907" d="M-39 -246l692 1700h244l-694 -1700h-242z" />
<glyph unicode="0" horiz-adv-x="1316" d="M78 707q0 155 32.5 280t87 208t130 138.5t158 80t173.5 24.5t173.5 -24.5t157.5 -80t130 -138.5t87 -208t32 -280t-32.5 -280t-87.5 -208t-130 -139t-158 -80.5t-174 -24.5t-173 24.5t-157 80.5t-129.5 139t-87 208t-32.5 280zM371 709q0 -128 22.5 -222.5t63 -148.5 t90.5 -79.5t112 -25.5q128 0 207.5 114t79.5 362q0 247 -79.5 362t-207.5 115q-129 0 -208.5 -115t-79.5 -362z" />
<glyph unicode="1" horiz-adv-x="796" d="M23 1237l419 176h215v-1413h-288v1118l-269 -104z" />
<glyph unicode="2" horiz-adv-x="1089" d="M63 1241q197 197 500 197q213 0 320.5 -104t107.5 -283q0 -50 -9 -99t-21.5 -88t-38 -84t-44 -74t-55 -73t-56 -66t-62.5 -68t-60 -65l-160 -176v-4h531v-254h-926v203l242 272q46 52 109 120t94 102t68.5 80t54 77t28.5 69t12 78q0 185 -198 185q-165 0 -307 -142z" />
<glyph unicode="3" horiz-adv-x="1032" d="M47 135l121 221q116 -127 278 -127q113 0 172.5 47.5t59.5 131.5q0 208 -330 208h-57v232h51q148 0 222.5 48t74.5 140q0 71 -46.5 112.5t-137.5 41.5q-155 0 -267 -117l-122 193q28 29 63.5 55.5t91 54.5t133 45t166.5 17q197 0 302.5 -97t105.5 -262q0 -255 -240 -338 v-4q283 -74 283 -358q0 -186 -133 -295t-373 -109q-86 0 -157.5 15.5t-123 44.5t-79.5 50t-58 50z" />
<glyph unicode="4" horiz-adv-x="1167" d="M45 346v203l662 864h237v-835h170v-232h-170v-346h-276v346h-623zM332 578h336v462h-4z" />
<glyph unicode="5" horiz-adv-x="1091" d="M45 127l109 229q129 -129 305 -129q125 0 194.5 52.5t69.5 154.5q0 130 -92.5 190t-280.5 60h-190l63 729h740v-246h-506l-23 -260q276 -2 429 -117t153 -348q0 -221 -145.5 -344t-391.5 -123q-73 0 -139.5 12t-107 26t-84.5 40.5t-59 38t-44 35.5z" />
<glyph unicode="6" horiz-adv-x="1161" d="M84 698q0 155 34 280.5t92 210t139.5 141.5t173.5 82.5t196 25.5q72 0 131.5 -11t102.5 -31.5t62.5 -32.5t45.5 -32l-92 -217q-1 1 -14 10t-19 13t-21.5 13.5t-27 14.5t-30.5 12.5t-36.5 11t-40.5 6.5t-47 3q-158 0 -254 -93t-106 -282q132 92 309 92q197 0 307.5 -115.5 t110.5 -330.5q0 -234 -129 -364t-355 -130q-257 0 -394.5 176.5t-137.5 546.5zM371 631q6 -219 69.5 -316.5t184.5 -97.5q98 0 152 60.5t54 181.5q0 243 -219 243q-134 0 -241 -71z" />
<glyph unicode="7" horiz-adv-x="1064" d="M72 1163v250h962v-199l-602 -1214h-332l592 1159v4h-620z" />
<glyph unicode="8" horiz-adv-x="1132" d="M74 365q0 61 15 113.5t38 88.5t57.5 67t66 50t71.5 37v4q-209 109 -209 346q0 171 122 269t330 98t330.5 -99t122.5 -270q0 -69 -17.5 -124t-50 -92.5t-65 -61.5t-76.5 -46v-4q49 -21 90 -51t79 -74.5t59.5 -109t21.5 -141.5q0 -184 -131.5 -287t-362.5 -103 q-230 0 -360.5 103t-130.5 287zM350 395q0 -87 56.5 -135.5t158.5 -48.5t159.5 48.5t57.5 135.5q0 39 -14 71t-32.5 53.5t-55.5 44.5t-62 34.5t-73 32.5q-42 -19 -72 -37t-60.5 -46t-46.5 -66.5t-16 -86.5zM379 1053q0 -35 11.5 -64.5t27.5 -49t47.5 -40t54.5 -32.5t66 -31 q80 39 124 87t44 130q0 76 -50.5 118.5t-138.5 42.5t-137 -42.5t-49 -118.5z" />
<glyph unicode="9" horiz-adv-x="1169" d="M72 975q0 219 135 341t362 122q249 0 383.5 -173t134.5 -526q0 -163 -30.5 -292t-85.5 -217t-134.5 -145.5t-174 -83.5t-207.5 -26q-73 0 -135 12t-109 35t-67.5 35.5t-49.5 34.5l92 236q116 -101 258 -101q336 0 357 373q-128 -92 -309 -92q-191 0 -305.5 121 t-114.5 346zM340 981q0 -126 56 -192t163 -66q146 0 242 78q-8 403 -246 403q-98 0 -156.5 -56.5t-58.5 -166.5z" />
<glyph unicode=":" horiz-adv-x="514" d="M113 0v283h290v-283h-290zM113 727v283h290v-283h-290z" />
<glyph unicode=";" horiz-adv-x="516" d="M63 -197q87 4 126.5 51t39.5 146h-116v283h290v-201q0 -112 -20.5 -188t-64.5 -120.5t-105.5 -63.5t-149.5 -19v112zM115 727v283h291v-283h-291z" />
<glyph unicode="&#x3c;" d="M96 551v149l930 545v-246l-629 -372v-4l629 -371v-248z" />
<glyph unicode="=" d="M90 348v213h940v-213h-940zM90 719v213h940v-213h-940z" />
<glyph unicode="&#x3e;" d="M96 6v246l629 373v4l-629 370v248l930 -547v-149z" />
<glyph unicode="?" horiz-adv-x="862" d="M25 1311q183 127 446 127q171 0 269 -81t98 -235q0 -65 -20 -119.5t-51.5 -92.5t-69.5 -70.5t-76.5 -60.5t-70 -56t-51.5 -62.5t-20 -74.5q0 -83 68 -176v-4h-268q-21 29 -33.5 51t-25.5 66.5t-13 94.5q0 52 25 99t62.5 80t81.5 68.5t81.5 64.5t62.5 67t25 78 q0 123 -158 123q-149 0 -274 -92zM264 0v279h291v-279h-291z" />
<glyph unicode="@" horiz-adv-x="1429" d="M82 299q0 181 56 323t154 230.5t225.5 134t275.5 45.5q269 0 398.5 -124t129.5 -353v-555h-254v109h-4q-16 -23 -32 -39.5t-49.5 -41.5t-86 -39t-119.5 -14q-143 0 -221 80.5t-78 223.5q0 153 117.5 232t323.5 79q68 0 137 -6v6q0 219 -267 219q-103 0 -185.5 -29 t-146.5 -88.5t-99 -159.5t-35 -233q0 -261 134 -388.5t378 -127.5q245 0 395 88l53 -201q-173 -104 -471 -104q-167 0 -300.5 45t-229.5 134t-147.5 229.5t-51.5 324.5zM735 303q0 -117 131 -117q123 0 189 82v150q-50 4 -115 4q-205 0 -205 -119z" />
<glyph unicode="A" horiz-adv-x="1417" d="M16 0l543 1413h299l541 -1413h-307l-136 379h-510l-131 -379h-299zM514 580h377l-186 538h-5z" />
<glyph unicode="B" horiz-adv-x="1333" d="M131 0v1413h541q271 0 403.5 -93t132.5 -261q0 -136 -66 -215.5t-175 -106.5v-4q129 -23 213 -111t84 -229q0 -182 -146 -287.5t-436 -105.5h-551zM416 246h256q160 0 233.5 45.5t73.5 136.5q0 190 -307 190h-256v-372zM416 829h235q141 0 209 48t68 133q0 86 -65.5 126 t-211.5 40h-235v-347z" />
<glyph unicode="C" horiz-adv-x="1310" d="M68 702q0 147 40.5 270t109.5 208t163.5 144t200.5 86.5t221 27.5q92 0 167.5 -12.5t132.5 -38t85 -42t68 -45.5q3 -2 5 -3.5t4.5 -3.5t4.5 -3l-113 -221q-37 27 -54 38t-62.5 34t-99.5 33t-120 10q-96 0 -177.5 -28.5t-145.5 -84t-100 -147t-36 -209.5 q0 -122 32.5 -214.5t91.5 -150t137.5 -86t175.5 -28.5q219 0 362 108l101 -219q-182 -150 -496 -150q-120 0 -223.5 26.5t-191.5 83t-150.5 141t-97.5 205.5t-35 271z" />
<glyph unicode="D" horiz-adv-x="1507" d="M131 0v1413h471q844 0 844 -690q0 -351 -216 -537t-628 -186h-471zM422 254h178q551 0 551 467q0 226 -137 334t-414 108h-178v-909z" />
<glyph unicode="E" horiz-adv-x="1171" d="M131 0v1413h952v-246h-661v-325h596v-238h-596v-352h678v-252h-969z" />
<glyph unicode="F" horiz-adv-x="1120" d="M131 0v1413h954v-250h-663v-413h600v-250h-600v-500h-291z" />
<glyph unicode="G" horiz-adv-x="1413" d="M68 702q0 148 41 270.5t111.5 207.5t167.5 144t206.5 86.5t230.5 27.5q83 0 157 -12t120.5 -26t95 -39.5t67.5 -38.5t50 -36l-115 -219q-41 32 -77 53t-112.5 42.5t-166.5 21.5q-100 0 -185.5 -27.5t-152.5 -82.5t-105.5 -147.5t-38.5 -213.5q0 -241 127.5 -360.5 t344.5 -119.5q102 0 200 25v311h-235v226h504v-686q-35 -22 -64 -37t-93.5 -41.5t-153 -41t-191.5 -14.5q-126 0 -234 25.5t-201 81.5t-158.5 140t-102.5 206t-37 274z" />
<glyph unicode="H" horiz-adv-x="1482" d="M131 0v1413h291v-565h639v565h289v-1413h-289v598h-639v-598h-291z" />
<glyph unicode="I" horiz-adv-x="585" d="M147 0v1413h289v-1413h-289z" />
<glyph unicode="J" horiz-adv-x="987" d="M68 33l53 252q83 -49 178 -49q140 0 208 68.5t68 230.5v628h-483v250h772v-887q0 -293 -138 -422t-404 -129q-148 0 -254 58z" />
<glyph unicode="K" horiz-adv-x="1404" d="M131 0v1413h291v-577h131l459 577h348l-561 -678l602 -735h-375l-467 606h-137v-606h-291z" />
<glyph unicode="L" horiz-adv-x="1124" d="M131 0v1413h291v-1159h680v-254h-971z" />
<glyph unicode="M" horiz-adv-x="1826" d="M131 0v1413h330l452 -1036h5l450 1036h328v-1413h-281v881h-4l-383 -881h-229l-383 881h-4v-881h-281z" />
<glyph unicode="N" horiz-adv-x="1480" d="M131 0v1413h266l660 -909h2v909h291v-1413h-269l-657 909h-2v-909h-291z" />
<glyph unicode="O" horiz-adv-x="1542" d="M68 707q0 345 192 538t512 193q159 0 289 -49t221.5 -141t142 -230t50.5 -311q0 -345 -192.5 -538.5t-512.5 -193.5q-322 0 -512 193t-190 539zM362 709q0 -225 110 -349t300 -124q188 0 298 124.5t110 348.5q0 225 -110 350t-298 125q-190 0 -300 -125t-110 -350z" />
<glyph unicode="P" horiz-adv-x="1273" d="M131 0v1413h483q619 0 619 -475q0 -234 -161.5 -364t-461.5 -130h-188v-444h-291zM422 680h188q165 0 246.5 65.5t81.5 184.5q0 237 -328 237h-188v-487z" />
<glyph unicode="Q" horiz-adv-x="1544" d="M68 707q0 344 192.5 537.5t511.5 193.5q159 0 289 -49t221.5 -141t142 -230t50.5 -311q0 -185 -59 -329.5t-167 -240.5l195 -260l-232 -158l-208 287q-112 -31 -236 -31q-321 0 -510.5 193t-189.5 539zM362 709q0 -226 110 -349.5t300 -123.5q189 0 298.5 123.5 t109.5 349.5q0 225 -110 350t-298 125q-190 0 -300 -125t-110 -350z" />
<glyph unicode="R" horiz-adv-x="1337" d="M131 0v1413h481q310 0 467.5 -114.5t157.5 -340.5q0 -150 -72 -255.5t-209 -161.5l340 -541h-342l-280 485q-20 -2 -62 -2h-190v-483h-291zM422 709h190q166 0 249 61t83 170q0 225 -328 225h-194v-456z" />
<glyph unicode="S" horiz-adv-x="1167" d="M51 137l113 234q184 -144 391 -144q125 0 191.5 38t66.5 114q0 77 -67.5 125.5t-251.5 109.5q-79 27 -136.5 52.5t-112 62.5t-88.5 79.5t-54.5 101t-20.5 130.5q0 183 142 290.5t378 107.5q93 0 170.5 -13t138 -39.5t85.5 -40.5t67 -42l-107 -224q-31 21 -54 34t-70 34.5 t-103.5 33t-118.5 11.5q-115 0 -176 -33.5t-61 -99.5q0 -28 6.5 -48.5t25 -39.5t39.5 -33t64.5 -31.5t84 -31.5t112.5 -37q199 -64 301 -165.5t102 -269.5q0 -192 -142.5 -310t-396.5 -118q-102 0 -188 15.5t-151 44.5t-100 49.5t-79 52.5z" />
<glyph unicode="T" horiz-adv-x="1304" d="M14 1163v250h1278v-250h-495v-1163h-289v1163h-494z" />
<glyph unicode="U" horiz-adv-x="1478" d="M123 635v778h289v-784q0 -202 82 -297.5t251 -95.5q166 0 248 95.5t82 297.5v784h281v-778q0 -660 -621 -660q-318 0 -465 161.5t-147 498.5z" />
<glyph unicode="V" horiz-adv-x="1390" d="M14 1413h312l372 -1075h4l373 1075h301l-532 -1413h-297z" />
<glyph unicode="W" horiz-adv-x="1992" d="M33 1413h299l194 -983h4l322 983h289l319 -983h4l197 983h299l-330 -1413h-287l-346 1012h-4l-346 -1012h-285z" />
<glyph unicode="X" horiz-adv-x="1357" d="M16 0l496 727l-475 686h348l305 -461l297 461h334l-477 -698l497 -715h-350l-327 489l-314 -489h-334z" />
<glyph unicode="Y" horiz-adv-x="1329" d="M4 1413h334l332 -627h4l330 627h321l-516 -901v-512h-289v512z" />
<glyph unicode="Z" horiz-adv-x="1320" d="M82 0v219l754 940v4h-723v250h1114v-217l-738 -938v-4h766v-254h-1173z" />
<glyph unicode="[" horiz-adv-x="620" d="M158 -246v1700h405v-174h-180v-1352h180v-174h-405z" />
<glyph unicode="\" horiz-adv-x="907" d="M10 1454h244l692 -1700h-241z" />
<glyph unicode="]" horiz-adv-x="620" d="M57 -72h181v1352h-181v174h406v-1700h-406v174z" />
<glyph unicode="^" horiz-adv-x="1048" d="M47 674l395 739h164l395 -739h-258l-217 430h-4l-217 -430h-258z" />
<glyph unicode="_" d="M18 -141h1084v-230h-1084v230z" />
<glyph unicode="`" horiz-adv-x="692" d="M70 1403v4h309l231 -287h-239z" />
<glyph unicode="a" horiz-adv-x="1046" d="M70 281q0 150 120.5 231.5t329.5 81.5q86 0 148 -8v18q0 104 -47.5 154.5t-151.5 50.5q-174 0 -289 -115l-102 176q164 164 436 164q424 0 424 -440v-594h-256v106h-4q-93 -131 -299 -131q-149 0 -229 81.5t-80 224.5zM336 305q0 -115 133 -115q129 0 199 82v146 q-62 4 -123 4q-209 0 -209 -117z" />
<glyph unicode="b" horiz-adv-x="1165" d="M119 0v1454h276v-526h4q106 106 295 106q181 0 294.5 -131.5t113.5 -378.5q0 -258 -120 -403.5t-312 -145.5q-64 0 -115 13t-84.5 36.5t-51 41t-34.5 40.5h-4v-106h-262zM395 307q75 -94 195 -94q105 0 166 74.5t61 222.5q0 144 -58 218.5t-161 74.5q-73 0 -124 -29 t-79 -67v-400z" />
<glyph unicode="c" horiz-adv-x="956" d="M57 502q0 107 30.5 196t82.5 150t122 104t148 62.5t162 19.5t152.5 -16t102 -33t71.5 -43l-90 -203q-92 64 -205 64q-129 0 -210 -73t-81 -216q0 -151 72.5 -226t203.5 -75q133 0 226 61l74 -208q-143 -91 -349 -91q-114 0 -206.5 31.5t-161.5 94.5t-106.5 165t-37.5 236 z" />
<glyph unicode="d" horiz-adv-x="1171" d="M66 504q0 126 35 228t95.5 167.5t140 100t171.5 34.5q59 0 107 -11t80.5 -32.5t45.5 -32.5t31 -30h4v526h277v-1454h-262v106h-5q-15 -19 -23.5 -29t-36 -32.5t-56 -35t-77.5 -23.5t-106 -11q-193 0 -307 134.5t-114 394.5zM350 514q0 -152 62.5 -226.5t167.5 -74.5 q125 0 196 92v402q-74 96 -194 96q-102 0 -167 -74t-65 -215z" />
<glyph unicode="e" horiz-adv-x="1044" d="M57 508q0 126 38.5 227t105 165.5t154 99t188.5 34.5q212 0 324 -124.5t112 -370.5v-105h-647q27 -229 274 -229q162 0 279 96l92 -186q-146 -140 -420 -140q-232 0 -366 133.5t-134 399.5zM330 608h399q-2 96 -49 149.5t-137 53.5q-89 0 -146 -52.5t-67 -150.5z" />
<glyph unicode="f" horiz-adv-x="731" d="M49 788v222h127v57q0 198 109 298.5t290 100.5q82 0 130 -18v-219q-36 12 -84 12q-81 0 -123.5 -39t-42.5 -127v-65h250v-222h-250v-788h-279v788h-127z" />
<glyph unicode="g" horiz-adv-x="1167" d="M66 512q0 130 35.5 232t97 164t138.5 94t165 32q190 0 284 -133h5v109h264v-885q0 -283 -138 -421t-434 -138q-248 0 -407 141l94 217q27 -24 44 -37t57.5 -38.5t92.5 -38.5t111 -13q166 0 237.5 70.5t71.5 214.5v31h-4q-92 -119 -293 -119q-191 0 -306 129.5t-115 388.5 zM350 518q0 -147 61.5 -218t166.5 -71q54 0 98.5 19t62 35t39.5 41v385q-75 96 -194 96q-104 0 -169 -71t-65 -216z" />
<glyph unicode="h" horiz-adv-x="1177" d="M119 0v1454h276v-541h4q116 121 308 121q166 0 262 -101t96 -308v-625h-279v578q0 119 -44.5 171t-141.5 52q-121 0 -205 -94v-707h-276z" />
<glyph unicode="i" horiz-adv-x="522" d="M121 1149v256h280v-256h-280zM123 0v1010h276v-1010h-276z" />
<glyph unicode="j" horiz-adv-x="534" d="M-92 -186q35 -13 82 -13q72 0 107.5 39t35.5 131v1039h279v-1049q0 -205 -99 -296t-282 -91q-75 0 -123 16v224zM133 1149v256h281v-256h-281z" />
<glyph unicode="k" horiz-adv-x="1142" d="M119 0v1454h276v-815h117l262 371h320l-355 -486l391 -524h-344l-278 412h-113v-412h-276z" />
<glyph unicode="l" horiz-adv-x="524" d="M123 0v1454h278v-1454h-278z" />
<glyph unicode="m" horiz-adv-x="1802" d="M113 0v1010h262v-107h4q115 131 309 131q206 0 295 -149q49 59 136 104t208 45q171 0 267 -99.5t96 -305.5v-629h-277v580q0 115 -45.5 168t-136.5 53q-62 0 -112 -26t-83 -62q4 -50 4 -82v-631h-276v580q0 221 -180 221q-113 0 -195 -96v-705h-276z" />
<glyph unicode="n" horiz-adv-x="1171" d="M113 0v1010h262v-109h4q122 133 319 133q168 0 264.5 -100t96.5 -305v-629h-279v580q0 116 -45.5 168.5t-140.5 52.5q-121 0 -205 -94v-707h-276z" />
<glyph unicode="o" horiz-adv-x="1132" d="M57 504q0 107 27.5 195.5t75 150t112 103.5t138.5 61.5t155 19.5q103 0 193 -32t161 -94.5t112.5 -166.5t41.5 -237t-41.5 -236.5t-112.5 -166t-161 -94.5t-193 -32q-102 0 -192 32t-161.5 94.5t-113 166t-41.5 236.5zM342 506q0 -148 60.5 -220.5t162.5 -72.5 q103 0 164.5 72.5t61.5 220.5q0 149 -62 223t-164 74t-162.5 -74t-60.5 -223z" />
<glyph unicode="p" horiz-adv-x="1161" d="M113 -410v1420h262v-109h4q105 133 311 133q183 0 294.5 -133.5t111.5 -378.5q0 -262 -121 -404.5t-316 -142.5q-58 0 -105 10t-79 29.5t-47.5 32.5t-34.5 33h-4v-490h-276zM389 309q70 -96 193 -96q110 0 169.5 74t59.5 223q0 143 -58 218t-163 75q-126 0 -201 -96v-398 z" />
<glyph unicode="q" horiz-adv-x="1165" d="M66 500q0 129 35 232t95.5 168t140 99.5t171.5 34.5q52 0 96.5 -11t69.5 -22t53 -35.5t34 -32t25 -30.5h5v107h262v-1420h-277v488h-4q-97 -103 -289 -103t-304.5 135t-112.5 390zM350 510q0 -148 62.5 -222.5t165.5 -74.5q126 0 198 92v402q-75 96 -194 96 q-102 0 -167 -75t-65 -218z" />
<glyph unicode="r" horiz-adv-x="727" d="M113 0v1010h262v-156h4q16 38 38.5 66.5t59.5 55t94.5 40.5t133.5 14v-239q-20 4 -54 4q-182 0 -262 -142v-653h-276z" />
<glyph unicode="s" horiz-adv-x="913" d="M55 90l86 213q132 -104 287 -104q78 0 115 23.5t37 62.5q0 43 -41.5 71t-171.5 70q-147 47 -219 115t-72 194q0 140 107.5 219.5t281.5 79.5q207 0 358 -98l-82 -199q-130 82 -266 82q-141 0 -141 -74q0 -40 43 -67.5t176 -65.5q148 -44 221.5 -115.5t73.5 -195.5 q0 -149 -107 -237.5t-299 -88.5q-231 0 -387 115z" />
<glyph unicode="t" horiz-adv-x="753" d="M41 788v222h129v225h276v-225h254v-222h-254v-387q0 -107 38 -145.5t122 -38.5q38 0 94 14v-225q-58 -26 -161 -26q-88 0 -152.5 18.5t-115 61.5t-76 120t-25.5 189v419h-129z" />
<glyph unicode="u" horiz-adv-x="1169" d="M113 383v627h276v-574q0 -119 45 -170t144 -51q119 0 200 92v703h279v-1010h-264v106h-5q-19 -24 -38 -41t-56.5 -40.5t-94.5 -36.5t-128 -13q-168 0 -263 100t-95 308z" />
<glyph unicode="v" horiz-adv-x="1075" d="M10 1010h297l234 -648h4l233 648h287l-416 -1010h-223z" />
<glyph unicode="w" horiz-adv-x="1531" d="M25 1010h280l135 -607h4l211 607h224l208 -607h5l135 607h280l-274 -1010h-238l-227 643h-4l-225 -643h-240z" />
<glyph unicode="x" horiz-adv-x="1073" d="M20 0l361 522l-342 488h317l189 -295h4l182 295h303l-342 -498l361 -512h-318l-209 319h-4l-198 -319h-304z" />
<glyph unicode="y" horiz-adv-x="1079" d="M14 1010h297l240 -648h4l227 648h285l-367 -910q-45 -110 -80 -182.5t-78.5 -135.5t-87 -98.5t-105.5 -61t-134 -35t-172 -9.5v240q113 0 185.5 26t114 74.5t73.5 132.5z" />
<glyph unicode="z" horiz-adv-x="997" d="M68 0v170l479 612v4h-453v224h830v-172l-459 -602v-5h477v-231h-874z" />
<glyph unicode="{" horiz-adv-x="698" d="M59 518v172q88 2 132.5 37.5t44.5 114.5v280q0 97 28.5 164.5t84.5 105.5t127 55t167 19v-174q-93 -2 -137.5 -48t-44.5 -161v-260q0 -104 -54.5 -157.5t-144.5 -59.5v-4q89 -5 144 -60t55 -157v-260q0 -116 44.5 -161.5t137.5 -47.5v-174q-96 2 -167 19t-127 55 t-84.5 105.5t-28.5 164.5v281q0 80 -44 114.5t-133 36.5z" />
<glyph unicode="|" horiz-adv-x="532" d="M154 -246v1700h225v-1700h-225z" />
<glyph unicode="}" horiz-adv-x="698" d="M55 -84q93 2 138 48t45 161v260q0 104 54 157.5t144 59.5v4q-89 5 -143.5 60t-54.5 157v260q0 116 -45 161.5t-138 47.5v174q76 -1 136.5 -11.5t112.5 -35t86 -63t53.5 -97.5t19.5 -137v-280q0 -80 44 -115t132 -37v-172q-88 -2 -132 -37t-44 -114v-281q0 -78 -19.5 -137 t-53.5 -97.5t-86 -63t-112.5 -35t-136.5 -11.5v174z" />
<glyph unicode="~" d="M86 459q1 82 15.5 147.5t44.5 118.5t83.5 82t126.5 29q59 0 120.5 -24.5t104 -54.5t92 -54.5t87.5 -24.5q96 0 108 135h166q-4 -379 -268 -379q-59 0 -121 24.5t-104.5 53.5t-92.5 53.5t-88 24.5q-55 0 -78 -35.5t-28 -95.5h-168z" />
<glyph unicode="&#xa1;" horiz-adv-x="583" d="M123 -403l29 1007h251l27 -1007h-307zM131 731v279h291v-279h-291z" />
<glyph unicode="&#xa2;" horiz-adv-x="958" d="M57 502q0 111 32.5 202.5t90 154t130 103t157.5 58.5v199h223v-189q57 -6 106.5 -22.5t74.5 -30.5t57 -35l-90 -203q-92 64 -205 64q-129 0 -210 -73t-81 -216q0 -151 72.5 -226t203.5 -75q133 0 226 61l74 -208q-103 -65 -228 -82v-199h-223v197q-191 27 -300.5 157 t-109.5 363z" />
<glyph unicode="&#xa3;" horiz-adv-x="1058" d="M102 0v195q75 51 126 141t51 213v6h-144v207h115q-2 11 -9 41t-10 45t-8 43.5t-7.5 50.5t-4.5 52t-2 61q0 94 35 168t96 120.5t140.5 70.5t170.5 24q190 0 330 -84l-78 -232q-102 62 -215 62q-86 0 -136 -42.5t-50 -127.5q0 -29 1.5 -55.5t6.5 -57.5t7.5 -44t10.5 -51 t9 -44h325v-207h-303q-5 -202 -125 -309h570v-246h-902z" />
<glyph unicode="&#xa4;" horiz-adv-x="1146" d="M47 199l160 155q-62 105 -62 228q0 122 62 227l-160 156l133 137l156 -158q108 68 237 68q130 0 238 -68l154 158l133 -137l-158 -156q61 -103 61 -227q0 -125 -61 -228l158 -155l-133 -138l-154 158q-106 -67 -238 -67q-131 0 -237 67l-156 -158zM371 582 q0 -91 55.5 -149t146.5 -58q90 0 145.5 58.5t55.5 148.5t-55.5 148t-145.5 58q-91 0 -146.5 -58t-55.5 -148z" />
<glyph unicode="&#xa5;" horiz-adv-x="1239" d="M39 1413h326l256 -500h4l254 500h315l-391 -688h295v-162h-336v-117h336v-161h-336v-285h-289v285h-336v161h336v117h-336v162h293z" />
<glyph unicode="&#xa6;" horiz-adv-x="532" d="M154 -246v752h225v-752h-225zM154 702v752h225v-752h-225z" />
<glyph unicode="&#xa7;" horiz-adv-x="1071" d="M66 649q0 93 50 164t134 115q-70 79 -70 200q0 139 106 224.5t273 85.5q76 0 141.5 -16t95 -31t72.5 -41l-75 -197q-112 74 -226 74q-143 0 -143 -84q0 -52 46.5 -84.5t203.5 -83.5q167 -57 249.5 -135t82.5 -199q0 -94 -48 -164.5t-129 -114.5q76 -88 76 -210 q0 -144 -111.5 -234t-285.5 -90q-197 0 -354 104l79 205q121 -94 265 -94q76 0 115.5 23.5t39.5 66.5q0 37 -18.5 61.5t-72 52t-161.5 64.5q-172 59 -253.5 136t-81.5 202zM309 698q0 -60 50 -96.5t212 -91.5q45 -14 105 -41q88 45 88 119q0 59 -50 96t-208 92 q-48 17 -105 43q-92 -47 -92 -121z" />
<glyph unicode="&#xa8;" horiz-adv-x="755" d="M84 1149v231h227v-231h-227zM444 1149v231h230v-231h-230z" />
<glyph unicode="&#xa9;" horiz-adv-x="1593" d="M66 707q0 219 93.5 385.5t259 256t378.5 89.5t378.5 -89.5t259 -256t93.5 -385.5t-93.5 -386t-259 -256.5t-378.5 -89.5t-378.5 89.5t-259 256.5t-93.5 386zM238 707q0 -255 154 -410.5t405 -155.5t404 155.5t153 410.5t-153 410t-404 155t-405 -155t-154 -410zM397 711 q0 82 24 151t65.5 116.5t96.5 80t116.5 48t127.5 15.5q182 0 281 -88l-74 -147q-73 63 -186 63q-109 0 -179.5 -61t-70.5 -178q0 -121 66 -179.5t176 -58.5q123 0 194 57l64 -141q-106 -90 -283 -90q-85 0 -159 24.5t-132.5 72.5t-92.5 129t-34 186z" />
<glyph unicode="&#xaa;" horiz-adv-x="735" d="M63 932q0 100 78.5 154.5t214.5 54.5q41 0 95 -6v10q0 61 -29.5 90t-97.5 29q-104 0 -174 -70l-78 123q110 110 278 110q301 0 301 -288v-385h-192v67h-4q-52 -84 -187 -84q-99 0 -152 51.5t-53 143.5zM256 954q0 -69 80 -69q75 0 115 47v92q-11 0 -33.5 1t-36.5 1 q-125 0 -125 -72z" />
<glyph unicode="&#xab;" horiz-adv-x="839" d="M27 582l247 342h195l-190 -342l190 -338h-195zM365 582l245 342h195l-191 -342l191 -338h-195z" />
<glyph unicode="&#xac;" d="M92 526v228h934v-478h-229v250h-705z" />
<glyph unicode="&#xad;" horiz-adv-x="657" d="M66 494v231h526v-231h-526z" />
<glyph unicode="&#xae;" horiz-adv-x="1024" d="M51 971q0 210 127.5 332t333.5 122t333.5 -122t127.5 -332t-127.5 -332.5t-333.5 -122.5t-333.5 122.5t-127.5 332.5zM176 971q0 -163 90 -251.5t246 -88.5t247 88.5t91 251.5t-91 251.5t-247 88.5t-246 -88.5t-90 -251.5zM334 760v442h174q203 0 203 -147 q0 -89 -80 -131l100 -164h-137l-76 139h-67v-139h-117zM451 985h49q92 0 92 62q0 61 -92 61h-49v-123z" />
<glyph unicode="&#xaf;" horiz-adv-x="712" d="M29 1157v176h657v-176h-657z" />
<glyph unicode="&#xb0;" horiz-adv-x="827" d="M45 1069q0 164 103 266.5t266 102.5q162 0 264 -102.5t102 -266.5t-102 -266.5t-264 -102.5q-163 0 -266 102.5t-103 266.5zM254 1069q0 -75 44 -120.5t116 -45.5q71 0 114 45.5t43 120.5t-43 120.5t-114 45.5q-72 0 -116 -45.5t-44 -120.5z" />
<glyph unicode="&#xb1;" d="M90 115v227h940v-227h-940zM90 752v227h352v330h236v-330h352v-227h-352v-330h-236v330h-352z" />
<glyph unicode="&#xb2;" horiz-adv-x="727" d="M51 1294q117 133 305 133q137 0 213 -68t76 -183q0 -59 -14.5 -108.5t-44 -91t-56 -69t-67.5 -63.5l-103 -96v-5h293v-178h-577v137l237 236q39 38 59.5 61t39 62t18.5 80q0 48 -29.5 77t-89.5 29q-95 0 -164 -80z" />
<glyph unicode="&#xb3;" horiz-adv-x="727" d="M51 649l84 148q69 -74 168 -74q63 0 96 23.5t33 62.5q0 102 -190 102h-45v160h45q184 0 184 98q0 39 -29.5 62.5t-85.5 23.5q-101 0 -168 -67l-82 135q104 104 287 104q142 0 214.5 -61.5t72.5 -161.5q0 -88 -49 -140t-123 -65v-4q78 -13 130 -66.5t52 -146.5 q0 -103 -82.5 -167t-234.5 -64q-179 0 -277 98z" />
<glyph unicode="&#xb4;" horiz-adv-x="692" d="M82 1120l229 287h312v-4l-301 -283h-240z" />
<glyph unicode="&#xb5;" horiz-adv-x="1224" d="M113 -410v1420h276v-582q0 -111 42.5 -162t135.5 -51q128 0 209 98v697h277v-703q0 -63 20 -87.5t64 -24.5q27 0 51 8v-195q-56 -28 -137 -28q-183 0 -244 131q-117 -131 -354 -131q-24 0 -64 4v-394h-276z" />
<glyph unicode="&#xb6;" horiz-adv-x="1224" d="M53 1059q0 171 115.5 262.5t304.5 91.5h287v-1413h-213v707h-105q-175 0 -282 90.5t-107 261.5zM881 0v1413h213v-1413h-213z" />
<glyph unicode="&#xb7;" horiz-adv-x="514" d="M113 500v282h290v-282h-290z" />
<glyph unicode="&#xb8;" horiz-adv-x="600" d="M92 -283q40 -22 119 -22q111 0 111 57q0 37 -41.5 55.5t-139.5 18.5l-8 10l103 182h149l-63 -118q93 -6 142.5 -46.5t49.5 -107.5q0 -83 -67.5 -129.5t-194.5 -46.5q-91 0 -160 33v114z" />
<glyph unicode="&#xb9;" horiz-adv-x="727" d="M72 1307l266 106h160v-672h180v-176h-582v176h189v465l-158 -59z" />
<glyph unicode="&#xba;" horiz-adv-x="782" d="M51 1079q0 87 28 155t76 108.5t107.5 61.5t128.5 21q146 0 243 -88t97 -258q0 -86 -27.5 -153.5t-75.5 -108t-108 -61.5t-129 -21q-68 0 -128.5 21t-108 61.5t-75.5 108t-28 153.5zM260 1079q0 -87 35.5 -130.5t95.5 -43.5t95.5 43.5t35.5 130.5t-35.5 131.5t-95.5 44.5 t-95.5 -44.5t-35.5 -131.5z" />
<glyph unicode="&#xbb;" horiz-adv-x="839" d="M35 242l190 342l-190 338h194l246 -338l-246 -342h-194zM371 242l190 342l-190 338h194l248 -338l-248 -342h-194z" />
<glyph unicode="&#xbc;" horiz-adv-x="1933" d="M74 1307l266 106h160v-672h180v-176h-582v176h189v465l-158 -59zM473 0l889 1413h258l-889 -1413h-258zM1257 197v141l377 510h172v-488h82v-163h-82v-197h-198v197h-351zM1438 360h170v242h-4z" />
<glyph unicode="&#xbd;" horiz-adv-x="1933" d="M70 1307l266 106h160v-672h180v-176h-582v176h189v465l-158 -59zM416 0l889 1413h258l-889 -1413h-258zM1257 729q117 133 306 133q137 0 212.5 -68.5t75.5 -183.5q0 -59 -14.5 -108.5t-44 -91t-55.5 -68.5t-68 -63l-102 -97v-4h293v-178h-578v137l238 236q39 38 59 60.5 t38.5 61.5t18.5 80q0 49 -29 78t-89 29q-95 0 -164 -80z" />
<glyph unicode="&#xbe;" horiz-adv-x="1933" d="M57 649l84 148q69 -74 168 -74q63 0 96 23.5t33 62.5q0 102 -190 102h-45v160h45q184 0 184 98q0 39 -29.5 62.5t-85.5 23.5q-100 0 -167 -67l-82 135q104 104 286 104q142 0 214.5 -61.5t72.5 -161.5q0 -88 -49 -140t-123 -65v-4q78 -13 130 -66.5t52 -146.5 q0 -103 -82.5 -167t-234.5 -64q-179 0 -277 98zM444 0l889 1413h258l-889 -1413h-258zM1257 197v141l377 510h172v-488h82v-163h-82v-197h-198v197h-351zM1438 360h170v242h-4z" />
<glyph unicode="&#xbf;" horiz-adv-x="843" d="M25 -113q0 65 19.5 119.5t51.5 92.5t70 71t76 61t70 56t51.5 62.5t19.5 74.5q0 83 -68 176v4h269q71 -98 71 -213q0 -52 -25 -99t-62.5 -80t-81.5 -68.5t-81.5 -64.5t-62.5 -67t-25 -78q0 -122 158 -122q150 0 275 92l88 -205q-183 -127 -447 -127q-171 0 -268.5 80.5 t-97.5 234.5zM307 731v279h291v-279h-291z" />
<glyph unicode="&#xc0;" horiz-adv-x="1417" d="M16 0l543 1413h299l541 -1413h-307l-136 379h-510l-131 -379h-299zM315 1737v4h308l213 -250h-242zM514 580h377l-186 538h-5z" />
<glyph unicode="&#xc1;" horiz-adv-x="1417" d="M16 0l543 1413h299l541 -1413h-307l-136 379h-510l-131 -379h-299zM514 580h377l-186 538h-5zM590 1491l213 250h305v-4l-279 -246h-239z" />
<glyph unicode="&#xc2;" horiz-adv-x="1417" d="M16 0l543 1413h299l541 -1413h-307l-136 379h-510l-131 -379h-299zM387 1491l182 248h281l182 -248h-196l-125 125h-4l-123 -125h-197zM514 580h377l-186 538h-5z" />
<glyph unicode="&#xc3;" horiz-adv-x="1417" d="M16 0l543 1413h299l541 -1413h-307l-136 379h-510l-131 -379h-299zM371 1497q2 118 47 177t143 59q49 0 104.5 -21t104.5 -42t80 -21q69 0 72 73h127q-3 -119 -48.5 -177t-142.5 -58q-50 0 -106 21.5t-105 43t-80 21.5q-36 0 -51.5 -19t-17.5 -57h-127zM514 580h377 l-186 538h-5z" />
<glyph unicode="&#xc4;" horiz-adv-x="1417" d="M16 0l543 1413h299l541 -1413h-307l-136 379h-510l-131 -379h-299zM412 1507v219h233v-219h-233zM514 580h377l-186 538h-5zM788 1507v219h234v-219h-234z" />
<glyph unicode="&#xc5;" horiz-adv-x="1417" d="M16 0l543 1413h299l541 -1413h-307l-136 379h-510l-131 -379h-299zM502 1659q0 81 58.5 128.5t148.5 47.5q92 0 150.5 -47.5t58.5 -128.5q0 -80 -59 -127t-150 -47q-90 0 -148.5 47t-58.5 127zM514 580h377l-186 538h-5zM629 1659q0 -29 21.5 -45.5t58.5 -16.5t59.5 16.5 t22.5 45.5q0 30 -22 45.5t-60 15.5q-80 0 -80 -61z" />
<glyph unicode="&#xc6;" horiz-adv-x="1951" d="M16 0l543 1413h1305v-246h-660v-325h596v-238h-596v-352h676v-252h-962v373h-459l-137 -373h-306zM530 584h388v583h-181z" />
<glyph unicode="&#xc7;" horiz-adv-x="1310" d="M68 702q0 147 40.5 270t109.5 208t163.5 144t200.5 86.5t221 27.5q92 0 167.5 -12.5t132.5 -38t85 -42t68 -45.5q3 -2 5 -3.5t4.5 -3.5t4.5 -3l-113 -221q-37 27 -54 38t-62.5 34t-99.5 33t-120 10q-96 0 -177.5 -28.5t-145.5 -84t-100 -147t-36 -209.5 q0 -122 32.5 -214.5t91.5 -150t137.5 -86t175.5 -28.5q219 0 362 108l101 -219q-164 -133 -428 -148l-41 -77q93 -6 142.5 -46.5t49.5 -107.5q0 -83 -67.5 -129.5t-194.5 -46.5q-91 0 -160 33v114q40 -22 119 -22q111 0 111 57q0 37 -41.5 55.5t-139.5 18.5l-8 10l80 144 q-107 9 -199 40.5t-169.5 90t-132 141t-85 197t-30.5 253.5z" />
<glyph unicode="&#xc8;" horiz-adv-x="1171" d="M131 0v1413h952v-246h-661v-325h596v-238h-596v-352h678v-252h-969zM213 1737v4h307l213 -250h-241z" />
<glyph unicode="&#xc9;" horiz-adv-x="1171" d="M131 0v1413h952v-246h-661v-325h596v-238h-596v-352h678v-252h-969zM487 1491l213 250h306v-4l-279 -246h-240z" />
<glyph unicode="&#xca;" horiz-adv-x="1171" d="M131 0v1413h952v-246h-661v-325h596v-238h-596v-352h678v-252h-969zM287 1491l182 248h281l182 -248h-197l-125 125h-4l-123 -125h-196z" />
<glyph unicode="&#xcb;" horiz-adv-x="1171" d="M131 0v1413h952v-246h-661v-325h596v-238h-596v-352h678v-252h-969zM311 1507v219h234v-219h-234zM688 1507v219h234v-219h-234z" />
<glyph unicode="&#xcc;" horiz-adv-x="585" d="M-102 1737v4h307l213 -250h-242zM147 0v1413h289v-1413h-289z" />
<glyph unicode="&#xcd;" horiz-adv-x="585" d="M147 0v1413h289v-1413h-289zM172 1491l213 250h305v-4l-278 -246h-240z" />
<glyph unicode="&#xce;" horiz-adv-x="585" d="M-29 1491l183 248h280l182 -248h-196l-125 125h-4l-123 -125h-197zM147 0v1413h289v-1413h-289z" />
<glyph unicode="&#xcf;" horiz-adv-x="585" d="M-4 1507v219h233v-219h-233zM147 0v1413h289v-1413h-289zM373 1507v219h233v-219h-233z" />
<glyph unicode="&#xd0;" horiz-adv-x="1564" d="M33 606v236h153v571h471q844 0 844 -690q0 -351 -216 -537t-628 -186h-471v606h-153zM477 254h178q551 0 551 467q0 226 -137 334t-414 108h-178v-321h346v-236h-346v-352z" />
<glyph unicode="&#xd1;" horiz-adv-x="1480" d="M131 0v1413h266l660 -909h2v909h291v-1413h-269l-657 909h-2v-909h-291zM401 1497q2 118 47.5 177t143.5 59q49 0 104.5 -21t104.5 -42t80 -21q36 0 52.5 18t18.5 55h127q-3 -119 -48 -177t-142 -58q-50 0 -106 21.5t-105 43t-80 21.5q-67 0 -70 -76h-127z" />
<glyph unicode="&#xd2;" horiz-adv-x="1542" d="M68 707q0 345 192 538t512 193q159 0 289 -49t221.5 -141t142 -230t50.5 -311q0 -345 -192.5 -538.5t-512.5 -193.5q-322 0 -512 193t-190 539zM362 709q0 -225 110 -349t300 -124q188 0 298 124.5t110 348.5q0 225 -110 350t-298 125q-190 0 -300 -125t-110 -350z M377 1751v4h307l213 -250h-242z" />
<glyph unicode="&#xd3;" horiz-adv-x="1542" d="M68 707q0 345 192 538t512 193q159 0 289 -49t221.5 -141t142 -230t50.5 -311q0 -345 -192.5 -538.5t-512.5 -193.5q-322 0 -512 193t-190 539zM362 709q0 -225 110 -349t300 -124q188 0 298 124.5t110 348.5q0 225 -110 350t-298 125q-190 0 -300 -125t-110 -350z M651 1505l213 250h305v-4l-278 -246h-240z" />
<glyph unicode="&#xd4;" horiz-adv-x="1542" d="M68 707q0 345 192 538t512 193q159 0 289 -49t221.5 -141t142 -230t50.5 -311q0 -345 -192.5 -538.5t-512.5 -193.5q-322 0 -512 193t-190 539zM362 709q0 -225 110 -349t300 -124q188 0 298 124.5t110 348.5q0 225 -110 350t-298 125q-190 0 -300 -125t-110 -350z M449 1505l182 248h280l183 -248h-197l-125 125h-4l-123 -125h-196z" />
<glyph unicode="&#xd5;" horiz-adv-x="1542" d="M68 707q0 345 192 538t512 193q159 0 289 -49t221.5 -141t142 -230t50.5 -311q0 -345 -192.5 -538.5t-512.5 -193.5q-322 0 -512 193t-190 539zM362 709q0 -225 110 -349t300 -124q188 0 298 124.5t110 348.5q0 225 -110 350t-298 125q-190 0 -300 -125t-110 -350z M432 1511q2 118 47.5 177t143.5 59q49 0 104.5 -21t104 -42t79.5 -21q69 0 72 74h127q-3 -119 -48.5 -177.5t-141.5 -58.5q-50 0 -106 21.5t-105 43t-80 21.5q-67 0 -70 -76h-127z" />
<glyph unicode="&#xd6;" horiz-adv-x="1542" d="M68 707q0 345 192 538t512 193q159 0 289 -49t221.5 -141t142 -230t50.5 -311q0 -345 -192.5 -538.5t-512.5 -193.5q-322 0 -512 193t-190 539zM362 709q0 -225 110 -349t300 -124q188 0 298 124.5t110 348.5q0 225 -110 350t-298 125q-190 0 -300 -125t-110 -350z M473 1522v219h234v-219h-234zM850 1522v219h233v-219h-233z" />
<glyph unicode="&#xd7;" d="M84 326l313 313l-313 315l164 160l311 -313l315 313l162 -160l-313 -315l313 -315l-162 -160l-315 313l-311 -313z" />
<glyph unicode="&#xd8;" horiz-adv-x="1542" d="M68 707q0 345 190.5 538t511.5 193q224 0 389 -95l72 95h188l-141 -187q195 -195 195 -544q0 -346 -190.5 -539t-512.5 -193q-219 0 -389 95l-72 -95h-188l141 187q-194 194 -194 545zM354 709q0 -194 82 -318l563 742q-94 61 -229 61q-190 0 -303 -127t-113 -358z M545 285q92 -62 225 -62q191 0 304.5 127.5t113.5 358.5q0 193 -82 317z" />
<glyph unicode="&#xd9;" horiz-adv-x="1478" d="M123 635v778h289v-784q0 -202 82 -297.5t251 -95.5q166 0 248 95.5t82 297.5v784h281v-778q0 -660 -621 -660q-318 0 -465 161.5t-147 498.5zM346 1737v4h307l213 -250h-241z" />
<glyph unicode="&#xda;" horiz-adv-x="1478" d="M123 635v778h289v-784q0 -202 82 -297.5t251 -95.5q166 0 248 95.5t82 297.5v784h281v-778q0 -660 -621 -660q-318 0 -465 161.5t-147 498.5zM621 1491l213 250h305v-4l-279 -246h-239z" />
<glyph unicode="&#xdb;" horiz-adv-x="1478" d="M123 635v778h289v-784q0 -202 82 -297.5t251 -95.5q166 0 248 95.5t82 297.5v784h281v-778q0 -660 -621 -660q-318 0 -465 161.5t-147 498.5zM418 1491l182 248h281l182 -248h-197l-125 125h-4l-123 -125h-196z" />
<glyph unicode="&#xdc;" horiz-adv-x="1478" d="M123 635v778h289v-784q0 -202 82 -297.5t251 -95.5q166 0 248 95.5t82 297.5v784h281v-778q0 -660 -621 -660q-318 0 -465 161.5t-147 498.5zM442 1507v219h234v-219h-234zM819 1507v219h234v-219h-234z" />
<glyph unicode="&#xdd;" horiz-adv-x="1329" d="M4 1413h334l332 -627h4l330 627h321l-516 -901v-512h-289v512zM547 1491l213 250h305v-4l-279 -246h-239z" />
<glyph unicode="&#xde;" horiz-adv-x="1277" d="M131 0v1413h291v-172h196q615 0 615 -475q0 -234 -160.5 -364t-458.5 -130h-192v-272h-291zM422 506h188q165 0 247.5 65.5t82.5 184.5q0 239 -330 239h-188v-489z" />
<glyph unicode="&#xdf;" horiz-adv-x="1314" d="M119 0v1024q0 115 41 204.5t112 143t158.5 80.5t187.5 27q192 0 307 -92t115 -240q0 -61 -21 -114t-50.5 -88t-59 -65.5t-50.5 -60.5t-21 -59q0 -49 35.5 -78t150.5 -68q252 -85 252 -313q0 -146 -107 -236t-299 -90q-211 0 -356 105l80 217q118 -96 260 -96 q79 0 115.5 24t36.5 64q0 44 -40.5 74.5t-158.5 74.5q-123 47 -180.5 110t-57.5 169q0 56 22 105t53.5 84t62.5 67.5t53 69.5t22 75q0 56 -43.5 94.5t-122.5 38.5q-99 0 -160 -62.5t-61 -189.5v-999h-276z" />
<glyph unicode="&#xe0;" horiz-adv-x="1046" d="M70 281q0 150 120.5 231.5t329.5 81.5q86 0 148 -8v18q0 104 -47.5 154.5t-151.5 50.5q-174 0 -289 -115l-102 176q164 164 436 164q424 0 424 -440v-594h-256v106h-4q-93 -131 -299 -131q-149 0 -229 81.5t-80 224.5zM88 1403v4h309l232 -287h-240zM336 305 q0 -115 133 -115q129 0 199 82v146q-62 4 -123 4q-209 0 -209 -117z" />
<glyph unicode="&#xe1;" horiz-adv-x="1046" d="M70 281q0 150 120.5 231.5t329.5 81.5q86 0 148 -8v18q0 104 -47.5 154.5t-151.5 50.5q-174 0 -289 -115l-102 176q164 164 436 164q424 0 424 -440v-594h-256v106h-4q-93 -131 -299 -131q-149 0 -229 81.5t-80 224.5zM336 305q0 -115 133 -115q129 0 199 82v146 q-62 4 -123 4q-209 0 -209 -117zM385 1120l229 287h312v-4l-301 -283h-240z" />
<glyph unicode="&#xe2;" horiz-adv-x="1046" d="M70 281q0 150 120.5 231.5t329.5 81.5q86 0 148 -8v18q0 104 -47.5 154.5t-151.5 50.5q-174 0 -289 -115l-102 176q164 164 436 164q424 0 424 -440v-594h-256v106h-4q-93 -131 -299 -131q-149 0 -229 81.5t-80 224.5zM170 1116l188 291h299l189 -291h-195l-141 152h-4 l-141 -152h-195zM336 305q0 -115 133 -115q129 0 199 82v146q-62 4 -123 4q-209 0 -209 -117z" />
<glyph unicode="&#xe3;" horiz-adv-x="1046" d="M70 281q0 150 120.5 231.5t329.5 81.5q86 0 148 -8v18q0 104 -47.5 154.5t-151.5 50.5q-174 0 -289 -115l-102 176q164 164 436 164q424 0 424 -440v-594h-256v106h-4q-93 -131 -299 -131q-149 0 -229 81.5t-80 224.5zM174 1133q0 270 184 270q43 0 87 -17.5t74 -38 t65 -38t61 -17.5q35 0 50 24.5t20 72.5h127q-3 -269 -187 -269q-43 0 -86.5 17.5t-73 38t-64 38t-60.5 17.5q-35 0 -50 -24t-20 -74h-127zM336 305q0 -115 133 -115q129 0 199 82v146q-62 4 -123 4q-209 0 -209 -117z" />
<glyph unicode="&#xe4;" horiz-adv-x="1046" d="M70 281q0 150 120.5 231.5t329.5 81.5q86 0 148 -8v18q0 104 -47.5 154.5t-151.5 50.5q-174 0 -289 -115l-102 176q164 164 436 164q424 0 424 -440v-594h-256v106h-4q-93 -131 -299 -131q-149 0 -229 81.5t-80 224.5zM213 1149v231h227v-231h-227zM336 305 q0 -115 133 -115q129 0 199 82v146q-62 4 -123 4q-209 0 -209 -117zM573 1149v231h230v-231h-230z" />
<glyph unicode="&#xe5;" horiz-adv-x="1046" d="M70 281q0 150 120.5 231.5t329.5 81.5q86 0 148 -8v18q0 104 -47.5 154.5t-151.5 50.5q-174 0 -289 -115l-102 176q164 164 436 164q424 0 424 -440v-594h-256v106h-4q-93 -131 -299 -131q-149 0 -229 81.5t-80 224.5zM295 1288q0 86 57.5 136.5t153.5 50.5t154.5 -50.5 t58.5 -136.5q0 -84 -58.5 -134t-154.5 -50t-153.5 50t-57.5 134zM336 305q0 -115 133 -115q129 0 199 82v146q-62 4 -123 4q-209 0 -209 -117zM426 1288q0 -33 21.5 -52t58.5 -19t59.5 19t22.5 52t-22.5 52.5t-59.5 19.5t-58.5 -19t-21.5 -53z" />
<glyph unicode="&#xe6;" horiz-adv-x="1652" d="M70 283q0 150 118.5 230.5t327.5 80.5q86 0 152 -8v16q0 105 -49.5 156t-157.5 51q-168 0 -281 -113l-100 176q27 27 61 51.5t85 51.5t121 43t147 16q238 0 331 -151q63 73 153 112t196 39q204 0 308.5 -123.5t104.5 -365.5v-111h-647q24 -229 277 -229q162 0 278 96 l90 -190q-155 -136 -411 -136q-257 0 -386 150q-140 -150 -372 -150q-168 0 -257 82.5t-89 225.5zM336 305q0 -55 37.5 -85t109.5 -30q138 0 219 86q-21 64 -30 144q-43 2 -127 2q-209 0 -209 -117zM938 608h399q-3 203 -184 203q-86 0 -144.5 -54t-70.5 -149z" />
<glyph unicode="&#xe7;" horiz-adv-x="956" d="M57 502q0 107 30.5 196t82.5 150t122 104t148 62.5t162 19.5t152.5 -16t102 -33t71.5 -43l-90 -203q-92 64 -205 64q-129 0 -210 -73t-81 -216q0 -151 72.5 -226t203.5 -75q133 0 226 61l74 -208q-123 -78 -289 -89l-41 -77q93 -6 142.5 -46.5t49.5 -107.5 q0 -83 -67.5 -129.5t-194.5 -46.5q-91 0 -160 33v114q40 -22 119 -22q111 0 111 57q0 37 -41.5 55.5t-138.5 18.5l-9 10l82 146q-197 23 -310.5 153t-113.5 367z" />
<glyph unicode="&#xe8;" horiz-adv-x="1044" d="M57 508q0 126 38.5 227t105 165.5t154 99t188.5 34.5q212 0 324 -124.5t112 -370.5v-105h-647q27 -229 274 -229q162 0 279 96l92 -186q-146 -140 -420 -140q-232 0 -366 133.5t-134 399.5zM121 1403v4h309l232 -287h-240zM330 608h399q-2 96 -49 149.5t-137 53.5 q-89 0 -146 -52.5t-67 -150.5z" />
<glyph unicode="&#xe9;" horiz-adv-x="1044" d="M57 508q0 126 38.5 227t105 165.5t154 99t188.5 34.5q212 0 324 -124.5t112 -370.5v-105h-647q27 -229 274 -229q162 0 279 96l92 -186q-146 -140 -420 -140q-232 0 -366 133.5t-134 399.5zM330 608h399q-2 96 -49 149.5t-137 53.5q-89 0 -146 -52.5t-67 -150.5z M418 1120l229 287h311v-4l-301 -283h-239z" />
<glyph unicode="&#xea;" horiz-adv-x="1044" d="M57 508q0 126 38.5 227t105 165.5t154 99t188.5 34.5q212 0 324 -124.5t112 -370.5v-105h-647q27 -229 274 -229q162 0 279 96l92 -186q-146 -140 -420 -140q-232 0 -366 133.5t-134 399.5zM201 1116l188 291h299l189 -291h-195l-141 152h-4l-142 -152h-194zM330 608h399 q-2 96 -49 149.5t-137 53.5q-89 0 -146 -52.5t-67 -150.5z" />
<glyph unicode="&#xeb;" horiz-adv-x="1044" d="M57 508q0 126 38.5 227t105 165.5t154 99t188.5 34.5q212 0 324 -124.5t112 -370.5v-105h-647q27 -229 274 -229q162 0 279 96l92 -186q-146 -140 -420 -140q-232 0 -366 133.5t-134 399.5zM244 1149v231h227v-231h-227zM330 608h399q-2 96 -49 149.5t-137 53.5 q-89 0 -146 -52.5t-67 -150.5zM604 1149v231h230v-231h-230z" />
<glyph unicode="&#xec;" horiz-adv-x="522" d="M-156 1403v4h310l231 -287h-240zM123 0v1010h276v-1010h-276z" />
<glyph unicode="&#xed;" horiz-adv-x="522" d="M123 0v1010h276v-1010h-276zM141 1120l230 287h311v-4l-301 -283h-240z" />
<glyph unicode="&#xee;" horiz-adv-x="522" d="M-76 1116l189 291h299l188 -291h-194l-142 152h-4l-141 -152h-195zM123 0v1010h276v-1010h-276z" />
<glyph unicode="&#xef;" horiz-adv-x="522" d="M-33 1149v231h228v-231h-228zM123 0v1010h276v-1010h-276zM328 1149v231h229v-231h-229z" />
<glyph unicode="&#xf0;" horiz-adv-x="1148" d="M66 496q0 100 25 184t67 141t98.5 96.5t118.5 57.5t127 18q154 0 241 -100h7q-70 170 -220 264l-294 -137l-54 104l215 99q-94 37 -215 57l105 199q220 -32 385 -127l274 127l53 -103l-217 -100q297 -239 297 -715q0 -284 -141.5 -435t-380.5 -151q-105 0 -193.5 32.5 t-155.5 95.5t-104.5 163.5t-37.5 229.5zM346 498q0 -145 63 -215t169 -70q102 0 163.5 71.5t61.5 215.5t-61.5 212t-163.5 68q-106 0 -169 -67.5t-63 -214.5z" />
<glyph unicode="&#xf1;" horiz-adv-x="1171" d="M113 0v1010h262v-109h4q122 133 319 133q168 0 264.5 -100t96.5 -305v-629h-279v580q0 116 -45.5 168.5t-140.5 52.5q-121 0 -205 -94v-707h-276zM258 1133q0 270 184 270q43 0 87 -17.5t74 -38t65 -38t61 -17.5q35 0 50 24.5t20 72.5h127q-3 -269 -187 -269 q-43 0 -86.5 17.5t-73 38t-64 38t-60.5 17.5q-35 0 -50 -24t-20 -74h-127z" />
<glyph unicode="&#xf2;" horiz-adv-x="1132" d="M57 504q0 107 27.5 195.5t75 150t112 103.5t138.5 61.5t155 19.5q103 0 193 -32t161 -94.5t112.5 -166.5t41.5 -237t-41.5 -236.5t-112.5 -166t-161 -94.5t-193 -32q-102 0 -192 32t-161.5 94.5t-113 166t-41.5 236.5zM147 1403v4h310l231 -287h-239zM342 506 q0 -148 60.5 -220.5t162.5 -72.5q103 0 164.5 72.5t61.5 220.5q0 149 -62 223t-164 74t-162.5 -74t-60.5 -223z" />
<glyph unicode="&#xf3;" horiz-adv-x="1132" d="M57 504q0 107 27.5 195.5t75 150t112 103.5t138.5 61.5t155 19.5q103 0 193 -32t161 -94.5t112.5 -166.5t41.5 -237t-41.5 -236.5t-112.5 -166t-161 -94.5t-193 -32q-102 0 -192 32t-161.5 94.5t-113 166t-41.5 236.5zM342 506q0 -148 60.5 -220.5t162.5 -72.5 q103 0 164.5 72.5t61.5 220.5q0 149 -62 223t-164 74t-162.5 -74t-60.5 -223zM444 1120l230 287h311v-4l-301 -283h-240z" />
<glyph unicode="&#xf4;" horiz-adv-x="1132" d="M57 504q0 107 27.5 195.5t75 150t112 103.5t138.5 61.5t155 19.5q103 0 193 -32t161 -94.5t112.5 -166.5t41.5 -237t-41.5 -236.5t-112.5 -166t-161 -94.5t-193 -32q-102 0 -192 32t-161.5 94.5t-113 166t-41.5 236.5zM229 1116l189 291h299l188 -291h-194l-142 152h-4 l-141 -152h-195zM342 506q0 -148 60.5 -220.5t162.5 -72.5q103 0 164.5 72.5t61.5 220.5q0 149 -62 223t-164 74t-162.5 -74t-60.5 -223z" />
<glyph unicode="&#xf5;" horiz-adv-x="1132" d="M57 504q0 107 27.5 195.5t75 150t112 103.5t138.5 61.5t155 19.5q103 0 193 -32t161 -94.5t112.5 -166.5t41.5 -237t-41.5 -236.5t-112.5 -166t-161 -94.5t-193 -32q-102 0 -192 32t-161.5 94.5t-113 166t-41.5 236.5zM231 1133q0 270 185 270q43 0 87 -17.5t74 -38 t64.5 -38t60.5 -17.5q35 0 50 24.5t20 72.5h127q-3 -269 -186 -269q-54 0 -108.5 28t-99.5 55.5t-77 27.5q-35 0 -50 -24t-20 -74h-127zM342 506q0 -148 60.5 -220.5t162.5 -72.5q103 0 164.5 72.5t61.5 220.5q0 149 -62 223t-164 74t-162.5 -74t-60.5 -223z" />
<glyph unicode="&#xf6;" horiz-adv-x="1132" d="M57 504q0 107 27.5 195.5t75 150t112 103.5t138.5 61.5t155 19.5q103 0 193 -32t161 -94.5t112.5 -166.5t41.5 -237t-41.5 -236.5t-112.5 -166t-161 -94.5t-193 -32q-102 0 -192 32t-161.5 94.5t-113 166t-41.5 236.5zM272 1149v231h228v-231h-228zM342 506 q0 -148 60.5 -220.5t162.5 -72.5q103 0 164.5 72.5t61.5 220.5q0 149 -62 223t-164 74t-162.5 -74t-60.5 -223zM633 1149v231h229v-231h-229z" />
<glyph unicode="&#xf7;" d="M90 526v228h940v-228h-940zM434 297q0 55 35 88t94 33t94 -33t35 -88q0 -54 -35.5 -87.5t-93.5 -33.5t-93.5 33.5t-35.5 87.5zM434 981q0 55 35 88t94 33t94 -33t35 -88q0 -54 -35.5 -87.5t-93.5 -33.5t-93.5 33.5t-35.5 87.5z" />
<glyph unicode="&#xf8;" horiz-adv-x="1130" d="M57 504q0 133 41.5 237t112.5 166.5t161 94.5t193 32q160 0 277 -69l55 69h162l-117 -149q131 -141 131 -381q0 -132 -41.5 -235.5t-112.5 -166.5t-161 -95t-193 -32q-157 0 -276 70l-56 -70h-161l116 150q-131 141 -131 379zM326 504q0 -96 28 -166l342 438 q-53 39 -131 39q-108 0 -173.5 -79.5t-65.5 -231.5zM436 236q55 -37 129 -37q110 0 175 77.5t65 227.5q0 96 -29 168z" />
<glyph unicode="&#xf9;" horiz-adv-x="1169" d="M113 383v627h276v-574q0 -119 45 -170t144 -51q119 0 200 92v703h279v-1010h-264v106h-5q-19 -24 -38 -41t-56.5 -40.5t-94.5 -36.5t-128 -13q-168 0 -263 100t-95 308zM166 1403v4h309l232 -287h-240z" />
<glyph unicode="&#xfa;" horiz-adv-x="1169" d="M113 383v627h276v-574q0 -119 45 -170t144 -51q119 0 200 92v703h279v-1010h-264v106h-5q-19 -24 -38 -41t-56.5 -40.5t-94.5 -36.5t-128 -13q-168 0 -263 100t-95 308zM463 1120l229 287h312v-4l-302 -283h-239z" />
<glyph unicode="&#xfb;" horiz-adv-x="1169" d="M113 383v627h276v-574q0 -119 45 -170t144 -51q119 0 200 92v703h279v-1010h-264v106h-5q-19 -24 -38 -41t-56.5 -40.5t-94.5 -36.5t-128 -13q-168 0 -263 100t-95 308zM246 1116l188 291h299l189 -291h-195l-141 152h-4l-142 -152h-194z" />
<glyph unicode="&#xfc;" horiz-adv-x="1169" d="M113 383v627h276v-574q0 -119 45 -170t144 -51q119 0 200 92v703h279v-1010h-264v106h-5q-19 -24 -38 -41t-56.5 -40.5t-94.5 -36.5t-128 -13q-168 0 -263 100t-95 308zM289 1149v231h227v-231h-227zM649 1149v231h230v-231h-230z" />
<glyph unicode="&#xfd;" horiz-adv-x="1079" d="M14 1010h297l240 -648h4l227 648h285l-367 -910q-45 -110 -80 -182.5t-78.5 -135.5t-87 -98.5t-105.5 -61t-134 -35t-172 -9.5v240q113 0 185.5 26t114 74.5t73.5 132.5zM424 1120l229 287h312v-4l-301 -283h-240z" />
<glyph unicode="&#xfe;" horiz-adv-x="1167" d="M119 -410v1864h276v-541h4q110 121 297 121q182 0 294 -131.5t112 -380.5q0 -261 -120.5 -404t-315.5 -143q-60 0 -107.5 10t-78.5 28.5t-48 33t-33 33.5h-4v-490h-276zM395 309q70 -96 193 -96q111 0 170 74.5t59 222.5q0 144 -57.5 218.5t-163.5 74.5q-126 0 -201 -96 v-398z" />
<glyph unicode="&#xff;" horiz-adv-x="1079" d="M14 1010h297l240 -648h4l227 648h285l-367 -910q-45 -110 -80 -182.5t-78.5 -135.5t-87 -98.5t-105.5 -61t-134 -35t-172 -9.5v240q113 0 185.5 26t114 74.5t73.5 132.5zM250 1149v231h227v-231h-227zM610 1149v231h230v-231h-230z" />
<glyph unicode="&#x152;" horiz-adv-x="2107" d="M68 702q0 179 54.5 319.5t153.5 231t235 138t302 47.5q131 0 254 -25h952v-246h-663v-325h598v-238h-598v-352h680v-252h-969q-127 -25 -266 -25q-164 0 -298.5 46.5t-231.5 136t-150 228.5t-53 316zM362 711q0 -235 127 -356.5t347 -121.5q132 0 231 29v895 q-92 27 -225 27q-223 0 -351.5 -120.5t-128.5 -352.5z" />
<glyph unicode="&#x153;" horiz-adv-x="1779" d="M57 504q0 131 40 234.5t109 167t157 96t188 32.5q123 0 218 -50.5t153 -147.5h4q122 198 370 198q203 0 308.5 -126.5t105.5 -372.5v-101h-645q24 -229 272 -229q172 0 281 96l90 -188q-151 -138 -389 -138q-278 0 -393 195h-4q-121 -195 -373 -195q-100 0 -187.5 32.5 t-156.5 95.5t-108.5 166t-39.5 235zM342 506q0 -148 60.5 -220.5t162.5 -72.5q103 0 164.5 72.5t61.5 220.5t-62 222.5t-164 74.5t-162.5 -74.5t-60.5 -222.5zM1063 608h397q0 97 -45.5 150t-138.5 53q-87 0 -144 -53.5t-69 -149.5z" />
<glyph unicode="&#x178;" horiz-adv-x="1329" d="M4 1413h334l332 -627h4l330 627h321l-516 -901v-512h-289v512zM369 1507v219h233v-219h-233zM745 1507v219h234v-219h-234z" />
<glyph unicode="&#x2c6;" horiz-adv-x="837" d="M82 1116l188 291h299l189 -291h-195l-141 152h-4l-142 -152h-194z" />
<glyph unicode="&#x2dc;" horiz-adv-x="843" d="M88 1133q0 270 184 270q43 0 87 -17.5t74 -38t65 -38t61 -17.5q35 0 50 24.5t20 72.5h127q-3 -269 -187 -269q-43 0 -86.5 17.5t-73 38t-64 38t-60.5 17.5q-35 0 -50 -24t-20 -74h-127z" />
<glyph unicode="&#x2000;" horiz-adv-x="917" />
<glyph unicode="&#x2001;" horiz-adv-x="1835" />
<glyph unicode="&#x2002;" horiz-adv-x="917" />
<glyph unicode="&#x2003;" horiz-adv-x="1835" />
<glyph unicode="&#x2004;" horiz-adv-x="611" />
<glyph unicode="&#x2005;" horiz-adv-x="458" />
<glyph unicode="&#x2006;" horiz-adv-x="305" />
<glyph unicode="&#x2007;" horiz-adv-x="305" />
<glyph unicode="&#x2008;" horiz-adv-x="229" />
<glyph unicode="&#x2009;" horiz-adv-x="367" />
<glyph unicode="&#x200a;" horiz-adv-x="101" />
<glyph unicode="&#x2010;" horiz-adv-x="657" d="M66 494v231h526v-231h-526z" />
<glyph unicode="&#x2011;" horiz-adv-x="657" d="M66 494v231h526v-231h-526z" />
<glyph unicode="&#x2012;" horiz-adv-x="657" d="M66 494v231h526v-231h-526z" />
<glyph unicode="&#x2013;" d="M76 524v232h971v-232h-971z" />
<glyph unicode="&#x2014;" horiz-adv-x="1673" d="M76 524v232h1521v-232h-1521z" />
<glyph unicode="&#x2018;" horiz-adv-x="454" d="M88 895v176q0 137 33.5 214.5t99 108.5t178.5 31v-104q-79 -3 -114 -41t-35 -129h104v-256h-266z" />
<glyph unicode="&#x2019;" horiz-adv-x="454" d="M57 883v104q79 3 114.5 41t35.5 129h-105v256h267v-176q0 -137 -34 -215t-99.5 -108.5t-178.5 -30.5z" />
<glyph unicode="&#x201a;" horiz-adv-x="454" d="M59 -170q79 3 114.5 41t35.5 129h-105v256h267v-176q0 -137 -34 -215t-99.5 -108.5t-178.5 -30.5v104z" />
<glyph unicode="&#x201c;" horiz-adv-x="835" d="M88 895v176q0 137 33.5 214.5t99 108.5t178.5 31v-104q-79 -3 -114 -41t-35 -129h104v-256h-266zM471 895v176q0 137 33.5 214.5t99 108.5t178.5 31v-104q-79 -3 -114 -41t-35 -129h104v-256h-266z" />
<glyph unicode="&#x201d;" horiz-adv-x="835" d="M57 883v104q79 3 114.5 41t35.5 129h-105v256h267v-176q0 -137 -34 -215t-99.5 -108.5t-178.5 -30.5zM438 883v104q79 3 114.5 41t35.5 129h-105v256h267v-176q0 -137 -34 -215t-99.5 -108.5t-178.5 -30.5z" />
<glyph unicode="&#x201e;" horiz-adv-x="835" d="M59 -170q79 3 114.5 41t35.5 129h-105v256h267v-176q0 -137 -34 -215t-99.5 -108.5t-178.5 -30.5v104zM440 -170q79 3 114.5 41t35.5 129h-105v256h267v-176q0 -137 -34 -215t-99.5 -108.5t-178.5 -30.5v104z" />
<glyph unicode="&#x2022;" horiz-adv-x="849" d="M88 627q0 149 92 240t246 91q152 0 244 -91.5t92 -239.5q0 -150 -92 -242t-244 -92q-154 0 -246 92t-92 242z" />
<glyph unicode="&#x2026;" horiz-adv-x="1832" d="M168 0v283h287v-283h-287zM772 0v283h289v-283h-289zM1378 0v283h289v-283h-289z" />
<glyph unicode="&#x202f;" horiz-adv-x="367" />
<glyph unicode="&#x2039;" horiz-adv-x="518" d="M27 582l247 342h209l-190 -342l190 -338h-209z" />
<glyph unicode="&#x203a;" horiz-adv-x="518" d="M35 242l190 342l-190 338h209l248 -338l-248 -342h-209z" />
<glyph unicode="&#x205f;" horiz-adv-x="458" />
<glyph unicode="&#x20ac;" horiz-adv-x="1169" d="M55 502v153h127v50q0 41 2 61h-129v154h146q26 133 85.5 235t141 162.5t176 90.5t199.5 30q188 0 319 -99l-92 -219q-86 70 -209 70q-260 0 -327 -270h477v-154h-498q-2 -18 -2 -57v-54h500v-153h-482q31 -146 113 -211.5t211 -65.5q141 0 229 68l72 -217 q-122 -101 -338 -101q-115 0 -208.5 29t-170.5 90.5t-128 164.5t-72 243h-142z" />
<glyph unicode="&#x2122;" horiz-adv-x="1966" d="M39 1245v168h774v-168h-287v-680h-200v680h-287zM903 565v848h227l252 -594h4l248 594h228v-848h-193v490h-4l-205 -490h-155l-205 490h-4v-490h-193z" />
<glyph unicode="&#x25fc;" horiz-adv-x="1013" d="M0 0v1014h1014v-1014h-1014z" />
</font>
</defs>
</svg>
