<?xml version="1.0" standalone="no"?>
<!DOCTYPE svg PUBLIC "-//W3C//DTD SVG 1.1//EN" "http://www.w3.org/Graphics/SVG/1.1/DTD/svg11.dtd" >
<svg xmlns="http://www.w3.org/2000/svg" xmlns:xlink="http://www.w3.org/1999/xlink" version="1.1">
<metadata></metadata>
<defs>
<font id="realistbold_italic" horiz-adv-x="1140" >
<font-face units-per-em="2048" ascent="1577" descent="-471" />
<missing-glyph horiz-adv-x="518" />
<glyph unicode="&#xfb01;" horiz-adv-x="1232" d="M115 0l125 793h-123l35 217h122l11 63q33 200 148 296.5t292 96.5q81 0 137 -24l-41 -211q-30 18 -86 18q-154 0 -178 -172l-10 -67h239l-32 -217h-242l-127 -793h-270zM782 0l160 1010h272l-159 -1010h-273zM965 1149l39 256h274l-41 -256h-272z" />
<glyph unicode="&#xfb02;" horiz-adv-x="1232" d="M115 0l125 793h-123l35 217h122l11 63q33 200 148 296.5t292 96.5q81 0 137 -24l-41 -211q-30 18 -86 18q-154 0 -178 -172l-10 -67h239l-32 -217h-242l-127 -793h-270zM782 0l230 1454h270l-229 -1454h-271z" />
<glyph unicode="&#xfb03;" horiz-adv-x="1951" d="M115 0l125 791h-123l35 219h122l11 63q33 200 148 296.5t292 96.5q81 0 137 -24l-41 -213q-36 18 -86 18q-154 0 -178 -170l-10 -67h213l-35 -219h-213l-127 -791h-270zM834 0l124 793h-122l34 217h123l11 63q33 200 148 296.5t292 96.5q81 0 137 -24l-41 -211 q-30 18 -86 18q-154 0 -178 -172l-10 -67h239l-32 -217h-242l-127 -793h-270zM1501 0l160 1010h272l-159 -1010h-273zM1683 1149l39 256h275l-41 -256h-273z" />
<glyph unicode="&#xfb04;" horiz-adv-x="1951" d="M115 0l125 791h-123l35 219h122l11 63q33 200 148 296.5t292 96.5q81 0 137 -24l-41 -213q-36 18 -86 18q-154 0 -178 -170l-10 -67h213l-35 -219h-213l-127 -791h-270zM834 0l124 793h-122l34 217h123l11 63q33 200 148 296.5t292 96.5q81 0 137 -24l-41 -211 q-30 18 -86 18q-154 0 -178 -172l-10 -67h239l-32 -217h-242l-127 -793h-270zM1501 0l230 1454h270l-229 -1454h-271z" />
<glyph horiz-adv-x="0" />
<glyph horiz-adv-x="0" />
<glyph unicode="&#xd;" horiz-adv-x="0" />
<glyph unicode=" "  horiz-adv-x="518" />
<glyph unicode="&#x09;" horiz-adv-x="518" />
<glyph unicode="&#xa0;" horiz-adv-x="518" />
<glyph unicode="!" horiz-adv-x="571" d="M102 0l43 279h283l-43 -279h-283zM186 406l133 1007h297l-186 -1007h-244z" />
<glyph unicode="&#x22;" horiz-adv-x="796" d="M213 922l78 491h231l-116 -491h-193zM532 922l78 491h232l-117 -491h-193z" />
<glyph unicode="#" horiz-adv-x="1292" d="M98 352l27 178l190 9l56 348h-191l29 178l190 8l72 340h203l-58 -340h283l70 340h202l-53 -340h189l-27 -178l-193 -8l-55 -348h191l-29 -177l-190 -10l-72 -352h-203l55 352h-278l-74 -352h-201l56 352h-189zM535 539h278l57 348h-282z" />
<glyph unicode="$" horiz-adv-x="1042" d="M27 111l102 235q142 -129 336 -129q113 0 172 39.5t59 103.5t-42 101.5t-167 97.5q-62 30 -103.5 53.5t-83.5 57t-66 70t-39 86t-15 110.5q0 157 112 258t294 123l28 194h213l-28 -196q152 -21 268 -103l-98 -221q-127 96 -295 96q-101 0 -160 -35.5t-59 -97.5 q0 -64 42 -97t175 -91q75 -33 128 -66t95.5 -78t63 -102.5t20.5 -130.5q0 -154 -104 -262.5t-287 -140.5l-33 -201h-213l29 195q-203 18 -344 131z" />
<glyph unicode="%" horiz-adv-x="1669" d="M98 0l1319 1413h269l-1319 -1413h-269zM168 1001q0 193 119.5 315t294.5 122q133 0 214 -81.5t81 -221.5q0 -193 -119 -315t-293 -122q-135 0 -216 81.5t-81 221.5zM385 1006q0 -129 104 -129q72 0 121 71t49 182q0 63 -27 96.5t-77 33.5q-72 0 -121 -71.5t-49 -182.5z M905 279q0 193 120 314.5t294 121.5q135 0 216 -81.5t81 -221.5q0 -193 -119.5 -315t-294.5 -122q-135 0 -216 82t-81 222zM1122 283q0 -62 28.5 -95.5t76.5 -33.5q72 0 122 71.5t50 182.5q0 64 -27.5 97.5t-77.5 33.5q-72 0 -122 -72.5t-50 -183.5z" />
<glyph unicode="&#x26;" horiz-adv-x="1366" d="M76 342q0 65 19.5 122t51 99t78.5 79.5t94 63t105 50.5q-98 146 -98 295q0 175 113.5 281t310.5 106q158 0 250 -89t92 -235q0 -84 -24 -152t-71.5 -119.5t-101.5 -88t-129 -72.5q8 -14 22 -31l168 -225q102 145 160 377l219 -53q-82 -319 -241 -506l178 -240v-4h-293 l-64 88q-183 -113 -432 -113q-194 0 -300.5 99.5t-106.5 267.5zM348 373q0 -85 50.5 -131.5t146.5 -46.5q135 0 241 65l-213 291q-6 8 -18 24.5t-18 24.5q-93 -42 -141 -94t-48 -133zM580 1055q0 -107 75 -224q101 46 149 102t48 146q0 71 -31 110.5t-88 39.5 q-70 0 -111.5 -44.5t-41.5 -129.5z" />
<glyph unicode="'" horiz-adv-x="475" d="M213 922l78 491h231l-116 -491h-193z" />
<glyph unicode="(" horiz-adv-x="651" d="M119 371q0 169 34.5 328.5t84 273.5t116 217t116 160.5t99.5 103.5h217q-58 -60 -111 -126.5t-116.5 -172t-109 -217.5t-76.5 -261.5t-31 -305.5q0 -361 174 -617h-213q-184 260 -184 617z" />
<glyph unicode=")" horiz-adv-x="651" d="M-61 -246q58 60 111 126.5t116.5 172t109 218t76.5 262t31 305.5q0 360 -174 616h213q23 -33 39.5 -58.5t46.5 -87t49 -122.5t34 -154.5t15 -193.5q0 -169 -34.5 -329t-84 -273.5t-116 -217t-116 -161t-99.5 -103.5h-217z" />
<glyph unicode="*" horiz-adv-x="876" d="M121 946l282 84l-243 168l116 141l213 -202l23 293l182 -27l-67 -287l266 127l63 -174l-280 -82l242 -168l-115 -143l-215 205l-23 -295l-182 28l68 287l-265 -127z" />
<glyph unicode="+" horiz-adv-x="1112" d="M127 528l35 222h342l55 356h227l-55 -356h342l-35 -222h-342l-57 -362h-227l57 362h-342z" />
<glyph unicode="," horiz-adv-x="505" d="M-31 -197q173 10 197 197h-113l45 283h283l-31 -203q-18 -113 -49 -189t-79.5 -119.5t-108.5 -61.5t-144 -19v112z" />
<glyph unicode="-" horiz-adv-x="643" d="M86 498l37 223h510l-37 -223h-510z" />
<glyph unicode="." horiz-adv-x="505" d="M53 0l45 283h283l-45 -283h-283z" />
<glyph unicode="/" horiz-adv-x="892" d="M-133 -246l942 1700h242l-942 -1700h-242z" />
<glyph unicode="0" horiz-adv-x="1294" d="M125 535q0 171 36 317t99.5 252.5t150 182.5t188.5 113.5t214 37.5q212 0 338.5 -144t126.5 -417q0 -212 -55 -385t-150 -284.5t-219 -172t-264 -60.5q-212 0 -338.5 144t-126.5 416zM412 541q0 -314 211 -314q155 0 261.5 183t106.5 467q0 315 -211 315 q-100 0 -184 -81.5t-134 -231.5t-50 -338z" />
<glyph unicode="1" horiz-adv-x="786" d="M160 1233l442 180h211l-223 -1413h-285l178 1120l-268 -106z" />
<glyph unicode="2" horiz-adv-x="1067" d="M31 0l32 195l357 327q60 53 84.5 75t69.5 63.5t62.5 60t48.5 51t42 50.5t28 45t22.5 48.5t10.5 47.5t5 53q0 84 -48 130t-139 46q-161 0 -311 -139l-102 200q212 185 485 185q198 0 299.5 -98.5t101.5 -270.5q0 -60 -11.5 -116t-28.5 -100.5t-48.5 -92.5t-58 -81.5 t-72 -77.5t-76 -70.5t-82.5 -71.5l-241 -209v-4h514l-39 -246h-905z" />
<glyph unicode="3" horiz-adv-x="1005" d="M27 121l110 223q117 -123 273 -123q115 0 180 50t65 145q0 97 -79 152t-218 55h-45l33 219h60q148 0 240.5 55.5t92.5 157.5q0 69 -42.5 106t-125.5 37q-152 0 -278 -111l-88 209q191 142 434 142q181 0 282 -85t101 -237q0 -88 -28.5 -159t-76 -115t-98 -70t-106.5 -39 v-4q97 -24 160 -108.5t63 -237.5q0 -192 -139 -300t-375 -108q-237 0 -395 146z" />
<glyph unicode="4" d="M47 352l31 197l776 864h231l-133 -835h166l-35 -226h-165l-56 -352h-270l55 352h-600zM365 578h319l76 473h-4z" />
<glyph unicode="5" horiz-adv-x="1064" d="M16 113l107 235q123 -129 305 -129q138 0 212.5 61.5t74.5 174.5q0 120 -90 178.5t-277 58.5h-141l180 721h715l-39 -239h-490l-65 -271q238 -9 367 -116t129 -318q0 -223 -154 -358.5t-410 -135.5q-268 0 -424 138z" />
<glyph unicode="6" horiz-adv-x="1142" d="M123 514q0 180 38.5 332t106.5 260t161 183.5t203 112t232 36.5q70 0 127.5 -11t98.5 -32t59.5 -33.5t40.5 -30.5l-100 -211q-96 82 -232 82q-158 0 -269.5 -96.5t-160.5 -286.5q140 94 311 94t265 -101t94 -284q0 -248 -147 -400.5t-386 -152.5q-209 0 -325.5 137 t-116.5 402zM395 522q0 -313 199 -313q110 0 177 80.5t67 218.5q0 96 -48.5 145t-140.5 49q-133 0 -252 -81q0 -15 -1 -48t-1 -51z" />
<glyph unicode="7" horiz-adv-x="1042" d="M43 0l758 1169v5h-598l37 239h934l-31 -192l-768 -1221h-332z" />
<glyph unicode="8" horiz-adv-x="1103" d="M72 319q0 81 25.5 147.5t73 116t96 83.5t114.5 67v4q-162 107 -162 305q0 182 137.5 289t356.5 107q186 0 293.5 -87t107.5 -241q0 -59 -17 -110t-42 -88t-64.5 -71.5t-73.5 -56.5t-81 -47v-4q81 -49 137.5 -136.5t56.5 -203.5q0 -192 -146.5 -305t-381.5 -113 q-198 0 -314 92t-116 252zM336 362q0 -74 49 -117.5t133 -43.5q106 0 171 53.5t65 148.5q0 78 -50.5 131t-132.5 97q-47 -23 -82.5 -45t-73.5 -55t-58.5 -76t-20.5 -93zM483 1042q0 -38 12.5 -69t38 -55.5t49 -41t60.5 -36.5q36 17 62 31.5t57.5 37.5t51 46t33 55.5 t13.5 68.5q0 67 -44.5 105.5t-121.5 38.5q-92 0 -151.5 -48.5t-59.5 -132.5z" />
<glyph unicode="9" horiz-adv-x="1144" d="M72 80l80 227q18 -14 25 -20t34.5 -22.5t50.5 -25t60.5 -16.5t76.5 -8q347 0 428 385q-132 -90 -301 -90q-171 0 -268.5 107t-97.5 296q0 235 146.5 380t373.5 145q218 0 334 -141.5t116 -415.5q0 -223 -52.5 -396.5t-148.5 -284.5t-228 -168t-295 -57q-202 0 -334 105z M420 938q0 -219 188 -219q131 0 244 72q2 31 2 98q0 167 -50 243t-147 76q-104 0 -170.5 -74t-66.5 -196z" />
<glyph unicode=":" horiz-adv-x="505" d="M53 0l45 283h283l-45 -283h-283zM170 727l45 283h283l-45 -283h-283z" />
<glyph unicode=";" horiz-adv-x="505" d="M-31 -197q173 10 197 197h-113l45 283h283l-31 -203q-18 -113 -49 -189t-79.5 -119.5t-108.5 -61.5t-144 -19v112zM170 727l45 283h283l-45 -283h-283z" />
<glyph unicode="&#x3c;" horiz-adv-x="1112" d="M133 537l25 149l987 545l-39 -254l-682 -373v-4l563 -375l-39 -235z" />
<glyph unicode="=" horiz-adv-x="1112" d="M100 352l31 207h913l-32 -207h-912zM158 721l30 205h914l-33 -205h-911z" />
<glyph unicode="&#x3e;" horiz-adv-x="1112" d="M47 -8l39 254l682 372v5l-563 374l39 236l815 -547l-25 -149z" />
<glyph unicode="?" horiz-adv-x="841" d="M174 1303q181 135 416 135q172 0 260 -77.5t88 -219.5q0 -74 -24 -137.5t-63 -108t-85.5 -83t-93 -71t-85.5 -64t-63 -69.5t-24 -80q0 -54 45 -118v-4h-248q-53 74 -53 161q0 58 30 109t75 87t97.5 74.5l97.5 71.5t75 77.5t30 92.5q0 125 -149 125q-136 0 -250 -92z M201 0l43 279h282l-43 -279h-282z" />
<glyph unicode="@" horiz-adv-x="1753" d="M92 309q0 162 37 304t103.5 250.5t158.5 193.5t203 139.5t235 82.5t256 28q305 0 474.5 -146.5t169.5 -425.5q0 -301 -131 -480t-338 -179q-152 0 -201 117h-4q-21 -23 -39 -38.5t-50 -36t-76.5 -31.5t-98.5 -11q-131 0 -207 82t-76 239q0 113 34 209t90.5 159t129 98.5 t149.5 35.5q142 0 199 -98h4l14 80h211l-61 -389q-16 -101 -16 -154q0 -40 12 -59t43 -19q77 0 134.5 132t57.5 329q0 198 -110 294.5t-338 96.5q-157 0 -291 -52.5t-234 -150.5t-157 -248.5t-57 -336.5q0 -231 126.5 -345t362.5 -114q111 0 217 19t158 37t88 36l33 -174 q-204 -115 -527 -115q-122 0 -226 24.5t-189.5 75.5t-146 126t-93.5 180.5t-33 234.5zM737 414q0 -76 33.5 -114t95.5 -38q99 0 170 76q3 52 13 119l30 188q-39 70 -129 70q-91 0 -152 -82t-61 -219z" />
<glyph unicode="A" horiz-adv-x="1382" d="M-39 0l750 1413h290l302 -1413h-295l-70 383h-489l-189 -383h-299zM543 578h364l-96 546h-4z" />
<glyph unicode="B" horiz-adv-x="1298" d="M74 0l223 1413h524q463 0 463 -323q0 -79 -25 -143.5t-68.5 -107.5t-94 -70t-107.5 -40v-4q108 -24 177 -99.5t69 -203.5q0 -199 -161 -310.5t-470 -111.5h-530zM389 238h234q175 0 257.5 53t82.5 158q0 82 -67.5 128t-205.5 46h-239zM481 825h219q151 0 227.5 55.5 t76.5 151.5q0 76 -56.5 113t-181.5 37h-229z" />
<glyph unicode="C" horiz-adv-x="1267" d="M113 590q0 166 47 307t127.5 239t187 167.5t225.5 102t244 32.5q241 0 410 -111l-90 -229q-124 96 -314 96q-111 0 -208 -36.5t-173.5 -107.5t-121 -187.5t-44.5 -264.5q0 -193 94.5 -282t272.5 -89q198 0 350 97l62 -224q-180 -125 -467 -125q-136 0 -244 35.5 t-189 108.5t-125 192.5t-44 278.5z" />
<glyph unicode="D" horiz-adv-x="1470" d="M74 0l223 1413h426q365 0 553 -143.5t188 -450.5q0 -395 -247 -607t-705 -212h-438zM397 248h166q293 0 454 143t161 412q0 366 -457 366h-178z" />
<glyph unicode="E" horiz-adv-x="1142" d="M74 0l223 1413h924l-39 -242h-637l-53 -331h573l-35 -230h-575l-58 -362h656l-41 -248h-938z" />
<glyph unicode="F" horiz-adv-x="1093" d="M74 0l223 1413h924l-37 -242h-641l-68 -426h580l-39 -239h-580l-80 -506h-282z" />
<glyph unicode="G" horiz-adv-x="1376" d="M115 592q0 167 48 308t130 239t192 166.5t232.5 100.5t253.5 32q275 0 434 -117l-96 -231q-137 102 -334 102q-93 0 -175.5 -21t-155.5 -67t-125.5 -114t-82.5 -167.5t-30 -220.5q0 -381 382 -381q97 0 199 23l53 329h-229l35 218h487l-108 -687q-208 -129 -496 -129 q-283 0 -448.5 154.5t-165.5 462.5z" />
<glyph unicode="H" horiz-adv-x="1443" d="M74 0l223 1413h283l-88 -569h612l90 569h285l-224 -1413h-284l96 602h-614l-95 -602h-284z" />
<glyph unicode="I" horiz-adv-x="575" d="M88 0l223 1413h283l-223 -1413h-283z" />
<glyph unicode="J" horiz-adv-x="962" d="M33 29l57 245q70 -47 164 -47q150 0 223.5 70t102.5 252l100 625h-461l37 239h748l-140 -876q-48 -303 -190.5 -432.5t-401.5 -129.5q-141 0 -239 54z" />
<glyph unicode="K" horiz-adv-x="1368" d="M74 0l223 1413h283l-93 -586h125l533 586h348l-645 -688l450 -725h-340l-356 600h-151l-95 -600h-282z" />
<glyph unicode="L" horiz-adv-x="1095" d="M74 0l223 1413h285l-185 -1167h656l-39 -246h-940z" />
<glyph unicode="M" horiz-adv-x="1773" d="M74 0l223 1413h313l273 -1040h2l602 1040h321l-223 -1413h-272l139 881h-4l-508 -881h-219l-229 883h-5l-141 -883h-272z" />
<glyph unicode="N" horiz-adv-x="1441" d="M74 0l223 1413h252l495 -921h3l147 921h283l-224 -1413h-254l-493 922h-4l-146 -922h-282z" />
<glyph unicode="O" horiz-adv-x="1501" d="M115 582q0 201 61.5 364.5t169.5 270t251.5 164t309.5 57.5q273 0 430.5 -156t157.5 -451q0 -201 -62 -364.5t-169.5 -270t-251.5 -164t-310 -57.5q-273 0 -430 156t-157 451zM401 588q0 -178 86.5 -269.5t243.5 -91.5q210 0 344.5 163.5t134.5 438.5q0 179 -85.5 271 t-243.5 92q-210 0 -345 -164.5t-135 -439.5z" />
<glyph unicode="P" horiz-adv-x="1241" d="M74 0l223 1413h442q277 0 415 -107.5t138 -310.5q0 -134 -50.5 -239t-142.5 -172.5t-218.5 -102.5t-280.5 -35h-172l-70 -446h-284zM465 676h160q180 0 280.5 72.5t100.5 222.5q0 203 -299 203h-164z" />
<glyph unicode="Q" horiz-adv-x="1503" d="M115 582q0 201 62 364.5t170.5 270t252.5 164t311 57.5q272 0 428 -155.5t156 -451.5q0 -241 -87 -423t-241 -291l150 -258l-250 -140l-154 283q-105 -27 -215 -27q-272 0 -427.5 155.5t-155.5 451.5zM401 590q0 -180 86.5 -272.5t243.5 -92.5q209 0 344 164t135 438 q0 180 -86 272.5t-243 92.5q-209 0 -344.5 -164.5t-135.5 -437.5z" />
<glyph unicode="R" horiz-adv-x="1304" d="M74 0l223 1413h446q280 0 418.5 -98t138.5 -299q0 -177 -91.5 -295.5t-254.5 -177.5l246 -543h-317l-203 492q-38 -3 -74 -3h-172l-76 -489h-284zM469 707h172q180 0 276.5 70.5t96.5 205.5q0 188 -291 188h-180z" />
<glyph unicode="S" horiz-adv-x="1124" d="M23 125l106 240q162 -144 373 -144q132 -1 204 45q70 44 70 121q0 76 -49.5 121.5t-196.5 114.5q-65 30 -108 54t-89 60.5t-72 76t-43 95.5t-17 125q0 186 146 295t380 109q86 0 156.5 -10t123 -30.5t77 -32.5t59.5 -34l-92 -235q-151 102 -330 102q-114 0 -179 -36.5 t-65 -108.5q0 -75 47.5 -114.5t204.5 -109.5q80 -36 136 -71.5t103 -84.5t70 -113.5t23 -145.5q0 -201 -150 -320t-411 -119q-99 0 -182 15t-142.5 43t-88.5 46.5t-64 45.5z" />
<glyph unicode="T" horiz-adv-x="1271" d="M145 1174l37 239h1239l-37 -239h-477l-186 -1174h-283l185 1174h-478z" />
<glyph unicode="U" horiz-adv-x="1439" d="M150 444q0 107 24 252l113 717h284l-112 -717q-23 -141 -23 -213q0 -132 66.5 -194t197.5 -62q168 0 260.5 99t124.5 311l123 776h275l-121 -778q-52 -328 -222 -494t-474 -166q-257 0 -386.5 115t-129.5 354z" />
<glyph unicode="V" horiz-adv-x="1355" d="M182 1413h293l191 -1085h4l532 1085h301l-737 -1413h-293z" />
<glyph unicode="W" horiz-adv-x="1937" d="M201 1413h286l31 -989h4l465 989h287l151 -989h5l344 989h292l-540 -1413h-281l-170 1018h-4l-493 -1018h-283z" />
<glyph unicode="X" horiz-adv-x="1323" d="M-39 0l594 739l-352 674h325l230 -467l356 467h334l-576 -702l369 -711h-328l-245 504l-371 -504h-336z" />
<glyph unicode="Y" horiz-adv-x="1294" d="M174 1413h309l226 -637h4l428 637h313l-643 -901l-80 -512h-285l82 512z" />
<glyph unicode="Z" horiz-adv-x="1286" d="M29 0l32 215l877 954v5h-696l37 239h1083l-33 -209l-856 -954v-4h731l-41 -246h-1134z" />
<glyph unicode="[" horiz-adv-x="608" d="M57 -246l271 1700h393l-27 -170h-174l-215 -1360h176l-28 -170h-396z" />
<glyph unicode="\" horiz-adv-x="884" d="M188 1454h224l403 -1700h-223z" />
<glyph unicode="]" horiz-adv-x="608" d="M-39 -246l27 170h174l215 1360h-176l28 170h396l-271 -1700h-393z" />
<glyph unicode="^" horiz-adv-x="1024" d="M96 674l502 739h158l268 -739h-248l-141 438h-4l-281 -438h-254z" />
<glyph unicode="_" horiz-adv-x="1112" d="M-86 -371l37 226h1050l-34 -226h-1053z" />
<glyph unicode="`" horiz-adv-x="677" d="M236 1403v4h299l176 -287h-228z" />
<glyph unicode="a" d="M80 406q0 143 43 264t114.5 199t163 121.5t189.5 43.5q182 0 260 -133h4l20 109h254l-157 -1010h-258l18 129h-4q-110 -154 -311 -154q-157 0 -246.5 111t-89.5 320zM354 418q0 -107 45.5 -160t126.5 -53q42 0 79.5 10.5t67 31t43 32t32.5 30.5l63 408q-47 92 -176 92 q-119 0 -200 -106.5t-81 -284.5z" />
<glyph unicode="b" horiz-adv-x="1138" d="M59 0l230 1454h270l-88 -567h4q125 147 305 147q152 0 237 -105.5t85 -307.5q0 -147 -40.5 -270t-110 -204.5t-161.5 -126.5t-196 -45q-178 0 -256 134h-4l-21 -109h-254zM377 295q50 -90 170 -90q121 0 199.5 104.5t78.5 288.5q0 211 -166 211q-120 0 -219 -111z" />
<glyph unicode="c" horiz-adv-x="933" d="M74 416q0 123 35 226t93.5 174.5t137 121t165 73t177.5 23.5q180 0 293 -80l-82 -204q-80 59 -195 59q-152 0 -249 -97t-97 -276q0 -119 58.5 -175t164.5 -56q127 0 218 59l57 -203q-125 -86 -342 -86q-196 0 -315 112.5t-119 328.5z" />
<glyph unicode="d" horiz-adv-x="1144" d="M80 397q0 145 43.5 267t115.5 202t163 124t188 44q175 0 246 -125h4l86 545h272l-229 -1454h-258l20 129h-4q-112 -154 -311 -154q-157 0 -246.5 109.5t-89.5 312.5zM356 412q0 -104 44.5 -155.5t125.5 -51.5q121 0 219 104l66 406q-52 94 -172 94q-118 0 -200.5 -107.5 t-82.5 -289.5z" />
<glyph unicode="e" horiz-adv-x="972" d="M74 403q0 149 48 271t129 199t183.5 119t214.5 42q147 0 231.5 -71.5t84.5 -194.5q0 -342 -486 -342h-147q1 -119 53.5 -173t161.5 -54q153 0 252 84l65 -191q-18 -16 -43.5 -32t-71 -37.5t-114.5 -34.5t-148 -13q-197 0 -305 108.5t-108 319.5zM350 592h125 q143 0 202.5 34.5t59.5 102.5q0 45 -29 69.5t-85 24.5q-93 0 -167 -61.5t-106 -169.5z" />
<glyph unicode="f" horiz-adv-x="716" d="M115 0l125 793h-123l35 217h122l11 63q33 200 148 296.5t292 96.5q81 0 137 -24l-41 -211q-30 18 -86 18q-154 0 -178 -172l-10 -67h239l-32 -217h-242l-127 -793h-270z" />
<glyph unicode="g" horiz-adv-x="1138" d="M-12 -299l90 215q123 -123 299 -123q165 0 242 72t98 221l8 49h-4q-112 -139 -301 -139q-157 0 -248.5 108t-91.5 302q0 144 43.5 265t116 199t163.5 121t189 43q185 0 260 -133h2l20 109h254l-139 -885q-46 -292 -194 -425.5t-426 -133.5q-239 0 -381 135zM358 426 q0 -98 44.5 -150.5t123.5 -52.5q129 0 224 107l63 389q-52 94 -174 94q-119 0 -200 -102.5t-81 -284.5z" />
<glyph unicode="h" horiz-adv-x="1146" d="M59 0l230 1454h272l-88 -557h2q137 137 328 137q132 0 206 -78t74 -221q0 -57 -24 -225l-80 -510h-272l81 512q17 97 17 145q0 76 -31.5 114t-101.5 38q-115 0 -230 -109l-110 -700h-273z" />
<glyph unicode="i" horiz-adv-x="514" d="M63 0l160 1010h273l-160 -1010h-273zM246 1149l39 256h274l-41 -256h-272z" />
<glyph unicode="j" horiz-adv-x="526" d="M-203 -408l25 218q30 -15 78 -15q76 0 115.5 39t56.5 137l161 1039h273l-166 -1043q-31 -208 -135 -300.5t-283 -92.5q-77 0 -125 18zM256 1149l41 256h272l-41 -256h-272z" />
<glyph unicode="k" horiz-adv-x="1116" d="M59 0l230 1454h272l-129 -817h100l320 373h315l-424 -492l299 -518h-321l-207 416h-117l-65 -416h-273z" />
<glyph unicode="l" horiz-adv-x="516" d="M66 0l229 1454h270l-229 -1454h-270z" />
<glyph unicode="m" horiz-adv-x="1755" d="M53 0l160 1010h258l-20 -123h4q26 27 48.5 46t64 45.5t97 41t119.5 14.5q191 0 252 -155q155 155 365 155q136 0 213.5 -77.5t77.5 -225.5q0 -40 -25 -211l-82 -520h-272l84 522q16 118 16 137q0 150 -139 150q-109 0 -213 -94q-1 -15 -25 -195l-82 -520h-272l84 522 q16 118 16 137q0 150 -131 150q-106 0 -215 -109l-110 -700h-273z" />
<glyph unicode="n" horiz-adv-x="1142" d="M53 0l160 1010h258l-20 -123h4q141 147 338 147q134 0 209 -76t75 -221q0 -79 -24 -223l-80 -514h-273l82 516q17 97 17 143q0 150 -133 150q-115 0 -230 -109l-110 -700h-273z" />
<glyph unicode="o" horiz-adv-x="1105" d="M76 403q0 151 46 272.5t125.5 199t183 118.5t222.5 41q185 0 302.5 -112t117.5 -318q0 -150 -45.5 -271t-125 -198.5t-183.5 -118.5t-223 -41q-186 0 -303 111.5t-117 316.5zM350 410q0 -101 45.5 -153t128.5 -52q115 0 195 108t80 289q0 103 -45.5 155t-128.5 52 q-115 0 -195 -108.5t-80 -290.5z" />
<glyph unicode="p" horiz-adv-x="1134" d="M-12 -410l225 1420h258l-20 -129h4q124 153 319 153q151 0 237.5 -109.5t86.5 -314.5q0 -285 -140 -460t-358 -175q-58 0 -106 14t-77.5 35.5t-46 40t-24.5 35.5h-4l-82 -510h-272zM373 299q17 -34 60 -64t110 -30q124 0 201 103.5t77 287.5q0 213 -170 213 q-118 0 -217 -111z" />
<glyph unicode="q" horiz-adv-x="1138" d="M78 379q0 152 42.5 278t114 207t164 125.5t193.5 44.5q175 0 258 -133h4l18 109h254l-223 -1420h-272l84 531h-4q-21 -25 -38.5 -42.5t-55 -45t-91.5 -43t-118 -15.5q-149 0 -239.5 107t-90.5 297zM356 412q0 -103 45 -155t127 -52q42 0 78 10t64 29.5t42 32t33 32.5 l64 406q-51 94 -168 94q-124 0 -204.5 -110t-80.5 -287z" />
<glyph unicode="r" horiz-adv-x="710" d="M53 0l160 1010h256l-27 -164h4q28 53 65 90.5t110 65.5t172 28l-39 -237q-30 6 -60 6q-171 0 -266 -146l-104 -653h-271z" />
<glyph unicode="s" horiz-adv-x="876" d="M27 88l84 209q122 -102 262 -102q164 0 164 92q0 43 -31 71t-131 78q-55 26 -91.5 50.5t-68 59t-46.5 80.5t-15 107q0 141 109.5 221t281.5 80q190 0 321 -90l-82 -192q-33 21 -53 32.5t-72.5 27t-107.5 15.5q-143 0 -143 -82q0 -40 33 -68t137 -75q74 -34 120 -70.5 t74.5 -95t28.5 -137.5q0 -145 -114.5 -234.5t-311.5 -89.5q-208 0 -348 113z" />
<glyph unicode="t" horiz-adv-x="739" d="M109 793l34 217h123l37 225h270l-36 -225h245l-34 -217h-246l-53 -349q-13 -67 -13 -114q0 -64 27 -91.5t86 -27.5q51 0 100 14l-18 -213q-80 -32 -187 -32q-286 0 -286 276q0 66 18 180l55 357h-122z" />
<glyph unicode="u" d="M109 272q0 70 22 224l82 514h272l-82 -514q-16 -91 -16 -144q0 -76 33 -111.5t102 -35.5q120 0 226 106l110 699h270l-157 -1010h-258l18 123h-4q-136 -148 -336 -148q-131 0 -206.5 75.5t-75.5 221.5z" />
<glyph unicode="v" horiz-adv-x="1048" d="M113 1010h280l123 -656h4l328 656h287l-560 -1010h-221z" />
<glyph unicode="w" horiz-adv-x="1492" d="M129 1010h266l37 -615h4l299 615h215l109 -615h4l227 615h277l-426 -1010h-234l-116 651h-5l-321 -651h-229z" />
<glyph unicode="x" horiz-adv-x="1046" d="M-37 0l432 532l-252 478h293l146 -299h4l221 299h301l-412 -502l271 -508h-297l-160 330h-4l-240 -330h-303z" />
<glyph unicode="y" horiz-adv-x="1052" d="M-78 -422l27 232q106 2 182 31t126 80t93 134l-231 955h282l127 -658h4l324 658h283l-496 -916q-69 -125 -124 -207t-117 -145.5t-131 -97t-153 -50t-196 -16.5z" />
<glyph unicode="z" horiz-adv-x="976" d="M10 0l25 168l567 625v4h-440l35 213h802l-26 -170l-543 -613v-4h465l-37 -223h-848z" />
<glyph unicode="{" horiz-adv-x="684" d="M84 520l27 168q172 3 196 154l43 272q15 98 52.5 167t96.5 108.5t130.5 57t165.5 19.5l-15 -172q-95 0 -146 -46t-71 -165l-41 -258q-18 -107 -78 -160.5t-149 -58.5v-4q73 -6 117.5 -49t44.5 -119q0 -1 -11 -92l-32 -199q-11 -80 -11 -98q0 -128 152 -131l-27 -172 q-168 2 -259 62t-91 196q0 40 10 92l39 246q9 45 9 68q0 111 -152 114z" />
<glyph unicode="|" horiz-adv-x="526" d="M55 -246l271 1700h219l-271 -1700h-219z" />
<glyph unicode="}" horiz-adv-x="684" d="M-37 -258l14 172q95 0 147 46.5t71 164.5l41 258q18 107 78 160.5t149 58.5v4q-73 6 -117.5 49t-44.5 119q0 10 10 92l33 199q10 73 10 98q0 69 -39 99t-112 32l26 172q168 -2 259.5 -62t91.5 -196q0 -35 -11 -92l-39 -246q-8 -40 -8 -67q0 -112 152 -115l-27 -168 q-172 -3 -196 -153l-43 -273q-15 -98 -52.5 -167t-96.5 -108.5t-130.5 -57t-165.5 -19.5z" />
<glyph unicode="~" horiz-adv-x="1112" d="M113 459q48 375 311 375q57 0 111 -24.5t88.5 -53.5t77.5 -53.5t81 -24.5q100 0 127 133h176q-45 -375 -311 -375q-57 0 -111 24.5t-88 53.5t-76.5 53.5t-80.5 24.5q-102 0 -129 -133h-176z" />
<glyph unicode="&#xa1;" horiz-adv-x="571" d="M-4 -403l186 1007h244l-133 -1007h-297zM184 731l43 279h283l-43 -279h-283z" />
<glyph unicode="&#xa2;" horiz-adv-x="935" d="M74 416q0 132 39.5 241.5t108 182.5t154 119.5t183.5 64.5l31 195h217l-29 -191q111 -14 197 -74l-82 -204q-80 59 -195 59q-152 0 -249 -97t-97 -276q0 -119 58.5 -175t164.5 -56q127 0 218 59l57 -203q-93 -63 -238 -79l-32 -197h-218l33 201q-149 31 -235 139t-86 291 z" />
<glyph unicode="&#xa3;" horiz-adv-x="1034" d="M41 0l31 188q102 68 162.5 152.5t76.5 216.5h-149l33 203h122v147q0 114 27 205t72.5 151t109.5 100t134.5 57.5t150.5 17.5q59 0 109 -8.5t86 -25t52.5 -26t37.5 -24.5l-86 -221l-12 8q-12 8 -17.5 11t-19.5 10.5t-25.5 11.5t-27.5 9t-33.5 7t-36.5 2q-54 0 -94.5 -13 t-75.5 -45t-53.5 -94.5t-18.5 -152.5v-127h293l-33 -203h-266q-17 -121 -64.5 -192.5t-115.5 -122.5v-4h544l-36 -238h-877z" />
<glyph unicode="&#xa4;" horiz-adv-x="1128" d="M72 199l159 157q-61 99 -61 226q0 126 61 225l-159 158l135 137l155 -158q108 68 236 68t236 -68l155 158l135 -137l-159 -156q61 -103 61 -227q0 -125 -61 -228l159 -155l-135 -138l-155 158q-106 -67 -236 -67t-236 67l-155 -158zM393 582q0 -90 57.5 -148.5 t147.5 -58.5q89 0 147 59t58 148t-58 147.5t-147 58.5q-90 0 -147.5 -58t-57.5 -148z" />
<glyph unicode="&#xa5;" horiz-adv-x="1208" d="M123 289l27 157h323l19 119h-324l25 160h284l-270 688h313l166 -506h4l326 506h313l-487 -688h282l-24 -160h-326l-18 -119h325l-24 -157h-326l-45 -289h-283l46 289h-326z" />
<glyph unicode="&#xa6;" horiz-adv-x="526" d="M55 -246l119 752h219l-119 -752h-219zM207 702l119 752h219l-119 -752h-219z" />
<glyph unicode="&#xa7;" horiz-adv-x="1044" d="M100 -68l82 201q104 -94 252 -94q81 0 124.5 33.5t43.5 83.5q0 49 -42 83.5t-167 82.5q-139 54 -205.5 123t-66.5 188q0 202 211 307q-39 62 -39 160q0 152 113.5 245t295.5 93q166 0 281 -74l-76 -199q-98 66 -215 66q-72 0 -113.5 -30t-41.5 -77t41 -80t165 -79 q139 -51 207 -119t68 -180q0 -207 -209 -318q45 -73 45 -176q0 -152 -115.5 -248t-298.5 -96q-206 0 -340 104zM358 686q0 -54 43 -87.5t177 -84.5q46 -17 102 -49q100 54 100 137q0 53 -44 88t-173 84q-36 13 -102 47q-103 -58 -103 -135z" />
<glyph unicode="&#xa8;" horiz-adv-x="741" d="M207 1149l35 231h225l-37 -231h-223zM557 1149l37 231h223l-37 -231h-223z" />
<glyph unicode="&#xa9;" horiz-adv-x="1552" d="M109 586q0 163 44 302.5t121 239.5t181 170.5t225 105t252 34.5q285 0 449.5 -162.5t164.5 -448.5q0 -163 -44 -302.5t-121 -239.5t-181 -170.5t-225 -105t-252 -34.5q-285 0 -449.5 162.5t-164.5 448.5zM279 598q0 -220 121 -341.5t339 -121.5q134 0 250.5 47t202.5 133 t135 215t49 285q0 220 -121 341.5t-342 121.5q-133 0 -249 -47t-201.5 -133t-134.5 -215t-49 -285zM438 651q0 111 41.5 202.5t110 149.5t154.5 89.5t178 31.5q151 0 241 -71l-61 -152q-76 55 -178 55q-125 0 -207 -77t-82 -222q0 -190 194 -190q117 0 205 57l35 -139 q-120 -86 -278 -86q-160 0 -256.5 88.5t-96.5 263.5z" />
<glyph unicode="&#xaa;" horiz-adv-x="796" d="M164 1012q0 186 97.5 300.5t236.5 114.5q114 0 166 -81h2l14 67h186l-104 -659h-191l15 84h-2q-44 -52 -87 -74q-52 -27 -118 -27q-98 0 -156.5 71t-58.5 204zM367 1026q0 -63 26.5 -94t73.5 -31q32 0 61.5 14t38.5 22t27 26l41 247q-9 15 -15.5 23t-29.5 20.5t-53 12.5 q-72 0 -121 -67.5t-49 -172.5z" />
<glyph unicode="&#xab;" horiz-adv-x="821" d="M63 582l291 342h191l-238 -344l131 -336h-186zM391 582l289 342h190l-237 -344l131 -336h-186z" />
<glyph unicode="&#xac;" horiz-adv-x="1112" d="M127 530l35 222h907l-74 -471h-225l41 249h-684z" />
<glyph unicode="&#xad;" horiz-adv-x="643" d="M86 498l37 223h510l-37 -223h-510z" />
<glyph unicode="&#xae;" horiz-adv-x="999" d="M141 891q0 101 27.5 187.5t76 149.5t114 108t143 67t162.5 22q182 0 283.5 -100t101.5 -274q0 -125 -42 -228t-113.5 -169t-165.5 -102t-200 -36q-182 0 -284.5 100.5t-102.5 274.5zM260 905q0 -131 72.5 -203.5t208.5 -72.5q173 0 282 111t109 296q0 131 -73.5 204 t-209.5 73q-172 0 -280.5 -111.5t-108.5 -296.5zM389 760l72 442h162q93 0 136.5 -30t43.5 -97q0 -107 -105 -149l74 -166h-125l-57 143h-64l-24 -143h-113zM539 983h39q110 0 110 78q0 51 -82 51h-47z" />
<glyph unicode="&#xaf;" horiz-adv-x="698" d="M154 1157l28 176h641l-28 -176h-641z" />
<glyph unicode="&#xb0;" horiz-adv-x="813" d="M156 1073q0 164 99.5 264.5t262.5 100.5t263 -100.5t100 -264.5q0 -165 -100 -265.5t-263 -100.5t-262.5 100.5t-99.5 265.5zM358 1073q0 -75 44 -121.5t116 -46.5q71 0 115.5 46.5t44.5 121.5q0 73 -44.5 119.5t-115.5 46.5q-72 0 -116 -46t-44 -120z" />
<glyph unicode="&#xb1;" horiz-adv-x="1112" d="M61 119l35 219h912l-35 -219h-912zM162 756l37 219h340l53 332h227l-53 -332h344l-37 -219h-342l-53 -334h-227l53 334h-342z" />
<glyph unicode="&#xb2;" horiz-adv-x="714" d="M109 565l20 135l246 209q91 79 131.5 132t40.5 118q0 42 -23.5 68t-74.5 26q-96 0 -179 -77l-65 133q135 118 313 118q114 0 179 -60.5t65 -166.5q0 -74 -33.5 -142.5t-79 -116.5t-114.5 -101l-115 -97v-4h276l-28 -174h-559z" />
<glyph unicode="&#xb3;" horiz-adv-x="714" d="M113 643l77 152q60 -76 164 -76q62 0 98.5 29t36.5 75q0 95 -167 95h-41l22 147h45q85 0 140 30t55 89q0 36 -25 56t-74 20q-88 0 -174 -64l-51 135q129 96 291 96q119 0 181.5 -51t62.5 -147q0 -92 -58 -151.5t-143 -80.5v-4q143 -36 143 -186q0 -119 -89 -187.5 t-238 -68.5q-158 0 -256 92z" />
<glyph unicode="&#xb4;" horiz-adv-x="677" d="M199 1120l268 287h305l-2 -4l-336 -283h-235z" />
<glyph unicode="&#xb5;" horiz-adv-x="1193" d="M-12 -410l225 1420h270l-92 -584q-18 -118 16 -166.5t123 -48.5q121 0 213 92q1 9 6 36t7 42l100 629h270l-102 -629q-14 -83 -14 -123q0 -74 65 -74q24 0 51 9l-26 -187q-68 -29 -146 -29q-171 0 -211 138q-126 -131 -317 -131q-68 0 -102 24l-66 -418h-270z" />
<glyph unicode="&#xb6;" horiz-adv-x="1193" d="M160 993q0 200 133.5 310t359.5 110h252l-223 -1413h-209l113 707h-99q-145 0 -236 74t-91 212zM797 0l223 1413h209l-223 -1413h-209z" />
<glyph unicode="&#xb7;" horiz-adv-x="505" d="M131 500l45 282h283l-45 -282h-283z" />
<glyph unicode="&#xb8;" horiz-adv-x="587" d="M-27 -401l15 116q44 -22 112 -22q117 0 117 69q0 32 -38 48t-128 16l-4 10l131 182h144l-82 -118q166 -14 166 -133q0 -90 -73.5 -143.5t-205.5 -53.5q-96 0 -154 29z" />
<glyph unicode="&#xb9;" horiz-adv-x="714" d="M127 565l29 172h182l74 471l-156 -57l-41 154l283 108h153l-106 -676h174l-27 -172h-565z" />
<glyph unicode="&#xba;" horiz-adv-x="765" d="M160 1010q0 132 54.5 228t141.5 141.5t195 45.5q124 0 202 -71t78 -203q0 -100 -31.5 -180t-85.5 -131t-124 -78t-150 -27q-124 0 -202 71.5t-78 203.5zM365 1018q0 -119 100 -119q69 0 115.5 65t46.5 177q0 121 -101 121q-69 0 -115 -65.5t-46 -178.5z" />
<glyph unicode="&#xbb;" horiz-adv-x="821" d="M18 242l238 344l-131 336h186l187 -338l-289 -342h-191zM344 242l238 344l-131 336h186l188 -338l-290 -342h-191z" />
<glyph unicode="&#xbc;" horiz-adv-x="1875" d="M125 565l29 172h182l74 471l-156 -57l-41 154l283 108h153l-106 -676h174l-27 -172h-565zM401 0l1086 1413h252l-1086 -1413h-252zM1192 199l20 137l449 512h168l-78 -492h78l-25 -157h-78l-32 -199h-195l33 199h-340zM1391 356h165l39 248h-4z" />
<glyph unicode="&#xbd;" horiz-adv-x="1875" d="M123 565l29 172h182l74 471l-156 -57l-41 154l283 108h153l-106 -676h174l-27 -172h-565zM346 0l1086 1413h251l-1085 -1413h-252zM1184 0l20 135l246 209q91 79 131.5 132t40.5 118q0 42 -23.5 68t-74.5 26q-94 0 -178 -78l-66 133q136 119 313 119q114 0 179 -60.5 t65 -166.5q0 -107 -60.5 -193t-166.5 -168l-115 -96v-4h277l-29 -174h-559z" />
<glyph unicode="&#xbe;" horiz-adv-x="1875" d="M115 643l78 152q60 -76 163 -76q62 0 99 29t37 75q0 95 -168 95h-41l22 147h45q85 0 140 30t55 89q0 36 -25 56t-74 20q-88 0 -174 -64l-51 135q129 96 291 96q119 0 181.5 -51t62.5 -147q0 -92 -58 -151.5t-143 -80.5v-4q143 -36 143 -186q0 -119 -89 -187.5t-238 -68.5 q-158 0 -256 92zM379 0l1085 1413h252l-1085 -1413h-252zM1190 199l20 137l449 512h168l-78 -492h78l-25 -157h-78l-32 -199h-195l33 199h-340zM1389 356h165l39 248h-4z" />
<glyph unicode="&#xbf;" horiz-adv-x="823" d="M-51 -131q0 74 24 137.5t63 107.5t85.5 82.5t93 71t85.5 64t63 69.5t24 80q0 55 -45 119v4h248q53 -74 53 -162q0 -58 -30 -109t-75 -87t-97.5 -74.5l-97.5 -71.5t-75 -77.5t-30 -92.5q0 -125 149 -125q134 0 250 93l76 -191q-181 -135 -416 -135q-172 0 -260 77.5 t-88 219.5zM360 731l43 279h283l-43 -279h-283z" />
<glyph unicode="&#xc0;" horiz-adv-x="1382" d="M-39 0l750 1413h290l302 -1413h-295l-70 383h-489l-189 -383h-299zM524 1737v4h295l168 -250h-229zM543 578h364l-96 546h-4z" />
<glyph unicode="&#xc1;" horiz-adv-x="1382" d="M-39 0l750 1413h290l302 -1413h-295l-70 383h-489l-189 -383h-299zM543 578h364l-96 546h-4zM745 1491l246 250h301v-4l-309 -246h-238z" />
<glyph unicode="&#xc2;" horiz-adv-x="1382" d="M-39 0l750 1413h290l302 -1413h-295l-70 383h-489l-189 -383h-299zM543 578h364l-96 546h-4zM553 1491l215 248h272l140 -248h-189l-100 127h-4l-142 -127h-192z" />
<glyph unicode="&#xc3;" horiz-adv-x="1382" d="M-39 0l750 1413h290l302 -1413h-295l-70 383h-489l-189 -383h-299zM543 578h364l-96 546h-4zM549 1497q28 236 209 236q48 0 98.5 -22t93.5 -44t74 -22q33 0 48.5 18.5t21.5 58.5h129q-15 -118 -65.5 -177.5t-143.5 -59.5q-48 0 -98.5 22t-93.5 44t-74 22 q-34 0 -50 -18.5t-22 -57.5h-127z" />
<glyph unicode="&#xc4;" horiz-adv-x="1382" d="M-39 0l750 1413h290l302 -1413h-295l-70 383h-489l-189 -383h-299zM543 578h364l-96 546h-4zM580 1507l32 219h228l-33 -219h-227zM946 1507l35 219h225l-32 -219h-228z" />
<glyph unicode="&#xc5;" horiz-adv-x="1382" d="M-39 0l750 1413h290l302 -1413h-295l-70 383h-489l-189 -383h-299zM543 578h364l-96 546h-4zM688 1634q0 92 67 145.5t165 53.5q79 0 128.5 -40.5t49.5 -109.5q0 -92 -67 -145t-165 -53q-80 0 -129 40t-49 109zM813 1647q0 -52 70 -52q40 0 65 20t25 56q0 51 -70 51 q-40 0 -65 -19.5t-25 -55.5z" />
<glyph unicode="&#xc6;" horiz-adv-x="1900" d="M-39 0l752 1413h1263l-39 -242h-634l-54 -331h576l-37 -230h-576l-57 -362h653l-39 -248h-935l59 381h-436l-191 -381h-305zM553 584h371l94 587h-172z" />
<glyph unicode="&#xc7;" horiz-adv-x="1267" d="M113 590q0 166 47 307t127.5 239t187 167.5t225.5 102t244 32.5q241 0 410 -111l-90 -229q-124 96 -314 96q-111 0 -208 -36.5t-173.5 -107.5t-121 -187.5t-44.5 -264.5q0 -193 94.5 -282t272.5 -89q198 0 350 97l62 -224q-170 -116 -432 -125l-54 -75q166 -14 166 -133 q0 -91 -73 -144t-205 -53q-96 0 -154 29l14 116q44 -22 113 -22q117 0 117 69q0 32 -38 48t-128 16l-4 10l104 146q-233 27 -364 177t-131 431z" />
<glyph unicode="&#xc8;" horiz-adv-x="1142" d="M74 0l223 1413h924l-39 -242h-637l-53 -331h573l-35 -230h-575l-58 -362h656l-41 -248h-938zM424 1737v4h295l168 -250h-230z" />
<glyph unicode="&#xc9;" horiz-adv-x="1142" d="M74 0l223 1413h924l-39 -242h-637l-53 -331h573l-35 -230h-575l-58 -362h656l-41 -248h-938zM643 1491l246 250h301v-4l-309 -246h-238z" />
<glyph unicode="&#xca;" horiz-adv-x="1142" d="M74 0l223 1413h924l-39 -242h-637l-53 -331h573l-35 -230h-575l-58 -362h656l-41 -248h-938zM453 1491l215 248h272l139 -248h-188l-100 127h-5l-141 -127h-192z" />
<glyph unicode="&#xcb;" horiz-adv-x="1142" d="M74 0l223 1413h924l-39 -242h-637l-53 -331h573l-35 -230h-575l-58 -362h656l-41 -248h-938zM479 1507l33 219h227l-32 -219h-228zM846 1507l35 219h225l-33 -219h-227z" />
<glyph unicode="&#xcc;" horiz-adv-x="575" d="M88 0l223 1413h283l-223 -1413h-283zM123 1737v4h295l168 -250h-230z" />
<glyph unicode="&#xcd;" horiz-adv-x="575" d="M88 0l223 1413h283l-223 -1413h-283zM344 1491l246 250h301v-4l-309 -246h-238z" />
<glyph unicode="&#xce;" horiz-adv-x="575" d="M88 0l223 1413h283l-223 -1413h-283zM154 1491l215 248h272l139 -248h-188l-100 127h-5l-141 -127h-192z" />
<glyph unicode="&#xcf;" horiz-adv-x="575" d="M88 0l223 1413h283l-223 -1413h-283zM178 1507l33 219h227l-32 -219h-228zM545 1507l35 219h225l-33 -219h-227z" />
<glyph unicode="&#xd0;" horiz-adv-x="1507" d="M74 608l35 228h149l92 577h426q365 0 553.5 -143.5t188.5 -450.5q0 -395 -247.5 -607t-705.5 -212h-438l96 608h-149zM451 248h165q293 0 454 143t161 412q0 366 -457 366h-178l-53 -333h334l-37 -228h-332z" />
<glyph unicode="&#xd1;" horiz-adv-x="1441" d="M74 0l223 1413h252l495 -921h3l147 921h283l-224 -1413h-254l-493 922h-4l-146 -922h-282zM567 1497q28 236 209 236q48 0 98.5 -22t93.5 -44t74 -22q33 0 48.5 18.5t21.5 58.5h129q-15 -118 -65.5 -177.5t-143.5 -59.5q-48 0 -98.5 22t-93.5 44t-74 22q-34 0 -50 -18.5 t-22 -57.5h-127z" />
<glyph unicode="&#xd2;" horiz-adv-x="1501" d="M115 582q0 201 61.5 364.5t169.5 270t251.5 164t309.5 57.5q273 0 430.5 -156t157.5 -451q0 -201 -62 -364.5t-169.5 -270t-251.5 -164t-310 -57.5q-273 0 -430 156t-157 451zM401 588q0 -178 86.5 -269.5t243.5 -91.5q210 0 344.5 163.5t134.5 438.5q0 179 -85.5 271 t-243.5 92q-210 0 -345 -164.5t-135 -439.5zM575 1751v4h295l168 -250h-229z" />
<glyph unicode="&#xd3;" horiz-adv-x="1501" d="M115 582q0 201 61.5 364.5t169.5 270t251.5 164t309.5 57.5q273 0 430.5 -156t157.5 -451q0 -201 -62 -364.5t-169.5 -270t-251.5 -164t-310 -57.5q-273 0 -430 156t-157 451zM401 588q0 -178 86.5 -269.5t243.5 -91.5q210 0 344.5 163.5t134.5 438.5q0 179 -85.5 271 t-243.5 92q-210 0 -345 -164.5t-135 -439.5zM797 1505l245 250h301v-4l-309 -246h-237z" />
<glyph unicode="&#xd4;" horiz-adv-x="1501" d="M115 582q0 201 61.5 364.5t169.5 270t251.5 164t309.5 57.5q273 0 430.5 -156t157.5 -451q0 -201 -62 -364.5t-169.5 -270t-251.5 -164t-310 -57.5q-273 0 -430 156t-157 451zM401 588q0 -178 86.5 -269.5t243.5 -91.5q210 0 344.5 163.5t134.5 438.5q0 179 -85.5 271 t-243.5 92q-210 0 -345 -164.5t-135 -439.5zM606 1505l215 248h273l139 -248h-189l-100 127h-4l-141 -127h-193z" />
<glyph unicode="&#xd5;" horiz-adv-x="1501" d="M115 582q0 201 61.5 364.5t169.5 270t251.5 164t309.5 57.5q273 0 430.5 -156t157.5 -451q0 -201 -62 -364.5t-169.5 -270t-251.5 -164t-310 -57.5q-273 0 -430 156t-157 451zM401 588q0 -178 86.5 -269.5t243.5 -91.5q210 0 344.5 163.5t134.5 438.5q0 179 -85.5 271 t-243.5 92q-210 0 -345 -164.5t-135 -439.5zM600 1511q28 236 209 236q48 0 98.5 -22t93.5 -44t74 -22q32 0 48 19t22 59h129q-15 -119 -65.5 -178.5t-143.5 -59.5q-48 0 -98.5 22t-93.5 44t-74 22q-34 0 -50 -18.5t-22 -57.5h-127z" />
<glyph unicode="&#xd6;" horiz-adv-x="1501" d="M115 582q0 201 61.5 364.5t169.5 270t251.5 164t309.5 57.5q273 0 430.5 -156t157.5 -451q0 -201 -62 -364.5t-169.5 -270t-251.5 -164t-310 -57.5q-273 0 -430 156t-157 451zM401 588q0 -178 86.5 -269.5t243.5 -91.5q210 0 344.5 163.5t134.5 438.5q0 179 -85.5 271 t-243.5 92q-210 0 -345 -164.5t-135 -439.5zM633 1522l33 219h227l-33 -219h-227zM999 1522l35 219h226l-33 -219h-228z" />
<glyph unicode="&#xd7;" horiz-adv-x="1112" d="M135 365l307 276l-219 274l180 154l218 -274l311 276l135 -158l-311 -276l221 -275l-178 -153l-221 274l-308 -274z" />
<glyph unicode="&#xd8;" horiz-adv-x="1503" d="M61 -25l175 195q-121 152 -121 410q0 202 62.5 366t171 270.5t253 164t311.5 57.5q220 0 363 -101l90 101h182l-174 -195q121 -152 121 -409q0 -201 -62.5 -365t-171 -271t-253.5 -165t-312 -58q-220 0 -360 101l-90 -101h-185zM395 586q0 -120 37 -195l664 744 q-81 63 -215 63q-210 0 -348 -167t-138 -445zM518 281q83 -62 213 -62q211 0 348.5 166.5t137.5 443.5q0 116 -35 197z" />
<glyph unicode="&#xd9;" horiz-adv-x="1439" d="M150 444q0 107 24 252l113 717h284l-112 -717q-23 -141 -23 -213q0 -132 66.5 -194t197.5 -62q168 0 260.5 99t124.5 311l123 776h275l-121 -778q-52 -328 -222 -494t-474 -166q-257 0 -386.5 115t-129.5 354zM547 1737v4h295l168 -250h-230z" />
<glyph unicode="&#xda;" horiz-adv-x="1439" d="M150 444q0 107 24 252l113 717h284l-112 -717q-23 -141 -23 -213q0 -132 66.5 -194t197.5 -62q168 0 260.5 99t124.5 311l123 776h275l-121 -778q-52 -328 -222 -494t-474 -166q-257 0 -386.5 115t-129.5 354zM768 1491l246 250h301v-4l-309 -246h-238z" />
<glyph unicode="&#xdb;" horiz-adv-x="1439" d="M150 444q0 107 24 252l113 717h284l-112 -717q-23 -141 -23 -213q0 -132 66.5 -194t197.5 -62q168 0 260.5 99t124.5 311l123 776h275l-121 -778q-52 -328 -222 -494t-474 -166q-257 0 -386.5 115t-129.5 354zM578 1491l215 248h272l139 -248h-188l-101 127h-4l-141 -127 h-192z" />
<glyph unicode="&#xdc;" horiz-adv-x="1439" d="M150 444q0 107 24 252l113 717h284l-112 -717q-23 -141 -23 -213q0 -132 66.5 -194t197.5 -62q168 0 260.5 99t124.5 311l123 776h275l-121 -778q-52 -328 -222 -494t-474 -166q-257 0 -386.5 115t-129.5 354zM604 1507l33 219h227l-33 -219h-227zM971 1507l35 219h225 l-33 -219h-227z" />
<glyph unicode="&#xdd;" horiz-adv-x="1294" d="M174 1413h309l226 -637h4l428 637h313l-643 -901l-80 -512h-285l82 512zM694 1491l246 250h301v-4l-309 -246h-238z" />
<glyph unicode="&#xde;" horiz-adv-x="1245" d="M74 0l223 1413h285l-29 -174h166q273 0 410 -107.5t137 -310.5q0 -178 -89 -304t-243 -186.5t-361 -60.5h-172l-43 -270h-284zM436 502h162q180 0 280.5 72.5t100.5 224.5q0 99 -71.5 149.5t-227.5 50.5h-164z" />
<glyph unicode="&#xdf;" horiz-adv-x="1282" d="M59 0l162 1020q19 120 69 210t122 143.5t157.5 79.5t184.5 26q170 0 268 -81.5t98 -215.5q0 -69 -26.5 -129t-64.5 -100.5t-76 -75t-64.5 -69t-26.5 -67.5q0 -40 30 -66t130 -77q105 -51 158 -119t53 -178q0 -143 -115.5 -234.5t-310.5 -91.5q-68 0 -125 10.5t-99 30 t-63 32t-47 32.5l86 209q110 -94 246 -94q83 0 123.5 25t40.5 67q0 44 -30.5 74t-123.5 75q-53 26 -86.5 47.5t-64 52.5t-44.5 71t-14 93q0 61 27 115t65 92.5t76 73.5t65 74.5t27 79.5q0 56 -34.5 88t-102.5 32q-91 0 -154.5 -59t-85.5 -192l-159 -1004h-271z" />
<glyph unicode="&#xe0;" d="M80 406q0 143 43 264t114.5 199t163 121.5t189.5 43.5q182 0 260 -133h4l20 109h254l-157 -1010h-258l18 129h-4q-110 -154 -311 -154q-157 0 -246.5 111t-89.5 320zM299 1403v4h299l176 -287h-227zM354 418q0 -107 45.5 -160t126.5 -53q42 0 79.5 10.5t67 31t43 32 t32.5 30.5l63 408q-47 92 -176 92q-119 0 -200 -106.5t-81 -284.5z" />
<glyph unicode="&#xe1;" d="M80 406q0 143 43 264t114.5 199t163 121.5t189.5 43.5q182 0 260 -133h4l20 109h254l-157 -1010h-258l18 129h-4q-110 -154 -311 -154q-157 0 -246.5 111t-89.5 320zM354 418q0 -107 45.5 -160t126.5 -53q42 0 79.5 10.5t67 31t43 32t32.5 30.5l63 408q-47 92 -176 92 q-119 0 -200 -106.5t-81 -284.5zM539 1120l268 287h305l-2 -4l-336 -283h-235z" />
<glyph unicode="&#xe2;" d="M80 406q0 143 43 264t114.5 199t163 121.5t189.5 43.5q182 0 260 -133h4l20 109h254l-157 -1010h-258l18 129h-4q-110 -154 -311 -154q-157 0 -246.5 111t-89.5 320zM332 1116l229 291h289l137 -291h-186l-113 154h-4l-162 -154h-190zM354 418q0 -107 45.5 -160 t126.5 -53q42 0 79.5 10.5t67 31t43 32t32.5 30.5l63 408q-47 92 -176 92q-119 0 -200 -106.5t-81 -284.5z" />
<glyph unicode="&#xe3;" d="M80 406q0 143 43 264t114.5 199t163 121.5t189.5 43.5q182 0 260 -133h4l20 109h254l-157 -1010h-258l18 129h-4q-110 -154 -311 -154q-157 0 -246.5 111t-89.5 320zM340 1133q25 258 213 258q52 0 100 -25.5t88 -50.5t72 -25q61 0 80 86h127q-25 -258 -213 -258 q-41 0 -81 16t-65.5 34.5t-56.5 34.5t-57 16q-34 0 -52 -21t-26 -65h-129zM354 418q0 -107 45.5 -160t126.5 -53q42 0 79.5 10.5t67 31t43 32t32.5 30.5l63 408q-47 92 -176 92q-119 0 -200 -106.5t-81 -284.5z" />
<glyph unicode="&#xe4;" d="M80 406q0 143 43 264t114.5 199t163 121.5t189.5 43.5q182 0 260 -133h4l20 109h254l-157 -1010h-258l18 129h-4q-110 -154 -311 -154q-157 0 -246.5 111t-89.5 320zM354 418q0 -107 45.5 -160t126.5 -53q42 0 79.5 10.5t67 31t43 32t32.5 30.5l63 408q-47 92 -176 92 q-119 0 -200 -106.5t-81 -284.5zM377 1149l35 231h225l-37 -231h-223zM727 1149l37 231h223l-37 -231h-223z" />
<glyph unicode="&#xe5;" d="M80 406q0 143 43 264t114.5 199t163 121.5t189.5 43.5q182 0 260 -133h4l20 109h254l-157 -1010h-258l18 129h-4q-110 -154 -311 -154q-157 0 -246.5 111t-89.5 320zM354 418q0 -107 45.5 -160t126.5 -53q42 0 79.5 10.5t67 31t43 32t32.5 30.5l63 408q-47 92 -176 92 q-119 0 -200 -106.5t-81 -284.5zM477 1262q0 99 67 156t165 57q86 0 136 -43t50 -115q0 -99 -67 -156t-166 -57q-85 0 -135 42.5t-50 115.5zM604 1278q0 -29 19 -45t53 -16q39 0 64.5 22.5t25.5 60.5q0 60 -70 60q-39 0 -65.5 -22.5t-26.5 -59.5z" />
<glyph unicode="&#xe6;" horiz-adv-x="1658" d="M80 406q0 144 43 265t114.5 199t163 121t189.5 43q182 0 260 -133h4l20 109h197l-20 -121h4q130 145 327 145q124 0 197.5 -68.5t73.5 -191.5q0 -169 -121 -258.5t-365 -89.5h-147q1 -118 54.5 -172.5t160.5 -54.5q143 0 254 82l63 -189q-19 -16 -43.5 -32t-70.5 -37.5 t-115 -34.5t-149 -13q-261 0 -353 183h-4q-150 -183 -381 -183q-165 0 -260.5 109t-95.5 322zM354 420q0 -109 49 -162t134 -53q146 0 239 117q-4 46 -4 73q0 82 12 150l27 172q-47 92 -176 92q-120 0 -200.5 -105t-80.5 -284zM1038 592h123q144 0 204 34.5t60 102.5 q0 45 -29 69.5t-85 24.5q-93 0 -167 -61.5t-106 -169.5z" />
<glyph unicode="&#xe7;" horiz-adv-x="933" d="M74 416q0 123 35 226t93.5 174.5t137 121t165 73t177.5 23.5q180 0 293 -80l-82 -204q-80 59 -195 59q-152 0 -249 -97t-97 -276q0 -119 58.5 -175t164.5 -56q127 0 218 59l57 -203q-106 -75 -289 -84l-53 -77q166 -14 166 -133q0 -90 -73.5 -143.5t-205.5 -53.5 q-95 0 -153 29l14 116q44 -22 113 -22q116 0 116 69q0 32 -38 48t-128 16l-4 10l105 146q-160 24 -253 134t-93 300z" />
<glyph unicode="&#xe8;" horiz-adv-x="972" d="M74 403q0 149 48 271t129 199t183.5 119t214.5 42q147 0 231.5 -71.5t84.5 -194.5q0 -342 -486 -342h-147q1 -119 53.5 -173t161.5 -54q153 0 252 84l65 -191q-18 -16 -43.5 -32t-71 -37.5t-114.5 -34.5t-148 -13q-197 0 -305 108.5t-108 319.5zM264 1403v4h299l176 -287 h-227zM350 592h125q143 0 202.5 34.5t59.5 102.5q0 45 -29 69.5t-85 24.5q-93 0 -167 -61.5t-106 -169.5z" />
<glyph unicode="&#xe9;" horiz-adv-x="972" d="M74 403q0 149 48 271t129 199t183.5 119t214.5 42q147 0 231.5 -71.5t84.5 -194.5q0 -342 -486 -342h-147q1 -119 53.5 -173t161.5 -54q153 0 252 84l65 -191q-18 -16 -43.5 -32t-71 -37.5t-114.5 -34.5t-148 -13q-197 0 -305 108.5t-108 319.5zM350 592h125 q143 0 202.5 34.5t59.5 102.5q0 45 -29 69.5t-85 24.5q-93 0 -167 -61.5t-106 -169.5zM504 1120l268 287h305l-2 -4l-336 -283h-235z" />
<glyph unicode="&#xea;" horiz-adv-x="972" d="M74 403q0 149 48 271t129 199t183.5 119t214.5 42q147 0 231.5 -71.5t84.5 -194.5q0 -342 -486 -342h-147q1 -119 53.5 -173t161.5 -54q153 0 252 84l65 -191q-18 -16 -43.5 -32t-71 -37.5t-114.5 -34.5t-148 -13q-197 0 -305 108.5t-108 319.5zM297 1116l229 291h289 l137 -291h-186l-113 154h-4l-162 -154h-190zM350 592h125q143 0 202.5 34.5t59.5 102.5q0 45 -29 69.5t-85 24.5q-93 0 -167 -61.5t-106 -169.5z" />
<glyph unicode="&#xeb;" horiz-adv-x="972" d="M74 403q0 149 48 271t129 199t183.5 119t214.5 42q147 0 231.5 -71.5t84.5 -194.5q0 -342 -486 -342h-147q1 -119 53.5 -173t161.5 -54q153 0 252 84l65 -191q-18 -16 -43.5 -32t-71 -37.5t-114.5 -34.5t-148 -13q-197 0 -305 108.5t-108 319.5zM342 1149l35 231h225 l-37 -231h-223zM350 592h125q143 0 202.5 34.5t59.5 102.5q0 45 -29 69.5t-85 24.5q-93 0 -167 -61.5t-106 -169.5zM692 1149l37 231h223l-37 -231h-223z" />
<glyph unicode="&#xec;" horiz-adv-x="514" d="M14 1403v4h299l176 -287h-227zM63 0l160 1010h273l-160 -1010h-273z" />
<glyph unicode="&#xed;" horiz-adv-x="514" d="M63 0l160 1010h273l-160 -1010h-273zM254 1120l268 287h305l-2 -4l-336 -283h-235z" />
<glyph unicode="&#xee;" horiz-adv-x="514" d="M45 1116l229 291h289l137 -291h-186l-113 154h-4l-161 -154h-191zM63 0l160 1010h273l-160 -1010h-273z" />
<glyph unicode="&#xef;" horiz-adv-x="514" d="M63 0l160 1010h273l-160 -1010h-273zM90 1149l35 231h225l-37 -231h-223zM440 1149l37 231h223l-36 -231h-224z" />
<glyph unicode="&#xf0;" horiz-adv-x="1107" d="M78 414q0 140 44 254t115.5 183.5t155.5 106.5t170 37q164 0 232 -106h6q-44 176 -180 272l-304 -137l-38 100l223 103q-76 32 -197 53l92 199q219 -32 375 -131l289 131l39 -101l-232 -104q215 -202 215 -561q0 -339 -166 -538.5t-432 -199.5q-187 0 -297 111t-110 328z M348 410q0 -101 46 -153t124 -52q116 0 200.5 106.5t84.5 278.5q0 100 -49.5 150.5t-132.5 50.5q-114 0 -193.5 -98t-79.5 -283z" />
<glyph unicode="&#xf1;" horiz-adv-x="1142" d="M53 0l160 1010h258l-20 -123h4q141 147 338 147q134 0 209 -76t75 -221q0 -79 -24 -223l-80 -514h-273l82 516q17 97 17 143q0 150 -133 150q-115 0 -230 -109l-110 -700h-273zM362 1133q25 258 213 258q52 0 100 -25.5t88.5 -50.5t72.5 -25q33 0 51.5 21.5t27.5 64.5 h127q-25 -258 -213 -258q-41 0 -81 16t-65.5 34.5t-56.5 34.5t-57 16q-34 0 -51.5 -21t-25.5 -65h-130z" />
<glyph unicode="&#xf2;" horiz-adv-x="1105" d="M76 403q0 151 46 272.5t125.5 199t183 118.5t222.5 41q185 0 302.5 -112t117.5 -318q0 -150 -45.5 -271t-125 -198.5t-183.5 -118.5t-223 -41q-186 0 -303 111.5t-117 316.5zM293 1403v4h299l176 -287h-227zM350 410q0 -101 45.5 -153t128.5 -52q115 0 195 108t80 289 q0 103 -45.5 155t-128.5 52q-115 0 -195 -108.5t-80 -290.5z" />
<glyph unicode="&#xf3;" horiz-adv-x="1105" d="M76 403q0 151 46 272.5t125.5 199t183 118.5t222.5 41q185 0 302.5 -112t117.5 -318q0 -150 -45.5 -271t-125 -198.5t-183.5 -118.5t-223 -41q-186 0 -303 111.5t-117 316.5zM350 410q0 -101 45.5 -153t128.5 -52q115 0 195 108t80 289q0 103 -45.5 155t-128.5 52 q-115 0 -195 -108.5t-80 -290.5zM532 1120l269 287h305l-2 -4l-336 -283h-236z" />
<glyph unicode="&#xf4;" horiz-adv-x="1105" d="M76 403q0 151 46 272.5t125.5 199t183 118.5t222.5 41q185 0 302.5 -112t117.5 -318q0 -150 -45.5 -271t-125 -198.5t-183.5 -118.5t-223 -41q-186 0 -303 111.5t-117 316.5zM326 1116l229 291h289l137 -291h-186l-113 154h-4l-162 -154h-190zM350 410q0 -101 45.5 -153 t128.5 -52q115 0 195 108t80 289q0 103 -45.5 155t-128.5 52q-115 0 -195 -108.5t-80 -290.5z" />
<glyph unicode="&#xf5;" horiz-adv-x="1105" d="M76 403q0 151 46 272.5t125.5 199t183 118.5t222.5 41q185 0 302.5 -112t117.5 -318q0 -150 -45.5 -271t-125 -198.5t-183.5 -118.5t-223 -41q-186 0 -303 111.5t-117 316.5zM334 1133q25 258 213 258q52 0 100 -25.5t88 -50.5t72 -25q61 0 80 86h127q-25 -258 -213 -258 q-41 0 -81 16t-65.5 34.5t-56.5 34.5t-57 16q-34 0 -52 -21t-26 -65h-129zM350 410q0 -101 45.5 -153t128.5 -52q115 0 195 108t80 289q0 103 -45.5 155t-128.5 52q-115 0 -195 -108.5t-80 -290.5z" />
<glyph unicode="&#xf6;" horiz-adv-x="1105" d="M76 403q0 151 46 272.5t125.5 199t183 118.5t222.5 41q185 0 302.5 -112t117.5 -318q0 -150 -45.5 -271t-125 -198.5t-183.5 -118.5t-223 -41q-186 0 -303 111.5t-117 316.5zM350 410q0 -101 45.5 -153t128.5 -52q115 0 195 108t80 289q0 103 -45.5 155t-128.5 52 q-115 0 -195 -108.5t-80 -290.5zM371 1149l35 231h225l-37 -231h-223zM721 1149l37 231h223l-37 -231h-223z" />
<glyph unicode="&#xf7;" horiz-adv-x="1112" d="M127 530l35 220h911l-35 -220h-911zM422 289q0 59 39 94t100 35q51 0 82 -29t31 -80q0 -59 -39 -95t-100 -36q-52 0 -82.5 29.5t-30.5 81.5zM530 969q0 60 39.5 95.5t100.5 35.5q51 0 81.5 -30t30.5 -81q0 -59 -39 -94t-100 -35q-51 0 -82 29t-31 80z" />
<glyph unicode="&#xf8;" horiz-adv-x="1103" d="M16 -25l140 154q-80 107 -80 272q0 151 46 273t125.5 199.5t183 119t222.5 41.5q154 0 258 -73l68 73h154l-140 -153q80 -107 80 -275q0 -150 -45.5 -271.5t-125 -199t-184 -119t-224.5 -41.5q-150 0 -256 74l-68 -74h-154zM334 408q0 -43 8 -74l408 446q-45 39 -121 39 q-123 0 -209 -111t-86 -300zM401 229q45 -36 119 -36q123 0 209 110.5t86 298.5q0 47 -8 74z" />
<glyph unicode="&#xf9;" d="M109 272q0 70 22 224l82 514h272l-82 -514q-16 -91 -16 -144q0 -76 33 -111.5t102 -35.5q120 0 226 106l110 699h270l-157 -1010h-258l18 123h-4q-136 -148 -336 -148q-131 0 -206.5 75.5t-75.5 221.5zM315 1403v4h299l177 -287h-228z" />
<glyph unicode="&#xfa;" d="M109 272q0 70 22 224l82 514h272l-82 -514q-16 -91 -16 -144q0 -76 33 -111.5t102 -35.5q120 0 226 106l110 699h270l-157 -1010h-258l18 123h-4q-136 -148 -336 -148q-131 0 -206.5 75.5t-75.5 221.5zM553 1120l268 287h305l-2 -4l-336 -283h-235z" />
<glyph unicode="&#xfb;" d="M109 272q0 70 22 224l82 514h272l-82 -514q-16 -91 -16 -144q0 -76 33 -111.5t102 -35.5q120 0 226 106l110 699h270l-157 -1010h-258l18 123h-4q-136 -148 -336 -148q-131 0 -206.5 75.5t-75.5 221.5zM346 1116l229 291h289l137 -291h-186l-113 154h-4l-161 -154h-191z " />
<glyph unicode="&#xfc;" d="M109 272q0 70 22 224l82 514h272l-82 -514q-16 -91 -16 -144q0 -76 33 -111.5t102 -35.5q120 0 226 106l110 699h270l-157 -1010h-258l18 123h-4q-136 -148 -336 -148q-131 0 -206.5 75.5t-75.5 221.5zM391 1149l35 231h225l-37 -231h-223zM741 1149l37 231h223l-36 -231 h-224z" />
<glyph unicode="&#xfd;" horiz-adv-x="1052" d="M-78 -422l27 232q106 2 182 31t126 80t93 134l-231 955h282l127 -658h4l324 658h283l-496 -916q-69 -125 -124 -207t-117 -145.5t-131 -97t-153 -50t-196 -16.5zM510 1120l268 287h305l-2 -4l-336 -283h-235z" />
<glyph unicode="&#xfe;" d="M-6 -410l295 1864h272l-88 -567h4q129 147 305 147q152 0 237 -107t85 -317q0 -283 -140.5 -459t-357.5 -176q-57 0 -105 13.5t-77 35.5t-45.5 40t-26.5 36h-4l-82 -510h-272zM379 299q17 -33 61 -63.5t111 -30.5q122 0 200 104t78 287q0 213 -170 213q-120 0 -219 -111z " />
<glyph unicode="&#xff;" horiz-adv-x="1052" d="M-78 -422l27 232q106 2 182 31t126 80t93 134l-231 955h282l127 -658h4l324 658h283l-496 -916q-69 -125 -124 -207t-117 -145.5t-131 -97t-153 -50t-196 -16.5zM348 1149l35 231h225l-37 -231h-223zM698 1149l37 231h223l-36 -231h-224z" />
<glyph unicode="&#x152;" horiz-adv-x="2050" d="M115 586q0 164 43 302.5t120 239t183 171t233 105t269 34.5q139 0 256 -25h907l-39 -242h-637l-53 -331h573l-35 -230h-575l-57 -362h655l-41 -248h-920q-127 -25 -258 -25q-296 0 -460 152t-164 459zM401 594q0 -375 394 -375q122 0 223 27l145 923q-77 25 -205 25 q-122 0 -223 -38t-176 -111.5t-116.5 -189t-41.5 -261.5z" />
<glyph unicode="&#x153;" horiz-adv-x="1677" d="M76 403q0 148 45 269t122 199.5t177.5 120.5t214.5 42q250 0 330 -209h4q62 93 162.5 151t240.5 58q141 0 220 -72t79 -192q0 -167 -120 -255.5t-365 -88.5h-148q1 -119 53.5 -173t161.5 -54q141 0 252 82l64 -187q-17 -16 -42 -32.5t-70 -38t-112.5 -35t-144.5 -13.5 q-249 0 -328 201h-4q-136 -201 -387 -201q-184 0 -294.5 111t-110.5 317zM350 410q0 -101 45.5 -153t128.5 -52q115 0 195 108t80 289q0 101 -44.5 153t-127.5 52q-115 0 -196 -108t-81 -289zM1057 592h125q143 0 202.5 34.5t59.5 102.5q0 45 -30 69.5t-85 24.5 q-93 0 -166.5 -61.5t-105.5 -169.5z" />
<glyph unicode="&#x178;" horiz-adv-x="1294" d="M174 1413h309l226 -637h4l428 637h313l-643 -901l-80 -512h-285l82 512zM528 1507l33 219h227l-32 -219h-228zM895 1507l35 219h225l-33 -219h-227z" />
<glyph unicode="&#x2c6;" horiz-adv-x="819" d="M201 1116l229 291h289l137 -291h-186l-113 154h-4l-162 -154h-190z" />
<glyph unicode="&#x2dc;" horiz-adv-x="825" d="M213 1133q25 258 213 258q52 0 100 -25.5t88 -50.5t72 -25q61 0 80 86h127q-25 -258 -213 -258q-41 0 -81 16t-65.5 34.5t-56.5 34.5t-57 16q-34 0 -52 -21t-26 -65h-129z" />
<glyph unicode="&#x2000;" horiz-adv-x="916" />
<glyph unicode="&#x2001;" horiz-adv-x="1833" />
<glyph unicode="&#x2002;" horiz-adv-x="916" />
<glyph unicode="&#x2003;" horiz-adv-x="1833" />
<glyph unicode="&#x2004;" horiz-adv-x="611" />
<glyph unicode="&#x2005;" horiz-adv-x="458" />
<glyph unicode="&#x2006;" horiz-adv-x="305" />
<glyph unicode="&#x2007;" horiz-adv-x="305" />
<glyph unicode="&#x2008;" horiz-adv-x="229" />
<glyph unicode="&#x2009;" horiz-adv-x="366" />
<glyph unicode="&#x200a;" horiz-adv-x="101" />
<glyph unicode="&#x2010;" horiz-adv-x="643" d="M86 498l37 223h510l-37 -223h-510z" />
<glyph unicode="&#x2011;" horiz-adv-x="643" d="M86 498l37 223h510l-37 -223h-510z" />
<glyph unicode="&#x2012;" horiz-adv-x="643" d="M86 498l37 223h510l-37 -223h-510z" />
<glyph unicode="&#x2013;" horiz-adv-x="1112" d="M111 528l34 224h945l-35 -224h-944z" />
<glyph unicode="&#x2014;" horiz-adv-x="1628" d="M100 528l37 224h1477l-37 -224h-1477z" />
<glyph unicode="&#x2018;" horiz-adv-x="450" d="M174 895l29 176q16 102 44 170t71.5 107.5t97.5 57t131 19.5l6 -104q-80 -3 -123.5 -42t-56.5 -128h102l-41 -256h-260z" />
<glyph unicode="&#x2019;" horiz-adv-x="450" d="M150 987q80 3 123.5 42t56.5 128h-103l41 256h260l-28 -176q-16 -102 -44 -170t-71.5 -107.5t-97.5 -57t-131 -19.5z" />
<glyph unicode="&#x201a;" horiz-adv-x="450" d="M-31 -170q80 3 124 42t57 128h-103l41 256h260l-29 -176q-16 -102 -44 -170t-71.5 -107.5t-97.5 -57t-131 -19.5z" />
<glyph unicode="&#x201c;" horiz-adv-x="821" d="M174 895l29 176q16 102 44 170t71.5 107.5t97.5 57t131 19.5l6 -104q-80 -3 -123.5 -42t-56.5 -128h102l-41 -256h-260zM543 895l28 176q16 102 44 170t71.5 107.5t97.5 57t131 19.5l7 -104q-80 -3 -124 -42t-57 -128h103l-41 -256h-260z" />
<glyph unicode="&#x201d;" horiz-adv-x="821" d="M150 987q80 3 123.5 42t56.5 128h-103l41 256h260l-28 -176q-16 -102 -44 -170t-71.5 -107.5t-97.5 -57t-131 -19.5zM520 987q80 3 123.5 42t56.5 128h-102l41 256h260l-29 -176q-16 -102 -44 -170t-71.5 -107.5t-97.5 -57t-131 -19.5z" />
<glyph unicode="&#x201e;" horiz-adv-x="821" d="M-31 -170q80 3 124 42t57 128h-103l41 256h260l-29 -176q-16 -102 -44 -170t-71.5 -107.5t-97.5 -57t-131 -19.5zM340 -170q80 3 123.5 42t56.5 128h-102l41 256h260l-29 -176q-16 -102 -44 -170t-71.5 -107.5t-97.5 -57t-131 -19.5z" />
<glyph unicode="&#x2022;" horiz-adv-x="831" d="M123 627q0 142 95 236.5t239 94.5q142 0 238 -95t96 -236t-96 -237.5t-238 -96.5q-144 0 -239 96t-95 238z" />
<glyph unicode="&#x2026;" horiz-adv-x="1783" d="M106 0l44 283h282l-43 -283h-283zM694 0l43 283h283l-45 -283h-281zM1280 0l45 283h281l-43 -283h-283z" />
<glyph unicode="&#x202f;" horiz-adv-x="366" />
<glyph unicode="&#x2039;" horiz-adv-x="507" d="M63 582l291 342h205l-237 -344l129 -336h-201z" />
<glyph unicode="&#x203a;" horiz-adv-x="507" d="M16 242l238 344l-129 336h201l186 -338l-291 -342h-205z" />
<glyph unicode="&#x205f;" horiz-adv-x="458" />
<glyph unicode="&#x20ac;" horiz-adv-x="1142" d="M82 500l24 149h117q6 61 15 115h-115l24 151h127q82 250 263 386.5t401 136.5q183 0 295 -90l-90 -215q-88 65 -205 65q-122 0 -219.5 -72.5t-153.5 -210.5h471l-24 -151h-492q-12 -74 -14 -115h487l-22 -149h-467q9 -150 73.5 -216.5t186.5 -66.5q136 0 235 70l37 -209 q-124 -103 -340 -103q-215 0 -341.5 127.5t-135.5 397.5h-137z" />
<glyph unicode="&#x2122;" horiz-adv-x="1904" d="M180 1247l25 166h751l-26 -166h-279l-108 -682h-193l107 682h-277zM903 565l133 848h217l148 -606h4l338 606h221l-133 -848h-186l79 504h-2l-282 -504h-152l-117 504h-4l-82 -504h-182z" />
<glyph unicode="&#x25fc;" horiz-adv-x="1013" d="M0 0v1014h1014v-1014h-1014z" />
</font>
</defs>
</svg>
