<svg class="nok-icon %s" height="16" width="16" fill="currentColor" xmlns="http://www.w3.org/2000/svg" viewBox="0 0 16 16"><path d="M7.22201 9.72191c-.06254-.0617-.13008-.11757-.18178-.18929-.1034-.14092-.14759-.30018-.1601-.47362v-.86304h-.55785v-.271c0-.00084.01168-.01251.01251-.01251h1.3967v.2835h-.55034v.87138c0 .01918.01668.08756.02252.1109.03169.11841.10673.23098.2018.30686.00583.02335-.15594.1943-.16595.23682h-.01667ZM.00251 8.21263c.02167-.1676.19094-.30018.35438-.30018h.66708c.00084 0 .01251.01167.01251.0125v.2043H.34021c-.01084 0-.06504.03002-.07504.04169-.07255.07755-.03002.21347.07504.22597.17511.02085.4086-.04002.57036.03836.23515.1134.26516.44695.0542.60204s-.1209.06838-.15676.06838H.06087v-.2168h.72129c.0075 0 .06087-.03752.0692-.04753.07672-.08839.01001-.21514-.10256-.22764-.19262-.02168-.44278.05336-.60704-.06838-.06588-.04836-.12842-.15093-.13926-.23181s-.00333-.07755 0-.10006ZM12.05002 6.2781c.01584.00167.13258.03335.13842.0417l-.02251.10006c-.01668.01417-.17761-.06671-.22348.00583s.12925.14092.18512.18012c.10673.07337.11257.24598.005.31936s-.24181.03502-.33938-.0075l.02335-.10507c.0642.01751.24015.07755.26433-.01417.03753-.14343-.24515-.12842-.271-.28351s.05003-.20263.17344-.23599c.02168.00167.04586-.0025.06671 0ZM4.30436 9.6552h-.99563c-.61455-.0492-.9606-.64373-.73712-1.21076.31936-.80883 1.57265-.77048 1.71273.13426.01084.07087.01668.15843.01918.23097.01084.28101-.00834.56536 0 .84637Zm-.3002-.2835c-.02667-.3644.11175-.92309-.26766-1.14573-.51032-.29935-1.10986.24015-.90807.79133.06921.19012.29019.3544.49615.3544zm11.8891-1.17574h-1.01313c-.08839 0-.18178.10506-.19345.19011-.02085.15343.09506.24099.23515.25183.19929.015.4186-.01584.61705 0 .39525.03085.60288.51782.35022.82551-.07088.08673-.22681.1918-.34188.1918h-1.07984v-.28352h1.04648c.02585 0 .1009-.04253.12091-.06254.13342-.13008.05837-.36773-.12925-.38774-.35689-.03836-.87137.13091-1.06733-.28351-.1476-.31186.07421-.72545.42527-.72545h1.0173c.00083 0 .0125.01167.0125.0125zm-7.35542-.32187c.75964-.06754 1.2858.73296.88388 1.39253-.37773.61956-1.31249.5662-1.61434-.09089-.2585-.56118.11174-1.2466.73046-1.3008Zm-.34522 1.36168c.29602.29519.79717.22264.99896-.14175.27434-.49448-.18845-1.07484-.7313-.91474-.45694.13508-.6062.71795-.26766 1.05566Zm4.54117-1.3225v.8964c.02085.35856.25016.62956.62956.59537.24516-.02168.47947-.28517.47947-.5295v-.95059c0-.00083.01167-.0125.0125-.0125h.28769v.97144c-.13759 1.18657-1.76194 1.02564-1.7094-.1576.0225-.24682-.02836-.54284 0-.78466.00083-.00834.00416-.02835.01334-.02835h.28768ZM6.31395 9.6552h-.3002v-.94642c0-.02168-.0175-.09173-.02417-.11758-.15093-.60704-.98479-.56285-1.07568.08589-.02084.32437-.00416.6529-.00917.97811h-.30019c.01168-.29518-.015-.60204 0-.8964.0592-1.1799 1.62519-1.17406 1.7094-.04085v.93809Zm5.18574 0h-.29185c-.01-.27934.01334-.56785 0-.84636-.01334-.27267-.1159-.54284-.40192-.62372-.4236-.12008-.69377.20179-.71545.59787-.01584.28518.01251.58453 0 .87138H9.7903c.00833-.27517-.01084-.55535 0-.82969.00667-.16677.02668-.32353.09922-.47613.29102-.61121 1.15656-.64624 1.4901-.05253s.12091.527.12008.82135c0 .17927.00083.35855 0 .53783m.61705-1.74192v1.74276h-.29185V7.92579c0-.00084.01167-.01251.0125-.01251zm-10.08047 0v.2168h-.35022v.36273c0 .01918.01668.08005.02252.10256.02752.09423.08338.1651.15176.23265-.01751.02418-.1134.16593-.13008.16844-.04086.00667-.17595-.17845-.19596-.21847-.02835-.05504-.07338-.19262-.07338-.25183v-.39608h-.33354v-.2043c0-.00083.01168-.0125.0125-.0125zm7.21201-1.6135c.00834-.02586.12341-.00835.1476.0025.06587.03001.12007.2268.16093.28934l.04169.11257v-.41693c.02001.0025.12508-.00917.12508.01251v.65458h-.14176l-.20846-.45862v.45862h-.12508zm.85887-.01252v.26267c0 .00083.01167.0125.0125.0125h.21264v-.26266c0-.01751.11174-.01918.12174-.005l.0025.6454c-.00833.02668-.09839.00834-.12424.01334v-.2835h-.22514v.2835h-.12508v-.65374c0-.02168.10507-.01.12508-.0125m.72545 0v.43777c0 .00667.01335.0567.01751.06587.04837.0959.20096.07088.21597-.0492.01668-.13508-.01334-.30185.00084-.4411.00834-.02669.0984-.00834.12424-.01335v.4878c0 .08256-.1109.17428-.19012.18512-.39108.0542-.2785-.41526-.29351-.65207.0075-.0392.09505-.01418.12507-.02085m-2.7267.26684c.02251-.0025.05337.0075.07088-.00834.03335-.02919.08255-.22681.1159-.251s.08923-.0025.12175-.0075c.01667.01585-.11674.24349-.11674.27934s.03001.03503.04002.05087c.05587.08922.07588.23681.1184.33604h-.12924c-.03419-.0467-.06838-.25266-.09756-.28184s-.08339.00334-.11507-.00167v.271c0 .02169-.10507.01001-.12508.01251v-.6579h.11674zm-1.64186.29185h.29185v.1084h-.42944c-.01667 0-.01417-.08089-.01667-.10007l.27934-.45028h-.2585l-.00834-.11674h.40442c.01418.01835.02502.07839.01918.10173l-.28184.45612Zm1.2833-.44195h-.22097c-.0417 0-.0417.13008-.03752.15843H7.739v.1084h-.25015v.12091c0 .02002.03419.0542.0542.0542h.21263c-.00333.02252.00834.0934-.0075.10507-.13842.00417-.3669.04336-.38441-.1501-.0075-.08588-.00917-.27433 0-.35855.01167-.1059.09923-.14676.19595-.15426s.13509-.00584.16678 0 .01417.08505.02084.11674Zm1.25912-.11674V6.404h-.21263c-.04586 0-.0592.15843-.03335.15843h.23764v.1084h-.23764c-.02252 0-.02335.17512.04169.17512h.21263c-.00333.02334.00834.09339-.0075.10506-.1134 0-.31103.04086-.36607-.09422-.02835-.07005-.02835-.37774-.00417-.45112.01752-.0542.05337-.08422.1059-.10173s.06088-.01584.06755-.01584h.19595Zm-2.02626 0h.12507v.66709H6.9802zm4.5862 0v.66709h-.12508v-.65458c0-.02168.10506-.01.12508-.0125"/></svg>