<svg class="nok-icon %s" height="16" width="16" fill="currentColor" xmlns="http://www.w3.org/2000/svg" viewBox="0 0 16 16"><path d="M14.98406 7.1397c0 .03025-.0173.07349.03026.06052s.25074-.15564.281-.13402L16 8.35882v.04323c-.25074-.02594-.5404-.19454-.77817-.22912s.03026.08214.00865.10375c-.04756 0-.08646-.02161-.13402-.02161-.13402-.00433-.62686-.02162-.72197.00432s-.15563.1686-.15563.19022c0 .0389.09079.06917.0951.0735.02162.0389-.16427.29397-.20318.3372s-.02594.0389-.06052.03026c-.00865-.00865 0-.1686-.05188-.14266s-.13834.1686-.14699.1859c-.01297.04322.18157.21615.20751.2248.0735.03026-.02594-.19455.02162-.20752l1.06782.88625-.9338-.13402c-.04323-.03026-.02162-.38476-.13402-.38476h-.5404c-.02161 0-.03026.04323-.02593.06917.00864.05188.22048.4107.20318.428-.30262-.09944-.59227-.30263-.88624-.40638-.1297-.04756-.06917.00865-.09944.0173-.06484.01296-.08646-.0346-.1124-.04324l.09511-.08214c.02594.12537.03891.04755.09511 0 .02162.00865.13402.05188.14699.04323l.02161-.06052.00865.08214c.04323-.0562.10808-.09511.15563-.14267.03891.01297.01297.09511.02162.10376s.26804-.00865.31127 0c.03026-.03026-.12537-.25074-.12537-.31127.08214-.07782.18157-.15996.25074-.22913l.1859.12538c.01729-.02162-.0346-.23345-.06053-.26804l.20751-.20751c.04756.06485.04756.1513.0735.2248s.00432.06053.03026.03026c.02594-.06052.15995-.18157.16428-.22912s-.12537-.09079-.14267-.15131c.05188-.05188.09511-.12537.16428-.16428.00433.00432.1124.07781.11673.08214.04755.01297.33288-.23345.31559-.24642-.0735.00432-.14699-.05188-.20751-.06053.03458-.04323.04755-.05187.02161-.10375s-.08214-.06917-.08214-.12537l.5793.02161v-.47555c-.22912.07782-.44528.2248-.66144.32856s-.03026-.00432-.04323 0l-.05188-.06052-.0951.12537h-.10376c-.0173-.03458-.02594-.0735-.04323-.10375.06052-.02594.12105-.04756.1859-.06053s.04322-.03026.07349-.03458c.08214-.0173.15995.0562.2075-.08647zm.14266.99432-.25939-.31127L14.66847 8l.45393.13402Zm.03459.02161v.02162c.01297-.00865.01297-.01297 0-.02162m-.90354 1.1759-.14699-.12537c.00865.12537.0173.13834.14699.12537m-1.67739.06053-.5404.3934c0-.01729.01298-.2075-.04322-.14266l-.04323.19454.08214-.00865c.01297.19455.02161.38477.04323.5793h-.02162l-.5793-.70467c.00865 0 .03026.00865.0389 0 .03027-.13401.08215-.25939.12538-.38908.06917 0 .3545.06485.37179.11672s-.0173.12105.02594.1297l.08214-.35018c.0173.0173.3934.16428.45393.1859ZM4.78573 8.09079l.58795-.86896c.19022-.19454.60957-.21616.8387-.09078s.14698.13401.17292.12969.1859-.12105.24642-.14699c.32856-.12537.83437-.08646.99865.27669s.0562.13834.0562.1513V8.8949h-.60092V7.74926c0-.00433-.04323-.08214-.0562-.09511-.1124-.10808-.4842-.06917-.4842.0735v1.16724h-.62253V7.72764c0-.11672-.23345-.14699-.31991-.13402s-.21616.09079-.21616.15564v1.14563h-.60092v-.74358l-.60092.70467V7.74926c0-.15996-.30262-.1859-.41934-.1297s-.11673.10376-.11673.1297v1.14563h-.60092V7.77087c0-.00864-.03026-.06917-.04323-.08214-.12105-.17292-.51878-.0951-.51878.08214V8.8949H1.8849V7.09646h.54039c.00865 0-.00432.12537 0 .14266l.27236-.1513c.2983-.0908.57498-.02594.81275.1686.3156-.28965.98568-.31127 1.21049.09943s.06484.13834.06484.15996v.56633ZM1.5131 6.37882v.51445H.64415v.47555h.70467v.51878H.64415v.49284h.99433v.51878H0v-2.5204zm8.20535 2.1486c.01297.0173-.14266.34586-.1686.38044-.0562.06917-.20319.0173-.27236-.01297s-.14266-.11672-.15563-.11672c-.0173 0-.18157.1124-.23777.1297-.4842.15995-1.05918-.11673-.93813-.68739.08646-.42367.63118-.45825.98136-.47987 0-.39773-.5966-.21183-.83005-.12537-.0173-.14699-.04755-.30262-.0389-.4496.10807-.05189.2248-.08215.34585-.09944.43231-.06485 1.02458.02594 1.09808.54904s-.06053.73061.08646.86463.12105.04756.12537.05188Zm-.7652-.41502c-.00864-.00864-.2421.0173-.27235.02594-.35018.0735-.22913.51013.10375.3718s.18158-.22481.17293-.39774Zm1.24507-.3934.12538-.35018-.62254.04323-.10375-1.32288 1.00297.70035.04323-.06053.05188.12537c-.03026-.02161-.06053-.05187-.10376-.0389-.0173.07781-.25506.51013-.22913.53607l.5577-.04323c.01296-.01297-.13835-.29398-.15564-.33289s-.00432-.05188-.00865-.06052l.10376.03026-.39341-.60957c.22048.0562.44096.11673.65712.18158s.11673.0562.15131.06917l.04323.24642s-.01297.04755-.02161.06052-.02162 0-.02162.00865c0 .01297.01297.00864.02162.00864s.03026-.00432.0389 0 0 .04324 0 .06053c-.07349-.00432-.09943.20751-.12537.22913l-.26803-.16428c-.01297.01297.12537.22048.14266.23345.02594.02161.06053.01297.06485.01297.02161.01729-.02162.0389-.02162.04323-.02594-.02594-.1859-.03026-.1859-.00865l.08215.19454c.04755-.03458.08214-.1124.10375-.16428.03459 0 .10808.1859.147.14267l.08213-.32856c.04323-.00433.00865.0735.02162.08214s.13401-.00865.16428-.02162c-.04324.281-.08647.56634-.12538.84734-.0562-.01297-.09943.01297-.14698.02162s-.01297 0-.02162 0l-.11672-.31127-.6701.06485.04324-.05188.43664-.21616c-.25075.0389-.50149.09079-.7479.14266Zm.85599-.16429c.0173.03891.04755.18158.0735.19455s.28964.02161.28964-.02162-.31559-.14266-.36314-.17725Zm-.2983.60092c.05188.04324.03891.05188.06917.08214s.23345.2421.25507.24642c.03458.00433.1124-.09078.13402-.12104h.04323c.02594.01296.06485.0562.10375.06052v.10376l.12538.00864-.12538.05188c.0562.0389.12538.05188.1859.08214l-.42367.02161c-.0562.00865.09079.11673.12537.12538.11673.02161.24642-.02162.36315-.02162s.0562-.00865.06052.00865l-.20751.19454c-.0562 0-.15131.0951-.19887.13402s-.00432.03026-.00864.03458c-.00865.00433-.04323 0-.06053.00865s-.07781.06917-.08214.0735c-.01297.0216.0173.05187.0173.0562 0 .00864-.04756.07781-.04324.08213.03459.0173.06918-.01729.08214-.02161s.03027 0 .04324 0c.04323.1297.19886.19886.22912.32856-.28965.04755-.6355.01729-.9338.04323l.57498-.4842c0-.01729-.1297-.1686-.15563-.17292-.0562-.00865-.30262.1859-.38044.1513l-.56201-.5793 1.03756.00865c-.03026-.08646-.4669-.37179-.47555-.40205s-.00865-.0562.01297-.05188c.0389-.00864.19887.01297.19454-.06052Z"/><path d="m14.36152 6.46096.02162-.32856.43664.04323c-.02162.0562-.12537.1124-.14699.15563s0 .03891.03026.03026l1.17158-.37179-.89057.68306v-.03026c-.02162-.05188-.09079.06917-.10376.10375l.10376-.03026c.00432.10376 0 .20751 0 .31127l.25074.00865-.25074.0951v-.08213c-.1124.01297-.26804 0-.3718.02161l.08215-.13402-.14267.0735c-.02161-.0173-.11672-.32856-.16428-.3718l.20751-.22912c-.07781.00864-.1513.0389-.22912.06052Zm.48852.30694v.02162c.01297-.00865.01297-.01297 0-.02162m-3.4715-.1859c-.12969-.10375-.3372-.13401-.47122-.22048s-.0389 0-.02594-.04755c.31992-.04756.65712-.20751.96839-.26371s.08214-.02162.09943.03458l.23778-.26803v.66144c.11672 0 .22048-.0389.33288-.06053l-.14699.1859.14699.02162c-.06052.00864-.1297.01297-.1859.02161-.00864-.03026-.1297-.12105-.14698-.10375v.12537c-.02162 0-.05188.0173-.08214.02161l-.147-.5793c-.16427.14267-.28532.32856-.42798.49284s-.04756.02162-.05188.02162c-.0389.00864-.08214-.03459-.10376-.04324Zm1.94543-.32855c.0389-.00865.23777-.03459.24642-.04324.02161-.02161-.03891-.1513-.0173-.18157s.50581-.23345.5793-.27236c.03027.03026-.39772.61389-.3545.73494 0 .03458.28966-.00865.3329-.00865-.0908.14699-.16429.3156-.25075.46258s-.02594.00865-.06053.0951 0 .06486-.06052.06053c-.01297-.02594-.02594-.0562-.04323-.08214s-.01297-.04755-.02162-.06052c.08647-.02162 0-.1124-.04323-.13402s-.0173.01297-.02162.01297h-.02161v-.04323c.04323-.05188.1513-.2248.16428-.281s-.04756-.00865-.03026-.05188c-.03459.03458-.06917.03458-.1124.0389s-.01297 0-.02162 0l-.02162-.26803c-.06484.05188-.18157.16428-.16428.24642h-.10375c-.01297-.07782.01297-.15131.02161-.22913-.24642.05188-.49716.09511-.7479.14267l.8041-.79979c-.01729.22048-.03026.44096-.05187.66145m.44528.70035v.02161c.01297-.00864.01297-.01297 0-.02161m-3.57093.7652c.24642-.0562.49717-.10808.74791-.14267l-.43664.21616-.04323.05188.67009-.06485.11672.31127c-.06052.01297-.37611.06052-.3934.0951.11672.0562.23345.12105.35017.17726-.02161.03026-.09943.12969-.13401.12104s-.21616-.21183-.25507-.24642-.0173-.0389-.06917-.08214-.0735-.0562-.10376-.08214c-.04323-.04323-.18157-.21183-.22048-.2248s-.10375.05188-.1297.06052-.05187 0-.06052 0c-.07349-.02161-.13401-.09078-.08214-.16428.00865 0 .02162-.01729.04323-.02161Z"/><path d="M13.32397 6.25345c-.00865.07349-.03459.14698-.02162.22912-.26371.04323-.5231.09943-.78681.14267l-.147-.02162.147-.1859c.02161-.00432.04323-.01729.06052-.02161.24642-.04756.49716-.09079.7479-.14266M11.4607 9.00297c.06917 0 .1859.0735.26803.06053v.02161c-.0173.06053-.04323.12537-.06052.1859s-.01297.02594-.02162.04323c-.04323.1297-.0951.25507-.12537.38908-.00865.00865-.02594 0-.0389 0h-.04324c-.03026-.1297-.1859-.20318-.22913-.32856.13402-.02161.26372-.0562.39341-.08214l-.35018-.12537s0-.02594.00865-.03458c.04756-.03891.14267-.13402.19887-.13402Zm-.7652-2.1486c.03026.0216.04323.02593.06052.06052s0 .0389.00865.06052c.0173.03459.1686.31992.15563.33289l-.55769.04323c-.02593-.02594.21184-.45826.22913-.53607.04323-.00865.0735.01729.10376.0389m3.91678.2032c.10808-.0173.25939-.00433.37179-.02162v.10375l-.54904.20751c-.04756.14267-.12537.0735-.20751.08647s-.05188.03026-.0735.03458l-.06052-.12537c.10808-.01297.19454-.03026.28965-.08214s.10808-.12105.1859-.1859.01296-.01729.04323-.02161Zm-.49717-.57931c.02162-.03459.0562-.10376.09511-.10376 0 .03459.02594.0735.03027.10376s.01297.08214.02161.12537 0 .04323 0 .06052c-.06917.03459-.35017.25507-.37179.30263-.03026.08214.14699.06484.14266.1513-.04323.00433-.07781.0173-.10375.02162s-.03026 0-.04323 0c.00432-.0562-.02594-.09943-.08214-.10375.03026-.08647.03026-.04756.06052-.09511.08646-.14699.15996-.3156.25074-.46258m-3.46284 1.59524c-.11673-.03026-.26372-.09078-.35018-.16428.03026-.00864.0735-.07349.1297-.06052s.17724.18157.22048.2248m.72629-1.49149c.02161.00433.06484.04756.10375.04324v.04323c-.06052.03458-.09078.10375-.13402.15995s-.03026.00433-.03458.00865l-.04323-.24642c.02594.00865.0735-.00865.10375 0ZM10.1551 7.74061c-.04755.07782.00865.14266.08214.16428-.00864.0389-.17292.11673-.1859.10376-.00864-.03891.07782-.16428.06053-.1859s-.12105-.02162-.12537-.06052c.05188-.0173.12105-.00865.16428-.02162Zm4.20643-1.27965c.07782-.02162.15131-.05188.22913-.06053l-.20751.22913h-.04323v-.14699c.00432 0 .01297-.01729.02161-.02161"/><path d="M14.3399 6.47825V6.582l-.08213.02162c-.00865-.04323-.01297-.08646-.02162-.12537.03026 0 .0735.00432.10376 0m.64415.22913-.10376.03026c.01297-.03026.08214-.15564.10376-.10376zm.92083-.74359c.01297.00865.01297.01297 0 .02162zm-.5058 2.68468-.25075.88625-.50581-.72197c-.03459.02162-.04756.1124-.08646.12105s-.24642-.1124-.25507-.13402l.25074-.12537-.2075-.31991 1.05484.28965Zm-.68307-.01729c-.06917.0173-.1513.02594-.12105.10808.04756.13402.09944-.04323.12105-.10808m-1.9065.67874c-.05189.04755-.06918.12537-.09512 0l-.0951.08214h-.04324c-.06052-.02162-.43664-.1686-.45393-.1859s.04755-.04755-.08214-.02162c-.02162-.07781.0735-.02161.09943-.04323s.02594-.13401.02162-.16428c.22048.09079.42367.23345.64415.32856Zm-.76953.51877-.08214.00865.04323-.19454c.05188-.06485.0389.12537.04323.14266s0 .02594 0 .04323Z"/><path d="M11.93623 7.39044c.09079.17292.17725.34585.26804.51445s.02594.0562.04323.08214 0 .0173 0 .02162c-.0389.03458-.1297.04755-.16428.07349s-.0389.08214-.0735.1124c-.07781.07782-.2075.09943-.13401.24642-.10808.00433-.21616.05188-.32856.04323l-.01297.06053c.13402-.03026.25074-.04323.38476-.08214s.06053-.03026.10376-.02162c.03458.06053-.04756.23345-.03891.25507.01297.05188.32423.07781.34585-.08647s-.0735-.13834.0562-.1513.10808.08213.1686.09943c.1297.0389.28101-.02162.32424-.01297s.0735.11672.15564.09943v.06052c-.01297.08647-.03027.18158-.04324.26804s-.03026.17725-.04323.26804c.0173-.00865.06053-.0173.06485-.03459.01297-.04755.00865-.1686.02162-.23345s.03026-.17725.04323-.26804.04755-.2075.02161-.32856 0-.04323 0-.06052h.04323v-.04323c.12105.0173.25075-.03459.3718-.04323.01296-.01297-.12538-.30695-.147-.35018.24643-.0389.17293.2594.2594.33288s.10375-.02161.13402 0 .02593.1686.02161.2032l.16428-.02162c-.00865.00864-.01297.03458-.02161.04323l-.20752.20751c-.06484.06485-.0951.11673-.12537.14266-.06917.06917-.1686.147-.25074.22913l-.20751.20751c-.06917.06917-.1124.09079-.15564.14267l-.00864-.08214-.02162.06052c-.00864.00865-.12105-.03026-.14699-.04323-.21615-.09511-.41934-.2421-.64415-.32856h-.04323c-.01729-.05188-.0735-.04755-.10375-.06052-.0562-.03027-.10376-.04324-.14699-.06053s-.0562-.03026-.08214-.04323c-.0389-.0173-.09079-.0562-.14699-.08214s-.06484-.04323-.10375-.06052c-.06053-.03027-.1297-.04324-.1859-.08214l.12537-.05188-.12537-.00865v-.10375c.01297-.1124.04756-.23345.06053-.35018.0389-.281.08214-.56633.12537-.84734.02161-.14266.03026-.29397.07349-.43231.09943.20318.21616.39773.31991.60092Z"/><path d="M13.49257 6.60362c.03026.0562.07782.13402.10376.1859s0 .03026 0 .04323c-.1124.04755-.1297.21616-.147.32856l.24643-.14267c.01297.02594.02594.0562.04323.08214.02162.03891.0562.06917.06052.08214.03459.06485.06485.15131.10376.22913s.04323.08214.06052.12537.02594.06917.04324.10376c.03458.06917.07349.13834.10375.20751s.06485.10808.08214.14266.0173.06917.02162.08214-.02594.0562 0 .08214c-.06917.03891-.1124.1124-.16428.16428s-.07782.0562-.10376.08214l-.16428.02162c0-.0389 0-.19022-.02161-.20319s-.09511.03459-.13402 0c-.08214-.0735-.01297-.37179-.2594-.33288-.03025-.06485-.0951-.1297-.10375-.20751.13834.0389.38044.16428.51878.22912s.20751.1297.31991.16428c.04324-.03026.00865-.03458-.01729-.04755-.07781-.04756-.19454-.10376-.28533-.12105-.01297-.03458-.04755-.04323-.07349-.06052-.27668-.15131-.57498-.27236-.85598-.41503s-.0562-.01729-.06053-.02161c-.03458-.0173-.09943-.09079-.14266-.1124 0-.0173.2075-.18158.22912-.23778s0-.0173 0-.02161h.02162c-.01297.0562.0389.04755.0735.0389.0951-.02593.08646-.10375.12537-.16428s.07349-.12104.1124-.1859c.06052-.09942.14698-.10807.2075-.2075.03892.01729.04324.05188.06053.08214Zm.80843.97271c.21616-.10808.43664-.25507.66144-.32856v.47555l-.5793-.02162c0 .0562.06052.07782.08214.12537l-.22913-.08214.12537-.02161-.06052-.14267Z"/><path d="M14.02864 7.1224h.12537c0 .06485.14699.09943.20751.12537s.0173.01297.02162.02162c-.09511.05187-.18157.06917-.28965.08214l.06052.12537c-.06484.0173-.12537.03458-.1859.06052-.0216-.0389-.04322-.08214-.06052-.12537.04323-.04323.10808-.04323.16428-.04323.03026-.02594-.13402-.1859-.14698-.22913.02593 0 .06052-.0173.10375-.02161Zm.27236.45393.06052.14266-.12537.02162.22913.08214c.02594.05188.0173.06052-.02162.10376h-.10375c-.04323-.06053-.15564-.07782-.22913-.08214-.03026-.06917-.06917-.13834-.10375-.20752h.10375c.12105 0 .08214-.03026.14699-.06052s.03026.00432.04323 0m-.95542 1.44393c0 .0562.15564.28101.12537.31127-.04323-.00864-.2983.01297-.31126 0s.01729-.09078-.02162-.10375z"/><path d="M15.12672 8.13402 14.6728 8l.19887-.17725zm-1.07646.1859c.01729.06052.14698.09943.14266.1513s-.13834.17293-.16428.22913c-.02594.02594-.02594-.01297-.03026-.03026-.02594-.0735-.02594-.16428-.0735-.2248.00865-.00865.01297-.03459.02162-.04324.02594-.02594.07782-.0562.10376-.08214m.2075-.74358c-.06052.03026-.02593.06485-.14698.06052l.09511-.12537.05188.06053Zm0 1.7552c-.12969.0173-.13833 0-.14698-.12537zm-2.15292-2.64577c-.14267.02594-.28965.0562-.43664.06052 0 .02162 0 .04324.00864.06485.04756.13834.2248.428.30263.5793h-.04324c-.10375-.19886-.22048-.3934-.31991-.60091-.0389.14266-.05188.28965-.0735.43231-.03026.01297-.15563.03459-.16427.02162s.02161-.08647-.02162-.08214l-.08214.32856c-.03458.0389-.10808-.14267-.14699-.14267v-.0216c0-.00865.04323-.02162.02162-.04323s-.0389.00864-.06485-.01297-.15563-.22048-.14266-.23345l.26803.16428c.02594-.02162.05188-.23345.12537-.22913.0562.21183.06485-.00865.0908-.04323s.06052-.02162.0951-.02162c-.05188-.0951-.03026-.1297-.02594-.22048s-.01297-.02594-.01297-.02594V6.6166c0-.00432.03459 0 .05188-.02162.14266-.16428.26371-.3545.428-.49284l.14698.5793Zm-.73926.41502v.02162c.01297-.00865.01297-.01297 0-.02162"/><path d="M11.25317 8.09079h.02162c-.02162.0562.04323.11672.04323.15563s-.06485.06485-.06052.1124h-.04323c-.12105-.05188-.23345-.12105-.35018-.17725.0173-.03458.33288-.08214.3934-.0951Zm.22913-1.42232s.01297.00864.01297.02594c0 .09078-.02161.12537.02594.22048-.03026 0-.06917-.00865-.0951.02161s-.03892.25507-.0908.04324.00865-.04756 0-.06053-.03026 0-.0389 0V6.8976c.00864-.0173.01729-.06053.02161-.06053s.02594 0 .03459-.00865c.04323-.05187.0735-.12104.13402-.15995Z"/><path d="M11.41745 8.0735c-.01729.11672-.04755.23777-.06052.35017-.0389-.00432-.07782-.05188-.10376-.06052-.00432-.04756.06053-.06918.06053-.1124s-.06053-.09944-.04323-.15564c.04323-.00865.09078-.03459.14698-.02162m-.12104-1.1586c-.00865 0-.0173 0-.02162-.00865 0-.01297.02162-.00864.02162-.00864v.02161Zm.49716 1.90219c0 .08646-.0389.1686-.06052.24642-.08214.01297-.2032-.0562-.26804-.06053l.20751-.19454c-.00432-.02162-.04323-.00865-.06052-.00865l.04323-.06052c.05188.02594.10808.06485.14699.08214Zm-.5404.35017.35018.12537c-.1297.03027-.25939.06053-.3934.08214s-.03027 0-.04324 0c0-.03026-.01297-.05187-.04323-.06052 0-.00432-.03026-.0389-.0173-.0562s.0735-.06917.08215-.0735c.01729-.01296.05188-.00432.06052-.00864Z"/><path d="M11.54283 8.67009c.0389.0173.07349.04755.10375.06052l-.04323.06053c-.11672 0-.24642.04323-.36314.02161s-.17725-.11672-.12538-.12537l.42367-.02161Zm-.3718.70467c-.01296 0-.04755.03459-.08214.02162-.00864-.00432.03891-.0735.04324-.08214.03026.00865.04323.03026.04323.06052Zm3.67901-2.60686c.01297.00865.01297.01297 0 .02162zm-1.46123-.28965c-.0389.06917-.1124.13402-.1686.19454s-.0173.04756-.02162.05188c-.00864.00432-.01296.01297-.02161.02161l-.02162.02162-.02161.02162-.02162.02161-.02161.02162s-.03459.0173-.06053.04323c-.07781.06917-.09943.08214-.14699.16428s0 .01297 0 .02162c-.04755-.00865-.06484.01729-.0951.0389-.1297.10376-.2421.25507-.36315.3718s-.04323.04323-.06052.06052l-.06053.06052c-.0173.0173-.14266.13834-.16428.12537-.04323-.1124-.10808-.22048-.16428-.32855s-.25074-.43664-.30262-.5793-.01297-.03892-.00865-.06486c.147-.00432.28966-.0389.43664-.06052s.06053-.0173.08214-.02162c.04756-.00864.09944-.01296.147-.02161s.12536-.01297.18589-.02162c.2637-.04323.52742-.09943.78681-.14266s.0562 0 .08214 0Zm-.1686.25074c-.0389.06917-.06052.1124-.1124.1859s-.03026.13834-.12537.16428-.08647.01729-.0735-.03891c.06053-.03459.09944-.09511.147-.14266s.03458-.05188.04322-.06053l.02162-.02161.02161-.02162.02162-.02162.02162-.02161.02161-.02162h.02162Zm.37612.10376h.02161c0 .05188.04323.08646.06053.12537s.00864.0389.02161.06052l-.24642.14267c.0173-.11673.03026-.28533.14699-.32856Zm.02161-.33289c.04323 0 .08214-.00864.1124-.0389-.01729.04323.03459.04323.03027.05187-.01297.0562-.12105.22913-.16428.28101-.02594-.05188-.0735-.1297-.10376-.1859.0562-.00864.12105-.0389.12537-.10375Z"/><path d="M13.59633 6.49986h.02161c0 .06485-.06917.09511-.12537.10376-.0173-.03026-.02594-.06485-.06052-.08214v-.02162c.0389.00865.12537 0 .16428 0m.28965.63983c-.04756.00865-.09511-.02594-.08214.04323-.00433-.01297-.04323-.04323-.06053-.08214.06053 0 .04756-.02594.06053-.06052.06052 0 .08646.04755.08214.10376Zm-.7479-.35017c.00431-.00865.01296-.01297.0216-.02162zm.04322-.03891c.00865-.00433.01297-.01297.02162-.02162zm-.08214.08214c.00433-.00865.01297-.01297.02162-.02162zm0 0c-.00864.00864-.01297.03026-.04323.06052l-.02161-.02161c.02593-.02594.06052-.03891.06052-.04324Zm.0173-.02162c.00432-.00864.01296-.01297.02161-.02161zm.04323-.04323.02161-.02162c-.00432.00865-.01297.01297-.02161.02162m.26803-.26804v.02162c-.06052.09943-.14699.10808-.2075.20751h-.02163c0-.00432.00433-.03458.02162-.05188.05188-.06484.1297-.12537.1686-.19454h.02162c0 .0173.00865.0173.02162.02162Zm.34153.45394c.01297.00864.01297.01297 0 .02161zm-1.75088 1.9627-.15563.1859c.06917-.0389.18157-.11672.25939-.12537s.02594 0 .04323 0c0 .03027-.01297.15564-.02162.16428-.02593.02162-.12104-.03458-.09943.04323-.12537.02594-.24642.0735-.37179.08214.02162-.06052.04323-.12537.06053-.1859.04755 0 .04755.04756.06052-.00864s.02594-.15995.08214-.21616c.0389.02162.08646.03027.14699.06053Zm2.2394-2.24803c.01297.0562.06917.39773.08646.4107s.18157-.00433.2248 0c-.07781.06485-.06917.12105-.18589.1859-.00432-.00865-.01297-.0173-.02162-.02162.00865-.21616-.07349-.13402-.2075-.12537s-.08647 0-.12538 0c.00432-.08647-.17293-.06917-.14266-.15131s.30262-.26804.37179-.30263Z"/><path d="M13.88598 7.1397h.04323c.01297.04322.17725.19886.14699.22912-.0562 0-.12105 0-.16428.04323-.03891-.07782-.06917-.16428-.10376-.22913-.01297-.06917.03459-.03458.08214-.04323Zm.45393-.51446h.02161l-.00864.02161c-.01297 0-.00865-.01297-.00865-.02161Zm.37611 2.00594c-.02161.06917-.0735.2421-.12105.10808s.05188-.09079.12105-.10808m-2.40367-.5404.08214.16429c.02594.05187.0173.07349.04323.10375-.09943.02594-.21616.02162-.31127.04323s-.04755.02594-.08214.05188c.03459.04756.07782-.03026.08214-.03026.14267 0 .18157-.02162.31127-.04323s.04323 0 .06052 0c.1859-.02594.41935-.08214.60092-.06053v.06053h-.04323c-.00865.00864-.01297.21616-.02161.26803-.08647.0173-.12538-.09078-.15564-.09943s-.19886.05188-.32424.01297-.03458-.10808-.1686-.09943-.04755.07781-.0562.1513c-.02594.16429-.3372.13835-.34585.08647s.0735-.19454.0389-.25506c-.04322-.00865-.06916.00864-.10375.02161-.00432-.0173-.02594-.02161-.04323-.02161-.06917-.147.0562-.1686.13402-.24642s.0389-.0908.0735-.1124.12536-.03892.16427-.0735c.0173.03026.05188.06052.06052.08214Zm.9511-.4107c.00864.07782.07349.14267.10375.20752s.15995.3372.14699.35017c-.12105.00433-.25075.0562-.3718.04324.05188-.18158.06485-.4107.08214-.60092v-.02162c.02162 0 .03459.0173.04324.02162Z"/><path d="M13.13807 8.27668v.04323h-.04323c-.18157-.01729-.41502.03459-.60092.06053.0389-.04756.08214-.10376.12537-.14267s.06053-.06484.08214-.08214.05188-.02594.06053-.06052h.02161c.10376.0389.24642.17293.35018.1859Zm-1.1586-.88624c.0562.10807.12104.21615.16427.32855.02162.0173.13835-.09943.16428-.12537l.04324.12537c-.05188.00433-.1124 0-.16428 0-.01297.04756.00864.03459.02594.04756.0389.02594.08214.0562.11672.07782-.04323.02594-.06917.07349-.12537.06052-.09079-.17293-.18157-.34585-.26804-.51445zm.53607.55768c0 .02162-.02162.04756-.02162.06053-.09079-.01297-.08214.1124-.1859.08214-.01296-.02162-.04755-.05188-.06052-.08214s0-.0173 0-.02162l.14699-.10376c.03026.0173.08214.03891.12537.06053Zm.58362.43232c.03026.12105-.00432.20319-.02161.32856h-.04323v-.06053c.00432-.05187.01296-.25939.02161-.26803s.03026 0 .04323 0m-1.22345.06485c.0173 0 .0389 0 .04323.02161-.13402.0389-.25074.05188-.38476.08214l.01297-.06052c.1124.00864.2248-.03891.32856-.04323"/><path d="m12.39449 7.8876-.14699.10375c-.01297-.02594-.02594-.0562-.04323-.08214.0562.00865.08214-.03458.12537-.06052.02162.01297.04756.03026.06052.04323Zm.68306.82572c-.01297.09079-.02594.18157-.04323.26804h-.04324c.01297-.09079.03027-.18158.04324-.26804zm-.04323.26804c-.00865.06484-.00865.1859-.02162.23345s-.04756.02594-.06485.03458c.01297-.09078.03026-.17725.04323-.26803zm.76952-1.07647h-.02162c-.13402-.06485-.38044-.19022-.51878-.22913s-.01729-.01729-.04323-.02161c-.12105-.0173-.34153.01297-.47555.02161-.00864-.08214.281-.10808.20752-.1859-.06053 0-.14267.02595-.08214-.06052.281.147.5793.26372.85598.41503s.06052.02161.0735.06052Zm-.91219-.84734c-.02161.0562-.22913.22048-.22913.23778.04756.02161.1124.0951.14267.1124-.0735.0735-.14267.02161-.22913.02161.02594.06917.0173.13402.02162.20751-.02162.04756-.02594.05188-.06053.00865s-.04323-.13834-.10808-.17293c.12105-.11672.22913-.26803.36315-.37179s.04755-.04755.0951-.0389Z"/><path d="M12.87004 7.42934c-.06053.08647.02161.06053.08214.06053.07349.07781-.21616.10375-.20752.1859-.04323 0-.0951.01729-.14698.0216.03458-.03025 0-.0562 0-.06052 0-.06917.00432-.13401-.02162-.2075.08646 0 .15563.05187.22913-.02162.00864 0 .03458.00864.06052.02161Zm1.46987.49717c-.02594.00864-.09511.06917-.14699.06052-.0173-.03458-.0562-.08214-.08214-.14266.0735.00432.1859.02161.22913.08214"/><path d="M14.40476 7.9265c-.00865.06053-.12105.13402-.1859.14267 0-.0173-.0173-.07782-.02162-.08214.05188.00865.12105-.0562.147-.06052s.04322 0 .06052 0m-.60092-.02162c.09078.0173.20319.0735.28533.12105s.0562.01297.01729.04755c-.1124-.03458-.21616-.11672-.31992-.16428h.02162Zm-.7479-1.01162c-.04756.05188-.08215.10808-.147.14267h-.02161c.04755-.08214.06917-.09511.14699-.16428zm1.09807.22913c.13402-.00865.21616-.09511.20751.12537-.06052-.02161-.2075-.06052-.2075-.12537m-2.78844-.02162c.01297.00865.01297.01297 0 .02162zm1.23642.53607c0 .00865.03458.03027 0 .06053-.0562.00432-.1124 0-.16428 0-.00432-.0562-.0173-.12537-.06052-.16428l.06052-.06053c.06052.03459.06917.12105.10808.17293s.03458.03891.06052-.00865Z"/><path d="M12.4334 7.69738c-.02594 0-.0562.0173-.08214.02161l-.04324-.12537c.02162-.01729.04324-.04323.06053-.06052.04323.0389.0562.10808.06052.16428Zm.06484.31127c0 .01297.02162.0389.00865.06052s-.06485.0389-.05188.08214c.21616.04323.0735.04323-.02161.10376h-.04324l-.08214-.16428c.10376.03026.09511-.09511.1859-.08214Z"/><path d="M12.6193 8.23777c-.04324.04324-.08647.09944-.12538.14267h-.06052v-.02162c-.02594-.03026-.02594-.0735-.04324-.10375h.04324c.06484 0 .12104-.00865.1859-.02162Z"/><path d="M12.4334 8.35882v.02162c-.1297.02161-.1686.0389-.31127.04323v-.02162c.0951-.02161.21183-.01297.31127-.04323m-.31127.04323v.02162c-.00432 0-.04756.07782-.08214.03026.03458-.02594.0389-.04323.08214-.05188m1.09808-.74358v.02162l-.43664.41502h-.02161c-.03459-.06485-.13402-.06485-.16428-.08214s-.03891-.0389-.08214-.06052-.09511-.04324-.12538-.06053-.0389-.02594-.06052-.04323c-.0389-.02162-.08214-.05188-.11672-.07782s-.03891 0-.02594-.04755c.0562 0 .1124.00432.16428 0s.0562-.0173.08214-.02162c.0562 0 .1124.00433.16428 0s.10375-.01729.14698-.02161c.13402-.00865.3545-.03891.47555-.02162"/><path d="M13.13807 8.27668c-.10808-.01297-.24642-.14699-.35017-.1859l.43663-.41502c-.02161.19022-.03458.41935-.08214.60092Zm-.53607-.26803-.06052.05187.16428.09511c-.02162.0173-.06053.06053-.08214.08214-.06485.01297-.12105.02162-.1859.02162.09079-.06052.23345-.06052.02162-.10376-.01297-.04323.0389-.0562.05187-.08214s-.00864-.04755-.00864-.06052.02161-.04323.02161-.06052c.04323.02593.06917.0562.08214.06052Z"/><path d="M12.76628 8.09079c-.00865.03458-.04323.04323-.06052.06052l-.16428-.0951.06052-.05189c.03458.0173.13402.0173.16428.08214Z"/></svg>