<svg class="nok-icon %s" height="16" width="16" fill="currentColor" xmlns="http://www.w3.org/2000/svg" viewBox="0 0 16 16"><path d="M0 8.18174h16v.09H0zm6.91649-1.2289c.12808 0 .15577-.1627.03808-.2077H6.8784c-.11424.05192-.09.20423.03808.2077m2.28126-.02078c.07616-.04846.05539-.15231-.02423-.18693h-.07616c-.16616.06577-.03808.27001.10039.18693m5.04717.01731c.12462.01039.16962-.15231.045-.20424h-.07616c-.11424.045-.10039.19386.0277.20424Zm-13.1718.57118s.01732-.04846.02078-.05192c.03115-.04847.09693-.06924.15231-.06231l.24232.3877h.23194L1.4643 7.3994c.35656-.1073.30463-.60233-.07962-.62656-.1627-.01039-.33578.00692-.49848 0v1.0212h.18693v-.27001Zm0-.57464c.1004.01039.2354-.0173.32887 0 .11424.0173.1454.2077.045.26655-.11077.06231-.25616-.03808-.33578.09693l-.03462.08308v-.44656Zm3.60364.51926c0-.01385.06924-.05193.08655-.05193.0727-.01038.12116.02423.16616.07616.07616.09.13154.21462.2077.30809h.2354l-.30463-.43271c-.0727-.06231-.16963-.05885-.2527-.01731-.00693 0-.03116.0277-.03463.02423 0-.0173.01039-.02423.02424-.03462l.55387-.56772h-.2354c-.01038 0-.08308.09-.09692.10386-.11424.1177-.23194.23193-.34964.34617v-.45003h-.19039v1.0212h.1904V7.4617Zm3.34747.3254h.85504V7.6244h-.74773v-.00693c.01385 0 .0277-.00346.04155-.00692.14885-.03808.21808-.11424.31847-.22501.13155-.14193.24924-.30117.37733-.4431v-.17309h-.7962v.17309h.66465l-.11423.045c-.14193.0727-.45002.45348-.5608.59195-.03808.045-.03808.06924-.03808.12809 0 .02769.01731.04846 0 .07962Zm-5.2064-.00346c.17308.07961.27693-.05193.31501-.20425 0-.01384.00346-.045.01731-.04846v.25617c.03808.01038.13847-.01039.18347 0v-1.0212h-.18347v.35655c-.21462-.23193-.50887-.045-.5331.2354-.01385.15577.04846.35309.20078.42232Zm.12808-.59888c.2527-.04154.26655.43964.045.45695-.23885.02077-.24924-.4258-.045-.45695m7.12419.3531h-.1904c-.07269.22154-.32193.12115-.3254-.08309h.5331c.06232-.61964-.83772-.56772-.70964.05885.07616.38079.6058.39117.6958.02423Zm-.48464-.2804c.08654-.16963.29078-.1004.31155.0727-.09346-.00693-.19385.01038-.28732 0-.06577-.00693-.05192-.02424-.02423-.0727m-5.40718.2804h-.18693c-.09.21462-.32887.12808-.32887-.08309h.5331c.0554-.58156-.77888-.59195-.72003.01039.03808.41886.59541.4604.70619.0727Zm-.49503-.26656c.04847-.1177.18694-.15577.27348-.05192.0173.02077.06923.11077.02077.11077h-.2977c-.01732-.00346 0-.04846.00692-.05885Zm7.94808.26655h-.18693c-.00693 0-.04154.07616-.07616.09693-.135.09-.24924-.05192-.25963-.18h.54003c.04154-.58503-.77889-.59542-.7235.02076.03808.40848.60234.44656.70619.06231m-.2354-.33232c.01385.01385.07962.12462.04154.12462H11.119c.01384-.135.16962-.2354.27693-.12462m-.98658.33925s.02077-.02077.02769-.02423c.05885-.02424.10731.02769.14193.06923.04846.05885.09347.135.13847.19732h.20078l-.22848-.31502c-.05538-.04154-.1177-.045-.18-.0173-.01039.00345-.01731.02076-.03462.0173 0-.01385.0173-.0173.02423-.02423.11424-.12116.2804-.26655.37733-.39117.00692-.00693.0173-.01039.01384-.02423-.0623.0173-.1627-.02078-.225.01384-.09001.08654-.16617.18693-.25964.27001v-.5504h-.18347v1.0212h.18347v-.24578Z"/><path d="M2.0978 7.80788c.51925.03461.51233-.80312.02769-.78581-.47426.0173-.46041.75811-.0277.7858m.02077-.63002c.2354-.02424.24578.45348.03116.47079-.2354.02077-.2527-.45002-.03116-.4708m5.2168.42926c-.0104-.01731-.01385-.04847-.01732-.0554-.0173-.02076-.15231 0-.18693-.00691-.00692.35655.73042.36001.65426-.01731-.03807-.17655-.29078-.1627-.40502-.22501-.13154-.0727.06578-.20078.16617-.1177.02769.02077.03808.07616.045.07962.02077.00692.13154 0 .16616 0s0-.0727-.00692-.08654c-.10385-.24232-.64734-.19386-.59542.12115.01385.0727.08655.12809.15232.15232.07962.03116.33578.03808.28386.1627-.03808.09-.21463.0727-.25963-.00692Zm7.78883-.04154c-.00692-.11424-.09-.16963-.1904-.20424-.05538-.02077-.22154-.03808-.24924-.08309-.06577-.10038.14193-.1627.21117-.08654.0173.02077.02077.06924.02423.0727 0 0 .01384-.00693.02077-.00693s.01385.00693.0173.00693h.1454c-.00692-.33579-.66119-.3081-.61272.0277.00346.03115.0173.05538.03461.07961.09347.12462.36002.10731.40156.18.06924.12117-.20424.19386-.26655.04155-.01385-.03116.00692-.045-.0277-.045h-.15923c-.01731 0-.00693.045-.00693.05538.07616.30117.67504.27348.65427-.03461Zm-2.36435-.27694c0-.0173.01039-.05539.01731-.06923h-.00692c-.01039 0-.00692-.01385-.01039-.02077-.01384-.13501.01039-.29079 0-.42926h-.18c-.01039 0-.01385.03462-.01385.045v.9762h.1904c.01038-.1627-.01385-.3427 0-.50194Zm-7.11726-.03808v-.01038zm.00346-.01038v.01038zm-.00346.10039c0-.00693.02423-.06924.03115-.07962.05193-.07962.15924-.06924.2354-.05193.00692-.03462-.00692-.06577-.01038-.09693 0-.03461.02769-.0623-.01039-.07962-.12116-.05538-.21463.04154-.22847.15924l-.01385.045v.01039-.2077c-.02077-.02077-.1454 0-.18347-.00693v.75466h.18347v-.45349Zm.59195.46733c.13847.01384.20424-.07616.2527-.1904 0-.01038-.01038-.01038-.0173-.00692-.04154.07962-.18694.07962-.23194 0 0-.00693-.0173-.03808-.0173-.04154V7.0463s-.0104-.01385-.01385-.01385h-.16616s-.01385.01039-.01385.01385v.49849c0 .11423.08654.24924.20424.25962Z"/><path d="M12.77715 7.21939c.03462-.06578.15924-.07616.21117-.02424.01038.00693.03808.06231.03808.06924v.52618h.18347c0-.01731.00692-.03462.01038-.05539.00692-.1177.01385-.41887-.01385-.52618-.06577-.25617-.38425-.24924-.43617.00692 0-.00692.00346-.00692.00692 0Z"/><path d="M12.77023 7.21939h.00692c0-.00693-.00692-.00693-.00692 0m-.5608-.00693c.00693.01039.03116.05885.03116.06924v.51233h.18347v-.55387c0-.00693-.02077-.06924-.0277-.07962-.09346-.2077-.37386-.16963-.41194.05192l.00693.00693c.04154-.0727.17308-.07616.21808-.00693m1.59931.41195-.00692-.00693c-.04154.06231-.16616.06924-.21463.01385-.01038-.01039-.03462-.06231-.03462-.07616v-.51925c-.05884.00346-.12116.00346-.18347 0v.5608c0 .02769.03808.10038.05885.12461.12462.15578.33925.09.3808-.09692m-7.32152-.00693c.01039.04154-.00692.12808 0 .17309h.1904v-.7408s-.01039-.01385-.01385-.01385h-.16616c-.01039 0-.01039.02077-.01385.02769-.0173.14885.01731.33232 0 .48118 0 .01384-.01038.05192-.0173.0623.01384-.02423.02769-.0173.0173.00693Z"/><path d="M6.48723 7.61748c.01039-.02423-.00346-.03115-.0173-.00692.00692 0 .01384 0 .0173.00692m7.32151.00693c.0173.03115.01039.12462.00692.16616h.1904v-.75465c-.00693.00692-.01731 0-.02077 0h-.15924c-.01385.01384-.01039.04846-.01385.06923-.00692.1454.01731.31848 0 .45694 0 .01039-.01038.045-.0173.0554.01038-.0104.0173-.00693.00692.00692Z"/><path d="M13.80874 7.6244c.00692-.01384 0-.02077-.00692-.00692 0 0 .00692.00346.00692.00693m.36002-.5885s-.01385.01039-.01385.01385v.74427h.1904v-.74427c0-.00692-.02424-.01384-.0277-.01384zm-2.19818.22848c0-.01731.00692-.03116.0173-.045-.01384.01038-.0173.00692-.00692-.00693-.0277-.02423-.00692-.02077-.00692-.045 0-.0173-.00693-.03462-.01039-.04846 0-.01385.01385-.07962-.00346-.07962h-.18v.75465h.19039v-.52618Z"/><path d="m11.98788 7.21939-.00692-.00693c-.00692.01385-.00346.02077.00692.00693m-2.94937-.18347h.18347v.75465h-.18347zm-2.20857 0h.18347v.75465h-.18347zm-.03461 1.807c-.01385-.00692-.05885 0-.02077-.02077.03115-.0173.04154-.00692.0623-.045.0554-.10385-.02076-.16616-.12115-.17654-.05539-.00693-.12116.00346-.18001 0v.49156h.18693c.00692 0 .06577-.01731.07616-.02423.08654-.04154.09-.18001-.00693-.22155Zm-.22501-.2077c.00692-.02423.15577-.00692.18347 0 .08308.02423.08308.14886 0 .17655-.02424.00692-.18347.02423-.18347 0s-.00693-.15232 0-.17309Zm.16962.41887c-.02423.00692-.16962.02077-.16962 0v-.20424h.16962c.02423 0 .0727.03462.07962.05885.02423.0727-.01039.12808-.08308.14539Zm1.96279-.0173c-.01731-.03809-.08655-.31156-.1004-.31502h-.03461l-.09347.31501-.01384-.00692c-.01731-.03808-.06924-.2977-.07962-.3081 0 0-.03462-.00346-.04154 0 .0277.04155.09.34618.10731.35656.00692.00346.0277.00692.03116 0 .01384-.01038.08654-.28386.10385-.32194l.09692.32194h.04154c.01731-.01038.07962-.32194.1004-.36348H8.7858c0 .00346-.08655.31502-.08655.31502Zm.79273-.31502-.045.00692-.17655.1904v-.35656h-.03462v.52271h.03462v-.12116c0-.00346.05192-.05884.0623-.0623.02424.00346.11078.1627.13848.17654.01384.00692.02769.00346.04154.00346l-.15578-.21116.13847-.15232ZM7.79922 8.7183c-.16962.0277-.18347.37733.045.3808.01731 0 .1454-.01732.11078-.05193-.00346-.00347-.08654.02423-.11078.02423-.09346 0-.14193-.07962-.13846-.16616h.26655c.00346-.11424-.04847-.2077-.17655-.18694Zm.13155.1627c-.045 0-.17655.01039-.2077 0-.0277-.00692.00692-.07962.02076-.09692.045-.0554.13155-.06231.17309 0 .01038.0173.03808.09346.01385.09346Zm-.84466-.1627c-.16962.0277-.18347.37733.045.3808.01731 0 .1454-.01732.11078-.05193-.00347-.00347-.08655.02423-.11078.02423-.09346 0-.14193-.07962-.13847-.16616h.26656c.00346-.11424-.04847-.2077-.17655-.18694Zm.12808.1627c-.045 0-.17654.01039-.2077 0-.0277-.00692.00692-.07962.02077-.09692.045-.0554.13155-.06231.17309 0 .01038.0173.03807.09346.01384.09346Zm.3704-.13846-.1073.30463-.12463-.32194h-.04154l.13847.35655c.00692.01039.02077.01039.03115.00693.02077-.00693.12463-.32194.1454-.36348-.02077 0-.03808 0-.045.0173Zm1.48854-.02077v.47079c0 .03115-.06577.045-.09.0277v.0346c.03115 0 .08308.00347.1073-.0173l.01732-.03462v-.47771h-.03462ZM8.135 8.7633c-.00693.01038-.00347.02769-.01731.02423V8.7183h-.03462v.36694h.03462V8.8637c0-.00347.01384-.05885.0173-.06578.01385-.03115.05886-.05885.09347-.0623.03462 0 .06231.02769.05193-.0277-.06577 0-.10731-.00692-.14886.04846Zm.77888-.03808v.36001h.04154v-.36001c0-.01731-.04154-.01731-.04154 0m.01385-.1454c-.02077.00693-.01731.06924.0173.05885.02078-.00692.01731-.06923-.0173-.05884m.15577 0c-.02077.00692-.0173.06923.01731.05884.02077-.00692.01731-.06923-.0173-.05884"/></svg>