<svg class="nok-icon" height="16" width="16" fill="currentColor" xmlns="http://www.w3.org/2000/svg" viewBox="0 0 16 16"><g clip-path="url(#a)" transform="translate(0 3.628)scale(.03856)"><path d="M213.468 136.352c-44.474-.202-73.323-25.662-73.136-66.814.19-41.156 29.27-66.352 73.93-66.147 44.475.202 73.324 25.658 73.137 66.814-.19 41.156-29.27 66.349-73.931 66.147m.712-114.526c-31.395-.142-52.593 18.011-52.73 47.62-.136 29.611 20.899 47.77 52.29 47.913 31.209.142 52.407-17.827 52.544-47.436.136-29.608-20.9-47.955-52.104-48.097m91.266 111.903 11.399.053.279-61.08 17.379.077 57.463 61.342 15.322.074-63.232-66.586 59.152-61.933-14.391-.062-54.457 57.11-17.19-.08.262-57.356-11.398-.051Zm-297.796-.15 32.703.148.33-72.441.186.003 51.06 72.673 30.083.139.59-128.498-32.704-.148-.329 72.441h-.187L38.136 5.221 8.237 5.084Zm76.943 26.328c11.829 0 16.972 4.184 19.972 6.32l-5.656 11.106c-2.23-1.623-5.915-4.528-13.204-4.528-9.514 0-17.14 5.383-17.14 17.17 0 12.302 6.855 17.768 16.371 17.768 7.885 0 12.085-2.82 14.055-4.27l5.144 10.933c-2.485 2.05-8.743 6.49-21.258 6.49-16.455 0-29.57-9.054-29.57-30.238 0-21.014 15.085-30.751 31.286-30.751m27.6 1.025v58.938h40.63v-10.588h-28.458v-48.35Zm49.203 58.938h9.428v-58.938h-9.428Zm64.884-58.938v46.299h-.171l-34.372-46.3h-6.683v58.939h7.113v-46.296h.087l34.457 46.296h6.686v-58.938Zm22.63 58.938h5.14v-58.938h-5.14Zm47.403-59.963c11.058 0 15.515 3.757 18.343 5.808l-2.228 4.1c-2.571-1.877-6.687-5.124-16.03-5.124-13.027 0-24.343 7.944-24.343 25.54 0 17.853 9.859 25.798 23.4 25.798 9.859 0 14.916-3.42 17.145-5.042l1.884 4.187c-2.315 1.71-7.8 5.722-19.284 5.722-16.031 0-28.46-9.138-28.46-30.41 0-21.27 14.488-30.58 29.573-30.58m61.287 7.945c-2.487-1.709-7.286-4.87-15.942-4.87-9.001 0-15.774 3.674-15.774 10.764 0 7.858 6.173 10.422 17.744 14.352 11.657 3.93 18.002 8.368 18.002 17.34 0 9.737-7.802 15.458-20.317 15.458-11.057 0-16.8-3.843-19.542-5.807l1.371-2.989c2.487 1.793 8.23 5.722 18.171 5.722 10.372 0 16.973-4.357 16.973-12.129 0-7.43-5.485-11.019-16.887-14.862-11.398-3.846-18.77-7.517-18.77-16.999 0-8.968 8.057-13.924 19.115-13.924 9.769 0 14.571 3.332 17.227 5.125Z"/></g></svg>