<svg class="nok-icon %s" height="16" width="16" fill="currentColor" xmlns="http://www.w3.org/2000/svg" viewBox="0 0 16 16"><path d="M13.5 11.57q.02-.15.07-.28c-1.68-.58-.37-1.73-.87-2.74-2.4-.77-.77 2.78.8 3.02"/><path d="M13.82 5.09c-.19-.2-.52-.37-.85-.45-1.09-.27-.97.69-1.11.9-.43.63-.48.72-.3.77s.24.04.24.1c0 .12-.17.12 0 .28l-.06.06c-.08.1.08.13.04.18-.14.14-.05.24 0 .26.22.13 1.3.04 1.59 1.04q.19-.2.4-.27l.03-.02c1.07-.47 2.4.71 1.08 2.19-.4.43-.88.78-1.14 1.2l.24.07c.37-.56 1.13-1 1.52-1.46.55-.64 1.16-2.43-1.23-2.63-.37-.02-.14-.37.07-.5.68-.44.28-.78-.4-.87h-.05l-.12-.02c-1.31-.22-.53-.75.05-.84Z"/><path d="M12.05 5.6q.1-.02.13.03c.04.05-.06.19.11.2q.17-.01.2-.16.04-.14-.1-.16c-.1-.03-.25-.05-.34.03v.04Z"/><path d="M12.97 4.64c.43.1.86.4 1 .64 0 0 .55-.28-.23-.68a4 4 0 0 0-1.14-.34c-.8-.08-.8.76-.89 1.11-.04.2-.25.45-.35.63-.17.35-.1.33.13.43.18.07.05.4.03.56-.04.35.3.32.66.41.6.16.89 1 .94 1.24.08.3.33.41.9-.3.17-.22.28-.1.21.02q-.18.37-.48.66a.3.3 0 0 0-.07.23q.43-.26.7-.74c.1-.17.22-.07.17.07q-.21.5-.63.94a.3.3 0 0 0-.09.23q.47-.33.71-.8c.08-.14.2-.05.16.08-.1.3-.32.7-.64.98-.1.09-.1.18-.1.24.32-.21.43-.34.64-.65.1-.16.2-.06.13.1a2 2 0 0 1-.57.73c-.34.29-.62.72-.7 1.14-1.55-.24-3.18-3.8-.78-3.02a.3.3 0 0 0-.1-.12c-2.8-1.26-1.54 2.98.98 3.3.1-.64.78-1.04 1.28-1.6 1.5-1.69-.42-2.98-1.5-1.9-.28-1-1.37-.9-1.6-1.04-.05-.02-.14-.12 0-.26.05-.05-.12-.08-.04-.18l.06-.06c-.17-.17 0-.16 0-.29 0-.04-.08-.04-.23-.09-.18-.05-.14-.14.29-.77.15-.21.04-1.18 1.11-.9Zm-8.74 6.69.21-.28.09-.1c.03-.02-.29 0-.29 0v-.11h.46v.09l-.21.26-.08.1c-.02.03.3 0 .3 0v.12h-.48zm.6-.5h.15v.58h-.14zm.08-.08q-.08 0-.08-.09c0-.09.03-.08.08-.08s.09.04.09.08-.04.09-.1.09m.36.31c0-.05.05-.13.13-.13s.12.09.12.13zm.4.1v-.06c0-.12-.07-.27-.25-.27s-.28.15-.28.3.1.3.3.3.15-.02.2-.04l-.02-.1q-.07.03-.16.03-.15 0-.17-.16zm.28-.08q0-.03.04-.06l.15-.18h.17l-.2.22.24.35h-.18l-.17-.25-.04.05v.2H5.8v-.84h.15zm.58-.02c0-.05.05-.13.13-.13s.12.09.12.13zm.38.1v-.06c0-.12-.06-.27-.24-.27s-.29.15-.29.3.11.3.3.3.16-.02.2-.04l-.01-.1q-.07.03-.16.03-.15 0-.17-.16h.38Zm.15-.15v-.17h.13v.09q.04-.09.19-.1.21-.02.2.24v.35h-.15v-.33q0-.12-.1-.13c-.1-.01-.1.04-.12.08v.39h-.14v-.4Zm.7-.44h.15v.35l.07-.07.1-.02c.1 0 .2.06.2.24v.35h-.15v-.33q.01-.13-.1-.14c-.12-.01-.1.03-.12.08v.38h-.15zm1.21.67v.17h-.13v-.1q-.04.09-.19.1-.21.04-.2-.25v-.33h.15v.3q-.01.15.1.16c.12.01.1-.03.12-.08v-.4h.14v.4Zm.18-.4h.15v.57h-.15zm.08-.1q-.09 0-.09-.08c0-.08.04-.08.09-.08s.08.04.08.08-.04.09-.1.09Zm.24.54q.07.04.15.05.1 0 .09-.07c-.01-.07-.03-.06-.1-.08q-.16-.06-.16-.16.01-.16.22-.18c.21-.02.12.01.16.03l-.03.11q-.04-.03-.12-.03-.1 0-.08.06c.02.06.03.05.1.07q.15.06.15.18 0 .16-.23.18c-.23.02-.13-.02-.18-.04l.03-.1Zm-8.42-2H.87C.85 9.12.68 9 .54 9s-.2.03-.2.15c0 .22.75.05.75.54s-.23.37-.47.37-.27-.02-.38-.1l-.05.08H.05V9.6H.2q.05.29.37.3c.32.01.2-.05.2-.14 0-.25-.75-.04-.75-.54s.26-.37.5-.37.23.04.33.1l.02-.08h.15v.43Zm.98.46c0 .22-.16.31-.35.31s-.43-.14-.43-.42.2-.44.43-.44.35.09.35.28-.05.17-.15.17-.16-.03-.16-.12.06-.13.14-.13q-.05-.06-.14-.06-.15 0-.17.29c-.02.29.05.28.17.28s.13-.08.14-.16zm.52-.86v.47q.1-.15.3-.15c.2 0 .26.12.26.29v.33q-.02.07.06.07h.06v.14h-.5v-.14h.03q.07 0 .06-.07v-.3c0-.1-.01-.17-.13-.17s-.13.08-.13.15v.32q-.02.07.06.07h.05v.14h-.53v-.14h.07q.08 0 .07-.07V9.1q.01-.08-.07-.08h-.07V8.9zm.72.34h.5v.13h-.04q-.05 0-.06.03v.03l.12.42.13-.42v-.03q0-.03-.07-.03h-.02v-.13h.47v.13h-.04q-.05 0-.06.03v.03l.13.43.11-.4v-.05q0-.03-.06-.03h-.03v-.14h.38v.14h-.06q-.04-.01-.09.11l-.17.57h-.31l-.12-.4-.13.4h-.3l-.16-.57q-.05-.12-.11-.1h-.04v-.15Zm1.83.44c0 .12.03.24.17.24s.16-.05.18-.15h.2c-.03.21-.23.3-.42.3-.3 0-.44-.17-.44-.42s.2-.44.44-.44.44.2.44.47zm.26-.14v-.05q0-.14-.12-.15c-.12 0-.13.06-.13.15v.05zm.86.29q0 .06.06.07h.08v.14h-.57v-.14h.08q.07 0 .06-.07v-.38q0-.08-.06-.08h-.09v-.13h.43zm0-.82q0 .14-.15.15c-.15.01-.14-.06-.14-.15s.06-.15.14-.15.15.07.15.15m.67-.1v.32h.2v.13h-.2v.48q0 .05.06.06.08 0 .08-.13v-.13h.14v.15q.02.26-.3.27c-.31 0-.27-.1-.27-.27v-.44h-.12V9.2c.18 0 .22-.18.24-.32h.17Zm.76.99h.16q.15 0 .14-.14v-.09h.14v.38H7.3v-.18l.44-.5h-.16q-.13 0-.12.12v.08h-.14v-.33h.75v.14zm.94-.22c0 .12.03.24.17.24s.17-.05.17-.15h.2c-.02.21-.22.3-.41.3-.3 0-.44-.17-.44-.42s.19-.44.44-.44.43.2.43.47h-.57Zm.26-.14v-.05q0-.14-.13-.15c-.13 0-.13.06-.13.15v.05zm.4-.3h.41v.13q.05-.14.2-.16c.15-.02.2.08.2.19s-.05.15-.13.15-.14-.03-.14-.11.04-.1.1-.1l-.06-.02c-.1 0-.15.1-.15.2v.3q0 .08.06.08h.08v.14h-.56v-.14h.07q.07 0 .07-.07v-.38q.01-.08-.07-.08h-.07zM.82 7.19l.28.87q.05.14.12.14h.05v.15H.65V8.2H.7q.1 0 .1-.03V8.1L.75 8H.4l-.02.06-.02.1s.06.05.1.05h.06v.15H0V8.2h.05q.1.01.13-.14l.3-.87zm-.37.64H.7l-.13-.37zm1.37.3q-.01.07.07.07h.06v.14h-.56V8.2h.08q.06 0 .06-.07v-.72q.01-.06-.06-.07h-.09v-.15h.43zm.38-.72q.02-.06-.06-.07h-.08v-.15h.43v.43q.1-.1.22-.12c.27 0 .36.2.36.44s-.1.43-.36.43-.2-.04-.26-.14l-.06.11h-.2zm.3.54q-.01.27.13.28c.14.01.14-.1.14-.28s-.04-.3-.14-.3-.13.12-.13.3m1.05.04c0 .11.03.23.17.23s.16-.04.18-.15h.2c-.03.2-.23.3-.42.3-.3 0-.44-.17-.44-.43s.2-.44.44-.44.44.2.44.48zm.27-.15V7.8q0-.15-.14-.16c-.14-.01-.13.06-.13.16v.04zm.42-.3h.41v.14q.05-.15.2-.17c.15-.02.2.08.2.2s-.05.15-.13.15-.14-.04-.14-.12.04-.1.1-.1q-.04-.04-.06-.03c-.1 0-.15.12-.15.2v.31q-.01.08.07.08h.07v.13h-.56V8.2h.08q.07 0 .06-.08v-.38q0-.07-.06-.07h-.08v-.14Zm1.31-.33v.33h.21v.14h-.2v.48q0 .06.06.06.08 0 .08-.12v-.13h.14v.14q.02.27-.3.27c-.31 0-.27-.1-.27-.27v-.43h-.12v-.14c.18 0 .22-.18.24-.33z"/></svg>