<svg class="nok-icon %s" height="16" width="16" fill="currentColor" xmlns="http://www.w3.org/2000/svg" viewBox="0 0 16 16"><path d="M1.9 7.51v-.95H.95v.95L0 8.46h.95v.95h.95v-.95l.94-.95z"/><path d="M.95 7.51H.38A.4.4 0 0 1 0 7.13v-.19c0-.2.17-.38.38-.38h.57zm1.9 0H1.9v-.95h.57c.2 0 .37.17.37.38zm-1.9 1.9H.38A.4.4 0 0 1 0 9.03v-.57h.95zm1.52 0H1.9v-.95h.57c.2 0 .37.17.37.38v.19c0 .2-.16.38-.37.38m1.2-2.85v2.85m.78-1.03h.33q.19 0 .3.11.12.11.12.3 0 .18-.12.3-.11.1-.3.1h-.33zm.33.12h-.2v.57h.2q.13 0 .2-.08t.08-.2T5 8.58q-.08-.08-.21-.08m.84.12q.12 0 .2.08.07.08.07.21v.05h-.42q.01.07.06.1.05.04.1.04.1 0 .17-.06l.06.09q-.1.08-.23.08t-.2-.08-.08-.22.07-.2.2-.09m0 .11q-.06 0-.1.04-.04.03-.05.1h.3q-.02-.07-.05-.1-.04-.04-.1-.04m1.22-.1v.1l-.3.35h.3v.11h-.46V9.1l.3-.35h-.3v-.11zm.29.03q.07-.04.15-.04.09 0 .16.04t.1.1.04.15-.04.15-.1.11-.16.04-.15-.04-.1-.1-.07-.17.04-.14.1-.11m.29.13q-.05-.05-.13-.05t-.12.05-.05.12q0 .1.05.13.05.05.12.05.08 0 .13-.05t.05-.13q0-.1-.05-.12m.63-.17q.06 0 .1.02l-.03.12q-.04-.02-.1-.02t-.1.04-.03.1v.31h-.12v-.55h.12v.06q.05-.08.16-.08m.44 0q.12 0 .19.08v-.06h.12v.51q0 .14-.08.21t-.22.08l-.13-.02-.1-.05.04-.1q.1.06.19.06t.13-.05.05-.12V9.1q-.07.09-.19.09l-.1-.02-.08-.06-.06-.1q-.02-.05-.02-.11 0-.07.02-.12l.06-.1q.03-.03.09-.05.04-.02.09-.02m.03.12q-.07 0-.12.05t-.04.12.04.12.12.05q.07 0 .12-.05t.05-.12-.05-.12-.12-.05m1.34-.1-.23.55h-.14l-.23-.55h.14l.16.43.17-.43zm.66 0v.55h-.12v-.06q-.07.08-.18.08-.12 0-.2-.09t-.08-.2.08-.22.2-.08.18.08v-.06zm-.28.1q-.08 0-.12.05t-.05.12.05.13.12.05.12-.05.05-.13-.05-.12-.12-.05m.79-.12q.1 0 .16.06.06.07.06.16v.35h-.12v-.3q0-.08-.03-.11-.04-.04-.1-.04t-.1.04-.04.1v.31h-.12v-.55h.12v.06q.05-.08.17-.08m.9.02v.62q0 .09-.04.13-.05.05-.12.05-.05 0-.09-.02l.03-.1h.05l.03-.01q.02-.02.02-.05v-.62zm-.12-.26q.02-.02.06-.02t.06.02.03.06-.03.06-.06.03-.06-.03-.03-.06.03-.06m.58.24q.11 0 .19.08t.07.21v.05h-.42q.02.07.06.1.05.04.11.04.09 0 .16-.06l.06.09q-.09.08-.23.08-.12 0-.2-.08t-.08-.22.07-.2.2-.09m0 .11q-.06 0-.1.04-.04.03-.04.1h.28q0-.07-.04-.1-.04-.04-.1-.04m.9-.37v.83h-.11v-.83zm.46.26q.12 0 .2.08.06.08.07.21v.05h-.42q.01.07.06.1.04.04.1.04.1 0 .17-.06l.06.09q-.1.08-.23.08t-.2-.08q-.09-.08-.09-.22 0-.13.08-.2.08-.09.2-.09m0 .11q-.06 0-.1.04-.04.03-.05.1h.3q-.02-.07-.06-.1-.03-.04-.1-.04m.96-.1-.23.56h-.14l-.23-.55h.14l.16.43.17-.43zm.36 0q.12 0 .2.07.06.08.06.21v.05h-.4q0 .07.05.1.04.04.1.04.1 0 .17-.06l.06.09q-.1.08-.23.08t-.2-.08-.09-.22.08-.2q.08-.09.2-.09m0 .11q-.06 0-.1.04-.04.03-.05.1h.29q0-.07-.05-.1-.03-.04-.1-.04m.74-.1q.1 0 .17.05.06.07.06.16v.35h-.12v-.3q0-.08-.04-.11-.03-.04-.1-.04-.05 0-.1.04-.04.04-.04.1v.31h-.12v-.55h.12v.06q.06-.08.17-.08M5.2 6.78v.15l-.49.63h.5v.17h-.75v-.15l.5-.62h-.5v-.18zm.8.3v.37q0 .08-.03.13t-.07.1l-.1.05q-.05.02-.11.02l-.1-.01-.08-.04-.07-.05-.05-.09-.01-.1v-.38h.17v.36q0 .07.04.1.04.04.1.04t.1-.03.03-.11v-.36zm.87 0-.5.92h-.2l.23-.4-.28-.52h.2l.18.33.18-.33zm.38-.02q.12 0 .19.08v-.38h.17v.97h-.17v-.07q-.07.09-.2.09t-.22-.1-.09-.25.09-.24.23-.1m.03.16q-.08 0-.12.05t-.05.13.05.13.12.05.12-.05.05-.13-.05-.13-.12-.05m.84-.16q.14 0 .23.1c.09.09.09.14.09.24v.06h-.47q.01.07.06.1.04.04.1.04l.1-.02.07-.05.1.12q-.1.1-.27.1-.15 0-.25-.1t-.1-.24.1-.26.24-.1m0 .16q-.06 0-.1.04-.04.03-.05.1h.3q-.02-.07-.06-.1-.03-.04-.1-.04m.86-.15.09.01-.03.18q-.04-.02-.1-.02-.07 0-.1.03-.04.04-.04.11v.36H8.6v-.65h.17v.07q.06-.1.19-.1m.42-.3v.98H9.2v-.97zm.86.33v.65h-.18v-.07q-.07.09-.2.09t-.22-.1-.09-.25.1-.24.22-.1.2.09v-.07zm-.34.14q-.08 0-.12.05-.05.06-.05.13t.05.13.12.05.12-.05.05-.13-.05-.13-.12-.05m.91-.16q.12 0 .19.07t.07.18v.42h-.18v-.36q0-.07-.03-.1-.03-.05-.1-.05-.05 0-.1.04-.03.04-.03.11v.36h-.18v-.65h.17v.07q.07-.1.2-.1m.74 0q.12 0 .19.1v-.4h.17v.98h-.17v-.07q-.07.09-.2.09t-.22-.1-.1-.25.1-.24.23-.1m.03.16q-.08 0-.12.05t-.05.13.05.13q.04.05.12.05t.12-.05q.05-.05.05-.13t-.05-.13-.12-.05"/></svg>