<svg class="nok-icon %s" height="16" width="16" fill="currentColor" xmlns="http://www.w3.org/2000/svg" viewBox="0 0 16 16"><g><path d="M2.57604 6.71148C2.57604 7.42306 1.9993 8 1.28792 8 .57674 8 0 7.42306 0 6.71148c0-.71178.57674-1.28872 1.28792-1.28872.71138 0 1.28812.57694 1.28812 1.28872m-.28327 0c0-.55514-.4499-1.00525-1.00485-1.00525-.55474 0-1.00465.4501-1.00465 1.00525s.44991 1.00505 1.00465 1.00505c.55494 0 1.00485-.44991 1.00485-1.00505"/><path d="M3.35984 8.31188c0 .4271-.34609.7732-.773.7732-.4267 0-.77279-.3461-.77279-.7732 0-.4269.34609-.7732.7728-.7732.4269 0 .77299.3463.77299.7732m-.28347.0002c0-.27047-.21906-.48972-.48952-.48972-.27027 0-.48933.21925-.48933.48972s.21906.48952.48933.48952c.27046 0 .48952-.21905.48952-.48952"/><path d="M2.64046 9.72683c0 .46972-.3807.85041-.85001.85041-.46952 0-.85021-.3807-.85021-.8504s.38069-.85062.8502-.85062c.46932 0 .85002.3809.85002.85061m-.28247-.0008c0-.31368-.25426-.56794-.56754-.56794-.31348 0-.56774.25426-.56774.56794 0 .31348.25426.56774.56774.56774.31328 0 .56754-.25426.56754-.56774m1.6338-.90002L4.814 7.79015h-.8094v-.23526h1.12968v.24406l-.8264 1.03126h.8392v.23966H3.9918zm2.56865-.7832h.24566v.17104h.0042c.05562-.11763.16444-.20105.29908-.20105.0192 0 .0448.0022.06201.0064v.23546c-.0342-.0086-.05561-.0108-.07902-.0108-.23065 0-.27547.20125-.27547.27607v.55014h-.25646zm1.81966 0v.93523c0 .3701-.17945.60536-.57875.60536-.16664 0-.3759-.05982-.50833-.16885l.14724-.19905c.09842.09403.23086.14544.35889.14544.24786 0 .32468-.14984.32468-.35309v-.07482h-.0042c-.07482.10043-.19445.15404-.33548.15404-.30748 0-.50593-.24386-.50593-.53513 0-.29728.19205-.53914.50172-.53914.14324 0 .27767.06002.3523.18405h.0044V8.0428zm-.84142.50713c0 .16264.10883.32528.29248.32528.19025 0 .30547-.15404.30547-.32528 0-.17765-.11743-.32748-.30327-.32748s-.29468.14563-.29468.32748m1.1617-.99505h.53593c.3951 0 .835.18825.835.75739 0 .53073-.4399.75759-.835.75759h-.53593zM9.1935 8.8344c.27767 0 .58955-.11343.58955-.52213 0-.43431-.31188-.52633-.58955-.52633h-.22426V8.8344zm3.92218-.4065v.64216h-.25607v-.56934c0-.12204-.0278-.27387-.19224-.27387-.16024 0-.22646.14963-.22646.28247v.56074h-.25626V8.4493c0-.12623-.05982-.22245-.19005-.22245-.15384 0-.22426.14123-.22426.27807v.56514h-.25626V8.0428h.24346v.16484h.0042c.04481-.10062.15384-.19485.31828-.19485.15804 0 .26267.07922.32028.19485.06842-.12423.18365-.19485.33748-.19485.26707 0 .3779.20545.3779.4151m1.2193.20986h-.7794c.01061.14544.14304.25246.29248.25246.12823 0 .21346-.05141.27127-.13283l.17084.13703c-.10042.13704-.24566.20545-.4399.20545-.31609 0-.55095-.20325-.55095-.53713 0-.33168.23266-.54994.54234-.54994.28607 0 .49552.18625.49552.55634 0 .0236 0 .04501-.0022.06862m-.25406-.18425c0-.13263-.07482-.24806-.24146-.24806-.15144 0-.27327.10483-.28387.24806zm.47332-.4107h.25646v1.02726h-.25646zm.50192 0h.24326v.16484h.0044c.04482-.10282.16645-.19485.31809-.19485.26706 0 .37809.20545.37809.4151v.64217h-.25626v-.56934c0-.12204-.02781-.27387-.19205-.27387-.16244 0-.23946.14123-.23946.27807v.56514h-.25607zm-3.73093.50673c0 .30407-.24606.55054-.54954.55054-.30367 0-.54973-.24647-.54973-.55054 0-.30428.24606-.55074.54973-.55074.30348 0 .54954.24646.54954.55074m-.22485-.0002c0-.17945-.14544-.32528-.32469-.32528-.17944 0-.32488.14583-.32488.32528 0 .17984.14544.32548.32488.32548.17925 0 .32469-.14564.32469-.32548m-4.73059.0002c0 .30407-.24586.55054-.54933.55054-.30368 0-.54974-.24647-.54974-.55054 0-.30428.24606-.55074.54974-.55074.30347 0 .54933.24646.54933.55074m-.22105-.0002c0-.18165-.14704-.32888-.32828-.32888-.18145 0-.32849.14723-.32849.32888 0 .18184.14704.32928.32849.32928.18124 0 .32828-.14744.32828-.32928m8.69817-.8162c0 .09102-.07362.16463-.16444.16463s-.16444-.07361-.16444-.16464.07362-.16464.16444-.16464.16444.07362.16444.16464"/></g></svg>