<svg class="nok-icon %s" height="16" width="16" fill="currentColor" xmlns="http://www.w3.org/2000/svg" viewBox="0 0 16 16"><path d="M1.8966 7.51095v-.9483H.94832v.9483L0 8.45925h.9483v.9483h.9483v-.9483l.94832-.94831z"/><path d="M.9483 7.51095H.37933C.16983 7.51095 0 7.34112 0 7.13163v-.18967c0-.2095.16982-.37932.37932-.37932H.9483zm1.89662 0h-.9483v-.9483h.56897c.2095 0 .37932.16982.37932.37932zM.9483 9.40756H.37933C.16983 9.40756 0 9.23774 0 9.02824v-.56898h.9483zm1.51729 0h-.56898v-.9483h.56898c.2095 0 .37932.16982.37932.37932v.18965c0 .2095-.16983.37932-.37932.37932m1.2023-2.8449v2.84491m.78391-1.02905h.32365q.1915 0 .30735.11177.11584.11176.11584.2957 0 .18396-.11584.2957-.11584.11177-.30735.11178H4.4518zm.32365.12457h-.1921v.5658h.1921q.13911 0 .21218-.07742.07304-.0774.07305-.20548 0-.12923-.07305-.20606-.07307-.07683-.21218-.07683m.84811.11816q.117 0 .19006.0812t.07362.2116q0 .01746-.00232.0454H5.4728q.01163.0716.05704.10682.0454.03521.10885.03521.08732 0 .16124-.05879l.06054.08673q-.09197.0786-.22934.07858-.12632 0-.20578-.0809t-.07945-.21247q0-.13098.07712-.21218t.20054-.08121m-.00233.10828q-.06287 0-.10041.03696-.03755.03697-.04745.10041h.28931q-.0099-.06518-.04685-.10129-.03697-.03608-.0946-.03608M6.8413 8.6358v.08847l-.30444.35857h.31025v.1106h-.47208v-.08848l.30968-.35858h-.30036V8.6358zm.28813.02386q.0687-.03842.15368-.03842.08497 0 .15368.03813.06867.03812.10768.10536.039.06723.039.1499 0 .08264-.039.14988-.03901.06724-.10768.10536-.0687.03812-.15368.03812t-.15368-.03842q-.06868-.03841-.1074-.10535-.0387-.06694-.0387-.1496t.0387-.1496.1074-.10536m.27883.12631q-.05007-.05005-.12515-.05005-.0751 0-.12486.05005-.04977.05007-.04977.12865c0 .07858.01659.09527.04977.12864q.04977.05007.12486.05006.07509 0 .12515-.05006t.05006-.12864c0-.07858-.01669-.09527-.05006-.12865m.63389-.16473q.05414 0 .09372.01571l-.0291.1205q-.039-.02037-.09255-.02037-.05938 0-.09606.03987t-.03666.10973v.30677h-.12167V8.6358h.1205v.06286q.05355-.07742.16182-.07742m.43832 0q.12108 0 .1857.0815V8.6358h.12223v.51865q0 .13154-.07974.20722t-.21945.07568q-.06403 0-.12719-.0169-.06317-.01688-.10624-.04771l.04425-.10304q.09255.05646.18918.05647.08498 0 .13097-.04396.04598-.04395.046-.12253v-.04482q-.06405.0815-.1857.0815-.04832 0-.0943-.02009-.046-.02009-.08266-.05588-.03667-.0358-.05909-.0911-.0224-.0553-.0224-.1205 0-.06518.0224-.12049.02242-.0553.05909-.0911t.08265-.05588.0943-.02008m.03144.11468q-.07509 0-.11991.04976-.04483.04978-.04483.12311 0 .07278.04483.12283t.1199.05006q.07277 0 .11875-.04919.046-.04918.046-.1237 0-.0745-.046-.12369-.04598-.04918-.11874-.04918M9.8455 8.6358l-.22294.55765H9.4782l-.22411-.55765h.13271l.16474.43133.16473-.43133zm.66417 0v.55765h-.12165V9.1265q-.06345.0815-.17522.0815-.11816 0-.1985-.08324-.08032-.08324-.08032-.21014 0-.12689.08033-.21015.08032-.08323.1985-.08323.11175 0 .1752.08207V8.6358zm-.28231.1001q-.07627 0-.12225.05153t-.04598.1272.04599.12718q.04597.05151.12224.05151.0745 0 .12137-.05064.04685-.05064.04685-.12806t-.04685-.12807q-.04688-.05063-.12137-.05063m.79107-.11468q.09953 0 .16298.06199t.06346.1598v.35042h-.12225V8.8832q0-.06986-.03405-.10798-.03407-.03813-.09575-.03813-.06171 0-.10304.03928-.04133.0393-.04132.10798v.3091h-.12225v-.55764h.12108v.0681q.05645-.08266.17114-.08266m.9028.01456v.62633q0 .08382-.04481.12952t-.11875.0457q-.04889 0-.0844-.0169l.02852-.10593a.126.126 0 0 0 .04482.00815q.02329 0 .03784-.0163t.01455-.05005V8.6358zm-.12282-.2538q.02445-.02503.06055-.02503t.06111.02503q.02503.02503.02504.06112t-.02504.06053q-.02502.02445-.06111.02445t-.06054-.02445-.02445-.06053.02445-.06112m.57685.23924q.117 0 .19006.0812.07304.0812.07363.2116 0 .01746-.00233.0454h-.41213q.01165.0716.05705.10682.0454.03521.10885.03521.08732 0 .16125-.05879l.06053.08673q-.09198.0786-.22934.07858-.12632 0-.20578-.0809t-.07945-.21247q-.00001-.13098.07713-.21218.07711-.0812.20053-.08121m-.00233.10828q-.06286 0-.10041.03696-.03755.03697-.04744.10041h.2893q-.0099-.06518-.04686-.10129-.03697-.03608-.09459-.03608m.90456-.3743v.83824h-.12224v-.83823zm.45404.26603q.117 0 .19006.0812.07304.0812.07363.2116 0 .01746-.00232.0454h-.41212q.01163.0716.05704.10682.0454.03521.10885.03521.08732 0 .16124-.05879l.06054.08673q-.09197.0786-.22935.07858-.12631 0-.20577-.0809t-.07946-.21247q0-.13098.07713-.21218.07712-.0812.20053-.08121m-.00233.10828q-.06286 0-.1004.03696-.03755.03697-.04744.10041h.2893q-.0099-.06518-.04686-.10129-.03697-.03608-.0946-.03608m.94593-.09371-.22294.55765h-.14436l-.22412-.55765h.13272l.16474.43133.16473-.43133zm.36614-.01456q.117 0 .19006.0812.07304.0812.07363.2116-.00001.01746-.00232.0454h-.41213q.01163.0716.05704.10682.0454.03521.10886.03521.0873 0 .16123-.05879l.06055.08673q-.09199.0786-.22936.07858-.12631 0-.20577-.0809t-.07945-.21247q-.00001-.13098.07713-.21218.07711-.0812.20053-.08121m-.00233.10828q-.06286 0-.10042.03696-.03754.03697-.04743.10041h.2893q-.0099-.06518-.04686-.10129-.03697-.03608-.0946-.03608m.73462-.10827q.09954 0 .16299.06199T16 8.84304v.35042h-.12225V8.8832q0-.06986-.03405-.10798-.03406-.03813-.09575-.03813-.06171 0-.10303.03928-.04134.0393-.04133.10798v.3091h-.12225v-.55764h.12108v.0681q.05645-.08266.17114-.08266M5.19229 6.78485v.14732l-.49129.62509h.49129v.17367h-.742V7.5836l.49129-.62509h-.48994v-.17368zm.79404.29125v.37574q0 .075-.025.13312t-.0686.09292q-.04358.03481-.09832.05238-.05474.01756-.11759.01757-.05002 0-.09528-.01082a.305.305 0 0 1-.0848-.03413q-.03954-.02331-.06826-.05743-.02874-.03413-.04528-.0838-.01657-.04966-.01656-.10981V7.0761h.17638v.36018q0 .07503.0365.11117.03649.03616.0973.03615.06082 0 .09731-.03615.0365-.03615.0365-.11117V7.0761zm.8731 0-.50075.92784h-.19329l.2291-.41221L6.112 7.0761h.20003l.17976.33654.17435-.33654zm.37708-.01757q.12163 0 .19259.08583v-.38654h.1757v.9731h-.17233v-.0723q-.0723.08921-.19596.08921-.13517 0-.22605-.09867-.0909-.09865-.0909-.24598 0-.14731.0909-.24598.09088-.09866.22605-.09867m.03244.16422q-.0757 0-.12232.0517T7.1 7.40317t.04663.12874.12232.0517q.075 0 .12197-.05103.04696-.051.04697-.1294-.00001-.07839-.04697-.12942-.04697-.05102-.12197-.05103m.84133-.1642q.14122 0 .22942.09528c.0882.0953.08842.14642.08887.24869q0 .03446-.00338.05946h-.46426q.01351.06827.05811.10204.04461.0338.11016.03379.04256 0 .0865-.01655.04392-.01655.07906-.0463l.1034.11353q-.10813.09935-.2791.09935-.15137 0-.24564-.09428t-.09427-.24834q0-.15475.0919-.25071t.23922-.09597m-.00135.15206q-.06083 0-.09799.03446-.03717.03447-.04933.09663h.2899q-.01216-.06284-.04898-.09697-.03684-.03411-.0936-.03412m.84876-.15206q.0527 0 .09191.0142l-.02636.17502q-.0473-.02095-.10677-.02095-.06285 0-.10035.03819-.0375.03818-.0375.10913v.3568h-.17639V7.0761h.17098v.07163q.05946-.0892.18447-.0892m.41832-.30071v.9731H9.1996v-.9731zm.85957.31828v.65483h-.17234v-.0723q-.0723.0892-.19597.0892-.13516 0-.22605-.09867-.09088-.09865-.09088-.24598 0-.14731.09088-.24598t.22605-.09867q.12298 0 .19597.08989V7.0761zm-.33587.14665q-.07569 0-.12232.0517-.04661.05169-.04662.12873 0 .07704.04663.12874t.12232.0517q.07499 0 .12197-.05103.04696-.051.04697-.1294-.00001-.07839-.04697-.12942-.04697-.05102-.12198-.05103m.915-.1642q.11216 0 .18346.07095t.0713.18449v.41695h-.17638v-.36019q0-.07027-.03345-.10846-.03345-.03817-.09427-.03818-.06015 0-.09934.03852-.0392.03852-.0392.10948v.35883h-.17637V7.0761h.17165v.07704q.0635-.0946.1926-.0946m.74063 0q.12164 0 .1926.08582v-.38654h.1757v.9731h-.17233v-.0723q-.07231.08921-.19597.08921-.13516 0-.22605-.09867-.09089-.09865-.09089-.24598 0-.14731.09089-.24598t.22605-.09867m.03244.16422q-.0757 0-.12232.0517t-.04662.12873.04662.12874.12232.0517q.075 0 .12197-.05103.04697-.051.04697-.1294t-.04697-.12942-.12197-.05103"/></svg>