<svg class="nok-icon %s" height="16" width="16" fill="currentColor" xmlns="http://www.w3.org/2000/svg" viewBox="0 0 16 16"><path d="M0 8.18h16v.1H0zm6.92-1.23a.1.1 0 0 0 .03-.2h-.07c-.12.05-.1.2.04.2m2.28-.02c.07-.05.05-.15-.03-.18H9.1c-.17.06-.04.27.1.18m5.04.02c.13.01.17-.15.05-.2h-.08c-.11.04-.1.19.03.2m-13.17.57.02-.05q.07-.08.16-.06l.24.38h.23l-.26-.4c.36-.1.3-.6-.08-.62h-.5V7.8h.2zm0-.57c.1 0 .24-.02.33 0 .12.01.15.2.05.26-.11.06-.26-.04-.34.1l-.03.08zm3.6.52c0-.02.08-.06.1-.06q.1 0 .16.08l.2.3h.24l-.3-.43q-.12-.08-.25-.01l-.04.02q0-.02.02-.03l.56-.57h-.24l-.1.1q-.16.18-.34.35v-.45h-.2v1.02h.2zm3.35.32h.86v-.17h-.75.04a1 1 0 0 0 .32-.23l.38-.45v-.17h-.8v.17h.67L8.62 7c-.14.07-.45.45-.56.59q-.05.05-.04.13.02.04 0 .08Zm-5.2 0c.17.08.27-.05.31-.2q0-.04.02-.06v.26h.18V6.77h-.18v.36c-.21-.24-.5-.05-.53.23-.02.16.05.35.2.42Zm.13-.6c.25-.04.26.44.04.46-.24.02-.25-.43-.04-.46m7.12.35h-.19c-.07.22-.32.12-.33-.08h.54c.06-.62-.84-.57-.71.06.07.38.6.39.7.02Zm-.48-.28c.08-.17.29-.1.3.07h-.28q-.09 0-.02-.07m-5.41.28h-.19c-.09.22-.33.13-.33-.08h.54a.37.37 0 0 0-.72 0c.03.43.6.47.7.08m-.5-.27c.05-.11.19-.15.28-.05.01.02.07.11.02.11h-.3q-.02-.01 0-.06m7.95.27h-.19s-.04.08-.07.1c-.14.09-.25-.05-.26-.18h.54c.04-.59-.78-.6-.72.02.03.4.6.45.7.06m-.23-.33c.01.01.08.12.04.12h-.32c.01-.13.17-.23.28-.12m-1 .34.04-.03q.09-.01.14.07l.14.2h.2l-.23-.31a.2.2 0 0 0-.18-.02l-.03.02q0-.02.02-.03c.11-.12.28-.27.38-.39l.01-.02c-.06.01-.16-.02-.22.01l-.26.27v-.55h-.19v1.02h.19z"/><path d="M2.1 7.8c.52.04.51-.8.03-.78s-.46.76-.03.79m.02-.63c.23-.03.24.45.03.47-.24.02-.25-.45-.03-.47m5.22.43q-.03-.04-.02-.06c-.02-.02-.15 0-.19 0 0 .35.73.35.66-.02-.04-.18-.3-.17-.41-.23-.13-.07.07-.2.17-.12l.04.08h.17c.04 0 0-.07 0-.08-.11-.24-.66-.2-.6.12 0 .07.08.13.15.15.08.03.33.04.28.16-.04.1-.21.08-.26 0Zm7.78-.04q-.02-.17-.19-.2c-.05-.03-.22-.05-.25-.1-.06-.1.15-.15.22-.08l.02.07h.18c0-.33-.66-.3-.6.03q0 .05.03.08c.09.13.36.1.4.18.07.12-.2.2-.27.04q0-.04-.03-.04h-.16v.05c.07.3.67.28.65-.03m-2.36-.28.02-.07h-.01l-.01-.02v-.43h-.18l-.01.04v.98h.19q-.02-.25 0-.5m-7.12.05.03-.08c.06-.08.16-.07.24-.05l-.01-.1c0-.03.03-.06-.01-.08-.12-.05-.22.04-.23.16l-.01.05v-.2c-.02-.02-.15 0-.19 0v.75h.19zm.6.47q.18 0 .25-.2h-.02c-.04.08-.19.08-.23 0l-.02-.04v-.52l-.01-.02h-.17l-.01.02v.5c0 .1.08.24.2.25Z"/><path d="M12.78 7.22c.03-.07.16-.08.2-.02.02 0 .05.06.05.06v.53h.18l.01-.05c0-.12.01-.42-.01-.53-.07-.26-.39-.25-.44 0Zm-.57 0 .03.06v.51h.18v-.55l-.02-.08a.21.21 0 0 0-.42.05H12c.04-.06.17-.07.22 0m1.6.41c-.05.06-.17.07-.22.01l-.04-.07v-.52h-.18v.56l.06.12c.12.16.34.1.38-.1m-7.32 0v.17h.19v-.74l-.02-.01H6.5l-.02.02c-.01.15.02.34 0 .48l-.01.07q.02-.04.01 0Z"/><path d="M6.49 7.62q0-.05-.02 0zm7.32 0c.02.04 0 .13 0 .17h.2v-.75h-.18q-.02.02-.02.07v.45l-.02.06zm-.01 0q.01-.01 0 0m.37-.58-.02.01v.74h.2v-.74l-.03-.01zm-2.2.22.02-.04q-.03 0 0 0-.04-.03-.02-.05v-.05l-.01-.08h-.18v.75h.2zm.02-.04q-.02 0 0 0m-2.95-.18h.18v.75h-.18zm-2.21 0h.18v.75h-.18zm-.03 1.8c-.02 0-.06 0-.03-.02.04-.02.05 0 .07-.04.05-.1-.02-.17-.12-.18h-.18v.5h.18l.08-.03c.09-.04.09-.18 0-.22Zm-.23-.2c0-.03.16-.01.18 0 .09.02.09.14 0 .17-.02 0-.18.03-.18 0zm.17.41c-.02.01-.17.02-.17 0v-.2h.17q.05 0 .08.06.03.12-.08.14m1.96-.01-.1-.32h-.03l-.1.32-.01-.01-.08-.3h-.04c.03.03.09.34.1.35h.04c.01-.01.08-.29.1-.32l.1.32h.04c.02-.01.08-.32.1-.37h-.03zm.8-.32h-.05l-.18.2v-.36h-.03v.53h.03v-.13l.07-.06c.02 0 .1.16.13.18h.05l-.16-.2zm-1.7 0c-.17.03-.18.38.04.38.02 0 .15-.02.11-.05l-.1.02c-.1 0-.15-.08-.14-.16h.26q0-.2-.17-.2Zm.13.16h-.2c-.03 0 0-.08.01-.1.05-.05.14-.06.18 0 0 .02.03.1.01.1m-.84-.16c-.17.03-.19.38.04.38.02 0 .15-.02.11-.05l-.1.02q-.15-.02-.15-.16h.27q0-.2-.18-.2Zm.12.16h-.2c-.03 0 0-.08.02-.1.04-.05.13-.06.17 0 .01.02.04.1.01.1m.37-.14-.1.3-.13-.31h-.04l.14.35h.03c.02 0 .13-.31.15-.35zm1.5-.02v.47c0 .03-.07.05-.1.03v.03l.11-.01.02-.04v-.47zm-.94.04q0 .02-.02.03v-.07h-.04v.37h.04v-.23l.02-.06q.02-.05.09-.06c.03 0 .06.02.05-.03q-.09-.01-.15.05Zm.77-.03v.36h.05v-.36c0-.02-.05-.02-.05 0m.02-.15c-.02 0-.02.07.02.06.02 0 .01-.07-.02-.06m.15 0c-.02 0-.01.07.02.06.02 0 .02-.07-.02-.06"/></svg>