<svg class="nok-icon %s" height="16" width="16" fill="currentColor" xmlns="http://www.w3.org/2000/svg" viewBox="0 0 16 16"><path d="M13.49573 11.56517c.01821-.09107.04553-.18213.07285-.2732-1.67558-.5828-.36425-1.73022-.8651-2.74103-2.395-.77405-.77405 2.77746.79225 3.01423"/><path d="M13.82356 5.0905c-.19123-.19124-.52817-.37337-.856-.45533-1.08367-.26408-.96528.6921-1.11099.90154-.428.63745-.47353.7194-.2914.77405.16391.04553.23677.03642.23677.09106 0 .1275-.17303.1275-.00911.2914l-.05464.05465c-.08196.10017.08196.12749.04553.18212-.1457.1366-.05464.23677 0 .2641.21856.12748 1.30222.03642 1.58452 1.03812.1275-.12749.25498-.21855.40068-.27319l.02732-.01821c1.07456-.47354 2.4041.7103 1.08367 2.18554-.39158.43711-.88332.78315-1.1383 1.21116.08195.02732.1548.04553.23676.06374.37337-.5646 1.1292-.9926 1.52078-1.45703.54638-.64655 1.16562-2.43141-1.22937-2.63176-.37337-.02731-.1366-.37336.07285-.50996.67388-.4371.2823-.77404-.40068-.8651h-.05464c-.04553 0-.08196-.00911-.11839-.01822-1.31132-.21855-.52817-.74673.05464-.8378Z"/><path d="M12.0478 5.59135c.07286-.0091.10018.0091.1275.03642.04553.05464-.05464.19124.11838.20035.11839.0091.16392-.07286.20034-.15481.03643-.10017-.02732-.1457-.10017-.16392-.10927-.02732-.25498-.04553-.34604.02732v.04553Z"/><path d="M12.96756 4.63517c.428.10928.8651.40069 1.01081.64656 0 0 .53728-.2823-.23676-.68298-.22767-.10928-.64656-.2823-1.1383-.33694-.81048-.08196-.81048.75583-.89244 1.11098-.04553.19124-.25498.44622-.34604.62835-.17303.34604-.10017.32783.12749.428.17302.07285.04553.40068.02732.5646-.03643.34604.30961.31872.65566.40979.60102.1548.89243 1.0017.94707 1.23847.07285.2914.32783.4098.90153-.30962.16392-.20944.2732-.10017.20945.02732-.12749.25498-.2823.45533-.48264.66477-.05464.05464-.08196.1457-.07285.22766.2732-.16391.52817-.4371.7012-.73762.10927-.17302.21855-.07285.17302.06375-.1275.34604-.36426.65566-.62835.93796-.06374.06375-.09106.1366-.09106.23677.30962-.21856.54639-.48264.7103-.80137.08196-.1457.20034-.05464.15481.08196-.10017.2914-.31872.7012-.63745.97439-.10928.09106-.10928.18213-.10928.24587.32783-.21855.43711-.34604.64656-.65566.10017-.15481.20945-.05464.1366.10017-.1457.30962-.30052.50085-.5737.72851-.33695.29141-.61925.71941-.6921 1.1383-1.5572-.23676-3.18725-3.78827-.79226-3.01422-.01821-.04553-.05464-.09107-.09106-.11838-2.80478-1.2658-1.5481 2.9778.97439 3.29652.10927-.63745.78315-1.03813 1.284-1.60273 1.49346-1.68469-.428-2.9778-1.51166-1.89414-.2732-1.0017-1.36597-.91064-1.58452-1.03813-.05464-.02732-.1457-.12749 0-.26409.04553-.05463-.1275-.08195-.04554-.18212.03643-.04554.05464-.05464.05464-.05464-.16391-.17303 0-.16392.0091-.2914 0-.04554-.08195-.04554-.23676-.09107-.18213-.05464-.1366-.1366.2914-.77405.14571-.20945.03643-1.17473 1.111-.90154ZM4.22538 11.3284l.21856-.2823c.02732-.03642.05464-.06374.08196-.09106s-.2823 0-.2823 0v-.11839h.45532v.09107l-.20945.26408c-.02732.03643-.05464.07286-.08196.10017s.30052 0 .30052 0v.11839h-.48265zm.61014-.49175h.1457v.5737h-.1457zm.07285-.09106c-.04554 0-.08196-.03643-.08196-.08196s.03642-.08196.08196-.08196.09106.03643.09106.08196-.03642.08196-.09106.08196m.35515.31872c0-.05463.04553-.1366.12749-.1366s.11838.09107.11838.1366h-.25498Zm.39157.10017v-.06374c0-.11838-.06374-.2732-.24587-.2732s-.2823.15482-.2823.30963.10928.2914.30051.2914.15481-.01821.20034-.03642l-.0182-.10018c-.04554.01822-.09107.02732-.15482.02732s-.17302-.04553-.17302-.1548h.38247Zm.2823-.08195c.00911-.01822.02732-.04554.04554-.06375l.1457-.18213h.17302l-.20945.22766.24588.34605h-.18213l-.16392-.25498-.04553.05464v.20034h-.1457v-.8378h.1457v.50997Zm.58281-.01822c0-.05463.04554-.1366.1275-.1366s.11838.09107.11838.1366H6.5111Zm.38248.10017v-.06374c0-.11838-.06375-.2732-.24588-.2732s-.2823.15482-.2823.30963.10928.2914.30051.2914.15481-.01821.20035-.03642l-.01822-.10018c-.04553.01822-.09106.02732-.1548.02732s-.17303-.04553-.17303-.1548h.38247Zm.1457-.1548v-.17303h.12749v.09107h.0091c.02732-.04553.08196-.10017.18213-.10017s.20034.06374.20034.24587v.34604h-.1457v-.32783c0-.08195-.02732-.1366-.10928-.1366s-.10017.04554-.10927.08196v.39158h-.1457v-.40068Zm.7012-.43711h.1457v.34604c.0182-.02732.04553-.05464.07285-.06374.02732-.01822.06374-.02732.10017-.02732.10017 0 .20034.06374.20034.24587v.34604h-.1457v-.32783c0-.08195-.02732-.1457-.10928-.1457s-.10017.03643-.11838.08196v.38247h-.1457zm1.21115.66477v.17302h-.1275v-.09107h-.0091c-.02732.03643-.08196.10017-.18213.10017s-.20034-.06374-.20034-.25498v-.33693h.1457v.30962c0 .10017.02732.1548.10928.1548s.10017-.03642.10928-.08195v-.39158h.1457v.40068Zm.18213-.40069h.1457v.5737h-.1457zm.07285-.09106c-.05464 0-.08196-.03643-.08196-.08196s.03643-.08196.08196-.08196.08196.03643.08196.08196-.03643.08196-.09107.08196Zm.24587.53728c.03643.01821.09107.04553.1457.04553s.09107-.02732.09107-.06374-.02732-.06375-.10017-.08196c-.10928-.03643-.15481-.10017-.15481-.16392 0-.10017.08196-.18213.21855-.18213s.11839.01822.15481.03643l-.02732.10928c-.02732-.01822-.07285-.03643-.11838-.03643s-.08196.02732-.08196.06375.02732.05463.10017.07285c.10017.03642.15481.09106.15481.17302 0 .10928-.08196.18213-.23676.18213s-.1275-.01822-.17303-.03643l.02732-.10928ZM1.03813 9.28856H.87422c-.02732-.18213-.19124-.2914-.33694-.2914s-.19124.03642-.19124.1548c0 .21856.74673.04554.74673.53728s-.23677.37337-.47353.37337-.2732-.02732-.38247-.10928l-.04553.09106h-.1457v-.45532h.1639c.01822.18213.17303.30962.37337.30962s.20034-.05464.20034-.1457c0-.25498-.75583-.04553-.75583-.54639s.26409-.36426.50085-.36426.22766.03643.32783.10018l.02732-.08196h.1457v.428Zm.9835.45532c0 .21856-.16392.30962-.35515.30962s-.428-.1457-.428-.428.20944-.43711.428-.43711.35515.09106.35515.2823-.05464.17302-.15481.17302S1.712 9.6073 1.712 9.51622s.05464-.12749.1366-.12749c-.02732-.03642-.08196-.05464-.1366-.05464-.09107 0-.17302.08196-.17302.2823s.05464.2823.17302.2823.12749-.08196.1366-.1548zm.51906-.8651v.47353c.07286-.10928.15481-.15481.29141-.15481.20034 0 .26409.11838.26409.2914v.32783c0 .04554.0091.07285.06374.07285h.06375v.1366h-.50996v-.1366h.03642c.04553 0 .06375-.02731.06375-.07285v-.2914c0-.10017-.01822-.17302-.1366-.17302s-.12749.07285-.12749.1457v.31872c0 .04554.0091.07285.06375.07285h.04553v.1366H2.1309v-.1366h.07286c.05463 0 .06374-.02731.06374-.07285v-.7194c0-.04554-.0091-.07286-.06374-.07286H2.1309v-.1366h.4098Zm.71941.33693h.49175v.1366h-.02732c-.03643 0-.06374 0-.06374.02731v.02732l.11838.428.12749-.428v-.02732c0-.0182-.02732-.02731-.06375-.02731H3.8156v-.1366h.47354v.1366H4.2527c-.03642 0-.06374 0-.06374.02731v.02732l.12749.43711.11838-.40979v-.04553c0-.01821-.02732-.02732-.06374-.02732h-.02732v-.1366h.37336v.1366H4.6625c-.03642 0-.06374.01821-.09106.10928l-.17302.5646H4.0888l-.1184-.39159-.12749.39158H3.5333l-.15481-.5646c-.02732-.09107-.07286-.10928-.10928-.10928h-.03643v-.1366Zm1.8304.44621c0 .11839.02731.23677.17302.23677s.1548-.04553.17302-.1457h.20034c-.02732.20945-.22766.30051-.4189.30051-.3005 0-.4371-.17302-.4371-.428s.19123-.43711.4371-.43711.43711.20034.43711.47353h-.5737Zm.26408-.1457V9.4707c0-.09107-.04553-.1457-.12749-.1457s-.12749.05463-.12749.1457v.04553zm.856.2914c0 .04554.00911.07286.06375.07286h.07285v.1366h-.5646v-.1366h.07286c.05463 0 .06374-.02732.06374-.07285v-.38247c0-.04554-.0091-.07285-.06374-.07285h-.08196v-.1366h.428v.59192Zm0-.81957c0 .09106-.06374.1548-.1457.1548s-.1457-.06374-.1457-.1548.06375-.1457.1457-.1457.1457.06374.1457.1457m.66478-.10017v.31872h.20944v.1366h-.20944v.47353c0 .03643.0182.06375.06374.06375.06375 0 .08196-.04553.08196-.1275V9.6164h.1366v.15481c0 .17302-.08196.26409-.29141.26409s-.2732-.09107-.2732-.26409v-.4371h-.11838v-.1366c.17302 0 .21856-.18213.23677-.31873h.17302Zm.76494.9926h.1548c.10018 0 .1457-.04553.1457-.1366v-.09106h.1366v.37336h-.76494v-.17302l.43711-.50085h-.16391c-.09107 0-.11839.03642-.11839.11838v.08196h-.1366V9.2157h.74673v.1457l-.44621.51907Zm.93796-.21856c0 .11839.02732.23677.17302.23677s.16392-.04553.17302-.1457h.20034c-.02732.20945-.22766.30051-.4189.30051-.3005 0-.4371-.17302-.4371-.428s.19123-.43711.4371-.43711.43712.20034.43712.47353h-.5737Zm.26408-.1457V9.4707c0-.09107-.04553-.1457-.12749-.1457s-.1366.05463-.1366.1457v.04553zm.40069-.30051h.40979v.1366c.03642-.08196.10017-.16392.20034-.16392s.20034.08196.20034.19123-.05464.15481-.1366.15481-.1366-.03642-.1366-.11838.03643-.09106.09107-.10017c-.01821-.01821-.03642-.01821-.05464-.01821-.09106 0-.1457.10927-.1457.20034v.30962c0 .04553.0091.07285.06375.07285h.07285v.1366h-.5555v-.1366H9.325c.04553 0 .06374-.02732.06374-.07285v-.38247c0-.04554-.0091-.07285-.06374-.07285h-.07286v-.1366ZM.81958 7.19408l.2823.86511c.03642.10928.06374.1366.11838.1366h.05464v.1548H.64656v-.1548H.7012c.05463 0 .10017 0 .10017-.02732s0-.03643-.00911-.06375l-.03643-.11838H.40068l-.01821.06375c-.01821.06374-.02732.09106-.02732.10927s.06375.03643.10928.03643h.05464v.1548H0v-.1548h.05464c.06374 0 .09106-.02732.12749-.1366l.2914-.8651zm-.37336.63745H.7012l-.1275-.37336zm1.37507.30051c0 .04554.0091.07285.06374.07285h.06375v.1366h-.5555v-.1366h.07286c.04553 0 .06374-.02731.06374-.07285v-.7194c0-.04554-.0091-.07286-.06374-.07286h-.08196v-.1457h.428v.93796Zm.38247-.7194c0-.04554-.00911-.07286-.06375-.07286h-.08196v-.1457h.428v.428c.06375-.06374.1457-.11838.22767-.11838.26408 0 .35515.20034.35515.4371s-.09107.42801-.35515.42801-.20945-.03643-.26409-.1366l-.05464.10928h-.20034v-.93796Zm.2914.53727c0 .17303.03643.2823.1366.2823s.1366-.10927.1366-.2823-.03643-.2914-.1366-.2914-.1366.10928-.1366.2914m1.05635.03643c0 .11838.02732.23677.17302.23677s.15481-.04553.17302-.15481h.20034c-.02732.20945-.22766.30051-.4189.30051-.2914 0-.4371-.16392-.4371-.428s.19123-.43711.4371-.43711.43712.20034.43712.47353h-.5737Zm.26408-.1457V7.7951c0-.09107-.04553-.15481-.1366-.15481s-.12748.06374-.12748.1548v.04554zm.428-.30051h.4098v.1366c.03642-.08197.10017-.16392.20034-.16392s.20034.08195.20034.19123-.05464.15481-.1366.15481-.1366-.03643-.1366-.11838.03643-.10017.09107-.10928c-.01821-.01821-.03642-.01821-.05464-.01821-.09106 0-.1457.11838-.1457.20034v.30962c0 .04553.0091.07285.06374.07285h.07286v.1366h-.5555v-.1366h.07285c.05464 0 .06375-.02732.06375-.07285v-.38247c0-.04554-.0091-.07285-.06375-.07285H4.2527v-.1366Zm1.31133-.32784v.32784h.20945v.1366h-.20945v.48263c0 .03643.01822.06375.06375.06375.06374 0 .08196-.04553.08196-.1275v-.12748h.1366v.1457c0 .17302-.08197.26409-.29141.26409s-.2732-.09107-.2732-.26409v-.4371h-.11838v-.1366c.17302 0 .21855-.18213.23677-.32784h.17302Z"/></svg>