<svg class="nok-icon" height="16" width="16" fill="currentColor" xmlns="http://www.w3.org/2000/svg" viewBox="0 0 16 16"><path d="M11.24303 10.70566a.7217.7217 0 0 0 .49435.192.68855.68855 0 0 0 .7029-.672.6466.6466 0 0 0-.21187-.47338.7338.7338 0 0 0-.9931 0 .6433.6433 0 0 0 0 .94896Zm.49325-.81545a.394.394 0 0 1 .26703.10041.31448.31448 0 0 1 0 .47338.40386.40386 0 0 1-.53628 0 .32.32 0 0 1-.11034-.23614.3586.3586 0 0 1 .37959-.33765"/><path d="M14.33269 9.75338a.1633.1633 0 0 0-.0971-.0309.1655.1655 0 0 0-.13352.06842 2.9352 2.9352 0 0 1-2.37573 1.18841h-.01544a2.9396 2.9396 0 0 1-2.36028-1.14759.1655.1655 0 0 0-.23062-.0342.1644.1644 0 0 0-.0342.23062 3.2706 3.2706 0 0 0 2.624 1.2822h.01765a3.2662 3.2662 0 0 0 2.64827-1.32413.1644.1644 0 0 0-.04303-.23283M5.20497 5.29434a.7217.7217 0 0 0-.49435-.192.7228.7228 0 0 0-.49655.19642.6433.6433 0 0 0 0 .94896.7217.7217 0 0 0 .49434.192.7228.7228 0 0 0 .49656-.19641.6433.6433 0 0 0 0-.94897m-.76138.71945a.32.32 0 0 1-.11035-.23613.3586.3586 0 0 1 .37407-.34097.394.394 0 0 1 .26703.10041.32.32 0 0 1 .11035.23614.3586.3586 0 0 1-.37407.34097.3917.3917 0 0 1-.26703-.10042"/><path d="M7.36331 5.97076a3.2706 3.2706 0 0 0-2.6251-1.2811h-.01766a3.2662 3.2662 0 0 0-2.64827 1.32413.16441.16441 0 0 0 .13462.26373.1655.1655 0 0 0 .13351-.06842 2.9352 2.9352 0 0 1 2.38235-1.1884h.01545a2.9385 2.9385 0 0 1 2.36027 1.14759.16552.16552 0 0 0 .26483-.19642ZM3.86207 8.0993a1.17 1.17 0 0 1-.0618.38731.839.839 0 0 1-.17765.30014.8.8 0 0 1-.27917.1931.932.932 0 0 1-.36414.06842.927.927 0 0 1-.36083-.06842.7945.7945 0 0 1-.27917-.1931.883.883 0 0 1-.18097-.30014 1.104 1.104 0 0 1-.0651-.38731 1.07 1.07 0 0 1 .0662-.3862.872.872 0 0 1 .18428-.29683.828.828 0 0 1 .27587-.1887.905.905 0 0 1 .35972-.07172.916.916 0 0 1 .35752.06842.817.817 0 0 1 .27917.1909.872.872 0 0 1 .18097.29682 1.104 1.104 0 0 1 .0651.38731m-.51973 0a.64.64 0 0 0-.09379-.37076.3079.3079 0 0 0-.26924-.13462.3123.3123 0 0 0-.27034.13462.629.629 0 0 0-.096.37076.6466.6466 0 0 0 .096.37407.3101.3101 0 0 0 .27034.13793.3057.3057 0 0 0 .26814-.13793.6555.6555 0 0 0 .08938-.37407Zm1.99283-.44469q-.06841-.01655-.1611-.03531a.993.993 0 0 0-.19862-.01876.88.88 0 0 0-.11035.00883.66.66 0 0 0-.10151.01876v1.37269h-.5131V7.2993a3.09 3.09 0 0 1 .3233-.09048 1.876 1.876 0 0 1 .416-.04304h.09931q.05849 0 .11587.01324.05848.00883.11586.02097a.55.55 0 0 1 .0993.02869Zm1.87917 1.1178q0 .44137-.22068.65434t-.69297.21296a1.876 1.876 0 0 1-.33103-.02869 2.05 2.05 0 0 1-.30456-.07724l.08938-.42703a1.5 1.5 0 0 0 .25159.07503 1.49 1.49 0 0 0 .29903.02759.415.415 0 0 0 .31007-.096.342.342 0 0 0 .09049-.24607v-.0651a.817.817 0 0 1-.16994.05627.883.883 0 0 1-.1909.02428.7294.7294 0 0 1-.57158-.2207.8883.8883 0 0 1-.19862-.61682 1.004 1.004 0 0 1 .0618-.36083.772.772 0 0 1 .17986-.27807.8055.8055 0 0 1 .2891-.17875 1.115 1.115 0 0 1 .3862-.0629q.0927 0 .1898.00883t.1931.02207.18318.032.15558.03972Zm-1.1189-.72828q0 .42703.34539.42703a.508.508 0 0 0 .14676-.02096.552.552 0 0 0 .11586-.04745v-.81214q-.03752-.00662-.08938-.01214t-.12028 0a.3509.3509 0 0 0-.30124.13352.5517.5517 0 0 0-.0971.33214m2.27972.55062a.772.772 0 0 0 .18649-.01876.342.342 0 0 0 .11806-.05076.172.172 0 0 0 .0618-.07724.276.276 0 0 0 .01765-.09931.2284.2284 0 0 0-.11034-.1931 1.567 1.567 0 0 0-.37297-.16552q-.11586-.04083-.23283-.0938a.86.86 0 0 1-.20855-.13351.64.64 0 0 1-.15007-.1942.607.607 0 0 1-.05848-.27808.689.689 0 0 1 .0618-.29572.629.629 0 0 1 .17434-.2207.795.795 0 0 1 .27365-.14123 1.236 1.236 0 0 1 .36083-.05407 1.4566 1.4566 0 0 1 .7018.16441l-.15449.42042a1.435 1.435 0 0 0-.22069-.09049.96.96 0 0 0-.29241-.03972.5374.5374 0 0 0-.27586.05296.1788.1788 0 0 0-.08938.16221.1876.1876 0 0 0 .0309.11035.298.298 0 0 0 .08717.08055.77.77 0 0 0 .1302.0651q.07393.0287.16221.05959.18428.06841.3222.13462a.86.86 0 0 1 .22732.15558.563.563 0 0 1 .14345.20745.839.839 0 0 1 .04413.29021.6157.6157 0 0 1-.23282.5142q-.23614.18208-.7051.18208a1.99 1.99 0 0 1-.2836-.01876 1.88 1.88 0 0 1-.22068-.04635 1.32 1.32 0 0 1-.16773-.05848 1.21 1.21 0 0 1-.11807-.05848l.14676-.42483a1.324 1.324 0 0 0 .26152.10372 1.357 1.357 0 0 0 .3818.04966m1.99723-1.4389a1.18 1.18 0 0 1 .37628.05076.585.585 0 0 1 .24165.14676.541.541 0 0 1 .128.23172 1.148 1.148 0 0 1 .03752.30345v1.05931q-.11034.02428-.30455.05628a2.935 2.935 0 0 1-.47228.032 1.5 1.5 0 0 1-.31669-.0309.684.684 0 0 1-.24165-.0982.4635.4635 0 0 1-.1578-.18318.629.629 0 0 1-.05517-.27696.523.523 0 0 1 .0629-.26593.4855.4855 0 0 1 .16993-.17435.772.772 0 0 1 .24276-.0938 1.37 1.37 0 0 1 .28359-.02868 1.66 1.66 0 0 1 .17655.00883.77.77 0 0 1 .12469.02206V7.8676a.2814.2814 0 0 0-.07504-.20966.3818.3818 0 0 0-.27365-.07834 1.766 1.766 0 0 0-.2571.01875 1.104 1.104 0 0 0-.2207.05297l-.0651-.40938q.04414-.01324.11035-.02869t.14565-.02758q.07835-.01214.16552-.02097t.17434-.00883m.04083 1.48966h.14345a.99.99 0 0 0 .11034-.00993v-.38621q-.0309-.00662-.09269-.01324a.99.99 0 0 0-.11034-.00662.99.99 0 0 0-.13572.00882.353.353 0 0 0-.11035.032.1876.1876 0 0 0-.07503.0651.18.18 0 0 0-.02759.10263.1743.1743 0 0 0 .08055.16552.4414.4414 0 0 0 .21848.04193Zm1.8527-1.48966a1.18 1.18 0 0 1 .37627.05076.585.585 0 0 1 .24165.14676.541.541 0 0 1 .128.23172 1.148 1.148 0 0 1 .03752.30345v1.05931q-.11035.02428-.30455.05628a2.935 2.935 0 0 1-.47228.032 1.5 1.5 0 0 1-.31669-.0309.684.684 0 0 1-.24496-.10041.4635.4635 0 0 1-.1578-.18317.629.629 0 0 1-.05517-.27697.523.523 0 0 1 .0629-.26593.4855.4855 0 0 1 .16993-.17435.772.772 0 0 1 .24276-.09379 1.37 1.37 0 0 1 .28358-.02869 1.66 1.66 0 0 1 .17656.00883.77.77 0 0 1 .12468.02207v-.04745a.2814.2814 0 0 0-.07834-.20855.3818.3818 0 0 0-.27366-.07835 1.766 1.766 0 0 0-.2571.01876 1.104 1.104 0 0 0-.22069.05297l-.0651-.40938q.04414-.01324.11034-.0287t.14566-.02758q.07834-.01214.16552-.02096t.18096-.00773m.04083 1.48966h.14345a.99.99 0 0 0 .11034-.00993v-.38621q-.0309-.00662-.09269-.01324a.99.99 0 0 0-.11034-.00662.99.99 0 0 0-.13573.00882.353.353 0 0 0-.11034.032.1876.1876 0 0 0-.07504.0651.18.18 0 0 0-.02758.10263.1743.1743 0 0 0 .08055.16552.4414.4414 0 0 0 .21738.04193m3.66234-.99421a.64.64 0 0 0-.11034-.25931.534.534 0 0 0-.2207-.16883.905.905 0 0 0-.3542-.05958.9545.9545 0 0 0-.5131.16772.717.717 0 0 0-.20524-.11917.85.85 0 0 0-.3167-.04966q-.0993 0-.20192.00883t-.19973.02428-.18427.0342-.15228.03531v1.73573h.5098V7.61379l.0993-.01213h.09931a.235.235 0 0 1 .2207.10262.7007.7007 0 0 1 .0629.34869v.95337h.50427v-.98537q0-.09931-.00662-.18649a.772.772 0 0 0-.0309-.16551.441.441 0 0 1 .12138-.05076.464.464 0 0 1 .11034-.02097.235.235 0 0 1 .2207.10262.7007.7007 0 0 1 .06289.3487v.66206c0 .1578.22731.2858.5098.29131V7.98676a1.655 1.655 0 0 0-.02539-.33545M.66207 8.55172q.12359-.20524.28027-.43034t.3189-.44138q.1611-.21186.31117-.39062t.2549-.28248v-.37297H.05517c0 .24828.13352.448.29131.448h.77242q-.13352.16-.2891.36635t-.30566.4171q-.15117.22069-.2891.43034T0 8.68303v.3178h1.86483v-.4491Z"/></svg>