<svg class="nok-icon %s" height="16" width="16" fill="currentColor" xmlns="http://www.w3.org/2000/svg" viewBox="0 0 16 16"><path d="M11.24 10.7a.7.7 0 0 0 .5.2.7.7 0 0 0 .7-.67.7.7 0 0 0-.21-.48.73.73 0 0 0-1 0 .64.64 0 0 0 0 .95Zm.5-.81a.4.4 0 0 1 .26.1.3.3 0 0 1 0 .47.4.4 0 0 1-.53 0 .3.3 0 0 1-.11-.23.36.36 0 0 1 .38-.34"/><path d="m14.33 9.75-.1-.03a.2.2 0 0 0-.13.07 3 3 0 0 1-2.37 1.19h-.02a3 3 0 0 1-2.36-1.15.2.2 0 0 0-.23-.03.16.16 0 0 0-.03.23 3.3 3.3 0 0 0 2.62 1.28h.02a3.3 3.3 0 0 0 2.65-1.32.16.16 0 0 0-.05-.24M5.2 5.3a.7.7 0 0 0-.49-.19.7.7 0 0 0-.5.2.64.64 0 0 0 0 .95.7.7 0 0 0 .5.19.7.7 0 0 0 .5-.2.64.64 0 0 0 0-.95m-.77.72a.3.3 0 0 1-.1-.23.36.36 0 0 1 .37-.34.4.4 0 0 1 .26.1.3.3 0 0 1 .11.23.36.36 0 0 1-.37.34.4.4 0 0 1-.27-.1"/><path d="M7.36 5.97A3.3 3.3 0 0 0 4.74 4.7h-.02a3.3 3.3 0 0 0-2.65 1.32.16.16 0 0 0 .14.27.2.2 0 0 0 .13-.07 3 3 0 0 1 2.38-1.19h.02A3 3 0 0 1 7.1 6.17a.17.17 0 0 0 .26-.2M3.86 8.1a1 1 0 0 1-.06.39 1 1 0 0 1-.18.3 1 1 0 0 1-.28.19 1 1 0 0 1-.36.07 1 1 0 0 1-.36-.07 1 1 0 0 1-.28-.2 1 1 0 0 1-.18-.3 1 1 0 0 1-.07-.38 1 1 0 0 1 .07-.39 1 1 0 0 1 .18-.3 1 1 0 0 1 .28-.18 1 1 0 0 1 .36-.07 1 1 0 0 1 .36.06 1 1 0 0 1 .28.2 1 1 0 0 1 .18.3 1 1 0 0 1 .06.38m-.52 0a.6.6 0 0 0-.1-.37.3.3 0 0 0-.26-.14.3.3 0 0 0-.27.14.6.6 0 0 0-.1.37 1 1 0 0 0 .1.37.3.3 0 0 0 .27.14.3.3 0 0 0 .27-.14 1 1 0 0 0 .09-.37m2-.45-.17-.03-.2-.02h-.1l-.1.03V9h-.52V7.3l.32-.1A2 2 0 0 1 5 7.18h.21l.12.03.1.03ZM7.2 8.77q0 .44-.22.66t-.69.21l-.33-.03-.3-.08.08-.42.26.07.3.03a.4.4 0 0 0 .3-.1.3.3 0 0 0 .1-.24V8.8l-.17.06-.2.02a.7.7 0 0 1-.57-.22 1 1 0 0 1-.2-.61 1 1 0 0 1 .07-.37 1 1 0 0 1 .18-.27 1 1 0 0 1 .29-.18 1 1 0 0 1 .38-.07l.2.01.18.03.19.03q.1 0 .15.04Zm-1.1-.73q0 .43.34.43l.15-.02.11-.05v-.8q-.03-.02-.09-.02t-.12 0a.4.4 0 0 0-.3.13.6.6 0 0 0-.1.33m2.29.55.18-.01.12-.05.06-.08.02-.1a.2.2 0 0 0-.11-.2L8.28 8l-.24-.1-.2-.13-.16-.2-.05-.27a1 1 0 0 1 .06-.3l.17-.22a1 1 0 0 1 .28-.14 1 1 0 0 1 .36-.05 1.5 1.5 0 0 1 .7.16l-.16.42-.22-.09a1 1 0 0 0-.29-.04 1 1 0 0 0-.28.06.2.2 0 0 0-.08.16l.03.1.08.09.13.06.17.06.32.14.23.15.14.21a1 1 0 0 1 .04.3.6.6 0 0 1-.23.5q-.24.19-.7.19l-.29-.02-.22-.05-.17-.06-.11-.05.14-.43.26.1a1 1 0 0 0 .39.05m2-1.43a1 1 0 0 1 .37.05l.24.14.13.24a1 1 0 0 1 .04.3v1.06l-.3.05-.48.04-.32-.03-.24-.1-.16-.19-.05-.27.06-.27.17-.17.24-.1.29-.03.17.01.13.03v-.05a.3.3 0 0 0-.08-.21.4.4 0 0 0-.27-.08l-.26.02-.22.05-.06-.4.1-.04q.07-.02.15-.02l.17-.03zm.04 1.49h.15l.1-.01v-.4h-.09l-.1-.01h-.14l-.11.04-.08.07-.02.1a.2.2 0 0 0 .08.16.4.4 0 0 0 .21.05m1.86-1.5a1 1 0 0 1 .37.06l.24.14.13.24a1 1 0 0 1 .04.3v1.06l-.3.05-.48.04-.31-.03-.25-.1-.16-.19a1 1 0 0 1-.05-.28l.06-.26.17-.18.24-.09.29-.03.17.01.13.02v-.04a.3.3 0 0 0-.08-.21.4.4 0 0 0-.27-.08l-.26.02-.22.05-.07-.4.11-.04.15-.03.16-.02q.08-.02.19 0m.04 1.49h.14l.11-.01v-.4h-.1l-.1-.01h-.14l-.1.04-.08.07-.03.1a.2.2 0 0 0 .08.16.4.4 0 0 0 .22.05m3.66-1a1 1 0 0 0-.11-.26l-.22-.17a1 1 0 0 0-.36-.06 1 1 0 0 0-.5.17l-.21-.12a1 1 0 0 0-.32-.05l-.2.01-.2.03-.19.03q-.09.01-.15.04V9h.51V7.61h.2a.2.2 0 0 1 .22.1 1 1 0 0 1 .06.34v.96h.5V7.83l-.03-.16.12-.05.11-.02a.2.2 0 0 1 .22.1 1 1 0 0 1 .06.35v.66c0 .16.23.29.51.3V7.98zm-15.3.9.27-.43q.15-.23.32-.44l.31-.4q.15-.18.26-.27v-.38H.06c0 .25.13.45.29.45h.77l-.29.37q-.16.2-.3.42l-.3.43-.23.38V9h1.86v-.45Z"/></svg>