<svg class="nok-icon %s" height="16" width="16" fill="currentColor" xmlns="http://www.w3.org/2000/svg" viewBox="0 0 16 16"><path d="M7.22 9.72q-.1-.09-.18-.19a1 1 0 0 1-.16-.47V8.2h-.56v-.28h1.41v.28h-.55v.87l.02.1q.06.2.2.32c.01.02-.15.19-.16.23zM0 8.22c.02-.17.2-.3.36-.3h.68v.2h-.7l-.07.05c-.08.08-.03.21.07.23.18.02.4-.04.57.04.24.1.27.44.05.6s-.12.07-.15.07H.06v-.22h.72l.07-.05c.08-.09.01-.21-.1-.23-.2-.02-.44.06-.6-.06A.3.3 0 0 1 0 8.3zm12.05-1.94.14.04-.02.1c-.02.01-.18-.07-.23 0s.13.15.19.19c.1.07.11.24 0 .32s-.24.03-.34-.01l.03-.1c.06.01.24.07.26-.02.04-.15-.24-.13-.27-.29s.05-.2.17-.23zM4.3 9.66h-1c-.6-.05-.95-.65-.73-1.22.32-.8 1.57-.77 1.71.14l.02.23zM4 9.37c-.02-.36.12-.92-.26-1.14-.51-.3-1.11.24-.91.79.07.19.29.35.5.35zM15.9 8.2h-1.02c-.09 0-.18.1-.2.19-.01.15.1.24.24.25.2.01.42-.02.62 0 .4.03.6.52.35.82-.07.09-.23.2-.34.2h-1.08v-.29h1.04l.12-.06c.14-.13.06-.37-.12-.39-.36-.04-.88.13-1.07-.28-.15-.31.07-.73.42-.73h1.02l.01.01zm-7.36-.33a.92.92 0 1 1-.73 1.3.92.92 0 0 1 .73-1.3m-.35 1.37c.3.3.8.22 1-.15a.63.63 0 0 0-.73-.91.64.64 0 0 0-.27 1.05m4.54-1.33v.9c.02.36.25.63.63.6.25-.03.48-.29.48-.53v-.96h.3v.96c-.13 1.19-1.76 1.03-1.7-.15.02-.25-.03-.55 0-.79V7.9zM6.31 9.66h-.3V8.7L6 8.59c-.15-.6-.99-.56-1.08.09q-.02.48 0 .98h-.3v-.9a.86.86 0 0 1 1.7-.04zm5.19 0h-.3v-.85c0-.27-.1-.54-.4-.62-.42-.12-.69.2-.71.6-.02.28.01.58 0 .86h-.3v-.83q0-.24.1-.47c.3-.61 1.16-.65 1.49-.05s.12.52.12.82zm.62-1.75v1.75h-.3V7.93l.02-.02zm-10.08 0v.22h-.35v.36l.02.1q.04.14.15.24L1.73 9c-.04 0-.18-.18-.2-.22l-.07-.25v-.4h-.33v-.2l.01-.02zm7.2-1.61c.02-.03.13 0 .16 0 .06.03.12.23.16.3l.04.1v-.4c.02 0 .12-.01.12.01v.65h-.14l-.2-.45v.45h-.13zm.87-.01v.26l.01.01h.21V6.3c0-.02.11-.02.12 0v.64c0 .03-.1 0-.12.01v-.28h-.22v.28h-.13V6.3c0-.02.1-.01.13-.01m.72 0v.44l.02.06c.05.1.2.07.22-.05s-.02-.3 0-.44c0-.03.1 0 .12-.01v.49c0 .08-.11.17-.19.18-.39.05-.28-.42-.3-.65.02-.04.1-.02.13-.02m-2.72.26h.07c.03-.03.08-.23.11-.26s.1 0 .12 0c.02.01-.11.24-.11.28s.03.03.04.05c.05.09.07.23.12.33h-.13c-.04-.04-.07-.25-.1-.28s-.08 0-.12 0v.27c0 .02-.1.01-.12.01V6.3h.12zm-1.65.3h.3v.1h-.43c-.02 0-.02-.08-.02-.1l.28-.45h-.26v-.1h.4l.02.1zm1.29-.45h-.22c-.05 0-.05.13-.04.16h.25v.11h-.25v.12q.01.04.05.06h.22l-.01.1c-.14 0-.37.04-.39-.15v-.36q.04-.14.2-.15h.17c.04 0 .01.08.02.11M9 6.3v.11h-.22c-.04 0-.06.16-.03.16H9v.11h-.24c-.02 0-.02.18.04.18h.21v.1c-.12 0-.31.04-.37-.1a1 1 0 0 1 0-.44q.02-.09.1-.1l.07-.02zm-2.03 0h.13v.66h-.13zm4.59 0v.66h-.13V6.3c0-.02.1-.01.13-.01"/></svg>