<svg class="nok-icon %s" height="16" width="16" fill="currentColor" xmlns="http://www.w3.org/2000/svg" viewBox="0 0 16 16"><g><path d="M2.58 6.71a1.29 1.29 0 1 1-2.58 0 1.29 1.29 0 0 1 2.58 0m-.29 0a1 1 0 1 0-2 0 1 1 0 0 0 2 0"/><path d="M3.36 8.31a.77.77 0 1 1-1.55 0 .77.77 0 0 1 1.55 0m-.28 0a.49.49 0 1 0-.98 0 .49.49 0 0 0 .98 0m-.44 1.42a.85.85 0 1 1-1.7 0 .85.85 0 0 1 1.7 0m-.28 0a.57.57 0 1 0-1.14 0 .57.57 0 0 0 1.14 0m1.63-.9.82-1.04h-.8v-.24h1.12v.25l-.82 1.03h.84v.24H3.99zm2.57-.79h.25v.17q.09-.18.3-.2h.06v.24H7.1c-.23 0-.27.2-.27.27v.55h-.26zm1.82 0v.94c0 .37-.18.6-.58.6a1 1 0 0 1-.5-.17l.14-.2q.16.15.36.15c.25 0 .32-.15.32-.35v-.08a.4.4 0 0 1-.34.16c-.3 0-.5-.25-.5-.54s.19-.54.5-.54a.4.4 0 0 1 .35.19v-.16zm-.84.51c0 .16.1.33.3.33.18 0 .3-.16.3-.33s-.12-.33-.3-.33-.3.15-.3.33m1.16-1h.54c.4 0 .83.2.83.76 0 .53-.44.76-.83.76H8.7zm.5 1.28c.27 0 .58-.1.58-.52s-.3-.52-.59-.52h-.22v1.04zm3.92-.4v.64h-.26V8.5c0-.12-.03-.27-.2-.27-.15 0-.22.15-.22.28v.56h-.26v-.62q0-.2-.19-.22c-.15 0-.22.14-.22.27v.57h-.26V8.04h.25v.17c.05-.1.16-.2.32-.2q.24.01.32.2.1-.2.34-.2c.26 0 .38.2.38.42m1.21.2h-.77c0 .15.14.26.29.26q.19 0 .27-.13l.17.13q-.15.21-.44.21c-.32 0-.55-.2-.55-.54 0-.33.23-.55.54-.55.29 0 .5.19.5.56zm-.26-.19c0-.13-.07-.24-.24-.24-.15 0-.27.1-.28.24zm.47-.4h.26v1.02h-.26zm.5 0h.25v.16c.05-.1.17-.2.32-.2.27 0 .38.2.38.42v.64h-.26V8.5c0-.12-.02-.27-.19-.27-.16 0-.24.14-.24.27v.57h-.25zm-3.72.5a.55.55 0 1 1-1.1 0 .55.55 0 0 1 1.1 0m-.23 0a.33.33 0 1 0-.65 0 .33.33 0 0 0 .65 0m-4.73 0a.55.55 0 1 1-1.1 0 .55.55 0 0 1 1.1 0m-.22 0a.33.33 0 1 0-.66 0 .33.33 0 0 0 .66 0m8.7-.82a.16.16 0 1 1-.33 0 .16.16 0 0 1 .33 0"/></g></svg>