<svg class="nok-icon %s" height="16" width="16" fill="currentColor" xmlns="http://www.w3.org/2000/svg" viewBox="0 0 16 16"><path d="M14.98 7.14q-.01.06.03.06c.04 0 .26-.16.29-.13l.7 1.29v.04c-.25-.02-.54-.2-.78-.23s.03.09.01.1l-.13-.01c-.14 0-.63-.03-.73 0s-.15.17-.15.19c0 .04.09.07.1.07.02.04-.17.3-.2.34s-.04.04-.07.03c0 0 0-.17-.05-.14s-.14.17-.15.18c-.01.05.18.22.2.23.08.03-.02-.2.03-.2l1.07.88-.94-.14c-.04-.03-.02-.38-.13-.38h-.54q-.03.01-.03.07c.01.05.22.4.2.43-.3-.1-.58-.3-.88-.41-.13-.05-.07 0-.1.02-.06.01-.08-.04-.11-.05l.1-.08c.02.13.03.05.09 0 .02.01.13.05.15.04l.02-.06v.09l.16-.15c.04.02.02.1.02.1h.32c.03-.02-.13-.24-.13-.3l.25-.23.19.12c.01-.02-.04-.23-.06-.27l.2-.2q.06.1.08.22c.02.12 0 .06.03.03.02-.06.16-.18.16-.23s-.12-.09-.14-.15q.07-.09.16-.16l.12.08c.05.01.33-.23.32-.25-.08 0-.15-.05-.21-.06q.05-.04.02-.1c-.03-.06-.08-.07-.08-.13l.58.02v-.47c-.23.08-.45.22-.66.33s-.03 0-.05 0l-.05-.06-.1.12h-.1l-.04-.1.18-.06c.06-.01.05-.03.08-.04.08-.01.16.06.2-.08zm.15 1-.26-.32-.2.18zm.03.02v.02zm-.9 1.17-.15-.12c0 .12.02.13.15.12m-1.68.06-.54.4c0-.02.01-.21-.04-.15l-.05.2.09-.01q0 .29.04.58h-.02l-.58-.7h.04l.12-.4c.07 0 .36.07.37.12s-.01.12.03.13l.08-.35c.02.02.4.16.46.19Zm-7.8-1.3.6-.87c.18-.2.6-.21.83-.09s.15.14.18.13l.24-.15c.33-.12.84-.08 1 .28s.06.14.06.15V8.9h-.6V7.75l-.06-.1c-.11-.1-.48-.07-.48.08v1.16h-.63V7.73c0-.12-.23-.15-.32-.14s-.21.1-.21.16v1.14h-.6v-.74l-.6.7v-1.1c0-.16-.3-.19-.42-.13s-.12.1-.12.13v1.14h-.6V7.77L3 7.7c-.12-.17-.51-.1-.51.08V8.9h-.6V7.1h.54v.15l.27-.15q.45-.14.81.17c.32-.3.99-.31 1.21.1s.07.13.07.16zM1.52 6.38v.51H.64v.48h.7v.52h-.7v.49h1v.52H0V6.38zm8.2 2.15c.02.01-.13.34-.16.38-.06.07-.2.02-.27-.02l-.16-.11c-.01 0-.18.11-.24.13-.48.16-1.06-.12-.93-.69.08-.42.63-.46.98-.48 0-.4-.6-.21-.83-.12q-.04-.22-.04-.45.16-.09.34-.1c.44-.07 1.03.02 1.1.55s-.06.73.09.86.12.05.12.05m-.76-.42-.27.03c-.35.07-.23.5.1.37s.19-.22.18-.4Zm1.25-.4.12-.34-.62.04-.1-1.32 1 .7.04-.06.06.12q-.05-.04-.1-.03c-.03.07-.26.5-.24.53l.56-.04c.01-.01-.14-.3-.16-.33s0-.06 0-.07l.1.04-.4-.61q.34.08.66.18c.32.1.12.05.15.07l.05.24-.02.06-.03.01.03.01h.04v.06c-.08 0-.1.2-.13.23l-.27-.16.14.23q.06.02.07.01c.02.02-.02.04-.02.05-.03-.03-.19-.03-.19-.01l.08.2a.4.4 0 0 0 .1-.17c.04 0 .12.18.15.14l.09-.33c.04 0 0 .07.02.08s.13 0 .16-.02l-.12.85q-.08 0-.15.02c-.07.02-.01 0-.02 0l-.12-.31-.67.06.05-.05.43-.21zm.85-.16c.02.04.05.19.08.2s.29.02.29-.02-.32-.15-.37-.18m-.3.6c.06.05.04.06.08.09s.23.24.25.24c.03 0 .11-.09.13-.12h.05q.04.04.1.06v.1l.13.02-.13.05.19.08-.43.02c-.05.01.1.12.13.13.12.02.25-.02.36-.02h.06l-.2.2c-.06 0-.16.1-.2.13s0 .03-.01.04h-.06l-.09.08.02.06s-.05.07-.04.08c.03.02.07-.02.08-.02h.04c.05.13.2.2.23.32-.29.05-.63.02-.93.05l.57-.49-.15-.17c-.06 0-.3.19-.38.15L10 8.65l1.03.01c-.03-.09-.46-.37-.47-.4s-.01-.06.01-.05c.04-.01.2.01.2-.06Z"/><path d="m14.36 6.46.02-.33.44.05c-.02.05-.13.1-.15.15s0 .04.03.03L15.87 6l-.89.68v-.03c-.02-.05-.09.07-.1.1l.1-.02v.3l.25.02-.25.1v-.1c-.1.02-.26 0-.37.03l.08-.13-.14.07c-.02-.02-.11-.33-.16-.37l.2-.23q-.11.01-.22.06Zm.49.3v.03zm-3.47-.19c-.13-.1-.34-.13-.47-.22s-.04 0-.03-.05c.32-.04.66-.2.97-.26s.08-.02.1.03l.24-.26v.66l.33-.06-.15.18.15.03q-.1 0-.19.02c0-.03-.13-.12-.14-.1v.12l-.09.02-.14-.58q-.24.23-.43.5c-.19.26-.05.02-.05.02zm1.94-.33.25-.04c.02-.02-.04-.15-.02-.18s.5-.23.58-.27c.03.03-.4.61-.35.73 0 .04.29 0 .33 0l-.25.46c-.13.25-.03 0-.06.09s0 .07-.06.06l-.04-.08-.03-.06c.1-.02 0-.11-.04-.14s-.02.02-.02.02h-.02v-.05c.04-.05.15-.22.16-.28s-.05 0-.03-.05q-.05.05-.11.04h-.02l-.02-.27c-.07.05-.19.17-.17.25h-.1q0-.12.02-.23l-.75.14.8-.8q-.01.33-.05.66m.45.7v.03zm-3.57.77q.37-.08.75-.14l-.44.21-.04.05.67-.06.11.31c-.06.01-.37.06-.39.1l.35.17c-.02.03-.1.13-.13.12s-.22-.2-.26-.24-.02-.04-.07-.08l-.1-.09c-.05-.04-.18-.2-.22-.22s-.1.05-.13.06h-.06c-.08-.02-.14-.1-.08-.17z"/><path d="M13.32 6.25q-.02.11-.02.23l-.78.15-.15-.03.15-.18.06-.02zM11.46 9c.07 0 .19.08.27.06v.03l-.06.18-.02.04q-.08.2-.13.4h-.08c-.03-.14-.19-.21-.23-.34l.4-.08-.36-.12.01-.04c.05-.04.14-.13.2-.13m-.76-2.15.06.06q.01.04 0 .07c.02.03.17.32.16.33l-.56.04c-.02-.02.21-.46.23-.53q.06 0 .1.03m3.92.2.37-.01v.1l-.54.2c-.05.15-.13.08-.21.1l-.08.03-.06-.13q.16-.01.3-.08c.13-.07.1-.12.18-.19s.01-.01.04-.02m-.5-.57q.04-.08.1-.1l.03.1.02.12v.06a2 2 0 0 0-.37.3c-.03.09.15.07.14.16l-.1.02h-.04q0-.1-.09-.1c.03-.1.03-.05.06-.1zm-3.47 1.6a1 1 0 0 1-.35-.17c.03 0 .08-.07.13-.06s.18.18.22.22m.73-1.49c.02 0 .06.05.1.05v.04q-.08.06-.13.16c-.05.1-.03 0-.04 0l-.04-.24zm-1.22 1.16q-.06.12.08.16c-.01.04-.18.12-.19.1 0-.03.08-.16.06-.18s-.1-.02-.1-.06c.05-.02.12 0 .16-.02m4.2-1.28.23-.06-.2.23h-.05v-.15z"/><path d="M14.34 6.48v.1l-.08.02-.02-.12zm.64.23-.1.03c.01-.03.08-.16.1-.1zm.92-.75q.03.01 0 .03zm-.5 2.69-.25.88-.5-.72c-.04.02-.06.12-.1.12s-.24-.1-.25-.13l.25-.13-.2-.32zm-.68-.02c-.07.02-.16.03-.13.1.05.14.1-.03.13-.1m-1.91.68c-.05.05-.07.13-.1 0l-.1.08h-.03l-.46-.18c-.02-.01.05-.05-.08-.03-.02-.07.07-.02.1-.04s.03-.13.02-.16c.22.09.42.23.65.33m-.77.52h-.08l.04-.19c.05-.06.04.13.04.15z"/><path d="m11.94 7.39.26.51.05.09v.02c-.04.03-.13.05-.17.07s-.04.08-.07.11c-.08.08-.2.1-.13.25-.11 0-.22.05-.33.04l-.02.06q.2-.03.39-.08c.19-.05.06-.03.1-.02.04.06-.04.23-.04.26.02.05.33.07.35-.09s-.07-.14.06-.15.1.08.16.1c.13.04.29-.02.33-.02s.07.12.15.1v.06q-.01.15-.04.27c-.03.12-.03.18-.04.27l.06-.03c.02-.05.01-.17.02-.24l.05-.27q.05-.14.02-.32c-.03-.18 0-.05 0-.06h.04v-.05c.12.02.25-.03.37-.04.02-.01-.12-.3-.14-.35.24-.04.17.26.26.33s.1-.02.13 0 .03.17.02.2l.17-.02-.03.05-.2.2-.13.15-.25.23-.2.2-.16.15-.01-.09-.02.06c-.01.01-.12-.03-.15-.04-.22-.1-.42-.24-.64-.33h-.05c-.01-.05-.07-.04-.1-.06l-.15-.06-.08-.04-.15-.08c-.09-.04-.06-.05-.1-.06l-.19-.09.13-.05h-.13v-.11q.04-.17.06-.35l.13-.85q.02-.22.07-.43l.32.6Z"/><path d="M13.5 6.6q.04.1.1.19c.06.09 0 .03 0 .04-.12.05-.13.22-.15.33l.25-.14.04.08.06.08.1.23c.04.08.05.08.06.13s.03.07.05.1l.1.2.08.15.02.08v.09q-.08.06-.16.16c-.08.1-.08.06-.1.08l-.17.02c0-.04 0-.19-.02-.2s-.1.04-.13 0c-.09-.07-.02-.37-.26-.33-.03-.07-.1-.13-.1-.21.13.04.37.16.51.23s.21.13.32.16c.05-.03.01-.03-.02-.04a1 1 0 0 0-.28-.13q-.03-.04-.07-.06l-.86-.41c-.43-.2-.06-.02-.06-.02-.04-.02-.1-.1-.14-.11 0-.02.2-.19.23-.24s0-.02 0-.02h.02c-.02.05.04.04.07.03.1-.02.09-.1.13-.16l.1-.19c.07-.1.16-.1.22-.2q.04.03.06.08m.8.98c.22-.11.44-.26.66-.33v.47l-.58-.02c0 .06.06.08.09.13l-.23-.09.12-.02z"/><path d="M14.03 7.12h.12c0 .07.15.1.21.13s.02.01.02.02a1 1 0 0 1-.29.08l.06.13-.18.06-.06-.13q.06-.05.16-.04c.03-.03-.13-.19-.15-.23zm.27.46.06.14-.12.02.23.08q.03.06-.03.1h-.1c-.04-.05-.16-.07-.23-.08l-.1-.2h.1c.12 0 .08-.03.15-.06s.03 0 .04 0m-.95 1.44c0 .06.15.28.12.31h-.31c-.01 0 .02-.09-.02-.1z"/><path d="M15.13 8.13 14.67 8l.2-.18zm-1.08.19c.02.06.15.1.14.15s-.14.17-.16.23c-.03.03-.03-.01-.03-.03q-.02-.12-.08-.22l.03-.05zm.2-.74c-.05.03-.02.06-.14.06l.1-.13zm0 1.75c-.12.02-.13 0-.14-.12zM12.1 6.7q-.2.04-.43.06v.06c.05.14.23.43.3.58h-.03l-.32-.6q-.05.21-.08.43c-.03.01-.15.04-.16.02s.02-.08-.02-.08l-.09.33c-.03.04-.1-.14-.14-.14v-.02c0-.01.04-.03.02-.05s-.04.01-.07-.01-.15-.22-.14-.23l.27.16c.03-.02.05-.23.13-.23.05.21.06 0 .09-.04s.06-.02.1-.02c-.06-.1-.04-.13-.03-.22s-.02-.03-.02-.03v-.04q.02 0 .05-.03c.15-.16.27-.35.43-.49zm-.73.41v.02z"/><path d="M11.25 8.1h.02c-.02.05.05.1.05.15s-.07.06-.06.1h-.05q-.18-.07-.35-.17c.02-.03.34-.08.4-.1Zm.23-1.43.02.02c0 .1-.03.13.02.22q-.05 0-.1.03c-.04.03-.03.25-.08.04s0-.05 0-.06h-.04V6.9l.02-.06.03-.01q.06-.09.14-.16Z"/><path d="m11.42 8.07-.06.35c-.04 0-.08-.05-.1-.06-.01-.04.05-.07.05-.1s-.06-.1-.04-.16q.07-.03.15-.03m-.12-1.16h-.03q.02-.02.03-.01zm.5 1.9q-.02.15-.07.25c-.08.02-.2-.05-.26-.06l.2-.2h-.06l.05-.06zm-.55.36.35.12-.39.08c-.13.02-.03 0-.04 0q0-.04-.05-.06-.02-.01-.01-.05c0-.04.07-.07.08-.08z"/><path d="m11.54 8.67.1.06-.04.06c-.11 0-.24.04-.36.02s-.18-.11-.13-.12zm-.37.7c-.01 0-.05.04-.08.03l.04-.09q.05.01.05.06Zm3.68-2.6v.02zm-1.46-.3q-.07.11-.17.2c-.1.1-.02.05-.02.05l-.02.03-.02.02-.03.02-.02.02-.02.02-.06.05c-.08.07-.1.08-.15.16s0 .01 0 .02q-.05 0-.1.04c-.12.1-.23.26-.36.37s-.04.05-.06.06l-.06.06c-.01.02-.14.14-.16.13q-.06-.17-.16-.33c-.1-.16-.26-.44-.3-.58l-.02-.06q.23-.01.44-.06c.21-.05.06-.02.08-.03q.08 0 .15-.02l.19-.02.78-.14c.26-.04.06 0 .08 0Zm-.17.26-.11.18c-.05.07-.03.14-.13.17s-.08.02-.07-.04q.08-.06.15-.14c.07-.08.03-.05.04-.06l.02-.02.02-.03.02-.02.03-.02.02-.02zm.38.1h.02q.02.07.06.13c.04.06 0 .04.02.06l-.25.14c.02-.12.03-.28.15-.33m.02-.33q.06.01.11-.04c-.02.04.03.04.03.05-.01.06-.12.23-.16.28l-.1-.18q.09-.01.12-.1Z"/><path d="M13.6 6.5h.02q-.02.1-.13.1 0-.05-.06-.08V6.5zm.29.64c-.05 0-.1-.03-.09.04l-.06-.08c.06 0 .05-.03.06-.06q.09.01.09.1m-.75-.35.02-.02zm.04-.04.02-.02zm-.08.08.02-.02zm0 0-.04.06-.03-.02zm.02-.02.02-.02zm.04-.04.02-.02zm.27-.27v.02c-.06.1-.15.11-.21.2h-.02l.02-.04q.1-.1.17-.2h.02q0 .02.02.02m.34.45v.03zm-1.75 1.97-.16.18c.07-.04.18-.11.26-.12h.05l-.03.16c-.02.02-.12-.03-.1.04q-.18.06-.37.09l.06-.19c.05 0 .05.05.06 0s.03-.17.09-.22zm2.24-2.25.08.4h.23c-.08.07-.07.13-.19.2l-.02-.03c.01-.21-.07-.13-.2-.12s-.1 0-.13 0c0-.09-.17-.07-.14-.15s.3-.27.37-.3"/><path d="M13.89 7.14h.04c.01.04.18.2.15.23q-.1-.01-.17.04l-.1-.23c-.01-.07.03-.03.08-.04m.45-.51h.02v.02q-.03-.01-.02-.02m.38 2c-.03.07-.08.24-.13.1s.06-.08.13-.1m-2.4-.54.07.17.05.1-.31.04c-.1.02-.05.03-.09.05.04.05.08-.03.09-.03.14 0 .18-.02.3-.04s.05 0 .07 0c.18-.03.42-.08.6-.06v.06h-.04l-.03.27c-.08.02-.12-.1-.15-.1s-.2.05-.33.01-.03-.1-.16-.1-.05.08-.06.15c-.03.17-.34.14-.35.09s.08-.2.04-.25q-.06-.01-.1.02-.01-.02-.04-.02c-.07-.15.05-.17.13-.25s.04-.1.07-.11.13-.04.17-.08l.06.09Zm.94-.41c.01.08.08.14.1.2s.17.34.15.36c-.12 0-.25.05-.37.04.05-.18.07-.41.08-.6v-.02l.05.02Z"/><path d="M13.14 8.28v.04h-.05c-.18-.02-.41.03-.6.06l.13-.14.08-.08q.04-.01.06-.06h.02c.1.03.25.17.35.18Zm-1.16-.89q.1.16.16.33c.03.02.14-.1.17-.13l.04.13h-.16c-.02.05 0 .03.02.05l.12.07c-.04.03-.07.08-.13.06l-.26-.51zm.54.56-.03.06c-.09-.01-.08.11-.18.08l-.06-.08v-.02l.14-.1zm.58.43c.03.12 0 .2-.02.33h-.05v-.06l.03-.27zm-1.22.07.04.02-.39.08.02-.06z"/><path d="m12.4 7.89-.15.1-.05-.08q.08-.01.13-.06zm.68.82-.05.27H13l.04-.27zm-.05.27c0 .07 0 .19-.02.23s-.04.03-.06.04l.04-.27zm.77-1.08h-.02c-.13-.06-.38-.19-.52-.22s-.01-.02-.04-.03c-.12-.01-.34.02-.48.03 0-.09.29-.11.21-.19-.06 0-.14.03-.08-.06.28.15.58.26.86.41s.06.03.07.06m-.9-.84c-.03.05-.24.22-.24.24.05.02.11.09.15.1-.08.08-.15.03-.23.03l.02.2q-.02.08-.06.02-.04-.1-.11-.18c.12-.11.23-.27.36-.37s.05-.05.1-.04Z"/><path d="M12.87 7.43c-.06.09.02.06.08.06.08.08-.21.1-.2.19l-.15.02c.03-.03 0-.06 0-.06l-.02-.21c.08 0 .15.05.23-.02zm1.47.5c-.03 0-.1.07-.15.06l-.08-.15c.07 0 .19.03.23.09"/><path d="M14.4 7.93c0 .06-.12.13-.18.14l-.02-.08c.05 0 .12-.06.14-.06zm-.6-.03q.15.04.29.13c.14.09.06 0 .02.04-.12-.03-.22-.11-.32-.16zm-.74-1q-.07.08-.15.14h-.02c.04-.09.07-.1.14-.17zm1.1.22c.13 0 .21-.1.2.13-.06-.02-.2-.06-.2-.13m-2.8-.02q.03 0 0 .02zm1.24.54s.04.03 0 .06h-.16q0-.1-.06-.17l.06-.06q.07.08.1.18c.04.1.04.03.07-.01Z"/><path d="m12.43 7.7-.08.02-.04-.13.06-.06q.05.07.06.17m.07.3q.02.04 0 .07c-.01.03-.06.04-.04.08.21.04.07.04-.03.1h-.04l-.08-.16c.1.03.1-.1.18-.08Zm.12.24-.13.14h-.06v-.02l-.04-.1h.04z"/><path d="M12.43 8.36v.02c-.13.02-.17.04-.3.04V8.4zm-.3.04v.02c-.01 0-.06.08-.09.03l.08-.05m1.1-.74v.02l-.44.42h-.02c-.03-.07-.13-.07-.16-.09l-.08-.06-.13-.06-.06-.04-.12-.08c-.04-.03-.04 0-.02-.05h.16q.07 0 .08-.02h.17l.14-.02c.14 0 .36-.04.48-.02"/><path d="M13.14 8.28c-.11-.02-.25-.15-.35-.19l.43-.41c-.02.19-.03.42-.08.6M12.6 8l-.06.05.17.1-.09.08-.18.02c.09-.06.23-.06.02-.1-.01-.05.04-.06.05-.09V8l.01-.06z"/><path d="m12.77 8.1-.06.05-.17-.1.06-.05c.04.02.14.02.17.09Z"/></svg>