<svg class="nok-icon" height="16" width="16" fill="currentColor" xmlns="http://www.w3.org/2000/svg" viewBox="0 0 16 16"><path d="M4.0547 5.77109a.3883.3883 0 0 0 .14496-.31063.3917.3917 0 0 0-.14668-.31615c-.10354-.08387-.2133-.10043-.34514-.10043h-.1674v.83178h.16498c.13806 0 .2454-.01656.35136-.10354m-.41797-.6423h.06903c.10354 0 .19466.01311.27611.08041a.32512.32512 0 0 1 .00483.49355c-.08145.07145-.17257.08594-.2806.08594h-.06937Zm-3.02343.10492.69305.67854v-.86906h-.09871v.64403l-.69374-.67958v.867h.0994zm1.58592.64092h.46111v-.08594h-.36205v-.3265h.351V5.3766h-.351v-.24677h.36205v-.08594h-.4611zm3.30506-.08594h-.36205v-.3265h.3517V5.3766h-.3517v-.24677h.36205v-.08594h-.4611v.83178h.4611zm.97537-.27921h.02485l.26852.36515h.12149l-.28267-.37275c.13805-.01104.22261-.10147.22261-.22952 0-.18775-.15704-.22951-.32546-.22951h-.1284v.83178h.09906Zm0-.37966h.02934c.11907 0 .2264.01312.2264.15014 0 .12908-.1132.1491-.22537.1491h-.03037Zm1.59178.65887h-.24539v-.74584h-.09871v.83178h.3441zm1.1331-.78554-.41037.87148h.10837l.10734-.23607h.37965l.10355.23607h.1094Zm-.15462.54947.1522-.3334.14841.3334Zm1.46339-.31891.69339.67854v-.86906h-.09906v.64403l-.69338-.67958v.867h.09905zm2.1026.53635a.3903.3903 0 0 0 .14495-.31063.391.391 0 0 0-.14737-.3165c-.10354-.08386-.2133-.10043-.34514-.10043h-.16774v.83179h.16463c.13806 0 .24505-.01657.35135-.10354m-.41796-.64196h.07144c.10354 0 .195.01311.27611.08041a.32547.32547 0 0 1 .00484.49355c-.08146.07145-.17257.08594-.28095.08594h-.07144Zm1.6401.6744a.1788.1788 0 0 1-.17843-.15462l-.09664.02554a.2709.2709 0 0 0 .27611.21467c.15462 0 .27956-.11113.27956-.25678 0-.13219-.09802-.18638-.2133-.23366l-.05901-.0245c-.0604-.02555-.13806-.05868-.13806-.13012s.06903-.12908.14772-.12908a.1643.1643 0 0 1 .15324.09042l.07904-.04763a.2585.2585 0 0 0-.2302-.12908c-.1322 0-.2485.08283-.2485.21192 0 .11941.08938.16911.19327.21295l.05419.02209c.08283.03451.1636.06902.1636.16532s-.08698.16256-.18224.16256m1.5949-.0145h-.36206v-.3265h.351V5.3766h-.351v-.24677h.36205v-.08594h-.46145v.83178h.46145zM1.12273 10.1623H.99538l-.3617.3417v-.3417H.53876v.79797h.09492v-.34376l.02381-.02244.34825.3662h.13046l-.4121-.4266zm2.05876 0h-.09457v.79797h.32892v-.08284H3.1815zm2.18957-.00034h.09422v.79796h-.09422zm2.79425.6178-.66267-.65163v.83214h.09457v-.61504l.66302.65059v-.83352h-.09492zm2.13331-.6178h.09457v.79796h-.09457zm2.12606.7983h.4404v-.08283h-.34583v-.31304h.33548v-.08249h-.33548v-.23745h.34583v-.08215h-.4404zm3.04414-.79796h-.12701l-.3617.3417v-.3417h-.09458v.79797h.09457v-.34376l.02347-.02244.3479.3662h.13081l-.4121-.4266zM1.28599 6.2429C.43626 6.2429 0 7.14508 0 8.0031s.43626 1.76022 1.286 1.76022 1.28633-.90185 1.28633-1.76021-.43695-1.76022-1.28634-1.76022m0 2.53057c-.33237 0-.52772-.37758-.52772-.77s.19535-.77002.52772-.77002.52738.37759.52738.77001-.1957.77-.52738.77m3.17494-.89218c.2385-.14047.33479-.43039.33479-.68303 0-.70132-.43591-.9581-1.14586-.9581h-.92809v3.5249h1.17106c.69477 0 1.22249-.31062 1.22249-1.0009 0-.38794-.20329-.809-.65577-.88356m-.9933-1.0896h.09663c.31442 0 .53704.09353.53704.4535s-.17671.46422-.54153.46422h-.09215Zm.15703 2.42219h-.15704V8.2309h.12149c.37551 0 .78105.01898.78105.47698s-.34514.50529-.7455.50529m2.32624-.955h1.30153v-.68028H5.94952v-.65818h1.3992V6.2391H5.3262v3.52526h2.06946v-.68062H5.94952zm2.69762-.48493c-.3165-.11562-.59054-.21536-.59054-.61331 0-.31718.1498-.4832.43315-.4832s.40485.16533.40485.53566v.05108h.46318V7.2117c-.00863-.64334-.30165-.9695-.87113-.9695-.84318 0-.90876.7355-.90876.96087 0 .67958.42073.83835.79141.97847.31753.11977.59122.22296.59122.62367 0 .3127-.18844.53117-.458.53117-.4618 0-.49872-.31062-.49872-.71547V8.5681h-.46318v.05108c0 .5688.11148 1.15.9374 1.15.22572 0 .96121-.07454.96121-1.03024 0-.6775-.42072-.83075-.7921-.96639m.94086-1.5331h.45282v3.5256H9.588zm2.6593.0031h-2.00664v.41796h.83455v3.10557h.33685V6.66051h.83524zm.61194.00034-1.16968 3.52043h.27438l.30649-.94361h1.43923l.30683.94361h.2944l-1.13274-3.52043Zm-.4832 2.27517.62125-1.94245.6178 1.94245Zm2.8091-.65957c-.36965-.13805-.69029-.2592-.69029-.7248 0-.35272.1919-.70856.62126-.70856.40381 0 .64506.25609.64506.68544v.12978h.185v-.1208c0-.40589-.21502-.8801-.82144-.8801-.64368 0-.81349.57258-.81349.87596 0 .58397.33651.75068.81211.9229.33997.1239.69028.2516.69028.7248 0 .59778-.37171.81038-.71927.81038-.42245 0-.6744-.29406-.6744-.78692v-.195h-.185v.195c0 .44869.22642.9726.86285.9726.62126 0 .90013-.48836.90013-.9726 0-.62125-.4328-.78588-.81488-.92946"/></svg>