<svg class="nok-icon %s" height="16" width="16" fill="currentColor" xmlns="http://www.w3.org/2000/svg" viewBox="0 0 16 16"><path d="M8.87 14.52H6.88a.8.8 0 0 1-.79-.79v-.1a1 1 0 0 1 .07-.33.16.16 0 1 1 .3.14l-.04.19v.1c0 .26.2.47.46.47h2q.14.01.16.16c.02.15-.08.17-.17.17Z"/><path d="M7.13 16a.2.2 0 0 1-.17-.17V15c0-.45.36-.8.8-.8q.15.01.16.16c.01.15-.07.17-.16.17a.47.47 0 0 0-.47.47v.84q-.01.15-.16.16m.85 0a.2.2 0 0 1-.17-.17v-.38c0-.31.25-.56.56-.56h.72c.25 0 .46-.2.46-.46v-.1a.47.47 0 0 0-.46-.48q-.16-.02-.17-.17c0-.15.08-.16.17-.16a.8.8 0 0 1 .79.8v.1a.8.8 0 0 1-.8.8h-.71q-.21.02-.23.22v.39q-.02.15-.17.16Zm-4.83-3.34H3.1a.22.22 0 0 1-.17-.27l.29-1.24-.1-2.48c-.04-.98.63-1.84 1.67-2.14.88-.25 1.5-.53 1.5-.53.14-.08.2-.14.27-.33a.22.22 0 0 1 .29-.12c.11.05.16.18.12.29-.1.24-.21.4-.5.55-.03.01-.65.3-1.57.56-.83.24-1.38.92-1.35 1.7l.1 2.53-.3 1.3a.2.2 0 0 1-.21.18Zm9.7 0a.2.2 0 0 1-.2-.15l-.45-1.31.1-2.56c.03-.8-.53-1.5-1.34-1.68-1.28-.28-1.73-.76-1.74-.78a.22.22 0 0 1 .01-.32.2.2 0 0 1 .31.02s.4.4 1.51.65a2.1 2.1 0 0 1 1.69 2.13l-.1 2.47.42 1.24a.22.22 0 0 1-.2.29Z"/><path d="M4.97 13.72a.2.2 0 0 1-.22-.22V8.98c0-.12.1-.22.22-.22s.22.1.22.22v4.52c0 .12-.1.22-.22.22m5.92 0a.2.2 0 0 1-.22-.22V8.98c0-.12.1-.22.22-.22s.22.1.22.22v4.52c0 .12-.1.22-.22.22M9.38 6.25a.2.2 0 0 1-.16-.08c-.44-.49-.46-1.35-.43-1.81v-.04c.01-.03.17-.7.48-1.16.03-.05.81-1.43-.4-2.33a2.3 2.3 0 0 0-2.5-.06l-.02.01c-.03.02-.68.32-.53 1.29 0 .07.04.42-.1.63l-.01.02-.45.52.36.07.04.1s.1.17.14.35l.01.05.03.5-.04.22q-.05.14-.02.2c.06.03.28.08 1-.07l.2-.04.05.2c0 .01.12.41-.04 1a.2.2 0 0 1-.27.14.22.22 0 0 1-.16-.27q.1-.35.07-.55c-.65.12-.9.06-1.04-.01h-.02l-.04-.03c-.25-.2-.2-.54-.14-.71s0-.04.02-.1l-.03-.43-.06-.16-.22-.05a.4.4 0 0 1-.29-.17.4.4 0 0 1-.03-.34l.02-.03.57-.67c.02-.05.04-.2.02-.32-.16-1.02.44-1.58.78-1.74 1.6-.9 2.91.05 2.97.1 1.23.9.87 2.3.51 2.91-.25.36-.38.9-.4 1-.03.34-.03 1.1.3 1.49a.22.22 0 0 1-.16.36Zm.17 7.6H7.1q-.16-.01-.17-.16c0-.15.08-.17.17-.17h2.45c.25 0 .46-.2.46-.46v-.1c0-.26-.2-.47-.46-.47H6.54q-.16-.02-.17-.17c0-.15.08-.16.17-.16h3.01c.44 0 .8.35.8.79v.1a.8.8 0 0 1-.8.8m-.81-1.72-.07-.01a.2.2 0 0 1-.08-.22l.04-.2v-.94q.02-.16.17-.17c.15 0 .17.08.17.17v.94a1 1 0 0 1-.08.34.2.2 0 0 1-.15.1"/><path d="M9.34 13.16h-3a.8.8 0 0 1-.8-.8v-.1a.8.8 0 0 1 .8-.79h1.22q.21-.02.23-.22v-.49q.02-.15.17-.16c.15-.01.16.07.16.16v.49c0 .3-.25.55-.55.55H6.34a.47.47 0 0 0-.47.47v.1c0 .26.21.46.47.46h3q.16.02.17.17c0 .15-.08.17-.17.17Zm-1.4-5.54a.2.2 0 0 1-.16-.16V4.78a.4.4 0 0 0-.3-.4l-1.9-.22a.16.16 0 0 1-.15-.19.16.16 0 0 1 .19-.14l1.91.22c.21.04.58.25.58.73v2.68q-.02.16-.17.17Zm.94 1.32q-.05 0-.08-.02l-.7-.39c-.13-.07-.3 0-.3 0l-.68.39q-.14.05-.22-.07c-.08-.12-.02-.18.06-.22l.7-.39c.01 0 .32-.16.6 0l.7.39a.17.17 0 0 1-.08.3"/><path d="M8.85 8.28q-.05 0-.08-.02l-.49-.27q-.5-.24-.5-.64.01-.15.16-.17c.15-.02.17.08.17.17 0 .06 0 .2.33.35l.49.27a.17.17 0 0 1-.08.31"/><path d="M7.04 8.28a.2.2 0 0 1-.14-.09.16.16 0 0 1 .06-.22l.48-.27c.34-.16.34-.3.34-.35q.02-.16.17-.17c.15 0 .16.08.16.17q0 .4-.51.64l-.47.27z"/><path d="M5.95 10.5a.5.5 0 0 1-.3-.11.5.5 0 0 1-.15-.3c-.2-2 1.05-2.9 1.1-2.93q.46-.3.83 0l.05.03.2.6a.16.16 0 0 1-.1.21.16.16 0 0 1-.21-.1l-.18-.5q-.18-.12-.4.03c-.04.04-1.14.83-.96 2.63 0 .1.1.1.13.1l1.3-.34c.03 0 .26-.1.28-.43v-.98a.16.16 0 1 1 .33 0v1c-.03.58-.5.72-.51.73L6 10.49zm4.01 0h-.08l-1.32-.36a.8.8 0 0 1-.52-.72v-1a.16.16 0 1 1 .33 0v.99c.02.33.26.41.28.42l1.3.34c.05 0 .13 0 .14-.1.18-1.8-.92-2.6-.97-2.63q-.22-.16-.4-.04l-.2.51a.17.17 0 1 1-.3-.12l.22-.6.04-.03q.4-.29.83 0c.05.05 1.3.94 1.1 2.94 0 .01 0 .18-.14.3a.5.5 0 0 1-.3.1Z"/></svg>