<svg class="nok-icon %s" height="16" width="16" fill="currentColor" xmlns="http://www.w3.org/2000/svg" viewBox="0 0 16 16"><path d="M10.9 16h-.53v-2.3l3.46-1.56a.8.8 0 0 0 .46-.9l-.74-3.67a.5.5 0 0 0-.25-.35.8.8 0 0 0-.84-.04.8.8 0 0 0-.38.66v2.36l-.18.06q-1.6.57-3.41.57H7.5q-1.83-.01-3.4-.56l-.17-.07-.03-.2V7.84a.8.8 0 0 0-.37-.66.8.8 0 0 0-.85.04.5.5 0 0 0-.25.35l-.74 3.67a.8.8 0 0 0 .47.9l3.45 1.56V16H5.1v-1.95l-3.14-1.42a1.34 1.34 0 0 1-.77-1.5l.74-3.66q.1-.47.5-.71c.46-.27.96-.28 1.38-.04.4.23.65.66.65 1.12v1.97q1.43.48 3.06.48h.98q1.65 0 3.06-.48V7.84c0-.46.24-.9.64-1.12.43-.24.93-.23 1.39.04q.38.24.5.7l.74 3.68c.12.62-.2 1.23-.77 1.5l-3.14 1.4zM8.03 9.76a3.46 3.46 0 1 1 0-6.92 3.46 3.46 0 0 1 0 6.92m0-6.38a2.93 2.93 0 1 0 0 5.85 2.93 2.93 0 0 0 0-5.85m-4.88.2a.3.3 0 0 0-.22.05l-.42.3-.29-.42a.3.3 0 0 0-.4-.07.3.3 0 0 0-.08.4l.46.68a.3.3 0 0 0 .41.07l.42-.3.29.42a.3.3 0 0 0 .4.08.3.3 0 0 0 .08-.41l-.46-.68a.3.3 0 0 0-.19-.12m.97-.5a.3.3 0 0 0 .29.23h.05a.3.3 0 0 0 .23-.35l-.16-.84a.3.3 0 0 0-.32-.23l-.58.07-.1-.57a.3.3 0 0 0-.35-.23.3.3 0 0 0-.23.35l.16.84a.3.3 0 0 0 .32.23L4 2.5zm1.67-.67.08.01a.3.3 0 0 0 .28-.22l.2-.81a.3.3 0 0 0-.2-.36L5.6.9l.14-.53a.3.3 0 0 0-.57-.14l-.2.81a.3.3 0 0 0 .2.36l.53.14-.13.53a.3.3 0 0 0 .21.35m6.71 2.43a.3.3 0 0 0 .24-.13l.3-.42.4.3a.3.3 0 0 0 .23.05.3.3 0 0 0 .2-.12l.45-.67a.3.3 0 0 0-.07-.41.3.3 0 0 0-.41.07l-.3.43-.4-.3q-.1-.07-.23-.06c-.13.01-.14.06-.19.12l-.46.68a.3.3 0 0 0 .08.4q.07.06.16.06m.45-2.5.16-.83a.3.3 0 0 0-.23-.35.3.3 0 0 0-.35.23l-.1.57-.58-.07a.3.3 0 0 0-.33.23l-.16.84a.3.3 0 0 0 .29.35.3.3 0 0 0 .29-.24l.1-.57.58.08a.3.3 0 0 0 .33-.23ZM9.7 1.4l.2.81a.3.3 0 0 0 .28.22h.08a.3.3 0 0 0 .2-.36l-.12-.53.53-.14a.3.3 0 0 0 .2-.36l-.2-.8c-.04-.16-.2-.26-.35-.22s-.26.2-.22.36l.14.53-.53.13a.3.3 0 0 0-.21.36"/></svg>