<svg class="nok-icon" height="16" width="16" fill="currentColor" xmlns="http://www.w3.org/2000/svg" viewBox="0 0 16 16"><path d="M8.83881 1.82003c1.01409.241 1.9468.61972 2.76995 1.23944 1.0266.77308 1.7997 1.73083 2.10016 3.01408.03756.16276.10955.26604.26291.34742.8263.42567 1.4773 1.036 1.80595 1.9155.41627 1.10484.23787 2.14084-.47575 3.08294-.22848.3036-.51017.55399-.8169.76995-.12832.09077-.09702.19405-.0626.30047.08764.2942.18467.58529.27544.8795.01565.05008.04068.10015.05007.15336.0313.1878.09077.40376-.10954.52582-.19093.1158-.3975.08451-.58216-.05633-.33177-.2504-.68232-.47575-.98905-.75118-.29108-.2629-.60407-.23474-.9421-.1878-.85132.11268-1.68075.00627-2.49139-.27855-.04382-.01565-.09076-.02817-.12832-.05321-.46949-.35368-.96714-.14398-1.45853-.08138-.61972.08138-1.23318.10955-1.85916.04382-.35054-.03756-.69796-.07825-1.04538-.15023-.11268-.02191-.19405-.00626-.29421.06885-.69797.52583-1.4022 1.04226-2.10642 1.55869-.06885.05008-.14397.08764-.21283.13771-.17214.12833-.34116.06886-.4914-.02816-.14084-.0939-.1377-.25666-.10015-.40063.08138-.30986.1784-.61972.2723-.92645.1252-.41001.2504-.82316.38185-1.23004.04069-.12833 0-.19719-.10329-.26605-.34741-.22535-.67605-.482-.964-.7762C.7543 9.8701.21283 8.9374.05008 7.82002c-.1471-1.01721.0313-1.98122.53208-2.88263.83881-1.51173 2.16275-2.3881 3.759-2.9327 1.10485-.37872 2.24413-.41002 3.38967-.35994.36307.01565.723.11267 1.10485.17527m-1.28012.5853c-.63537-.0094-1.26448-.02505-1.89672.08763-1.40532.25039-2.65728.79499-3.65571 1.84037C1.14867 5.22848.68232 6.277.80751 7.54147c.10329 1.06103.62911 1.90923 1.36463 2.6385.32238.31612.69171.57903 1.09234.80125.15649.08764.241.2191.2316.41628-.00938.16588-.07511.31299-.11267.46635-.08138.3255-.23161.6385-.27856 1.02973.50078-.35993.96714-.67292 1.40532-1.02034.21596-.17214.42254-.18153.66667-.12833.6917.14398 1.3928.24727 2.10016.19093.25665-.01878.53208.01252.81064-.12207-.37246-.3255-.6166-.70422-.79813-1.1205-.35993-.8169-.3662-1.64006-.00625-2.45383.39436-.89202 1.0798-1.48983 1.94679-1.90924.9421-.45383 1.93114-.56338 2.96087-.45696.21284.0219.42254.10016.64163.07825.00626-.0313.01252-.05008.0094-.0626-.29109-.83881-.83256-1.50235-1.51488-2.04695C10.241 2.9781 8.9734 2.54617 7.5587 2.4022m1.49608 9.17997c.1158.07512.22849.15962.35055.22222 1.00783.5133 2.06573.64789 3.17058.39124.20031-.04695.39124-.0313.56338.1158.15023.12833.31612.23475.4914.35994.01877-.16901-.05635-.29108-.0939-.4194-.06573-.22849-.00626-.40376.20344-.52583.482-.27856.87637-.6385 1.16119-1.1205.29108-.49765.40375-1.03599.27856-1.59311-.18153-.79812-.67919-1.37715-1.37715-1.7903-.723-.4288-1.50861-.6291-2.35055-.61033-1.16119.02504-2.1878.37872-2.98905 1.24883-.72613.78873-.89827 1.86541-.2942 2.8169.22848.3568.52895.63537.88888.90141Z"/></svg>