<svg class="nok-icon" height="16" width="16" fill="currentColor" xmlns="http://www.w3.org/2000/svg" viewBox="0 0 16 16"><path d="M14.78919 5.07964a4.0995 4.0995 0 0 0-2.92036-1.21081c-.73225 0-1.4501.19315-2.07856.56216l-.0836-.33441a.1759.1759 0 0 0-.1528-.13262c-.07495-.00576-.14414.0346-.17297.10379l-.66595 1.51351c-.02882.0663-.0173.13838.0346.19027s.12396.0663.19027.04036l1.53658-.61405c.06919-.02883.11243-.09514.10955-.1701s-.0519-.13837-.12685-.15855l-.25081-.07207c.51027-.26523 1.08396-.40649 1.66342-.40649.96288 0 1.86811.37478 2.55135 1.05514.68036.68036 1.05514 1.58558 1.05514 2.55135 0 1.98919-1.6173 3.60648-3.60649 3.60648S8.26523 9.9863 8.26523 7.99712c-.00289-2.2746-1.85658-4.1283-4.13406-4.1283S0 5.72253 0 8s1.8537 4.13117 4.13117 4.13117c.73225 0 1.4501-.19315 2.07856-.56216l.0836.33441c.0173.07208.07784.12397.1528.12973.07207.00289.14414-.0346.17297-.10378l.66595-1.51351c.02882-.06631.0173-.13838-.0346-.19027s-.12108-.06631-.18739-.04036l-1.53657.61405c-.0692.02883-.11244.09513-.10955.17009s.05189.13838.12684.15856L5.7946 11.2c-.51027.26523-1.08396.40649-1.6663.40649C2.13909 11.60649.5218 9.98919.5218 8s1.62018-3.60649 3.60937-3.60649S7.73766 6.01081 7.73766 8c0 2.27748 1.8537 4.13117 4.13117 4.13117S16 10.27747 16 8c0-1.10414-.42955-2.14198-1.21081-2.92036"/><path d="M5.711 5.97333c-.43532 0-.7928.3546-.7928.7928s.3546.79279.7928.79279.79278-.3546.79278-.7928-.3546-.79279-.79279-.79279m.2681.7928c0 .14702-.12107.2681-.2681.2681s-.2681-.12108-.2681-.2681.12107-.26811.2681-.26811.2681.12108.2681.2681m-3.42774.7928c.43532 0 .7928-.3546.7928-.7928s-.3546-.79279-.7928-.79279-.7928.3546-.7928.7928.3546.79279.7928.79279m-.2681-.7928c0-.14702.12107-.2681.2681-.2681s.2681.12108.2681.2681-.12107.26811-.2681.26811-.2681-.12108-.2681-.2681m1.84792 3.60648c1.30883 0 2.37261-.86775 2.37261-1.93441 0-.14415-.1182-.26234-.26234-.26234s-.26234.1182-.26234.26234c0 .77838-.83027 1.40973-1.84793 1.40973S2.28324 9.21658 2.28324 8.4382c0-.14415-.1182-.26234-.26234-.26234s-.26234.1182-.26234.26234c0 1.06666 1.06378 1.93441 2.37261 1.93441m10.11027-3.60648c0-.43532-.3546-.7928-.7928-.7928s-.79278.3546-.79278.7928.35459.79279.79279.79279.7928-.3546.7928-.7928m-1.0609 0c0-.14702.12107-.2681.2681-.2681s.2681.12108.2681.2681-.12107.26811-.2681.26811-.2681-.12108-.2681-.2681m-2.10163 0c0-.43532-.3546-.7928-.7928-.7928s-.79279.3546-.79279.7928.3546.79279.7928.79279.79279-.3546.79279-.7928m-1.05802 0c0-.14702.12108-.2681.2681-.2681s.26812.12108.26812.2681-.12108.26811-.26811.26811-.2681-.12108-.2681-.2681m-.26235 3.60648c.14414 0 .26234-.1182.26234-.26234 0-.77838.83027-1.40973 1.84793-1.40973s1.84793.63135 1.84793 1.40973c0 .14414.1182.26234.26234.26234s.26234-.1182.26234-.26234c0-1.06667-1.06378-1.93441-2.37261-1.93441s-2.37261.86774-2.37261 1.93441c0 .14414.1182.26234.26234.26234"/></svg>