<svg class="nok-icon %s" height="16" width="16" fill="currentColor" xmlns="http://www.w3.org/2000/svg" viewBox="0 0 16 16"><path d="M7.25.06a2 2 0 0 0-1.23 1.12c-.12.26-.15.4-.15.8s.03.53.16.83a2 2 0 0 0 1.5 1.15A2 2 0 0 0 9.67 2.8c.14-.3.16-.42.16-.84 0-.4-.03-.54-.15-.8Q9.4.54 8.78.21c-.31-.17-.42-.2-.84-.2q-.48-.03-.7.05Zm1.2.72c.68.35.93 1.15.58 1.82a1.3 1.3 0 0 1-1.49.68c-1-.26-1.36-1.48-.66-2.2a1.3 1.3 0 0 1 1.57-.3M5.53 4.85c-.87.21-1.43.86-1.5 1.73 0 .21.03 1.2.08 2.21.08 1.56.1 1.84.02 1.88l-1.19.7c-.6.36-1.16.71-1.23.79-.21.19-.3.4-.3.72s.06.46.3.71c.16.18.17.18.07.37a1.7 1.7 0 0 0-.08 1.06c.1.34.56.83.88.92s10.52.08 10.82-.01a1.4 1.4 0 0 0 .85-1.83c-.12-.34-.12-.34 0-.44.48-.41.44-1.32-.1-1.63-.08-.06-.66-.4-1.25-.75l-1.1-.64v-.2c0-.12.04-1.02.1-2 .07-1.46.07-1.86.02-2.1a2 2 0 0 0-1.28-1.45c-.26-.1-.52-.1-2.53-.12-1.81 0-2.3 0-2.58.08m5.05.74c.51.27.73.66.73 1.32 0 .24-.05 1.23-.1 2.2s-.09 1.8-.07 1.85c.02.04.61.43 1.33.85 1.3.78 1.5.91 1.5 1.09 0 .13-.21.32-.34.32-.09 0-3.13-1.69-3.24-1.79 0-.02.01-1.02.05-2.24.06-1.78.06-2.23 0-2.3-.09-.1-.42-.1-.5 0-.06.06-.1.73-.16 2.4a46 46 0 0 0-.04 2.43c.02.1.44.36 1.6 1.02 1.8 1.02 2.04 1.18 2.22 1.44.24.36.13.84-.24 1.06-.16.1-.36.1-3.7.13l-3.53.01-.08-.21q-.25-.77.36-1.13c.17-.1.32-.1 1.68-.14 1.62-.03 1.6-.03 1.6-.35 0-.3-.12-.33-1.51-.33s-1.7.04-2.13.26q-.8.39-.71 1.47l.04.43H4.16c-1.04 0-1.2-.02-1.41-.11q-.43-.19-.42-.72c0-.25.02-.3.27-.53q.29-.27 1.95-1.22c.93-.52 1.7-.99 1.72-1.04.05-.13-.13-4.72-.2-4.85q-.04-.11-.24-.1c-.36 0-.35-.06-.27 2.39.03 1.22.06 2.22.05 2.23-.16.13-3.15 1.79-3.23 1.79-.14 0-.34-.2-.34-.34q.01-.1.09-.2c.05-.05.67-.44 1.4-.87a7 7 0 0 0 1.33-.9c.02-.06-.02-1.03-.08-2.15-.12-1.97-.1-2.22.04-2.58.1-.27.47-.57.86-.69a38 38 0 0 1 2.41-.03c2.21 0 2.28.02 2.5.13Z"/></svg>