<svg class="nok-icon %s" height="16" width="16" fill="currentColor" xmlns="http://www.w3.org/2000/svg" viewBox="0 0 16 16"><path d="M8.84 1.82c1.01.24 1.95.62 2.77 1.24a5.2 5.2 0 0 1 2.1 3.01q.04.24.26.35a3.6 3.6 0 0 1 1.8 1.92q.62 1.66-.47 3.08-.35.45-.81.77c-.13.09-.1.2-.07.3l.28.88.05.15c.03.19.09.4-.11.53q-.3.16-.58-.06c-.34-.25-.69-.47-1-.75-.28-.26-.6-.23-.93-.19a5 5 0 0 1-2.5-.28q-.07-.01-.12-.05c-.47-.35-.97-.14-1.46-.08a8 8 0 0 1-2.9-.1.3.3 0 0 0-.3.06l-2.1 1.56-.22.14c-.17.13-.34.07-.5-.03-.13-.1-.13-.26-.1-.4l.28-.93.38-1.23q.05-.17-.1-.26a6 6 0 0 1-.97-.78A5 5 0 0 1 .05 7.82a4.5 4.5 0 0 1 .53-2.88A6.4 6.4 0 0 1 4.34 2a9 9 0 0 1 3.4-.36c.35.02.71.12 1.1.18m-1.28.59c-.64-.01-1.27-.03-1.9.08C4.26 2.74 3 3.3 2 4.33A4 4 0 0 0 .8 7.54a4.3 4.3 0 0 0 1.37 2.64q.49.48 1.1.8.23.13.23.42c-.01.16-.08.31-.12.46-.08.33-.23.64-.28 1.03.5-.36.97-.67 1.41-1.02.22-.17.42-.18.67-.13.69.15 1.39.25 2.1.2.25-.02.53 0 .8-.13q-.52-.48-.79-1.12a3 3 0 0 1 0-2.45 3.8 3.8 0 0 1 1.94-1.91 5.4 5.4 0 0 1 2.96-.46c.21.03.42.1.64.08l.01-.06a4.5 4.5 0 0 0-1.51-2.05A7 7 0 0 0 7.56 2.4m1.5 9.18q.16.13.35.22 1.5.78 3.17.4.3-.1.56.11.23.19.5.36c0-.17-.07-.29-.1-.42q-.1-.34.2-.52.73-.41 1.16-1.12.46-.75.28-1.6a2.8 2.8 0 0 0-1.38-1.79 4.3 4.3 0 0 0-2.35-.6 4 4 0 0 0-2.99 1.24c-.72.79-.9 1.87-.3 2.82q.36.51.9.9"/></svg>