<svg class="nok-icon %s" height="16" width="16" fill="currentColor" xmlns="http://www.w3.org/2000/svg" viewBox="0 0 16 16"><path d="m16 11.6-.34-2.82a4 4 0 0 0-3.46-3.52l-.79-.1c-.2-.03-.4.11-.43.33s.12.4.33.43l.79.1a3.25 3.25 0 0 1 2.8 2.85l.33 2.8v2.62c0 .52-.42.94-.94.94H5.8a.39.39 0 1 0 0 .78h8.49c.94 0 1.7-.77 1.7-1.71z"/><path d="M12.28 14.24h.17a2.6 2.6 0 0 0 2.4-1.58l.07-.15a.9.9 0 0 0-.83-1.25h-1.4V9.99a.39.39 0 1 0-.78 0v1.27H9.97A4.3 4.3 0 0 0 11.37 8q0-.75-.23-1.44a.39.39 0 1 0-.73.24q.18.59.18 1.2c0 1.8-1.16 3.26-2.6 3.26S5.4 9.8 5.4 8.01 6.57 4.75 8 4.75q.2 0 .39.04a.39.39 0 1 0 .14-.76A3 3 0 0 0 8 3.98c-1.86 0-3.37 1.8-3.37 4.03a4.3 4.3 0 0 0 1.4 3.26H4.08V10a.39.39 0 1 0-.77 0v1.65c0 .22.17.39.38.39h10.4q.1 0 .1.06c0 .06.04.06.01.11l-.06.16a1.85 1.85 0 0 1-1.8 1.11l-2.66-.22h-.14l-.02.01-7.86 1.97a.94.94 0 0 1-.9-.94v-2.63l.34-2.8a3.25 3.25 0 0 1 2.8-2.84l.78-.1c.21-.03.36-.23.34-.44s-.22-.36-.44-.33l-.78.1A4 4 0 0 0 .33 8.8L0 11.59v2.7C0 15.23.77 16 1.7 16l.1-.01 7.88-1.97zM8.66.77h1.22L8.35 2.8a.4.4 0 0 0-.03.4q.11.22.34.22h1.99a.39.39 0 1 0 0-.77H9.43L10.96.6q.13-.19.03-.4a.4.4 0 0 0-.34-.21H8.66a.39.39 0 1 0 0 .77"/><path d="M9.14 5.86q.12.2.35.21h1a.39.39 0 1 0 0-.77h-.23l.53-.7q.13-.2.03-.41a.4.4 0 0 0-.34-.22h-1a.39.39 0 1 0 0 .78h.23l-.53.7a.4.4 0 0 0-.04.4m2.83-3.1h.72l-1.03 1.38a.4.4 0 0 0-.03.4q.12.2.34.21h1.5a.39.39 0 1 0 0-.77h-.73l1.03-1.37q.13-.2.04-.4a.4.4 0 0 0-.35-.22h-1.49a.39.39 0 1 0 0 .78"/></svg>