<svg class="nok-icon" height="16" width="16" fill="currentColor" xmlns="http://www.w3.org/2000/svg" viewBox="0 0 16 16"><path d="M8 16C3.65949 16 .12719 12.40974.12719 7.99839S3.65949 0 8 0s7.87281 3.58704 7.87281 7.99839S12.34051 15.99678 8 15.99678ZM8 .98853c-3.79634 0-6.88428 3.14268-6.88428 7.00986s3.08794 7.01308 6.8875 7.01308 6.8875-3.1459 6.8875-7.01308S11.79634.98853 8 .98853"/><path d="M8.56671 12.11672c-2.23787 0-4.06037-1.84826-4.06037-4.11833s1.8225-4.11833 4.06037-4.11833c.55384 0 1.09157.1127 1.5971.33165.25116.10948.36386.39928.25438.65044-.10948.24793-.39927.36385-.65043.25437a2.962 2.962 0 0 0-1.20427-.25115c-1.6937 0-3.07184 1.4039-3.07184 3.1298s1.37814 3.13302 3.07184 3.13302c.46046 0 .9016-.09981 1.31375-.29945a.49396.49396 0 1 1 .43147.8887c-.54739.26405-1.13342.39928-1.74522.39928Z"/><path d="M8 7.72791H3.91709c-.2737 0-.49266-.22217-.49266-.49265s.22218-.49266.49266-.49266H8c.2737 0 .49265.22218.49265.49266S8.27048 7.7279 8 7.7279m0 1.5295H3.91709c-.2737 0-.49266-.22218-.49266-.49266s.22218-.49265.49266-.49265H8c.2737 0 .49265.22217.49265.49265S8.27048 9.2574 8 9.2574"/></svg>