<svg class="nok-icon %s" height="16" width="16" fill="currentColor" xmlns="http://www.w3.org/2000/svg" viewBox="0 0 16 16"><path d="M14.75263 15.6246H12.4382c-.67393 0-1.30944-.2542-1.7942-.7153l-3.7421-3.56771a2.0455 2.0455 0 0 1-.63846-1.4661 2.0248 2.0248 0 0 1 .61186-1.47497l2.33216-2.29965.00592-.00591a.3104.3104 0 0 1 .19508-.07981h.01478c.03547 0 .0739.00887.10641.02069.03547.01478.06799.03547.09754.06503.0266.0266.0473.05912.05912.09163.01478.03547.02365.0739.02365.11232V7.097c0 .49067.4079.8897.90449.8897h2.03658c.16257 0 .29558.13302.29558.2956v.02955l1.49861 3.77462c.0739.18917.25716.31036.46407.31036.60004 0 1.08775.4818 1.08775 1.07593v.9104c0 .67985-.55865 1.23555-1.24736 1.23555ZM6.94328 9.35822a1.4513 1.4513 0 0 0 .36653 1.55478l3.7421 3.5677a2.004 2.004 0 0 0 1.38334.55275h2.31443c.36357 0 .6562-.28967.6562-.64438v-.9104c0-.26898-.2217-.48476-.49659-.48476-.44929 0-.84833-.26898-1.01385-.6828l-.1005-.25716H12.4648c-.16257 0-.29559-.133-.29559-.29558s.13302-.29559.29559-.29559h1.09662l-.13893-.34879h-1.339c-.16257 0-.29558-.133-.29558-.29558s.13301-.29558.29558-.29558H13.189l-.13893-.3488H11.7022c-.16257 0-.29559-.133-.29559-.29558s.13302-.29558.29559-.29558h1.11435l-.39904-1.00204h-1.8001c-.82469 0-1.49567-.66506-1.49567-1.48088v-.08571L7.29207 8.81729l-.0266.0266 4.95991 4.89193c.23352.2276.54092.3547.86902.3547h1.84445c.16257 0 .29559.13302.29559.29559s-.13302.29558-.29559.29558H13.0944c-.48476 0-.94291-.18622-1.2858-.52614l-4.86827-4.8003Zm1.90357 5.32644H6.56198c-.16257 0-.29558-.13302-.29558-.29559s.133-.29558.29558-.29558h2.28487c.16257 0 .29558.13301.29558.29558s-.133.29559-.29558.29559m-1.14391-.93996H6.55902c-.16257 0-.29558-.13301-.29558-.29559s.13301-.29558.29558-.29558h1.14392c.16257 0 .29558.13301.29558.29558s-.13301.29559-.29558.29559M3.82487 7.04674a.2217.2217 0 0 1-.15666-.06503l-.74192-.73305a.2158.2158 0 0 1 0-.3074L5.63976 3.2603c.08276-.08276.2276-.08276.31036 0l.74192.73305c.08572.08572.08572.22169 0 .3074l-2.71347 2.678a.2217.2217 0 0 1-.15666.06503ZM3.3933 6.0979l.43156.42564L6.22796 4.15l-.43155-.42564zm5.16682-3.66525c-.05616 0-.11232-.02069-.15666-.06207a.2158.2158 0 0 1 0-.3074l.53206-.52615-.4552-.44929-.55275.54683c-.08572.08572-.22464.08572-.31036 0a.2158.2158 0 0 1 0-.3074l.7094-.70054c.08572-.08572.22465-.08572.31037 0l.76556.7567a.2146.2146 0 0 1 0 .3074l-.68871.67985c-.04434.04138-.1005.06207-.15666.06207Zm-7.3837 7.28912c-.05616 0-.11233-.02069-.15666-.06503l-.76557-.7567a.2158.2158 0 0 1 0-.3074l.62664-.61777c.08572-.08572.22465-.08572.31037 0s.08572.22168 0 .3074l-.46998.46407.4552.44929.54092-.535c.08572-.08573.22464-.08573.31036 0s.08572.22168 0 .3074l-.69758.68871c-.04434.04138-.1005.06503-.15666.06503Z"/><path d="M3.06817 9.908c-.22169 0-.44338-.08276-.61482-.25125L.2542 7.48716a.8498.8498 0 0 1 0-1.2119l.06503-.06207c.33697-.33401.88676-.33401 1.22668 0l2.19915 2.17255a.85276.85276 0 0 1 0 1.2119l-.06503.06207c-.16848.16553-.39017.25125-.61482.25125ZM.93109 6.39645c-.10936 0-.21873.04138-.3015.12415l-.06502.06207a.4206.4206 0 0 0 0 .59708L2.76372 9.3523c.16848.16553.44042.16553.60595 0l.06502-.06207a.42103.42103 0 0 0 0-.59708L1.23554 6.5206c-.08276-.08277-.19213-.12415-.3015-.12415Zm7.5788-.34879c-.2217 0-.44634-.08276-.61482-.25124L4.16479 2.11343a.85276.85276 0 0 1 0-1.2119l.06503-.06207c.16257-.16257.3813-.25125.61481-.25125s.4493.08868.61482.25125L9.19268 4.5254c.16258.16257.2542.3754.2542.60595s-.08867.44338-.2542.60595l-.06207.06207c-.16848.16553-.39313.25125-.61481.25125Zm-.3015-.5557c.16848.16553.43746.16553.60595 0l.06207-.06207a.4206.4206 0 0 0 0-.59708L5.14317 1.14687a.4274.4274 0 0 0-.60299 0l-.06503.06207a.42103.42103 0 0 0 0 .59708L8.2084 5.48901Z"/><path d="M8.72566 4.32145c-.22169 0-.44338-.08277-.61482-.25125L5.9117 1.89765a.84744.84744 0 0 1 0-1.2119l.06503-.06207c.16257-.16257.3813-.25124.61482-.25124s.44929.08867.61482.25124L9.4055 2.79623a.84744.84744 0 0 1 0 1.2119l-.06208.06207c-.16848.16848-.39313.25125-.61481.25125ZM6.59154.8099c-.11528 0-.22169.04434-.3015.12415l-.06503.06207a.42103.42103 0 0 0 0 .59708l2.19915 2.17255c.16849.16553.43747.16553.60595 0l.06503-.06207a.4206.4206 0 0 0 0-.59708L6.896.93405C6.8162.85424 6.70682.8099 6.5945.8099ZM4.81507 9.69518c-.22168 0-.44337-.08277-.61481-.25125L.46998 5.76095a.84744.84744 0 0 1 0-1.2119l.06503-.06207c.16257-.16258.3813-.25125.61186-.25125.23351 0 .44929.08867.61481.25125l3.73324 3.68594a.85276.85276 0 0 1 0 1.2119l-.06207.06207c-.16849.16848-.39017.25124-.61482.25124Zm-3.6682-5.02494c-.11528 0-.22169.04434-.3015.12414l-.06503.06208a.42103.42103 0 0 0 0 .59708l3.73324 3.68594c.16553.16553.43746.16553.60595 0l.06207-.06207c.16553-.16553.16553-.43451 0-.59708l-3.73323-3.6889c-.07981-.07981-.18918-.12415-.3015-.12415Z"/></svg>