<svg class="nok-icon %s" height="16" width="16" fill="currentColor" xmlns="http://www.w3.org/2000/svg" viewBox="0 0 16 16"><path d="M10.56006 16c-.17675 0-.31984-.14308-.31984-.31983 0-1.39436.56953-1.67772.68175-1.7226.1038-.03928.22164-.01964.30861.04769.32825.2553.64247.3563.93144.29458.5555-.11502.909-.7575.9146-.7631.06453-.11784.1992-.18517.33106-.16553.4517.07014.84166-.03367 1.1615-.30861.58074-.49658.79116-1.40277.79116-1.88813 0-.82483-.61722-1.64685-.62283-1.65527-.08417-.11222-.08698-.26653-.00561-.37875.62283-.87533.06172-1.81238.03647-1.85165-.06734-.11223-.06172-.2553.01683-.35911.15992-.21603.57514-.88936.57514-1.4196 0-.65931-.37875-1.32703-.38436-1.33264a.31983.31983 0 0 1 .13466-.44608c.03648-.04208.2497-.32264.2497-1.4196 0-.80239-1.37472-.81922-1.38875-.81922-.09258 0-.18236-.04209-.24127-.10942-.8585-.99035-1.818-.2497-1.86008-.21883-.1038.08136-.24688.09258-.36191.02244-1.27933-.7603-2.2753.17395-2.31738.21603-.12625.12064-.32544.11783-.44888-.0028-.64528-.64528-2.00597.0505-2.01719.0561-.13747.07295-.3086.03648-.404-.08697-.68735-.89216-1.80957-.23566-1.85726-.2076-.12064.07294-.27214.05891-.37875-.03367-.00561-.0028-.56392-.48817-1.25688-.48817-.52464 0-.89497.1487-1.13344.4517-.54147.69577-.22164 1.9807-.21603 1.99193.03086.12344-.01403.2553-.11503.33386-.97913.74908-.22725 2.16307-.22163 2.1771.0533.0982.0505.21883-.00562.31702-.05891.0982-.16272.15712-.27494.15712-.06733.01122-.22444.16833-.22444.67613 0 .85288.53025 1.4645.53586 1.4701.09819.10942.1066.27214.02525.39278-.00562.00842-.56111.83325-.56111 1.6693 0 1.00438.95108 1.95546 1.95546 1.95546s1.6721-.58355 1.6721-1.38594-.98194-1.43082-.99316-1.43924c-.13747-.08978-.18516-.26653-.11222-.41242.66772-1.31299-.18797-2.15185-.19639-2.16026-.06733-.06453-.1038-.1543-.0982-.24408.00281-.09259.0477-.17675.11784-.23567.63966-.51902-.06453-1.70577-.07014-1.717-.0505-.08135-.06172-.17955-.03086-.26932s.0982-.16272.18797-.1964c.41803-.16271.59478-.8136.62844-1.04926.01684-.11222.08978-.20761.1964-.2525a.3236.3236 0 0 1 .31702.04208c.65369.49939 1.81518.07575 1.8264.07295.11503-.04209.24128-.01684.33106.06733.82202.77433 1.63282.21041 1.7226.14308.13186-.0982.31703-.08136.42644.03928.69858.75469 1.8236.19358 1.8713.17114.11222-.05611.24408-.0449.34227.03366.48536.37875 1.59916-.07855 1.94986-.26652a.31983.31983 0 0 1 .43205.43486c-.72944 1.33824.15991 2.05365.1992 2.0817.08416.06453.13185.16834.12344.27495s-.06734.202-.15992.2553c-.93144.53306-.19639 1.90497-.16272 1.96108.06453.12064.0477.26933-.04489.37033-.67052.72663.0028 1.79274.03367 1.83763.06172.09539.06733.21883.01402.32264-.0533.101-.1571.16833-.27213.17113-.39558.01403-.77153.51903-.87253.69297-.04489.07856-.12064.13467-.21041.1543-.08697.01965-.18236 0-.2553-.0561-.92022-.67614-1.8208.21322-1.85727.2525-.07295.07574-.18236.1066-.28336.08977-.00842 0-.93706-.1571-1.48414.3002-.27494.23285-.41522.59757-.41522 1.09135 0 .59197.27495.87533.56953 1.17833.26653.27494.56952.58636.56952 1.09977a.31983.31983 0 1 1-.63966 0c0-.24128-.14028-.39558-.38997-.6537-.33386-.34507-.74908-.77152-.74908-1.6216 0-.69296.21883-1.22602.64808-1.58512.61441-.51342 1.47852-.49378 1.84044-.46011.46572-.404 1.37471-.8557 2.29212-.38156.16272-.21041.42364-.48255.7603-.63124-.2076-.48256-.43485-1.32702.08978-2.05927-.29739-.65089-.51622-1.7226.17675-2.38752-.31141-.39277-.57514-1.03805-.37314-1.86288-.52183.17395-1.2204.3002-1.75346.00842-.4096.16553-1.44485.47414-2.26407-.1992-.5022.26653-1.3635.44048-2.16868-.2076-.3563.1038-1.1587.27494-1.84886.0028-.09819.3002-.28335.69297-.6144.94547.21321.4601.51902 1.3635.0056 2.0256.34508.48536.6565 1.3635.22725 2.41838.37033.29458 1.0605.9623 1.0605 1.80957 0 1.15588-.99317 2.0256-2.31177 2.0256S0 11.63458 0 10.2767c0-.76872.3535-1.48975.54989-1.82922C.34509 8.1501 0 7.53568 0 6.74452c0-.67052.21883-.99877.43766-1.15869C.16833 4.89006.02244 3.7931.81922 3.04682.73505 2.58952.606 1.45888 1.19235.70419 1.55427.23567 2.10415 0 2.8336 0c.67333 0 1.22882.31703 1.50096.5106.58636-.28055 1.59074-.47132 2.3286.27215C7.12888.58635 8.19499.23847 8.97212.7603c.54708-.4012 1.5655-.78555 2.6849-.22164.56111-.34227 1.58513-.59477 2.46327.31984.72383.03927 1.88252.37594 1.88252 1.45327 0 1.00999-.16553 1.5206-.3507 1.7787.14028.3002.3507.85009.3507 1.42242 0 .64808-.38717 1.32421-.58636 1.63282.17955.38156.48255 1.27372-.03647 2.1743.21602.33386.62283 1.07171.62283 1.85446 0 .72383-.31703 1.7759-1.01561 2.37349-.4096.35069-.9146.51341-1.4645.47694-.19077.27775-.6116.76872-1.2232.89777-.40962.08417-.82203 0-1.23164-.2553-.07856.14028-.18517.43486-.18517 1.01 0 .17674-.14308.31982-.31983.31982Zm4.6095-12.29107"/><path d="M5.15658 4.95459c-.08136 0-.16272-.03087-.22724-.09259-.12345-.12344-.12625-.32825 0-.45169.0056-.00561.6088-.61441.93705-1.2681.07855-.15711.27213-.22164.42924-.14309s.22164.27214.14309.42925c-.37314.74908-1.02964 1.40558-1.05489 1.43363-.06172.06172-.14308.09259-.22725.09259"/><path d="M4.87042 6.61266c-1.09416 0-1.54866-.73786-1.63563-1.12783-.03928-.17114.07014-.34227.24128-.38155s.34227.06733.38155.23847c.01683.06733.18516.63125 1.0128.63125 1.0661 0 2.01157-1.68613 2.28651-2.33421.06734-.16272.2553-.23847.41803-.17114.16272.07014.23847.2553.17114.41802-.0477.11223-1.1643 2.72699-2.87568 2.72699m3.6977-1.13624c-.101 0-.1992-.0477-.26091-.13467-.101-.14308-.06734-.34508.07575-.44608.28616-.202 1.07452-.8052 1.29055-1.17272a.31983.31983 0 0 1 .43766-.11222c.1515.08978.202.28617.11222.43767-.32544.54988-1.35788 1.28774-1.4729 1.3691-.05612.03928-.12065.05892-.18517.05892Z"/><path d="M7.71524 7.46554c-1.40558 0-1.77872-1.22602-1.77872-1.8741a.31983.31983 0 1 1 .63967 0c0 .12625.04208 1.23444 1.13905 1.23444.93424 0 2.19954-1.15588 2.60915-1.60196a.31983.31983 0 1 1 .47133.43205c-.06733.07294-1.6749 1.80957-3.08048 1.80957m-1.13905-1.8713h.0028z"/><path d="M10.60494 7.77696c-1.34665 0-1.9779-.72102-2.01157-.7631-.11503-.13467-.0982-.33667.03647-.4517a.31703.31703 0 0 1 .44889.03647c.04489.0505 1.01 1.09416 3.2909.13467.16272-.06733.3507.00841.41803.17114s-.00842.35069-.17114.42083c-.79397.33386-1.4645.4545-2.01438.4545Zm.23848 1.96668c-.17675 0-.31984-.14308-.31984-.31702 0-.17675.14028-.31983.31703-.32264.01964 0 .88375-.02244 1.5234-.62564a.31703.31703 0 0 1 .4517.01403c.12064.12906.11503.33106-.01403.4517-.83044.78555-1.91338.79957-1.95826.79957M6.42749 8.63546c-1.83482 0-2.83079-.6032-2.87848-.63125-.1515-.09258-.19639-.29178-.1038-.44047s.28896-.19639.44046-.1038 1.15589.68174 3.23199.5078c.17955-.01684.33105.11502.34508.29177s-.11503.33106-.29178.34508c-.26091.02245-.5106.03087-.74627.03087Z"/><path d="M6.09363 10.29353c-.59758 0-1.25968-.05892-1.98351-.17955-.17395-.02806-.29178-.19359-.26372-.36753s.18797-.29458.36752-.26372c2.08171.34227 3.57146.17394 4.43276-.505.72383-.56952.77994-1.34666.79958-1.63843h.31983l.31702.04488c-.02525.33386-.09819 1.35227-1.04366 2.09574-.68455.54147-1.6749.81361-2.95143.81361Zm.81642 2.24163c-1.69455 0-2.57268-1.07733-2.61477-1.12783-.10941-.13747-.08697-.33947.0505-.44889s.33947-.08697.44889.0505c.04208.0505.94827 1.13905 2.7298.83325.17393-.02525.33946.08697.37032.26091s-.08697.33947-.26091.37034c-.2553.04208-.49658.06172-.72383.06172"/><path d="M9.7717 11.744a.31983.31983 0 0 1-.3002-.43206c.12626-.34227.12345-.61722-.01402-.83324-.2553-.41242-.94827-.56953-1.19516-.59478-.17675-.01964-.303-.17675-.28617-.3507.01684-.17674.17114-.30018.3507-.28616.04769.00561 1.19516.12906 1.6721.89216.24408.39278.26933.8613.07294 1.39716-.0477.12906-.17114.21042-.3002.21042Z"/></svg>