<svg class="nok-icon %s" height="16" width="16" fill="currentColor" xmlns="http://www.w3.org/2000/svg" viewBox="0 0 16 16"><path d="M8.14 16A8 8 0 0 1 .09 7.96 8 8 0 0 1 4.42.8q.22-.1.42.06c.1.11.13.28.06.42a7.34 7.34 0 0 0 9.9 9.9q.22-.11.42.06c.2.17.13.28.06.41a8 8 0 0 1-1.46 1.99A8 8 0 0 1 8.13 16ZM3.82 2.02q-.46.34-.87.75a7.3 7.3 0 0 0 0 10.38 7.34 7.34 0 0 0 11.12-.88 8 8 0 0 1-8.34-1.91 8 8 0 0 1-1.91-8.34"/><path d="M11.27 4.83H7.85a.35.35 0 0 1-.27-.58L10.53.7h-2.7a.35.35 0 1 1 0-.71h3.46a.35.35 0 0 1 .27.57L8.61 4.12h2.66a.35.35 0 1 1 0 .7Zm4.28 2.96H13.1a.35.35 0 0 1-.28-.58l1.97-2.37h-1.7a.35.35 0 1 1 0-.7h2.46a.35.35 0 0 1 .27.57l-1.97 2.37h1.68a.35.35 0 1 1 0 .7Zm-4.36 1.47H9.47a.35.35 0 0 1-.27-.58l1.24-1.49h-.98a.35.35 0 1 1 0-.7h1.73a.35.35 0 0 1 .27.57l-1.23 1.5h.96a.35.35 0 1 1 0 .7"/></svg>