<svg class="nok-icon %s" height="16" width="16" fill="currentColor" xmlns="http://www.w3.org/2000/svg" viewBox="0 0 16 16"><path d="M13.76 15.71H2.24c-1.23 0-2.24-1-2.24-2.24V5.8c0-.18.14-.32.32-.32h15.36c.18 0 .32.14.32.32v7.68c0 1.24-1 2.24-2.24 2.24M.64 6.11v7.36c0 .88.72 1.6 1.6 1.6h11.52c.88 0 1.6-.72 1.6-1.6V6.11z"/><path d="M15.68 6.11H.32A.3.3 0 0 1 0 5.8V3.87c0-1.23 1-2.24 2.24-2.24h.38c.18 0 .33.14.33.32v.58c0 .25.2.45.44.45s.45-.2.45-.45v-.58c0-.18.15-.32.32-.32h7.68c.18 0 .32.14.32.32v.58a.45.45 0 0 0 .9 0v-.58c0-.18.14-.32.32-.32h.39c1.23 0 2.24 1 2.24 2.24V5.8c0 .18-.15.32-.32.32ZM.64 5.47h14.72v-1.6c0-.88-.72-1.6-1.6-1.6h-.07v.26a1.09 1.09 0 0 1-2.17 0v-.26H4.48v.26a1.09 1.09 0 0 1-2.18 0v-.26h-.06c-.88 0-1.6.72-1.6 1.6z"/><path d="M15.68 6.11H.32A.3.3 0 0 1 0 5.8V3.87c0-1.23 1-2.24 2.24-2.24h.38c.18 0 .33.14.33.32v.58c0 .25.2.45.44.45s.45-.2.45-.45v-.58c0-.18.15-.32.32-.32h7.68c.18 0 .32.14.32.32v.58a.45.45 0 0 0 .9 0v-.58c0-.18.14-.32.32-.32h.39c1.23 0 2.24 1 2.24 2.24V5.8c0 .18-.15.32-.32.32ZM.64 5.47h14.72v-1.6c0-.88-.72-1.6-1.6-1.6h-.07v.26a1.09 1.09 0 0 1-2.17 0v-.26H4.48v.26a1.09 1.09 0 0 1-2.18 0v-.26h-.06c-.88 0-1.6.72-1.6 1.6z"/><path d="M15.68 6.11H.32A.3.3 0 0 1 0 5.8V3.87c0-1.23 1-2.24 2.24-2.24h.38c.18 0 .33.14.33.32v.58c0 .25.2.45.44.45s.45-.2.45-.45v-.58c0-.18.15-.32.32-.32h7.68c.18 0 .32.14.32.32v.58a.45.45 0 0 0 .9 0v-.58c0-.18.14-.32.32-.32h.39c1.23 0 2.24 1 2.24 2.24V5.8c0 .18-.15.32-.32.32ZM.64 5.47h14.72v-1.6c0-.88-.72-1.6-1.6-1.6h-.07v.26a1.09 1.09 0 0 1-2.17 0v-.26H4.48v.26a1.09 1.09 0 0 1-2.18 0v-.26h-.06c-.88 0-1.6.72-1.6 1.6z"/><path d="M15.68 6.11H.32A.3.3 0 0 1 0 5.8V3.87c0-1.23 1-2.24 2.24-2.24h11.52c1.23 0 2.24 1 2.24 2.24V5.8c0 .18-.14.32-.32.32M.64 5.47h14.72v-1.6c0-.88-.72-1.6-1.6-1.6H2.24c-.88 0-1.6.72-1.6 1.6z"/><path d="M3.4 3.62a1.1 1.1 0 0 1-1.1-1.1V1.39a1.09 1.09 0 0 1 2.18 0v1.15c0 .6-.5 1.09-1.09 1.09m0-2.7c-.25 0-.45.2-.45.46v1.15c0 .25.2.45.45.45s.45-.2.45-.45V1.38c0-.25-.2-.45-.45-.45m9.22 2.69c-.6 0-1.1-.5-1.1-1.1V1.39a1.09 1.09 0 0 1 2.18 0v1.15c0 .6-.49 1.09-1.08 1.09m0-2.7c-.25 0-.45.2-.45.46v1.15a.45.45 0 0 0 .9 0V1.38c0-.25-.2-.45-.45-.45m-7.92 9.2h-.88c-.58 0-1.06-.48-1.06-1.06v-.7c0-.59.48-1.06 1.06-1.06h.88c.59 0 1.06.47 1.06 1.05v.71c0 .59-.48 1.06-1.06 1.06m-.88-2.18a.4.4 0 0 0-.42.41v.71c0 .23.2.42.42.42h.88c.23 0 .42-.2.42-.42v-.71a.4.4 0 0 0-.42-.41zm4.63 2.18h-.88c-.59 0-1.06-.48-1.06-1.06v-.7c0-.59.48-1.06 1.06-1.06h.88A1.06 1.06 0 0 1 9.5 8.36v.71c0 .59-.47 1.06-1.06 1.06m-.88-2.18a.4.4 0 0 0-.42.41v.71c0 .23.19.42.42.42h.88c.23 0 .42-.2.42-.42v-.71a.4.4 0 0 0-.42-.41zm4.63 2.18h-.88c-.59 0-1.06-.48-1.06-1.06v-.7c0-.59.48-1.06 1.06-1.06h.88c.58 0 1.06.47 1.06 1.05v.71c0 .59-.48 1.06-1.06 1.06m-.88-2.18a.4.4 0 0 0-.42.41v.71c0 .23.19.42.42.42h.88c.23 0 .42-.2.42-.42v-.71a.4.4 0 0 0-.42-.41zm-6.62 5.93h-.88c-.58 0-1.06-.48-1.06-1.06v-.7c0-.6.48-1.06 1.06-1.06h.88c.59 0 1.06.47 1.06 1.05v.71c0 .59-.48 1.06-1.06 1.06m-.88-2.19a.4.4 0 0 0-.42.42v.71c0 .23.2.41.42.41h.88c.23 0 .42-.18.42-.41v-.71a.4.4 0 0 0-.42-.42zm4.63 2.19h-.88c-.59 0-1.06-.48-1.06-1.06v-.7c0-.6.48-1.06 1.06-1.06h.88A1.06 1.06 0 0 1 9.5 12.1v.71c0 .59-.47 1.06-1.06 1.06m-.88-2.19a.4.4 0 0 0-.42.42v.71c0 .23.19.41.42.41h.88c.23 0 .42-.18.42-.41v-.71a.4.4 0 0 0-.42-.42zm4.63 2.19h-.88c-.59 0-1.06-.48-1.06-1.06v-.7c0-.6.48-1.06 1.06-1.06h.88c.58 0 1.06.47 1.06 1.05v.71c0 .59-.48 1.06-1.06 1.06m-.88-2.19a.4.4 0 0 0-.42.42v.71c0 .23.19.41.42.41h.88c.23 0 .42-.18.42-.41v-.71a.4.4 0 0 0-.42-.42z"/></svg>