<svg class="nok-icon %s" height="16" width="16" fill="currentColor" xmlns="http://www.w3.org/2000/svg" viewBox="0 0 16 16"><path d="M13.66 13.51c-.74.53-1.53.54-2.31.21-.73-.3-.98-1-.9-1.75q.01-.36.2-.69.06-.14-.06-.24l-.95-.94q-.07-.08-.18-.04c-.34.13-.69.25-1.06.26q-.13.02-.12.16v1.77q0 .15.16.17.37.06.7.24.6.38.7 1.08c.14.96-.18 1.83-1.29 2.07-.74.15-1.46.08-2.03-.5q-.3-.33-.36-.77c-.18-.96.2-1.9 1.26-2.09.23-.04.3-.13.3-.37q-.04-.78-.01-1.56c0-.14-.03-.2-.19-.22a3 3 0 0 1-.93-.26q-.14-.07-.25.05l-.98.98c-.1.09-.1.15-.04.27.38.76.35 1.5-.2 2.17-.25.3-.62.46-1 .5a2.4 2.4 0 0 1-1.58-.26q-.7-.45-.74-1.25c-.06-.61.09-1.16.57-1.55.46-.38 1.01-.44 1.58-.38q.34.03.65.16.16.08.28-.06l.95-.94q.13-.1.04-.25Q5.5 9 5.39 8.42q-.02-.12-.15-.1H3.9q-.16 0-.19.15a1.6 1.6 0 0 1-1.59 1.25c-.37 0-.74.01-1.11-.12-.58-.23-1-.79-1-1.41 0-.21-.02-.42.03-.63.15-.68.6-1.08 1.26-1.24q.81-.2 1.58.14.66.32.83 1.04c.03.16.1.2.24.2h1.16q.28.01.29-.25.07-.62.45-1.14a13 13 0 0 0-.94-.95c-.07-.06-.14-.01-.2.02a2.4 2.4 0 0 1-1.85.07C2 5.17 1.7 4.37 1.8 3.6q.05-.45.3-.81a1.5 1.5 0 0 1 1.08-.64 2.4 2.4 0 0 1 1.64.25q.58.38.7 1.05.14.68-.16 1.29-.07.13.03.21l.8.8q.13.14.26.04.53-.3 1.11-.35.17-.02.16-.18V3.8c0-.13-.06-.17-.17-.2q-.3-.06-.6-.2-.8-.46-.82-1.38c-.01-.37 0-.73.22-1.06Q6.85.2 7.74.15C8.39.09 9 .19 9.48.72q.38.4.39.96a2 2 0 0 1-.22 1.13c-.24.43-.63.64-1.09.74-.2.05-.3.12-.28.36q.02.65 0 1.3c0 .14.02.22.18.22q.6.04 1.12.31c.08.04.14.1.23.02l.98-.98a1.7 1.7 0 0 1-.36-1.13c.03-1.04.7-1.7 1.71-1.71.45 0 .88.03 1.28.26.67.38.87 1.08.78 1.72-.16 1.24-1.24 1.6-2.21 1.46q-.3-.03-.57-.15-.16-.07-.3.07l-.8.8c-.06.07-.14.14-.06.24q.39.51.45 1.16.03.21.23.2.54-.03 1.09 0 .2 0 .25-.18c.2-.78.73-1.15 1.5-1.25q.72-.1 1.36.21.71.35.82 1.12c.06.48.07.98-.24 1.4q-.5.68-1.31.7c-.38.02-.77.04-1.14-.1q-.77-.3-.98-1.1-.04-.21-.24-.2h-1.16c-.12 0-.2.03-.22.18q-.13.63-.6 1.16l1.02 1c.1.1.18 0 .26-.02a2.4 2.4 0 0 1 2.11.11c.99.57.97 2.12.2 2.77m-7.2-4.29q.17.15.37.26c.6.32 1.25.33 1.88.2.4-.1.77-.27 1.03-.62q.53-.73.35-1.6c-.09-.47-.3-.86-.73-1.12a2.7 2.7 0 0 0-1.73-.32c-.45.05-.89.2-1.2.55a2 2 0 0 0 .03 2.65m6.52-.59q.09.15.23.25c.42.3.9.34 1.38.21.74-.2 1.07-1.2.62-1.77s-1.42-.53-1.87-.29c-.49.26-.68.99-.36 1.6M4.03 13.4c.56-.08.86-.39.94-1.06a1 1 0 0 0-.6-1.04 2 2 0 0 0-.88-.13c-.87.02-1.21.7-1.07 1.43s1.04.94 1.6.8m4.6 1.76.18-.1c.68-.43.66-1.54-.04-1.91q-.6-.3-1.23-.12-.75.2-.82.96c-.05.45.1.84.5 1.08.44.26.9.23 1.41.09m-5.71-6.4c.45-.57.28-1.44-.27-1.73a2 2 0 0 0-1.01-.16c-.42.04-.78.22-.95.63q-.32.72.22 1.3c.48.48 1.4.47 2-.04M7 1.1c-.56.64-.3 1.6.52 1.84q.46.14.93.02.6-.14.8-.73a1.2 1.2 0 0 0-.26-1.17c-.36-.43-1.63-.45-2 .04m4.11 10.72c-.18.63.07 1.15.65 1.4.24.1.5.09.74.08.88-.02 1.27-.68 1.08-1.49-.13-.52-.56-.7-1.03-.77-.56-.08-1.24.1-1.44.78M2.91 2.87 2.73 3c-.51.42-.45 1.39.09 1.75.32.21.67.24 1.04.23.53-.01.98-.35 1.07-.86.09-.52-.05-1.04-.6-1.28q-.69-.3-1.42.03m8.8-.26q-.5.22-.64.76c-.1.51.04 1.05.59 1.3.31.14.63.14.95.11.41-.04.76-.22.9-.64.16-.45.18-.9-.2-1.26-.45-.42-1-.44-1.6-.27"/></svg>