<svg class="nok-icon %s" height="16" width="16" fill="currentColor" xmlns="http://www.w3.org/2000/svg" viewBox="0 0 16 16"><path d="M3.76673 15.88516C1.68813 15.88516 0 14.16831 0 12.05814S1.69101 8.2311 3.76673 8.2311s3.7696 1.71685 3.7696 3.82703-1.691 3.82702-3.7696 3.82702m0-7.07698c-1.75991 0-3.19253 1.45846-3.19253 3.24996s1.43262 3.24995 3.19253 3.24995 3.19254-1.45846 3.19254-3.24995-1.43262-3.24996-3.19254-3.24996"/><path d="M2.93415 11.30307c0 .24977-.20097.45074-.45075.45074s-.45074-.20097-.45074-.45074.20097-.45075.45074-.45075.45075.20097.45075.45075m2.48914 0c0 .24977-.20097.45074-.45074.45074s-.45075-.20097-.45075-.45074.20097-.45075.45075-.45075.45074.20097.45074.45075m6.8071 4.5821c-2.07859 0-3.7696-1.71686-3.7696-3.82703S10.1518 8.2311 12.2304 8.2311 16 9.94796 16 12.05814s-1.69101 3.82702-3.7696 3.82702m0-7.07698c-1.75992 0-3.19254 1.45846-3.19254 3.24996s1.43262 3.24995 3.19254 3.24995 3.19253-1.45846 3.19253-3.24995-1.43262-3.24996-3.19253-3.24996"/><path d="M11.39781 11.30307c0 .24977-.20097.45074-.45074.45074s-.45075-.20097-.45075-.45074.20097-.45075.45075-.45075.45074.20097.45074.45075m2.48914 0c0 .24977-.20096.45074-.45074.45074s-.45074-.20097-.45074-.45074.20096-.45075.45074-.45075.45074.20097.45074.45075M7.99856 7.76889c-2.07859 0-3.7696-1.71685-3.7696-3.82703S5.92284.11484 7.99856.11484s3.7696 1.71685 3.7696 3.82702-1.691 3.82703-3.7696 3.82703m0-7.07698c-1.7599 0-3.19253 1.45846-3.19253 3.24995s1.43262 3.24996 3.19253 3.24996 3.19254-1.45846 3.19254-3.24996S9.75848.69191 7.99856.69191"/><path d="M7.16598 3.1868c0 .24977-.20097.45074-.45075.45074s-.45074-.20097-.45074-.45075.20097-.45074.45074-.45074.45075.20097.45075.45074m2.48914 0c0 .24978-.20097.45075-.45074.45075s-.45075-.20097-.45075-.45075.20097-.45074.45075-.45074.45074.20097.45074.45074m-1.602 2.95425c-1.11682 0-1.89486-.623-1.90634-.63162a.2871.2871 0 0 1-.0402-.4048.2871.2871 0 0 1 .40481-.0402c.06317.0488 1.43263 1.12542 3.08631-.01436.13207-.09187.31007-.05742.40194.07465s.05742.31006-.07464.40194c-.67182.46222-1.31492.61726-1.87189.61726Zm-5.9573 7.8866c-.09187 0-.18087-.04307-.2383-.12346-.089-.13206-.05741-.31007.07465-.40194 2.02118-1.39242 3.761 0 3.77822.01436a.2871.2871 0 0 1 .0402.4048.2871.2871 0 0 1-.40482.0402c-.05742-.04594-1.42975-1.12543-3.0863.01436-.04881.03445-.10623.05167-.16365.05167m11.57294-.05167h-2.87099c-.16077 0-.28996-.1292-.28996-.2871s.12919-.2871.28996-.2871h2.87099c.16078 0 .2871.1292.2871.2871s-.1292.2871-.2871.2871"/></svg>