<svg class="nok-icon %s" height="16" width="16" fill="currentColor" xmlns="http://www.w3.org/2000/svg" viewBox="0 0 16 16"><path d="M4.34 12.28h.69c.14 0 .26.02.26.2q0 .29-.27.28H3.03q-.26-.02-.25.23v2.31q-.01.25.23.23h2.26c.2 0 .25-.08.24-.25v-.47q.01-.25.26-.26c.17 0 .21.12.2.27v.89q0 .3-.27.3H2.58q-.27 0-.27-.3v-3.17q0-.28.26-.26zM2.31.9V.26q0-.25.25-.26h2.48q.25 0 .25.26c0 .2-.11.22-.27.22L3.06.47c-.22 0-.28.07-.28.28v2.23c0 .19.04.27.25.26h2.23q.26.02.24-.24v-.44c.02-.15.08-.26.26-.25.2 0 .21.11.21.26v.88q0 .27-.24.26h-3.2q-.24 0-.22-.28zm2.77 8.96h-2.4c-.32 0-.37-.05-.37-.35V6.46c0-.28.04-.32.33-.32h2.34c.16 0 .32 0 .31.24 0 .2-.15.24-.32.24H3.05q-.29-.02-.26.26v2.24c0 .2.04.27.26.27h2.2q.29.01.26-.26v-.47c.02-.14.12-.25.27-.24q.22.02.2.28v.86q.01.31-.31.3z"/><path d="M5.87.3c.27-.15.53-.13.66.03.14.17.13.45-.06.65L4.7 2.75c-.2.2-.49.18-.7-.02l-.69-.7c-.2-.2-.22-.48-.04-.65.16-.16.47-.15.66.03l.2.2.22.2zM3.44 13.54c.24-.07.4.04.55.17q.12.1.23.23.15.17.32-.02.63-.65 1.3-1.3.32-.34.63-.06c.2.17.2.45-.01.67l-1.77 1.76q-.36.35-.72-.01l-.64-.65c-.28-.28-.24-.57.12-.79Zm2.84-6.28L4.73 8.82c-.29.28-.49.28-.78 0l-.65-.66c-.2-.2-.2-.47-.02-.65a.45.45 0 0 1 .63.04l.36.4c.2-.05.26-.17.35-.26q.62-.6 1.23-1.23.25-.26.58-.09c.2.11.21.3.18.5-.03.18-.2.25-.33.4M12.64.92h.74c.16 0 .3.02.3.23s-.12.25-.3.25h-4.8c-.18 0-.33-.04-.32-.25 0-.2.15-.23.31-.23zM8.87 7.55H8.5c-.14-.03-.25-.1-.24-.26q.02-.24.26-.22h4.91q.24-.01.26.22c.02.17-.09.23-.23.25l-.27.01zm3.28 6.1H8.6c-.17 0-.34-.01-.33-.25 0-.22.17-.23.33-.23h4.76l.15.01q.2.05.19.27-.03.2-.23.2zM9.75 2.78h-1.2c-.16 0-.28-.03-.29-.22-.01-.2.12-.25.28-.26h2.48c.13 0 .26.01.3.18q.09.29-.23.3zm.44 6.14H8.57c-.18 0-.31-.05-.3-.26 0-.2.14-.22.3-.22h2.45c.18 0 .32.04.31.25 0 .2-.15.23-.3.23zm-.35 6.14H8.57c-.16 0-.3-.03-.31-.23 0-.21.14-.25.31-.25h2.46c.15 0 .3 0 .3.22 0 .21-.13.26-.31.26z"/></svg>