<svg class="nok-icon %s" height="16" width="16" fill="currentColor" xmlns="http://www.w3.org/2000/svg" viewBox="0 0 16 16"><path d="M2.88137 14.194a19.06 19.06 0 0 1-.5933-2.84018 11.7 11.7 0 0 1-.09065-1.69751c.02198-1.04652.3049-2.01064.87897-2.89236.29666-.45322.63176-.88447.87348-1.3734.40378-.81579.45322-1.67828.35708-2.56274-.07965-.72515-.30489-1.40635-.59605-2.06833-.09614-.217-.05493-.41476.09889-.49716.19776-.10438.40377-.03571.52188.20051.27743.5631.45597 1.15914.58232 1.77168.10438.49716.09614.99982.09889 1.50249.00824.94764-.28292 1.79914-.79382 2.58746-.25545.3928-.56035.75537-.76636 1.18387-.03845.07965-.07141.16206-.10437.23897 1.33493.93665 7.66626.93115 9.30884-.0055-.0412-.22523-.18953-.40103-.3049-.59056-.23622-.3873-.52463-.74163-.74987-1.13442a4.532 4.532 0 0 1-.57133-1.7387c-.14558-1.1976.03571-2.34027.49168-3.44997.05493-.13459.11536-.26918.18403-.39828.0824-.15382.19777-.2472.39554-.19502s.24446.17854.23897.36257c-.0055.22524-.14284.39554-.21974.58782-.33511.86523-.52464 1.75794-.46146 2.68635.05493.79656.30764 1.5327.79107 2.18644.5466.74163 1.03279 1.51347 1.22232 2.43364.16755.8103.15382 1.6261.09064 2.44464-.09064 1.1921-.3763 2.34575-.69494 3.49116-.10163.36532-.21974.7279-.33785 1.09047-.07142.22249-.23622.30215-.45322.23897-.16206-.0467-.26094-.26094-.19227-.46695.16206-.4752.29665-.96138.4285-1.44481.24171-.88172.44223-1.77442.56034-2.6836.05493-.43125.09888-.86799.0412-1.32395-.35433.09064-.64.2994-.9394.4697-.88996.49991-1.7552 1.04103-2.57923 1.64806-.2994.21975-.5576.5219-.90918.64-.32962.10988-.36807.29116-.35983.58782.01923.73064.00824 1.46403.0055 2.19742 0 .27468-.09065.3818-.32138.3873-.23622.0055-.34335-.10987-.34335-.3928a355 355 0 0 1 0-2.41716c0-.15657-.02746-.23897-.206-.28841-.38456-.10713-.65374-.41477-.96687-.64275a25.545 25.545 0 0 0-2.76601-1.76893c-.26919-.14832-.53837-.29115-.83502-.44772-.06043.27193-.0467.51365-.02472.74987.14558 1.51348.49716 2.98026.95588 4.42781.0357.11537.07141.23348.09613.35159.0412.18678 0 .3461-.19776.41751-.20876.07691-.39005-.01373-.46146-.23622-.1346-.43125-.2582-.86799-.39005-1.32395m6.46593-5.10627c-.56584.04395-1.13168.09614-1.69751.06867-.217-.01099-.43674-.01923-.65374-.03296-.28292-.01648-.56858-.02197-.84875-.05768-.96962-.12635-1.93648-.28017-2.87314-.57408-.05768-.01648-.12086-.05494-.18678-.0055-.16206.12361-.13734.53288.0412.63177.33511.18403.67296.36257 1.00258.54935 1.1454.6455 2.2606 1.33494 3.2824 2.16721.37356.3049.80756.31588 1.16189.03022 1.30747-1.05202 2.73305-1.92275 4.23004-2.67262.2582-.1291.28567-.26094.2225-.50266-.0522-.20876-.12361-.26919-.34885-.20326-1.07399.31313-2.1672.53013-3.33184.5988Z"/><path d="M2.14524 3.27279c-.15108-.18678-.29391-.36258-.44498-.53013-.15657-.1703-.19228-.39004-.07142-.51914.13734-.15107.37356-.15931.54661.01099.30764.30214.5988.61802.8927.93116.46146.48892.45872.53287-.02197 1.01905-.29116.2939-.56858.60155-.857.8982-.16755.1758-.39279.19227-.53562.05493-.14008-.13733-.1291-.37356.03846-.53837.17304-.1703.35708-.32686.54386-.49716-.12086-.1236-.217-.09614-.29665-.09614-.51365-.00275-1.02455 0-1.5382 0C.10987 4.00068 0 3.90455 0 3.66283c0-.23073.11262-.32686.40652-.32961.49717-.00275.9916 0 1.48876-.00275.0824 0 .17854.03846.24996-.05493Zm11.02832 1.12618c-.14008-.14009-.26644-.2637-.39004-.39279-.23348-.24172-.23348-.45047.00824-.69494.34884-.35158.70592-.69768 1.05202-1.05201.15107-.15382.30214-.21975.48892-.07691.13734.10712.15657.36807.02747.53013-.1236.15107-.26918.28017-.40378.423-.04394.0467-.10712.07691-.12085.16206.09613.04395.20051.03022.30214.03022h1.51348c.2472 0 .35433.10712.35433.3296 0 .22525-.10712.33237-.34884.33512-.5109.00274-1.02455 0-1.53545.00274-.08515 0-.17854-.02197-.28841.0412.1703.19228.3461.36533.49442.56035.13185.17305.16206.43124.03021.5466-.13459.11812-.40927.09065-.5466-.08514-.18679-.23897-.40927-.43949-.62902-.66747ZM8.36395 5.4867c-.1758.19227-.37356.22523-.58507.12085-.2582-.12635-.21974-.37356-.206-.59605.01373-.19502.1291-.32137.32412-.3763.31862-.09065.65098.26643.56583.60978-.01922.0769-.05768.15107-.09888.24172"/></svg>