<svg class="nok-icon %s" height="16" width="16" fill="currentColor" xmlns="http://www.w3.org/2000/svg" viewBox="0 0 16 16"><path d="M7.56 5.78a1.42 1.42 0 1 1 0-2.83 1.42 1.42 0 0 1 0 2.83m0-2.22a.8.8 0 0 0-.81.81.82.82 0 1 0 .81-.81m1 12.41a.9.9 0 0 1-.88-.88v-2.83h-.23V15a.88.88 0 0 1-1.76 0v-4.1l.01-.15-.01-3.63c0-.64.6-1.16 1.34-1.16H8.1c.74 0 1.34.52 1.34 1.16l-.02 3.72q.03.08.02.15v4.1c0 .49-.4.88-.88.88m-1.4-4.32h.82c.17 0 .3.14.3.3v3.14a.28.28 0 0 0 .57 0V11l-.01-.06V7.12c0-.3-.33-.56-.74-.56H7.04c-.41 0-.74.25-.74.56l.01 3.66v.07l-.01.05V15a.3.3 0 0 0 .28.29c.15 0 .28-.13.28-.28v-3.05c0-.17.13-.3.3-.3Zm5.7-8.26a1.68 1.68 0 0 1 0-3.36 1.68 1.68 0 0 1 0 3.36m0-2.76a1.08 1.08 0 1 0 0 2.16 1.08 1.08 0 0 0 0-2.16m1.5 15.34h-.28a.9.9 0 0 1-.88-.88V13.2h-.56v1.78c0 .49-.39.88-.88.88h-.27a.9.9 0 0 1-.88-.88V12.8l-.09-.05c-.36-.22-.8-.5-.8-.9v-.05l1.12-6.72c.02-.76.97-1.33 1.81-1.33h.41c.85 0 1.8.57 1.82 1.33l1.11 6.72v.05c0 .34-.33.55-.63.75l-.13.08v2.41c0 .49-.4.88-.88.88Zm-2.01-3.37h1.15c.17 0 .3.14.3.3v2.2c0 .14.13.27.29.27h.27c.15 0 .28-.13.28-.28v-2.56a.3.3 0 0 1 .1-.22q.13-.12.31-.23c.1-.06.3-.18.35-.26l-1.11-6.67V5.1c0-.37-.63-.75-1.22-.75h-.4c-.6 0-1.22.39-1.22.75v.05l-1.12 6.7c.05.1.37.3.51.38l.26.16a.3.3 0 0 1 .12.25v2.34c0 .15.13.28.28.28h.27c.16 0 .28-.13.28-.28V12.9c0-.17.14-.3.3-.3M2.25 3.39C1.32 3.39.57 2.63.57 1.7a1.68 1.68 0 0 1 3.36 0c0 .92-.76 1.68-1.68 1.68Zm0-2.76a1.08 1.08 0 1 0 0 2.16 1.08 1.08 0 0 0 0-2.16M3.6 15.92h-.27a.9.9 0 0 1-.88-.88v-3.66h-.43v3.66a.9.9 0 0 1-.88.88H.88a.9.9 0 0 1-.88-.88V5.1c0-.75.7-1.36 1.58-1.36H2.9c.88 0 1.59.61 1.59 1.36l-.01 4.42.01.17v5.34c0 .49-.4.88-.88.88Zm-1.88-5.14h1.03c.17 0 .3.13.3.3v3.96c0 .15.13.28.28.28h.28c.15 0 .28-.13.28-.28V9.69l-.01-.06-.01-.07.01-4.45c0-.42-.44-.76-.98-.76H1.59c-.55 0-.99.34-.99.76l.02 4.45-.01.08v5.4c0 .15.12.28.27.28h.27c.16 0 .28-.13.28-.28v-3.96c0-.16.14-.3.3-.3Z"/></svg>