<svg class="nok-icon %s" height="16" width="16" fill="currentColor" xmlns="http://www.w3.org/2000/svg" viewBox="0 0 16 16"><path d="M1.78 13.98a.2.2 0 0 1-.19-.2V10c0-.1.09-.18.19-.18s.18.08.18.18v3.8q-.02.17-.18.19m2.8 0a.2.2 0 0 1-.2-.2V10.8h-1.1v2.99c0 .1-.1.19-.2.19s-.18-.09-.18-.2v-3.17q.01-.17.18-.19h1.5q.16.02.18.19v3.18q-.01.17-.19.19"/><path d="M.77 10.27a.2.2 0 0 1-.14-.06l-.58-.66a.2.2 0 0 1 .02-.26l4.85-4.27a.2.2 0 0 1 .24 0L6.8 6.4q.1.08.06.2l-.35.89q-.05.08-.14.11-.12.03-.16-.04l-1.16-.98L.9 10.22a.2.2 0 0 1-.12.05m-.32-.83.33.38 4.14-3.63a.2.2 0 0 1 .24 0l1.08.92.2-.51-1.4-1.19zM1.8 7.37a.2.2 0 0 1-.19-.19V5.71c0-.1.09-.19.2-.19h.91q.17.02.19.19v.61c0 .1-.08.19-.19.19s-.18-.09-.18-.19V5.9h-.55v1.28c0 .1-.08.19-.19.19M7.05 14H.88c-.1 0-.19-.09-.19-.19s.08-.18.19-.18h6.17q.16.02.18.18c.02.16-.08.19-.18.19m7.07-1.67q-.59 0-1.08-.35a2 2 0 0 1-1.08.35c-.01 0-1.11-.01-1.44-.47a.2.2 0 0 1 .04-.27q.15-.09.26.05c.15.2.81.31 1.14.31q.54 0 .96-.35a.2.2 0 0 1 .24 0 1.5 1.5 0 0 0 2.46-1.14 1.5 1.5 0 0 0-.95-1.4.2.2 0 0 1-.12-.14c-.15-.77-.79-1.33-1.5-1.33-.18 0-1.04.03-1.42.6a.2.2 0 0 1-.26.06.2.2 0 0 1-.06-.26c.48-.72 1.45-.78 1.73-.78.87 0 1.63.64 1.85 1.54a1.9 1.9 0 0 1 1.1 1.7c0 1.04-.84 1.88-1.87 1.88"/><path d="M13.04 13.91a.2.2 0 0 1-.19-.19V9.5c0-.1.09-.19.19-.19s.19.09.19.2v4.22c0 .1-.09.2-.2.2"/><path d="m12.95 11.29-.1-.03-.79-.51a.2.2 0 0 1-.05-.27.2.2 0 0 1 .26-.05l.79.51c.08.06.1.18.05.26a.2.2 0 0 1-.16.09m.09-.62a.2.2 0 0 1-.18-.12.2.2 0 0 1 .11-.24l.88-.35q.16-.05.24.1.05.16-.1.25l-.88.35zM9.3 12.14h-.06a2.7 2.7 0 0 1-1.98-.92 2.6 2.6 0 0 1-.5-2.14 10 10 0 0 1 .79-2.56q.75-1.57 1.7-1.57c1.4 0 2.21 2.58 2.48 4.1.2 1.17-.16 1.87-.49 2.26-.44.52-1.17.83-1.94.83m-.05-6.81c-1.03 0-1.88 2.27-2.13 3.81q-.17 1.1.43 1.84c.4.47 1.03.76 1.7.78a2.2 2.2 0 0 0 1.7-.7q.62-.7.41-1.94c-.27-1.53-1.04-3.8-2.1-3.8Z"/><path d="M9.22 10.8a.2.2 0 0 1-.12-.05L7.72 9.62a.19.19 0 1 1 .24-.3l1.38 1.14a.2.2 0 0 1 .02.27.2.2 0 0 1-.14.07M9.2 9.18a.2.2 0 0 1-.12-.04l-.83-.69a.19.19 0 1 1 .23-.29l.83.69q.13.12.03.26a.2.2 0 0 1-.15.07Z"/><path d="M9.3 10.8a.2.2 0 0 1-.15-.07.2.2 0 0 1 .03-.27l1.38-1.13a.2.2 0 0 1 .26.02.2.2 0 0 1-.03.27l-1.38 1.13a.2.2 0 0 1-.12.05Zm.02-1.62a.2.2 0 0 1-.15-.07.2.2 0 0 1 .03-.26l.83-.69a.2.2 0 0 1 .26.03c.07.08.06.2-.02.26l-.83.69a.2.2 0 0 1-.12.04"/><path d="M9.26 13.99a.2.2 0 0 1-.19-.19V7.5c0-.1.09-.19.19-.19s.19.09.19.19v6.3q-.02.17-.19.19"/><path d="M7.4 14.86a.19.19 0 0 1-.12-.33c.87-.69 2.39-1.1 4.05-1.1s3.18.41 4.05 1.1a.19.19 0 1 1-.23.29c-.8-.62-2.26-1-3.81-1s-3.03.38-3.82 1a.2.2 0 0 1-.12.04m4.22-11.05a.86.86 0 0 1 0-1.7.86.86 0 0 1 0 1.7m-.48-.85c0 .26.22.48.48.48.27 0 .48-.22.48-.49a.48.48 0 0 0-.82-.33.5.5 0 0 0-.14.34m-.18 1.81a.2.2 0 0 1-.17-.26l.14-.35a.19.19 0 1 1 .35.15l-.15.35a.2.2 0 0 1-.17.11m1.19-2.91a.2.2 0 0 1-.17-.26l.14-.35q.08-.16.25-.1c.17.06.14.15.1.25l-.15.34a.2.2 0 0 1-.17.12M10 3.82a.2.2 0 0 1-.17-.12q-.05-.17.1-.24l.35-.14q.17-.06.24.1.05.17-.1.24l-.35.15zm2.9-1.22a.2.2 0 0 1-.17-.11q-.05-.16.1-.25l.35-.14q.16-.05.25.1.05.16-.1.25l-.36.14zm-2.56.02q-.04 0-.07-.02l-.35-.14a.2.2 0 0 1-.1-.25q.1-.16.25-.1l.35.15a.19.19 0 0 1-.08.36m2.92 1.2-.08-.02-.34-.15a.2.2 0 0 1-.1-.25c.04-.1.15-.14.24-.1l.35.15a.19.19 0 0 1-.07.36m-.95.96a.2.2 0 0 1-.18-.12L12 4.3a.2.2 0 0 1 .1-.24q.16-.05.25.1l.14.35q.05.17-.1.24zm-1.22-2.9a.2.2 0 0 1-.17-.12l-.15-.35a.2.2 0 0 1 .1-.25q.16-.04.25.1l.14.36c.04.09 0 .2-.1.24z"/></svg>