<svg class="nok-icon %s" height="16" width="16" fill="currentColor" xmlns="http://www.w3.org/2000/svg" viewBox="0 0 16 16"><path d="M8.17.02q.85.15 1.1.95c.05.19.02.37.02.56q-.01.15.13.24.45.23.87.48c.1.06.15.05.24 0a1.3 1.3 0 0 1 1.56.02q.14.09.27 0l.82-.48q.15-.07.12-.28-.12-.76.48-1.23.61-.45 1.31-.16a1.3 1.3 0 0 1-.23 2.49q-.52.12-.96-.18c-.18-.12-.32-.16-.5 0l-.18.1c-.48.2-.7.5-.67 1.06.03.45-.34.75-.74.92q-.25.1-.22.35v.76q0 .17.17.23.83.3.8 1.2-.02.43.36.58.11.05.23.13c.3.21.58.3.97.1.56-.31 1.41.02 1.68.71.25.64-.04 1.43-.67 1.68-.17.07-.23.15-.21.33v.21c-.06.4.04.65.43.86.43.22.58.67.54 1.15q-.06.76-.78 1.09-.65.27-1.24-.1-.18-.15-.37 0-.32.22-.68.39-.3.12-.25.44.07.66-.46 1.07-.64.5-1.37.19c-.45-.2-.76-.57-.74-1.09.01-.37-.1-.6-.44-.72q-.1-.04-.19-.12c-.28-.16-.52-.3-.88-.07s-.79.17-1.15-.06q-.25-.17-.5 0l-.67.38c-.12.07-.2.15-.18.33.07.8-.43 1.41-1.22 1.46a1.3 1.3 0 0 1-1.38-1.45q.02-.23-.15-.32l-.79-.44q-.18-.11-.35.02-.6.36-1.24.09-.76-.36-.77-1.2.01-.86.76-1.2c.16-.08.24-.15.22-.33v-.24c.03-.34-.02-.57-.39-.77C.05 9.83-.09 8.92.3 8.31c.36-.56 1.21-.73 1.8-.35.14.1.23.1.37 0l.78-.45c.1-.06.16-.12.14-.27a1.3 1.3 0 0 1 .78-1.38q.2-.07.18-.28v-.7c.02-.2-.04-.3-.24-.39q-.75-.36-.73-1.19c.02-.83.26-.96.76-1.18q.64-.27 1.24.09.2.13.4 0 .36-.23.74-.43.21-.11.18-.34c-.02-.31 0-.61.2-.88q.49-.6 1.27-.54m2.3 6.02c.48-.16.58-.5.5-.95v-.34q.02-.15-.12-.2c-.61-.21-.95-.78-.84-1.52q.02-.16-.1-.22-.45-.24-.87-.49-.1-.07-.2 0c-.54.42-1.09.4-1.65.04-.08-.05-.16-.1-.27-.03l-.82.48c-.08.04-.15.1-.12.2a1.3 1.3 0 0 1-.78 1.52q-.19.07-.17.28v.76q-.02.21.19.29.37.14.58.49.29.49.19 1.03l.98.57q.15.1.31 0 .72-.42 1.43.02.14.09.27 0l.76-.43q.29-.14.25-.45a1.2 1.2 0 0 1 .48-1.05m-5.6 7.34c.14.03.3.03.4.12.32.3.6.14.9-.05q.13-.09.27-.16c.2-.1.3-.22.28-.46-.07-.51.06-1 .54-1.2.47-.2.45-.52.43-.9v-.2q.03-.18-.17-.25-.6-.22-.78-.84c-.06-.2-.02-.42-.03-.63 0-.12-.02-.21-.15-.28l-.78-.45q-.14-.1-.28.02c-.5.37-1.1.37-1.6 0q-.14-.1-.27-.02-.37.23-.76.42c-.18.09-.2.21-.18.38.09.53-.09 1-.53 1.23-.4.21-.45.48-.4.84v.2q-.05.26.2.35c.42.18.63.5.73.94.06.24-.03.45-.02.67l.93.55q.14.1.27-.01.41-.32 1-.28m3.74-3.15q-.35.09-.3.46.03.28 0 .57 0 .15.14.2c.6.24.92.74.84 1.48q-.03.17.1.27.45.24.87.5.1.06.2-.02c.43-.4 1.15-.42 1.66-.03q.13.1.27 0 .37-.22.76-.42.22-.1.15-.33c-.1-.47.1-1.08.53-1.27s.47-.47.43-.84v-.17c.03-.2-.05-.29-.23-.37a1.3 1.3 0 0 1-.72-1.42q.04-.18-.1-.27l-.8-.46q-.17-.1-.32.01-.8.55-1.61 0-.16-.1-.3 0l-.76.44c-.1.06-.15.1-.13.24q.15.9-.67 1.44m5.52-8.44q.08.06.17.1c.33.17.68.04.87-.32.15-.26.01-.65-.28-.81a.7.7 0 0 0-.78.12q-.35.37.02.91M4.4 14.11c-.32.2-.43.53-.29.84.13.27.47.44.75.35.37-.1.57-.47.46-.8-.12-.38-.48-.54-.92-.39m.67-6.51.14-.14a.6.6 0 0 0-.06-.84c-.26-.25-.58-.27-.84-.07a.64.64 0 0 0-.16.85q.28.47.92.2m10.17 5.09c.01-.38-.44-.74-.79-.64a.7.7 0 0 0-.5.73c.03.31.3.54.62.55q.56 0 .67-.64M4.5 2.7l-.1.06a.6.6 0 0 0-.3.76c.08.27.41.49.67.45a.7.7 0 0 0 .57-.66q-.01-.64-.84-.6m7.41 4.53a.65.65 0 0 0-.27-.72.64.64 0 0 0-.75.04c-.19.13-.29.46-.21.7a.8.8 0 0 0 .57.47c.23.03.51-.18.66-.5m-.26 7.98.11-.1a.62.62 0 0 0-.03-.91c-.25-.23-.66-.2-.9.04s-.25.56-.04.84c.18.25.5.3.87.13M7.4 12.43q-.16.3.03.58c.22.33.55.41.89.22.3-.18.39-.5.22-.84-.24-.48-.8-.47-1.14.04M.79 9.25l.05.11c.16.3.53.43.81.3.31-.15.48-.5.38-.78-.14-.35-.48-.53-.81-.43-.35.1-.47.32-.43.8m14.44-.07v-.2a.7.7 0 0 0-.61-.57.7.7 0 0 0-.66.48c-.08.3.07.61.36.75q.55.26.92-.46m-7.37-.76-.2.1c-.22.12-.38.44-.33.65.07.26.36.52.6.53.37.01.7-.28.72-.63.01-.36-.33-.66-.8-.65M1.9 12.28c-.36-.34-.8-.32-1.02.04a.7.7 0 0 0 .11.85c.24.2.58.21.81.01.29-.24.38-.57.1-.9m9.84-8.5c.28-.33.29-.58.03-.9a.7.7 0 0 0-.78-.13c-.29.16-.4.5-.29.79.16.4.65.59 1.04.24M8.53 1.7q.23-.36 0-.73C8.35.67 7.99.6 7.67.78a.6.6 0 0 0-.25.81c.25.46.69.51 1.11.1Z"/></svg>