<svg class="nok-icon %s" height="16" width="16" fill="currentColor" xmlns="http://www.w3.org/2000/svg" viewBox="0 0 16 16"><path d="M3.61458 1.63633a.30345.30345 0 0 0-.4213.09464l-.12516.19843c-.09159.14349-.04885.32971.09464.4213a.30223.30223 0 0 0 .42129-.09464l.12517-.19844c.09158-.14348.04884-.3297-.09464-.4213m7.5497 5.68442c1.88666 0 3.42225-1.53558 3.42225-3.42225S13.05094.47624 11.16428.47624 7.74203 2.01183 7.74203 3.8985s1.53559 3.42225 3.42225 3.42225m0-6.23392c1.55085 0 2.81168 1.26082 2.81168 2.81167s-1.26083 2.81168-2.81168 2.81168S8.3526 5.44934 8.3526 3.89849s1.26083-2.81167 2.81168-2.81167"/><path d="M15.31616 9.46995c-.82122-1.02881-2.3629-1.66075-4.34726-1.7737-2.3507-.13433-4.12135-.67469-5.28144-1.5997.3114-.2137.58615-.4854.8029-.81206.08548-.13127.06106-.30529-.06105-.40603-.06106-.0519-.0977-.12212-.0977-.19844 0-.03968.01222-.07937.03359-.12211.06716-.12517.03968-.27781-.06411-.37245a.2537.2537 0 0 1 .10685-.43961c.12516-.03358.21675-.14348.2259-.2717.00611-.07022.04885-.13128.11296-.16486.12822-.06105.19539-.20454.16486-.34192C6.60637 1.59664 5.4066.6411 4.00229.6411c-1.00134 0-1.93856.51593-2.49113 1.3463-.18927.02443-.33581.05801-.34497.06106C-.04579 2.34154-.02137 3.1597.00916 4.10914v.1038c.02137.63499.04274 1.35241.41519 1.77065.20759.23507.45792.33887.8151.33887q.0916 0 .2015-.00916c.76321 2.28964 3.03758 3.94123 5.0433 4.61896-1.45315 2.05457-1.3524 4.4297-1.3463 4.5335l.61057-.03054c0-.02442-.1038-2.53387 1.48063-4.47548.06411-.07937.08548-.18928.05496-.28697a.3053.3053 0 0 0-.21065-.20149C5.15626 9.9462 2.82999 8.3984 2.05152 6.20645c.1038-.02442.20454-.05495.29918-.08853a2.9704 2.9704 0 0 0 1.65464.50066 2.992 2.992 0 0 0 1.10514-.2137c1.25777 1.11124 3.21465 1.74929 5.82484 1.89888 1.80729.1038 3.19633.6533 3.9046 1.54474.4793.60141.6472 1.34631.50066 2.2011l-.73879 3.33067.59531.13127.74184-3.34592c.17707-1.05018-.03053-1.95688-.62278-2.69872ZM.87922 5.5745C.65331 5.32417.63805 4.69834.62278 4.1946v-.10379c-.03358-.98912-.00916-1.27914.6869-1.4501.09769-.02443.37244-.07022.56782-.07022.0397 0 .07633 0 .10685.0061.58005.07938 1.21504.69911 1.23946 1.49285.02748.88228-.6991 1.42568-1.43179 1.57222-.23507.0458-.41824.07022-.55561.07022-.22286 0-.29308-.06106-.36024-.13433Zm2.69872-2.4728c.11906-.09464.26865-.1496.42435-.1496.3755 0 .68079.3053.68079.6808s-.30529.68078-.68079.68078c-.058 0-.116-.00916-.17401-.02442.0061-.07938.00916-.15875.0061-.23812a2.137 2.137 0 0 0-.25949-.94944ZM4.0023 6.008c-.35718 0-.70216-.08242-1.0166-.23507.32055-.23812.56172-.5434.70216-.89448.10074.02442.20759.03969.31444.03969.71131 0 1.29136-.58005 1.29136-1.29136S4.7136 2.33543 4.00229 2.33543c-.28392 0-.55562.09464-.77848.26255-.2656-.28392-.5953-.49762-.9586-.59226a2.3812 2.3812 0 0 1 1.73708-.76016c1.05323 0 1.95688.67468 2.26827 1.66076-.08853.08853-.15875.19538-.19844.31444-.28086.14654-.46403.43961-.46403.76627 0 .17096.0519.33886.14654.4793-.01832.06716-.02748.13737-.02748.20759 0 .15875.04274.31139.12517.44571a2.3751 2.3751 0 0 1-1.84698.88228Z"/><path d="m11.39935 15.3699.75894-2.92556.59103.15326-.75863 2.92554zM4.17325 5.15931c-.12211-.11906-.31444-.116-.4335.00305a.30406.30406 0 0 0 .00305.43046l.1679.16485c.06106.058.13738.08853.2137.08853s.15875-.03053.21676-.09158a.30406.30406 0 0 0-.00306-.43046l-.1679-.16485Zm.809-.36329-.16485.1679c-.11906.12212-.116.31445.0061.43046.05801.058.13739.08548.2137.08548s.15875-.03053.21981-.09159l.16486-.1679c.11906-.12212.116-.31445-.00611-.43045a.3013.3013 0 0 0-.43045.0061Zm.72353-1.81645.16486-.1679c.11906-.12212.116-.31445-.00611-.43046s-.31444-.116-.43045.00611l-.16486.1679c-.11906.12212-.116.31445.0061.43046a.30223.30223 0 0 0 .43046-.00305ZM4.8632 1.70654c-.05495-.15874-.23201-.24117-.39076-.18622-.15875.058-.24118.23202-.18317.39077l.07937.2198a.3053.3053 0 0 0 .39077.18317c.15875-.058.24117-.23201.18317-.39076l-.07938-.2198Z"/></svg>