<svg class="nok-icon %s" height="16" width="16" fill="currentColor" xmlns="http://www.w3.org/2000/svg" viewBox="0 0 16 16"><path d="M1.09 8.7A4 4 0 0 1 .03 6.4a2 2 0 0 1 .24-1.43q.43-.67 1.21-.76c.23-.03.47-.09.7-.01-.2-.47-.54-.74-.98-.9q-.5-.18-.37-.48c.07-.2.21-.23.56-.11q.51.16.9.53l.15.15q.1-.01.12-.08c.46-.72 1.14-.84 1.9-.67q.6.17 1.1.59.23.18.13.43-.1.22-.38.15c-.21-.04-.37.1-.5.24q-.08.1-.17.26c.3.16.56.35.72.65q.33.62.24 1.32a5 5 0 0 1-.43 1.5c-.22.46-.5.87-.93 1.17q-.45.28-.94.2a4 4 0 0 0-1.03 0q-.7.1-1.18-.46m.66-.22q.2.12.45.09.57-.13 1.16 0 .3.07.52-.12a3.1 3.1 0 0 0 1.1-2.7c-.02-.6-.53-.96-1.13-.95-.32 0-.61.1-.9.2a.5.5 0 0 1-.43-.02q-.22-.11-.46-.17c-.35-.09-1.1.14-1.27.5a1.8 1.8 0 0 0-.14 1.18c.15.77.47 1.45 1.1 1.99m2.39-5.28c-.44-.17-1.09.3-1.14.69.73.48 1.07.16 1.57-.52l-.12-.07zm8.04 4.7a3.23 3.23 0 0 1-2.02-5.19A3.1 3.1 0 0 1 13 1.47a3.14 3.14 0 0 1 2.9 2.68 3.1 3.1 0 0 1-1.03 2.96q-.8.73-1.9.8c-.26.01-.51-.03-.8-.02M10.5 3.3a2.5 2.5 0 0 0-.09 2.64 2.7 2.7 0 0 0 2.9 1.31 2.7 2.7 0 0 0 2-2.99c-.17-1.07-1.2-2.1-2.3-2.18A2.7 2.7 0 0 0 10.5 3.3m1.64 5.19 3.11-.4q.24-.04.5-.04.24.02.25.25c0 .14-.04.3-.22.32l-1.4.18-1.95.26-1.6.2-1.96.25-1.94.24-2 .25-1.91.25q-.82.09-1.62.2l-.4.02c-.2 0-.26-.13-.27-.28s.06-.26.23-.29l1.77-.23 1.9-.24 1.62-.2q.99-.15 1.98-.26l1.6-.2 1.58-.2.73-.1ZM9 14.54H5.52c-.14 0-.3.02-.36-.15q-.08-.24.1-.44.76-.87 1.5-1.75l.9-1.04q.21-.23.4-.47c.17-.2.39-.21.56-.02a64 64 0 0 1 1.65 1.92l1.19 1.37c.1.12.16.26.1.41s-.2.18-.36.18zm-.35-2.9a1 1 0 0 0-.32-.32l-2.24 2.62h4.55l-2-2.31Z"/><path d="M1.02 5.33q.32-.37.8-.4c.13 0 .26.02.28.19.01.16.01.32-.19.38-.22.07-.44.17-.53.4l-.06.2q-.07.35-.4.26C.7 6.32.7 6.14.71 6q.04-.37.3-.66ZM13.28 3.6q.73.4.66 1.22c-.04.47-.3.8-.7 1-.77.38-1.7-.21-1.74-1.07-.02-.62.38-1.11.86-1.22q.44-.12.92.06m-.07.76q-.06-.08-.13-.13a.6.6 0 0 0-.65-.05c-.2.11-.37.4-.34.6.04.24.25.48.49.52q.38.09.6-.2.27-.33.02-.75Zm-.02 2.04c.08.32-.12.5-.3.67-.1.1-.27.06-.37-.04q-.15-.13-.07-.32a1 1 0 0 1 .23-.36q.25-.27.5.05m-1.86-3.36q.3.15.18.45l-.07.26q-.1.24-.37.2-.22-.06-.22-.28 0-.3.16-.55.1-.15.32-.08M10.58 5q-.23-.14-.2-.38t.24-.25c.2-.03.59.3.6.49q.02.16-.1.27-.18.15-.32.03zm.89 1.4q-.26.14-.44-.07c-.13-.16-.3-.31-.24-.55q.07-.2.3-.2c.24.03.35.24.46.42q.11.2-.08.4m2.37.05q-.32-.4.14-.57.18-.07.37-.08.2.02.25.2c.05.18.05.26-.07.33-.2.12-.42.21-.69.12m.4-1.82.3-.33q.2-.18.43 0c.13.1.13.29 0 .43l-.16.16c-.12.12-.24.2-.42.13s-.17-.22-.15-.4Zm-1.2-1.38c-.27.01-.59-.26-.62-.52a.3.3 0 0 1 .25-.31c.2-.02.44.15.52.39.05.15.06.33-.14.44m1.48.23q.01.17-.05.3-.1.18-.3.14t-.23-.24v-.31c0-.15.01-.28.16-.34.1-.05.24-.07.34.02q.15.16.08.37z"/></svg>