<svg class="nok-icon" height="16" width="16" fill="currentColor" xmlns="http://www.w3.org/2000/svg" viewBox="0 0 16 16"><path d="M3.67213.45824c-.3487.1111-.46904.16973-.76528.39808-.29316.22218-.61408.66962-.75912 1.05535q-.11109.28698-.12651 5.681l-.00926 5.4002H.20675l-.10183.1296C.01852 13.22739 0 13.32922 0 13.61929c0 .94734.27155 1.49045.91649 1.84223l.31784.16972H12.1026l.23761-.11109c.33327-.1512.66963-.48447.83009-.81465l.14195-.28081.01543-5.69952.00925-5.69643h2.41929l.1296-.1296c.12652-.12653.12652-.14196.10492-.719-.01543-.51842-.03394-.62951-.15737-.87638-.1759-.35178-.55854-.70048-.91958-.83626-.27155-.10492-.34561-.10492-5.61929-.10183-4.96817 0-5.36625.00617-5.62237.09257m9.16799.82083-.13578.2623-.02469 6.34445c-.03086 6.98323-.00617 6.52035-.33327 6.82893-.14503.13578-.50916.29316-.66962.29316-.19132 0-.47213-.11726-.64494-.26538-.2808-.25304-.36721-.48448-.36721-1.05536 0-.76837.48756-.68813-4.10106-.68813H2.66307l.00925-5.32305c.01543-5.02681.0216-5.3323.10492-5.55449.10492-.27155.4567-.68505.719-.85168.39807-.2407.32092-.2407 5.03606-.2407l4.43742-.00617-.13578.2623Zm1.84223-.18206c.39807.16664.66346.5894.66346 1.06152v.16664h-2.01196v-.2623c0-.72825.70357-1.23741 1.3485-.96586m-4.66576 12.9759c.0216.29315.0648.47212.16663.66962l.13578.2623-4.44359-.00927-4.44359-.01542-.20983-.11418c-.32093-.16972-.48756-.45362-.50916-.8702l-.0216-.3487 4.64416.00926 4.65034.01543z"/><path d="M4.93115 4.01929c-.25613.09566-.33327.38881-.1512.56779.10182.10183.16663.10183 2.8945.10183s2.79267 0 2.8945-.10183c.1296-.1296.1296-.36104-.00617-.48448-.10183-.08949-.23144-.09566-2.83279-.10491-1.49354-.00618-2.75873.00617-2.79884.0216m-.1512 2.07984c-.12961.1296-.12961.36104.00616.48448.10184.08949.22218.09566 2.88834.09566s2.7865-.00617 2.88833-.09566c.13577-.12035.13577-.35179.00617-.48448-.10183-.10183-.16664-.10183-2.8945-.10183s-2.79268 0-2.8945.10183m-.0216 2.02122c-.0463.06171-.08024.16046-.08024.216s.03394.15738.08023.21601l.07715.1111h5.67483l.07714-.1111c.10492-.1512.10184-.35795-.00925-.4567-.0864-.07406-.36105-.0864-2.9192-.0864H4.8355zm.1728 1.88852c-.25613.09566-.33327.38882-.1512.5678.09565.09565.16663.10183 1.56142.10183s1.46268-.00618 1.55834-.10184c.1296-.1296.1296-.36104-.00617-.48447-.10183-.08949-.20675-.09566-1.49971-.10492-.76529-.00617-1.42257.00617-1.46268.0216"/></svg>