<svg class="nok-icon" height="16" width="16" fill="currentColor" xmlns="http://www.w3.org/2000/svg" viewBox="0 0 16 16"><path d="M8.0095.83432c.10853 0 .21706.019.30388.05427.07326.02713.18179.11124.24148.18178.10853.13024.10853.1411.10853.70273v.5725l.25776.44497.25775.44497 2.08378.0217 2.08377.02172.10581.10581c.07326.07326.11125.16551.12481.29303.0217.16822.01357.19264-.1221.3256-.1248.1248-.1655.14108-.34729.14108s-.2062.01085-.2062.02713c.0027.0217.50466.99305 1.12328 2.1706l1.11785 2.14075.2035.0217.2035.0217-.01086.21978c-.07326 1.18298-.92793 2.214-2.1082 2.52875-.17635.04612-.42868.07054-.68644.07054s-.5128-.02442-.68645-.07054c-1.03104-.2659-1.8016-1.03104-2.05936-2.05936-.04612-.17907-.0814-.4097-.0814-.51823v-.19264h.388l1.11786-2.14075c.6159-1.17483 1.11785-2.15431 1.11785-2.17873s-.44225-.03256-1.35933-.03256h-.56707l-1.92912.01357v9.48278l1.15042.02171c1.11514.0217 1.15313.02442 1.28065.11124.40156.2876.388 1.00933-.02442 1.28608l-.14109.09496-2.96557-.00814c-3.3807-.01085-3.09581.02171-3.29388-.37171-.1845-.36629-.09496-.80855.21435-1.01475l.14922-.1004H7.3339V4.14449H5.39664c-1.0663 0-1.93725.01085-1.93725.02713s.50466.99576 1.12328 2.17874l1.11786 2.1516h.39613l-.02442.31202c-.07054.99576-.78955 1.93997-1.7636 2.32525-.33374.13024-.6756.18993-1.01476.18993-1.1667 0-2.27099-.72986-2.66712-1.8857-.07054-.19807-.13024-.4721-.14109-.64304l-.02442-.29846H.8574l1.1097-2.12177c.60777-1.17212 1.11515-2.1516 1.12328-2.17873.01357-.04613-.0407-.05698-.19264-.05698s-.2279-.0217-.32287-.11667c-.2035-.19807-.20892-.42327-.02442-.63761l.09768-.11124 2.0919-.02171 2.09192-.0217.25504-.42327.25234-.42327v-.56978c.0027-.52094.01085-.58063.09767-.70273.04884-.07326.15466-.1655.23063-.2062.08953-.04885.2252-.07598.35815-.07598m5.65982 7.6622c.48839 0 .81398 0 .81669-.00814.00814-.00814-.3473-.75428-.78684-1.66321s-.84653-1.73377-.89809-1.83958l-.09767-.18993-.89266 1.8423-.89537 1.84228 1.77989.01086h.97405m-9.3417.00542c.42598 0 .70816 0 .71359-.00542.00271-.00814-.37714-.82212-.8601-1.80702-.47482-.98491-.88723-1.80702-.90894-1.82873h-.00271c-.02985 0-.14109.19264-.29032.50466-.14109.29846-.54265 1.12329-.88723 1.83144l-.62947 1.2915 1.7826.01086H4.3439M8.0095.38121c-.12481 0-.36087.01628-.56978.12752-.1411.07597-.30389.21706-.39071.35001-.17365.2469-.17365.44226-.17365.95506v.44498l-.18993.31745-.1248.2062-1.83687.019-2.09191.0217c-.13024 0-.25505.0597-.33916.15737l-.09768.11124c-.34186.39614-.32287.88995.04884 1.25623.0597.0597.1221.10853.17908.1411-.20078.3907-.5128.99033-.86824 1.67678L.5752 8.04613H.4531c-.12752 0-.2469.05426-.33373.14651-.0841.09496-.13023.21706-.11667.34458l.02442.29575c.01628.20892.0814.52094.16551.757.2252.65117.64575 1.20467 1.21553 1.6008.55622.38529 1.2074.5915 1.88028.5915s.80312-.07598 1.17755-.21978c.55621-.21977 1.04731-.5942 1.41631-1.07987.37443-.49381.5942-1.05545.6349-1.63337l.02442-.30931c.00814-.12753-.03256-.25234-.11938-.34459-.08411-.09496-.2062-.14651-.33373-.14651h-.1221L4.9761 6.14143c-.31745-.60777-.59963-1.15042-.8004-1.53841a135 135 0 0 1 1.2101-.00543h1.48414v8.61727h-1.826c-.08955 0-.17908.02713-.25505.07868l-.14923.10039c-.49653.33373-.6539 1.02018-.3663 1.59539.00815.0217.019.03798.02986.05969.0434.09496.10581.23605.26318.3473s.3473.14922.51552.1655c.34458.0407.9225.0407 2.19501.04613h.6973l2.96558.00814c.08682 0 .17636-.02714.2469-.07597l.1411-.09497s.0027 0 .00542-.00271c.31745-.21435.5128-.59692.51823-1.02018.00543-.41513-.17636-.79498-.48567-1.01475-.14652-.1031-.26861-.14652-.4911-.1628-.1845-.01628-.48567-.0217-1.04188-.03256l-.70545-.01085v-8.5847l1.476-.00815h1.20197c-.1872.3663-.46125.89266-.80312 1.54655l-.99033 1.89385h-.11124c-.25233 0-.45311.2035-.45311.45311v.19264c0 .1628.04883.43955.09496.62676.29846 1.18569 1.1884 2.07834 2.38494 2.38765.27946.07326.62133.08412.80312.08412s.52366-.01086.80312-.08412c.67017-.17907 1.25895-.5535 1.7012-1.0853.44498-.53179.70274-1.17483.74072-1.85314s.01085-.2252.01085-.2252c.01357-.24148-.1655-.4504-.4097-.47482l-.16008-.01628-1.0039-1.92097a199 199 0 0 1-.85467-1.64423c.06783-.04341.13295-.09767.2035-.1655.23062-.23063.2876-.388.25233-.6973-.02171-.23064-.10853-.42056-.25505-.56708l-.10582-.10581c-.0841-.08411-.19806-.13295-.31745-.13295l-2.08377-.0217-1.82601-.019-.12752-.21977-.19807-.33916v-.4504c0-.59691 0-.738-.21435-.99576 0 0-.0027-.00543-.00542-.00814-.09497-.10582-.25505-.23876-.4097-.30117C8.2971.39206 8.1153.3785 7.99593.3785h-.00271Zm3.64388 7.65135.58064-1.19654.4911-1.01204c.16279.33101.369.757.58334 1.19654.2062.42326.369.76242.4911 1.02018h-1.0853l-1.05816-.00543Zm-9.45023 0 .31474-.64575c.25776-.52909.56707-1.16127.7597-1.56283.14652.29303.32288.6566.51553 1.05274.21705.44497.4124.84924.55892 1.16127h-1.0853z"/></svg>