<svg class="nok-icon" height="16" width="16" fill="currentColor" xmlns="http://www.w3.org/2000/svg" viewBox="0 0 16 16"><path d="M9.31957 4.35804c-1.20097 0-2.17677-.9758-2.17677-2.17677S8.1186.0045 9.31957.0045s2.17677.9758 2.17677 2.17677-.9758 2.17677-2.17677 2.17677m0-3.64496c-.80765 0-1.4682.65753-1.4682 1.46519s.65754 1.4682 1.4682 1.4682 1.4682-.65754 1.4682-1.4682-.65754-1.4652-1.4682-1.4652"/><path d="M13.51998 15.9955c-.32426 0-.64852-.1231-.89472-.3693L9.851 12.3025c-.1201-.14412-.29424-.22519-.48039-.22519h-.10208c-.18615 0-.3603.08107-.48039.22519L6.0349 15.60218c-.51341.51642-1.31807.51642-1.81347.02402-.2372-.2372-.3693-.55546-.3693-.89473s.1261-.64252.35429-.87972c.77763-.9878 2.75924-3.8131 2.75924-5.25126s-2.84932-4.32351-3.9452-5.32333a1.255 1.255 0 0 1-.37531-1.02083c.03303-.3753.23119-.71458.54344-.92775.5014-.34528 1.19497-.26722 1.65134.18915L8.1276 4.8054c.80166.54645 1.5853.54645 2.38694 0l3.28767-3.28767c.45638-.45637 1.14994-.53443 1.65135-.18915.31225.21618.51041.55245.54344.92775s-.09908.7446-.3633 1.01183c-1.1109 1.00882-3.95721 3.91217-3.95721 5.33533s1.9816 4.26346 2.75924 5.25127c.22818.23719.35429.54644.35429.87971s-.13211.65754-.3693.89473c-.2462.2462-.57047.3693-.89473.3693Zm-4.25145-4.62676h.10208c.39633 0 .77163.17414 1.02684.48039l2.75323 3.29968c.16514.16213.55546.18615.76563-.02402.21617-.21618.21617-.57046 0-.78664-.00901-.009-.01802-.02102-.02702-.03002-.1201-.15013-2.92438-3.71702-2.92438-5.70764s3.75005-5.45844 4.1794-5.84875c.10508-.10509.16213-.26722.14711-.43236-.015-.16813-.09908-.31225-.2402-.40833-.21617-.14712-.53443-.10208-.7446.1081l-3.31169 3.30868s-.03002.02702-.04804.03903c-1.06286.7386-2.18577.7386-3.24864 0-.01801-.012-.03302-.02702-.04803-.03903l-3.3147-3.3117c-.21017-.21016-.52843-.2552-.7446-.10808-.14112.09608-.22519.2432-.2402.40833s.04204.32727.15913.44436c.41434.37831 4.16739 3.84613 4.16739 5.83675S4.87296 14.155 4.75286 14.30512c-.009.01201-.01801.02102-.02702.03003-.21618.21617-.21618.57046 0 .78664.21017.21017.57647.20716.78664 0l2.73222-3.27567c.2552-.30624.6275-.48039 1.02383-.48039ZM1.90655 7.6307c-.19516 0-.35429-.15913-.35429-.35429v-1.3451c0-.19515.15913-.35428.35429-.35428s.35429.15913.35429.35429v1.3451c0 .19515-.15913.35428-.3543.35428m0 2.51604c-.19515 0-.35428-.15913-.35428-.35428v-1.3451c0-.19516.15913-.35428.35429-.35428s.35429.15912.35429.35428v1.3451c0 .19515-.15913.35428-.3543.35428m-.71157-1.95458H.3543c-.19517 0-.3543-.15913-.3543-.3543s.15913-.35428.35429-.35428h.83768c.19516 0 .35429.15913.35429.35429s-.15913.35429-.3543.35429Z"/><path d="M3.39576 8.19216h-.83768c-.19516 0-.35429-.15913-.35429-.3543s.15913-.35428.35429-.35428h.83768c.19516 0 .35429.15913.35429.35429s-.15913.35429-.3543.35429"/></svg>