<svg class="nok-icon %s" height="16" width="16" fill="currentColor" xmlns="http://www.w3.org/2000/svg" viewBox="0 0 16 16"><path d="M8 16C3.66 16 .13 12.41.13 8S3.66 0 8 0s7.87 3.59 7.87 8-3.53 8-7.87 8M8 .99c-3.8 0-6.88 3.14-6.88 7S4.2 15.02 8 15.02s6.9-3.14 6.9-7.01S11.8.99 8 .99"/><path d="M8.57 12.12C6.33 12.12 4.5 10.27 4.5 8s1.82-4.12 4.06-4.12a4 4 0 0 1 1.6.33.5.5 0 0 1-.4.9 3 3 0 0 0-1.2-.24c-1.7 0-3.08 1.4-3.08 3.13s1.38 3.13 3.07 3.13q.69 0 1.32-.3a.5.5 0 1 1 .43.89q-.82.4-1.75.4Z"/><path d="M8 7.73H3.92a.5.5 0 1 1 0-.99H8a.5.5 0 1 1 0 .99m0 1.53H3.92a.5.5 0 1 1 0-.99H8a.5.5 0 1 1 0 .99"/></svg>