<svg class="nok-icon %s" height="16" width="16" fill="currentColor" xmlns="http://www.w3.org/2000/svg" viewBox="0 0 16 16"><path d="M10.48 9c.05-.12-.03-.17-.1-.23A8 8 0 0 1 8.94 6.9a8 8 0 0 1-.66-1.38l-.08-.24c-.2.08-.37.16-.57.15q-.66.01-.82-.64c-.05-.24-.17-.5-.1-.75.13-.54.43-.73 1.05-.65.12.01.18 0 .26-.09a.9.9 0 0 1 .96-.28q.2.08.32-.11c.2-.3.5-.37.83-.32q.49.1.62.59.1.33.11.69.01.57-.53.76c-.18.06-.11.16-.05.25q.39.67.94 1.2c.46.44.97.83 1.59 1.04.4.13.81.22 1.2.36.53.18 1.03.4 1.43.8q.53.56.56 1.32c.04.67-.05 1.34-.12 2v.4c-.02.13-.04.27-.19.33-.2.08-.37-.03-.37-.27q.02-.45.07-.91c.02-.55.13-1.09.05-1.63-.1-.7-.59-1.09-1.18-1.36-.46-.2-.95-.31-1.44-.45a4.5 4.5 0 0 1-1.69-.94 8 8 0 0 1-2.01-2.91c-.07-.16-.14-.3-.35-.32-.25 0-.42.18-.36.43A9 9 0 0 0 9.9 7.39q.47.66 1.1 1.16.25.2.1.46a8 8 0 0 0-.74 2.62q-.02.21 0 .42.02.29-.27.3-.3-.02-.29-.29 0-.4.06-.8.15-1.16.6-2.25M9.9 4.09c.2.07.42-.05.4-.24a2 2 0 0 0-.08-.47c-.05-.13-.14-.24-.31-.22-.15.02-.24.14-.23.25.02.23.02.47.22.68m-2.51.7c.08.08.16.17.3.1q.21-.12.17-.35t-.1-.43c-.05-.12-.16-.22-.31-.17s-.25.15-.21.32c.04.16.05.34.15.53"/><path d="M3.62 7.67c.24.21.53.34.73.6.33.4.5.88.7 1.35l.42.97c.07-.3.26-.5.4-.73q.34-.55.7-1.08.15-.23.4-.12 1.14.52 2.3 1.02.38.17.15.51l-.81 1.28q-.08.13-.24.15.3.35.28.8c-.01.57-.38.97-.95.98H4.69a1 1 0 0 1-.95-.64q-.44-.98-.86-1.97-.1-.25.14-.35t.36.14l.65 1.49q.1.24.23.47c.15.25.4.34.67.34q1.26.02 2.5 0c.39-.01.6-.08.67-.4.05-.3-.11-.5-.4-.53l-2.2-.22q-.21-.04-.27-.24c-.35-.83-.67-1.66-1.06-2.46-.33-.66-.92-1.02-1.61-.95-.73.07-1.2.5-1.44 1.17-.15.44-.19.89-.25 1.33l-.29 2.06-.03.21q-.04.3-.32.28c-.2-.02-.25-.16-.23-.33l.19-1.34.25-1.75C.56 9 .81 8.32 1.46 7.9a2.2 2.2 0 0 1 1.9-.26q.11.05.25.04zm3 2.06-.45.72-.22.3c-.1.11-.25.02-.39.08.1.13.06.36.28.38q.6.09 1.21.14c.28.02.34-.04.25-.3q-.1-.27.13-.39.25-.09.4.2c.07.15.08.34.23.46.2-.44.53-.8.74-1.24l-1.41-.62c-.54-.25-.4-.27-.76.27Zm-3-2.06-.48-.29a2.15 2.15 0 0 1-.43-3.16c.8-.95 2.3-1.01 3.17-.1.6.62.73 1.4.47 2.2a2 2 0 0 1-1.68 1.4c-.34.06-.69 0-1.04-.05m.84-3.63a1.5 1.5 0 0 0-1.4.63 1.6 1.6 0 0 0-.1 1.74c.27.48.97.86 1.57.77.77-.12 1.49-.86 1.36-1.78a1.6 1.6 0 0 0-1.43-1.36m10.9 1.36q-.27 1.1-1.3 1.46c-1.2.4-2.47-.35-2.62-1.58a1.98 1.98 0 0 1 2.47-2.22c.86.2 1.52 1.01 1.46 1.86zm-.87.51q.33-.39.35-.9c.02-.57-.4-1.17-.92-1.37a1.44 1.44 0 0 0-1.65.46c-.5.66-.4 1.48.26 2.02.57.46 1.44.38 1.96-.2m-.2 4.51c.02.42-.06.81-.1 1.2q0 .26-.05.5c-.05.2-.16.23-.32.21q-.23-.03-.2-.26l.1-1.2.03-.32c.01-.13.04-.24.2-.28q.21-.06.33.15"/></svg>