<svg class="nok-icon" height="16" width="16" fill="currentColor" xmlns="http://www.w3.org/2000/svg" viewBox="0 0 16 16"><path d="M6.10592 7.48732c.24922-.08545.4842-.12461.7263-.12461h2.3676c1.06453 0 1.84424.61593 2.09346 1.6413.02492.09612.02492.19225.02492.28838v2.97285c0 .34535-.09257.66578-.23854.97197-.1709.36315-.45216.60525-.83667.71206-.14597.04272-.1887.11037-.18514.25278.00713.47708.00357.9506 0 1.42768 0 .24566-.11749.37027-.34178.37027-.2065 0-.31331-.12105-.31687-.36671-.00356-.54117-.00356-1.07877-.00356-1.61994v-4.00178c0-.19582.03204-.35603.27414-.37027.28127-.0178.38807.0712.38807.35247v2.92657c0 .08545-.02136.17801.03205.2777.21006-.07832.32755-.24566.39875-.44148s.1175-.39875.1175-.61237c-.00713-.91144 0-1.82287 0-2.73075 0-.59813-.45573-1.1571-1.04318-1.2817a2.385 2.385 0 0 0-.54828-.05341c-.69426.00356-1.38496 0-2.07922 0-.90788 0-1.51669.60525-1.51669 1.506 0 .81531-.00356 1.62706 0 2.44237 0 .32399.0712.6373.22786.92568.06409.1175.14241.2065.27414.24566.0712-.089.04273-.18157.04273-.26346v-2.87673c0-.29194.09256-.40943.31686-.41655.29195-.01068.39164.08189.39164.38095v5.5612c0 .25278-.14598.42367-.3596.42011-.20293 0-.3489-.18158-.3489-.4308v-1.35291c0-.1175-.00356-.2065-.1531-.25278-.65865-.21718-.97196-.7263-1.04673-1.37428-.13173-1.09657-.05696-2.20383-.04628-3.30396.00712-.79039.6195-1.5345 1.38496-1.7944Zm-4.53939 2.56341c.02493-.34535.10681-.42723.38808-.413.23142.01069.32042.12106.32042.413v5.5078c0 .26345-.13529.43435-.33823.44147-.21005.00712-.3667-.17802-.37027-.44148V14.1807c0-.0997 0-.17802-.13173-.21718-.66577-.20294-.9862-.71206-1.06809-1.35648C.22786 11.49266.28126 10.37116.324 9.2568c.04272-1.05385.92212-1.84424 1.99377-1.89052.61949-.02493 1.23898-.00356 1.86204-.00356.16377 0 .29194.06052.37739.21361.07476.1353.02492.24566-.04273.36315-.07832.1353-.2065.1353-.33823.1353-.54116 0-1.07877.00712-1.61993 0-.91144-.0178-1.55942.6373-1.53805 1.53805.0178.80463 0 1.60925.00356 2.41744 0 .32399.06408.6373.23142.92212.06052.10681.13529.19582.31686.26702v-3.1651Zm12.19048 3.61371c.0356-.16377.04628-.30618.04628-.45216v-3.19003c0-.32043.11037-.413.4308-.38451.13173.01068.20294.0712.23498.19938.02848.1246.04984.24922.04628.38095v2.68447c0 .08544-.02136.17801.03917.27414.2421-.09969.32398-.32755.3952-.5376.0534-.1531.06764-.32755.06764-.49845-.00712-.8794-.02493-1.75879 0-2.63462.02492-.79039-.6017-1.417-1.42768-1.42768-.58033-.00712-1.16066 0-1.741 0-.23853 0-.3489-.10325-.3667-.32043-.01425-.19226.11393-.38095.32042-.3774.81887.01425 1.6413-.10324 2.45305.08545.80107.18514 1.47753 1.0325 1.46685 1.86916-.01424.97553-.00356 1.95105 0 2.92657 0 .30975-.07833.6017-.19226.88652-.16021.39875-.44504.66933-.8438.80819-.14596.0534-.178.1246-.178.2599.00355.45216.01067.90432 0 1.35291-.00713.34891-.2243.49845-.51981.39876-.16734-.05697-.1887-.17446-.1887-.32043v-1.5701c0-.12816-.01068-.25634-.04628-.4023ZM6.51179.15665c.48064.24566.82243.6017.915 1.12862.21006 1.17846-.5198 2.01513-1.60213 2.03293-.63374.01068-1.16778-.2777-1.46329-.88295-.30263-.61594-.26346-1.22119.14953-1.76947.47708-.62662 1.16422-.79395 2.0009-.50913m-.20294.72987c-.51269-.31687-.95416-.1175-1.24255.26702-.20294.27414-.25278.58389-.07833.90431.17802.324.44504.53405.81531.55541.36671.02492.80463-.32755.915-.69782.11037-.36315-.04272-.7619-.413-1.02892Zm2.54561 1.72674c-.42011-.73698-.39163-1.44548.1531-2.0721.45927-.53048 1.1927-.71561 1.94036-.35958.65154.30618.97908.82243.90432 1.75522-.04273.56965-.54117 1.1393-1.15354 1.32088-.64086.1887-1.31731-.0178-1.7303-.52337-.03205-.0356-.06765-.0712-.11394-.11749M10.68091.8616c-.22074-.10325-.43792-.17445-.6907-.09612-.3952.12105-.75122.5732-.69782.96128.0712.502.40943.83667.90432.88651.36315.0356.79394-.30974.92212-.6907.1246-.37383-.04273-.79038-.43792-1.0574ZM5.1197 5.8211c-.42367.92212-1.50244 1.19627-2.3142.73699-.55184-.30975-.80106-.79751-.81174-1.44905-.01424-.86515.60881-1.506 1.30307-1.6057 1.506-.22073 2.34268 1.15355 1.82288 2.31776m-1.3636-1.61637c-.49132 0-.85447.20293-.98976.56965-.1531.40587-.04629.7975.2955 1.07877.32043.26702.69426.27414 1.09301.02136.29195-.18514.45216-.59813.37027-.94348-.09256-.39163-.35603-.61237-.76902-.72274ZM6.73964 4.073c.49845-.62306 1.37428-.73343 2.0009-.43792.71917.33823 1.05384 1.0396.89363 1.83355-.14597.73343-.76903 1.26747-1.46685 1.30308-.90075.04628-1.58077-.50557-1.73742-1.24611-.10681-.502-.06409-1.01113.30974-1.4526m.59101 1.6413.08545.08544c.28838.2777.71562.33467 1.04317.14242.38095-.2243.58033-.64442.48064-1.0147-.11393-.42367-.48064-.71205-.88296-.72985-.39519-.01424-.6729.17801-.84735.49488-.18157.33467-.15309.68358.1175 1.01825Zm6.72541-.25635c-.28482 1.1571-1.50956 1.68759-2.50645 1.06453-.45216-.28126-.72274-.7085-.74766-1.27814-.02848-.6907.20294-1.23899.82243-1.56654.54472-.28838 1.1215-.28838 1.6591.02492.47708.28127.75478.71207.79395 1.2746.01068.15309-.00712.30618-.0178.47707m-.96129.30975c.28127-.3311.35603-.6907.14598-1.0859-.2243-.42723-.82955-.6088-1.24967-.38094-.45928.25278-.62661.84735-.3596 1.28526.33112.53761.86872.61594 1.4633.18158"/></svg>