<svg class="nok-icon" height="16" width="16" fill="currentColor" xmlns="http://www.w3.org/2000/svg" viewBox="0 0 16 16"><path d="M8.87297 14.52452H6.88335c-.43649 0-.79264-.35615-.79264-.79264v-.10443c0-.11515.0241-.22494.06962-.3267a.16477.16477 0 1 1 .29992.13657c-.02678.05891-.04017.12318-.04017.19013v.10443c0 .2544.2062.46327.46327.46327h1.98962c.09105 0 .16603.07498.16603.16602s-.07498.16603-.16603.16603Z"/><path d="M7.1297 16c-.09104 0-.16602-.07498-.16602-.16603v-.83815c0-.44185.35615-.80067.79264-.80067.09104 0 .16602.07498.16602.16602s-.07498.16603-.16602.16603c-.25172 0-.46327.21422-.46327.4713v.83815c0 .09105-.07497.16603-.16602.16603Zm.8462 0c-.09105 0-.16603-.07498-.16603-.16603v-.38828c0-.30527.24904-.55699.557-.55699h.72033c.25439 0 .46326-.20619.46326-.46326V14.321c0-.25439-.21155-.4713-.46326-.4713-.09105 0-.16603-.07497-.16603-.16602s.07498-.16602.16603-.16602c.43648 0 .79263.35883.79263.80067v.10443c0 .43649-.35615.79264-.79263.79264h-.72034c-.12586 0-.22761.10175-.22761.22493v.38829c0 .09105-.07498.16602-.16603.16602Zm-4.82812-3.33925c-.01606 0-.03213 0-.05088-.00535a.2196.2196 0 0 1-.16602-.26243l.28653-1.24787-.09908-2.47966c-.04017-.98008.63196-1.83699 1.67096-2.13155.87833-.24904 1.49155-.53556 1.4969-.53824.14728-.07766.19816-.13657.27582-.32402.0482-.11247.17673-.16602.28653-.11782.11246.0482.16334.17673.11782.28652-.10176.24369-.20887.40168-.48736.54628-.03482.01607-.65875.30795-1.57456.5677-.83816.23833-1.38176.91582-1.3523 1.6897l.10175 2.53858-.29992 1.30678a.22226.22226 0 0 1-.21422.17138Zm9.70444 0c-.09105 0-.17674-.05623-.20887-.14996l-.4472-1.3148.10176-2.55197c.03213-.80335-.53021-1.51297-1.33891-1.68703-1.27465-.27582-1.72452-.7605-1.74327-.78193a.2177.2177 0 0 1 .01607-.31062c.08837-.08034.22761-.07498.30795.01338.00803.00804.40167.40703 1.51297.64804 1.01757.21958 1.72452 1.11933 1.68435 2.13422l-.09908 2.46896.42042 1.23715a.2169.2169 0 0 1-.2062.2892Z"/><path d="M4.96603 13.72385c-.1205 0-.21959-.09908-.21959-.21958v-4.5282c0-.1205.09908-.21958.21959-.21958s.21958.09907.21958.21958v4.5282c0 .1205-.09908.21958-.21958.21958m5.92602 0c-.1205 0-.21958-.09908-.21958-.21958v-4.5282c0-.1205.09908-.21958.21958-.21958s.21958.09907.21958.21958v4.5282c0 .1205-.09908.21958-.21958.21958M9.37908 6.24736c-.06159 0-.1205-.0241-.16335-.07498-.4338-.49004-.45255-1.34962-.4231-1.81556l.00536-.03481c.00536-.02946.16067-.70963.47665-1.16486.0241-.04284.8087-1.42995-.4097-2.3297C8.8194.79264 7.71615.00803 6.3692.77389L6.34778.7846c-.02678.01071-.6748.31866-.52753 1.28268.00803.07766.04017.4231-.10176.63197l-.01339.01874-.44451.52218.35615.0723.0482.09372s.08837.17138.13924.35615l.00804.04553.02945.49272v.01874c-.01339.11515-.03749.19816-.04016.20887-.02678.07766-.0375.17674-.01875.20887.05624.0241.27582.07766.9908-.07498l.19816-.04284.05623.19548c.00536.01606.11782.41506-.04017.99615-.03213.11782-.15263.18477-.27046.15263a.2185.2185 0 0 1-.15263-.27046c.06426-.23297.07498-.42577.06962-.55698-.65339.1205-.9051.06159-1.04703-.00804l-.02142-.00535-.03481-.02678c-.25172-.18745-.20887-.53289-.1446-.70695s.0107-.04284.01874-.10175l-.02678-.43113a1.6 1.6 0 0 0-.05891-.158l-.2169-.04552c-.16603-.01874-.24904-.10176-.29189-.1687-.09372-.14728-.04017-.30795-.02678-.34008l.0134-.03482.5677-.66677c.02677-.05088.04016-.19816.02677-.32134-.158-1.02561.4338-1.5826.77925-1.73791C7.7697-.51682 9.08185.43113 9.1354.4713c1.2318.90778.87832 2.3056.5195 2.91883-.25172.3615-.38829.90778-.41239 1.00686-.01874.33205-.02142 1.10058.3133 1.48083.08034.09105.0723.2303-.01874.31063-.04284.0375-.09372.05624-.1446.05624Zm.17138 7.60502H7.09757c-.09104 0-.16602-.07497-.16602-.16602s.07498-.16603.16602-.16603h2.45289c.2544 0 .46326-.20887.46326-.46326v-.10443c0-.2544-.20887-.46327-.46326-.46327H6.53791c-.09105 0-.16603-.07498-.16603-.16602s.07498-.16603.16603-.16603h3.01255c.43649 0 .79264.35615.79264.79264v.10443c0 .43649-.35615.79264-.79264.79264Zm-.81138-1.71916a.1875.1875 0 0 1-.0723-.01607.16603.16603 0 0 1-.07766-.21958c.02946-.06426.04552-.13121.04552-.20083v-.93724c0-.09105.07498-.16603.16603-.16603s.16602.07498.16602.16603v.93724c0 .1205-.02677.23564-.07765.34276-.02946.05891-.08837.09372-.14996.09372"/><path d="M9.33891 13.1615H6.3344c-.43648 0-.79263-.35614-.79263-.79263v-.10443c0-.43649.35615-.79264.79263-.79264h1.22912c.12586 0 .22762-.10176.22762-.22494v-.48468c0-.09105.07498-.16603.16602-.16603s.16603.07498.16603.16603v.48468c0 .30527-.24904.55699-.55699.55699H6.33707c-.2544 0-.46326.2062-.46326.46326v.10444c0 .2544.20887.46326.46326.46326H9.3416c.09105 0 .16603.07498.16603.16603s-.07498.16602-.16603.16602ZM7.94377 7.62378c-.09105 0-.16603-.07498-.16603-.16603V4.77992c0-.32938-.26778-.40168-.29724-.40703l-1.90125-.2169a.16335.16335 0 0 1-.1446-.1821.16335.16335 0 0 1 .18209-.1446l1.91732.21958c.20887.04285.57305.24636.57305.73372v2.67783c0 .09104-.07498.16602-.16602.16602Zm.93188 1.3148c-.02678 0-.05356-.00535-.08034-.02142l-.69623-.3856c-.12854-.0723-.29724.00535-.29724.00535l-.68017.38025c-.08033.04553-.17941.01607-.22493-.06426s-.01607-.17942.06426-.22494l.69088-.3856c.02143-.01072.32938-.158.61055 0l.69355.3856a.16603.16603 0 0 1-.08033.31063"/><path d="M8.8462 8.27983c-.02679 0-.05356-.00535-.08034-.02142l-.48201-.26778c-.3374-.16067-.5061-.37222-.5061-.64 0-.09105.07497-.16603.16602-.16603s.16602.07498.16602.16603c0 .05623 0 .19012.3267.34811l.49004.27314a.16549.16549 0 0 1-.08034.31063Z"/><path d="M7.04134 8.27983c-.05891 0-.11515-.02945-.1446-.08569-.04553-.08033-.01607-.17941.06426-.22493l.48201-.26779c.3374-.16067.3374-.29456.3374-.35347 0-.09105.07499-.16603.16603-.16603s.16603.07498.16603.16603c0 .26778-.1687.47933-.51414.64536l-.4713.26242c-.0241.0134-.05356.02142-.08034.02142Z"/><path d="M5.95414 10.49707c-.15263 0-.25171-.05623-.30795-.10711-.13389-.11783-.1446-.28653-.1446-.30527-.19816-1.98963 1.05238-2.8867 1.10594-2.92151.28385-.19548.57841-.19816.82745-.00536l.04017.02946.20351.60787c.02946.08569-.01607.17941-.10443.20887a.16335.16335 0 0 1-.20887-.10444l-.17139-.50879c-.12318-.07497-.24903-.06158-.399.04285-.04551.03213-1.14342.83013-.964 2.62695.00803.10175.09104.1071.13388.10443l1.3041-.34544c.02143-.00803.25172-.09104.27582-.42845v-.98276c0-.09105.0723-.16603.16335-.16603s.16602.07498.16602.16603v.99347c-.03749.5918-.49807.73105-.51682.7364l-1.3523.35615h-.05088Zm4.0087 0h-.05087l-.02946-.00535-1.32017-.34812c-.0241-.00536-.482-.1446-.5195-.7257V8.41373c0-.09104.0723-.16602.16335-.16602s.16603.07498.16603.16602v.99348c.02142.32937.2544.41238.28117.42042l1.29874.34276c.04553 0 .12586 0 .1339-.09908.1794-1.80486-.9185-2.60285-.9667-2.63498-.14996-.10444-.2785-.11515-.40167-.0375l-.19816.51415a.16534.16534 0 1 1-.30795-.1205l.23297-.60251.03749-.02678c.24904-.1928.5436-.1928.82745.00536.05355.03749 1.30677.93188 1.10594 2.93221 0 .01071-.01071.17674-.1446.29456-.05624.05088-.15532.10712-.30795.10712Z"/></svg>