<svg class="nok-icon" height="16" width="16" fill="currentColor" xmlns="http://www.w3.org/2000/svg" viewBox="0 0 16 16"><path d="M8.00253 4.57414c.60955 0 1.10275-.49573 1.10275-1.10275s-.49573-1.10275-1.10275-1.10275-1.10275.49573-1.10275 1.10275.49573 1.10275 1.10275 1.10275m0-1.79577c.38192 0 .69301.3111.69301.69302s-.3111.69301-.69301.69301-.69301-.3111-.69301-.69301.3111-.69302.693-.69302m5.73886 1.79577c.60955 0 1.10276-.49573 1.10276-1.10275s-.49574-1.10275-1.10276-1.10275-1.10275.49573-1.10275 1.10275.49574 1.10275 1.10275 1.10275m0-1.79577c.38192 0 .69302.3111.69302.69302s-.3111.69301-.69302.69301-.693-.3111-.693-.69301.31109-.69302.693-.69302m.86248 2.21562h-1.7376c-.48814 0-.9434.2757-1.25197.75119l-.74107 1.10528-.73854-1.10022c-.30857-.48056-.76636-.75625-1.2545-.75625H7.11982c-.48814 0-.9434.2757-1.25197.75119L5.1293 6.8454l-.73854-1.0977c-.3111-.48055-.76636-.75624-1.2545-.75624h-1.7376C.62725 4.99146 0 5.61872 0 6.39014v2.07903c0 .71325.27822 1.19128.7613 1.34303v3.2172c0 .33133.27063.60196.60196.60196h.18717c.33133 0 .60196-.27063.60196-.60196v-2.4989h.29086v2.4989c0 .33133.27063.60196.60196.60196h.18464c.33133 0 .60196-.27063.60196-.60196V9.37464c0-.04046-.00253-.0784-.01012-.11381l.00759-1.81853.44261.67531-.27568.41227c-.06323.09358-.03794.22004.05564.28327.7613.52103 1.33797.03794 1.80082-.50079a.051.051 0 0 0 .01265-.0177l.60449-.88018.00758 1.84635c-.00758.0354-.01011.07335-.01011.11381v3.65476c0 .33133.27063.60196.60196.60196h.18463c.33133 0 .60196-.27063.60196-.60196v-2.4989h.29087v2.4989c0 .33133.27063.60196.60196.60196h.18716c.33133 0 .60196-.27063.60196-.60196V9.37464c0-.04046-.00253-.08093-.01012-.11634l.0076-1.83117.59436.865s.0076.01264.01265.0177c.32374.37686.7006.7259 1.1584.7259.1998 0 .41226-.06576.64242-.22258.09358-.06323.11888-.1897.05565-.28327l-.27316-.40721.44514-.67784.0076 1.81853c-.0076.0354-.01013.07335-.01013.11381v3.65476c0 .33133.27063.60196.60196.60196h.18464c.33133 0 .60196-.27063.60196-.60196v-2.4989h.29086v2.4989c0 .33133.27063.60196.60196.60196h.18717c.33133 0 .60196-.27063.60196-.60196v-3.2172c.48308-.15428.7613-.6323.7613-1.34303V6.39267c0-.77142-.62725-1.39868-1.39867-1.39868ZM3.80146 6.6456h-.00253c-.03794-.05311-.09612-.09358-.16694-.09358a.204.204 0 0 0-.20486.20487L3.417 9.28359c0 .0177 0 .03541.00759.05312 0 .00758.00506.0177.00506.03793v3.65476c0 .1037-.08853.19223-.19223.19223H3.0528c-.1037 0-.19222-.08853-.19222-.19223v-2.70629a.204.204 0 0 0-.20487-.20487h-.70313a.204.204 0 0 0-.20487.20487v2.7063c0 .1037-.08853.19222-.19222.19222h-.18717c-.1037 0-.1897-.086-.1897-.19223V9.37464c0-.02023 0-.03288.00507-.04046q.00758-.02656.00758-.05312l-.01011-2.52418c0-.11382-.09358-.20487-.20487-.20487-.11382 0-.20487.09358-.20487.2074l.01012 2.50142c-.00506.03035-.0076.06576-.01012.10117-.29845-.18717-.35157-.61208-.35157-.8903V6.39267c0-.5438.44262-.98641.98641-.98641h1.7376c.34397 0 .6753.2074.91052.56908l.83212 1.23933-.35662.53367-.72084-1.10275Zm6.66202 1.40879-.93835-1.36832a.2023.2023 0 0 0-.18969-.13405.204.204 0 0 0-.20487.20487l-.01011 2.52418c0 .0177 0 .03541.00758.05312 0 .00758.00506.02023.00506.04046v3.65476c0 .10623-.086.19223-.1897.19223h-.18716c-.1037 0-.19222-.08853-.19222-.19223v-2.70629a.204.204 0 0 0-.20487-.20487h-.70313a.204.204 0 0 0-.20487.20487v2.7063c0 .1037-.08852.19222-.19222.19222H7.0743c-.1037 0-.19223-.08853-.19223-.19223V9.37464c0-.02023 0-.03288.00506-.03793q.00759-.02656.00759-.05312L6.8846 6.75688a.20563.20563 0 0 0-.35156-.14417H6.5305l-.98894 1.43914c-.48561.5615-.779.65254-1.0724.52355L6.2194 5.97028c.2327-.36168.56402-.56655.908-.56655h1.76035c.34398 0 .67531.2074.91053.56908L11.546 8.57287c-.2934.129-.58678.04047-1.0724-.52355Zm5.12678.41732c0 .28075-.05311.70313-.35156.8903 0-.03541-.00253-.0683-.01012-.10117l.01012-2.50142c0-.11382-.09106-.20487-.20487-.2074a.204.204 0 0 0-.20487.20487l-.01012 2.52418c0 .0177 0 .03541.0076.05312a.16.16 0 0 1 .00505.04046v3.65476c0 .10623-.086.19223-.1897.19223h-.18716c-.1037 0-.19222-.08853-.19222-.19223v-2.70629a.204.204 0 0 0-.20487-.20487h-.70313a.204.204 0 0 0-.20487.20487v2.7063c0 .1037-.08852.19222-.19222.19222h-.18464c-.1037 0-.19222-.08853-.19222-.19223V9.37464c0-.02023 0-.03288.00506-.03793q.00759-.02656.00759-.05312l-.01012-2.52671c0-.11382-.09358-.20487-.20487-.20487a.1998.1998 0 0 0-.16693.0961h-.00253L11.4853 7.7534l-.35662-.53367.83718-1.24692c.23269-.36168.56402-.56655.908-.56655h1.73758c.5438 0 .98641.44262.98641.9864V8.4717ZM2.26114 4.57414c.60955 0 1.10276-.49573 1.10276-1.10275S2.86816 2.3661 2.26114 2.3661 1.1584 2.86184 1.1584 3.46886 1.65413 4.5716 2.26114 4.5716Zm0-1.79577c.38192 0 .69302.3111.69302.69302s-.3111.69301-.69302.69301-.693-.3111-.693-.69301.31109-.69302.693-.69302"/></svg>