<svg class="nok-icon %s" height="16" width="16" fill="currentColor" xmlns="http://www.w3.org/2000/svg" viewBox="0 0 16 16"><path d="M8.06 10.45a.35.35 0 0 0-.35-.35H7.4a1.14 1.14 0 0 1-1.14-1.14v-.6a.55.55 0 1 1 1.09 0c0 .2.15.35.35.35s.35-.16.35-.35q-.01-.5-.37-.88a1.2 1.2 0 0 0-.88-.36c-.7 0-1.25.57-1.24 1.25v.6A1.84 1.84 0 0 0 7.4 10.8h.31c.2 0 .35-.16.35-.35m2.59-9.02c2.66-.6 4.12-.67 4.58-.57q-.08.09-.28.22a.35.35 0 0 0-.09.49.35.35 0 0 0 .49.08c.21-.14.78-.54.63-1.02-.08-.26-.34-1.05-5.49.11a.35.35 0 0 0-.26.42c.04.2.23.3.42.26Z"/><path d="M14.45 3.75a.35.35 0 0 0-.47.15.35.35 0 0 0 .15.47c.7.36.98.59 1.1.71q-.42.11-1.76-.05a6 6 0 0 0-1.43-1.8l1.19-.47a.35.35 0 0 0 .18-.46.35.35 0 0 0-.46-.18q-.72.3-1.58.62c-1-.63-2.21-1-3.52-1h-.03c-1.25 0-2.41.35-3.38.93C2.38 1.9 1.1 1.22.77.87c.45-.12 1.94-.05 4.66.57a.35.35 0 0 0 .42-.26.35.35 0 0 0-.26-.41C.36-.43.1.37.02.64a.6.6 0 0 0 .06.45c.31.58 1.8 1.34 3.67 2.06A6 6 0 0 0 2.2 5.06c-.78.08-1.22.06-1.43.01.14-.13.47-.39 1.29-.8.17-.09.24-.3.16-.47s-.3-.24-.47-.15C.39 4.32-.13 4.82.02 5.3c.06.2.17.52 1.31.52l.58-.03q-.25.75-.24 1.56c0 1.45.63 2.83 1.76 3.87a1.4 1.4 0 0 1 .37 1.54l-.94 2.65a.35.35 0 0 0 .33.47c.14 0 .28-.1.33-.23l.94-2.66a2.1 2.1 0 0 0-.56-2.28 4.5 4.5 0 0 1-1.22-5l1.08-.16.04-.02c.2.37.59.62 1.04.62a1.2 1.2 0 0 0 1.18-1.08h.03L8 4.54c1.06.3 3.2.87 5 1.12q.3.76.33 1.62v.75q0 .13.08.22l.96 1.18c.09.1.07.27-.03.35l-.87.7a.4.4 0 0 0-.13.28l.01 2.05a.85.85 0 0 1-.84.85h-1.2a3.3 3.3 0 0 1-3.13-2.36.35.35 0 0 0-.43-.24.35.35 0 0 0-.24.42 3.94 3.94 0 0 0 3.8 2.88h1.21c.4 0 .8-.17 1.09-.46a1.5 1.5 0 0 0 .44-1.1v-1.88l.73-.6q.3-.25.34-.64c.04-.39-.04-.5-.2-.7L14 7.92V7.3q-.01-.8-.25-1.52l.79.04c.76 0 1.3-.14 1.42-.5.15-.46-.31-.93-1.52-1.55ZM7.82 2.43h.03q1.45.02 2.65.61-1.08.38-2.24.72L8 3.83l-.25-.07q-1.31-.4-2.42-.77a6 6 0 0 1 2.5-.55ZM4.84 5.46a.5.5 0 1 1 0-.98.5.5 0 0 1 0 .98M5.9 4.38l-.02.01a1.2 1.2 0 0 0-1.04-.61c-.62 0-1.12.47-1.18 1.08h-.02l-.58.1q.56-.9 1.47-1.51 1.06.38 2.2.73zm3.38-.2q1.05-.33 2-.66.8.58 1.32 1.38-1.39-.23-3.32-.72"/></svg>