<svg class="nok-icon %s" height="16" width="16" fill="currentColor" xmlns="http://www.w3.org/2000/svg" viewBox="0 0 16 16"><path d="M5.80908 3.50423c-.9669 0-1.75211-.78522-1.75211-1.75211S4.84219 0 5.80908 0 7.5612.78522 7.5612 1.75212s-.78522 1.75211-1.75212 1.75211m0-2.82679c-.5943 0-1.07467.48345-1.07467 1.07468s.48345 1.07467 1.07467 1.07467 1.07468-.48345 1.07468-1.07467S6.4003.67744 5.80908.67744M1.6736 12.5943s-.02156.01848-.03696.02464v-.00616l.03696-.02156Z"/><path d="M1.63972 12.95766a.3387.3387 0 0 1-.29869-.1786c-.0431-.08006-.05235-.17552-.02463-.26174.02463-.08622.08314-.16012.1632-.20323l.04003-.02156a.33718.33718 0 0 1 .36644.56351c-.02772.02156-.04927.03695-.0739.05235-.05235.0308-.11086.04619-.17245.04619Zm.77598.94534-.02463.0154s.01848-.00924.02771-.0154Z"/><path d="M2.388 14.25712a.33965.33965 0 0 1-.1509-.64357c.1632-.07698.3726-.02156.45882.13857s.04619.35104-.10778.44342l-.02463.0154c-.05235.03386-.11393.04926-.17552.04926Zm-.6097-7.0023s-.00925.02155-.00925.03386H1.7629z"/><path d="M1.76597 7.6274a.351.351 0 0 1-.32332-.23402c-.02772-.08622-.02464-.18168.0154-.26174l.0154-.02771v-.00616c.08621-.16628.28944-.23095.45573-.14473.15396.08006.2217.25866.1632.4157a.3387.3387 0 0 1-.3264.25559Zm1.23172.15397-.02155.05235h-.00616c.00923-.01848.02155-.03695.02771-.05235"/><path d="M2.97306 8.16936c-.05543 0-.11086-.01232-.16013-.04003-.08314-.04619-.1478-.12317-.17244-.21555s-.00924-.19092.04311-.27098c.08006-.16628.2833-.24326.44958-.1632.16628.07698.24326.27098.16936.44034l-.02155.05235c-.03696.08622-.11086.15088-.20016.18167q-.05543.01848-.11085.01848Zm6.11547-2.408c-.01848.00615-.03695.00923-.05543.0154l.05235-.02156v.00615Z"/><path d="M9.05774 6.10624c-.14473 0-.2833-.08622-.32949-.2248-.0585-.16935.0154-.35103.18168-.41878l.05235-.02155c.16012-.06159.3418 0 .42494.15396.04619.0893.05235.20016.0154.29254-.04003.09545-.11702.16628-.21555.19707l-.0308.00924c-.03079.00924-.06466.01232-.09545.01232Zm.505.89299-.04311.0154s.02463-.01232.04003-.02156v.00616Z"/><path d="M9.51655 7.35027c-.12933 0-.24942-.0739-.30793-.19708-.0739-.15704-.0154-.34488.1355-.43418.00923-.00615.0431-.02463.05234-.0277.16628-.08007.37875-.01848.4619.1478.0431.08622.04926.19091.01231.28021s-.10778.1632-.20015.194l-.04311.0154q-.05543.01847-.11086.01847Zm-2.8114 7.05158H6.699v-.07083c0 .02464 0 .04927.00616.07083"/><path d="M6.70516 14.74057H6.699a.33775.33775 0 0 1-.33872-.33872v-.07083c0-.18783.15088-.33872.33872-.33872s.33872.15089.33872.33872v.03696c.01232.09545-.01847.19091-.08314.26174s-.15396.11085-.24942.11085m0-.33872h.00308z"/><path d="M7.45343 15.4057c-.19092 0-.38184-.04927-.55428-.15397-.29253-.16936-.48345-.46497-.52656-.80677-.00615-.0462-.00615-.08006-.00615-.11394s0-.07082.00308-.10777l.03387-2.80524c0-.09853-.02156-.19707-.06775-.2833l-.00924.1509a1.4565 1.4565 0 0 1-.7883 1.21324l-.05542.0277-2.7652 1.59508s-.02156.0154-.03388.02156l-.08622.04927s-.01847.00923-.02771.0154c-.00924.00307-.0308.01539-.03695.01847a1.0947 1.0947 0 0 1-1.52733-1.00385c0-.32949.14473-.63434.39723-.84065.01847-.01847.04003-.03387.06466-.04927.05235-.03695.08622-.0585.11702-.0739l2.61124-1.50885-.20016-1.01617a1.85 1.85 0 0 1-.03387-.34488l-.03387-2.59584-.59123 1.06235c-.01231.03388-.02771.06467-.04619.09546-.00308.00924-.02155.04003-.04003.06775-.05235.0893-.1324.18167-.23094.25866-.388.30177-.94535.28021-1.29639-.05235a1.0069 1.0069 0 0 1-.2833-1.01617c.00617-.02771.01848-.06466.03696-.1047s.00924-.03079.02156-.05542l.6836-1.50885c.12625-.27714.3418-.50193.61586-.63742l1.3364-.66205c.49885-.24634 1.0285-.33564 1.52734-.25866.63741.09546 1.17013.42187 1.53656.94843.33565.48344.51733.77906.62202.95766l1.05928-.40647c.02771-.01232.05543-.02156.0893-.02771.00616 0 .03387-.01232.04003-.01232a1.0054 1.0054 0 0 1 1.22556 1.13318v.00616c-.05235.30485-.2371.56659-.51117.71747L9.689 7.3164c-.04003.02155-.06158.02771-.08006.03695l-1.74288.66205c-.1201.0431-.24634.04927-.36028.02155L7.6813 9.2348l.75443 1.47498c.10162.15704.15396.33872.15396.52656l-.04003 3.20246c0 .0431-.00923.08622-.02463.12625-.02464.11085-.06775.21863-.12625.32025a1.0993 1.0993 0 0 1-.94226.53271Zm-1.41648-5.39184c.08314 0 .16628.03079.23095.0893l.40646.37567c.26174.24326.41263.58814.40647.94534l-.03695 2.83603c-.00308.04311 0 .0585 0 .07082v.03696c.01848.12317.09238.2371.20323.30177a.404.404 0 0 0 .3141.04619c.10777-.02772.19707-.09546.25557-.19092.02772-.04619.0462-.09854.05235-.1478 0-.00924.00308-.02156.00616-.0308l.04003-3.12856a.277.277 0 0 0-.04619-.15396c-.00924-.01232-.0154-.02464-.02155-.03696L7.0562 9.48422c-.0154-.03387-.02772-.06775-.03388-.1047L6.6836 7.07313c-.02155-.15396.06467-.30485.20632-.36335.14472-.05851.311-.01232.40338.11701l.38183.52964 1.6813-.6405.16628.2987-.1201-.32025c.08623-.04927.14781-.13549.16629-.2371a.32948.32948 0 0 0-.39723-.36952c-.00616 0-.02155.00616-.04003.01232l-1.3241.50808c-.117.04619-.24634.02156-.3418-.0585-.0739-.0616-.11701-.1355-.19707-.27098-.09238-.15705-.2679-.45266-.62818-.96998-.26174-.3726-.6251-.59738-1.08083-.66513-.36336-.05543-.75443.01232-1.12702.19708l-1.33641.66204c-.13241.06467-.2371.17552-.2987.30793l-.70515 1.5612s0 .01232-.00616.0154c-.03695.1201 0 .24942.09546.3418.10777.10162.29253.1047.4157.00924.0308-.02463.05543-.05235.0739-.08006 0-.00616.02156-.04003.02464-.04311.00616-.01848.02155-.05235.0308-.07083l.7729-1.38568a.3392.3392 0 0 1 .18475-.15396l.45574-.16012c.10161-.03696.21555-.01848.30485.0431s.14165.1632.14472.27406l.04311 3.22402c0 .07698.00616.1478.02156.21863l.24634 1.25327c.02772.14165-.03695.28638-.1632.3572l-2.82987 1.63203c-.02155.01231-.03695.02155-.05235.03079-.00616.00616-.0154.01232-.02155.01847-.10162.07699-.16012.19708-.16012.3264a.4157.4157 0 0 0 .57274.38492h.00308l.07698-.04311s.0154-.01232.02464-.0154l2.86682-1.6505c.24326-.12317.40647-.3726.41878-.64665l.04927-.91147c.00616-.12933.0893-.24634.2094-.29561.04002-.0154.08313-.02463.12625-.02463Zm-3.9415-2.64204v.00616zm7.80601-.85912h.00308z"/><path d="M15.46882 16H.53118c-.18784 0-.33872-.15089-.33872-.33872s.15088-.33872.33872-.33872h14.51886c-.2987-1.3395-1.23788-5.53965-1.48422-6.50655-.28022-1.10238-.54503-1.28406-1.12702-1.46882-.388-.12317-1.19785.11085-1.61663.28637-.16936.0739-.36951-.00923-.44342-.1786-.0739-.17243.00616-.36951.1786-.44341.1355-.0585 1.33026-.54812 2.08468-.31101.89916.2833 1.26867.73903 1.5766 1.94611.29561 1.15781 1.5304 6.70362 1.58276 6.94072.02155.10162 0 .20632-.06775.28638-.06466.08006-.16012.12625-.26482.12625"/><path d="M11.69977 16h-.02771c-.18784-.0154-.3264-.17552-.31101-.36336l.505-6.55273c.04619-.54811.30793-1.03772.72056-1.34257.27713-.20631.58814-.31409.92686-.3264.18168-.01232.34488.13856.35104.3264s-.13857.3418-.3264.35104c-.19708.00616-.38184.07082-.54504.194-.25558.18783-.41878.49884-.44958.85296l-.505 6.54965c-.0154.1786-.1632.31101-.33564.31101Z"/></svg>