<svg class="nok-icon %s" height="16" width="16" fill="currentColor" xmlns="http://www.w3.org/2000/svg" viewBox="0 0 16 16"><path d="M14.34267 15.40724h-3.23703c-.14931 0-.27175-.12243-.27175-.27174s.12244-.27174.27175-.27174h3.00112l1.30496-9.00336h-1.79768C13.4677 7.08473 12.36282 8.109 11.1116 8.109S8.75252 7.08772 8.60918 5.8604H6.8115l.09854.68682c.0209.1493-.08063.28667-.22994.30758-.1493.02389-.28667-.08063-.30757-.22994l-.14334-.99739c-.01194-.07764.01194-.15827.06271-.21799s.12542-.09257.20605-.09257H8.863c.1493 0 .27174.12243.27174.27174 0 .9317.8451 1.97686 1.97686 1.97686s1.97686-1.04517 1.97686-1.97686c0-.1493.12243-.27174.27174-.27174h2.36506c.07764 0 .1523.03285.20605.09257.05076.05972.07465.13737.0627.218l-1.38558 9.54385c-.0209.13438-.13438.23293-.26876.23293Zm-2.45764-11.891c-.1493 0-.27174-.12244-.27174-.27175V1.1243h-.92572v1.59164c0 .1493-.12243.27174-.27174.27174s-.27175-.12243-.27175-.27174V.85256c0-.14931.12244-.27175.27175-.27175h1.4692c.07167 0 .14035.02987.19112.08063s.08062.11945.08062.19112v2.39492c0 .14931-.12243.27174-.27472.27174Z"/><path d="M11.03098 5.77977c-.12542 0-.2389-.08959-.26577-.218L10.2516 2.9847l-.91378.13736.31355 1.71109c.02688.14632-.07167.28966-.21799.31653-.14632.02986-.28966-.07167-.31654-.21799l-.36431-1.98581c-.01195-.07167.00299-.14633.0448-.20605s.1075-.09855.17916-.1105l1.4483-.21798c.14334-.0209.27772.07465.30758.215l.5644 2.83091a.27174.27174 0 0 1-.26578.3255Z"/><path d="M10.9205 7.01008h-.03286a.26965.26965 0 0 1-.2359-.3016l.41209-3.44905c.01792-.14633.14632-.25383.29563-.2389l1.45129.13438c.07466.00597.14035.0448.18514.10153s.0657.1314.05674.20306l-.31355 2.52034c-.01792.14931-.1523.25383-.3016.23591a.27174.27174 0 0 1-.23591-.3016l.2807-2.24263-.91079-.0866-.37924 3.18626c-.01792.13737-.13438.2389-.26876.2389ZM8.31951 5.03024c-.13139 0-.24785-.09556-.26875-.23293L7.58193 1.6439c-.01194-.07167.00896-.14334.05077-.20306a.2688.2688 0 0 1 .17917-.10452l1.49608-.20903c.14632-.0239.2807.07764.3046.22396l.22694 1.3408c.0239.1493-.07465.28667-.22396.31355a.27473.27473 0 0 1-.31355-.22397l-.18216-1.081-.96155.13438.42702 2.88466c.0209.14931-.08062.28668-.22993.30758h-.03882Z"/><path d="M7.134 5.78275c-.09257 0-.18215-.04479-.23292-.13139L5.60806 3.53714a.2777.2777 0 0 1-.02986-.218c.0209-.07465.07167-.13437.14035-.16722l1.28108-.62411c.12542-.06271.27771-.01493.35237.10452l1.19447 1.9888a.27204.27204 0 0 1-.46584.2807l-1.06906-1.7738-.79134.38522 1.13774 1.8604a.26965.26965 0 0 1-.22994.4121Zm2.00374 9.63644H1.45726c-.5196 0-.94364-.42703-.94364-.95558v-1.24226c0-.1493.12244-.27174.27175-.27174h5.6648c.1493 0 .27174.12243.27174.27174s-.12243.27174-.27174.27174H1.0571v.97052c0 .22396.18514.41209.40015.41209h7.68048c.21799 0 .40015-.18813.40015-.4121v-.9705H7.30422c-.14931 0-.27175-.12244-.27175-.27175s.12244-.27174.27175-.27174h2.50541c.14931 0 .27174.12243.27174.27174v1.24226c0 .52557-.42404.95558-.94363.95558m.68384-4.50318H.77342c-.1493 0-.27174-.12243-.27174-.27174v-.45689c0-1.58268 1.8395-2.87271 4.10302-2.87271h1.3856c2.26353 0 4.10302 1.28705 4.10302 2.87271v.45689c0 .14931-.12244.27174-.27174.27174m-8.77641-.54348h8.50765v-.18515c0-1.26315-1.63046-2.32922-3.56253-2.32922H4.6047c-1.92907 0-3.56252 1.06607-3.56252 2.32922v.18515Z"/><path d="M7.08025 14.02165c-.0627 0-.12542-.0209-.1732-.06271l-2.0963-1.76484h-4.539C.12242 12.1941 0 12.07167 0 11.92236s.12243-.27174.27174-.27174H4.9093c.06271 0 .12542.0209.17619.0627l1.8813 1.58269.5614-1.4722c.03882-.10451.14035-.1732.25383-.1732h2.54722c.1493 0 .27174.12244.27174.27175s-.12243.27174-.27174.27174h-2.3591l-.63008 1.65435a.2867.2867 0 0 1-.18514.16723c-.0239.00597-.0448.00896-.06868.00896Z"/></svg>