<svg class="nok-icon %s" height="16" width="16" fill="currentColor" xmlns="http://www.w3.org/2000/svg" viewBox="0 0 16 16"><path d="M11.43 0q.26-.02.44.14 1.2 1.06 2.34 2.17l1.3 1.2c.14.14.17.48.07.62-.12.14-.3.2-.45.13-.17-.07-.3-.22-.44-.33-.1-.09-.17-.2-.31-.27-.61.68-1.27 1.31-1.86 2.02q.2.31.48.5c.37.3.65.68 1.03.96.18.14.21.41.09.57-.14.16-.54.2-.7.03l-.66-.72-1.79 1.93-.94 1q-1.01 1.09-2.04 2.15-.67.7-1.3 1.42c-.19.2-.37.24-.63.16a6 6 0 0 1-2-1.07q-.35.38-.68.77c-.36.45-.8.82-1.17 1.26q-.55.6-1.13 1.19-.31.33-.61.03-.25-.23.07-.57l2.38-2.59q.18-.2.39-.39.27-.22.03-.46c-.4-.43-.67-.93-.92-1.45-.23-.5-.2-.66.18-1.05q.8-.8 1.59-1.63l1.88-2Q7.03 4.69 8 3.68q.25-.26.52-.6l-.68-.64q-.3-.3-.02-.58c.16-.16.4-.16.59.02l1.46 1.37c.27-.16.45-.4.65-.6q.54-.6 1.1-1.18c.16-.17.14-.27-.02-.4q-.18-.16-.33-.34c-.22-.27-.15-.58.17-.72m-1.39 8.75c.29-.37.65-.66.94-1.01.32-.39.73-.7 1.02-1.11.07-.12.08-.18-.02-.27l-.66-.6q-1.03-1-2.08-1.97c-.17-.16-.26-.04-.34.07-.2.28-.47.5-.7.74-.06.07-.14.12-.16.23l.08.09c.29.2.51.48.77.73.19.2.19.45.01.6-.14.13-.37.1-.54-.06q-.34-.3-.68-.63-.22-.22-.4.01-.36.45-.8.85-.14.14.01.28l.66.65c.24.24.27.52.09.7-.21.2-.39.18-.66-.08l-.8-.8q-.49.58-1 1.04c-.19.17-.14.3.04.41.27.18.47.44.69.66.18.18.18.44 0 .58-.13.13-.41.1-.57-.04q-.37-.33-.72-.67-.17-.19-.32 0-.34.41-.72.78-.14.12-.03.28a8 8 0 0 0 .76 1.08A5.5 5.5 0 0 0 6 12.78q.17.08.3-.07.83-.87 1.64-1.75 1.02-1.1 2.1-2.22m2.76-4.55c.1-.18.26-.3.4-.46.16-.17.33-.3.47-.5q.14-.18-.04-.3l-.74-.68-.48-.41c-.25.12-.37.36-.55.54l-1.2 1.26c-.13.12-.14.2 0 .34.34.36.73.67 1.07 1.01.14.14.24.1.33-.03.2-.28.47-.5.73-.77Z"/></svg>