<svg class="nok-icon" height="16" width="16" fill="currentColor" xmlns="http://www.w3.org/2000/svg" viewBox="0 0 16 16"><path d="m15.9968 11.59744-.33226-2.81789a4.02236 4.02236 0 0 0-3.46646-3.52076l-.78594-.10544c-.21086-.02555-.40575.12141-.4345.33227s.1214.40575.33226.4345l.78595.10544c1.47603.19808 2.62939 1.36741 2.80191 2.84664l.32908 2.79553v2.6262c0 .51757-.42173.9393-.9393.9393H5.80192c-.21406 0-.38658.17252-.38658.38658s.17252.38658.38658.38658h8.48562c.9425 0 1.70927-.76677 1.70927-1.70927v-2.69329Z"/><path d="M12.27796 14.23962c.0575.0032.11501.00639.17252.00639 1.03834 0 1.98722-.61981 2.39936-1.58147l.0671-.15655c.1182-.27796.09264-.59425-.07668-.84665s-.44729-.40255-.7508-.40255H12.6869V9.99042c0-.21406-.17252-.38659-.38658-.38659s-.38658.17253-.38658.38659v1.26837H9.96805c.84345-.73163 1.39297-1.91694 1.39297-3.2556 0-.4952-.07348-.98083-.22044-1.44089-.0639-.20128-.28435-.3163-.48563-.2492-.20447.0639-.3163.28115-.2492.48562.1246.38339.1853.79233.1853 1.20767 0 1.79553-1.16293 3.2556-2.59424 3.2556s-2.59425-1.46007-2.59425-3.2556 1.16294-3.2556 2.59425-3.2556q.19648 0 .39297.03835a.38536.38536 0 1 0 .14377-.7572c-.17572-.03194-.35783-.0511-.53674-.0511-1.85623 0-3.36422 1.8051-3.36422 4.02874 0 1.33866.54952 2.52397 1.39297 3.2556H4.07987V9.9968c0-.21406-.17252-.38659-.38658-.38659s-.38658.17253-.38658.38659v1.65495c0 .21405.17252.38658.38658.38658h10.39617c.0607 0 .09265.03514.10543.0575s.03514.0639.00958.11822l-.06709.15655a1.84505 1.84505 0 0 1-1.80511 1.11182l-2.64856-.22684c-.02556 0-.04793.0064-.07349.0064h-.0543l-.01918.00638s-.00958 0-.01278.0032l-7.86262 1.96485a.938.938 0 0 1-.89457-.9361v-2.6262l.32908-2.79553c.17572-1.47923 1.32588-2.65175 2.80191-2.84664l.78595-.10543c.21086-.02876.36102-.22364.33226-.4345s-.22044-.35783-.4345-.33228l-.78594.10544A4.0192 4.0192 0 0 0 .32907 8.78594L0 11.59744v2.6933C0 15.23322.76677 16 1.70927 16c.03194 0 .0639-.0032.09265-.01278l7.88179-1.97125 2.59105.22045ZM8.66134.76997H9.8754L8.35144 2.80192a.3834.3834 0 0 0-.03515.40255c.0671.131.19809.21406.34505.21406h1.98722c.21406 0 .38658-.17252.38658-.38658s-.17252-.38658-.38658-.38658H9.4345L10.95847.61342c.08626-.11821.10223-.27476.03514-.40256-.0671-.13099-.19808-.21405-.34505-.21405H8.66134c-.21406 0-.38658.17252-.38658.38658s.17252.38658.38658.38658"/><path d="M9.14377 5.85623c.0671.13099.19808.21406.34505.21406h.9936c.21407 0 .38659-.17253.38659-.38658s-.17252-.38659-.38658-.38659h-.22364l.53035-.70607c.08626-.1182.10223-.27476.03514-.40255-.0671-.131-.19808-.21406-.34505-.21406h-.9936c-.21406 0-.38659.17252-.38659.38658s.17253.38658.38658.38658h.22365l-.53036.70607a.3834.3834 0 0 0-.03514.40256m2.83067-3.09904h.71885l-1.02875 1.3706a.3834.3834 0 0 0-.03515.40256c.0671.131.19809.21406.34505.21406h1.48882c.21406 0 .38658-.17253.38658-.38658s-.17252-.38658-.38658-.38658h-.71885l1.02875-1.37061c.08626-.11821.10224-.27476.03515-.40256-.0671-.13099-.19809-.21405-.34505-.21405h-1.48882c-.21406 0-.38658.17252-.38658.38658s.17252.38658.38658.38658"/></svg>