<svg class="nok-icon" height="16" width="16" fill="currentColor" xmlns="http://www.w3.org/2000/svg" viewBox="0 0 16 16"><path d="M8.13763 16c-2.06107 0-4.1187-.78452-5.68774-2.35355C.9256 12.12903.08946 10.10581.08946 7.95871s.83613-4.17032 2.357-5.69118C3.0314 1.68258 3.69547 1.19398 4.42494.81204c.13419-.07226.3028-.04473.4129.06194.1101.1101.1342.27527.06538.4129-1.483 2.85592-.94967 6.30022 1.32474 8.57463s5.7187 2.8043 8.57462 1.32473c.13764-.07226.3028-.04473.4129.06537s.1342.27527.06194.4129a8.19 8.19 0 0 1-1.45548 1.98194C12.2529 15.21548 10.19183 16 8.13419 16ZM3.81935 2.01978c-.30967.2271-.60215.47484-.87397.74667C1.5587 4.15312.79484 5.99398.79484 7.95527s.76387 3.80559 2.15054 5.19226c2.8628 2.8628 7.51484 2.8628 10.37763 0 .27183-.27527.52301-.56775.74667-.87742-2.89033 1.01505-6.12473.30967-8.34409-1.90968-2.21591-2.21591-2.92473-5.45376-1.90968-8.34409Z"/><path d="M11.26882 4.82753H7.85204a.35338.35338 0 0 1-.27182-.57807L10.53247.70538H7.83828c-.19613 0-.3544-.15828-.3544-.35441s.15827-.35441.3544-.35441h3.45118a.35338.35338 0 0 1 .27183.57806L8.60903 4.11527h2.66323c.19613 0 .3544.15828.3544.3544s-.15827.35442-.3544.35442Zm4.27699 2.95914h-2.43957a.35338.35338 0 0 1-.27183-.57807l1.96817-2.36387h-1.7101c-.19614 0-.35442-.15828-.35442-.3544s.15828-.35442.35441-.35442h2.46366a.35338.35338 0 0 1 .27183.57807l-1.97162 2.36387h1.68603c.19612 0 .3544.15828.3544.3544s-.15828.35442-.3544.35442Zm-4.35957 1.47268H9.47269a.35338.35338 0 0 1-.27183-.57806l1.23871-1.48645h-.9772c-.19613 0-.35441-.15828-.35441-.35441s.15828-.3544.3544-.3544h1.73076a.35338.35338 0 0 1 .27183.57806l-1.23871 1.48645h.96c.19613 0 .3544.15828.3544.3544s-.15827.35441-.3544.35441"/></svg>