<svg class="nok-icon %s" height="16" width="16" fill="currentColor" xmlns="http://www.w3.org/2000/svg" viewBox="0 0 16 16"><path d="M3.55293 6.51273c.20362.07672.39248.14754.57544.22722.12098.05312.18295.03246.23607-.10033.22722-.56658.55773-1.06824 1.00922-1.48138.61675-.56067 1.33383-.91774 2.16304-1.02692.35412-.04722.35412-.03837.35707-.45445 0-.28919.08852-.40428.301-.39837.15934.00295.25377.07967.26558.23902.00885.10328.01475.20952 0 .3128-.02951.22132.09148.27444.28329.301 1.04463.13574 1.88565.6374 2.55551 1.4489.21542.26264.38953.54298.53117.84988.06787.1446.14165.19181.29214.09738.11214-.07082.24493-.11214.36592-.1623.1623-.06787.29214-.03836.37772.12689.08263.15935.03246.3364-.12689.41903-.16525.08558-.33936.15345-.50756.23313-.07673.0354-.12984.07377-.10919.1859.1564.86463.07378 1.7027-.27443 2.5142-.00886.02066-.0059.04427-.00886.08559.19181.08557.38363.1741.58134.25378.1741.07082.24788.1977.19771.36886-.05902.19477-.21247.24493-.39247.18296-.23903-.08262-.47215-.18-.71708-.27444-.2833.34526-.58134.67872-.94135.94726-.54297.40132-1.14497.6551-1.81778.74363-.10328.01476-.24493 0-.27149.1446-.0236.1446-.02065.26854.14165.38067.40133.26854.47215.67577.33936 1.17743-.09739.36296-.47215.59314-.86168.58133-.39838-.01475-.7702-.3423-.82036-.75544-.05312-.43379.0295-.83807.4987-1.0712.12985-.06491.12395-.17115.11805-.28623-.00295-.1328-.10034-.12394-.19182-.13575-.82626-.10328-1.56104-.41313-2.2014-.94725-.24788-.20656-.4633-.44264-.6492-.70527-.07673-.10919-.1446-.1269-.25969-.06787-.17115.08852-.35116.1623-.52821.24197-.19477.08558-.39838.04722-.46035-.08262-.07968-.17706.0059-.36592.20952-.46035.07377-.03541.1446-.07672.22132-.11214.40427-.1918.40427-.18886.26853-.60199-.19476-.59314-.28624-1.19808-.18-1.82368.02655-.14755-.00296-.25673-.17411-.30985-.17116-.05016-.33346-.12984-.49871-.19476-.16525-.06787-.24788-.18296-.21837-.36592.02656-.17115.14755-.22722.3187-.23902m7.25932 3.82147c.07967-.10919.1623-.21247.23312-.32756.51346-.80856.69937-1.67908.4869-2.62634-.1977-.88528-.68756-1.5817-1.42235-2.09221-.7761-.54002-1.63777-.74954-2.58207-.56363-.85282.1682-1.5522.57838-2.09222 1.263-.62265.7879-.87938 1.68794-.72003 2.67355.1505.9148.602 1.67909 1.35743 2.23091.9325.67872 1.95058.89709 3.08079.55183.661-.20066 1.17742-.59314 1.65547-1.10955m-2.59092 2.75617c-.301-.00885-.44264.18886-.37477.52527.02656.12984.10328.21542.23607.23313s.25083-.02066.32166-.1505c.12689-.23018.07672-.42789-.18296-.6079m6.18517-10.48174c.48986.27444.51346.88824.36001 1.25415-.1564.37477-.40132.57839-1.11545.50461l.27444.32166c.06492.01475.09738-.02066.12394-.05607.26263-.32756.54592-.37772.9266-.15935.29509.17115.45149.42198.44263.7702-.00295.1564-.0059.3128 0 .4692.00886.18295-.08557.26558-.25083.27148-.1682.00295-.25968-.10033-.27148-.26263-.00886-.1269-.0059-.25379 0-.38068.00295-.12098-.03541-.22132-.121-.301-.11213-.10623-.22131-.18295-.33935.01181-.06787.11214-.17115.20657-.26263.301-.12394.12984-.25969.11804-.40133.02065-.11214-.07967-.1682-.20951-.26559-.301-.07082-.06786-.12689-.18-.25968-.12688-.12984.05607-.19771.1564-.20361.2951-.0059.13278 0 .26853-.00296.40427-.00885.17706-.05606.33346-.26853.34231-.18591.00885-.2951-.11804-.2951-.3423 0-.17116-.01475-.33937.02656-.51052.121-.51937.38658-.75544.9266-.7938.0295 0 .05607-.00886.09148-.0118-.44854-.4574-.55478-1.07415-.26264-1.49318.22428-.3246.67282-.41609 1.14792-.22428m-.36001 1.21284c.22427-.13574.29804-.38657.18295-.6079-.09148-.17705-.301-.22131-.44854-.08852-.12394.11213-.17115.25083-.12394.41903.05312.18591.15935.2951.38953.2774m-11.7359.85281c.6079-.21837 1.22464.21247 1.2276.85873v.44854c-.00296.18-.09148.28329-.2774.27444-.1682-.00886-.24787-.09443-.25082-.27444 0-.20362.04721-.41608-.07673-.61085-.13279-.20951-.25083-.22132-.40132-.0295-.07378.09443-.14755.1859-.23018.27148-.12984.1328-.27739.14165-.41608.02066-.11214-.09738-.21542-.20657-.31575-.31575-.1328-.1446-.25673-.1328-.36002.03836-.07377.12394-.0413.26263-.05016.39543-.00886.12394.02065.25378-.04722.37181-.06492.11214-.1564.15345-.28034.1387-.12689-.01476-.22132-.09443-.22722-.20952-.02066-.3482-.05902-.70232.14755-1.02102.19476-.2951.55182-.44855.99151-.38953-.25083-.1623-.46624-.32755-.50166-.60494-.0354-.26263-.07082-.53117.06197-.7879.16526-.3305.49281-.50461.90594-.46625.30985.0295.6138.29214.69938.61084.1505.56068-.01771.92955-.602 1.27186-.17115-.01475-.31575-.04131-.47215.0295.03837.12985.10624.23904.22132.2656.11214.02655.1387-.11214.19477-.18592.0236-.0295.0413-.06197.06197-.09443m-.50757-.74068c.17706.21247.35707.23312.49871.06197.10919-.1328.10919-.40133.00295-.54297-.09738-.13575-.22722-.17411-.36886-.09148-.18296.10623-.23608.27738-.1741.481.0059.02066.0177.04131.03835.09443ZM3.1044 9.50498c.23903.57838.1564.9148-.34821 1.41645.14164.05017.28329.01476.41608.06197.43379.1564.62855.41018.62855.86463v.44854c0 .17706-.10328.28034-.25673.28034-.1623 0-.27444-.10033-.26854-.2892.00296-.13574.00886-.26853-.00295-.40427-.01475-.15345-.06787-.29805-.23312-.35116-.1623-.05312-.21542.08557-.29214.18295-.05902.07673-.12985.1446-.20067.20952-.13574.12394-.3069.11214-.43379-.02066-.07672-.07967-.1505-.16525-.23312-.24197-.07082-.06787-.12984-.18886-.25673-.1269-.12394.05903-.18886.17116-.19772.30395-.00885.1564.0059.31575-.00885.4692-.02066.22723-.19771.3246-.39838.23608-.05016-.0236-.08852-.05017-.11213-.10033-.12394-.26854-.05312-1.10956.3187-1.33088.40133-.23607.67577-.23312 1.00627.08558.02951.0295.06787.05312.11214.08558a43 43 0 0 0 .2951-.31575c-.26854 0-.51642.03836-.7466-.10624-.22427-.14164-.35411-.33936-.40428-.58723-.09738-.50757.11214-.97677.50757-1.13317.3482-.13869.87643-.05311 1.10365.36002m-.97381.8115c.11213.10034.23312.1269.36886.05312.1564-.08852.15345-.23607.15936-.38952.0059-.19476-.10624-.301-.26854-.3305-.1564-.02951-.25673.08262-.32755.21836-.07968.15345-.02066.28625.07082.44855Zm10.88602.70528c.17705-.07967.3482-.07672.59904-.07082-.3246-.23312-.50756-.47215-.51642-.83217-.00885-.35116.06492-.6492.34821-.87347.32756-.25674.9148-.18886 1.19514.13869.3482.40428.23902 1.05054-.2715 1.53449.1446.05312.2951.02066.4338.07082.40723.14755.61674.42199.61674.85577v.47216c0 .18-.11803.26558-.27148.26263-.1446 0-.24788-.09443-.25083-.25968v-.40428q0-.17706-.12394-.301c-.12984-.12689-.25378-.11804-.35116.03246-.07083.10919-.15935.19771-.25379.2833-.13869.12098-.3069.10918-.43378-.02362-.07673-.07967-.1505-.16525-.23018-.24197-.07377-.06787-.13279-.18591-.25968-.12394-.11214.05607-.18296.1564-.19181.28624-.00885.14164-.00295.28329-.00295.42493 0 .17706-.06492.3128-.25673.33346-.18296.02066-.30395-.11509-.30985-.3305-.00885-.2833-.00885-.56363.12099-.83217.08852-.1859.20951-.32165.41903-.40133m1.20989-.7702c.06197-.11213.0413-.23312.03246-.3482-.01476-.1623-.23608-.31575-.37477-.25674-.1564.06492-.23903.20362-.25378.36297-.01476.15345.03836.30395.1859.37477.14755.06787.2892.0295.41314-.1328m-.47215.86168c.21837.20067.23607.19476.46624-.12984h-.55772c.03246.05017.05311.07968.09148.12984"/><path d="M8.40133 1.90336c.56953-.21247 1.20693.21542 1.22759.8233.0059.16526.00295.32756 0 .49282-.0059.18-.10328.26853-.28624.26853-.18591 0-.23903-.11213-.23903-.28034 0-.17115.0177-.33936-.04131-.51051-.04722-.13574-.12984-.22132-.25968-.24788-.121-.02656-.15935.08558-.21542.15935-.0059.0059-.00886.0118-.01476.0177-.37772.38658-.40133.4692-.7997.03837-.0059-.0059-.00886-.0118-.01476-.01476-.10623-.06492-.1505-.25673-.31575-.19476-.1741.06787-.20656.24788-.22722.40723-.0177.12394-.0059.25378-.0059.38067 0 .1387-.06197.22723-.20952.23903-.1387.00885-.28329-.02656-.2951-.1741-.0295-.36002-.08852-.72889.12985-1.06234.20066-.3069.50756-.38953.84692-.40428.09148-.00295.1505.05606.20952.11508.08557.08263.15344.18296.27443.23903.10033-.06787.1505-.17706.23313-.28034l.0059-.0118Zm-1.2571 12.5828c.39837-.19475.72888-.15934.95315.24789.05607-.03837.08853-.04722.10328-.06788.1741-.28919.42789-.33935.73184-.25378.3364.09443.55182.3128.6492.6433.05902.20067.05902.41314.04722.6197-.0118.21543-.12099.32461-.31575.32461-.22132 0-.24788-.14755-.25083-.31575 0-.13574.00295-.26854-.00295-.40428-.00886-.1623-.11509-.25673-.25673-.30395-.13575-.04721-.17411.08263-.23903.15345-.06197.06492-.11214.1387-.17706.20067-.18886.18295-.30394.18-.49575.00885-.1328-.12099-.28034-.22427-.4633-.36887-.11214.03541-.21542.1682-.21542.38067v.38067c-.0059.17411-.07968.2774-.27444.2715-.1859-.00591-.25673-.1033-.24493-.2715.02066-.28624-.06787-.58133.07673-.85872.08558-.16525.19476-.29804.38067-.38657Z"/><path d="M8.40428 1.90336c-.09443-.00886-.19181-.02656-.2892-.02656-.4869-.00295-.80265-.3187-.80265-.81151 0-.1505-.0118-.30395.0177-.4456.08263-.39542.50462-.661.9443-.61084.422.04722.73184.37772.72594.7938 0 .21247.03541.42494-.06787.6374-.11214.22428-.3069.33347-.51937.4574l-.00885.00886M8.09148.57543c-.12099.02951-.18591.11509-.23017.22132-.07378.18296-.0118.40723.13279.49576.14164.08853.27148.06197.38067-.05016.12099-.12394.13574-.2833.07967-.4338-.05311-.14459-.1505-.25968-.36591-.23312Zm-.54002 8.54593c-.03837-.03836-.06492-.06197-.08853-.09148-.25083-.3069-.56068-.27444-.7584.07967-.07967.1446-.12983.29805-.12393.4692.0059.18001.00295.35707 0 .53707-.0059.25379-.07083.31576-.2951.32166s-.28624-.121-.27148-.3128c.02656-.37772-.06787-.76135.07672-1.13021.1741-.4515.50461-.68462.97086-.79086.36887-.08557.59904.05017.7879.33936.04427.06787.11214.121.1682.18001.08853.09148.17116.07672.24788-.01475.10919-.12985.22133-.25969.3246-.39543.08263-.10328.19477-.15345.3128-.14165.79971.06493 1.384.47216 1.4017 1.4135v.4692c-.00295.26559-.09443.37773-.29804.38068-.21542 0-.30985-.1151-.3128-.39248 0-.1859-.00295-.37477 0-.56068.00295-.18296-.07377-.3364-.18886-.4633-.25673-.28033-.51641-.26263-.75249.03542-.11804.15344-.23608.3069-.37182.44559-.17115.1741-.37477.1564-.51346-.03836-.08853-.12394-.20067-.21837-.3128-.33936Zm1.80597-2.1719c-.10033.602-.42788.98267-1.01217 1.0948-.72888.1387-1.38104-.43674-1.3899-1.09775-.00294-.3246-.04426-.65806.1387-.95905.29214-.47805.81151-.69642 1.34268-.56068.54297.1387.90299.58134.92364 1.14496.0059.11804 0 .23903 0 .37773M7.699 6.19697c-.20656.20067-.18886.46035-.1682.71413.02066.26264.3069.52822.56658.55478.25378.02656.54888-.1741.62855-.43674.04427-.1387.01476-.28329.02066-.42198.0118-.26854-.11214-.45445-.36002-.56068-.25378-.10919-.47805-.07968-.69052.15345Z"/></svg>