<svg class="nok-icon %s" height="16" width="16" fill="currentColor" xmlns="http://www.w3.org/2000/svg" viewBox="0 0 16 16"><path d="M6.1 7.49q.38-.13.73-.13H9.2c1.06 0 1.84.62 2.1 1.64l.02.3v2.97q-.02.5-.24.97-.25.54-.84.7-.2.06-.18.26v1.43q0 .37-.34.37-.32 0-.32-.37v-5.62c0-.2.03-.35.27-.37q.4-.05.39.35v2.93c0 .09-.02.18.03.28q.3-.14.4-.44c.1-.3.12-.4.12-.62V9.41c0-.6-.46-1.15-1.05-1.28a2 2 0 0 0-.55-.05H6.94c-.91 0-1.52.6-1.52 1.5v2.45q0 .48.23.92.08.18.27.25c.07-.1.04-.18.04-.27v-2.87c0-.3.1-.41.32-.42.3 0 .4.08.4.38v5.56c0 .26-.15.43-.37.42-.2 0-.35-.18-.35-.43v-1.35c0-.12 0-.2-.15-.25-.66-.22-.97-.73-1.05-1.38-.13-1.1-.05-2.2-.04-3.3 0-.8.62-1.54 1.38-1.8m-4.53 2.56c.02-.34.1-.43.38-.41q.35-.01.33.41v5.5c0 .27-.14.44-.34.45-.21 0-.37-.18-.37-.44v-1.38c0-.1 0-.18-.14-.22-.66-.2-.98-.7-1.06-1.35-.14-1.12-.09-2.24-.05-3.35a2 2 0 0 1 2-1.9h1.86q.25-.01.38.22c.07.13.02.24-.05.36-.07.13-.2.13-.33.13H2.56a1.45 1.45 0 0 0-1.54 1.54q.02 1.2 0 2.42 0 .49.23.92c.06.1.14.2.32.27zm12.19 3.61q.04-.23.04-.45v-3.19c0-.32.11-.41.43-.38q.2 0 .24.2.05.18.05.38v2.68c0 .09-.03.18.03.28.25-.1.33-.33.4-.54q.07-.24.07-.5-.03-1.32 0-2.63a1.4 1.4 0 0 0-1.43-1.43h-1.74q-.35 0-.37-.32c-.01-.2.12-.38.32-.38.82.01 1.64-.1 2.46.09a2 2 0 0 1 1.46 1.87v2.92q-.01.46-.19.89-.24.6-.84.8c-.15.06-.18.13-.18.27v1.35c0 .35-.23.5-.52.4-.17-.06-.19-.18-.19-.32v-1.57q0-.2-.05-.4ZM6.5.16c.48.24.82.6.92 1.13.2 1.17-.52 2.01-1.6 2.03a1.5 1.5 0 0 1-1.47-.88A1.6 1.6 0 0 1 4.51.67q.74-.94 2-.51m-.2.73c-.51-.32-.96-.12-1.24.26-.2.28-.26.59-.08.9q.26.51.81.56c.37.03.8-.32.92-.7.1-.36-.04-.76-.41-1.02M8.85 2.6Q8.2 1.5 9.01.54c.46-.53 1.19-.71 1.94-.36.65.3.98.82.9 1.76-.04.57-.54 1.14-1.15 1.32a1.6 1.6 0 0 1-1.73-.53zM10.68.86c-.22-.1-.44-.17-.69-.1-.4.13-.75.58-.7.97.07.5.41.83.9.88.37.04.8-.3.93-.69.12-.37-.04-.79-.44-1.05ZM5.12 5.82c-.42.92-1.5 1.2-2.31.74-.56-.31-.8-.8-.82-1.45-.01-.87.61-1.5 1.3-1.6a1.64 1.64 0 0 1 1.83 2.31M3.76 4.2c-.5 0-.86.2-1 .57-.15.41-.04.8.3 1.08q.49.4 1.1.02c.29-.18.45-.6.37-.94-.1-.4-.36-.61-.77-.72Zm2.98-.13c.5-.62 1.37-.73 2-.43.72.33 1.05 1.03.9 1.83a1.6 1.6 0 0 1-1.47 1.3c-.9.05-1.58-.5-1.74-1.24-.1-.5-.06-1.02.31-1.46m.6 1.64.08.09c.28.28.71.33 1.04.14.38-.22.58-.64.48-1.01a1 1 0 0 0-.88-.73.9.9 0 0 0-.85.5q-.28.5.12 1.01Zm6.72-.25c-.29 1.16-1.51 1.69-2.51 1.06q-.69-.41-.75-1.28c-.03-.69.2-1.23.82-1.56a1.6 1.6 0 0 1 1.66.02q.73.42.8 1.28zm-.96.31q.44-.5.14-1.08A.96.96 0 0 0 12 4.3a.93.93 0 0 0-.35 1.28c.33.54.86.62 1.46.18"/></svg>