<svg class="nok-icon %s" height="16" width="16" fill="currentColor" xmlns="http://www.w3.org/2000/svg" viewBox="0 0 16 16"><path d="M5.44 3.9a11 11 0 0 1 2.59 2.96 10 10 0 0 1 2.84-3.13q.21-.14.44-.22.17-.06.16-.24c0-1.12.4-2.12.97-3.05q.22-.32.47-.18.23.14.02.47-.76 1.2-.93 2.62c-.02.18-.02.35.14.5.28.28.32.66.4 1.01.12.63.1 1.27.08 1.9q0 .63-.28 1.21c-.2.43-.57.63-.97.79-.95.38-1.94.45-2.91.11-.32-.1-.56-.1-.87.02a4 4 0 0 1-1.77.15 4 4 0 0 1-1.5-.47c-.48-.26-.7-.69-.79-1.19a6.6 6.6 0 0 1 .16-3.14q.06-.24.23-.4.12-.12.08-.27A6 6 0 0 0 3.1.57L3.01.43q-.14-.24.1-.4.24-.1.39.13.37.56.62 1.19c.25.62.42 1.27.4 1.95q-.02.12.1.17.44.15.8.44m6.67 1.72c-.07-.42-.08-.86-.21-1.27s-.2-.44-.58-.2l-.24.15A9 9 0 0 0 9.2 6.14c-.36.46-.69.94-.86 1.51-.08.25-.05.34.19.45l.25.09q.7.18 1.41.08.76-.08 1.38-.5.22-.14.3-.4c.2-.55.23-1.12.22-1.74m-8.05-.7a8 8 0 0 0-.02 1.9q.1.96 1.03 1.25.54.17 1.1.21.68.05 1.31-.17c.27-.1.32-.22.24-.51a3 3 0 0 0-.33-.71 10 10 0 0 0-1.91-2.24 4 4 0 0 0-.9-.62q-.22-.11-.3.11c-.11.24-.15.49-.21.77Zm1.9 8.27a6 6 0 0 0-2-1.26c-.28-.11-.31-.18-.27-.48l.15-1.08q.06-.41.44-.27c.95.4 1.95.54 2.98.6q.94.07 1.86-.01a8 8 0 0 0 2.54-.56c.35-.15.47-.08.53.3l.17 1.12q.03.25-.22.35-.82.32-1.54.83a4.5 4.5 0 0 0-1.97 3q-.04.25-.3.25H7.7q-.3 0-.32-.29a4.4 4.4 0 0 0-1.22-2.34zm-.68-2.17c-.32-.04-.62-.19-.95-.25l-.07.5q-.03.2.16.26.39.14.72.36a5.4 5.4 0 0 1 2.72 3.37c.02.07.04.15.13.16.1 0 .13-.09.15-.17a5 5 0 0 1 1.5-2.48 7 7 0 0 1 1.9-1.22q.26-.12.19-.37l-.03-.17q0-.3-.27-.18a13.4 13.4 0 0 1-6.15.2Z"/></svg>