<svg class="nok-icon" height="16" width="16" fill="currentColor" xmlns="http://www.w3.org/2000/svg" viewBox="0 0 16 16"><path d="M3.46376 9.04844c-.02403 0-.04806 0-.0721-.00901-.16522-.03905-.26736-.20729-.22831-.37251.26737-1.10552.81712-1.8175 1.63124-2.12092.15922-.05708.33647.02103.39655.18025s-.02103.33646-.18025.39654c-.61284.22832-1.03042.7961-1.24671 1.68833-.03305.14119-.15922.23732-.30042.23732"/><path d="M5.75892 16c-.80811 0-1.41194-.39955-1.67931-.69996-3.29553-2.96508-2.5475-7.11078-2.51446-7.28802.08412-.34247.18325-.6519.29741-.93128.03605-.16824.20428-.78709.81712-1.27976 1.65828-1.33684 3.5539-.8021 3.635-.77807 1.13857.21329 1.6012.21029 1.61022.21029h.1472s.46564.003 1.62223-.2133c.2133-.0721 1.58017-.48967 2.85392.18926.92227.49268 1.55614 1.42997 1.8866 2.78784.03605.18926.78408 4.33496-2.51146 7.30304-.38152.42959-1.44198 1.05445-2.82388.4416-.17424-.06909-.73-.26135-1.07848-.26135h-.03605c-.35148 0-.90725.19226-1.0905.26736-.40856.18325-.79009.25535-1.13556.25535ZM5.29328 5.5216c-.61585 0-1.46.14119-2.22606.76004-.5077.40856-.59782.91926-.60383.94029-.003.02403-.01202.04807-.02103.0691-.10815.25535-.20128.54374-.27638.85317-.003.02403-.70898 3.98047 2.33721 6.71123.00901.009.02103.01802.02704.03004.03004.03605.8021.88321 2.12092.2974.04205-.01802.78708-.31543 1.33083-.31543h.03604c.54375 0 1.28878.29741 1.32182.30943 1.34285.59782 2.12092-.28239 2.12993-.2914s.01803-.02103.02704-.03004c3.04619-2.73076 2.34022-6.6872 2.3342-6.72625-.28238-1.1596-.8111-1.9647-1.56815-2.37026-1.10852-.59782-2.37026-.15321-2.38227-.1472-.01502.006-.03305.009-.04807.01201-1.25573.23432-1.7484.22832-1.76643.22832H7.9309s-.50168.009-1.76042-.22832c-.02102-.006-.3725-.10214-.8772-.10214m-2.42133.51972h.003zM8.1562 4.18175h-.12917c-.11716-.006-.2223-.08111-.27037-.18926-.63988-1.53812-1.58919-1.9617-1.5982-1.9647-.15622-.0661-.22832-.24634-.16523-.40256.0661-.15621.24334-.23131.39955-.16522.04506.01802 1.10552.47165 1.85054 2.1089.45062-.01202 1.5952-.11716 2.16899-.84116.35148-.44461.6579-1.3819.82613-2.01577-.66691.1502-1.66128.42058-2.09388.733-.18024.13219-.33345.33347-.45662.60083-.04206.09013-.08112.19227-.11717.2944-.05407.16223-.2283.24935-.39053.19828a.31243.31243 0 0 1-.19827-.39054c.04205-.12617.09012-.24934.14119-.3635.16823-.3635.38753-.64588.6549-.84115.7901-.5708 2.74278-.92227 2.82389-.9373.10214-.01802.20428.01503.27638.09013s.10214.18025.07811.27939c-.01802.0781-.42358 1.92564-1.06046 2.73376-.79008.99737-2.28614 1.07547-2.73977 1.07547Z"/></svg>