<svg class="nok-icon %s" height="16" width="16" fill="currentColor" xmlns="http://www.w3.org/2000/svg" viewBox="0 0 16 16"><path d="M3.83117 9.26554c-.17813 0-.36955-.02925-.57162-.09572C1.79727 8.6886 1.99668 7.0216 2.0605 6.47392c.15154-1.25757.69125-2.9033 1.26287-4.64474.02393-.06913.07179-.12762.1356-.15952s.1409-.03988.21003-.01595l3.7195 1.22033c.14357.04786.22067.20207.17282.34563C6.9897 4.96112 6.44998 6.6042 5.82253 7.70754c-.23396.41476-.88268 1.558-1.99402 1.558ZM3.7594 2.25723c-.53175 1.61914-1.0183 3.13725-1.15388 4.28049-.18877 1.57129.34297 1.95414.82685 2.11366s1.13792.16484 1.91957-1.21236c.56896-1.00233 1.07677-2.51247 1.60851-4.1316l-3.1984-1.0502Z"/><path d="M2.04187 13.15254c-.02924 0-.05583-.00532-.08507-.0133-.14357-.04785-.22068-.20205-.17282-.34562l1.30276-3.96943c.04786-.14357.1994-.22067.34563-.17281.14357.04786.22067.20206.17281.34563l-1.30275 3.96942c-.03723.11433-.14357.18877-.26056.18877Z"/><path d="M3.3526 14.35959c-.02924 0-.05848-.00532-.08507-.0133L.18877 13.33333c-.14357-.04785-.22067-.20206-.17282-.34563.09572-.29511.39615-.48388.8428-.5344.37222-.03987.8242.01862 1.27086.16485.89332.29511 1.69093.9199 1.48355 1.55001-.02127.06913-.07178.12496-.1356.15952-.03987.01861-.07975.02925-.1223.02925ZM.91726 12.99834l1.96477.64606c-.18877-.17281-.49983-.36424-.92257-.50515-.36955-.1223-.74709-.17282-1.03954-.14091Zm5.78797-7.97076H2.71984c-.15154 0-.27384-.1223-.27384-.27384s.1223-.27385.27384-.27385h3.98538c.15154 0 .27384.1223.27384.27385s-.1223.27384-.27384.27384m5.46095 4.23796c-1.11133 0-1.76006-1.14324-1.99402-1.558-.6248-1.10335-1.1645-2.74642-1.73878-4.48787-.04786-.14356.0319-.29777.17281-.34563l3.72217-1.22033c.06912-.02127.14357-.01596.20738.01595s.11432.0904.13559.15952c.57162 1.74144 1.11133 3.38717 1.26288 4.64739.06646.5477.26587 2.21469-1.19907 2.69591-.20206.06647-.39083.09572-.56896.09572ZM9.03955 3.3074c.53174 1.61648 1.03955 3.12928 1.6085 4.1316.779 1.37455 1.4357 1.3719 1.91958 1.21237s1.01562-.54237.82685-2.11366c-.13559-1.14324-.62213-2.66135-1.15387-4.2805z"/><path d="M13.95547 13.15254c-.11433 0-.22067-.07178-.26055-.18876l-1.30276-3.96943c-.04786-.14357.0319-.29777.17281-.34563.14357-.04786.29778.0319.34563.17282l1.30276 3.96942c.04786.14357-.0319.29777-.17281.34563-.02925.01063-.05584.0133-.08508.0133Z"/><path d="M12.64473 14.35959a.2685.2685 0 0 1-.2579-.18877c-.20737-.6301.59024-1.25756 1.48356-1.55002.44666-.14622.89864-.20471 1.27085-.16483.44666.04785.7471.23928.8428.5344.04786.14356-.0319.29777-.1728.34562l-3.07877 1.01296c-.02925.00798-.05583.0133-.08508.0133Zm2.25723-1.36923c-.26055 0-.56364.05318-.86141.14889-.4254.13825-.7338.33234-.92257.50515l1.96477-.64606c-.05583-.00532-.11698-.01064-.17813-.01064Zm-.9465-.109h.00267zm-.6753-7.85378H9.29478c-.15154 0-.27384-.1223-.27384-.27384s.1223-.27385.27384-.27385h3.98538c.15154 0 .27384.1223.27384.27385s-.1223.27384-.27384.27384"/></svg>