<svg class="nok-icon %s" height="16" width="16" fill="currentColor" xmlns="http://www.w3.org/2000/svg" viewBox="0 0 16 16"><path d="M7.56415 5.78341c-.77918 0-1.41605-.63331-1.41605-1.41605S6.78497 2.9513 7.56415 2.9513s1.41606.63687 1.41606 1.41606S8.3469 5.7834 7.56415 5.7834m0-2.22726c-.4483 0-.81476.36647-.81476.81476s.36647.81477.81476.81477.81477-.36647.81477-.81477-.36647-.81476-.81477-.81476m.99978 12.4136c-.23126 0-.45897-.09606-.62264-.25972-.16722-.16722-.25972-.38782-.25972-.61908v-2.83567H7.4503v2.75028c0 .48388-.39493.8788-.88237.8788-.23126 0-.45185-.0925-.61908-.25972s-.25972-.38782-.25972-.61908V10.8997c0-.04981.00355-.10318.01423-.14943l-.01423-3.62553c0-.64043.60129-1.15988 1.34133-1.15988h1.06738c.74005 0 1.34134.51945 1.34134 1.15988l-.01423 3.71092c.01067.0498.01423.09962.01423.15299v4.10585c0 .48388-.39493.8788-.8788.8788ZM7.15143 11.654H7.984c.16722 0 .30242.1352.30242.30243v3.13453a.28.28 0 0 0 .5586 0V10.9851c0-.02135 0-.03914-.00712-.05337-.00356-.02135-.00711-.04625-.00711-.07116L8.845 7.1212c0-.30242-.338-.5586-.74005-.5586H7.03758c-.40916 0-.74005.24906-.74005.5586l.01423 3.65755c0 .0249 0 .04625-.00711.07116 0 .01423-.00712.03202-.00712.05337v4.10585c0 .07116.02847.14231.08183.19568s.12453.08184.19569.08184c.153 0 .28108-.12453.28108-.27752v-3.04915c0-.16722.1352-.30242.30242-.30242Zm5.70692-8.26862c-.92506 0-1.67934-.75428-1.67934-1.67934S11.93329.02668 12.85835.02668s1.67934.75429 1.67934 1.67935-.75428 1.67934-1.67934 1.67934m0-2.75384c-.59417 0-1.07805.48388-1.07805 1.07805s.48388 1.07806 1.07805 1.07806 1.07805-.48388 1.07805-1.07806S13.45252.63153 12.85835.63153m1.49789 15.33823h-.27396c-.48744 0-.88237-.39493-.88237-.87881v-1.88926h-.55504v1.78252c0 .48388-.39493.87881-.88236.87881h-.27396c-.48388 0-.87881-.39493-.87881-.8788v-2.18458c-.02846-.01779-.05693-.03558-.08895-.05336-.35935-.21704-.80409-.491-.80409-.90016 0-.01779 0-.03202.00356-.04981l1.11719-6.71381c.02134-.76495.96775-1.33067 1.81454-1.33067h.40916c.84679 0 1.7932.56927 1.81454 1.33067l1.1172 6.7138s.00355.03203.00355.04982c0 .34512-.338.5586-.6333.75072-.04626.02847-.09252.06049-.13165.0854v2.41227c0 .48388-.39493.8788-.87881.8788ZM12.346 12.6004h1.15632c.16723 0 .30243.1352.30243.30242v2.18813c0 .15299.12453.27752.28108.27752h.27396c.15299 0 .27751-.12453.27751-.27752v-2.5617c0-.08184.03558-.16367.09607-.21704.08183-.07828.19568-.14943.31665-.2277.10318-.06761.29175-.18502.34868-.25974l-1.11007-6.67111s-.00356-.03202-.00356-.04981c0-.37003-.62264-.75784-1.21325-.75784h-.40917c-.59061 0-1.21325.39137-1.21325.75784 0 .01779 0 .03202-.00356.0498l-1.11363 6.69247c.04625.09606.37003.2953.51234.3807.09607.05692.18502.11385.25262.16366.07827.05693.12452.14588.12452.2455v2.34467c0 .14944.12809.27752.27752.27752h.27396c.15655 0 .28108-.12453.28108-.27752v-2.08138c0-.16723.1352-.30243.30242-.30243ZM2.2486 3.38537c-.92506 0-1.67934-.75428-1.67934-1.67934S1.32355.03024 2.2486.03024s1.67934.75428 1.67934 1.67934-.75428 1.67935-1.67934 1.67935Zm0-2.75384c-.59417 0-1.07805.48388-1.07805 1.07805s.48388 1.07806 1.07805 1.07806 1.07805-.48388 1.07805-1.07806S2.84278.63153 2.24861.63153m1.36624 15.28842H3.3409a.88237.88237 0 0 1-.88236-.88237v-3.654h-.42695v3.654a.88237.88237 0 0 1-.88237.88237h-.2704a.88237.88237 0 0 1-.88237-.88237v-5.344c0-.05693.00356-.11386.0178-.16723l-.0178-4.41539c0-.75072.71159-1.35913 1.58684-1.35913h1.31999c.87525 0 1.58683.60841 1.58683 1.35913l-.01423 4.4154c.01068.05336.01423.11029.01423.17077v5.344c0 .48744-.39493.88237-.8788.88237Zm-1.88214-5.1412h1.02824c.16722 0 .30243.1352.30243.30242v3.95641c0 .153.12808.28108.28107.28108h.27396c.153 0 .27752-.12453.27752-.28108v-5.344c0-.02491 0-.04626-.00712-.0605a.285.285 0 0 1-.01067-.0747l.01423-4.44742c0-.41627-.44118-.75784-.98554-.75784h-1.32c-.54436 0-.98554.34157-.98554.75784l.01779 4.45097c0 .0249 0 .05337-.01067.07827-.00356.01424-.00712.03558-.00712.05693v5.344c0 .153.12809.28108.28108.28108h.2704c.15299 0 .28107-.12808.28107-.28107v-3.95642c0-.16722.1352-.30242.29887-.30242Z"/></svg>