<svg class="nok-icon %s" height="16" width="16" fill="currentColor" xmlns="http://www.w3.org/2000/svg" viewBox="0 0 16 16"><path d="M11.29576 11.58934a3.159 3.159 0 0 0 1.27567.26911c.05592 0 .10834 0 .16426-.0035a3.15247 3.15247 0 0 0 2.90782-3.14547c0-.70948-.23416-1.36304-.63259-1.89078l-.01048-.01748-2.5024-3.6103-2.2962 3.30974"/><path d="M7.84622 15.6505c1.92923 0 3.49498-1.56225 3.49498-3.49497a3.46 3.46 0 0 0-.7025-2.10048l-.01397-.02097-2.7785-4.00525-2.77851 4.00525-.01398.02097a3.46 3.46 0 0 0-.7025 2.10048c0 1.92922 1.56226 3.49497 3.49498 3.49497"/><path d="M7.84622 13.9869c-1.01005 0-1.83137-.82133-1.83137-1.83137M3.16295 8.0664a2.80297 2.80297 0 0 0 2.24028-4.48754l-.01048-.01748L3.16295.3495.93315 3.56488l-.01048.01747a2.768 2.768 0 0 0-.56269 1.68458A2.80297 2.80297 0 0 0 3.16295 8.0699Z"/><path d="M3.16295 6.4028A1.13936 1.13936 0 0 1 2.0236 5.26343"/></svg>