<svg class="nok-icon %s" height="16" width="16" fill="currentColor" xmlns="http://www.w3.org/2000/svg" viewBox="0 0 16 16"><path d="M16 10.56207H4.18281L2.17735 2.37381h-1.618v.6985H0V1.81446h2.61937l.33288 1.36426L16 4.28922zm-11.3779-.55934h10.81583V4.8049L3.0914 3.75171 4.6221 10Z"/><path d="M5.95634 10.28104h-.56207V3.44338h.56207zm3.92088 0h-.55935V4.02456h.55935zm3.9236 0h-.56208V4.36016h.56208z"/><path d="M15.71896 7.34789H3.61528v-.55935h12.10368zm-7.4543 6.43656c-1.58526 1.21964-3.397-.58936-2.17735-2.17736 1.588-1.22237 3.39973.58936 2.17736 2.17736m-.40655-1.76808c-.99045-.76398-2.12279.36835-1.3588 1.3588.98772.75853 2.1146-.36835 1.3588-1.3588m6.13642 1.76808c-1.58526 1.21964-3.397-.58936-2.17735-2.17736 1.588-1.22237 3.39973.58936 2.17735 2.17736m-.40927-1.76808c-.99045-.76398-2.12279.36835-1.3588 1.3588.98772.75853 2.1146-.36835 1.3588-1.3588"/></svg>