<svg class="nok-icon %s" height="16" width="16" fill="currentColor" xmlns="http://www.w3.org/2000/svg" viewBox="0 0 16 16"><path d="M1.77835 13.97509c-.10476 0-.18653-.08432-.18653-.18652V9.9917c0-.10476.08432-.18653.18653-.18653s.18652.08432.18652.18653v3.79687c0 .10475-.08432.18652-.18652.18652m2.79527 0c-.10476 0-.18652-.08432-.18652-.18652v-2.99202H3.27052v2.99202c0 .10475-.08432.18652-.18652.18652s-.18652-.08432-.18652-.18652v-3.17854c0-.10476.08431-.18652.18652-.18652h1.48962c.10476 0 .18652.08431.18652.18652v3.17854c0 .10475-.08432.18652-.18652.18652"/><path d="M.76653 10.2702a.1814.1814 0 0 1-.14053-.06388l-.57745-.6541a.1878.1878 0 0 1 .01788-.26573l4.85213-4.2619a.1865.1865 0 0 1 .24273-.00255l1.6327 1.37464c.06133.0511.08432.13797.05366.21207l-.3526.87895c-.023.05622-.07154.0971-.13031.11243s-.12009 0-.16608-.03833l-1.1549-.98371-4.15459 3.64612c-.03577.03066-.0792.046-.12264.046m-.31428-.8253.3296.37304 4.1367-3.63079a.1865.1865 0 0 1 .2453 0l1.0808.91983.2044-.51101-1.4053-1.18301zm1.3491-2.07474c-.10477 0-.18653-.08432-.18653-.18652v-1.4743c0-.10475.08432-.18651.18652-.18651h.92239c.10476 0 .18652.08431.18652.18652v.61067c0 .10475-.08432.18652-.18652.18652s-.18652-.08432-.18652-.18652v-.42415h-.5468v1.28521c0 .10476-.08431.18652-.18651.18652Zm5.24815 6.62791H.8764c-.10476 0-.18652-.08431-.18652-.18652s.08431-.18652.18652-.18652h6.17055c.10476 0 .18652.08432.18652.18652s-.08432.18652-.18652.18652Zm7.07506-1.66847c-.38837 0-.76653-.12265-1.08336-.34494a1.883 1.883 0 0 1-1.08336.34494c-.01022 0-1.10891-.01278-1.43852-.4727a.1891.1891 0 0 1 .04344-.26317c.08432-.06132.20185-.04088.26062.04344.15075.20951.80996.31683 1.13446.31683.35005 0 .69243-.1252.96327-.35005.06899-.05877.1712-.05877.24018 0 .26829.22485.61067.35005.96327.35005.8253 0 1.49729-.672 1.49729-1.49729 0-.62088-.3756-1.16767-.9556-1.39508a.1865.1865 0 0 1-.11499-.13797c-.1533-.7742-.78952-1.33632-1.51006-1.33632-.16864 0-1.03226.0281-1.41297.60556-.0562.08687-.17374.10987-.26062.05366a.1891.1891 0 0 1-.05365-.26062c.47269-.72054 1.44107-.77675 1.72469-.77675.86873 0 1.6327.64133 1.855 1.54072a1.8601 1.8601 0 0 1 1.10124 1.70425c0 1.03226-.84063 1.87288-1.87288 1.87288Z"/><path d="M13.03865 13.91121c-.10476 0-.18653-.08432-.18653-.18652v-4.2338c0-.10475.08432-.18651.18653-.18651s.18652.08431.18652.18652v4.23379c0 .10476-.08432.18652-.18652.18652"/><path d="M12.95433 11.28968c-.03577 0-.07154-.01022-.1022-.03066l-.78953-.51357a.1891.1891 0 0 1-.05621-.26062.1891.1891 0 0 1 .26062-.05621l.78952.51357c.08687.05621.11243.17375.05621.26062-.03577.05621-.09709.08432-.15841.08432Zm.08432-.61833c-.0741 0-.14564-.04344-.17375-.11753a.1891.1891 0 0 1 .10476-.2453l.8764-.3526c.09453-.03832.2044.00767.24528.10476.03833.0971-.00766.20441-.10475.2453l-.8764.3526c-.023.01022-.046.01277-.06899.01277Zm-3.72533 1.46407h-.06643c-.7742-.01789-1.51262-.36027-1.97765-.91728-.46502-.55956-.64133-1.29799-.5059-2.13606.1073-.67199.37304-1.69658.79207-2.56531.5008-1.03993 1.0757-1.56627 1.7068-1.56627 1.39253 0 2.21016 2.57809 2.4759 4.10348.20185 1.16256-.15331 1.87033-.48548 2.2587-.44714.51868-1.16767.8253-1.93931.8253Zm-.0511-6.80933c-1.03226 0-1.88055 2.2766-2.1284 3.81476-.11753.7282.0281 1.36186.42415 1.83456.39604.47524 1.0297.76908 1.69658.78441.68477.01789 1.3261-.24273 1.71447-.69243.4037-.46758.54168-1.14213.40115-1.94954-.26573-1.52539-1.04503-3.79176-2.1054-3.79176Z"/><path d="M9.21878 10.79655c-.04088 0-.08432-.01533-.12009-.04344L7.71894 9.6161a.18697.18697 0 1 1 .23762-.28873l1.37975 1.13702c.07921.06643.09199.18397.02556.26317-.03833.046-.09199.069-.14565.069Zm-.023-1.61482c-.04088 0-.08431-.01277-.12009-.04344l-.8304-.68732a.18697.18697 0 1 1 .23762-.28872l.8304.68732c.07922.06643.092.18397.02556.26317-.03833.046-.09198.069-.14564.069Z"/><path d="M9.29543 10.79655c-.05365 0-.10731-.023-.14564-.06899a.1865.1865 0 0 1 .02555-.26317l1.37975-1.13702a.1865.1865 0 0 1 .26318.02555c.06643.07921.05366.1993-.02555.26318l-1.37975 1.137c-.03577.02811-.07666.04344-.1201.04344Zm.023-1.61482c-.05366 0-.10732-.023-.14564-.06899a.1865.1865 0 0 1 .02555-.26317l.8304-.68732a.1865.1865 0 0 1 .26318.02555c.06643.0792.05366.1993-.02555.26317l-.8304.68732c-.03578.02811-.07666.04344-.1201.04344Z"/><path d="M9.25966 13.98786c-.10476 0-.18652-.08431-.18652-.18652V7.50048c0-.10476.08432-.18652.18652-.18652s.18652.08432.18652.18652v6.30086c0 .10476-.08431.18652-.18652.18652"/><path d="M7.39955 14.86426c-.0562 0-.10987-.02555-.1482-.07154-.06387-.08177-.0511-.1993.03067-.26318.86873-.68476 2.3839-1.09358 4.05238-1.09358s3.17342.40626 4.04471 1.08592c.08177.06388.0971.18141.03322.26317s-.18141.09454-.26318.03322c-.79463-.62089-2.25614-1.0067-3.8122-1.0067s-3.02778.38837-3.81986 1.0118a.179.179 0 0 1-.11498.0409Zm4.22357-11.05078c-.47013 0-.8534-.38071-.85595-.85085 0-.4727.3807-.85851.8534-.85851h.00255c.47014 0 .8534.3807.85596.85085 0 .47269-.3807.8585-.85085.8585zm-.48035-.85596c0 .26318.21718.4778.48035.4778.26573 0 .48036-.21718.4778-.4829 0-.26318-.21718-.47781-.48035-.47781-.12776 0-.24785.0511-.33983.14308-.08943.09199-.14053.21208-.14053.33983Zm-.18653 1.81412a.1878.1878 0 0 1-.17119-.26062l.14564-.3475c.04088-.09453.1482-.14052.2453-.09964.09453.04088.14052.15075.09964.24529l-.14564.34749c-.03066.07154-.09965.11498-.17375.11498m1.19323-2.9128a.1878.1878 0 0 1-.17119-.26063l.14564-.3475c.04088-.09453.15075-.14052.2453-.09964s.14052.15075.09964.24529l-.14564.3475c-.03066.07153-.09965.11497-.17375.11497m-2.14883 1.96231c-.0741 0-.14309-.04343-.17375-.11753-.03832-.0971.00767-.2044.1022-.24529l.35005-.14309c.09454-.04088.20697.00767.2453.1022.03832.0971-.00767.20442-.10221.2453l-.35005.14308c-.023.01022-.04599.01278-.07154.01278Zm2.90259-1.21622c-.0741 0-.14309-.04344-.17375-.11754-.03833-.09709.00766-.2044.1022-.24528l.35005-.14309c.09454-.03833.2044.00767.24529.1022.03833.0971-.00767.20441-.1022.2453l-.35005.14308c-.023.01022-.04855.01277-.07154.01277Zm-2.5602.01533c-.023 0-.04856-.00511-.07155-.01533l-.3475-.14564a.1878.1878 0 0 1-.09964-.2453c.04088-.09453.15075-.14052.24529-.09964l.34749.14564a.1878.1878 0 0 1-.0741.36027m2.9128 1.19067c-.02299 0-.04854-.0051-.07153-.01533l-.3475-.14564a.1878.1878 0 0 1-.09965-.24529c.04089-.0971.15076-.14053.2453-.09965l.34749.14564a.1878.1878 0 0 1-.0741.36027m-.9505.95816c-.0741 0-.14308-.04343-.17374-.11753l-.14309-.35005c-.03832-.09454.00767-.2044.1022-.24529.09454-.03832.20441.00767.2453.1022l.14308.35005c.03833.09454-.00767.20441-.1022.2453-.023.01021-.04855.01277-.07155.01277ZM11.08911 1.8665c-.0741 0-.14309-.04344-.17375-.11754l-.14308-.35005c-.03833-.09453.00766-.2044.1022-.24528.09454-.03833.2044.00766.24529.1022l.14309.35005c.03832.09454-.00767.2044-.1022.24529-.023.01022-.04856.01277-.07155.01277Z"/></svg>