<svg class="nok-icon %s" height="16" width="16" fill="currentColor" xmlns="http://www.w3.org/2000/svg" viewBox="0 0 16 16"><path d="M9.62 15.78a2 2 0 0 1-2-2V9.62a2.01 2.01 0 0 1 3.42-1.42 2 2 0 0 1 .6 1.42v4.14c0 1.11-.9 2.01-2.02 2.01m0-7.54a1.4 1.4 0 0 0-1.38 1.39v4.14a1.39 1.39 0 0 0 2.77 0V9.63q-.01-.57-.41-.98a1.4 1.4 0 0 0-.98-.4Z"/><path d="M11.32 12.01h-3.4a.3.3 0 0 1-.3-.31V9.63a2.01 2.01 0 0 1 3.42-1.42 2 2 0 0 1 .6 1.42v2.07c0 .17-.15.31-.32.31m-3.08-.62H11V9.63c0-.36-.15-.72-.4-.98a1.4 1.4 0 0 0-.99-.4c-.76 0-1.38.62-1.38 1.38z"/><path d="M9.62 15.78a2 2 0 0 1-2-2V11.7c0-.18.13-.32.3-.32h3.4c.17 0 .31.14.31.32v2.07a2 2 0 0 1-2 2.01m-1.4-3.77v1.76a1.39 1.39 0 0 0 2.78 0v-1.76zM14 8q-.36 0-.7-.12a2 2 0 0 1-1.13-1.04l-1.74-3.76A2.01 2.01 0 0 1 12.94.34a2 2 0 0 1 1.13 1.04l1.74 3.76A2 2 0 0 1 14 7.99M12.25.84q-.3 0-.58.13c-.7.32-1 1.14-.68 1.84l1.74 3.76q.25.51.78.71c.53.2.73.12 1.06-.04.7-.32 1-1.14.68-1.84L13.5 1.64a1.4 1.4 0 0 0-1.26-.8Z"/><path d="M11.58 5.13a.3.3 0 0 1-.28-.19l-.87-1.87A2.01 2.01 0 0 1 12.95.34a2 2 0 0 1 1.13 1.04l.86 1.88a.3.3 0 0 1-.15.41L11.71 5.1zm.67-4.29q-.3 0-.58.13c-.7.32-1 1.14-.68 1.84l.74 1.6 2.51-1.17-.73-1.6a1.4 1.4 0 0 0-1.26-.8"/><path d="M14 8q-.36 0-.7-.13a2 2 0 0 1-1.13-1.04l-.87-1.89a.3.3 0 0 1 .15-.41l3.08-1.43a.3.3 0 0 1 .42.15l.87 1.89A2 2 0 0 1 14 7.99Zm-2-3.03.73 1.6q.25.5.78.71c.53.21.73.12 1.06-.04.7-.32 1-1.15.68-1.84l-.74-1.6zM2 10.75a2 2 0 0 1-1.59-.78 2 2 0 0 1 .36-2.82l3.28-2.53a2 2 0 0 1 1.49-.4q.82.12 1.33.76a2 2 0 0 1 .4 1.49 2 2 0 0 1-.76 1.33l-3.28 2.54a2 2 0 0 1-1.22.41Zm3.27-5.92q-.46 0-.84.28L1.16 7.65a1.4 1.4 0 0 0-.25 1.94 1.4 1.4 0 0 0 1.95.25L6.14 7.3a1.4 1.4 0 0 0 .25-1.94 1.4 1.4 0 0 0-.92-.53z"/><path d="M4.69 9.13a.3.3 0 0 1-.25-.12L2.37 6.33q-.08-.1-.07-.24c.01-.14.06-.15.12-.2l1.64-1.27a2 2 0 0 1 1.48-.4q.83.13 1.34.77a2 2 0 0 1 .4 1.48 2 2 0 0 1-.76 1.34L4.88 9.07a.3.3 0 0 1-.2.06M3.06 6.2l1.7 2.2 1.38-1.1a1.4 1.4 0 0 0 .25-1.94 1.4 1.4 0 0 0-.92-.53c-.37-.05-.74.05-1.03.28z"/><path d="M2.01 10.75a2 2 0 0 1-1.59-.78 2 2 0 0 1 .36-2.82l1.64-1.27c.14-.1.34-.08.44.06l2.08 2.69q.08.1.06.23c-.02.13-.05.16-.12.2l-1.64 1.28q-.54.4-1.22.41Zm.55-4.18-1.4 1.08q-.44.35-.52.91a1.38 1.38 0 0 0 2.22 1.27l1.4-1.07z"/></svg>