<svg class="nok-icon %s" height="16" width="16" fill="currentColor" xmlns="http://www.w3.org/2000/svg" viewBox="0 0 16 16"><path d="M3.77 15.89C1.69 15.89 0 14.17 0 12.06s1.7-3.83 3.77-3.83 3.77 1.72 3.77 3.83-1.7 3.83-3.77 3.83m0-7.08C2 8.8.57 10.27.57 12.06s1.44 3.25 3.2 3.25 3.19-1.46 3.19-3.25S5.53 8.8 3.76 8.8"/><path d="M2.93 11.3a.45.45 0 1 1-.9 0 .45.45 0 1 1 .9 0m2.5 0a.45.45 0 1 1-.9 0 .45.45 0 1 1 .9 0m6.8 4.59c-2.08 0-3.77-1.72-3.77-3.83s1.7-3.83 3.77-3.83S16 9.95 16 12.06s-1.7 3.83-3.77 3.83m0-7.08c-1.76 0-3.2 1.46-3.2 3.25s1.44 3.25 3.2 3.25 3.2-1.46 3.2-3.25-1.44-3.25-3.2-3.25"/><path d="M11.4 11.3a.45.45 0 1 1-.9 0 .45.45 0 1 1 .9 0m2.49 0a.45.45 0 1 1-.9 0 .45.45 0 1 1 .9 0m-5.9-3.53c-2.07 0-3.76-1.72-3.76-3.83S5.93.11 8 .11s3.77 1.72 3.77 3.83S10.07 7.77 8 7.77M8 .69C6.24.7 4.8 2.15 4.8 3.94S6.25 7.2 8 7.2s3.2-1.46 3.2-3.25S9.75.7 8 .7"/><path d="M7.17 3.19a.45.45 0 1 1-.9 0 .45.45 0 1 1 .9 0m2.49 0a.45.45 0 1 1-.9 0 .45.45 0 1 1 .9 0m-1.6 2.95c-1.12 0-1.9-.62-1.91-.63a.3.3 0 0 1-.04-.4.3.3 0 0 1 .4-.05 2.6 2.6 0 0 0 3.09-.01c.13-.1.3-.06.4.07s.06.31-.08.4a3.2 3.2 0 0 1-1.87.62ZM2.1 14.03a.3.3 0 0 1-.24-.13.3.3 0 0 1 .07-.4 3.2 3.2 0 0 1 3.78.02.3.3 0 0 1 .04.4.3.3 0 0 1-.4.04 2.6 2.6 0 0 0-3.1.02.3.3 0 0 1-.15.05m11.57-.05H10.8c-.16 0-.3-.13-.3-.3s.14-.28.3-.28h2.87c.16 0 .29.13.29.29s-.13.29-.3.29"/></svg>