<svg class="nok-icon %s" height="16" width="16" fill="currentColor" xmlns="http://www.w3.org/2000/svg" viewBox="0 0 16 16"><path d="M8.1728.01803c.568.10519.92562.41773 1.09091.95267.0571.18632.02404.37265.02705.55898 0 .10819.02705.18031.12922.23741.29452.15628.58603.31856.87153.48685.09016.0541.15327.04809.24343-.00901.5199-.33058 1.04583-.31555 1.55672.02104.09917.06611.1743.0631.26747.006.27348-.16228.54996-.31855.82043-.48084.10218-.0601.14426-.13223.12021-.27948-.08414-.49587.08415-.92262.48085-1.23216.39669-.30654.84748-.36364 1.31029-.16228.54696.23741.86551.76634.81142 1.3163-.0541.58602-.44177 1.0338-1.04283 1.17505-.33658.08115-.67017.02405-.95867-.1743-.17731-.12021-.32457-.16529-.49587-.00601-.0511.04808-.12322.08415-.18933.1112-.47183.19534-.70323.48985-.66717 1.05484.02705.44177-.3426.7423-.73629.9196-.1773.07815-.2284.1683-.22239.34561.01202.25245.00601.50489 0 .75733 0 .12322.04809.18332.1653.2314.54394.20737.83245.61608.8054 1.1991-.01503.30053.09316.47183.35462.58002.08114.03306.15928.08415.2314.13523.30654.21037.58002.30654.9707.09317.55898-.30654 1.41548.02404 1.68295.71825.24643.63712-.03606 1.4215-.66717 1.67994-.1683.06913-.2344.15027-.21638.32157a.893.893 0 0 1 0 .21938c-.0541.38768.04508.64914.43276.8535.42975.22539.57701.67618.53794 1.148-.03907.5079-.30653.88656-.78136 1.09392-.42375.18332-.84148.14726-1.23216-.10519-.13223-.08715-.23742-.09015-.37566.003-.21337.14727-.44177.2795-.67618.38769-.20135.09316-.2825.2254-.25545.44177.0541.44177-.1112.79339-.4538 1.07288-.42073.3426-.89255.3967-1.3704.18632-.45379-.19834-.76032-.571-.74229-1.08189.01202-.37566-.09917-.59805-.44177-.72427-.06612-.02404-.12322-.07813-.18633-.1172-.27949-.1683-.5199-.30654-.87753-.07814s-.79039.1713-1.15703-.0601c-.17731-.1112-.32156-.1082-.48986-.003-.22239.13823-.45079.25844-.67618.39067-.12322.07213-.19234.14726-.17731.32457.06612.8024-.42975 1.41548-1.22615 1.46657-.79038.05109-1.46356-.58603-1.38242-1.45755.01503-.16229-.02404-.24343-.14725-.31255-.26146-.14726-.52592-.2915-.78438-.44778-.12922-.07814-.2284-.0541-.35462.02104-.39369.2284-.81743.2855-1.23816.09015-.49888-.2344-.76634-.63711-.76935-1.1991-.00601-.56799.26446-.96468.76334-1.1991.15927-.07513.2344-.15326.21637-.32456q-.01352-.12172 0-.24343c.03006-.33659-.01803-.571-.39068-.76634C.0496 9.8272-.09467 8.92261.30203 8.30954c.36063-.55898 1.21112-.73028 1.80015-.3486.14125.09315.2284.09015.36364 0 .24943-.1653.5199-.30354.78136-.4508.1082-.0601.15928-.12321.13824-.27047-.08414-.58603.23441-1.139.78738-1.37941.13824-.06011.18332-.13524.18032-.27649-.00601-.23741-.01202-.47483 0-.70924.01202-.19534-.04809-.30053-.24042-.38467-.50489-.2254-.7423-.65214-.7363-1.19009s.26147-.95867.76635-1.17806c.41773-.18332.84748-.15627 1.23817.08415.15026.09316.26145.08415.3997 0 .24342-.14726.48985-.29151.73929-.42675.14125-.07513.19234-.1773.18032-.33659-.02405-.31254 0-.61607.20435-.88054.32758-.40871.7363-.58903 1.26822-.54395m2.30203 6.01954c.47784-.15327.571-.50489.50188-.94967-.01803-.1112-.00601-.2284 0-.3426.003-.09616-.03606-.15927-.12322-.18933-.61307-.21638-.95266-.79038-.84447-1.52667.01803-.1172-.02705-.1713-.10218-.21638-.2885-.1683-.58302-.32457-.87153-.48985-.07212-.04208-.12321-.0541-.19534.003-.53794.41773-1.0879.4027-1.64688.03306-.08114-.0541-.16229-.09617-.27048-.03005-.27047.16529-.54695.32156-.82344.47783-.08414.04809-.14725.09918-.12321.21037.15026.65515-.17731 1.27423-.77536 1.50864-.13824.0541-.1743.14726-.1713.2855q.01352.37866 0 .75733c-.006.15026.03907.2314.18933.2915.24343.09617.44779.25245.58603.48986.18933.32157.24342.66717.18332 1.03381.33659.19534.66116.37866.98272.571.10819.06612.19534.06612.31255 0 .47483-.27648.95567-.29451 1.4275.01503.09015.0601.1803.0631.27347.00901.25244-.14725.49888-.30653.76033-.43876.19234-.09918.26447-.23141.24944-.44779-.03005-.41773.12923-.76333.47483-1.05484m-5.5958 7.33884c.13524.03005.29152.03005.3907.12321.32456.30354.61006.13825.90157-.04808.08715-.0571.18031-.1142.27348-.15928.19834-.09617.30954-.21938.27949-.46581-.06612-.5079.06611-1.00076.54094-1.2021.46582-.20136.4538-.5139.43276-.88956-.003-.06612-.00601-.13224 0-.19535.01803-.13523-.04207-.21036-.1683-.25544-.4027-.14426-.65815-.43276-.78136-.84148-.06311-.20736-.02404-.42073-.03005-.6311 0-.12322-.02705-.21638-.14726-.2825-.26446-.14124-.52592-.2885-.78437-.44477-.1082-.06612-.18032-.0601-.2825.01502-.49587.37266-1.09391.37266-1.6048.003-.09617-.06911-.1653-.08113-.26146-.02403-.25245.14725-.50188.30052-.76635.42674-.1773.08415-.20435.20737-.1773.37566.08715.52592-.08716.99474-.53194 1.23216-.3967.21037-.44177.47783-.4057.83846.006.06612.009.13224 0 .19535-.02705.18031.04808.2825.21637.35462.41773.1743.6221.50789.72427.94365.0541.2344-.03606.44778-.02104.66416.31556.18933.6251.36965.93163.55297.09016.0541.1713.06611.26747-.01202.27949-.2224.60706-.30353 1.00376-.27649m3.74155-3.15251c-.23742.06611-.3396.20736-.30354.4628.02405.18333.00902.37566.00301.56199 0 .10218.03306.1713.13223.20736.61307.23441.92562.73329.84147 1.47859-.01202.12021 0 .20135.1082.26446.2915.16229.58301.32457.86851.49587.07814.04809.12923.04207.19234-.01503.42975-.39368 1.15101-.41773 1.66792-.03005.09617.07213.16529.06912.26146.00902.24943-.15027.50488-.29752.76634-.42975.15026-.07514.18933-.16229.15026-.33058-.10819-.46281.09617-1.07288.52893-1.26221.42674-.18933.46882-.47183.42975-.84448-.00601-.0571-.00902-.1142 0-.1713.03005-.18933-.0511-.2855-.2284-.36664-.55898-.25845-.84448-.83246-.72427-1.4245.02404-.1232.003-.19834-.10819-.26145-.27047-.15026-.53494-.30654-.7994-.46582-.1112-.06912-.20135-.0601-.30954.01503-.53494.37265-1.07889.35162-1.61382 0-.1142-.07513-.19835-.07814-.30654-.00902-.24944.15327-.49887.30354-.75432.44478-.10218.0571-.15026.09918-.12923.24042.09016.60106-.10819 1.0879-.66716 1.43652m5.52066-8.43276c.0541.03606.10518.07513.16529.10218.33659.16529.6882.03606.87753-.32156.14125-.26447.00601-.65515-.2825-.81743-.24642-.14125-.60104-.08716-.78436.1202-.2284.25545-.2284.55297.02404.91661M4.3982 14.1127c-.31856.20135-.43276.52592-.2885.83245.12922.27348.47482.44178.7483.35763.36965-.1112.574-.46882.46281-.81142-.1202-.36664-.48084-.52893-.92261-.37866m.67317-6.5124c.04508-.04508.09918-.08715.13524-.13824.20135-.27047.17731-.61307-.0601-.83847-.25846-.24944-.574-.27648-.83547-.06912-.27047.21337-.33658.55597-.16228.85049.17731.30353.49587.38167.91961.19534m10.1668 5.0849c.01802-.37566-.43577-.73328-.78138-.6311-.3426.10217-.54695.38166-.50488.73027.03606.30654.30053.53794.62209.54395.36364.00602.61007-.21637.66416-.64312M4.50338 2.70473c-.03606.01803-.07513.03306-.1112.0511-.2915.15927-.4057.45078-.30052.76333.09316.27348.42074.48986.67618.45079.31856-.04809.574-.3426.571-.65515-.003-.42374-.29451-.64914-.83846-.61007m7.41096 4.53193c.07213-.27648-.03606-.56799-.27047-.71825-.2284-.14726-.5109-.13524-.7483.03907-.18934.13523-.28851.4598-.21639.70022.06311.21037.35763.4538.574.47483.2254.02404.5139-.18031.66116-.49587m-.25845 7.97596c.03607-.03306.07513-.0631.1082-.09917.25544-.2855.24041-.65214-.03607-.9136-.24643-.2284-.65515-.20736-.90158.04508-.2284.2344-.24042.55597-.03005.83847.18031.24643.49587.30052.8625.12622m-4.24943-2.77686c-.09316.19834-.08715.38768.03606.577.21338.32758.54997.41473.88656.2194.30353-.17732.39068-.5079.22539-.83848-.24343-.48084-.81142-.47483-1.148.04208M.79488 9.25019c.01503.03606.03005.07513.04809.1112.15326.2915.52592.42674.80841.2945.30954-.14424.48084-.49887.37566-.77535-.13524-.35161-.47483-.53193-.81142-.42675-.3426.10519-.46281.31556-.42374.7964m14.44027-.07213c0-.06611.00901-.13223 0-.19534-.03907-.2855-.33058-.55297-.61308-.568-.2855-.01502-.58602.20436-.65815.47784-.07814.29452.07213.61007.35763.74831.35762.1743.6852.02104.9166-.46581m-7.3689-.75432c-.06611.03005-.13523.0541-.19834.09015-.21939.12622-.37566.4508-.32457.66116.06311.25845.36063.51991.60406.52893.36664.01202.69722-.27649.71224-.6281.01503-.36364-.32757-.66116-.79338-.65515M1.8918 12.2795c-.35763-.3396-.7994-.32156-1.02179.04508-.1683.27348-.1172.64613.1142.84748.23441.20436.571.21037.80541.01202.2855-.24042.37566-.577.10218-.90458m9.84222-8.50188c.27649-.32457.2825-.58001.02705-.88956-.1713-.20736-.54996-.27648-.78137-.14124-.2855.16529-.4027.50789-.2885.79339.16228.4027.64613.58903 1.04282.24042m-3.2066-2.08866c.16228-.24343.14425-.48385 0-.72727-.17732-.29151-.53494-.37265-.8535-.18933-.29151.1683-.40571.53794-.25244.81442.25244.4598.6882.5109 1.10894.10218Z"/></svg>