<svg class="nok-icon %s" height="16" width="16" fill="currentColor" xmlns="http://www.w3.org/2000/svg" viewBox="0 0 16 16"><path d="M8 13.07A5.07 5.07 0 1 1 8 2.93a5.07 5.07 0 0 1 0 10.13Zm0-9.6a4.54 4.54 0 1 0 0 9.08 4.54 4.54 0 0 0 0-9.08"/><path d="M8 11.46a3.47 3.47 0 1 1 0-6.94 3.47 3.47 0 0 1 0 6.94m0-6.4a2.94 2.94 0 1 0 0 5.88 2.94 2.94 0 0 0 0-5.88m-6.67-.83a.27.27 0 0 1-.27-.27v-1.3c0-.14.12-.26.27-.26s.27.12.27.27v1.3c0 .14-.12.26-.27.26"/><path d="M1.33 13.6a.8.8 0 0 1-.8-.8V6.36A.8.8 0 0 1 0 5.6V3.97c0-.15.12-.27.27-.27H2.4c.15 0 .27.12.27.27V5.6a.8.8 0 0 1-.53.76v6.44a.8.8 0 0 1-.8.8Zm-.8-9.37V5.6c0 .15.12.27.27.27s.27.12.27.27v6.66c0 .15.12.27.27.27s.26-.12.26-.27V6.13c0-.14.12-.26.27-.26s.27-.12.27-.27V4.23z"/><path d="M2.4 4.23a.27.27 0 0 1-.27-.27v-1.3c0-.14.12-.26.27-.26s.27.12.27.27v1.3c0 .14-.12.26-.27.26m12.8 9.37a.8.8 0 0 1-.8-.8V9.57c0-.3-.24-.54-.54-.54a.3.3 0 0 1-.26-.26V6.36c0-2.34 1.2-3.7 1.25-3.75a.67.67 0 0 1 1.14.45v9.74a.8.8 0 0 1-.8.8Zm-1.07-5.07a1.1 1.1 0 0 1 .8 1.04v3.23c0 .15.12.27.27.27s.27-.12.27-.27V3.07a.13.13 0 0 0-.09-.13.1.1 0 0 0-.14.03s-1.1 1.26-1.1 3.4z"/></svg>