<svg class="nok-icon" height="16" width="16" fill="currentColor" xmlns="http://www.w3.org/2000/svg" viewBox="0 0 16 16"><path d="M5.47 2.59c.43.11.76-.14 1.07-.39.14-.11.28-.22.44-.3.86.31 1.54.66 2.17 1.13.82.62 1.47 1.4 1.91 2.27l.48-.14a7.2 7.2 0 0 0-2.1-2.53c-.7-.52-1.44-.91-2.4-1.24a.28.28 0 0 0-.18 0 3 3 0 0 0-.62.41c-.28.22-.46.35-.64.3-.29-.07-.44-.54-.45-1.38 0-.14-.11-.25-.25-.25s-.25.11-.25.25c0 .71.1 1.67.83 1.86Zm.35 3.33c.11.1.22.2.32.3l.55-.16c-.22-.22-.42-.41-.54-.52l-.94-.82-.31-.29C3.77 3.39 3.19 2.13 3.18.69c0-.14-.11-.25-.25-.25s-.25.11-.25.25c0 1.59.64 2.97 1.88 4.1l1.26 1.12Zm5.65.42c.16.52.25 1.07.27 1.62.04 1.83-1 3.91-2.79 5.58-1.21.2-2.12.05-2.94-.49a.26.26 0 0 0-.29.01c-.08.07-.12.18-.08.28.31.82.43 1.5.38 2.23 0 .14.09.26.23.27h.02c.13 0 .24-.1.25-.23.04-.61-.02-1.2-.2-1.83.8.35 1.7.43 2.79.23.05 0 .09-.03.13-.06 1.93-1.77 3.05-4.02 3-6.01-.02-.68-.15-1.35-.36-1.98l-.4.37Z"/><path d="M4.04 10.28c.48.03.98.2 1.52.54s1.21.33 1.81-.02c1.2-.68.84-2.09.71-2.62a.7.7 0 0 1-.03-.14c0-.03 0-.06-.02-.08l-.18-.4c-.09-.15-.19-.3-.29-.44l-.49.15c.13.18.25.35.34.51l.15.35s.02.11.04.18c.2.77.3 1.62-.47 2.06-.44.25-.92.26-1.3.03-.61-.38-1.18-.58-1.75-.61-.75-.04-1.37.34-1.7 1.06-.34.73-.32 1.45.05 2.09.22.38.45.65.65.89.43.51.69.81.53 1.74-.02.14.07.27.21.29h.04c.12 0 .23-.09.25-.21.19-1.16-.2-1.61-.64-2.14-.19-.22-.4-.48-.6-.82-.36-.62-.22-1.23-.03-1.62.24-.53.68-.8 1.21-.77Zm9.14-6.81c.05.07.12.1.2.1.05 0 .1-.02.15-.05.11-.08.14-.24.05-.35-.12-.17-.25-.32-.39-.48a.25.25 0 0 0-.35-.02c-.1.09-.11.25-.02.35.12.14.25.28.35.43Zm-1.85-1.84c.05-.13 0-.27-.13-.33-.19-.08-.38-.15-.58-.21a.245.245 0 0 0-.31.17c-.04.13.03.27.17.31.18.06.36.12.53.19.03.01.07.02.1.02.1 0 .19-.06.23-.15ZM9.73.89c-.2-.03-.41-.04-.61-.05-.14 0-.25.11-.26.24 0 .14.11.25.24.26.19 0 .37.02.56.04h.03c.12 0 .23-.09.25-.22a.25.25 0 0 0-.21-.28Zm3.92 3.3c.09.17.18.33.26.5.04.09.13.14.23.14.04 0 .07 0 .11-.02.12-.06.18-.21.12-.33-.08-.18-.18-.36-.28-.54a.247.247 0 0 0-.34-.09c-.12.07-.16.22-.09.34Zm.89 2.67c.02.19.04.38.04.57 0 .13.12.24.25.24.14 0 .25-.12.24-.26 0-.2-.02-.4-.05-.61-.02-.14-.12-.24-.28-.22-.14.02-.24.14-.22.28Zm-.31-1.38c.06.18.11.36.16.54.03.11.13.19.24.19h.06c.13-.03.22-.17.18-.3-.05-.2-.11-.39-.17-.58-.04-.13-.18-.2-.32-.16-.13.04-.2.19-.16.32Zm-1.41 6.54c-.14.13-.28.24-.44.36-.11.08-.13.24-.05.35.05.07.12.1.2.1.05 0 .1-.02.15-.05.17-.12.32-.25.47-.39.1-.09.11-.25.02-.35a.25.25 0 0 0-.35-.02m.9-1.07c-.1.16-.21.31-.32.46a.244.244 0 0 0 .2.4c.07 0 .15-.03.2-.09.13-.16.25-.33.36-.5.07-.12.04-.27-.08-.34s-.27-.04-.34.08Zm.87-1.45a.247.247 0 0 0-.31.16c-.06.18-.12.36-.19.54a.258.258 0 0 0 .23.35c.1 0 .19-.06.23-.16.08-.19.14-.38.2-.57a.247.247 0 0 0-.16-.31Zm.24-1.45a.243.243 0 0 0-.27.23c-.02.19-.04.37-.08.56-.02.14.07.27.2.29h.04c.12 0 .22-.08.25-.21.04-.2.06-.4.08-.6a.25.25 0 0 0-.23-.27Zm-3.16 4.78c-.17.09-.33.17-.51.25-.13.06-.18.2-.13.33.04.09.13.15.23.15.03 0 .07 0 .1-.02.19-.08.37-.17.55-.27.12-.07.17-.22.1-.34s-.22-.17-.34-.1m.89-10.4c.08-.11.07-.27-.04-.35-.16-.13-.33-.24-.5-.35a.246.246 0 0 0-.34.08c-.07.12-.04.27.08.34.16.1.31.21.46.32.05.04.1.05.15.05.07 0 .15-.03.2-.1Zm-2.19 10.94c-.09.03-.19.05-.28.07-.13.03-.22.17-.18.3.03.11.13.19.24.19h.06c.1-.02.2-.05.3-.08.13-.04.21-.18.17-.31a.25.25 0 0 0-.31-.17M8.17.9l-.31.06c-.13.03-.22.16-.19.3.03.12.13.19.24.19h.06c.09-.02.19-.04.28-.05.14-.02.23-.15.21-.29A.25.25 0 0 0 8.17.9"/><path d="M8.77 6.88c.03-.12.03-.27-.01-.48l.31-.12c1.15 1.67 3.62.18 3.58-1.51-.21-.42-.82.06-1.15.11-.93.27-1.89.67-2.82.94-.09.02-.12-.43-.25-.45l-.77.25-.54.18c-.28.09-5.18 1.72-5.33 1.79C.67 7.7.77 9.41 2 9.22c.39-.13 6-2.03 6-2.03l.38-.15.4-.16ZM1.91 8.65c-.33.11-.52-.33-.18-.47l6.41-2.17.02.51-6.24 2.13ZM9.67 6.1l2.29-.78c-.41.87-1.45 1.6-2.29.78"/></svg>