<svg class="nok-icon %s" height="16" width="16" fill="currentColor" xmlns="http://www.w3.org/2000/svg" viewBox="0 0 16 16"><path d="M3.67.46c-.35.1-.47.17-.76.4-.3.22-.62.67-.76 1.05q-.11.29-.13 5.68V13H.2l-.1.13c-.1.1-.11.2-.11.5 0 .95.27 1.49.92 1.84l.31.17H12.1l.24-.11c.33-.15.67-.48.83-.81l.14-.29.02-5.7v-5.7h2.43l.13-.12c.12-.13.12-.14.1-.72-.01-.52-.03-.63-.16-.88-.17-.35-.56-.7-.92-.83-.27-.1-.34-.1-5.62-.1-4.96 0-5.36 0-5.62.09m9.17.82-.14.26-.02 6.35c-.03 6.98 0 6.52-.33 6.82-.15.14-.51.3-.67.3-.2 0-.48-.12-.65-.27-.28-.25-.37-.48-.37-1.05 0-.77.5-.7-4.1-.7h-3.9l.01-5.31c.02-5.03.02-5.34.1-5.56.11-.27.46-.68.73-.85.4-.24.32-.24 5.03-.24h4.44zm1.84-.18c.4.16.67.59.67 1.06v.17h-2.02v-.27c0-.73.7-1.23 1.35-.96m-4.66 12.97c.02.3.06.48.16.67l.14.26H5.88l-4.45-.02-.2-.11Q.72 14.6.7 14l-.02-.35h4.65l4.65.02z"/><path d="M4.93 4.02c-.25.1-.33.39-.15.57.1.1.17.1 2.9.1s2.79 0 2.89-.1a.34.34 0 0 0 0-.49c-.1-.09-.24-.1-2.84-.1-1.5 0-2.76 0-2.8.02M4.78 6.1a.34.34 0 0 0 0 .48c.1.1.23.1 2.9.1s2.78 0 2.88-.1c.14-.12.14-.35 0-.48-.1-.1-.16-.1-2.89-.1s-2.79 0-2.89.1m-.02 2.02q-.08.11-.08.22 0 .13.08.21l.08.11h5.67l.08-.1c.1-.16.1-.37-.01-.46-.09-.08-.36-.1-2.92-.1H4.84zm.17 1.89c-.25.1-.33.39-.15.57.1.1.17.1 1.56.1s1.46 0 1.56-.1a.34.34 0 0 0 0-.49c-.1-.09-.21-.1-1.5-.1-.77 0-1.43 0-1.47.02"/></svg>