<svg class="nok-icon" height="16" width="16" fill="currentColor" xmlns="http://www.w3.org/2000/svg" viewBox="0 0 16 16"><path d="M14.92473 11.78772V10.0007c-.09157.02775-.18314.05828-.28581.05828s-.19424-.03053-.28582-.05828v1.78703c.09158-.02775.18315-.05827.28582-.05827s.19424.03052.28581.05827M12.2664 14.5099l1.77593-1.02394c-.15262-.11932-.26917-.27749-.33021-.46895l-1.71766.9934c.14152.13043.22754.30524.27194.49949m1.44572-5.73847c.06104-.19147.17481-.34686.3302-.46896L12.2664 7.27853c-.0444.19424-.1332.36906-.27194.49948zm-2.39196-2.69997c.0999 0 .19424.03053.28582.05828V4.21505c-.09158.02775-.18315.05828-.28582.05828s-.19424-.03053-.28581-.05828v1.91468c.09157-.02775.18314-.05828.28581-.05828M10.39057 2.983c.06104-.19146.17481-.34686.3302-.46895L8.94486 1.4901c-.0444.19425-.1332.36906-.27194.49948zm-.0222 4.26223-1.79813 1.0378c.16927.1221.29414.28582.36073.48839l1.71766-.99341c-.14984-.13875-.23864-.32744-.28026-.53555Zm-2.36698 4.48422c.0999 0 .19424.03052.28581.05827V10.0007c-.09157.02775-.18314.05828-.28581.05828s-.19424-.03053-.28582-.05828v1.78703c.09158-.02775.18315-.05827.28582-.05827m-.56885-3.44641L5.6344 7.24524c-.04162.2081-.13042.39402-.28027.53554l1.71766.99341c.06382-.20256.19147-.36628.36074-.48838ZM5.60944 2.983l1.71765-.9934c-.14152-.1332-.22754-.30524-.27194-.49949L5.27922 2.51405c.15262.11932.26917.27749.33021.46895M3.7364 7.27853 1.96046 8.30246c.15262.11932.26916.2775.3302.46896L4.00833 7.778c-.14151-.13042-.22754-.30524-.27193-.49948M2.29067 13.017c-.06105.19146-.17482.34686-.33021.46895l1.77593 1.02394c.0444-.19425.13319-.36906.27193-.49948zm-.92959-1.28755c.0999 0 .19424.03052.28582.05827V10.0007c-.09158.02775-.18315.05828-.28582.05828s-.19424-.03053-.28581-.05828v1.78703c.09157-.02775.18314-.05827.28581-.05827m3.03573-7.5144v1.91468c.09157-.02775.18314-.05828.28581-.05828s.19424.03053.28582.05828V4.21505c-.09158.02775-.18315.05828-.28582.05828s-.19424-.03053-.28581-.05828M7.0718 13.017l-1.71766.9934c.14152.13043.22755.30524.27194.49949l1.77593-1.02394c-.15262-.11932-.26916-.27749-.33021-.46895m1.8564 0c-.06105.19146-.17482.34686-.33021.46895l1.77593 1.02394c.0444-.19425.1332-.36906.27194-.49948zm5.05584-11.01353c-.14429-.13042-.23864-.29969-.2858-.49393l-1.73431 1.0489c.14707.12488.25529.28582.31078.47729l1.70933-1.03504Z"/><path d="M11.32015 4.55636c-.70204 0-1.27367-.57162-1.27367-1.27367s.57163-1.27367 1.27367-1.27367 1.27368.57163 1.27368 1.27367-.57163 1.27367-1.27368 1.27367m0-1.97849c-.38848 0-.70482.31634-.70482.70482s.31634.70482.70482.70482.70482-.31633.70482-.70482-.31633-.70482-.70482-.70482m-6.6403 1.9785c-.70205 0-1.27368-.57163-1.27368-1.27368s.57163-1.27367 1.27368-1.27367 1.27367.57163 1.27367 1.27367-.57163 1.27367-1.27367 1.27367m0-1.97849c-.38849 0-.70482.31634-.70482.70482s.31633.70482.70482.70482.70482-.31633.70482-.70482-.31634-.70482-.70482-.70482m3.32154-.03052c-.70205 0-1.27368-.57163-1.27368-1.27368S7.29934 0 8.0014 0s1.27367.57163 1.27367 1.27367-.57163 1.27368-1.27367 1.27368m0-1.9785c-.38849 0-.70482.31634-.70482.70482s.31633.70482.70482.70482.70482-.31633.70482-.70482S8.38988.56885 8.0014.56885m6.63753 1.9785c-.70205 0-1.27368-.57163-1.27368-1.27368S13.93687 0 14.63892 0s1.27367.57163 1.27367 1.27367-.57163 1.27368-1.27367 1.27368m0-1.9785c-.38849 0-.70482.31634-.70482.70482s.31633.70482.70482.70482.70482-.31633.70482-.70482-.31634-.70482-.70482-.70482m0 9.77593c-.70205 0-1.27368-.57163-1.27368-1.27367s.57163-1.27368 1.27368-1.27368 1.27367.57163 1.27367 1.27368-.57163 1.27367-1.27367 1.27367m0-1.9785c-.38849 0-.70482.31634-.70482.70483s.31633.70482.70482.70482.70482-.31634.70482-.70482-.31634-.70482-.70482-.70482m-3.31877-.03053c-.70204 0-1.27367-.57163-1.27367-1.27367s.57163-1.27368 1.27367-1.27368 1.27368.57163 1.27368 1.27368-.57163 1.27367-1.27368 1.27367m0-1.9785c-.38848 0-.70482.31634-.70482.70483s.31634.70482.70482.70482.70482-.31634.70482-.70482-.31633-.70482-.70482-.70482m3.31877 7.63649c-.70205 0-1.27368-.57163-1.27368-1.27368s.57163-1.27367 1.27368-1.27367 1.27367.57163 1.27367 1.27367-.57163 1.27368-1.27367 1.27368m0-1.9785c-.38849 0-.70482.31634-.70482.70482s.31633.70482.70482.70482.70482-.31633.70482-.70482-.31634-.70482-.70482-.70482M11.32015 16c-.70204 0-1.27367-.57163-1.27367-1.27367s.57163-1.27368 1.27367-1.27368 1.27368.57163 1.27368 1.27368S12.0222 16 11.32015 16m0-1.97572c-.38848 0-.70482.31634-.70482.70482s.31634.70482.70482.70482.70482-.31633.70482-.70482-.31633-.70482-.70482-.70482m-3.31876-3.6795c-.70205 0-1.27368-.57163-1.27368-1.27367s.57163-1.27368 1.27368-1.27368 1.27367.57163 1.27367 1.27368-.57163 1.27367-1.27367 1.27367m0-1.9785c-.38849 0-.70482.31634-.70482.70483s.31633.70482.70482.70482.70482-.31634.70482-.70482-.31634-.70482-.70482-.70482m-6.6403 1.97849c-.70205 0-1.27368-.57163-1.27368-1.27367s.57163-1.27368 1.27367-1.27368 1.27368.57163 1.27368 1.27368-.57163 1.27367-1.27368 1.27367m0-1.9785c-.38848 0-.70482.31634-.70482.70483s.31634.70482.70482.70482.70482-.31634.70482-.70482-.31633-.70482-.70482-.70482m3.31877-.03053c-.70205 0-1.27368-.57163-1.27368-1.27367S3.9778 5.7884 4.67985 5.7884s1.27367.57163 1.27367 1.27368-.57163 1.27367-1.27367 1.27367m0-1.9785c-.38849 0-.70482.31634-.70482.70483s.31633.70482.70482.70482.70482-.31634.70482-.70482-.31634-.70482-.70482-.70482m-3.31877 7.63649c-.70204 0-1.27367-.57163-1.27367-1.27368s.57163-1.27367 1.27367-1.27367 1.27368.57163 1.27368 1.27367-.57163 1.27368-1.27368 1.27368m0-1.9785c-.38848 0-.70482.31634-.70482.70482s.31634.70482.70482.70482.70482-.31633.70482-.70482-.31633-.70482-.70482-.70482m6.6403 1.9785c-.70204 0-1.27367-.57163-1.27367-1.27368s.57163-1.27367 1.27368-1.27367 1.27367.57163 1.27367 1.27367-.57163 1.27368-1.27367 1.27368m0-1.9785c-.38849 0-.70482.31634-.70482.70482s.31633.70482.70482.70482.70482-.31633.70482-.70482-.31634-.70482-.70482-.70482M4.67985 16c-.70205 0-1.27368-.57163-1.27368-1.27367s.57163-1.27368 1.27368-1.27368 1.27367.57163 1.27367 1.27368S5.3819 16 4.67985 16m0-1.97572c-.38849 0-.70482.31634-.70482.70482s.31633.70482.70482.70482.70482-.31633.70482-.70482-.31634-.70482-.70482-.70482"/></svg>