<svg class="nok-icon %s" height="16" width="16" fill="currentColor" xmlns="http://www.w3.org/2000/svg" viewBox="0 0 16 16"><path d="m3.55 6.51.58.23q.17.08.23-.1a4 4 0 0 1 3.18-2.5c.35-.06.35-.05.35-.46 0-.3.1-.4.3-.4q.25 0 .27.24.02.15 0 .31c-.03.22.1.27.28.3q1.57.22 2.56 1.45.32.39.53.85c.07.14.14.2.3.1q.17-.1.36-.16.25-.11.38.12c.08.16.03.34-.13.42l-.5.23q-.14.04-.12.19.25 1.3-.27 2.51l-.01.09.58.25q.27.11.2.37-.1.29-.4.19l-.71-.28a6 6 0 0 1-.94.95q-.82.6-1.82.74c-.1.02-.25 0-.27.15s-.02.27.14.38c.4.27.47.67.34 1.17-.1.37-.47.6-.86.59a.9.9 0 0 1-.82-.76c-.06-.43.03-.84.5-1.07.13-.07.12-.17.11-.29 0-.13-.1-.12-.19-.13a4.2 4.2 0 0 1-2.85-1.66c-.08-.1-.14-.12-.26-.06q-.26.13-.53.24c-.2.08-.4.05-.46-.08-.08-.18 0-.37.21-.46l.22-.12c.4-.19.4-.19.27-.6q-.32-.9-.18-1.82.07-.23-.17-.31-.26-.08-.5-.2-.26-.09-.22-.36.05-.24.32-.24m7.26 3.82q.12-.15.23-.33.8-1.2.49-2.62a3.4 3.4 0 0 0-1.42-2.1 3.3 3.3 0 0 0-2.59-.56q-1.28.25-2.09 1.26a3.3 3.3 0 0 0-.72 2.68q.22 1.38 1.36 2.23c.93.68 1.95.9 3.08.55a3.7 3.7 0 0 0 1.66-1.11M8.2 13.1c-.3-.01-.44.19-.37.52q.04.2.24.23c.2.03.25-.02.32-.15q.2-.34-.18-.6M14.4 2.6c.49.28.51.9.36 1.26-.16.37-.4.58-1.11.5l.27.32q.09.01.12-.05c.27-.33.55-.38.93-.16q.45.25.44.77v.47q.01.26-.25.27-.25-.01-.27-.26v-.38a.4.4 0 0 0-.12-.3c-.11-.11-.22-.19-.34 0q-.12.17-.26.3-.2.2-.4.03c-.12-.08-.17-.21-.27-.3-.07-.07-.13-.18-.26-.13a.3.3 0 0 0-.2.3v.4c-.01.18-.06.33-.27.34q-.3.01-.3-.34-.01-.26.03-.5c.12-.53.38-.76.92-.8l.1-.02c-.45-.45-.56-1.07-.27-1.49.23-.32.68-.41 1.15-.22m-.36 1.21c.22-.14.3-.39.18-.6-.09-.18-.3-.23-.45-.1q-.19.17-.12.42.06.3.4.28M2.3 4.68a.9.9 0 0 1 1.23.86V6q0 .28-.28.27-.24 0-.25-.27c0-.2.05-.42-.07-.61q-.2-.31-.4-.03l-.23.27q-.2.2-.42.02l-.32-.31q-.2-.23-.36.03c-.07.13-.04.27-.05.4 0 .12.02.25-.04.37q-.1.17-.28.14-.21-.03-.23-.2C.58 5.7.54 5.35.75 5.03q.32-.46.99-.39c-.25-.16-.47-.33-.5-.6s-.07-.54.06-.8c.16-.32.5-.5.9-.46.31.03.62.3.7.61.15.56-.01.93-.6 1.27-.17-.01-.31-.04-.47.03q.05.21.22.27c.11.03.14-.11.2-.19zm-.51-.73q.28.32.5.06c.1-.13.1-.4 0-.54q-.16-.22-.37-.1-.26.17-.17.49zM3.1 9.5c.24.58.16.92-.34 1.42.14.05.28.02.41.06.44.16.63.41.63.87v.45q-.01.27-.26.28-.26 0-.26-.3v-.4c-.02-.15-.08-.3-.24-.35s-.22.09-.3.19q-.08.1-.2.2-.21.2-.43-.02l-.23-.24c-.07-.07-.13-.19-.26-.12a.4.4 0 0 0-.2.3v.47c-.02.23-.2.32-.4.23q-.08-.03-.11-.1c-.13-.26-.06-1.1.31-1.33.4-.23.68-.23 1.01.09l.11.08.3-.31c-.27 0-.52.04-.75-.1a1 1 0 0 1-.4-.6c-.1-.5.1-.97.5-1.13.35-.14.88-.05 1.1.36m-.97.81q.18.16.37.06c.16-.1.16-.24.16-.4q0-.29-.27-.32c-.15-.03-.25.08-.32.21-.08.16-.02.3.07.45Zm10.9.7q.23-.09.59-.06c-.32-.24-.5-.47-.52-.83 0-.36.07-.65.35-.88.33-.25.92-.19 1.2.14.34.4.24 1.05-.27 1.54.14.05.29.02.43.07q.61.2.62.85v.47q-.02.27-.28.27-.22-.01-.25-.26v-.4q0-.18-.12-.3-.2-.2-.35.02-.1.16-.26.29-.22.17-.43-.03l-.23-.24c-.07-.07-.13-.18-.26-.12a.3.3 0 0 0-.2.28v.43q.02.29-.25.33-.28.02-.31-.33c0-.28 0-.56.12-.83a.7.7 0 0 1 .42-.4m1.2-.77c.07-.11.05-.23.04-.35-.01-.16-.23-.32-.37-.26a.4.4 0 0 0-.26.37c-.01.15.04.3.19.37q.23.1.41-.13m-.47.86c.22.2.24.2.47-.13h-.56z"/><path d="M8.4 1.9a.92.92 0 0 1 1.23.83v.49q0 .27-.29.27-.25-.01-.24-.28c0-.17.02-.34-.04-.51Q9 2.5 8.8 2.45c-.12-.03-.16.08-.21.16l-.02.02c-.38.38-.4.47-.8.03l-.01-.01c-.1-.06-.15-.26-.32-.2-.17.07-.2.25-.22.41q-.02.2-.01.38 0 .22-.21.24c-.14.01-.28-.02-.3-.17-.02-.36-.08-.73.13-1.06.2-.31.51-.4.85-.4.1-.01.15.05.21.1.09.09.15.19.28.25q.13-.12.23-.28zM7.14 14.5c.4-.2.73-.16.96.24l.1-.06c.17-.3.43-.34.73-.26q.5.15.65.65.08.3.05.62T9.3 16c-.22 0-.24-.15-.25-.32v-.4c0-.16-.12-.26-.26-.3-.13-.05-.17.08-.24.15l-.17.2c-.2.18-.3.18-.5 0l-.46-.36c-.11.04-.22.17-.22.38v.38q0 .28-.27.27-.28 0-.25-.27c.02-.28-.07-.58.08-.86a1 1 0 0 1 .38-.38Z"/><path d="m8.4 1.9-.28-.02c-.5 0-.8-.32-.8-.81q-.02-.23 0-.45c.08-.4.5-.66.94-.61s.74.38.73.8c0 .2.04.42-.07.63s-.3.33-.52.46M8.08.59q-.17.04-.23.22c-.07.18-.01.4.13.5q.23.11.38-.06.18-.2.08-.43C8.4.66 8.3.55 8.1.58Zm-.54 8.54-.09-.09c-.25-.3-.56-.27-.76.08a1 1 0 0 0-.12.47v.54c0 .25-.07.31-.3.32s-.28-.12-.27-.32c.03-.37-.06-.76.08-1.13.17-.45.5-.68.97-.79.37-.08.6.05.79.34q.07.1.17.18.13.14.25-.01l.32-.4q.13-.15.31-.14c.8.07 1.39.47 1.4 1.41v.47q0 .4-.3.38-.3.02-.3-.39v-.56a.7.7 0 0 0-.2-.46q-.38-.41-.75.03-.17.24-.37.45c-.17.17-.37.16-.51-.04zm1.8-2.17q-.14.91-1 1.1a1.17 1.17 0 0 1-1.4-1.1c0-.33-.04-.66.14-.96.3-.48.82-.7 1.35-.56s.9.58.92 1.14zM7.7 6.2c-.2.2-.19.46-.17.71.02.26.3.53.57.56.25.02.55-.18.63-.44.04-.14.01-.28.02-.42q0-.4-.36-.56-.38-.18-.7.15Z"/></svg>