<svg class="nok-icon %s" height="16" width="16" fill="currentColor" xmlns="http://www.w3.org/2000/svg" viewBox="0 0 16 16"><path d="M8 .83q.19 0 .31.06a1 1 0 0 1 .24.18c.11.13.11.14.11.7v.58l.26.44.26.45 2.08.02 2.09.02.1.1q.11.11.13.3c.02.17.01.19-.13.32-.12.13-.16.14-.34.14s-.2.02-.2.03c0 .02.5 1 1.11 2.17l1.12 2.14.2.02.21.03-.01.22a2.8 2.8 0 0 1-2.1 2.52q-.3.08-.7.08c-.4 0-.5-.03-.68-.08A2.8 2.8 0 0 1 9.92 8.7v-.2h.38l1.12-2.14c.62-1.17 1.12-2.15 1.12-2.17s-.44-.04-1.36-.04h-.57l-1.92.02v9.48l1.15.02c1.11.02 1.15.03 1.28.11.4.29.38 1.01-.03 1.29l-.14.1L8 15.14c-3.39 0-3.1.03-3.3-.37-.18-.36-.1-.8.22-1.01l.14-.1h2.28V4.14H5.4c-1.07 0-1.94.02-1.94.03l1.12 2.18L5.7 8.5h.4l-.03.31A2.81 2.81 0 0 1 .5 8.8l-.03-.3h.4l1.1-2.12L3.1 4.2q.03-.06-.2-.06c-.22 0-.22-.02-.32-.11q-.3-.31-.02-.64l.1-.11 2.09-.02 2.1-.02.25-.43.25-.42v-.57c0-.52.01-.58.1-.7A1 1 0 0 1 7.67.9a1 1 0 0 1 .36-.08m5.66 7.67.81-.01c.01-.01-.35-.76-.78-1.66l-.9-1.84-.1-.2-.9 1.85-.89 1.84 1.78.01zm-9.35 0h.72s-.38-.82-.86-1.8c-.48-1-.89-1.81-.91-1.83q-.06.02-.3.5l-.88 1.83-.63 1.3zM8.01.4c-.13 0-.36 0-.57.12-.14.07-.3.22-.4.35-.16.25-.16.44-.16.95v.45l-.2.32-.12.2-1.84.02-2.09.02a.5.5 0 0 0-.34.16l-.1.11c-.34.4-.32.9.05 1.26l.18.14-.87 1.68-.97 1.88H.45a.5.5 0 0 0-.33.14.5.5 0 0 0-.12.35l.03.3A3.2 3.2 0 0 0 1.4 11.2q.84.58 1.88.58c1.04 0 .8-.07 1.18-.22a3.3 3.3 0 0 0 2.05-2.71l.02-.31a.46.46 0 0 0-.45-.5h-.12l-1-1.9-.8-1.54h2.7v8.61H5.04l-.25.08-.15.1c-.5.34-.65 1.02-.37 1.6l.03.06c.05.1.1.24.27.35s.34.15.51.16c.35.04.92.04 2.2.05h3.66q.14 0 .25-.07l.14-.1c.32-.21.52-.6.52-1.02 0-.41-.17-.8-.48-1.01a1 1 0 0 0-.5-.17l-1.04-.03h-.7V4.6h2.67L11 6.15l-.99 1.9h-.1c-.26 0-.46.2-.46.45v.2a3.26 3.26 0 0 0 5.79 1.93q.67-.82.74-1.86c.07-1.04 0-.22 0-.22a.45.45 0 0 0-.4-.48l-.16-.02-1-1.92-.86-1.64q.1-.06.2-.17c.23-.23.29-.38.25-.7a1 1 0 0 0-.25-.56l-.1-.1a.5.5 0 0 0-.32-.14l-2.09-.02-1.82-.02-.13-.22-.2-.34v-.45c0-.6 0-.74-.21-1h-.01c-.1-.1-.25-.24-.4-.3A1 1 0 0 0 8 .37Zm3.64 7.64.58-1.2.5-1 .58 1.2.49 1.01zm-9.45 0 .32-.64.76-1.57.51 1.06.56 1.16H3.27z"/></svg>