<svg class="nok-icon %s" height="16" width="16" fill="currentColor" xmlns="http://www.w3.org/2000/svg" viewBox="0 0 16 16"><path d="m3.46 9.05-.07-.01a.3.3 0 0 1-.23-.37Q3.57 7 4.8 6.55c.16-.06.34.02.4.18s-.02.33-.18.4q-.92.34-1.25 1.68a.3.3 0 0 1-.3.24"/><path d="M5.76 16c-.8 0-1.41-.4-1.68-.7a8.2 8.2 0 0 1-2.51-7.29q.12-.51.3-.93c.03-.17.2-.79.81-1.28a4.2 4.2 0 0 1 3.63-.78c1.14.22 1.6.21 1.61.21h.15s.47 0 1.62-.21a3.8 3.8 0 0 1 2.86.19q1.38.75 1.88 2.79c.04.19.79 4.33-2.5 7.3a2.45 2.45 0 0 1-2.83.44 4 4 0 0 0-1.08-.26h-.04c-.35 0-.9.2-1.09.27q-.61.26-1.13.25M5.29 5.52a3.5 3.5 0 0 0-2.22.76c-.51.41-.6.92-.6.94l-.03.07q-.16.39-.27.85c0 .03-.71 3.98 2.33 6.72l.03.03c.03.03.8.88 2.12.3a4 4 0 0 1 1.33-.32h.04c.54 0 1.29.3 1.32.3 1.34.6 2.12-.28 2.13-.28l.03-.03c3.04-2.74 2.34-6.7 2.33-6.73q-.42-1.75-1.57-2.37a3.2 3.2 0 0 0-2.38-.15l-.05.01c-1.25.24-1.75.23-1.76.23h-.14s-.5.01-1.76-.23c-.02 0-.37-.1-.88-.1m2.87-1.34h-.13A.3.3 0 0 1 7.76 4c-.64-1.54-1.6-1.96-1.6-1.96a.3.3 0 0 1-.17-.4.3.3 0 0 1 .4-.17c.05.02 1.1.47 1.85 2.1.45 0 1.6-.1 2.17-.83A7 7 0 0 0 11.24.7c-.67.15-1.66.42-2.1.73a1.5 1.5 0 0 0-.45.6l-.12.3a.3.3 0 0 1-.39.2.3.3 0 0 1-.2-.4l.14-.36q.26-.54.66-.84C9.57.37 11.52.02 11.6.01q.15-.03.28.09c.13.12.1.18.08.28-.02.07-.43 1.92-1.06 2.73-.8 1-2.29 1.07-2.74 1.07"/></svg>