<svg class="nok-icon %s" height="16" width="16" fill="currentColor" xmlns="http://www.w3.org/2000/svg" viewBox="0 0 16 16"><path d="M10.77794 1.59613c.94188-.39047 1.8301-.34278 2.65276.25633.67064.48882 1.02832 1.16244 1.0611 1.99106.02683.6617-.01788 1.3234.14307 1.97913.11327.46796.27422.92698.47988 1.36215.1699.36662.11327.51267-.26825.64978-.0924.03278-.20268.03576-.27422.1371.15797.15202.3696.19374.5544.28614.30104.15202.51266.36364.60208.70045.14903.55738.25932 1.12072.2772 1.69896.00596.18182-.0447.31296-.25633.30402-.1997-.00894-.28316-.11922-.29508-.31594a7.75 7.75 0 0 0-.2623-1.49032c-.0447-.16095-.12817-.2772-.28316-.34873-.5693-.25633-1.13562-.51565-1.70194-.77794-.13114-.05962-.22652-.04471-.33085.06259-.2146.22653-.44113.44411-.6617.66468-.19374.19076-.36661.19672-.5693.00298-.23248-.22057-.462-.4471-.68256-.67958-.10432-.11029-.19076-.11327-.32489-.05067-.5216.24143-1.05216.47093-1.5827.70044-.23548.10432-.39345.25634-.4471.5246-.05365.27421-.13413.54545-.16096.82265-.01788.16095-.06557.28017-.29508.30104.23547.11028.42027.20864.61401.28912.31595.13413.4769.39046.56334.70343.02682.09836.05365.19672.06855.29508.03577.25633.11327.45604.39047.56334.20268.0775.2444.31296.24739.5216.00596.51566.00298 1.0313 0 1.54993 0 .22653-.11029.3696-.28614.3547-.1997-.01789-.26528-.155-.2623-.34874.00596-.45305-.00298-.9061.00298-1.36214.00298-.20268-.05663-.29508-.28018-.29508q-4.18927.00894-8.37854 0c-.22056 0-.28614.08643-.28017.29508.00894.4471.00596.8912 0 1.3383 0 .2474-.1073.39046-.2921.37258C.0447 14.6304-.00299 14.4754 0 14.27869c.00596-.5246.00298-1.04918 0-1.57377 0-.26528.08942-.4769.35768-.56632.13114-.04471.17883-.13711.20268-.25932.0298-.1371.06557-.27123.0924-.41132.08047-.45902.36065-.7392.78688-.90611.63786-.25336 1.26975-.52161 1.90164-.78689.307-.12816.35768-.307.15797-.56334-.2772-.35469-.46795-.75707-.62295-1.17436-.08047-.2146-.16691-.40537-.3219-.58122-.2146-.24442-.2146-.5544-.0626-.83458.1222-.22653.08942-.4471.07452-.67958-.03279-.58122-.00894-1.1535.3219-1.6632.1073-.1669.26528-.29507.45008-.36065.17288-.06557.307-.1699.43517-.29508.42027-.4143.95678-.47392 1.48733-.37258 1.17437.22951 1.9076.96274 2.20865 2.11923.08346.31892.07451.6468.01788.9687-.02086.12519 0 .22355.04471.33383.1073.2623.12519.54546-.06855.75112-.26528.28316-.31893.64978-.4769.97466-.1401.28912-.2772.57824-.49479.8167-.16095.17585-.14903.40238.06856.50074.4292.1997.87034.36662 1.33532.56036-.03279-.46796.08942-.87929.18778-1.2936.07153-.30104.22354-.54247.52459-.67362.22056-.09538.43219-.2146.6766-.3368-.16692-.07452-.30999-.13711-.45604-.20269-.2146-.09538-.28614-.26527-.17883-.47392.32787-.62891.53353-1.30253.62593-1.99702.04769-.3547.05067-.7213.04173-1.0909-.02385-.98957.28316-1.85694 1.17138-2.42624.0924-.0596.18182-.1222.28912-.19076M9.9404 4.94635c.00596-.13115.0149-.26528.0149-.39642 0-.39345.0298-.4322.41133-.52161.42623-.10135.84053-.23547 1.22503-.4471.2623-.14605.5097-.30104.5842-.62891.0328-.1371.16394-.14307.28913-.14307.11326 0 .21758.04173.23249.155.0596.40834.31892.68852.65871.82265.49777.1997.58123.54545.53354 1.00447-.02385.22354 0 .45305-.00596.67958-.00597.20268-.0328.40238-.08644.5991a1.818 1.818 0 0 1-.5693.92102c-.07154.0626-.15201.11922-.11029.25633.04173.13413.12817.16096.23845.18182a2.069 2.069 0 0 0 .76603 0c.13114-.02384.28614-.00298.39046-.14009-.02087-.05663-.04173-.11624-.0626-.17288-.3368-.82265-.53353-1.67213-.5067-2.5693.00894-.30402.0149-.60506-.03875-.90909-.16393-.8912-.8167-1.57079-1.77645-1.71684-.71237-.1073-1.41878.22057-1.9076.95082-.43518.64978-.33085 1.38897-.31595 2.13711-.08942.23547-.06557.48882-.11624.73026-.11327.54247-.28316 1.06408-.49777 1.58867.42623.14903.83458.1699 1.25783.08346.11624-.02385.14307-.10134.16691-.19374s-.02086-.1401-.08644-.19374c-.32787-.27422-.52757-.62296-.62593-1.03726C9.9225 5.65574 10 5.31595 9.94337 4.94933M4.60507 3.8137c-.22951.06557-.42921.18182-.56632.38748-.05663.08346-.11625.1699-.22951.18182-.39046.04471-.56036.31297-.62593.65574-.08346.4471-.07452.89717-.0149 1.35022.02384.18182.0596.37258-.14606.50373-.10134.06557-.07451.19076.00895.23845.21162.11922.25633.32489.31594.52459.0924.30998.23845.59612.39643.87034.16393.28018.33085.56632.70939.614.24143.02982.47988.06856.7213.04472.38153-.03875.7541-.09538.97467-.48882.13711-.24442.27422-.48883.38748-.74516.13115-.2921.15798-.63785.45008-.85544.11326-.08644.02384-.1848-.05962-.25037-.12816-.10432-.152-.23547-.0924-.37854.23846-.59017.09539-1.12966-.21162-1.64829-.41133-.6915-1.25484-1.1237-2.02384-1.00447m4.11326 7.57377c-.03577-.11624-.1371-.17586-.23249-.21758q-1.00596-.43369-2.02086-.84948c-.11327-.0477-.22653-.07452-.36066-.02683-.72727.25335-1.46349.2772-2.19374.00596-.12817-.04769-.24441-.03278-.36066.0149-.59612.2474-1.18927.50671-1.79135.74218-.33681.13413-.52161.36662-.59017.71833-.06259.32787-.07451.32787.25932.32787 2.28316 0 4.56334.00298 6.8465 0 .71237 0 .70342.15797.44709-.71535m2.55738-4.6319c.98062.55739 2.0775-.31594 2.01788-1.24887-.01788-.28912-.01192-.57825 0-.86737.00596-.14605-.04769-.23845-.16691-.30402-.22355-.12817-.4322-.27422-.61103-.46498-.06558-.07153-.14605-.12816-.24441-.04769-.47392.37556-1.03726.55738-1.60656.7243-.11625.03278-.16394.09836-.15797.22056.00596.24143 0 .48584 0 .72727.01192.55142.26825.96275.76602 1.2608m.40536 1.23995.27124.19374c.21758-.16393.39344-.36364.57526-.5544.0447-.0447.08048-.10134.04769-.1699-.03875-.08047-.1073-.03874-.16393-.0298-.3398.05961-.67959.08346-1.0164-.00894-.05365-.0149-.10432-.03577-.14009.03279-.03577.06557.00894.10134.0477.14009.11922.1222.23844.24739.38151.39344M5.37407 9.74218c-.39642.00596-.79583.01788-1.22802-.0775.25633.3398 1.40686.3398 1.68107.03577-.14605-.02385-.2772.01192-.45305.04173"/></svg>