<svg class="nok-icon %s" height="16" width="16" fill="currentColor" xmlns="http://www.w3.org/2000/svg" viewBox="0 0 16 16"><path d="M6.16448 5.88252c-.32343-.33173-.6054-.51417-.66344-.5501-.30132-.1327-.61922-.10782-.80995-.09123q-.07879.0083-.1244.0083c-.7215.02487-1.44022-.25433-1.95162-.76573a2.6178 2.6178 0 0 1-.57775-2.8445c.03317-.08017.10228-.13822.18797-.1548s.1714.00828.2322.0691L3.70146 2.7975c.25432.25156.6828.25156.93711-.00553.1244-.1244.1935-.29302.19627-.46993 0-.17692-.06634-.34278-.19074-.46718L3.39737.61368c-.06081-.06081-.08846-.14927-.0691-.2322s.07463-.1548.1548-.18798A2.6234 2.6234 0 0 1 6.3248.77125a2.6482 2.6482 0 0 1 .76849 1.95992c0 .02488-.00277.06634-.0083.1161-.02211.25708-.06358.73808.2875 1.10574l1.15825 1.15825-.36213.36213-1.16378-1.16378c-.51417-.54181-.45612-1.21908-.43124-1.50657.00276-.03594.00553-.06358.00553-.0857.02211-.59433-.20456-1.16931-.61645-1.5812a2.112 2.112 0 0 0-1.89634-.5805l.93988.93987c.22115.22115.34278.51693.34001.83206 0 .31514-.1244.61092-.34554.8293a1.1776 1.1776 0 0 1-1.66413.00553l-.93988-.93987c-.13269.68003.0774 1.39323.58051 1.89634a2.1285 2.1285 0 0 0 1.57568.61644c.02764 0 .05805-.00276.09399-.00552.22944-.01935.65238-.0553 1.08085.14098.0387.02211.39254.2322.80443.65238zm6.87215 6.42985c-.03594 0-.07188 0-.10781-.00553-.2709-.0304-.54181-.18244-.80995-.45059L8.5888 8.3649 8.95093 8l3.53007 3.49136c.1852.18521.35383.2875.50587.30408.1465.01658.29302-.04976.44782-.2018.15204-.15204.21839-.29855.2018-.44782-.01659-.15204-.11887-.32066-.30408-.50588l-.56116-.56116.36213-.36212.56116.56116c.26814.26814.42018.5418.45059.80995.03593.3096-.08293.60262-.35107.868-.23497.23497-.49206.3566-.76296.3566Z"/><path d="M12.36766 10.3414h-.0083c-.25708 0-.49758-.10228-.67726-.28473l-.1161-.1161c-.37595-.37595-.37872-.9841-.0083-1.3573l.82101-.821c.17692-.17692.41466-.27644.66897-.27644h.0083c.25708 0 .49758.10228.67726.28473l.1161.11334c.37595.37871.37872.98687.0083 1.35729l-.82101.821c-.17692.17969-.41742.27644-.67174.27644Zm.37595-2.21424-.82101.821c-.1714.1714-.16863.45612.0083.63028l.1161.1161c.08569.0857.19903.13269.3179.13269s.22943-.04423.31236-.1244l.82101-.821c.1714-.1714.16863-.45336-.0083-.63028l-.1161-.11333c-.08569-.0857-.19903-.13546-.32066-.13546-.11886 0-.22944.04423-.31237.1244Z"/><path d="M11.25086 9.2246h-.00829c-.25708 0-.49758-.10228-.67726-.28472l-.1161-.1161a.973.973 0 0 1-.28473-.67727c0-.25708.09675-.50035.27643-.68003l1.12785-1.12785c.37042-.37042.98134-.36766 1.3573.0083l.1161.1161c.37595.37871.37871.98687.00829 1.35729L11.9226 8.9454c-.17692.17969-.41742.27644-.67174.27644Zm.98687-2.64547c-.11333 0-.2239.04146-.30684.12716l-1.12785 1.12509c-.08293.08293-.12716.1935-.1244.31237 0 .12163.047.23496.1327.3179l.1161.1161c.0857.0857.19903.13269.3179.13269.12163 0 .22944-.04423.31237-.12716l1.12785-1.1251c.17139-.17138.16862-.45334-.0083-.63026l-.1161-.1161c-.08846-.08846-.20732-.13546-.32343-.13546Zm-2.6206.20456-.36212-.36213 1.03386-1.0311c.1714-.17139.16863-.45335-.00829-.63027l-.1161-.1161a.4478.4478 0 0 0-.3179-.13269c-.11334.00553-.22944.04423-.31237.1244L8.46994 5.70007l-.36213-.36213 1.0615-1.06427c.3732-.37042.98135-.36766 1.3573.0083l.1161.1161c.37595.37595.37871.9841.0083 1.35729l-1.03387 1.0311Z"/><path d="m10.80304 7.83138-.36213-.36213 1.40705-1.40705c.17139-.1714.16863-.45335-.0083-.63027l-.11333-.11334c-.17139-.17139-.4644-.17415-.63027-.0083L9.68625 6.71736l-.36213-.36213 1.40981-1.40705c.35937-.35937.9924-.3566 1.3573.0083l.11333.11333c.37595.37871.38148.98687.0083 1.36005L10.8058 7.8369ZM8.25708 9.9765c-.0387 0-.07463-.00829-.11333-.02488a.2571.2571 0 0 1-.11887-.34277c.02488-.05253.56945-1.2246-.3483-2.14513a.2571.2571 0 0 1 0-.36213.2571.2571 0 0 1 .36212 0c.94817.94817.70767 2.20318.44782 2.73393-.04423.09122-.13545.14375-.2322.14375Zm-.99516 4.06358a.257.257 0 0 1-.18245-.07463.2571.2571 0 0 1 0-.36213l.74085-.74085c.06634-.06634.1631-.09122.25432-.06634.01658.00553.48376.12716 1.08915-.14375.51693-.2322 1.29924-.83206 2.31928-1.78576a.2571.2571 0 0 1 .36213.01106c.09675.10228.09122.26537-.01106.36213-1.07533 1.00622-1.87975 1.6199-2.4575 1.87975-.56392.25155-1.04768.23497-1.28542.2018l-.64409.64409a.257.257 0 0 1-.18244.07463Z"/><path d="M4.89012 10.22253c-.05252 0-.10781-.01659-.15204-.04976-.11334-.08293-.13822-.24603-.05529-.35936 0 0 .15757-.22391.18521-.57222.04147-.3566.2488-2.10643.46994-2.54872.05529-.12993.53075-1.18038 1.73877-1.86593.0304-.01659.06634-.02765.10228-.03317.02488 0 .5971-.05253 1.05321.40359l2.32758 2.32757a.25985.25985 0 0 1 0 .3649c-.42571.42294-1.43746 1.01727-2.23082.2239L7.2481 7.03249a.2571.2571 0 0 1 0-.36213.2571.2571 0 0 1 .36213 0l1.08086 1.08086c.45058.45059 1.01174.15757 1.30476-.05805L7.86731 5.56462c-.22115-.22115-.48652-.25156-.59157-.25432-1.05874.6275-1.46233 1.58396-1.4651 1.59226-.14927.28196-.34001 1.61437-.42847 2.39115-.0387.48376-.25708.79337-.28196.8293-.04976.06911-.12716.10505-.20733.10505ZM6.46026 16a.257.257 0 0 1-.18244-.07464.2571.2571 0 0 1 0-.36213l1.16655-1.16655L3.566 10.51831l-1.16655 1.16656a.2571.2571 0 0 1-.36213 0 .2571.2571 0 0 1 0-.36213l1.349-1.34624a.2571.2571 0 0 1 .36213 0l4.24326 4.24327c.09951.09951.09951.2626 0 .36212l-1.349 1.34624a.257.257 0 0 1-.18245.07463Z"/></svg>