<svg class="nok-icon %s" height="16" width="16" fill="currentColor" xmlns="http://www.w3.org/2000/svg" viewBox="0 0 16 16"><path d="M5.8 3.5A1.75 1.75 0 1 1 5.82 0a1.75 1.75 0 0 1 0 3.5m0-2.82a1.08 1.08 0 1 0 0 2.15 1.08 1.08 0 0 0 0-2.15M1.67 12.59l-.03.03zm-.03.37a.3.3 0 0 1-.3-.18.3.3 0 0 1-.02-.26.3.3 0 0 1 .16-.2l.04-.03a.34.34 0 0 1 .37.57l-.08.05a.3.3 0 0 1-.17.04Zm.78.94-.03.02zm-.03.36a.34.34 0 0 1-.15-.65c.16-.07.37-.02.46.14s.04.35-.11.45l-.03.01a.3.3 0 0 1-.17.05m-.61-7-.01.03zm-.01.37a.4.4 0 0 1-.33-.24.4.4 0 0 1 .02-.26l.01-.03a.34.34 0 0 1 .46-.15c.15.08.22.26.16.42a.34.34 0 0 1-.32.25ZM3 7.78l-.02.05h-.01z"/><path d="M2.97 8.17a.3.3 0 0 1-.16-.04q-.12-.07-.17-.22c-.05-.15 0-.19.04-.27a.34.34 0 0 1 .45-.16c.17.08.25.27.17.44l-.02.05a.3.3 0 0 1-.2.18q-.05.02-.11.02m6.12-2.4h-.06zm-.03.33a.34.34 0 0 1-.33-.22.33.33 0 0 1 .18-.42l.05-.02c.16-.06.34 0 .43.16q.06.14.01.29a.3.3 0 0 1-.21.2h-.03zm.5.9h-.04zm-.04.35a.3.3 0 0 1-.31-.2.34.34 0 0 1 .13-.43l.06-.03a.35.35 0 0 1 .46.15.34.34 0 0 1-.19.47l-.04.02zM6.7 14.4v-.07zm0 .34a.34.34 0 0 1-.34-.34v-.07c0-.19.15-.34.34-.34s.34.15.34.34v.04q.02.15-.09.26c-.1.11-.15.11-.24.11m0-.34"/><path d="M7.45 15.4q-.29 0-.55-.15-.45-.27-.53-.8v-.22l.03-2.81a1 1 0 0 0-.06-.29l-.01.16a1.5 1.5 0 0 1-.8 1.2l-.05.04-2.76 1.6-.04.01-.08.05-.03.02-.04.02a1.1 1.1 0 0 1-1.52-1 1.1 1.1 0 0 1 .57-.97l2.62-1.51L4 9.73l-.04-.34-.03-2.6-.6 1.07-.04.1-.04.06a1 1 0 0 1-1.53.2 1 1 0 0 1-.28-1.01q0-.05.04-.1c.04-.06 0-.04.02-.06l.68-1.51q.2-.43.62-.64l1.33-.66q.76-.38 1.53-.26.97.15 1.54.95.48.7.62.96l1.06-.4.09-.04H9a1 1 0 0 1 1.22 1.12v.01a1 1 0 0 1-.5.72l-.04.02-.08.03-1.74.67a1 1 0 0 1-.36.02l.17 1.2.76 1.47q.15.24.15.53l-.04 3.2-.02.13q-.04.15-.13.32a1.1 1.1 0 0 1-.94.53Zm-1.41-5.39q.12 0 .23.1l.4.37c.27.24.42.59.41.94l-.04 2.84v.11a.42.42 0 0 0 .52.35.4.4 0 0 0 .3-.34l.02-.03.04-3.13a.3.3 0 0 0-.05-.16l-.02-.03-.8-1.55-.03-.1-.34-2.3a.34.34 0 0 1 .61-.25l.39.53 1.68-.64.16.3-.12-.33a.3.3 0 0 0 .17-.23.33.33 0 0 0-.4-.37l-.04.01-1.32.5a.3.3 0 0 1-.34-.05q-.1-.08-.2-.27c-.1-.16-.27-.45-.63-.97q-.39-.56-1.08-.67a2 2 0 0 0-1.13.2L3.1 5.5a.6.6 0 0 0-.3.31l-.7 1.56-.01.02q-.06.2.1.34c.1.1.28.1.4 0l.08-.07.03-.04.03-.08.77-1.38q.06-.11.18-.16l.46-.16q.17-.04.3.05c.13.09.15.16.15.27l.04 3.23.02.21.25 1.26a.34.34 0 0 1-.16.35L1.9 12.85q-.03 0-.05.03l-.03.02a.4.4 0 0 0-.16.32.42.42 0 0 0 .58.39l.08-.05.02-.01 2.87-1.65c.24-.12.4-.37.42-.65l.05-.91a.34.34 0 0 1 .33-.32Zm3.86-3.5"/><path d="M15.47 16H.53c-.19 0-.34-.15-.34-.34s.15-.34.34-.34h14.52c-.3-1.34-1.24-5.54-1.48-6.5-.28-1.1-.55-1.29-1.13-1.47-.39-.13-1.2.1-1.62.28a.34.34 0 0 1-.44-.18.34.34 0 0 1 .18-.44c.13-.06 1.33-.55 2.08-.3.9.27 1.27.73 1.58 1.94.3 1.15 1.53 6.7 1.58 6.94q.03.15-.07.28a.3.3 0 0 1-.26.13"/><path d="M11.7 16h-.03a.34.34 0 0 1-.3-.36l.5-6.56c.04-.54.3-1.03.72-1.34q.4-.3.92-.33c.19 0 .35.14.35.33s-.13.34-.32.35q-.3 0-.55.2c-.25.18-.42.5-.45.85l-.5 6.55a.34.34 0 0 1-.34.31"/></svg>