<svg class="nok-icon %s" height="16" width="16" fill="currentColor" xmlns="http://www.w3.org/2000/svg" viewBox="0 0 16 16"><path d="M5.44456 16H2.60744c-.81185 0-1.42145-.4796-1.61791-1.26255-.0289-.11268-.026-.22535-.026-.33514V5.7147c0-.6674.39292-1.23944 1.01119-1.48213.21957-.08667.3438-.41892.2369-.62405-.04333-.0809-.11845-.07511-.18778-.078-.23402 0-.46804 0-.70495-.0029-.2398-.00288-.35248-.10978-.35248-.32935 0-.24269.0809-.34381.33803-.32936.24269.01444.30047-.0809.29758-.30914-.01155-.72806-.00578-1.45612-.00289-2.18418C1.59624.08379 1.68003 0 1.96894 0h8.19935c.3207 0 .39003.07223.39003.40737 0 .72806.00578 1.45612-.00288 2.18418-.0029.2398.09245.37559.3178.44204.06067.01733.11845.04911.17046.08667.078.05778.16468.11845.13.23402s-.1329.16468-.24268.16757c-.24268.00867-.48537.01444-.72806 0-.2109-.01156-.28313.06067-.28313.27447 0 .23113.03467.3698.2918.45937.60383.2109.98808.7945.9823 1.459-.01733 1.92417 0 3.84833-.01155 5.77249 0 .22824.05489.31203.29758.30336.49982-.01734 1.00252.01444 1.50234-.00867 1.03431-.04623 2.08018.94186 2.05129 2.03684-.02312.83496-.32648 1.46479-1.03431 1.89527-.32936.19935-.69917.28024-1.08632.28024H5.44168m.07511-3.3774c.39581 0 .79451-.01733 1.18744.00579.28602.01733.48537-.078.67894-.28314.3467-.3698.79451-.54026 1.3001-.54604.52583-.00578 1.05165-.00867 1.57747 0 .19935.00289.2687-.06067.2658-.26291q-.00866-1.88083 0-3.76165c0-.19646-.05489-.26869-.2629-.26869q-4.18636.00867-8.3727 0c-.21958 0-.27158.07512-.27158.28025a396 396 0 0 1 0 4.53882c0 .2369.07223.30336.30336.30047 1.18165-.00867 2.36041-.00578 3.59118-.00578m-3.34272-5.7696H9.1831c.3727 0 .7454-.00577 1.1152 0 .16757.0029.23402-.05777.22824-.22823-.00866-.23402-.01733-.47093 0-.70206.052-.67028-.3438-1.04876-.96208-1.12387-.20224-.026-.30047-.1358-.30047-.33514 0-.19357-.01444-.39003.0029-.58072.02022-.23402-.06068-.30336-.29759-.30336-1.54568.00867-3.08848.00578-4.63416.00578-.40448 0-.80896.00867-1.21344 0-.18201-.00289-.24557.06356-.23401.24269.01155.19357.00288.38714 0 .58071 0 .28025-.06645.35248-.34092.39582-.59516.09245-.91875.47381-.92163 1.08342v.46226c.00577.5865-.07512.49982.54315.50849M9.35067 2.814c.0809 0 .16179-.00867.24269 0 .22824.0289.31202-.05778.30624-.29469-.01444-.54027-.00866-1.08342 0-1.62658 0-.1589-.03756-.23402-.21668-.23402-2.39509.0029-4.78729.00578-7.17949 0-.19935 0-.24558.08379-.24269.26291.00867.49982 0 1.00253.00578 1.50524 0 .1329-.03178.27447.02312.38714h7.06392M3.28638 13.28133c-.45359 0-.9043.01156-1.35789-.00289-.22535-.00867-.32647.052-.30624.2947.02022.21668.00289.43625.00289.65293 0 .70206.41025 1.10654 1.1152 1.10943h4.16901c.08668 0 .17624.02311.28314-.04334-.44204-.59516-.59805-1.26255-.4276-2.00794H3.2835m7.18527-.8003c-.56338-.06066-1.12676-.026-1.69014-.026-.7165 0-1.37234.61828-1.39545 1.37234-.02022.6645.40448 1.30011 1.1672 1.45035.59806.11845 1.20478.02889 1.8086.04911.16757.00578.16468-.11556.16468-.23402 0-.51715.00578-1.0343 0-1.54857-.00577-.3467.03179-.6934-.05489-1.06609m3.83965 1.80282c.22825-.75118-.24268-1.61214-1.00541-1.77104-.65295-.13579-1.32033-.03756-1.98195-.04911-.13578 0-.13578.11267-.13578.2138v2.44997c0 .15602.05489.2138.2109.2138.43626-.00578.87252-.0029 1.30878 0 .74828.00289 1.31166-.28603 1.60058-1.05164Z"/><path d="M6.11484 8.44782c.24847.03755.32359.18779.3207.3987s.00866.4218-.0029.62983c-.01155.1849.06646.2398.2427.23113.21668-.01156.43625-.00578.65583 0 .24846.00866.36692.12423.36692.35247 0 .22535-.11846.3467-.36692.35536a13.3 13.3 0 0 1-.67895 0c-.15312-.00289-.22246.0549-.21668.2138.00866.22535.00577.4536 0 .67894-.00578.24558-.12424.36403-.35248.36692-.23113.0029-.34958-.10978-.35536-.35825-.00578-.2109-.01445-.42181 0-.62983.01733-.21957-.078-.28602-.28314-.27158-.20223.01156-.40447.00578-.60671 0-.2687-.00578-.37848-.11845-.37559-.36692 0-.23402.11268-.34091.3698-.3467a13.3 13.3 0 0 1 .67895 0c.15602.00579.21958-.05778.2138-.21379-.00578-.21668-.00289-.43626 0-.65583.00578-.28891.0809-.36692.39292-.39003Zm7.50885 5.7378c-.2658.03468-.49693.04045-.54604-.2918-.01445-.09534-.12424-.11267-.20513-.14734-.23113-.09823-.3178-.26002-.25425-.4796.06068-.20512.23113-.21957.41026-.2138.3178.00868.54027.19069.66739.45071.10112.2109.15023.46515-.07223.68184"/></svg>