<svg class="nok-icon %s" height="16" width="16" fill="currentColor" xmlns="http://www.w3.org/2000/svg" viewBox="0 0 16 16"><path d="M8.22 13.67c9.04 1.65 8.5-14.26.14-11.43-.26.09-1.07.6-1.31.67-1.03.2-1.03-1.53-1-2.15.02-.33.04-.97.52-.7.18.16.04.7.04.91-.01.23.02 1.35.27 1.4 9.57-5.63 12.64 13.28.96 11.8.06.27.1.36.11.7.04.52.05 1.12-.33 1.12-.37-.06-.2-.58-.2-.85a6 6 0 0 0-.27-1.42c.09-.47.47-.25.75-.13z"/><path d="M7.59 7.73c.07 0 .29-.12.35-.16 1.22 1.43.77 3.87-1.42 2.41-2.2-1.16-4.15 1.31-2.84 3.28.44.74 1.15 1.03 1.03 2.02-.02.2-.23.5 0 .66.26.17.4-.03.48-.25.65-1.93-1.78-2.4-1.31-4.22.34-1.31 1.41-1.43 2.52-.93.52.24.73.53 1.38.46.94-.1 1.49-.92 1.41-1.82 0-.48-.45-1.2-.61-1.61.02-.12-.3-.32-.23-.61l.32-.13c1.15 1.68 3.61.19 3.57-1.5-.2-.43-.81.06-1.15.1-.93.27-1.83.65-2.76.92-.09.02-.04-.12-.06-.2-.1-.52-.75.01-.97-.07-1.48-1.23-3.1-2.68-3-4.78 0-.28.13-.8.1-1.04-.05-.33-.46-.36-.55-.04-.05.18-.09.6-.1.78-.12 2.66 1.26 3.73 2.95 5.34-.27.1-5.18 1.72-5.33 1.79-1.12.1-1.01 1.82.21 1.63zM1.5 9.21c-.33.1-.52-.33-.19-.48l6.41-2.17.02.52zm7.76-2.55 2.29-.79c-.4.88-1.45 1.6-2.3.79m4.98 2.48c-.23.25-.62-.03-.43-.41.2-.4.76.05.43.41m-1.3-4.75c.4-.1.55.49.22.6-.37.11-.61-.52-.23-.6m.91 2c.44-.13.57.49.23.6-.4.13-.52-.5-.23-.6m-1.53 4.96c.3-.02.4.4.1.56-.49.25-.62-.54-.1-.56m.15-7.62c.31.36-.27.7-.5.34-.2-.34.24-.62.5-.34m-1.31-.62c.53-.1.55.78-.05.54-.27-.1-.2-.5.05-.54m2.47 6.56c.6-.14.4.81-.07.57-.23-.12-.14-.52.07-.57m-.74 1.47c-.25-.23.12-.74.43-.48.33.28-.19.71-.43.48m-1.52.8c.43-.02.32.62-.07.6-.41-.03-.33-.6.07-.6m-1.09.42c.33-.04.48.36.2.52a.3.3 0 0 1-.2-.52m3.24-7.02c.41-.1.56.5.23.6-.38.11-.56-.53-.23-.6M10 2.9c.61-.15.6.65.05.53-.28-.07-.29-.47-.04-.53m4 4.58c.45-.1.45.53.2.6-.46.15-.5-.53-.2-.6"/></svg>