<svg class="nok-icon" height="16" width="16" fill="currentColor" xmlns="http://www.w3.org/2000/svg" viewBox="0 0 16 16"><path d="M13.75925 15.71173H2.24075C1.00662 15.71173 0 14.70822 0 13.47098v-7.679c0-.17764.14336-.321.321-.321h15.358c.17764 0 .321.14336.321.321v7.679c0 1.23412-1.0035 2.24075-2.24075 2.24075M.63888 6.11297v7.358c0 .88197.71679 1.59876 1.59875 1.59876h11.5185c.88197 0 1.59876-.71679 1.59876-1.59875v-7.358z"/><path d="M15.679 6.11297H.321c-.17764 0-.321-.14336-.321-.321V3.87223C0 2.6381 1.00662 1.63148 2.24075 1.63148h.38332c.17764 0 .321.14335.321.321v.57654c0 .2462.20257.44878.44877.44878s.44878-.19946.44878-.44878v-.57655c0-.17764.14336-.321.321-.321h7.679c.17764 0 .321.14336.321.321v.57655a.44877.44877 0 0 0 .89754 0v-.57655c0-.17764.14336-.321.321-.321h.38333c1.23412 0 2.24074 1.00663 2.24074 2.24075v1.91976c0 .17763-.14336.321-.321.321Zm-15.04012-.642H15.358V3.87223c0-.88196-.7168-1.59875-1.59876-1.59875h-.06544v.25555c0 .60148-.4893 1.08765-1.08765 1.08765S11.5185 3.1274 11.5185 2.52902v-.25555H4.47838v.25555c0 .60148-.48929 1.08765-1.08765 1.08765S2.30308 3.1274 2.30308 2.52902v-.25555h-.06545c-.88196 0-1.59875.7168-1.59875 1.59875z"/><path d="M15.679 6.11297H.321c-.17764 0-.321-.14336-.321-.321V3.87223C0 2.6381 1.00662 1.63148 2.24075 1.63148h.38332c.17764 0 .321.14335.321.321v.57654c0 .2462.20257.44878.44877.44878s.44878-.19946.44878-.44878v-.57655c0-.17764.14336-.321.321-.321h7.679c.17764 0 .321.14336.321.321v.57655a.44877.44877 0 0 0 .89754 0v-.57655c0-.17764.14336-.321.321-.321h.38333c1.23412 0 2.24074 1.00663 2.24074 2.24075v1.91976c0 .17763-.14336.321-.321.321Zm-15.04012-.642H15.358V3.87223c0-.88196-.7168-1.59875-1.59876-1.59875h-.06544v.25555c0 .60148-.4893 1.08765-1.08765 1.08765S11.5185 3.1274 11.5185 2.52902v-.25555H4.47838v.25555c0 .60148-.48929 1.08765-1.08765 1.08765S2.30308 3.1274 2.30308 2.52902v-.25555h-.06545c-.88196 0-1.59875.7168-1.59875 1.59875z"/><path d="M15.679 6.11297H.321c-.17764 0-.321-.14336-.321-.321V3.87223C0 2.6381 1.00662 1.63148 2.24075 1.63148h.38332c.17764 0 .321.14335.321.321v.57654c0 .2462.20257.44878.44877.44878s.44878-.19946.44878-.44878v-.57655c0-.17764.14336-.321.321-.321h7.679c.17764 0 .321.14336.321.321v.57655a.44877.44877 0 0 0 .89754 0v-.57655c0-.17764.14336-.321.321-.321h.38333c1.23412 0 2.24074 1.00663 2.24074 2.24075v1.91976c0 .17763-.14336.321-.321.321Zm-15.04012-.642H15.358V3.87223c0-.88196-.7168-1.59875-1.59876-1.59875h-.06544v.25555c0 .60148-.4893 1.08765-1.08765 1.08765S11.5185 3.1274 11.5185 2.52902v-.25555H4.47838v.25555c0 .60148-.48929 1.08765-1.08765 1.08765S2.30308 3.1274 2.30308 2.52902v-.25555h-.06545c-.88196 0-1.59875.7168-1.59875 1.59875z"/><path d="M15.679 6.11297H.321c-.17764 0-.321-.14336-.321-.321V3.87223C0 2.6381 1.00662 1.63148 2.24075 1.63148h11.5185C14.99338 1.63148 16 2.6381 16 3.87222v1.91976c0 .17763-.14336.321-.321.321m-15.04012-.642H15.358V3.87222c0-.88196-.7168-1.59875-1.59876-1.59875H2.24075c-.88197 0-1.59876.7168-1.59876 1.59875v1.59876Z"/><path d="M3.39073 3.61667a1.09077 1.09077 0 0 1-1.08765-1.08765v-1.1531c0-.60148.48928-1.08765 1.08765-1.08765s1.08765.4893 1.08765 1.08766v1.1531c0 .60147-.48929 1.08764-1.08765 1.08764m0-2.68952c-.2462 0-.44877.19946-.44877.44878v1.1531c0 .2462.20257.44877.44877.44877s.44877-.19946.44877-.44878v-1.1531c0-.2462-.19945-.44877-.44877-.44877m9.21543 2.68952c-.60149 0-1.08766-.48928-1.08766-1.08765v-1.1531c0-.60148.4893-1.08765 1.08766-1.08765s1.08765.4893 1.08765 1.08766v1.1531c0 .60147-.4893 1.08764-1.08765 1.08764m0-2.68952c-.2462 0-.44878.19946-.44878.44878v1.1531a.44877.44877 0 0 0 .89755 0v-1.1531c0-.2462-.20257-.44878-.44877-.44878M4.69342 10.127h-.88508c-.58278 0-1.05337-.4737-1.05337-1.05337v-.71056c0-.58278.4737-1.05337 1.05337-1.05337h.88508c.58278 0 1.05337.4737 1.05337 1.05337v.71056c0 .58278-.4737 1.05337-1.05337 1.05337m-.88508-2.18154c-.2275 0-.4145.18699-.4145.4145v.71055c0 .2275.187.4145.4145.4145h.88508c.2275 0 .41449-.187.41449-.4145v-.71056c0-.2275-.187-.41449-.4145-.41449zm4.6342 2.18154h-.88508c-.58278 0-1.05337-.4737-1.05337-1.05337v-.71056c0-.58278.4737-1.05337 1.05337-1.05337h.88508a1.0565 1.0565 0 0 1 1.05649 1.05337v.71056c0 .58278-.4737 1.05337-1.05649 1.05337m-.88508-2.18154c-.2275 0-.4145.18699-.4145.4145v.71055c0 .2275.187.4145.4145.4145h.88508c.2275 0 .4145-.187.4145-.4145v-.71056c0-.2275-.187-.41449-.4145-.41449zm4.6342 2.18154h-.88508c-.58278 0-1.05337-.4737-1.05337-1.05337v-.71056c0-.58278.4737-1.05337 1.05337-1.05337h.88508c.58278 0 1.05337.4737 1.05337 1.05337v.71056c0 .58278-.4737 1.05337-1.05337 1.05337m-.88508-2.18154c-.2275 0-.41449.18699-.41449.4145v.71055c0 .2275.187.4145.4145.4145h.88507c.2275 0 .4145-.187.4145-.4145v-.71056c0-.2275-.187-.41449-.4145-.41449zm-6.61316 5.93066h-.88508c-.58278 0-1.05337-.4737-1.05337-1.05337v-.71056c0-.58278.4737-1.05337 1.05337-1.05337h.88508c.58278 0 1.05337.4737 1.05337 1.05337v.71056c0 .58278-.4737 1.05337-1.05337 1.05337m-.88508-2.18153c-.2275 0-.4145.18698-.4145.41449v.71055c0 .2275.187.4145.4145.4145h.88508c.2275 0 .41449-.187.41449-.4145v-.71055c0-.2275-.187-.4145-.4145-.4145zm4.6342 2.18153h-.88508c-.58278 0-1.05337-.4737-1.05337-1.05337v-.71056c0-.58278.4737-1.05337 1.05337-1.05337h.88508a1.0565 1.0565 0 0 1 1.05649 1.05337v.71056c0 .58278-.4737 1.05337-1.05649 1.05337m-.88508-2.18153c-.2275 0-.4145.18698-.4145.41449v.71055c0 .2275.187.4145.4145.4145h.88508c.2275 0 .4145-.187.4145-.4145v-.71055c0-.2275-.187-.4145-.4145-.4145zm4.6342 2.18153h-.88508c-.58278 0-1.05337-.4737-1.05337-1.05337v-.71056c0-.58278.4737-1.05337 1.05337-1.05337h.88508c.58278 0 1.05337.4737 1.05337 1.05337v.71056c0 .58278-.4737 1.05337-1.05337 1.05337m-.88508-2.18153c-.2275 0-.41449.18698-.41449.41449v.71055c0 .2275.187.4145.4145.4145h.88507c.2275 0 .4145-.187.4145-.4145v-.71055c0-.2275-.187-.4145-.4145-.4145z"/></svg>