<svg class="nok-icon" height="16" width="16" fill="currentColor" xmlns="http://www.w3.org/2000/svg" viewBox="0 0 16 16"><path d="M1.09031 8.70196c-.62722-.6536-.9379-1.42737-1.061-2.30079C-.04103 5.8912 0 5.41345.2667 4.97087c.27551-.45722.69757-.68877 1.21635-.76204.23154-.03224.46308-.08793.70635-.01172-.20223-.47189-.55101-.74153-.99359-.90566C.85583 3.1654.7474 3.03059.82946 2.81663c.07327-.19637.21395-.22861.5598-.11137.34.1143.64481.2843.8998.53929.05276.05276.10845.09965.15241.14069.07328 0 .09965-.03518.1231-.07328.46016-.72394 1.14014-.8441 1.88753-.66825.41326.09672.7767.31654 1.1079.58325.14947.12017.20809.27258.12895.43671-.07034.14362-.20516.18465-.38102.14655-.2081-.04396-.3693.09086-.50412.2374-.06448.07035-.10258.1612-.16706.26672.29602.15827.56274.34292.72394.64481.22275.4162.29895.84997.24034 1.32185a5.012 5.012 0 0 1-.43378 1.50358c-.2169.45722-.5012.8617-.92618 1.16358-.2931.2081-.61257.24327-.94376.1993-.34585-.04396-.68584-.04982-1.02876 0-.46895.07035-.85584-.08793-1.1753-.45722m.65945-.22276c.13776.0762.27258.12017.4455.08793.38396-.0762.7767-.09379 1.16066 0 .20223.04983.3693.00293.5217-.12017.85877-.69756 1.14893-1.65011 1.10497-2.6994-.02638-.59497-.53343-.9584-1.14014-.94668-.31068.00586-.6067.09672-.89393.20516-.15241.05862-.2931.04983-.42792-.0293-.14655-.085-.30775-.11725-.46602-.16121-.34292-.09379-1.09617.1319-1.27203.49533-.18758.38688-.21396.77084-.13482 1.17824.1524.77083.47188 1.44788 1.0991 1.9901M4.1385 3.19472c-.43671-.17878-1.08738.29017-1.14014.68291.72687.48654 1.07566.16707 1.56805-.51877-.0381-.02345-.07327-.05276-.1143-.06741-.09086-.03225-.18465-.05862-.31361-.0938Zm8.0425 4.69537c-.94963-.17-1.67064-.65946-2.18649-1.44202-.75325-1.14307-.67997-2.66716.16414-3.74574.72687-.92325 1.69701-1.33358 2.843-1.23393 1.52703.1319 2.6701 1.19582 2.9075 2.68474.18758 1.1548-.16413 2.1689-1.04341 2.96025-.5305.47774-1.15772.75618-1.88753.79429-.26378.01465-.5217-.02345-.80015-.01759M10.4957 3.30317c-.52171.8617-.5393 1.73805-.08207 2.63198.51878 1.01704 1.78494 1.57685 2.89284 1.31893 1.27496-.29603 2.2363-1.6296 2.01062-2.98956-.17586-1.07273-1.21634-2.11028-2.29786-2.18941-1.06393-.07914-1.89924.32533-2.52647 1.22806Zm1.64132 5.1819c1.04928-.13482 2.08097-.25792 3.11266-.39568.16413-.02051.32533-.0381.4924-.0381.17 0 .25792.10845.26085.25206.00293.14069-.04396.2931-.22275.31654-.46602.06448-.93204.1231-1.39806.18465-.65067.085-1.30427.17-1.95494.25206-.53343.06742-1.06979.12897-1.60322.19638-.6536.08206-1.30427.17-1.95494.25206-.6448.08206-1.28961.1612-1.93442.24327l-2.00183.25499c-.63601.08206-1.27496.16413-1.9139.24327-.54223.0674-1.08445.12603-1.62374.1993-.13483.02052-.26965.02345-.40447.02345-.18172 0-.25206-.12896-.26379-.27844s.06741-.26379.22862-.28723c.59205-.07914 1.18703-.15534 1.77908-.23155.63015-.08207 1.2603-.1612 1.89045-.24327.54223-.07034 1.08152-.13775 1.62374-.2081.65946-.085 1.31893-.17292 1.97839-.25499.53343-.0674 1.06686-.13189 1.6003-.19637.52756-.06448 1.0522-.1319 1.57977-.19637.2374-.02931.47481-.05862.73273-.0938Zm-3.13904 6.05825H5.5219c-.14362 0-.30482.01466-.3605-.15827-.04983-.15534-.0176-.2931.10258-.43085.50705-.5774.99652-1.17237 1.49478-1.75856.29602-.34585.5979-.68877.8998-1.0317.13775-.15826.27843-.3136.41033-.4748.16413-.19638.38102-.21103.55101-.02052.56568.62722 1.11083 1.27203 1.65012 1.91977.38689.46602.78843.91738 1.18996 1.37168.10845.1231.16414.26085.10259.41326s-.20224.17585-.35758.17292c-.7298-.00586-1.4596 0-2.21286 0M8.6492 11.6417c-.0762-.12017-.16413-.22861-.31947-.30775l-2.24217 2.61733h4.55175c-.6829-.79428-1.32478-1.54167-1.9901-2.3125Z"/><path d="M1.01997 5.33138c.22275-.24034.4748-.38688.79428-.3986.14069-.00587.26379.01758.28137.18464.01759.1612.01466.31947-.18465.38395-.22568.07035-.4367.16707-.5305.4074-.02344.06155-.0381.12897-.05569.19345-.0674.2374-.17292.30775-.41326.26085-.21396-.04396-.2081-.22275-.18758-.37223.03517-.2374.11138-.46602.29603-.65653Zm12.26012-1.74391c.48946.2755.69756.68584.65653 1.2222-.03517.46895-.28723.79722-.7005.99945-.77083.38102-1.69701-.21103-1.73218-1.06686-.02345-.62722.37809-1.11669.85583-1.2222.30189-.06741.60964-.07327.92032.06448m-.07328.75325c-.04103-.04396-.07913-.09086-.12603-.12896-.18171-.15534-.43378-.17293-.64773-.05276-.20224.1143-.37223.4074-.34292.59498.04103.24913.2462.48654.48946.53343.2374.0469.4631-.01172.6067-.2081.16121-.21981.20224-.46601.0176-.74152Zm-.01758 2.04287c.07913.31654-.12017.49532-.30189.66532-.10258.09672-.26378.06155-.37223-.03224-.09672-.08207-.1231-.19637-.0674-.32827s.12602-.25499.2286-.35757c.17586-.18172.33413-.16706.51292.05276m-1.87287-3.3618c.21103.10552.26378.25207.18758.4543-.03224.08207-.04103.17586-.07328.25793-.06448.16413-.20516.21102-.36636.1905-.14948-.0205-.22275-.13482-.22275-.26964 0-.19637.05861-.38688.15827-.55395.06155-.10258.18172-.12603.31654-.0762Zm-.7386 1.97546c-.15827-.09672-.2081-.22275-.19637-.38688.01172-.15827.11137-.22569.24327-.24913.1905-.03224.58325.29602.60084.48946.0088.11138-.02052.2169-.1143.27551s-.20517.09965-.31362.02345c-.06741-.0469-.13482-.09086-.21689-.14948Zm.891 1.39513c-.17878.09379-.31947.06155-.4367-.07327-.13483-.15534-.29603-.30775-.2374-.54516.03516-.14362.15826-.2081.29015-.19344.2462.02345.35465.23447.46602.41326.08207.12896.0381.27258-.085.3986Zm2.37407.04982c-.22568-.25792-.16707-.46601.13775-.5686.12017-.04103.24034-.08206.37223-.0762.12896.00586.21982.07913.24913.19344s.05276.26085-.07034.3312c-.20517.11723-.42499.21102-.68877.1231Zm.38981-1.82304c.10552-.12017.1993-.22568.30482-.3224.13482-.12603.29016-.12017.42792-.01173.13775.11138.1319.2931 0 .43378-.04983.05569-.10552.10552-.15827.1612-.1143.12017-.2374.2081-.41326.13483s-.17586-.22275-.15828-.39568Zm-1.18703-1.38047c-.27844.01465-.59205-.25793-.62429-.51585a.28547.28547 0 0 1 .25206-.3136c.19051-.0176.43671.14947.51878.39274.05276.15534.06155.3312-.14655.4367m1.48013.23448c-.00293.1143.00879.21396-.04397.30189-.07034.1143-.17292.17-.30188.14068-.12017-.0293-.21982-.09672-.22569-.24326-.00293-.10552 0-.2081-.00293-.31361-.00879-.14362.01173-.27844.15827-.34.10845-.04396.24034-.06154.34.02345.1143.09673.1231.22862.07913.36637-.00293.01466 0 .02931-.00293.06448"/></svg>