<svg class="nok-icon %s" height="16" width="16" fill="currentColor" xmlns="http://www.w3.org/2000/svg" viewBox="0 0 16 16"><path d="M6.16 5.88c-.32-.33-.6-.51-.66-.55-.3-.13-.62-.1-.8-.09h-.13a2.7 2.7 0 0 1-1.95-.76 2.6 2.6 0 0 1-.58-2.84q.05-.13.19-.16c.14-.03.17.01.23.07L3.7 2.8a.67.67 0 0 0 1.13-.48.7.7 0 0 0-.19-.47L3.4.61q-.1-.1-.07-.23c.03-.13.07-.15.15-.19a2.6 2.6 0 0 1 2.84.58 2.7 2.7 0 0 1 .77 1.96v.12c-.03.25-.07.74.28 1.1l1.16 1.16-.36.36L7 4.31c-.5-.54-.45-1.22-.43-1.5v-.1a2 2 0 0 0-.6-1.57 2.1 2.1 0 0 0-1.9-.58L5 1.5q.34.34.34.83-.01.48-.35.83a1.2 1.2 0 0 1-1.66 0l-.94-.94c-.14.68.07 1.4.58 1.9a2 2 0 0 0 1.57.62l.1-.01c.23-.02.65-.06 1.08.14.04.02.39.23.8.65zm6.88 6.43h-.11a1.4 1.4 0 0 1-.81-.45l-3.53-3.5.36-.36 3.53 3.5q.28.27.5.3.23.02.45-.2.24-.23.2-.45-.02-.23-.3-.51l-.56-.56.36-.36.56.56q.4.4.46.8.04.48-.36.88-.35.35-.76.35Z"/><path d="M12.37 10.34q-.4 0-.68-.28l-.11-.12a.96.96 0 0 1-.01-1.36l.82-.82a.94.94 0 0 1 1.35 0l.12.12c.38.38.38 1 0 1.36l-.81.82a1 1 0 0 1-.68.28m.37-2.21-.82.82a.45.45 0 0 0 .01.63l.12.11a.45.45 0 0 0 .63.01l.82-.82a.45.45 0 0 0-.01-.63l-.12-.11a.45.45 0 0 0-.63-.01"/><path d="M11.25 9.22q-.4 0-.68-.28l-.12-.12a1 1 0 0 1-.29-.67q0-.4.28-.68l1.13-1.13a.96.96 0 0 1 1.36 0l.11.12c.38.38.38.99.01 1.36l-1.13 1.13a1 1 0 0 1-.67.27m.99-2.64a.4.4 0 0 0-.3.13L10.8 7.83a.4.4 0 0 0-.12.31q0 .2.13.32l.12.12a.45.45 0 0 0 .63 0l1.13-1.12a.45.45 0 0 0-.01-.63l-.12-.12a.5.5 0 0 0-.32-.13m-2.62.2-.36-.36 1.03-1.03a.45.45 0 0 0 0-.63l-.13-.12a.5.5 0 0 0-.31-.13.5.5 0 0 0-.32.13L8.47 5.7l-.36-.36 1.06-1.07a.96.96 0 0 1 1.36.01l.11.12c.38.37.38.98.01 1.36z"/><path d="m10.8 7.83-.36-.36 1.4-1.4a.45.45 0 0 0 0-.64l-.11-.11a.46.46 0 0 0-.63-.01l-1.41 1.4-.37-.35 1.41-1.41a1 1 0 0 1 1.36 0l.11.12c.38.38.39.99.01 1.36zM8.26 9.98l-.12-.03a.26.26 0 0 1-.12-.34c.03-.05.57-1.23-.34-2.15a.26.26 0 0 1 0-.36.26.26 0 0 1 .36 0c.95.95.7 2.2.45 2.74a.3.3 0 0 1-.24.14Zm-1 4.06a.3.3 0 0 1-.18-.07.26.26 0 0 1 0-.37l.74-.74q.11-.1.25-.06c.02 0 .49.12 1.1-.15q.78-.35 2.31-1.78a.26.26 0 0 1 .37 0c.1.11.09.27-.02.37q-1.6 1.5-2.45 1.88c-.57.25-1.05.23-1.29.2l-.64.65a.3.3 0 0 1-.19.07"/><path d="M4.89 10.22a.26.26 0 0 1-.2-.4s.15-.23.18-.58c.04-.36.25-2.1.47-2.55a4.2 4.2 0 0 1 1.84-1.9c.02 0 .6-.05 1.05.4l2.33 2.33a.26.26 0 0 1 0 .37c-.43.42-1.44 1.02-2.23.22L7.25 7.03a.26.26 0 0 1 0-.36.26.26 0 0 1 .36 0l1.08 1.08c.45.45 1.01.16 1.3-.06L7.88 5.56a1 1 0 0 0-.6-.25 3.7 3.7 0 0 0-1.46 1.6 13 13 0 0 0-.43 2.38c-.04.49-.25.8-.28.83a.3.3 0 0 1-.2.1ZM6.46 16a.3.3 0 0 1-.18-.07.26.26 0 0 1 0-.37l1.16-1.16-3.87-3.88-1.17 1.16a.26.26 0 0 1-.36 0 .26.26 0 0 1 0-.36l1.35-1.34a.26.26 0 0 1 .36 0l4.24 4.24c.1.1.1.26 0 .36l-1.35 1.35a.3.3 0 0 1-.18.07"/></svg>