<svg class="nok-icon %s" height="16" width="16" fill="currentColor" xmlns="http://www.w3.org/2000/svg" viewBox="0 0 16 16"><path d="M8.08 4.33c-1.12 0-2.19.39-2.84 1.04l-.43.41C3.61 6.94 2.6 7.94 2.6 8.84q0 .45.18.8l1.05 2.92-.58 3.04a.33.33 0 0 0 .32.4c.16 0 .3-.11.33-.27l.61-3.22-.55-1.55c.56.5 1.37 1.16 1.7 1.43l-.56 3.22c-.03.18.1.35.27.38h.06c.16 0 .3-.1.33-.27l.6-3.41a.3.3 0 0 0-.13-.32c0-.01-1.16-.92-1.84-1.54l-.12-.1c-.57-.51-1.02-.91-1.02-1.51s1.03-1.62 2.03-2.59l.43-.41A3.5 3.5 0 0 1 8.08 5C9.4 5 9.4 5.48 9.4 6v3.33c0 .67-.6.9-1 .97V7c0-.19-.15-.34-.33-.34s-.34.15-.34.34v.52L6.32 8.85l-.34-.33a.33.33 0 1 0-.46.48l.57.54.65.6q.1.08.22.08.15 0 .25-.1a.33.33 0 0 0-.02-.48l-.38-.34.93-.87v2.23c0 .18.15.33.34.33.69 0 2-.34 2-1.66V5.99c0-.82-.24-1.66-2-1.66"/><path d="M8.1 11.53a.34.34 0 0 0-.4.23l-1.05 3.82a.33.33 0 0 0 .32.42q.24-.01.32-.25l1.04-3.81a.33.33 0 0 0-.23-.41m3.82-7.86a1.5 1.5 0 1 0 0 3 1.5 1.5 0 0 0 0-3m0 2.33a.83.83 0 0 1 0-1.67.83.83 0 0 1 0 1.67M5.7 3.15a.34.34 0 0 0 .28.52q.16 0 .28-.15c.65-.99.28-1.5.03-1.83-.22-.29-.33-.45.32-1.12a.33.33 0 0 0 0-.47.33.33 0 0 0-.48 0c-.97 1-.73 1.51-.38 1.99.21.28.35.47-.05 1.06m2 0a.33.33 0 0 0 .28.52q.16 0 .28-.15c.65-.99.28-1.5.03-1.83-.22-.3-.33-.45.32-1.12a.33.33 0 0 0 0-.47.33.33 0 0 0-.48 0c-.97 1-.73 1.51-.38 1.98.21.29.35.47-.05 1.07m2.59-1.46c-.22-.3-.33-.45.32-1.12a.33.33 0 0 0 0-.47.33.33 0 0 0-.48 0c-.97 1-.73 1.51-.38 1.98.21.29.35.47-.05 1.07a.34.34 0 0 0 .28.52q.16 0 .28-.15c.65-.99.27-1.5.02-1.83Z"/></svg>