<svg class="nok-icon %s" height="16" width="16" fill="currentColor" xmlns="http://www.w3.org/2000/svg" viewBox="0 0 16 16"><path d="M3.83 9.27q-.27 0-.57-.1C1.8 8.69 2 7.02 2.06 6.47c.15-1.25.7-2.9 1.26-4.64q.05-.11.14-.16.12-.06.2-.02L7.4 2.87c.14.05.22.2.17.35a27 27 0 0 1-1.74 4.49c-.23.41-.88 1.56-2 1.56m-.07-7.01A25 25 0 0 0 2.6 6.54c-.2 1.57.34 1.95.82 2.11s1.14.17 1.92-1.21c.57-1 1.08-2.51 1.61-4.13z"/><path d="m2.04 13.15-.08-.01a.27.27 0 0 1-.18-.35l1.3-3.97c.05-.14.2-.22.35-.17s.22.2.18.35l-1.3 3.97a.3.3 0 0 1-.27.19Z"/><path d="m3.35 14.36-.08-.01-3.08-1.02A.3.3 0 0 1 .02 13q.17-.46.84-.54.57-.06 1.27.17c.9.3 1.7.92 1.48 1.55a.3.3 0 0 1-.13.16zM.92 13l1.96.64a3 3 0 0 0-.92-.5A3 3 0 0 0 .92 13M6.7 5.03H2.72a.27.27 0 1 1 0-.55h3.99a.27.27 0 1 1 0 .55m5.46 4.24c-1.12 0-1.76-1.15-2-1.56-.62-1.1-1.16-2.75-1.74-4.49a.27.27 0 0 1 .18-.35l3.72-1.22q.1-.03.2.02.13.07.14.16a28 28 0 0 1 1.26 4.65c.07.54.27 2.21-1.2 2.7q-.3.09-.56.09M9.04 3.3a25 25 0 0 0 1.6 4.13c.79 1.37 1.44 1.37 1.93 1.21s1.01-.54.82-2.11a25 25 0 0 0-1.15-4.28z"/><path d="M13.96 13.15a.3.3 0 0 1-.27-.19L12.4 9a.27.27 0 0 1 .17-.34c.15-.05.3.03.35.17l1.3 3.97a.27.27 0 0 1-.25.36Z"/><path d="M12.64 14.36a.3.3 0 0 1-.25-.19c-.21-.63.59-1.26 1.48-1.55.45-.15.9-.2 1.27-.16q.69.08.84.53c.05.14-.03.3-.17.35l-3.08 1zm2.26-1.37a3 3 0 0 0-1.78.65l1.96-.64zm-1.62-7.96H9.29a.27.27 0 1 1 0-.55h3.99a.27.27 0 1 1 0 .55"/></svg>