<svg class="nok-icon %s" height="16" width="16" fill="currentColor" xmlns="http://www.w3.org/2000/svg" viewBox="0 0 16 16"><path d="M8.22138 13.67403c9.03648 1.65032 8.49884-14.26055.138-11.43144-.25588.08625-1.06953.60665-1.31392.66415C6.01905 3.1195 6.0248 1.38293 6.0593.75615c.01437-.32488.0345-.96316.51177-.69002.17538.15238.04025.69002.0345.90853-.00575.22139.02875 1.34843.27889 1.3973 9.56262-5.62946 12.63612 13.27728.96028 11.80234.05463.26164.08626.35364.10926.68716.0345.52614.04888 1.12991-.33639 1.12704-.36514-.0575-.20413-.5779-.207-.85103-.00863-.46865-.12076-.97467-.2559-1.4203.08339-.47153.4629-.24727.74179-.12939l.32776.08625Z"/><path d="M7.58886 7.73118c.069 0 .28751-.11788.35076-.15813 1.2248 1.42605.7734 3.8699-1.41743 2.40934-2.20808-1.15867-4.15166 1.30818-2.84348 3.2805.44564.73603 1.15004 1.0293 1.03216 2.0212-.023.20414-.22713.50315.00575.6584.25014.16389.3939-.0345.46865-.25588.65552-1.9292-1.77682-2.3921-1.3053-4.21779.33638-1.31105 1.41167-1.42893 2.52434-.92578.51752.23288.73028.52614 1.38006.45714.93728-.09775 1.48068-.91716 1.40593-1.82282 0-.4744-.44852-1.19605-.61528-1.60719.02875-.12075-.29326-.31626-.22138-.6124l.31339-.12363c1.15004 1.67332 3.61689.18113 3.57664-1.5123-.20701-.42265-.81654.06325-1.15005.10925-.92866.27313-1.83145.64402-2.7601.91716-.09201.02012-.04026-.11788-.06038-.18976-.10063-.52614-.75328.00288-.97467-.0805C5.8178 4.84744 4.20773 3.407 4.31123 1.3053c0-.27888.1265-.80216.09488-1.03791-.04313-.3249-.45427-.35364-.54915-.0345-.05175.1725-.08338.5894-.092.78202-.1265 2.6566 1.25067 3.72615 2.94986 5.33621-.27888.09488-5.18095 1.7222-5.33045 1.78832-1.1213.10926-1.0178 1.81995.207 1.62732.38527-.13226 5.77036-1.94358 6.00036-2.02983ZM1.508 9.2061c-.33064.10638-.5204-.33064-.18401-.4744L7.7326 6.56389l.02013.51177zm7.75705-2.55023 2.29434-.78203c-.4054.87404-1.44618 1.60432-2.29434.78203m4.97682 2.4841c-.23289.25301-.62678-.0345-.43414-.41401.19838-.39102.7619.05462.43414.41401m-1.31105-4.75256c.41114-.08913.56064.49165.23.59515-.37088.11788-.6124-.51177-.23-.59515m.9114 2.00395c.4399-.13225.56353.48877.23002.59515-.40252.12938-.52615-.50602-.23001-.59515m-1.53244 4.95382c.30477-.01725.40252.41114.09776.5664-.4859.25014-.61528-.53765-.09776-.5664m.14663-7.61042c.3134.35076-.26738.69865-.49452.33064-.207-.33351.23864-.61815.49452-.33064m-1.30817-.6239c.52902-.09488.55202.77628-.04888.5434-.2645-.1035-.20126-.4974.04888-.5434M13.62372 9.669c.59227-.138.39389.81366-.07475.56927-.23289-.12075-.13513-.52039.07475-.56927m-.74465 1.47494c-.25301-.23576.12363-.74753.43126-.48302.32489.27888-.18975.71015-.43126.48302m-1.52381.79065c.43701-.0115.32488.6239-.069.6009-.41115-.023-.3249-.5894.069-.6009m-1.08105.4284c.33064-.046.47152.35938.18689.51751-.47727.26739-.6929-.44851-.18689-.51752m3.24026-7.02677c.40539-.092.55202.49452.23.59515-.38814.12363-.5664-.51752-.23-.59515m-3.49614-2.44097c.60377-.14376.59227.6584.03738.5319-.27602-.06326-.28464-.47152-.03738-.5319m4.00503 4.58868c.44277-.09776.44852.52902.20413.60377-.46576.138-.50314-.53765-.20413-.60377"/></svg>