<svg class="nok-icon %s" height="16" width="16" fill="currentColor" xmlns="http://www.w3.org/2000/svg" viewBox="0 0 16 16"><path d="M5.44 16H2.61a1.6 1.6 0 0 1-1.62-1.26q-.04-.18-.03-.34V5.71c0-.66.4-1.23 1.01-1.48.22-.08.35-.42.24-.62-.04-.08-.12-.08-.19-.08h-.7q-.35 0-.35-.33c0-.24.08-.35.33-.33s.3-.08.3-.31V.38c0-.3.08-.38.37-.38h8.2c.32 0 .39.07.39.4v2.2q-.01.34.31.43.1.03.17.09c.08.06.17.12.13.23s-.13.17-.24.17q-.36.02-.73 0-.29-.03-.28.28c0 .23.03.37.3.46.6.2.98.79.97 1.45v5.78c0 .23.05.3.29.3.5-.02 1 .01 1.5 0a2.1 2.1 0 0 1 2.05 2.03c-.02.83-.32 1.46-1.03 1.9q-.5.29-1.09.27zm.08-3.37H6.7a.8.8 0 0 0 .68-.28q.54-.54 1.3-.55h1.58q.28.02.27-.26V7.77c0-.2-.06-.27-.27-.27H1.9c-.22 0-.27.08-.27.28v4.54c0 .24.07.3.3.3zm-3.36-5.8h8.13q.24.02.23-.22-.02-.36 0-.7c.05-.68-.35-1.05-.97-1.13q-.3-.04-.3-.33v-.59c.03-.23-.05-.3-.3-.3H3.13q-.26-.01-.23.25v.58c0 .28-.07.35-.34.4q-.91.15-.92 1.08v.46c0 .59-.08.5.54.51M9.36 2.8h.24q.34.06.31-.3V.9c0-.16-.04-.23-.22-.23H2.5c-.2 0-.24.08-.24.26v1.5c0 .14-.03.28.03.4zM3.3 13.27H1.93c-.23-.01-.33.05-.3.3v.65c0 .7.4 1.1 1.11 1.1h4.17c.09 0 .18.03.28-.04q-.67-.9-.43-2zm7.19-.8c-.56-.07-1.13-.03-1.7-.03-.7 0-1.36.62-1.39 1.37-.02.66.4 1.3 1.17 1.45.6.12 1.2.03 1.8.05.18 0 .17-.12.17-.23v-1.55c0-.35.04-.7-.05-1.07m3.84 1.8c.23-.75-.24-1.6-1-1.77-.66-.13-1.33-.03-1.99-.05-.13 0-.13.12-.13.22v2.45q-.01.22.2.21h1.31c.75 0 1.32-.28 1.6-1.05Z"/><path d="M6.11 8.45c.25.04.33.19.33.4v.63q-.03.26.24.23h.65q.37 0 .37.35t-.37.36h-.68q-.22-.01-.21.2v.69q-.01.36-.36.36-.35.01-.35-.35v-.63q.03-.31-.29-.27h-.6q-.4 0-.38-.37-.01-.35.37-.35h.68q.23 0 .21-.21v-.66c.01-.29.09-.36.4-.39Zm7.51 5.74c-.26.03-.5.04-.54-.3-.02-.1-.13-.1-.2-.14q-.36-.15-.26-.48c.06-.2.23-.22.4-.22.33.01.55.2.68.45.1.21.15.47-.08.69"/></svg>