<svg class="nok-icon" height="16" width="16" fill="currentColor" xmlns="http://www.w3.org/2000/svg" viewBox="0 0 16 16"><path d="M10.745 1.99044c.12175-.0368 2.41798-.03114 2.53973 0 .0821.01982.14723.11892.1897.1897v10.2297c-.01416.0538-.1812.21235-.22368.22368-.11608.03114-2.28773.02831-2.40382 0-.0368-.0085-.20952-.15573-.22368-.1897L10.58928 2.2481c.03964-.07079.05945-.22651.15572-.25766M6.38471 4.94355c.14157-.03115 2.35286-.03398 2.47178 0 .03397.01133.14156.15856.1897.1897v7.27659c-.01416.0538-.18121.21235-.22368.22368-.11326.02831-2.23394.02831-2.36985 0-.10759-.02265-.18687-.11326-.25765-.1897l-.03398-7.20864c.0623-.1444.03681-.24916.22368-.29163M1.95647 7.96461c.13024-.03115 2.35286-.03115 2.47177 0 .0623.01699.2067.19253.22368.25765.05663.24067.0538 3.80818 0 4.08565-.01982.0991-.15856.30012-.25765.3256-.11326.03115-2.23394.02832-2.36985 0-.1076-.02264-.18687-.11325-.25765-.1897v-4.3263c.01699-.0538.1444-.1444.1897-.15573Z"/><path d="M15.99717 14.33516.4162 14.29836c-.21801 0-.39356-.17555-.39356-.39356L0 1.66484h.78995l.01982 11.84073L16 13.54238v.78995Z"/></svg>