<svg class="nok-icon" height="16" width="16" fill="currentColor" xmlns="http://www.w3.org/2000/svg" viewBox="0 0 16 16"><path d="M10.47703 9.00566c.0579-.12334-.0277-.17872-.0881-.23662-.57899-.54626-1.05476-1.17307-1.455-1.85778-.2593-.44304-.48585-.9012-.65954-1.38451-.0277-.07552-.05287-.14852-.0856-.24167-.19382.08308-.36752.16363-.57142.1586-.44053-.00756-.71743-.20894-.8131-.64192-.05537-.2467-.17117-.4959-.10823-.75267.13845-.54122.438-.73002 1.05726-.65198.11328.0151.1737.00503.25929-.08308.25928-.27187.57898-.38766.95406-.28445.14096.04028.2341.02769.32725-.11328.19383-.29704.50346-.37004.8307-.31215.3197.05538.53116.26432.61926.5815.06294.22404.11077.45312.10825.68974-.00755.39019-.1611.63688-.52864.76526-.18124.06294-.11327.15608-.0579.24922.2618.44053.57395.84833.944 1.20327.46066.44053.97168.82568 1.5859 1.03461.40025.13594.8156.22656 1.21334.3625.52108.17872 1.02203.39521 1.41724.80302.35746.37004.54123.8156.5664 1.31655.03524.67212-.05538 1.3392-.11832 2.0088-.01258.1309 0 .26433-.01258.39523-.0151.1309-.03524.26935-.18125.32473-.20893.07803-.37256-.03021-.36752-.26432.00503-.3046.05034-.60919.06293-.9163.02265-.54374.13593-1.08496.0579-1.63121-.09818-.70485-.58905-1.08245-1.18566-1.3518-.46066-.20642-.95154-.3197-1.43738-.45563-.63436-.17873-1.18565-.51605-1.68911-.94147-.9314-.79044-1.53556-1.80491-2.01133-2.91-.06797-.16112-.14348-.30712-.34739-.31467-.25173-.01007-.42039.17873-.36752.4229.26935 1.24355.75267 2.39396 1.51542 3.41599.31718.42543.66456.83575 1.09754 1.15544.16866.12587.19383.2895.1007.4657-.43802.81813-.61926 1.70926-.73758 2.618-.01762.13594-.00755.27943-.00503.41788 0 .18124-.07049.29452-.26684.30207-.19886.00756-.28445-.12083-.28445-.28949 0-.26935.01762-.5387.05034-.80805.1007-.7703.30208-1.51542.6092-2.24544m-.56137-4.92133c.19887.073.41284-.0428.40025-.23411-.01006-.1586-.03775-.3197-.0881-.46822-.04531-.13342-.13845-.2467-.30963-.22656-.14852.01762-.23663.14097-.22656.25425.02266.22404.02518.46822.22404.67464m-2.51479.6998c.0856.08308.16615.16867.30208.09567.14097-.07552.19635-.19384.16866-.34488-.02517-.14348-.04531-.28949-.1007-.4229-.05034-.12335-.15858-.22656-.30962-.1737-.14097.04783-.24921.15104-.20894.31467.04028.16866.05035.34487.146.53115Z"/><path d="M3.6224 7.6715c.23411.20893.5236.33983.7275.59156.32977.40528.49843.8886.69982 1.35683.13341.31466.27187.6268.4229.97168.06797-.3046.25929-.50346.39774-.73002.22404-.36753.46318-.7275.69981-1.08496.09566-.146.22656-.1888.39773-.11328.76527.34235 1.53556.67716 2.30082 1.0195.24922.11329.29453.27943.14852.51102-.26683.42794-.54122.85085-.80805 1.27628-.05538.0881-.12838.1309-.24418.146.20138.2467.29704.50094.28949.80302-.0151.57143-.38263.9742-.95658.97923-1.0044.01007-2.0088.01259-3.0107-.00251-.438-.00756-.76777-.2467-.95154-.6394-.29956-.64946-.57394-1.309-.85588-1.96853-.06545-.15356-.01007-.28446.13845-.34487.14852-.0579.2895-.03525.36501.13845.21397.4959.42794.99182.64443 1.48773.07048.1611.13845.32473.22908.47325.15103.25173.40528.3348.67463.33984.83575.01007 1.6715.01762 2.50472-.00252.38012-.01007.59912-.07552.65954-.40529.05538-.292-.10825-.49842-.40025-.52611-.73254-.07049-1.46256-.14853-2.1951-.22153-.15103-.0151-.219-.10824-.27438-.24166-.34236-.82064-.66709-1.65135-1.05979-2.45186-.32725-.66456-.91378-1.0195-1.60604-.95154-.73002.073-1.19069.4934-1.43738 1.17307-.15607.43046-.1888.88105-.25677 1.32662-.1032.6847-.19131 1.36941-.28445 2.05412-.01007.073-.02014.14349-.0277.21649-.02517.19635-.14348.29704-.31969.27942-.2039-.02014-.25425-.1586-.2316-.32725.05539-.44808.12084-.89364.18377-1.34172.08307-.58402.1611-1.16804.25425-1.74953.1158-.7275.37256-1.38956 1.01447-1.82002.58654-.3927 1.23348-.44304 1.9056-.26683.07804.02014.14853.06293.2467.0428l.01259-.00504m3.00818 2.0642c-.15356.23914-.3046.4808-.45815.71994-.06797.10321-.13594.20894-.21649.30208-.09818.11328-.24921.02265-.39018.07803.09817.13594.0579.35746.27438.38515.40277.05538.80806.09566 1.21335.13342.28193.02769.3348-.03776.2492-.30208-.05537-.17117-.04027-.30963.13343-.38515.16614-.073.29956.01763.3927.2039.073.14853.08055.33733.22907.45564.20894-.44053.53367-.79547.7426-1.23852-.48332-.21397-.94902-.41535-1.4122-.62429-.53619-.24166-.40277-.26935-.75268.26935Z"/><path d="M3.62492 7.6715c-.16362-.09567-.32977-.18377-.48836-.28698-1.05978-.71492-1.2511-2.19006-.42794-3.16929.79295-.94147 2.30082-1.00944 3.1693-.09818.5966.62681.73504 1.39711.47073 2.20013-.25929.79295-.86344 1.25362-1.68156 1.40214-.33732.06042-.6822 0-1.03462-.05286-.01258.00251-.01007.00503-.01007.00503m.84582-3.63499c-.5815-.03272-1.05475.1611-1.40718.63688-.37507.51101-.41032 1.17558-.09314 1.7319.2769.48585.97168.86596 1.5708.77534.77533-.11832 1.49025-.86344 1.36187-1.78226A1.5884 1.5884 0 0 0 4.47074 4.0365Zm10.90497 1.36186c-.1888.72499-.60415 1.23348-1.30648 1.46508-1.2058.39773-2.46193-.35494-2.62052-1.5859-.19383-1.4978 1.10007-2.56262 2.47451-2.22027.85589.21145 1.51542 1.017 1.46256 1.8628-.01007.15356-.00503.30712-.01007.48081m-.86344.51101c.21146-.26431.34488-.56136.35494-.89867.02014-.56892-.40025-1.17307-.92133-1.37194-.57898-.219-1.26872-.04279-1.64884.46067-.50094.66205-.40025 1.4827.25929 2.01888.5664.46067 1.43486.38011 1.95594-.20894m-.20641 4.51857c.0302.41787-.05287.81309-.09063 1.2083-.0151.16363-.00755.3323-.05034.49843-.05035.1888-.16363.22153-.32474.20642-.15859-.0151-.20893-.11831-.19635-.2618.03273-.39773.06042-.79798.10573-1.19572.01259-.10824.01762-.21649.02517-.32473.01007-.1309.04028-.24166.19384-.2769.14348-.03273.25676-.0126.33732.146"/></svg>