<svg class="nok-icon" height="16" width="16" fill="currentColor" xmlns="http://www.w3.org/2000/svg" viewBox="0 0 16 16"><path d="M13.51425 15.44485C12.9653 15.86354 12.35433 16 11.69374 16c-2.4966-.0062-4.99632 0-7.49293 0-.99244 0-1.76778-.40008-2.30122-1.24675-.20159-.31944-.27912-.6792-.32874-1.04517-.13026-.95212-.26052-1.90114-.38457-2.85326-.11786-.9056-.2264-1.8081-.34736-2.7137-.10544-.80016-.214-1.60032-.32874-2.40047C.42024 5.10797.46676 4.5156.88234 3.98527c.33185-.41869.76604-.63268 1.27777-.6823.35045-.03412.70711 0 1.06377-.0093.15197 0 .2171.04651.2171.20778-.0062.60787.04342.48692-.47451.50553-.28843.0093-.57996-.04342-.86529.04652-.6699.214-.99244.78775-.88079 1.48246.11475.7009.18919 1.41112.28223 2.11514.08994.65749.18918 1.31498.27602 1.97247.08684.65129.16747 1.30258.25431 1.95077.09925.74433.17988 1.49486.30084 2.23609.12715.79085.9087 1.42663 1.70885 1.42663h3.23784q.37527 0 .37527-.38767v-4.61795c0-.20159.08373-.32254.26051-.38767.17058-.06203.29463.03101.40008.14886.07753.08994.05272.1985.05272.30084v4.61795c0 .31944 0 .32254.31634.32254h3.33708c.82497 0 1.59721-.73813 1.69026-1.5631.08683-.78774.21399-1.56929.31944-2.35704.10544-.78465.20159-1.5724.30393-2.35705.10545-.78464.2171-1.5693.31944-2.35394.05893-.4528.11786-.9056.15817-1.3584.05583-.58926-.40318-1.20954-1.19403-1.24055a12.1 12.1 0 0 0-.82186 0c-.17678.0062-.26362-.04342-.25742-.24191.01551-.54894-.03721-.47141.46211-.4652.36906.0031.73813-.04653 1.1072.04341.79084.18919 1.3832.85598 1.42352 1.66854.02481.50243-.07443.98314-.13336 1.47316-.08063.6823-.17367 1.3646-.26361 2.0469-.08684.6513-.17678 1.29948-.26362 1.95077-.08994.6823-.17678 1.3646-.26672 2.0469-.06823.50863-.12405 1.01726-.2171 1.51968-.10854.56445-.42178 1.01725-.87148 1.39872Z"/><path d="M7.82012.0062C8.8963-.05893 9.8081.28533 10.57104.99244c.56755.52413.94282 1.18473 1.07308 1.95077.2295 1.33669-.08374 2.53072-1.09169 3.47354-.61097.57375-1.346.9056-2.19887.98003-1.00175.08684-1.89805-.16437-2.67339-.78775-.82497-.6637-1.28707-1.52898-1.3677-2.60515-.07134-.92111.13956-1.75228.6792-2.49351C5.68327.57065 6.61989.06203 7.82012.0062m2.06862 1.40803C9.19093.84357 8.40008.60787 7.50998.76914 6.49273.95522 5.7391 1.52898 5.3049 2.4594c-.4528.97073-.38147 1.94456.2078 2.84396.6668 1.01415 1.63752 1.50417 2.83776 1.3584 1.78329-.21399 2.89668-1.87323 2.58964-3.48284-.13335-.6978-.4528-1.29948-1.05136-1.76778ZM6.29114 12.8397c.08684.34735-.0031.58926-.25431.71331-.25431.12716-.53964.08064-.70401-.11475-.18298-.2202-.18919-.51483-.01551-.73192.26982-.34115.76294-.28223.97073.13026Zm-1.97557-.29463c.29463.214.37216.40007.29463.65749-.08064.26672-.24191.40938-.49002.42179-.2326.0124-.42489-.06513-.53964-.28223-.12406-.2357-.11785-.50242.05272-.673.18298-.18608.41249-.2326.6823-.12405m8.05118.09614c.37216.55515-.02171.98934-.40628.98624-.2264 0-.40318-.08994-.50863-.30084-.11785-.2357-.08994-.4714.06823-.65439.14577-.16747.35666-.2357.59236-.15196.08374.03101.17058.04962.25432.12095m-7.17349-1.68095c.14267-.4404.24811-.51793.6544-.50552.26981.0093.4776.2202.48691.49312.0093.31324-.19228.57685-.4683.60167-.40939.04031-.58307-.10545-.673-.58927m4.67687 1.65304c.24811-.14577.48071-.18919.71332-.0124.2295.17677.28532.57685.11475.80015-.17988.2357-.53964.29463-.77535.13025-.25431-.17988-.31324-.54894-.13025-.83737.0155-.0279.04341-.04652.08063-.08063Zm2.60205-3.46424c-.14576.28223-.37526.35976-.65439.31324-.18608-.03101-.31634-.14577-.38767-.31944-.10234-.25121-.03411-.51483.16748-.6699.16127-.12406.49312-.14266.66059-.03412.2388.15507.31324.38458.214.71022m-1.7988.15507c-.28533.2326-.70402.2233-.8746-.0062-.20158-.26982-.13955-.6699.13647-.84978.20159-.13026.54894-.10235.71642.06203.17678.17057.19228.49932.0248.79395Zm1.8019 1.46385c.09614.32564-.02482.63268-.28223.74743-.27912.12095-.58616.02171-.72882-.2357-.15197-.26982-.08684-.56756.15817-.74433.26051-.18919.62958-.09615.85288.2326M3.962 10.45164c.52413-.09925.77844.4466.62337.76604-.11785.245-.37526.38147-.6792.32564-.2233-.04342-.40628-.29153-.40938-.55514-.0031-.27603.16127-.47762.4621-.53654Zm-.30704-1.92286c.24811-.18918.55515-.2171.74433-.07133.18298.14267.26982.33495.2171.56755-.05272.2233-.17058.39698-.41869.4373-.26982.04342-.49932-.03412-.63578-.27602-.12716-.2233-.07133-.4466.09304-.6575m6.37023 1.93526c.08374-.0062.14886-.0124.214-.0124.28222 0 .4621.11475.52723.32564.07753.25742.0093.54274-.16438.6606-.2171.14886-.52723.15196-.6978.0093-.2171-.18298-.27913-.4435-.17678-.6947.05582-.13647.15817-.2171.29773-.29154ZM5.9872 9.4468c-.4807.05273-.64198-.03101-.75363-.38147-.07753-.2357.03722-.52413.25121-.63888.23881-.12716.56756-.05893.73813.15817.15507.19539.15197.50242-.0155.6854-.05893.06513-.13647.11165-.2202.17678"/><path d="M7.84183 3.33398c.38147-.33495.74743-.6575 1.1134-.98004.05272-.04652.10234-.10234.16127-.14576.16437-.11785.42178-.09614.53033.03722.11165.13646.10235.39697-.04032.52723-.35976.33185-.72882.6544-1.09168.98004-.09614.08683-.18919.17367-.28533.2574-.08063.06824-.15817.13957-.245.1923-.16438.09614-.4156.05272-.50243-.08684-.10855-.17058-.08684-.33805.05582-.48072.09615-.09614.1954-.19228.30394-.30083"/></svg>