<svg class="nok-icon %s" height="16" width="16" fill="currentColor" xmlns="http://www.w3.org/2000/svg" viewBox="0 0 16 16"><path d="M16 7.23c0-1.18-1.65-1.18-2.27-1.18h-.47v-.79a.25.25 0 0 0-.25-.25H5.25L3.7 1.1a.6.6 0 0 0-.33-.34.6.6 0 0 0-.48 0 .6.6 0 0 0-.34.32.6.6 0 0 0 0 .47l1.38 3.47h-1.1a.25.25 0 0 0-.25.25v.8h-.3c-.62 0-2.27 0-2.27 1.17 0 1.06 1.54 1.55 2.57 1.62v4.2a2.26 2.26 0 0 0 2.26 2.26h6.18a2.26 2.26 0 0 0 2.26-2.26v-4.2c1-.03 2.72-.52 2.72-1.63m-2.74.09c.39 0 .75.02.97.06-.2.07-.57.12-.97.14zM3 1.36a.1.1 0 0 1 .07-.15h.09l.06.07 1.49 3.74h-.25zM.5 7.23c0-.18 0-.67 1.77-.67h.3v.26c-.53 0-1.14.05-1.34.25a.4.4 0 0 0-.11.24q0 .2.15.34c.25.25.85.34 1.3.36v.34C1.66 8.27.51 7.85.51 7.23Zm2.07.28a3 3 0 0 1-.8-.13q.3-.06.8-.06zm10.19 5.54c0 .96-.8 1.75-1.76 1.75H4.83c-.97 0-1.76-.79-1.76-1.75V5.52h9.69zm.5-4.69v-.34c.46-.01 1.19-.09 1.48-.37q.14-.15.14-.34 0-.14-.1-.24c-.23-.22-.96-.26-1.52-.25v-.26h.47c1.77 0 1.77.49 1.77.67 0 .66-1.3 1.1-2.24 1.13"/><path d="m6.03 4.51.1-.02s1.03-.4.52-1.82c-.34-.92.17-1.16.23-1.19.12-.05.19-.2.14-.32A.25.25 0 0 0 6.7 1c-.01 0-1.05.42-.53 1.83.34.92-.17 1.16-.23 1.19a.25.25 0 0 0 .1.48Zm1.5 0 .1-.02s1.04-.4.52-1.82c-.34-.92.17-1.16.23-1.19.13-.05.2-.2.15-.32A.25.25 0 0 0 8.2 1s-1.04.42-.52 1.83c.34.92-.17 1.16-.23 1.19a.25.25 0 0 0 .09.48Zm1.51 0 .1-.02s1.03-.4.52-1.82c-.34-.92.17-1.16.23-1.19.12-.05.19-.2.14-.32A.25.25 0 0 0 9.71 1c-.01 0-1.05.42-.53 1.83.34.92-.17 1.16-.23 1.19a.25.25 0 0 0 .1.48Z"/></svg>