<svg class="nok-icon %s" height="16" width="16" fill="currentColor" xmlns="http://www.w3.org/2000/svg" viewBox="0 0 16 16"><path d="M14.92 11.79V10q-.13.05-.28.06c-.15 0-.2-.03-.29-.06v1.79q.14-.05.29-.06c.15-.01.2.03.28.06m-2.65 2.72 1.77-1.02a1 1 0 0 1-.33-.47L12 14q.21.2.28.5m1.44-5.74q.1-.29.33-.47l-1.77-1.02a1 1 0 0 1-.28.5zm-2.39-2.7q.15 0 .29.06v-1.9q-.15.04-.29.05c-.14.01-.2-.03-.29-.05v1.91q.15-.05.29-.06m-.93-3.09q.1-.28.33-.47L8.94 1.5a1 1 0 0 1-.27.5zm-.02 4.27-1.8 1.03q.26.19.36.5l1.72-1a1 1 0 0 1-.28-.54ZM8 11.73q.15 0 .29.06V10q-.14.05-.29.06c-.15 0-.2-.03-.28-.06v1.79q.13-.05.28-.06m-.57-3.45-1.8-1.03q-.06.31-.28.53l1.72 1q.11-.3.36-.5m-1.82-5.3L7.33 2a1 1 0 0 1-.27-.5L5.28 2.51q.23.18.33.47m-1.87 4.3L1.96 8.3q.23.18.33.47l1.72-1a1 1 0 0 1-.27-.5m-1.45 5.75a1 1 0 0 1-.33.47l1.78 1.02q.06-.3.27-.5zm-.93-1.3q.15.01.29.07V10q-.15.05-.29.06c-.14 0-.2-.03-.28-.06v1.79q.13-.05.28-.06M4.4 4.22v1.91q.13-.05.28-.06c.15 0 .2.03.29.06V4.22q-.14.04-.29.05c-.15.01-.2-.03-.28-.05m2.67 8.8L5.35 14q.22.2.28.5l1.77-1.02a1 1 0 0 1-.33-.47m1.86 0a1 1 0 0 1-.33.47l1.77 1.02q.07-.3.28-.5zM13.98 2a1 1 0 0 1-.28-.49l-1.74 1.05q.23.18.31.48z"/><path d="M11.32 4.56a1.28 1.28 0 1 1 0-2.55 1.28 1.28 0 0 1 0 2.55m0-1.98a.7.7 0 1 0 0 1.41.7.7 0 0 0 0-1.41M4.68 4.56a1.28 1.28 0 1 1 0-2.55 1.28 1.28 0 0 1 0 2.55m0-1.98a.7.7 0 1 0 0 1.41.7.7 0 0 0 0-1.41M8 2.55A1.28 1.28 0 1 1 8 0a1.28 1.28 0 0 1 0 2.55M8 .57a.7.7 0 1 0 0 1.41.7.7 0 0 0 0-1.41m6.64 1.98a1.28 1.28 0 1 1 0-2.55 1.28 1.28 0 0 1 0 2.55m0-1.98a.7.7 0 1 0 0 1.41.7.7 0 0 0 0-1.41m0 9.77a1.28 1.28 0 1 1 0-2.55 1.28 1.28 0 0 1 0 2.55m0-1.97a.7.7 0 1 0 0 1.4.7.7 0 0 0 0-1.4m-3.32-.03a1.28 1.28 0 1 1 0-2.56 1.28 1.28 0 0 1 0 2.56m0-1.98a.7.7 0 1 0 0 1.4.7.7 0 0 0 0-1.4m3.32 7.63a1.28 1.28 0 1 1 0-2.55 1.28 1.28 0 0 1 0 2.55m0-1.97a.7.7 0 1 0 0 1.4.7.7 0 0 0 0-1.4M11.32 16a1.28 1.28 0 1 1 0-2.55 1.28 1.28 0 0 1 0 2.55m0-1.98a.7.7 0 1 0 0 1.42.7.7 0 0 0 0-1.42M8 10.34A1.28 1.28 0 1 1 8 7.8a1.28 1.28 0 0 1 0 2.55m0-1.97a.7.7 0 1 0 0 1.4.7.7 0 0 0 0-1.4m-6.64 1.97a1.28 1.28 0 1 1 0-2.55 1.28 1.28 0 0 1 0 2.55m0-1.97a.7.7 0 1 0 0 1.4.7.7 0 0 0 0-1.4m3.32-.03a1.28 1.28 0 1 1 0-2.56 1.28 1.28 0 0 1 0 2.56m0-1.98a.7.7 0 1 0 0 1.4.7.7 0 0 0 0-1.4M1.36 14a1.28 1.28 0 1 1 0-2.55 1.28 1.28 0 0 1 0 2.55m0-1.97a.7.7 0 1 0 0 1.4.7.7 0 0 0 0-1.4M8 13.99a1.28 1.28 0 1 1 0-2.55A1.28 1.28 0 0 1 8 14m0-1.97a.7.7 0 1 0 0 1.4.7.7 0 0 0 0-1.4M4.68 16a1.28 1.28 0 1 1 0-2.55 1.28 1.28 0 0 1 0 2.55m0-1.98a.7.7 0 1 0 0 1.42.7.7 0 0 0 0-1.42"/></svg>