<svg class="nok-icon %s" height="16" width="16" fill="currentColor" xmlns="http://www.w3.org/2000/svg" viewBox="0 0 16 16"><path d="M.00318 9.88721c.09531-.77522 1.15965-1.1247 1.83002-1.0135.3622.06036.68626.2351.9722.4575L2.42732 6.1954c-.054-.98808.9023-1.62033 1.78872-1.18506v-.23829c0-.32724.32407-.74662.5973-.90548.0826-.04766.17157-.07625.25417-.1239.01271-.26689-.02541-.5433.03178-.807.17156-.77204 1.09293-1.14058 1.75695-.71485 0-.19063-.00636-.37172.03177-.55917C7.07228.76886 8.14297.41303 8.85465.95949c.24146-.57506.82287-.88642 1.43923-.74662.51152.11755.90548.60365.92455 1.12788l.29547-.14615c.65131-.2224 1.36299.1239 1.56632.78475.00953.03495.05084.16839.05084.1938V5.4583c.02224.00635.0286-.00953.0413-.01906.39396-.30183.5973-.52423 1.13423-.60048.86736-.12073 2.22399.556 1.48054 1.53455-.24146.31771-.55917.5973-.81334.92137-.50834.65766-.74027 1.25814-1.06752 2.00794-.5401 1.2359-1.2899 2.41462-2.65607 2.82446-.02542.47657-.12073.93726-.31454 1.37252-.77204 1.73154-2.61795 2.3193-4.39396 2.32566-1.94758.00635-3.00238-.87053-3.9587-2.46227-.48292-.80382-.80381-1.44877-1.4996-2.11915-.29865-.28911-1.02621-.76568-1.07705-1.1787C0 10.02382 0 9.9285.00635 9.89038Zm9.3058-4.78475c.3749-.0413.78157.14615 1.00714.44798s.22876.59412.27641.95631c.2224 1.67752.39714 3.3614.61001 5.03892l.01906.03495c.8483-.31454 1.42336-.9849 1.84274-1.76013.3463-.64178.55917-1.33757.91183-1.973.26053-.46703.57824-.90547.9309-1.30579.10802-.1239.556-.54964.56235-.68308.00635-.17474-.2923-.3622-.43527-.41938-.66084-.2637-1.28355.06354-1.68387.59094-.08578.1112-.22875.39714-.30818.46386-.16204.1398-.41938.0413-.4321-.17474V2.3066c-.08577-.84512-1.25496-.88325-1.38204-.04131v3.12947c-.0413.36854-.50199.32724-.5274.0286-.0286-1.28992.04448-2.58936-.01271-3.8761-.00636-.14933.01588-.24464-.0413-.39396-.16522-.43845-.71804-.59413-1.0834-.29865-.10167.0826-.25735.30182-.25735.43526v3.81255Zm-.66402.25735c.0413-.04448.12708-.06037.13661-.12709V1.84591c-.12073-.85147-1.32486-.81017-1.39793.03812V3.9587l.02224.03177c.44797-.00953.87053.251 1.07704.64178.11756.22557.1398.47974.15886.72756ZM6.85624 4.1112v-.99444c-.07626-.56553-.78475-.75616-1.13424-.29547-.1938.25734-.10484.58141-.1239.88324.37807.054.74344.28912.90547.6386.01907.0127.0699-.05401.08896-.06672.07943-.06354.1684-.12709.26053-.16521ZM8.6513 9.32486c-.06672-.06672-.0699-.14615-.08578-.2351-.21287-1.363-.27641-2.76093-.51152-4.12391-.31771-.78158-1.45512-.48928-1.3471.35901l.44797 3.68547c.0286.30818-.37172.40984-.50516.13979l-.54646-4.41303c-.15568-.56235-.91184-.7085-1.24226-.21286-.14615.21922-.12708.3876-.10484.6386.1112 1.27085.33677 2.53852.4575 3.80937.01271.3336-.41938.40667-.51787.09531-.15886-.99444-.20334-2.03018-.36537-3.02144-.14297-.87689-1.23272-.86418-1.37887-.0286.12073 1.3884.34313 2.77046.47021 4.15568-.04448.17157-.21604.25735-.37807.1811-.09214-.0413-.22876-.26688-.30819-.35584-.39078-.43844-.92136-.7371-1.52502-.59094-.1938.04765-.4448.17792-.57506.3336-.18745.22557-.10166.31453.07943.4861.43845.4162.8483.7085 1.24544 1.19142.99126 1.20095 1.417 2.88165 2.94837 3.5679 1.05798.4734 2.8467.3495 3.89833-.12072 1.19142-.53694 1.96029-1.65529 1.90627-2.9865L9.9984 6.07784c-.2351-.68944-1.21048-.57188-1.24543.16839l.3463 2.88483c-.00635.2351-.28911.35901-.45432.19062Zm-7.03098-7.2915c.1112-.1112.30818-.0985.40032.0286l1.13106 1.5536c.12073.28595-.21922.5147-.43845.28913L1.57903 2.34472a.2701.2701 0 0 1 .04448-.31136Zm2.26847-.81334c.20016-.03178.28276.10802.31136.2764.09531.50835.11755 1.05481.20651 1.5695.03177.2796-.35901.3908-.49245.1525-.02224-.0413-.0286-.0826-.03495-.12708-.10167-.5401-.13344-1.10564-.20651-1.6521.00635-.10802.10802-.20334.21286-.21922ZM.502 3.69817c.06036-.00953.10166.00636.15885.02542.47975.17792.97856.53693 1.46148.73074.25735.17474.08578.55917-.2224.47974L.3908 4.17792c-.197-.13662-.1271-.44798.108-.48292Z"/></svg>