<svg class="nok-icon %s" height="16" width="16" fill="currentColor" xmlns="http://www.w3.org/2000/svg" viewBox="0 0 16 16"><path d="M10.56 16a.3.3 0 0 1-.32-.32c0-1.4.57-1.68.68-1.72q.16-.06.31.05.5.38.93.29c.56-.12.91-.76.92-.76.06-.12.2-.19.33-.17q.68.1 1.16-.3c.58-.5.79-1.41.79-1.9 0-.82-.62-1.64-.62-1.65a.3.3 0 0 1 0-.38c.61-.87.05-1.81.03-1.85a.3.3 0 0 1 .02-.36c.16-.22.57-.89.57-1.42 0-.66-.38-1.33-.38-1.33a.32.32 0 0 1 .13-.45c.04-.04.25-.32.25-1.42 0-.8-1.37-.82-1.39-.82a.3.3 0 0 1-.24-.1c-.86-1-1.82-.26-1.86-.23a.3.3 0 0 1-.36.03 1.9 1.9 0 0 0-2.32.21.3.3 0 0 1-.45 0c-.64-.65-2 .05-2.02.06a.3.3 0 0 1-.4-.1c-.69-.88-1.8-.23-1.86-.2a.3.3 0 0 1-.38-.03S3.52.64 2.83.64q-.79 0-1.14.45c-.54.7-.22 1.98-.21 2a.3.3 0 0 1-.12.33c-.98.75-.22 2.16-.22 2.17q.08.16 0 .32a.3.3 0 0 1-.28.16c-.07.01-.22.17-.22.67 0 .86.53 1.47.53 1.47.1.11.1.28.03.4 0 0-.56.83-.56 1.67 0 1 .95 1.95 1.95 1.95s1.67-.58 1.67-1.38-.98-1.43-.99-1.44a.3.3 0 0 1-.11-.42c.67-1.3-.19-2.15-.2-2.16a.32.32 0 0 1 .02-.48c.64-.51-.06-1.7-.07-1.71q-.08-.13-.03-.27c.05-.14.1-.16.19-.2.42-.16.6-.81.63-1.05q.02-.17.2-.25.16-.06.31.04c.65.5 1.82.08 1.83.08a.3.3 0 0 1 .33.06 1.3 1.3 0 0 0 1.72.15c.13-.1.32-.09.43.03.7.76 1.82.2 1.87.18a.3.3 0 0 1 .34.03c.49.38 1.6-.08 1.95-.27a.32.32 0 0 1 .43.44c-.73 1.34.16 2.05.2 2.08q.13.1.13.27c0 .17-.07.2-.16.26-.94.53-.2 1.9-.17 1.96q.1.2-.04.37c-.67.73 0 1.8.03 1.84q.1.16.02.32a.3.3 0 0 1-.28.17c-.4.02-.77.52-.87.7a.3.3 0 0 1-.2.15.3.3 0 0 1-.26-.06c-.92-.67-1.83.22-1.86.26a.3.3 0 0 1-.29.09s-.93-.16-1.48.3q-.4.35-.41 1.09c0 .59.27.87.57 1.18.26.27.56.58.56 1.1a.32.32 0 1 1-.64 0c0-.25-.14-.4-.39-.66-.33-.34-.74-.77-.74-1.62q0-1.05.64-1.58c.62-.52 1.48-.5 1.84-.46.47-.4 1.38-.86 2.3-.39.16-.2.42-.48.76-.63-.21-.48-.44-1.32.09-2.06-.3-.65-.52-1.72.17-2.38a2.1 2.1 0 0 1-.37-1.87c-.52.18-1.22.3-1.75.01-.41.17-1.45.48-2.27-.2-.5.27-1.36.44-2.17-.2-.35.1-1.15.27-1.84 0-.1.3-.29.69-.62.94.21.46.52 1.37 0 2.03.35.48.66 1.36.23 2.42.37.3 1.06.96 1.06 1.8 0 1.16-.99 2.03-2.3 2.03S0 11.63 0 10.27c0-.76.35-1.48.55-1.82A3 3 0 0 1 0 6.75c0-.68.22-1 .44-1.16-.27-.7-.42-1.8.38-2.54C.74 2.59.6 1.45 1.19.7Q1.73 0 2.83 0c.68 0 1.23.32 1.5.51.6-.28 1.6-.47 2.33.27C7.13.58 8.2.24 8.97.76c.55-.4 1.57-.79 2.69-.22a1.9 1.9 0 0 1 2.46.32C14.84.9 16 1.23 16 2.3c0 1.01-.16 1.52-.35 1.78.14.3.35.85.35 1.42 0 .65-.38 1.33-.58 1.64.18.38.48 1.27-.04 2.17.22.33.62 1.07.62 1.85 0 .73-.31 1.78-1.01 2.38a2 2 0 0 1-1.47.47c-.19.28-.6.77-1.22.9q-.62.13-1.23-.25c-.08.14-.19.43-.19 1 0 .18-.14.33-.32.33Zm4.61-12.3"/><path d="M5.16 4.95a.32.32 0 0 1-.23-.54s.6-.61.94-1.27c.07-.15.27-.22.43-.14s.22.27.14.43c-.37.75-1.03 1.4-1.06 1.43a.3.3 0 0 1-.22.1"/><path d="M4.87 6.61c-1.1 0-1.55-.74-1.64-1.13a.32.32 0 0 1 .63-.14c.01.07.18.63 1.01.63 1.07 0 2.01-1.68 2.29-2.33a.32.32 0 0 1 .59.25c-.05.1-1.17 2.72-2.88 2.72m3.7-1.13a.32.32 0 0 1-.19-.58 6 6 0 0 0 1.3-1.18.3.3 0 0 1 .43-.1c.15.08.2.28.11.43a7 7 0 0 1-1.47 1.37.3.3 0 0 1-.18.06"/><path d="M7.72 7.47c-1.41 0-1.78-1.23-1.78-1.88a.32.32 0 1 1 .64 0c0 .13.04 1.24 1.14 1.24.93 0 2.2-1.16 2.6-1.6a.32.32 0 1 1 .48.43c-.07.07-1.68 1.8-3.08 1.8M6.58 5.6"/><path d="M10.6 7.78c-1.34 0-1.97-.72-2-.77a.3.3 0 0 1 .03-.45.3.3 0 0 1 .45.04c.04.05 1 1.1 3.29.13.16-.06.35.01.42.17s-.01.36-.17.43c-.8.33-1.47.45-2.02.45m.24 1.96a.32.32 0 0 1 0-.64c.02 0 .88-.02 1.52-.62a.3.3 0 0 1 .46.01c.12.13.11.33-.02.45-.83.79-1.91.8-1.96.8m-4.41-1.1c-1.84 0-2.83-.6-2.88-.64a.32.32 0 1 1 .34-.54c.15.1 1.15.68 3.23.5.18 0 .33.12.34.3s-.11.33-.29.34z"/><path d="M6.1 10.3q-.9 0-1.99-.19a.32.32 0 0 1 .1-.63q3.14.52 4.44-.5c.72-.57.78-1.35.8-1.64h.32l.31.04a2.8 2.8 0 0 1-1.04 2.1q-1.04.81-2.95.81Zm.81 2.24a3.4 3.4 0 0 1-2.61-1.13c-.11-.14-.1-.34.05-.45s.34-.09.44.05c.05.05.95 1.14 2.73.83.18-.02.34.09.37.26s-.08.34-.26.37q-.38.07-.72.07"/><path d="M9.77 11.74a.32.32 0 0 1-.3-.43q.19-.51-.01-.83c-.26-.41-.95-.57-1.2-.6a.32.32 0 1 1 .06-.64c.05.01 1.2.14 1.68.9q.37.6.07 1.4a.3.3 0 0 1-.3.2"/></svg>