<svg class="nok-icon %s" height="16" width="16" fill="currentColor" xmlns="http://www.w3.org/2000/svg" viewBox="0 0 16 16"><path d="M8.74766 13.32503c1.3375-1.3375 2.6556-2.67498 3.99585-3.98754.50121-.4929 1.01627-.97197 1.51194-1.47318.73105-.73935 1.13534-1.62547 1.05504-2.67497-.0803-1.07165-.59813-1.9107-1.51471-2.48944-.59813-.37937-1.25719-.52337-1.95224-.46245-.76427.06923-1.43994.35999-1.9993.8972-.3683.35445-.72274.71997-1.0855 1.07996-.20768.20491-.4209.1966-.63413-.00831-.43475-.41814-.8252-.88612-1.30149-1.25995-1.24057-.97196-2.8605-.98027-4.08723.0083-.62305.50122-.99965 1.16858-1.11872 1.9744-.10523.69781.01108 1.35132.32676 1.97715.06645.13014.13845.26583.06645.42644-.05815.12461-.14676.19107-.27968.20215-.13845.01107-.25199-.01939-.32398-.15784C.77259 6.1613.70336 4.92627 1.30149 3.68017c.55936-1.14919 1.4981-1.82763 2.74143-2.06577.7975-.1523 1.5784-.04708 2.33437.26584.61198.25475 1.0938.6729 1.53964 1.14641.16614.17723.33783.34891.51228.52337.19107-.12461.31568-.28522.45968-.42368.39045-.37937.75597-.78366 1.24057-1.0578.50398-.28245 1.03842-.45691 1.60609-.50675.91104-.0803 1.76947.11353 2.54205.61751.9332.6092 1.49256 1.48425 1.66425 2.57529.20768 1.3264-.13846 2.50605-1.09104 3.4697a607 607 0 0 1-5.17272 5.17273c-.32122.31568-.65074.62583-.98027.93597-.17169.16338-.32953.15784-.50675-.00831-1.41502-1.3181-2.7442-2.72482-4.12323-4.08169-.13015-.12738-.13568-.37383-.02215-.49013.11907-.12185.3683-.1163.50675.01661.61475.60644 1.21288 1.2295 1.84147 1.81932.66736.62582 1.29595 1.28487 1.95223 1.919.03046.03046.06646.05261.09969.0803.12461-.06369.19938-.17445.30737-.2686Z"/><path d="M2.55867 8.24645c.58982 0 1.1575-.00554 1.72517.00277.15507 0 .25475-.05261.3406-.17168.21322-.2963.42921-.58983.6452-.88612.04154-.05816.08585-.1163.1357-.16615.20214-.19384.45413-.14953.5815.09969l.83905 1.67809c.0443.0886.09138.17722.14953.28245.12461-.13569.1357-.2963.18-.43752.3046-.98581.60644-1.97162.9055-2.9602.05815-.19107.16061-.31845.3766-.30737.15784.0083.2603.0803.31568.24091.27415.77813.5566 1.55071.8335 2.32607.11908.33783.11631.33783.47907.3406h1.0578c.23538 0 .32953.08861.33784.2963.01107.20768-.11354.37106-.324.37383q-.83073.01246-1.66147 0c-.1606 0-.2769-.09692-.33506-.25753-.216-.5926-.43475-1.18242-.65351-1.77224-.00831-.02492-.02493-.04985-.05262-.10523-.1883.61752-.3683 1.20734-.55105 1.7944-.15784.51228-.31568 1.02734-.48183 1.53686-.0443.13845-.11353.2686-.29076.27691-.17722.00554-.29076-.07477-.37106-.23537-.32122-.65906-.65075-1.31257-.98027-1.96608-.0443-.08861-.072-.1883-.18-.26584-.19937.26307-.40152.5206-.58982.78643-.08861.12738-.1883.17446-.3406.17446-1.4178-.00277-2.83281 0-4.2506-.00277-.24646 0-.396-.12184-.39876-.31845-.00277-.20215.15784-.35445.40152-.35445.71167-.00554 1.42333 0 2.15715 0Z"/></svg>