<svg class="nok-icon %s" height="16" width="16" fill="currentColor" xmlns="http://www.w3.org/2000/svg" viewBox="0 0 16 16"><path d="M9.32 4.36a2.18 2.18 0 1 1 0-4.36 2.18 2.18 0 0 1 0 4.36m0-3.65a1.47 1.47 0 1 0 0 2.94 1.47 1.47 0 0 0 0-2.94"/><path d="M13.52 16c-.32 0-.65-.13-.9-.37L9.86 12.3a.6.6 0 0 0-.48-.22h-.1a.6.6 0 0 0-.48.22l-2.76 3.3a1.26 1.26 0 1 1-1.83-1.75c.78-.99 2.77-3.81 2.77-5.25S4.12 4.28 3.02 3.28a1.3 1.3 0 0 1-.37-1.02c.03-.38.23-.72.54-.93a1.3 1.3 0 0 1 1.65.19L8.13 4.8q1.19.81 2.38 0l3.3-3.3a1.3 1.3 0 0 1 1.64-.18c.32.21.51.55.55.93s-.1.74-.37 1c-1.1 1.02-3.95 3.92-3.95 5.34s1.98 4.27 2.76 5.25q.34.37.35.88c.01.51-.13.66-.37.9q-.39.37-.9.37Zm-4.25-4.63h.1q.62 0 1.03.48l2.75 3.3c.17.16.56.18.77-.03a.56.56 0 0 0 0-.78l-.03-.03c-.12-.15-2.93-3.72-2.93-5.71s3.75-5.46 4.18-5.85c.1-.1.17-.27.15-.43a.5.5 0 0 0-.24-.4c-.21-.16-.53-.11-.74.1l-3.32 3.3-.04.05a2.66 2.66 0 0 1-3.25 0l-.05-.04-3.31-3.31c-.21-.21-.53-.26-.75-.11q-.21.16-.24.4c-.03.25.04.33.16.45.41.38 4.17 3.85 4.17 5.84s-2.8 5.56-2.93 5.7l-.02.04a.56.56 0 0 0 0 .78c.2.21.57.2.78 0l2.73-3.27c.26-.31.63-.48 1.03-.48M1.9 7.63a.35.35 0 0 1-.36-.35V5.93a.35.35 0 0 1 .71 0v1.35c0 .2-.16.35-.35.35m0 2.52a.35.35 0 0 1-.36-.36V8.45a.35.35 0 0 1 .71 0v1.34c0 .2-.16.36-.35.36m-.72-1.96H.35a.35.35 0 0 1 0-.7h.84a.35.35 0 0 1 0 .7Z"/><path d="M3.4 8.2h-.84a.35.35 0 0 1 0-.72h.84a.35.35 0 0 1 0 .71"/></svg>