<svg class="nok-icon" height="16" width="16" fill="currentColor" xmlns="http://www.w3.org/2000/svg" viewBox="0 0 16 16"><path d="M8.08333 4.33333c-1.12666 0-2.19.38667-2.84666 1.03334-.14.14-.28334.27666-.42334.41333-1.19666 1.16333-2.22666 2.16333-2.22666 3.06 0 .30333.07333.56333.18666.8l1.04334 2.92333-.58 3.03667a.33333.33333 0 0 0 .32666.39667c.15667 0 .29667-.11.32667-.27l.61333-3.21334-.55333-1.55C4.50667 11.46 5.32 12.12 5.65667 12.39l-.56334 3.21667c-.03333.18.09.35333.27.38666.02 0 .04.00334.05667.00334.16 0 .3-.11334.32667-.27667l.59666-3.41333c.02-.12-.02666-.24334-.12-.32-.01-.01-1.16-.92-1.84666-1.53667l-.12-.10667C3.69 9.84 3.24333 9.44 3.24333 8.83667S4.27333 7.22 5.27 6.25333c.14333-.14.28667-.27666.42667-.41666.52666-.52 1.44-.84 2.38-.84 1.33333 0 1.33333.48666 1.33333 1V9.33c0 .67333-.60333.89333-1 .96667v-3.3c0-.18334-.15-.33334-.33333-.33334s-.33334.15-.33334.33334V7.52l-1.42 1.32667-.34-.32667a.33242.33242 0 1 0-.46.48l.57.54333.64334.59c.06333.06.14333.08667.22666.08667.09 0 .18-.03667.24667-.10667a.332.332 0 0 0-.02-.47l-.37667-.34666.93-.87V10.66c0 .18333.15.33333.33334.33333.69 0 2-.34666 2-1.66666V5.99333c0-.82333-.23667-1.66666-2-1.66666Z"/><path d="M8.10333 11.53c-.17666-.04667-.36.05667-.41.23333L6.65 15.57667c-.05.17666.05667.36.23333.41.03.00666.06.01333.08667.01333.14667 0 .28-.09667.32-.24667L8.33333 11.94c.05-.17667-.05666-.36-.23333-.41Zm3.81334-7.86333c-.82667 0-1.5.67333-1.5 1.5s.67333 1.5 1.5 1.5 1.5-.67334 1.5-1.5-.67334-1.5-1.5-1.5m0 2.33333a.83333.83333 0 0 1 0-1.66667.83333.83333 0 0 1 0 1.66667M5.70333 3.15c-.1.15333-.06.36.09334.46333.05666.03667.12.05667.18333.05667.10667 0 .21333-.05333.28-.15.65-.98667.27667-1.49333.02667-1.83-.21334-.29-.33-.44667.32333-1.12.12667-.13333.12667-.34333-.00667-.47a.332.332 0 0 0-.47.00667c-.97.99666-.73333 1.50666-.38333 1.98.21.28333.34667.47-.04667 1.06666Zm2 0c-.1.15333-.06.36.09334.46.05666.03667.12.05667.18333.05667.10667 0 .21333-.05334.28-.15.65-.98667.27667-1.49334.02667-1.83-.21334-.29-.33-.44667.32333-1.12.13-.13334.12667-.34334-.00667-.47a.332.332 0 0 0-.47.00666C7.16333 1.1 7.4 1.61 7.75 2.08333c.21.28334.34667.47-.04667 1.06667m2.58334-1.46333c-.21334-.29-.33-.44667.32333-1.12.12667-.13334.12667-.34334-.00667-.47a.332.332 0 0 0-.47.00666C9.16333 1.1 9.4 1.61 9.75 2.08333c.21.28334.34667.47-.04667 1.06667-.1.15333-.06.36.09334.46333.05666.03667.12.05667.18333.05667.10667 0 .21333-.05333.27667-.15.65-.98667.27666-1.49333.02666-1.83Z"/></svg>