<svg class="nok-icon %s" height="16" width="16" fill="currentColor" xmlns="http://www.w3.org/2000/svg" viewBox="0 0 16 16"><path d="M8.75 13.33q2-2.02 4-4 .76-.72 1.5-1.47a3.3 3.3 0 0 0 1.06-2.67A3.1 3.1 0 0 0 13.8 2.7a3 3 0 0 0-1.96-.46q-1.15.1-2 .9L8.76 4.2q-.3.3-.64 0c-.43-.42-.82-.89-1.3-1.26A3.2 3.2 0 0 0 1.94 6.9c.07.13.14.26.07.42q-.09.2-.28.2-.21.04-.32-.15a4 4 0 0 1-.1-3.7A3.7 3.7 0 0 1 4.04 1.6a4 4 0 0 1 3.88 1.42l.5.52c.2-.12.32-.29.47-.42.39-.38.75-.79 1.24-1.06a4 4 0 0 1 4.15.1q1.4.95 1.66 2.58.32 2.01-1.09 3.47a607 607 0 0 1-5.17 5.18l-.98.93q-.25.25-.5 0C6.77 13 5.44 11.6 4.06 10.23c-.13-.12-.14-.37-.02-.49.11-.12.36-.11.5.02l1.84 1.82q.99.95 1.96 1.92l.1.08q.16-.12.3-.27Z"/><path d="M2.56 8.25h1.72q.23 0 .34-.17l.65-.89.14-.16c.2-.2.45-.15.58.1l.84 1.67q.06.14.15.29c.12-.14.13-.3.18-.44l.9-2.96q.07-.31.38-.31.24 0 .31.24l.84 2.33c.12.34.11.34.48.34h1.05q.34 0 .34.3c.01.2-.11.37-.32.37H9.48q-.24-.01-.34-.26L8.5 6.93l-.06-.1-.55 1.79-.48 1.53c-.04.14-.11.27-.29.28q-.26 0-.37-.23l-.98-1.97c-.04-.09-.07-.19-.18-.27L5 8.75a.4.4 0 0 1-.34.17H.4Q0 8.91 0 8.6c0-.2.16-.35.4-.35z"/></svg>