<svg class="nok-icon %s" height="16" width="16" fill="currentColor" xmlns="http://www.w3.org/2000/svg" viewBox="0 0 16 16"><path d="M14.75 15.62h-2.31a2.6 2.6 0 0 1-1.8-.71L6.9 11.34a2 2 0 0 1-.64-1.46 2 2 0 0 1 .62-1.48L9.2 6.1a.3.3 0 0 1 .2-.08h.01q.06 0 .11.02l.1.06.06.1.02.1v.8c0 .49.4.89.9.89h2.04c.16 0 .3.13.3.3v.02l1.5 3.78a.5.5 0 0 0 .46.3c.6 0 1.09.49 1.09 1.08v.91c0 .68-.56 1.24-1.25 1.24Zm-7.8-6.26a1.5 1.5 0 0 0 .36 1.55l3.74 3.57a2 2 0 0 0 1.39.55h2.31c.36 0 .66-.29.66-.64v-.91a.5.5 0 0 0-.5-.49c-.45 0-.85-.27-1.01-.68l-.1-.26h-1.34c-.16 0-.3-.13-.3-.3s.14-.29.3-.29h1.1l-.14-.35h-1.34c-.16 0-.3-.13-.3-.3s.14-.29.3-.29h1.1l-.13-.35H11.7c-.16 0-.3-.13-.3-.3s.14-.29.3-.29h1.12l-.4-1h-1.8a1.5 1.5 0 0 1-1.5-1.48v-.09L7.3 8.81l-.02.03 4.96 4.9q.36.34.86.35h1.85c.16 0 .3.13.3.3s-.14.3-.3.3H13.1c-.48 0-.94-.2-1.28-.53zm1.9 5.32H6.56c-.16 0-.3-.13-.3-.3s.14-.29.3-.29h2.29c.16 0 .3.14.3.3s-.14.3-.3.3m-1.15-.95H6.56c-.16 0-.3-.13-.3-.3s.14-.29.3-.29H7.7c.17 0 .3.14.3.3s-.13.3-.3.3m-3.88-6.7a.2.2 0 0 1-.15-.07l-.74-.73a.2.2 0 0 1 0-.3l2.71-2.69a.23.23 0 0 1 .31 0l.74.73c.09.09.09.23 0 .31L3.98 6.98a.2.2 0 0 1-.16.06ZM3.4 6.1l.43.42 2.4-2.37-.42-.43zm5.17-3.67a.2.2 0 0 1-.16-.06.2.2 0 0 1 0-.3l.54-.53-.46-.45-.55.54a.2.2 0 0 1-.31 0 .2.2 0 0 1 0-.3l.7-.7a.22.22 0 0 1 .32 0l.76.75a.2.2 0 0 1 0 .31l-.69.68a.2.2 0 0 1-.15.06m-7.38 7.3a.2.2 0 0 1-.16-.07L.25 8.9a.2.2 0 0 1 0-.3l.63-.63c.09-.08.23-.08.31 0s.09.23 0 .31l-.47.47.46.45.54-.54c.08-.09.22-.09.3 0s.1.22 0 .3l-.69.7a.2.2 0 0 1-.16.06Z"/><path d="M3.07 9.9a1 1 0 0 1-.62-.24L.25 7.49a.85.85 0 0 1 0-1.21l.07-.07a.9.9 0 0 1 1.23 0l2.2 2.18a.85.85 0 0 1 0 1.2l-.07.07a1 1 0 0 1-.61.25ZM.93 6.4q-.16 0-.3.12l-.07.06a.4.4 0 0 0 0 .6l2.2 2.17c.17.17.44.17.61 0l.06-.06a.4.4 0 0 0 0-.6l-2.2-2.17a.4.4 0 0 0-.3-.12m7.58-.35a1 1 0 0 1-.61-.25L4.16 2.1a.85.85 0 0 1 0-1.2l.07-.07q.25-.24.61-.25c.36-.01.45.09.62.25l3.73 3.69a.85.85 0 0 1 0 1.2l-.06.07a1 1 0 0 1-.61.25Zm-.3-.56c.17.17.44.17.6 0l.07-.06a.4.4 0 0 0 0-.6L5.14 1.15a.43.43 0 0 0-.6 0l-.06.06a.4.4 0 0 0 0 .6z"/><path d="M8.73 4.32a1 1 0 0 1-.62-.25L5.91 1.9a.85.85 0 0 1 0-1.21l.07-.07q.25-.24.61-.25c.36 0 .45.1.62.25L9.4 2.8a.85.85 0 0 1 0 1.2l-.07.07a1 1 0 0 1-.61.25ZM6.59.81a.4.4 0 0 0-.3.12L6.23 1a.4.4 0 0 0 0 .6l2.2 2.17c.16.16.43.16.6 0l.07-.07a.4.4 0 0 0 0-.6L6.9.94a.4.4 0 0 0-.3-.12ZM4.82 9.7a1 1 0 0 1-.62-.26L.47 5.76a.85.85 0 0 1 0-1.21l.07-.06a.87.87 0 0 1 1.23 0l3.72 3.68a.85.85 0 0 1 0 1.21l-.06.07a1 1 0 0 1-.61.25M1.15 4.67a.4.4 0 0 0-.3.12l-.07.07a.4.4 0 0 0 0 .6l3.73 3.68c.17.17.44.17.61 0l.06-.06a.4.4 0 0 0 0-.6L1.45 4.79a.4.4 0 0 0-.3-.12"/></svg>