<svg class="nok-icon %s" height="16" width="16" fill="currentColor" xmlns="http://www.w3.org/2000/svg" viewBox="0 0 16 16"><path d="M11.3 11.59q.58.26 1.27.27h.17a3.15 3.15 0 0 0 2.9-3.15q-.01-1.08-.63-1.9H15l-2.5-3.62-2.3 3.31"/><path d="M7.85 15.65a3.5 3.5 0 0 0 3.5-3.5 3.5 3.5 0 0 0-.71-2.1l-.02-.02-2.77-4-2.78 4-.02.03a3.5 3.5 0 0 0-.7 2.1 3.5 3.5 0 0 0 3.5 3.5"/><path d="M7.85 13.99A1.83 1.83 0 0 1 6 12.16m-2.85-4.1A2.8 2.8 0 0 0 5.4 3.59v-.02L3.15.35.93 3.56v.02a2.8 2.8 0 0 0-.57 1.69 2.8 2.8 0 0 0 2.8 2.8Z"/><path d="M3.16 6.4a1.14 1.14 0 0 1-1.14-1.14"/></svg>