<svg class="nok-icon %s" height="16" width="16" fill="currentColor" xmlns="http://www.w3.org/2000/svg" viewBox="0 0 16 16"><path d="M14.34 15.4h-3.23c-.15 0-.28-.12-.28-.26s.13-.28.28-.28h3l1.3-9h-1.8c-.14 1.22-1.25 2.25-2.5 2.25s-2.36-1.02-2.5-2.25H6.8l.1.69a.27.27 0 0 1-.23.3.27.27 0 0 1-.3-.23l-.15-1q-.01-.11.06-.21c.07-.1.13-.1.2-.1h2.37c.15 0 .27.13.27.28 0 .93.85 1.98 1.98 1.98s1.98-1.05 1.98-1.98c0-.15.12-.27.27-.27h2.37q.12 0 .2.09.08.1.06.22l-1.38 9.54a.3.3 0 0 1-.27.23ZM11.9 3.53a.27.27 0 0 1-.28-.28V1.12h-.92v1.6c0 .15-.12.27-.27.27s-.28-.12-.28-.27V.85c0-.15.13-.27.28-.27h1.47q.11 0 .19.08.1.1.08.2v2.39c0 .15-.13.27-.28.27Z"/><path d="M11.03 5.78a.3.3 0 0 1-.26-.22l-.52-2.58-.91.14.31 1.71a.27.27 0 1 1-.53.1l-.37-1.98q-.01-.12.05-.21.07-.12.18-.11l1.44-.22q.24-.01.31.22l.57 2.83a.27.27 0 0 1-.27.32"/><path d="M10.92 7.01h-.03a.27.27 0 0 1-.24-.3l.41-3.45a.27.27 0 0 1 .3-.24l1.45.13q.12.02.19.1c.07.09.06.14.05.2l-.31 2.53a.27.27 0 0 1-.3.24.27.27 0 0 1-.24-.3l.28-2.25-.9-.09-.39 3.2a.3.3 0 0 1-.27.23m-2.6-1.98a.3.3 0 0 1-.27-.23l-.47-3.16a.3.3 0 0 1 .05-.2.3.3 0 0 1 .18-.1l1.5-.21c.14-.03.28.07.3.22l.23 1.34a.27.27 0 0 1-.22.32.27.27 0 0 1-.32-.23L9.12 1.7l-.96.14.43 2.88a.27.27 0 0 1-.23.3z"/><path d="M7.13 5.78a.3.3 0 0 1-.23-.13L5.6 3.54a.3.3 0 0 1-.02-.22.3.3 0 0 1 .14-.17L7 2.53a.3.3 0 0 1 .35.1l1.2 2a.27.27 0 0 1-.47.27L7.01 3.13l-.79.38 1.14 1.86a.27.27 0 0 1-.23.42Zm2 9.64H1.47a.95.95 0 0 1-.95-.96v-1.24c0-.15.13-.27.28-.27h5.66c.15 0 .27.12.27.27s-.12.27-.27.27h-5.4v.97c0 .23.2.42.4.42h7.69c.22 0 .4-.2.4-.42v-.97H7.3c-.15 0-.27-.12-.27-.27s.12-.27.27-.27h2.51c.15 0 .27.12.27.27v1.24c0 .53-.42.96-.94.96m.68-4.5H.77a.27.27 0 0 1-.27-.28v-.45C.5 8.6 2.34 7.3 4.6 7.3H6c2.26 0 4.1 1.3 4.1 2.88v.45c0 .15-.12.28-.27.28m-8.77-.55h8.5v-.18c0-1.27-1.63-2.33-3.56-2.33H4.6c-1.92 0-3.56 1.06-3.56 2.33z"/><path d="M7.08 14.02a.3.3 0 0 1-.17-.06l-2.1-1.77H.27c-.15 0-.27-.12-.27-.27s.12-.27.27-.27h4.64q.09 0 .18.06l1.88 1.59.56-1.48q.07-.16.25-.17h2.55c.15 0 .27.12.27.27s-.12.27-.27.27H7.97l-.63 1.66a.3.3 0 0 1-.19.17z"/></svg>