<svg class="nok-icon %s" height="16" width="16" fill="currentColor" xmlns="http://www.w3.org/2000/svg" viewBox="0 0 16 16"><path d="M10.34 8.07q-.75 0-1.52-.6l.34-.43q.72.56 1.37.47c.62-.1 1-.62 1-.62l.08-.11h.14c.39-.01.89-.09 1.06-.4.18-.3-.02-.8-.11-.97l-.04-.06v-.08q.04-1.13-.6-1.7c-.83-.75-2.25-.56-2.26-.55l-.08-.55c.07 0 1.7-.23 2.71.69q.8.72.79 2.06c.1.22.38.9.07 1.44q-.34.6-1.4.66c-.17.2-.61.63-1.27.73q-.13.02-.27.02Z"/><path d="M8.04 7.74h-.1a2 2 0 0 1-1-.42l-.06-.05a3 3 0 0 1-.35-.36c-1.3-.2-2-.61-2.19-1.26-.29-1.03 1-2.12 1.15-2.24l.08-.04a1 1 0 0 1 .2-.66q.47-.67 2.03-.85c.49-.06 1.36-.07 1.89.45q.46.47.37 1.28c-.02.15-.15.26-.3.24s-.26-.15-.25-.3q.07-.55-.21-.83c-.26-.26-.78-.37-1.42-.3-1.16.14-1.54.45-1.67.63l-.09.23a6 6 0 0 1 1.86.33.27.27 0 1 1-.19.51A4 4 0 0 0 6 3.83l-.2.05c-.34.3-1.07 1.06-.92 1.62q.17.57 1.5.82c-.1-.51 0-.97.01-1a.27.27 0 1 1 .54.12c-.04.15-.2.85.26 1.36.2.17.47.37.8.39q.57.04 1.12-.6l.04-.03c.2-.15.9-.65 1.32-.66.16-.01.28.11.29.26s-.12.28-.27.29c-.17 0-.64.28-1 .54q-.67.75-1.43.75ZM13 5.78a.3.3 0 0 1-.22-.1c-.54-.73-1.1-.54-1.13-.54a.27.27 0 0 1-.35-.16.27.27 0 0 1 .16-.35c.04-.01.95-.34 1.76.7a.27.27 0 0 1-.22.45m-4.36-.34c-.34 0-.59-.05-.61-.06a.28.28 0 1 1 .13-.54s.96.22 1.62-.3a.27.27 0 0 1 .39.05c.1.12.07.29-.05.38-.48.38-1.05.47-1.48.47"/><path d="M13.12 16a.3.3 0 0 1-.27-.23 15 15 0 0 1-.24-3.24v-.04c.02-.09.46-2.03 1.35-3.32.1-.16 2.6-4.54-1.3-7.41a7.3 7.3 0 0 0-7.8-.18h-.02c-.1.05-2.27 1.05-1.79 4.2.01.13.1 1.09-.24 1.6l-.02.03-1.6 1.88v.15q.04.06.2.07h.04l1 .21q.13.03.19.15c.02.03.36.7.46 1.33l1.14.02c.15 0 .27.13.27.28s-.14.28-.29.27l-1.09-.02c0 .56-.1 1.1-.11 1.13l-.02.05s-.25.72.09 1.01l.03.02c.57.3 2.06.06 3.2-.18a.3.3 0 0 1 .18.02c.34.16.52 1.1.61 1.87a.26.26 0 0 1-.24.3.3.3 0 0 1-.3-.24 5 5 0 0 0-.3-1.38c-2.56.53-3.2.2-3.4.1l-.09-.05c-.66-.49-.36-1.47-.3-1.64.02-.12.13-.78.1-1.31a4 4 0 0 0-.38-1.22l-.85-.17c-.35-.04-.52-.2-.6-.33a.8.8 0 0 1-.05-.67l.04-.08 1.63-1.91c.17-.27.18-.89.14-1.21C2 2.43 4.37 1.2 4.6 1.09c4.53-2.56 8.35.2 8.4.23 4.28 3.16 1.46 8.1 1.43 8.15-.8 1.14-1.23 2.9-1.28 3.12-.06 1.12.1 2.3.25 3.09a.27.27 0 0 1-.23.31z"/></svg>