<svg class="nok-icon %s" height="16" width="16" fill="currentColor" xmlns="http://www.w3.org/2000/svg" viewBox="0 0 16 16"><path d="M14.24 16h-1.6a.3.3 0 0 1-.32-.32c0-3-1.95-4.62-4.5-6.44q-.14-.1-.14-.26c0-.16.05-.2.14-.26l.46-.33.91-.65a.3.3 0 0 1 .38 0c2.41 1.75 5 3.95 5 7.94 0 .17-.15.32-.33.32m-1.29-.64h.96c-.13-3.39-2.37-5.38-4.53-6.97l-.74.52-.09.07c2.36 1.7 4.27 3.43 4.4 6.38M6.62 8.32a.3.3 0 0 1-.18-.06c-2.42-1.75-5-3.96-5-7.94 0-.18.14-.32.32-.32h1.6c.17 0 .32.14.32.32 0 3 1.95 4.62 4.5 6.44q.14.1.14.26c0 .16-.05.2-.14.26l-.46.33-.91.65a.3.3 0 0 1-.19.06M2.1.64c.13 3.39 2.37 5.38 4.53 6.97l.73-.52.1-.07C5.09 5.32 3.18 3.6 3.05.64z"/><path d="M3.36 16h-1.6a.3.3 0 0 1-.32-.32c0-4.42 3.14-6.64 5.91-8.6 2.56-1.8 4.97-3.5 4.97-6.76 0-.17.14-.32.32-.32h1.6c.17 0 .32.15.32.32 0 4.42-3.15 6.64-5.92 8.6-2.55 1.8-4.96 3.5-4.96 6.76 0 .18-.15.32-.32.32m-1.27-.64h.96c.14-3.38 2.62-5.12 5.23-6.97 2.57-1.82 5.48-3.87 5.64-7.75h-.96c-.15 3.38-2.62 5.12-5.23 6.97-2.58 1.81-5.49 3.87-5.64 7.75"/><path d="M12.5 1.93h-9a.3.3 0 0 1-.32-.25q-.03-.16.06-.28.1-.13.25-.14h9.03a.32.32 0 0 1 .31.38v.04a.34.34 0 0 1-.32.25m-.6 1.6H4.09a.3.3 0 0 1-.28-.16l-.01-.03a.3.3 0 0 1 0-.32q.1-.16.28-.16h7.86q.19 0 .28.16t0 .32l-.02.03a.3.3 0 0 1-.28.16Zm-1.2 1.6H5.3a.3.3 0 0 1-.23-.1L5.03 5q-.14-.15-.06-.34c.08-.2.16-.2.3-.2h5.47q.21.01.3.2.07.2-.07.35l-.03.03a.3.3 0 0 1-.23.1Zm-1.88 1.6H7.17a.3.3 0 0 1-.2-.06l.15-.2-.17.19c-.1-.08-.16-.23-.12-.37s.15-.22.3-.22h1.74q.22 0 .31.22.06.21-.11.35l-.05.03a.3.3 0 0 1-.19.07m.05 3.2H7.13a.32.32 0 0 1-.2-.58l.05-.03a.3.3 0 0 1 .19-.06h1.66q.1 0 .2.06c.1.08.17.24.13.37s-.15.24-.29.24Zm1.84 1.6H5.28a.3.3 0 0 1-.32-.32q0-.15.1-.25.08-.1.23-.1h5.42q.14 0 .22.09.11.12.11.24c0 .17-.14.33-.32.33m1.21 1.6H4.07a.3.3 0 0 1-.28-.15.3.3 0 0 1 .01-.35q.1-.16.28-.17h7.84q.18.01.28.17c.05.1.06.24 0 .33s-.16.17-.27.17m.58 1.6H3.5a.32.32 0 0 1-.32-.38l.01-.03a.34.34 0 0 1 .31-.26h9.02q.24.02.31.26l.01.03a.32.32 0 0 1-.31.38Z"/></svg>