<svg class="nok-icon" height="16" width="16" fill="currentColor" xmlns="http://www.w3.org/2000/svg" viewBox="0 0 16 16"><path d="M5.43593 3.90519c1.03882.83545 1.921 1.78907 2.59155 2.9598.2336-.39024.46445-.76125.73927-1.10477.6156-.76675 1.2834-1.47578 2.10786-2.02542.13741-.0907.28307-.17039.43697-.22535.11817-.04123.1594-.11543.1594-.2391 0-1.12126.39573-2.1161.97285-3.0505.13192-.2116.3078-.27756.4617-.17588.15665.10168.16214.2446.02473.46994-.49742.80522-.81621 1.67365-.92889 2.61354-.02198.18413-.01649.35726.14291.50841.28032.26933.3133.65407.3875 1.00584.1319.6266.10718 1.26417.09069 1.899-.011.41773-.10718.82996-.28307 1.21196-.19237.42322-.57437.62934-.97011.78599-.95088.3765-1.93748.45345-2.91034.11542-.32154-.11268-.56063-.10443-.86843.01374-.56613.21436-1.16798.21436-1.7671.15115-.53314-.05771-1.03057-.20886-1.50326-.4672-.47543-.26382-.69804-.68704-.78873-1.18721-.18687-1.05806-.1594-2.10787.16215-3.14119.04672-.15115.10718-.2968.2281-.40673.08519-.0742.08794-.16764.08244-.26658-.02748-.6101-.17863-1.19272-.39024-1.7616-.13466-.36-.31604-.69254-.51941-1.01683-.02748-.04397-.05222-.09069-.07695-.1374-.08245-.1594-.0632-.31055.10443-.3985.15115-.07694.29131-.02198.3875.12093.25008.37375.4507.77224.61834 1.18997.25009.62659.42048 1.27516.40399 1.95671 0 .0797.01099.13741.10718.17039.2858.09619.54139.25009.79972.43422m6.66163 1.72586c-.06596-.42597-.07695-.86018-.21436-1.27241s-.20062-.43971-.57437-.20887c-.08245.04947-.1649.09894-.2446.15665-.71452.51391-1.32188 1.14325-1.86052 1.83305-.36002.45895-.6843.94263-.86019 1.5115-.07695.2501-.04397.33804.18963.44522.0797.03847.16764.06595.25283.08794.46445.12367.93989.1484 1.41532.08794.49468-.0632.96187-.2171 1.37685-.50017.1429-.09619.25009-.22535.3078-.3985.18688-.55238.2226-1.124.21436-1.74235m-8.05497-.71178c-.0797.63209-.07695 1.26417-.01374 1.899.06596.65682.40948 1.0608 1.03058 1.25868.35726.11267.71453.18688 1.09378.2116.4562.03299.89041-.01923 1.31364-.17588.27207-.10168.31879-.2171.23634-.50841-.07145-.25284-.18688-.48918-.32703-.71178-.5304-.8382-1.15974-1.59121-1.9155-2.23704-.27757-.23634-.57162-.4562-.9014-.61834-.1484-.0742-.23085-.03573-.29956.11267-.10993.2336-.1484.48369-.20886.7695Zm1.90725 8.27757c-.58811-.57163-1.28066-.94813-2.01443-1.25868-.27207-.11542-.3023-.18413-.25833-.47818.05222-.36002.09344-.72278.14291-1.08554.03573-.26658.19512-.36826.44246-.26658.95637.393 1.95672.5359 2.98454.60736.62384.04122 1.23944.02748 1.85503-.02199.87118-.0687 1.73137-.21436 2.54208-.55788.34903-.1484.46995-.0742.5304.3023.05772.37375.11818.7475.16765 1.12401.02198.16764-.06046.27757-.2226.34353-.5414.21985-1.05806.48368-1.5335.8272-1.03882.74751-1.76984 1.69564-1.9732 2.99554-.02749.17038-.13192.26382-.3078.26382h-.60736c-.19512 0-.29955-.09893-.32703-.29405-.12367-.92615-.60735-1.66816-1.21745-2.34422-.05497-.06046-.12917-.10168-.20337-.16214m-.67056-2.17382c-.32429-.03848-.62384-.18963-.95637-.24734-.02473.17863-.04397.34078-.06596.50017-.01923.13192.04123.21436.16215.25558.25558.08795.48918.22536.72002.36002 1.32738.78323 2.33872 1.8193 2.71797 3.36654.01924.07145.03298.15665.12642.16214.10993.0055.12916-.0852.1484-.16489.2336-.9921.764-1.79732 1.5115-2.48162.56339-.51666 1.18723-.92614 1.88802-1.2202.17863-.07695.2336-.19237.19237-.371-.01374-.05772-.03298-.11543-.03298-.17314 0-.19787-.0742-.24734-.26657-.18138-.81622.28306-1.66816.40948-2.52285.44246-1.20096.04671-2.40467.03847-3.62487-.24734Z"/></svg>