<svg class="nok-icon %s" height="16" width="16" fill="currentColor" xmlns="http://www.w3.org/2000/svg" viewBox="0 0 16 16"><path d="M14.79 5.08a4 4 0 0 0-2.92-1.21q-1.11.01-2.08.56l-.08-.33a.2.2 0 0 0-.16-.14.2.2 0 0 0-.17.1l-.67 1.52q-.03.1.04.2c.07.1.12.06.19.03l1.54-.61q.1-.06.1-.17 0-.15-.12-.16l-.25-.07A3.62 3.62 0 0 1 15.48 8a3.61 3.61 0 0 1-7.21 0A4.14 4.14 0 0 0 0 8a4.14 4.14 0 0 0 6.21 3.57l.08.33q.03.12.16.13.12 0 .17-.1l.67-1.51q.03-.1-.04-.2c-.07-.1-.12-.06-.19-.03l-1.53.6q-.12.06-.11.18c0 .12.05.14.12.16l.25.07A3.62 3.62 0 0 1 .52 8a3.61 3.61 0 0 1 7.22 0 4.14 4.14 0 1 0 7.05-2.92"/><path d="M5.71 5.97a.8.8 0 1 0 0 1.6.8.8 0 0 0 0-1.6m.27.8c0 .14-.12.26-.27.26a.27.27 0 1 1 .27-.26m-3.43.79a.8.8 0 1 0 0-1.59.8.8 0 0 0 0 1.59m-.27-.8c0-.14.12-.26.27-.26a.27.27 0 1 1-.27.27m1.85 3.6c1.31 0 2.37-.87 2.37-1.93q-.02-.24-.26-.26c-.24-.02-.26.11-.26.26 0 .78-.83 1.4-1.85 1.4s-1.85-.62-1.85-1.4q-.02-.24-.26-.26c-.24-.02-.26.11-.26.26 0 1.06 1.06 1.93 2.37 1.93m10.11-3.6a.8.8 0 1 0-1.59 0 .8.8 0 0 0 1.6 0m-1.07 0c0-.15.12-.27.27-.27a.27.27 0 1 1-.27.27m-2.1 0a.8.8 0 1 0-1.59 0 .8.8 0 0 0 1.59 0m-1.06 0c0-.15.12-.27.27-.27a.27.27 0 1 1-.27.27m-.26 3.6c.14 0 .26-.12.26-.26 0-.78.83-1.4 1.85-1.4s1.85.62 1.85 1.4c0 .14.11.26.26.26s.26-.12.26-.26c0-1.07-1.06-1.93-2.37-1.93S9.5 9.04 9.5 10.1c0 .14.11.26.26.26"/></svg>