<svg class="nok-icon %s" height="16" width="16" fill="currentColor" xmlns="http://www.w3.org/2000/svg" viewBox="0 0 16 16"><path d="M11.43284.00299c.1791-.01792.31343.02686.43582.13432.79701.70747 1.57313 1.43582 2.3403 2.17612.42686.40896.86865.79702 1.2985 1.20299.14627.13731.17612.47164.06866.60895-.11642.14926-.28955.20896-.44776.13433-.16418-.07463-.29552-.2179-.4388-.33433-.1015-.0806-.17016-.20298-.31046-.26268-.61194.67462-1.26865 1.31044-1.8597 2.0209.13433.20596.30448.36417.4806.50447.36716.29254.65373.66866 1.02687.95224.18806.14328.2179.41194.08955.57015-.13433.16418-.53433.19403-.7015.02686-.22388-.22388-.42985-.46268-.6597-.71343-.62388.67463-1.20298 1.3015-1.78209 1.92537-.31343.33433-.63582.6597-.94626 1-.66568.73135-1.35821 1.43582-2.03583 2.15523a98 98 0 0 0-1.31044 1.4179c-.17612.19404-.36418.23284-.61791.15523-.70747-.2179-1.34329-.56418-1.99702-1.06865-.23283.2597-.47761.50149-.68955.77014-.35821.45075-.79403.82389-1.16716 1.25672-.35821.41194-.74627.8-1.12538 1.19403-.21194.2209-.4209.22687-.6179.03284-.17016-.16717-.13732-.34329.07163-.57015.79403-.8597 1.58508-1.72538 2.3791-2.58806.12538-.13732.25075-.27761.39404-.39403.18806-.15224.1791-.3015.02985-.46269-.39105-.42686-.66866-.92537-.91642-1.44477-.2388-.49553-.20895-.6597.17612-1.05075.53433-.5403 1.07463-1.07164 1.58507-1.63582C4.8 7.03582 5.45075 6.39104 6.07463 5.7194c.63582-.68358 1.27462-1.36716 1.92836-2.03582.17014-.17612.32238-.37313.5194-.60298-.22388-.21194-.45672-.42388-.6806-.64478-.19701-.19701-.2-.39104-.0209-.57313.1612-.16418.39702-.15821.58807.0179.48358.45075.96417.9015 1.46268 1.36717.26866-.1612.45075-.39104.64776-.59701.37015-.39105.7194-.8 1.09553-1.1821.16119-.16417.14925-.26566-.01194-.40298-.1224-.1015-.23284-.2179-.33433-.3403-.21493-.26268-.14926-.57612.16716-.7194m-1.38209 8.74925c.28657-.36119.6418-.6597.93433-1.00895.32239-.38508.73134-.69254 1.01791-1.11045.07761-.11343.0806-.1791-.01791-.26866-.2209-.2-.44776-.39701-.6597-.60597-.67463-.67164-1.37612-1.31343-2.07463-1.96418-.17015-.1582-.26269-.0388-.3403.06866-.20298.2806-.47462.49552-.70746.74926-.05672.06268-.1403.11044-.15522.2209.02388.02686.04477.06566.0806.08954.28656.20896.51044.48657.76417.73433.19403.19105.19105.44776.01493.60896-.1403.12537-.36717.09552-.5403-.06866-.22388-.21194-.4597-.41194-.67761-.62985-.14926-.14925-.27463-.14328-.39702.01194-.2388.30746-.52537.57015-.8.84478-.10746.10746-.09552.18507.00896.28358.22388.21194.4388.43582.65671.65373.23582.23283.27165.51343.08657.69552-.20895.20597-.38507.18508-.65373-.08358l-.80896-.8c-.32835.39104-.64179.73731-.98806 1.04478-.19701.17313-.14328.29552.03284.41194.27164.17313.46567.43283.68955.65373.18508.18209.17612.4388.00896.58806-.13732.12238-.41791.10149-.5791-.04478-.23881-.2209-.48657-.43582-.71642-.66567-.1224-.12239-.21791-.13134-.32538 0-.2209.27463-.46865.52836-.7194.77313-.08955.08657-.08955.17015-.02388.2806a7.94 7.94 0 0 0 .75522 1.07761c.56717.68358 1.28956 1.13433 2.08956 1.48358.1194.05075.19403.03284.29253-.06865.56418-.57015 1.09851-1.16717 1.64478-1.75523.68657-.73432 1.38507-1.45671 2.10448-2.21194m2.7582-4.55522c.10448-.17612.2597-.30746.4-.45672.15821-.16716.33135-.31044.46866-.50149.0985-.13433.07164-.21194-.0388-.30746-.25075-.2209-.49254-.45075-.7403-.67463-.15523-.1403-.31642-.27463-.47463-.41194-.25672.12239-.37313.3612-.54925.54328-.40299.41791-.8.8418-1.20896 1.25672-.12537.12836-.13134.20896 0 .34627.34329.35522.73134.66567 1.07761 1.01194.13433.13433.23582.08955.32538-.03284.20597-.2776.47462-.49552.73433-.77313Z"/></svg>