<svg class="nok-icon %s" height="16" width="16" fill="currentColor" xmlns="http://www.w3.org/2000/svg" viewBox="0 0 16 16"><path d="M8 4.57a1.1 1.1 0 1 0 0-2.2 1.1 1.1 0 0 0 0 2.2m0-1.8a.7.7 0 1 1 0 1.4.7.7 0 0 1 0-1.4m5.74 1.8a1.1 1.1 0 1 0 0-2.2 1.1 1.1 0 0 0 0 2.2m0-1.8a.7.7 0 1 1 0 1.4.7.7 0 0 1 0-1.4M14.6 5h-1.73c-.5 0-.95.28-1.26.76l-.74 1.1-.74-1.1A1.5 1.5 0 0 0 8.88 5H7.12c-.49 0-.94.28-1.25.76l-.74 1.1-.74-1.1C4.08 5.28 3.62 5 3.14 5H1.4C.63 5 0 5.62 0 6.4v2.08c0 .71.28 1.19.76 1.34v3.22c0 .33.27.6.6.6h.19a.6.6 0 0 0 .6-.6v-2.5h.3v2.5c0 .33.26.6.6.6h.18a.6.6 0 0 0 .6-.6v-5.6l.44.68-.27.41a.2.2 0 0 0 .05.28c.76.52 1.34.04 1.8-.5l.02-.02.6-.88v5.62c0 .33.27.6.6.6h.18a.6.6 0 0 0 .6-.6v-2.5h.3v2.5c0 .33.27.6.6.6h.19a.6.6 0 0 0 .6-.6V9.37l-.01-.11V7.43l.6.86.01.02c.33.38.7.73 1.16.73q.3 0 .64-.23a.2.2 0 0 0 .06-.28l-.27-.4.44-.69v5.59c0 .33.27.6.6.6h.18a.6.6 0 0 0 .6-.6v-2.5h.3v2.5c0 .33.27.6.6.6h.19a.6.6 0 0 0 .6-.6V9.81c.48-.15.76-.63.76-1.34V6.4c0-.77-.63-1.4-1.4-1.4M3.8 6.65a.2.2 0 0 0-.17-.1.2.2 0 0 0-.2.2l-.01 2.53v.06l.01.03v3.66c0 .1-.09.2-.2.2h-.18a.2.2 0 0 1-.19-.2v-2.7a.2.2 0 0 0-.2-.21h-.7a.2.2 0 0 0-.21.2v2.7c0 .11-.1.2-.2.2h-.18a.2.2 0 0 1-.2-.2V9.38l.01-.04.01-.05V6.76a.2.2 0 0 0-.21-.2.2.2 0 0 0-.2.2v2.6c-.3-.19-.36-.61-.36-.89V6.4c0-.54.44-.98.99-.98h1.73c.35 0 .68.2.91.57L4.9 7.2l-.36.54zm6.66 1.4L9.53 6.7a.2.2 0 0 0-.2-.14.2.2 0 0 0-.2.2l-.01 2.53v.05l.01.04v3.66c0 .1-.08.2-.19.2h-.18a.2.2 0 0 1-.2-.2v-2.7a.2.2 0 0 0-.2-.21h-.7a.2.2 0 0 0-.2.2v2.7c0 .11-.1.2-.2.2h-.19a.2.2 0 0 1-.19-.2V9.35l.01-.06V6.76a.2.2 0 0 0-.36-.15l-.99 1.44c-.48.56-.78.65-1.07.53l1.75-2.61c.23-.36.56-.57.9-.57H8.9c.34 0 .67.21.9.57l1.76 2.6c-.3.13-.6.04-1.08-.52Zm5.13.42c0 .28-.05.7-.35.9l-.01-.1V6.75a.2.2 0 0 0-.2-.2.2.2 0 0 0-.2.2l-.01 2.52v.05l.01.04v3.66c0 .1-.08.2-.19.2h-.19a.2.2 0 0 1-.19-.2v-2.7a.2.2 0 0 0-.2-.21h-.7a.2.2 0 0 0-.21.2v2.7q-.02.18-.2.2h-.18a.2.2 0 0 1-.19-.2V9.35l.01-.06V6.76a.2.2 0 0 0-.21-.2.2.2 0 0 0-.17.09l-.72 1.1-.36-.53.84-1.25c.23-.36.56-.56.9-.56h1.74c.55 0 .99.44.99.98zM2.26 4.57a1.1 1.1 0 1 0 0-2.2 1.1 1.1 0 0 0 0 2.2m0-1.8a.7.7 0 1 1 0 1.4.7.7 0 0 1 0-1.4"/></svg>