<svg class="nok-icon %s" height="16" width="16" fill="currentColor" xmlns="http://www.w3.org/2000/svg" viewBox="0 0 16 16"><path d="M10.3409 8.06873c-.50035 0-1.01169-.20069-1.52028-.60206l.3409-.43162c.4756.37663.93745.53608 1.36906.47285.61856-.09072.99794-.61305 1.0007-.61855l.07972-.11272h.1402c.38763-.011.88798-.08522 1.06117-.38763.1787-.3134-.022-.811-.11271-.97594l-.0385-.06598V5.2701c.0275-.75051-.17319-1.32233-.59656-1.70172-.83298-.74776-2.2543-.55532-2.26804-.55257l-.07697-.54433c.06873-.00825 1.69347-.22818 2.7134.68728.53333.4811.79725 1.17114.7835 2.05636.10722.21993.38763.89622.07698 1.44605-.22818.39862-.69828.6213-1.39656.65704-.1787.20894-.61856.63505-1.2756.73402-.09073.01375-.18145.01925-.27492.01925Z"/><path d="M8.04261 7.73883c-.03299 0-.06598 0-.09622-.00275-.40687-.02749-.75051-.21718-1.00343-.41787a.275.275 0 0 1-.06598-.04398c-.033-.03024-.06323-.06048-.09347-.09072-.11272-.10722-.2007-.20619-.25567-.27492-1.2921-.19794-2.00688-.6103-2.18832-1.2591C4.0536 4.6158 5.3457 3.53264 5.49416 3.41168l.07422-.044c-.011-.17319.0165-.41786.1952-.66254.3189-.4426 1.00343-.72577 2.0371-.84398.4866-.05773 1.36358-.06873 1.88592.45086.3079.3079.43161.73677.37113 1.27835-.0165.1512-.1512.25842-.3024.24192s-.25842-.15395-.24193-.30515c.04124-.37114-.02749-.64055-.21443-.8275-.26117-.26116-.78076-.36838-1.4213-.29415-1.1574.13196-1.53953.44536-1.66599.6213-.06048.08248-.08522.1622-.09072.23368.8-.05498 1.81169.31065 1.85842.32715.14296.05223.21718.20893.16495.35189s-.20893.21443-.35189.16495c-.31615-.11547-1.2591-.39038-1.80619-.27492l-.18694.04674c-.34914.2969-1.08041 1.06667-.92646 1.62474.10447.37388.6213.65705 1.49828.822-.09897-.5141.0055-.97595.01375-1.0062.03574-.14845.1842-.23917.3299-.20343.14845.03574.23917.18145.20343.3299s-.18969.84948.26117 1.35533c.19244.17594.4756.37113.80825.39037.36838.0275.74227-.17594 1.11065-.59106l.04124-.03574c.20344-.15395.90172-.6543 1.32234-.6653.15945-.01099.27766.11547.28316.26667s-.11547.27767-.26667.28317c-.16495.0055-.6378.2804-.98969.54158-.4536.50309-.9402.75601-1.4433.75601Zm4.95945-1.96014c-.08247 0-.16495-.03573-.21718-.10721-.54983-.71753-1.11065-.53334-1.13265-.52784a.2749.2749 0 0 1-.34914-.16495.27216.27216 0 0 1 .15945-.34914c.0385-.01374.9512-.34364 1.75945.70928a.27491.27491 0 0 1-.21718.44261Zm-4.35739-.3354c-.34639 0-.59381-.05772-.6158-.06322-.14846-.03574-.23918-.1842-.20344-.33265s.1842-.23642.33265-.20343c.011.00275.9622.21993 1.62474-.3024a.27216.27216 0 0 1 .38488.04673c.09347.1182.07422.2914-.04674.38488-.48385.37938-1.05567.46735-1.47904.46735Z"/><path d="M13.12302 16c-.13195 0-.24742-.09347-.26941-.22818-.1402-.822-.3189-2.0536-.24742-3.24124 0-.01374.00274-.02749.0055-.04398.01924-.08248.45635-2.02887 1.34982-3.31272.09622-.1677 2.5897-4.54708-1.30034-7.41443-.1457-.10722-3.57938-2.5787-7.79657-.1842-.00824.0055-.01649.00826-.02749.01375-.09072.04124-2.26804 1.03918-1.78694 4.19794.01375.12096.10722 1.08316-.24192 1.6a.165.165 0 0 1-.01925.02474l-1.6 1.88042c-.00824.04673-.01374.11271.00825.14845s.09897.06323.20069.07148c.011 0 .022 0 .03299.0055l.99794.20618c.08247.0165.1512.06873.18969.14296.0165.03299.36013.70928.4646 1.33333l1.13265.01924c.1512 0 .27216.12646.26941.28042 0 .1512-.13196.2804-.2804.26941l-1.09142-.01924c-.00825.55807-.10996 1.1024-.11546 1.1299-.00275.01649-.00825.03024-.01375.04673 0 .0055-.25567.72302.08523 1.01443l.03299.0165c.56907.29416 2.05635.06323 3.2-.18144.06048-.011.12096-.0055.17594.01924.3464.16495.52509 1.11065.6158 1.87491.0165.1512-.09071.28591-.24192.30516-.1512.0165-.2859-.09072-.30515-.24193-.10172-.86048-.23093-1.23436-.3024-1.38281-2.55946.53058-3.18626.20343-3.39794.09622a.22.22 0 0 1-.08523-.044c-.66254-.49209-.36563-1.46803-.30515-1.64398.022-.12096.13196-.78075.09622-1.30859-.0275-.43161-.26392-.98144-.37389-1.21787l-.84948-.17594c-.35189-.033-.52234-.1952-.60481-.32715-.1842-.2914-.06323-.6323-.04674-.6708.011-.03023.0275-.05772.04674-.07972l1.62749-1.9134c.17045-.26941.1787-.88247.14296-1.20962-.51134-3.42268 1.8749-4.6543 2.10859-4.76426 4.53058-2.56495 8.34914.19794 8.38763.22543 4.28866 3.16151 1.46529 8.10447 1.43505 8.15395-.7945 1.14364-1.22337 2.90584-1.27286 3.11478-.06597 1.1244.10447 2.30378.24193 3.09278a.2741.2741 0 0 1-.22543.31615c-.0165 0-.03024.00275-.04674.00275Z"/></svg>