<svg class="nok-icon" height="16" width="16" fill="currentColor" xmlns="http://www.w3.org/2000/svg" viewBox="0 0 16 16"><path d="M4.3403 12.28262h.68638c.1442 0 .26532.01442.26243.20476 0 .18457-.09228.2711-.27109.2711h-.7873c-.40087 0-.80174.00576-1.2026 0-.17592-.0029-.24802.04902-.24514.23647.00866.77001.00577 1.54002 0 2.31002 0 .17016.05768.22783.22783.22783.7527-.00576 1.50541-.00865 2.261 0 .19034 0 .24513-.07786.2336-.2509-.00865-.15573-.00289-.31146 0-.4672.00577-.16438.09805-.26243.26243-.26243.16727 0 .21341.12113.21053.27109 0 .29416-.00577.58832 0 .88536.00577.199-.09517.29416-.27686.29416a562 562 0 0 1-3.11752 0c-.18457 0-.27685-.10093-.27685-.29704.00288-1.05552.00577-2.11103 0-3.16943 0-.1961.08075-.25379.26532-.25379.58255.00577 1.16222 0 1.76784 0M2.30714.89978V.26244C2.30714.09517 2.385 0 2.55804 0H5.0382c.17015 0 .24802.08363.25379.25667.00576.20187-.11536.22206-.2711.21918-.65464 0-1.3093.00576-1.96394-.00577C2.83778.4672 2.77722.53929 2.7801.7527c.01154.74406.00865 1.4881 0 2.23216 0 .18457.04326.26244.24513.25955.74406-.01153 1.4881-.00865 2.23216 0 .1788 0 .25379-.06056.24225-.24225-.00865-.14708-.00865-.29416.00288-.44124.01442-.15285.08075-.25955.26244-.25378.18746.00577.20764.11535.20476.26243-.00289.29416-.00577.58832 0 .88248.00577.17592-.0721.26244-.24225.26244H2.53785c-.18169.00289-.23071-.10959-.23071-.2855.00577-.83346 0-1.6698 0-2.52632Zm2.77145 8.96035h-2.4052c-.31434 0-.36048-.04614-.36048-.35184V6.46287c0-.2855.0346-.32012.33165-.32012h2.33309c.15862 0 .32588 0 .31435.2336-.00865.21053-.14708.24225-.323.24225-.63735 0-1.27758.00577-1.91493-.00577-.20187 0-.27109.06345-.2682.2682a96.2 96.2 0 0 1 0 2.23505c0 .1961.04903.27397.25955.27109.7354-.01154 1.47369-.00866 2.20909 0 .19322 0 .26532-.06633.25378-.25667-.01153-.15573-.01153-.31147.00577-.4672.0173-.1442.11247-.2509.26244-.24225.15861.00577.21052.12113.20764.27686a21.3 21.3 0 0 0 0 .8594c.00577.21919-.09805.31147-.31435.3057-.18745-.00576-.3778 0-.58832 0Z"/><path d="M5.87167.29993c.26532-.15285.52487-.13266.66041.0346.13843.17016.1269.4499-.06633.646-.58255.59698-1.17087 1.18818-1.76496 1.77073-.20476.20188-.48738.18169-.69502-.02307-.2336-.23071-.46431-.45854-.69214-.69502-.20476-.21053-.21918-.48162-.04326-.65466.1615-.15861.47296-.1442.6633.03461.06633.06056.1269.1269.19322.18746.06345.06056.12978.12112.22783.2134.50469-.50468 1.0065-1.0036 1.52271-1.51694ZM3.4434 13.54c.2336-.06633.39798.0375.54795.17016q.1168.10814.22494.22494c.11536.12978.20476.1067.32012-.01153.42682-.44124.86518-.86806 1.29488-1.30354.21918-.22206.44124-.24513.64312-.06344.1961.17592.1961.45566-.01442.66907a255 255 0 0 1-1.76785 1.76784c-.23648.2336-.49027.22206-.72675-.0173-.2134-.2163-.4297-.42682-.63734-.64312-.27686-.2855-.23937-.5739.11824-.79308Zm2.84067-6.2754c-.52776.52776-1.0411 1.0411-1.55732 1.55443-.28551.28263-.4845.28263-.7729 0-.22205-.21917-.44412-.43547-.65753-.66041-.19899-.20765-.20187-.47297-.01153-.64889.17592-.16438.44412-.15284.6287.04038.12977.13554.24513.2855.35183.40663.1961-.06056.2682-.17592.3576-.26532.4124-.40952.82192-.82192 1.22856-1.23432.17303-.17592.36337-.19899.57678-.08363.199.10959.2163.29704.18457.48738-.02884.18457-.21052.25955-.32876.40375M12.6431.9344h.7354c.15862 0 .3057.01441.30858.22205s-.12977.25379-.30858.25379H8.571c-.17303 0-.31722-.0375-.31146-.2509.00577-.199.14997-.22495.31147-.22495zM8.86518 7.5501c-.13843 0-.25379.00866-.36626-.00864-.13843-.0202-.2509-.08364-.23937-.25379.01154-.16438.10382-.2163.26244-.2163 1.63807.0029 3.27325.0029 4.91132 0 .15862 0 .24513.0548.25955.21919.01442.17303-.09228.2336-.23648.2509-.0894.01153-.1788.00865-.27109.00865zm3.28767 6.09374H8.59409c-.17592 0-.3403-.00577-.33454-.24225.00577-.21918.17304-.2336.33165-.2336h4.76136c.04903 0 .10094 0 .14708.01442.13266.03749.21341.11824.19034.2682-.02019.13555-.09805.19323-.2336.19323-.42682-.00289-.85076 0-1.30065 0ZM9.74477 2.78587c-.41817 0-.81038-.00289-1.1997 0-.15862 0-.27687-.02884-.28552-.2163-.01153-.20187.12401-.25378.28263-.25666.34318-.00866.68637-.00289 1.02956-.00289h1.44484c.13266 0 .2682.01442.31147.17592.0519.19322-.02596.29416-.2336.29704-.44124.00289-.88248 0-1.3468 0Zm.44413 6.13987c-.5566 0-1.08724-.00288-1.61788 0-.1788 0-.31435-.04326-.30858-.2509.00576-.199.1442-.22495.30858-.22495h2.45133c.17592 0 .31435.04038.31146.2509-.00288.20188-.14996.22495-.30858.22495h-.83345Zm-.34607 6.14275h-1.2747c-.1615 0-.3028-.03172-.30858-.22783-.00288-.21052.13843-.24801.31435-.24801h2.45422c.14996 0 .30858 0 .30281.22206-.00288.20764-.13266.25667-.31146.25378-.38357-.00288-.77001 0-1.17664 0"/></svg>