<svg class="nok-icon %s" height="16" width="16" fill="currentColor" xmlns="http://www.w3.org/2000/svg" viewBox="0 0 16 16"><path d="M7.24989.05869c-.58322.22008-.98304.57955-1.23247 1.11875-.12104.26043-.14672.39615-.14305.79597 0 .40715.022.53186.15773.83631.27877.6089.83998 1.0454 1.49289 1.1481a2.0064 2.0064 0 0 0 2.15314-1.1481c.14305-.30078.16506-.42182.16506-.83631-.00733-.39615-.02934-.5392-.15406-.79964-.19807-.43283-.48418-.7336-.90967-.96102-.31178-.16873-.42183-.19441-.83998-.20908-.31179-.011-.55755.011-.69326.05502ZM8.453.78129c.67492.35214.93169 1.1481.57955 1.81568-.28244.55755-.90967.83999-1.48922.68593-.99404-.26043-1.36451-1.4819-.66392-2.20816.43283-.45484 1.0454-.56855 1.5736-.29712ZM5.52957 4.8455c-.86932.2164-1.43053.86198-1.49289 1.73865-.011.20907.01834 1.20311.07336 2.20816.08437 1.55525.0917 1.83402.02201 1.87437-.04402.02934-.57955.3448-1.18845.70426s-1.16277.7116-1.23613.78496c-.20907.1944-.2971.40349-.2971.7226s.05501.46585.2971.71527c.16507.17607.16873.17974.07336.36314-.13571.26043-.16873.73728-.0807 1.06006.09538.3448.55755.82898.88034.92068s10.51627.08437 10.81705-.00733c.12472-.03302.3228-.15406.4475-.26043.46585-.39248.61257-.97203.40349-1.5736-.1137-.33379-.1137-.34112-.00734-.43282.48785-.4145.44384-1.32417-.08436-1.63595-.0917-.05502-.66392-.39248-1.2618-.74461l-1.09675-.64191v-.20541c0-.1137.04035-1.01238.09537-1.99908.0807-1.45988.0807-1.85603.022-2.10546-.14305-.66025-.6419-1.21412-1.27647-1.44154-.26043-.09537-.5172-.10637-2.53095-.11738-1.81202-.00733-2.30353.00734-2.5823.07336Zm5.05457.7446c.50985.27144.7226.66025.7226 1.32417 0 .23109-.04402 1.22146-.1027 2.19349-.05136.9757-.08437 1.80468-.06236 1.85236.01834.04402.61256.43283 1.32783.85099 1.30582.77762 1.4929.91334 1.4929 1.08574 0 .13205-.20542.32278-.3338.32278-.08436 0-3.12884-1.6873-3.23521-1.79-.011-.01834.011-1.02338.05135-2.24117.05502-1.779.05502-2.23017 0-2.29987-.0917-.10637-.42182-.10637-.50986 0-.05135.06236-.09537.73361-.15406 2.40257-.04034 1.27281-.06235 2.36589-.04401 2.42824.01834.0917.4475.36314 1.60293 1.02339 1.79368 1.01605 2.03943 1.17377 2.21917 1.44154.23842.35213.13205.83631-.23842 1.0564-.16507.1027-.36314.10637-3.7084.1247l-3.52498.01835-.07336-.21642q-.2531-.76478.35213-1.12242c.17606-.1027.32278-.1137 1.6873-.14305 1.6176-.02934 1.59926-.02934 1.59926-.35213 0-.30078-.12471-.33013-1.5149-.33013s-1.6983.04402-2.1238.26044c-.54653.27143-.77395.7446-.71526 1.47088l.04035.4255H4.15773c-1.0344 0-1.20312-.01835-1.4122-.10638-.28244-.13205-.41449-.35947-.41449-.7226 0-.24943.022-.28978.27144-.5282.17606-.16873.84731-.59056 1.9514-1.22146.92434-.52086 1.6983-.9867 1.71664-1.03439.05135-.13572-.13205-4.7281-.1944-4.84915-.04036-.0807-.12105-.11371-.24943-.11371-.35214 0-.3448-.05135-.26777 2.39523.03301 1.22146.06235 2.2265.05135 2.23017-.16506.13205-3.15085 1.79-3.23154 1.79-.14306 0-.3338-.1944-.3338-.33379 0-.06235.04035-.15405.08437-.19807.05135-.05135.67492-.44383 1.39752-.86933.862-.52086 1.31316-.82164 1.33517-.89867.01834-.06235-.022-1.03438-.08437-2.1568-.1137-1.96974-.10637-2.21917.04035-2.5823.10638-.27144.47685-.56855.862-.68593.08069-.022 1.16276-.04035 2.41357-.03301 2.20816.011 2.27785.01834 2.49793.13571Z"/></svg>