<svg class="nok-icon %s" height="16" width="16" fill="currentColor" xmlns="http://www.w3.org/2000/svg" viewBox="0 0 16 16"><path d="M13.51 15.44c-.54.42-1.16.56-1.82.56H4.2q-1.5.01-2.3-1.25c-.2-.32-.28-.68-.33-1.04l-.38-2.86-.35-2.7-.33-2.4C.42 5.1.47 4.51.88 3.98q.5-.62 1.28-.69c.35-.03.7 0 1.06 0 .16 0 .22.04.22.2 0 .6.04.49-.47.5-.3.02-.58-.04-.87.05-.67.22-1 .8-.88 1.49q.16 1.05.28 2.11.16 1 .28 1.97l.25 1.95q.14 1.13.3 2.24c.13.8.91 1.43 1.71 1.43h3.24q.38 0 .38-.4v-4.6q0-.3.26-.4c.17-.06.3.03.4.15.07.1.05.2.05.3v4.62c0 .32 0 .32.32.32h3.33c.83 0 1.6-.73 1.7-1.56q.13-1.18.31-2.36l.3-2.35.33-2.36.15-1.36c.06-.58-.4-1.2-1.19-1.24h-.82c-.18.01-.27-.04-.26-.24.02-.55-.04-.47.46-.46.37 0 .74-.05 1.11.04.8.19 1.38.86 1.42 1.67.03.5-.07.98-.13 1.47l-.26 2.05-.27 1.95-.26 2.05-.22 1.52q-.18.83-.87 1.4Z"/><path d="M7.82 0a3.6 3.6 0 0 1 2.75 1 3.4 3.4 0 0 1 1.07 1.94 3.7 3.7 0 0 1-1.09 3.48q-.9.86-2.2.98-1.5.13-2.67-.8A3.6 3.6 0 0 1 4.31 4Q4.2 2.62 5 1.51A3.6 3.6 0 0 1 7.82.01m2.07 1.4Q8.84.54 7.5.77a2.9 2.9 0 0 0-2.2 1.69 2.8 2.8 0 0 0 .2 2.84 2.8 2.8 0 0 0 2.84 1.36 2.97 2.97 0 0 0 1.54-5.25Zm-3.6 11.43q.13.53-.25.71c-.26.13-.54.08-.7-.11a.6.6 0 0 1-.02-.73c.27-.34.76-.29.97.13m-1.97-.3c.29.22.37.4.29.66q-.12.4-.49.42-.35.04-.54-.28c-.12-.23-.12-.5.05-.67q.28-.29.69-.12m8.05.1c.37.55-.02.98-.41.98q-.35 0-.5-.3a.6.6 0 0 1 .06-.66.5.5 0 0 1 .6-.15q.12.03.25.12m-7.18-1.68c.15-.44.25-.52.66-.5a.5.5 0 0 1 .48.49c.01.31-.19.57-.46.6-.41.04-.59-.1-.68-.59m4.68 1.65c.25-.14.48-.19.71 0 .23.17.29.57.12.8a.6.6 0 0 1-.78.12c-.25-.18-.31-.55-.13-.84zm2.6-3.46q-.22.4-.65.31a.5.5 0 0 1-.39-.32.6.6 0 0 1 .17-.67c.16-.12.5-.14.66-.03q.36.22.21.7m-1.8.16c-.28.24-.7.23-.87 0a.6.6 0 0 1 .14-.85c.2-.13.54-.1.71.06.18.17.2.5.03.8Zm1.8 1.47c.1.32-.02.63-.28.75a.56.56 0 0 1-.73-.24.55.55 0 0 1 .16-.74c.26-.2.63-.1.86.23m-8.52-.32c.53-.1.78.45.63.77a.6.6 0 0 1-.68.32c-.23-.04-.41-.29-.41-.55q0-.44.46-.54m-.3-1.92c.24-.19.55-.22.74-.07q.28.21.22.57c-.06.22-.17.4-.42.43q-.42.08-.64-.27-.18-.35.1-.66m6.37 1.93h.2q.44 0 .54.32c.07.25 0 .54-.17.66-.22.15-.53.15-.7 0a.6.6 0 0 1-.17-.69q.08-.18.3-.29M5.99 9.45c-.48.05-.64-.03-.76-.38a.6.6 0 0 1 .25-.64.6.6 0 0 1 .74.15c.16.2.15.5-.01.69z"/><path d="m7.84 3.33 1.12-.98.16-.14c.16-.12.42-.1.53.04.1.13.1.4-.04.52l-1.1.98-.28.26-.25.2c-.16.09-.41.05-.5-.1q-.15-.25.06-.48z"/></svg>