<svg class="nok-icon" height="16" width="16" fill="currentColor" xmlns="http://www.w3.org/2000/svg" viewBox="0 0 16 16"><path d="M10.90715 16h-.5344v-2.29526l3.4549-1.56045a.8123.8123 0 0 0 .46226-.90314l-.74014-3.66867c-.0294-.1523-.12024-.28056-.24583-.35538-.2859-.16834-.59586-.17902-.84703-.03474-.23246.1336-.37408.38477-.37408.65732v2.35938l-.18437.06146c-1.05544.37675-2.19639.56647-3.41215.56647h-.97529c-1.21576 0-2.35938-.18972-3.3988-.56112l-.17635-.06413-.02405-.19773V7.83968c0-.27255-.14161-.52371-.37408-.65732-.25651-.14696-.55845-.13627-.84703.03474-.12558.07215-.21376.20307-.24582.35538l-.74015 3.66867a.8123.8123 0 0 0 .46226.90314l3.45491 1.56045V16h-.5344v-1.95057L1.9479 12.6306a1.3387 1.3387 0 0 1-.76687-1.49365l.74015-3.66867c.06145-.30194.24315-.56112.49966-.71075.45692-.2672.95925-.28057 1.3841-.03741.39813.22979.64396.65998.64129 1.12224V9.8143c.95658.31796 1.97996.47561 3.06746.47561h.97529c1.09285 0 2.12157-.16032 3.06212-.47561V7.83968c0-.46226.24316-.89245.64128-1.11957.42485-.24316.9272-.2298 1.3841.0374.25652.14964.43822.40882.49967.71076l.74015 3.66867c.12558.6199-.18971 1.23447-.76687 1.49365l-3.13961 1.41884V16ZM8.0187 9.76353c-1.90781 0-3.45758-1.55244-3.45758-3.45758S6.11356 2.84836 8.0187 2.84836s3.4576 1.55244 3.4576 3.45759-1.55245 3.45758-3.4576 3.45758m0-6.38344c-1.61122 0-2.92318 1.31196-2.92318 2.92318S6.40748 9.22645 8.0187 9.22645s2.92318-1.31195 2.92318-2.92318S9.62993 3.3801 8.0187 3.3801m-4.88176.2004c-.07749-.01336-.16032.00535-.22178.05344l-.41416.30194-.28858-.42218c-.09084-.1336-.27254-.16833-.40881-.07748-.1336.09084-.16834.27254-.0775.40881l.4596.67335a.2939.2939 0 0 0 .41683.06947l.41416-.30193.28858.42217a.2947.2947 0 0 0 .40881.0775c.1336-.09086.16834-.27255.0775-.40883l-.4596-.67334c-.04542-.0668-.11489-.10956-.19238-.12292Zm.96994-.50768c.02672.14162.14963.23781.28858.23781.0187 0 .0374 0 .05611-.00534.16032-.0294.26453-.18437.23246-.3447l-.16299-.839a.29125.29125 0 0 0-.32598-.23514l-.57449.07482-.10955-.56647c-.02939-.15765-.1817-.26453-.34202-.23247-.16032.0294-.26452.18437-.23246.3447l.16032.839c.0294.15231.171.25652.32599.23514l.57448-.07749zm1.67802-.65998q.03608.00801.07215.00801c.13093 0 .25117-.08817.28323-.22178l.20307-.81229c.04008-.15497-.05344-.31262-.21109-.35537L5.60321.89245 5.7368.3634c.04008-.15765-.05612-.3153-.21376-.35537-.15498-.04008-.3153.0561-.35538.21376l-.20307.80962c-.04008.15497.05344.31262.20841.35537l.52906.13895-.13093.53173c-.04008.15765.05611.3153.21376.35538m6.70675 2.4235c.09352 0 .18704-.04541.24315-.12825l.28858-.42217.41416.30193c.06413.0481.14429.0668.22445.05344.07749-.01336.14696-.05878.19239-.12291l.45958-.67335c.09085-.1336.05611-.3153-.07749-.40881-.1336-.09085-.3153-.05612-.40881.07748l-.28858.42218-.41416-.30194c-.06413-.0481-.1443-.0668-.22178-.05344s-.14696.05879-.19239.12292l-.45958.67334c-.09085.1336-.05611.3153.07749.40882.05077.03474.10688.05077.16566.05077Zm.4489-2.4903.16032-.83902c.0294-.16032-.07482-.31262-.23247-.34469-.16032-.02939-.31262.07482-.34469.23247l-.10955.56647-.57448-.07482c-.1523-.0187-.2966.08283-.32599.23514l-.16299.839c-.0294.16033.07482.31263.23247.3447.0187.00267.0374.00534.0561.00534.13895 0 .26187-.09886.28859-.2378l.10955-.56915.57448.0775c.1523.0187.2966-.08284.32599-.23514Zm-3.24382-.95658.20307.81229c.03206.1336.1523.22177.28323.22177q.03607 0 .07215-.00801c.15765-.04008.25384-.19773.21376-.35538L10.338 1.5284l.52906-.13894c.15497-.04008.2485-.2004.20841-.35538L10.8724.22446c-.04008-.15765-.19773-.25384-.35538-.21376s-.25384.19773-.21376.35538l.1336.52905-.52905.13895c-.15498.04008-.2485.19773-.20842.35538Z"/></svg>