<svg class="nok-icon %s" height="16" width="16" fill="currentColor" xmlns="http://www.w3.org/2000/svg" viewBox="0 0 16 16"><path d="M16 10.56H4.18l-2-8.19H.56v.7H0V1.81h2.62l.33 1.37L16 4.28zM4.62 10h10.82V4.8L3.09 3.75z"/><path d="M5.96 10.28h-.57V3.44h.57zm3.92 0h-.56V4.02h.56zm3.92 0h-.56V4.36h.56z"/><path d="M15.72 7.35H3.62v-.56h12.1zm-7.46 6.43C6.68 15 4.86 13.2 6.1 11.61c1.59-1.23 3.4.59 2.17 2.17m-.4-1.76c-1-.77-2.12.36-1.36 1.36.99.75 2.11-.37 1.36-1.36M14 13.78c-1.58 1.22-3.4-.58-2.17-2.17 1.59-1.23 3.4.59 2.17 2.17m-.4-1.76c-1-.77-2.13.36-1.36 1.36.98.75 2.11-.37 1.36-1.36"/></svg>