<svg class="nok-icon %s" height="16" width="16" fill="currentColor" xmlns="http://www.w3.org/2000/svg" viewBox="0 0 16 16"><path d="M2.88 14.2a19 19 0 0 1-.6-2.85 12 12 0 0 1-.08-1.7 5.4 5.4 0 0 1 .88-2.89c.3-.45.63-.88.87-1.37.4-.82.45-1.68.36-2.56Q4.18 1.75 3.7.76c-.1-.22-.05-.42.1-.5.2-.1.4-.03.52.2q.41.86.58 1.77c.1.5.1 1 .1 1.5q0 1.41-.8 2.6c-.25.39-.55.75-.76 1.18l-.1.24c1.33.93 7.66.93 9.3 0-.03-.23-.18-.4-.3-.6-.23-.39-.52-.74-.75-1.13a5 5 0 0 1-.57-1.74A7 7 0 0 1 11.7.43c.08-.15.2-.25.4-.2s.24.18.23.37c0 .22-.14.4-.22.59a6 6 0 0 0-.46 2.68c.06.8.3 1.53.8 2.19a6 6 0 0 1 1.21 2.43c.17.81.16 1.63.1 2.45a18 18 0 0 1-.7 3.49q-.15.54-.34 1.09-.11.33-.45.24c-.16-.05-.26-.26-.2-.47a24 24 0 0 0 1-4.13c.05-.43.1-.87.04-1.32-.36.09-.64.3-.94.47q-1.35.74-2.58 1.65c-.3.22-.56.52-.91.64-.33.1-.37.29-.36.58v2.2c0 .28-.09.38-.32.39q-.34.02-.34-.4v-2.41c0-.16-.03-.24-.2-.29-.4-.1-.66-.42-.97-.64a26 26 0 0 0-2.77-1.77L2.9 9.8c-.07.27-.05.51-.03.75a21 21 0 0 0 1.05 4.78c.04.19 0 .35-.2.42s-.39-.02-.46-.24zm6.47-5.11c-.57.04-1.13.1-1.7.07L7 9.13q-.43-.02-.85-.06a16 16 0 0 1-2.87-.58c-.06-.01-.12-.05-.2 0-.15.12-.13.53.05.63l1 .55c1.15.65 2.26 1.33 3.29 2.17.37.3.8.31 1.16.03a24 24 0 0 1 4.23-2.68c.26-.12.28-.26.22-.5-.05-.2-.12-.27-.35-.2q-1.6.48-3.33.6"/><path d="m2.15 3.27-.45-.53c-.16-.17-.2-.39-.07-.52.14-.15.37-.16.55.01q.45.46.89.94c.46.48.46.53-.02 1.01l-.86.9c-.17.18-.4.2-.54.06s-.13-.38.04-.54l.55-.5c-.12-.12-.22-.1-.3-.1H.4q-.42.01-.4-.34-.02-.33.4-.33h1.5c.08 0 .17.04.25-.05ZM13.17 4.4l-.39-.4c-.23-.24-.23-.44.01-.69l1.05-1.05c.15-.15.3-.22.5-.08.13.1.15.37.02.53l-.4.43q-.09.04-.12.16.15.04.3.03h1.51q.37 0 .36.33 0 .33-.35.33h-1.54c-.08 0-.18-.02-.29.05q.26.27.5.56c.13.17.16.43.03.54-.14.12-.41.1-.55-.08q-.29-.34-.63-.67Zm-4.8 1.09q-.27.28-.6.12c-.25-.13-.21-.38-.2-.6q.03-.3.33-.37c.32-.1.65.26.56.6q-.03.12-.1.25"/></svg>