<svg class="nok-icon" height="16" width="16" fill="currentColor" xmlns="http://www.w3.org/2000/svg" viewBox="0 0 16 16"><path d="M7.99866 13.066c-2.79365 0-5.066-2.27235-5.066-5.066s2.27235-5.06867 5.066-5.06867 5.066 2.27235 5.066 5.066-2.27235 5.066-5.066 5.066Zm0-9.6c-2.49958 0-4.534 2.03442-4.534 4.534s2.03442 4.534 4.534 4.534 4.534-2.03442 4.534-4.534-2.03441-4.534-4.534-4.534"/><path d="M7.99866 11.46466c-1.91144 0-3.46733-1.55589-3.46733-3.46733s1.55589-3.46734 3.46733-3.46734S11.466 6.0859 11.466 7.99733s-1.5559 3.46733-3.46734 3.46733m0-6.4c-1.61737 0-2.93266 1.31529-2.93266 2.93267s1.31529 2.93266 2.93266 2.93266 2.93267-1.31529 2.93267-2.93266-1.31529-2.93267-2.93267-2.93267m-6.66733-.83408c-.14704 0-.26734-.1203-.26734-.26734V2.66667c0-.14704.1203-.26734.26734-.26734s.26733.1203.26733.26734v1.29657c0 .14704-.1203.26734-.26733.26734"/><path d="M1.334 13.60067c-.4411 0-.79933-.35823-.79933-.79933V6.35589A.802.802 0 0 1 0 5.60201V3.9659c0-.14703.1203-.26733.26734-.26733h2.13333c.14703 0 .26733.1203.26733.26733V5.602c0 .34753-.22188.64427-.532.75388v6.44545c0 .4411-.35822.79933-.79932.79933Zm-.79933-9.3701v1.37144c0 .14703.1203.26733.26734.26733s.26733.1203.26733.26734V12.804c0 .14703.1203.26734.26734.26734s.26733-.1203.26733-.26734v-6.67c0-.14704.1203-.26734.26734-.26734s.26733-.1203.26733-.26734V4.2279H.53467Z"/><path d="M2.40067 4.23058c-.14704 0-.26734-.1203-.26734-.26734V2.66667c0-.14704.1203-.26734.26734-.26734s.26733.1203.26733.26734v1.29657c0 .14704-.1203.26734-.26733.26734m12.79732 9.36741c-.4411 0-.79933-.35822-.79933-.79933V9.56658c0-.29407-.2406-.532-.53467-.532-.14703 0-.26733-.1203-.26733-.26733V6.35856c0-2.34185 1.20033-3.69724 1.25113-3.75338.2005-.2005.48655-.25932.73517-.15505s.4117.34486.4117.61487v9.73099c0 .4411-.35824.79933-.79934.79933Zm-1.06666-5.06332a1.0667 1.0667 0 0 1 .79933 1.03191v3.23208c0 .14704.1203.26734.26733.26734s.26734-.1203.26734-.26734v-9.731c0-.0802-.05614-.11227-.08287-.12296a.123.123 0 0 0-.14436.0294s-1.10677 1.25915-1.10677 3.38714v2.1761Zm-13.864-4.3041C.1203 4.23058 0 4.11028 0 3.96325V2.66667c0-.14704.1203-.26734.26734-.26734s.26733.1203.26733.26734v1.29657c0 .14704-.1203.26734-.26733.26734"/></svg>