<svg class="nok-icon" height="16" width="16" fill="currentColor" xmlns="http://www.w3.org/2000/svg" viewBox="0 0 16 16"><path d="M14.24043 16h-1.59858c-.17667 0-.31914-.14248-.31914-.31915 0-3.00053-1.95192-4.62475-4.50508-6.43704-.08548-.05984-.13393-.15672-.13393-.26215s.0513-.20232.13393-.26216l.46162-.3277c.30205-.2137.60695-.43027.91185-.65253.11113-.08264.265-.08264.37613 0 2.41639 1.75245 4.9952 3.95512 4.9952 7.93874 0 .17666-.14248.31914-.31915.31914Zm-1.28798-.64114h.96028c-.13392-3.38522-2.37079-5.37703-4.53642-6.9642-.24505.17667-.49011.35049-.73232.5186l-.09403.06555c2.36224 1.70685 4.27141 3.4308 4.40249 6.3772ZM6.62369 8.32057c-.06554 0-.13108-.01995-.18807-.05984-2.41639-1.7553-4.9952-3.95797-4.9952-7.94158C1.44043.14248 1.5829 0 1.75958 0h1.59858c.17667 0 .31914.14248.31914.31915 0 3.00053 1.95192 4.62475 4.50508 6.43989.08548.05984.13393.15672.13393.26215s-.0513.19947-.13393.2593l-.46162.3277c-.30205.21372-.60695.43028-.91185.65254-.05699.0399-.12252.05984-.18806.05984ZM2.08727.64114c.13392 3.38522 2.37079 5.37703 4.53642 6.9642.24505-.17667.49011-.35049.72947-.5186l.09404-.06555C5.0878 5.3115 3.17578 3.58753 3.04755.64114z"/><path d="M3.361 16H1.75957c-.17667 0-.31914-.14248-.31914-.31915 0-4.41959 3.14016-6.6365 5.91273-8.59412C9.90917 5.283 12.31986 3.58183 12.31986.322c0-.17666.14247-.31914.31914-.31914h1.59858c.17667 0 .31914.14248.31914.31914 0 4.4196-3.143 6.63651-5.91273 8.59413-2.55316 1.80374-4.9667 3.5049-4.9667 6.76473 0 .17667-.14247.31915-.31914.31915Zm-1.27373-.64114h.96028c.14533-3.37952 2.6187-5.12342 5.22885-6.96705 2.57596-1.81799 5.48531-3.87249 5.63918-7.75352h-.96028c-.14533 3.37952-2.6187 5.12342-5.22885 6.96705-2.57596 1.81799-5.48531 3.87249-5.63633 7.75067Z"/><path d="M12.50793 1.93482h-9.013c-.15103 0-.2821-.10543-.31345-.25646-.01995-.09403 0-.20801.06269-.2821.05984-.07409.14817-.13393.24506-.13393h9.02724a.31744.31744 0 0 1 .31345.38184c0 .0057-.0057.0285-.00855.03704-.03704.13963-.16812.2536-.31344.2536m-.5927 1.60143H4.08477c-.11968 0-.22796-.06554-.2821-.17097l-.01425-.02564c-.05414-.09974-.05414-.21942.00285-.31915.057-.09688.16243-.15672.2764-.15672h7.86465c.11398 0 .21657.05984.2764.15672.057.09688.05985.21656.0057.3163 0 0-.0171.03134-.01994.03134-.057.09973-.16527.16527-.2821.16527Zm-1.2025 1.59858H5.29297c-.08549 0-.16813-.0342-.23082-.09689l-.03419-.03419c-.08833-.09403-.11113-.22796-.05984-.3448s.16527-.19376.2935-.19376h5.4796c.12824 0 .24507.07694.2935.19662.0513.11968.02565.25645-.06553.34764l-.03134.0342c-.05984.05983-.14248.09403-.22512.09403ZM8.83206 6.73624H7.16794c-.06839 0-.13392-.0228-.19091-.06269l.14532-.20801-.16812.19377c-.11113-.08264-.16812-.23366-.12538-.36474s.15387-.22796.2935-.22796H8.8748c.13678 0 .2593.08833.3049.21941.04274.13108-.00285.2764-.11398.35619l-.04275.03134c-.05414.0399-.12252.0627-.19091.0627m.04559 3.2H7.1252c-.13963 0-.2593-.08834-.3049-.21942-.04274-.13108.00285-.2764.11398-.35619l.04275-.03134c.05414-.0399.12252-.0627.19091-.0627h1.66412c.06839 0 .13392.0228.19091.0627.11114.08263.17952.2422.13393.37328-.04274.13108-.14532.23651-.2821.23651Zm1.84363 1.59857H5.28157c-.17667 0-.31915-.14248-.31915-.31915 0-.08263.03135-.18237.08834-.24506.05984-.06553.14817-.10828.23936-.10828h5.41976c.08549 0 .16528.0342.22512.09404s.10543.15387.10543.23936c0 .17667-.14248.33909-.31915.33909m1.21104 1.59857H4.06768c-.11398 0-.21657-.05984-.2764-.15672a.322.322 0 0 1 .0114-.3448c.05698-.09687.17096-.17096.2821-.17096h7.83045c.11968 0 .22796.06554.2821.17097.05414.09973.05984.23366.00285.33054s-.15672.17097-.26786.17097m.5813 1.60143H3.48638a.31744.31744 0 0 1-.31345-.38184c0-.0057.0057-.0285.00855-.03704.03704-.13963.16812-.2536.31344-.2536h9.013c.15103 0 .2821.10827.31345.25645l.00855.0342a.31744.31744 0 0 1-.31345.38183Z"/></svg>