<svg class="nok-icon %s" height="16" width="16" fill="currentColor" xmlns="http://www.w3.org/2000/svg" viewBox="0 0 16 16"><path d="M10.78 1.6a2.6 2.6 0 0 1 2.65.25 2.5 2.5 0 0 1 1.06 2c.03.66-.02 1.32.14 1.97q.18.71.48 1.36c.17.37.12.52-.26.65-.1.04-.2.04-.28.14.16.15.37.2.56.29q.45.2.6.7.24.84.28 1.7c0 .18-.05.31-.26.3q-.29-.01-.3-.31a8 8 0 0 0-.26-1.5.5.5 0 0 0-.28-.34l-1.7-.78q-.19-.1-.33.06l-.67.67q-.27.3-.56 0-.36-.33-.69-.68-.14-.15-.32-.05l-1.58.7q-.37.14-.45.52-.11.41-.16.83c-.02.16-.07.28-.3.3l.62.29c.31.13.47.39.56.7l.07.3c.03.25.11.45.39.56.2.08.24.31.25.52v1.55q-.01.36-.29.35c-.2-.01-.27-.15-.26-.34v-1.37c0-.2-.06-.3-.28-.3q-4.19.02-8.38 0c-.22 0-.28.1-.28.3v1.34q0 .4-.3.37c-.2-.02-.25-.17-.25-.37V12.7c0-.26.09-.47.36-.56q.18-.08.2-.26l.1-.41q.12-.68.78-.9l1.9-.8q.45-.18.16-.56a4 4 0 0 1-.62-1.17q-.1-.32-.33-.58c-.21-.25-.21-.56-.06-.84.12-.23.1-.45.08-.68a2.6 2.6 0 0 1 .32-1.66 1 1 0 0 1 .45-.36q.24-.1.43-.3c.42-.41.96-.47 1.5-.37a2.7 2.7 0 0 1 2.22 3.09q-.03.17.04.33c.1.26.13.55-.07.75-.26.29-.32.65-.47.98q-.19.45-.5.81c-.16.18-.15.4.07.5q.64.29 1.34.57c-.04-.47.09-.88.18-1.3q.1-.46.53-.67l.67-.34-.45-.2q-.34-.16-.18-.47a6 6 0 0 0 .67-3.1c-.03-.98.28-1.85 1.17-2.42zm-.84 3.36.02-.4c0-.4.03-.43.4-.52q.65-.14 1.23-.45c.26-.14.51-.3.59-.63.03-.13.16-.14.28-.14q.2 0 .24.15c.06.41.32.7.66.83.5.2.58.54.53 1q-.02.33 0 .68-.01.3-.1.6a2 2 0 0 1-.56.92c-.07.06-.15.12-.11.26.04.13.13.16.24.18q.37.07.76 0c.13-.02.29 0 .4-.14l-.07-.17a6 6 0 0 1-.5-2.57q.01-.45-.05-.91a2.1 2.1 0 0 0-1.77-1.72c-.71-.1-1.42.22-1.9.95-.44.65-.34 1.4-.33 2.14-.08.23-.06.49-.11.73a9 9 0 0 1-.5 1.59q.64.22 1.26.08.14-.04.17-.2c.03-.15-.03-.13-.1-.19A2 2 0 0 1 10 6c-.08-.33 0-.67-.06-1.04M4.61 3.8a1 1 0 0 0-.57.4c-.06.07-.12.16-.23.17-.4.05-.56.32-.63.66q-.11.68-.01 1.35c.02.18.06.37-.15.5-.1.07-.07.2.01.24.21.12.26.33.32.53q.15.46.4.87c.16.28.32.56.7.61q.36.06.72.04c.39-.03.76-.1.98-.48l.39-.75c.13-.3.15-.64.45-.85.11-.1.02-.19-.06-.25q-.2-.16-.1-.38c.24-.6.1-1.13-.2-1.65a2.1 2.1 0 0 0-2.03-1m4.11 7.57q-.06-.17-.23-.22l-2.02-.85a.5.5 0 0 0-.36-.03q-1.1.4-2.2.01a.5.5 0 0 0-.36.01l-1.79.75a.9.9 0 0 0-.59.71c-.06.33-.07.33.26.33h6.85c.71 0 .7.16.45-.71m2.55-4.63c.98.55 2.08-.32 2.02-1.25a8 8 0 0 1 0-.87q0-.22-.17-.3a3 3 0 0 1-.6-.47c-.07-.07-.15-.13-.25-.05-.48.38-1.04.56-1.6.73q-.17.04-.17.22v.72q.02.83.77 1.27m.4 1.24.28.19q.3-.25.57-.56.09-.06.05-.17c-.04-.08-.1-.03-.16-.02a2 2 0 0 1-1.02-.01c-.05-.02-.1-.04-.14.03q-.04.08.05.14zm-6.3 1.74c-.4 0-.8.02-1.23-.08.25.34 1.4.34 1.68.04q-.2-.02-.46.04"/></svg>