<svg class="nok-icon" height="16" width="16" fill="currentColor" xmlns="http://www.w3.org/2000/svg" viewBox="0 0 16 16"><path d="M9.62312 15.78399c-1.10743 0-2.01103-.90055-2.01103-2.01103V9.62921c0-1.10744.90055-2.01103 2.01103-2.01103.52938 0 1.04659.216 1.4208.59022a2.0232 2.0232 0 0 1 .59023 1.4208v4.14376c0 1.10744-.90055 2.01103-2.01103 2.01103m0-7.53908c-.76364 0-1.3843.62065-1.3843 1.3843v4.14375c0 .76364.62066 1.3843 1.3843 1.3843s1.3843-.62066 1.3843-1.3843V9.62921c0-.3651-.14908-.72105-.40769-.97966a1.3934 1.3934 0 0 0-.97965-.40768Z"/><path d="M11.32078 12.0114H7.92546c-.17342 0-.31337-.13994-.31337-.31336V9.62921c0-1.10744.90055-2.01103 2.01103-2.01103.52938 0 1.04659.216 1.4208.59022a2.0232 2.0232 0 0 1 .59023 1.4208v2.06884c0 .17342-.13995.31337-.31337.31337m-3.08195-.6237h2.77163V9.63226c0-.36509-.14908-.72105-.40768-.97965a1.3934 1.3934 0 0 0-.97966-.40769c-.76364 0-1.3843.62065-1.3843 1.3843v1.75546Z"/><path d="M9.62312 15.78399c-1.10743 0-2.01103-.90055-2.01103-2.01103v-2.07492c0-.17342.13995-.31337.31337-.31337h3.39532c.17342 0 .31337.13995.31337.31337v2.07492c0 1.10744-.90055 2.01103-2.01103 2.01103m-1.3843-3.77258v1.76155c0 .76364.62066 1.3843 1.3843 1.3843s1.3843-.62066 1.3843-1.3843v-1.76155H8.23579Zm5.75928-4.01902c-.23427 0-.47157-.04259-.69975-.12473a1.9928 1.9928 0 0 1-1.13178-1.0405l-1.74025-3.76042c-.4655-1.00703-.02738-2.2027.97965-2.66819.4807-.2221 1.0405-.24339 1.53641-.06084a2.0232 2.0232 0 0 1 1.13178 1.0405l1.74025 3.76041c.4655 1.00704.02739 2.2027-.97965 2.66819-.26469.12474-.55068.18558-.83666.18558M12.24872.8397c-.2008 0-.39856.0426-.5811.12778-.69367.31946-.99487 1.14699-.67542 1.84066l1.74026 3.7604c.15516.33467.43202.5872.7819.71497s.72409.11562 1.05875-.03955c.69367-.31945.99487-1.14698.67542-1.84065L13.50827 1.6429a1.3873 1.3873 0 0 0-1.25651-.8032Z"/><path d="M11.57939 5.12645c-.11866 0-.23122-.06693-.28295-.18254l-.86708-1.87717c-.46549-1.00703-.02738-2.2027.97965-2.66819.4807-.2221 1.0405-.24339 1.53642-.06084a2.0232 2.0232 0 0 1 1.13177 1.0405l.86709 1.87716a.3164.3164 0 0 1-.15212.41681L11.7102 5.09907c-.0426.0213-.08823.03042-.13082.03042ZM12.24872.8397c-.2008 0-.39856.0426-.5811.12778-.69367.31946-.99487 1.14699-.67542 1.84066l.73627 1.59422 2.51606-1.1622-.73626-1.59422a1.3873 1.3873 0 0 0-1.25651-.8032Z"/><path d="M13.9981 7.9924c-.23427 0-.47157-.0426-.69975-.12474a1.9928 1.9928 0 0 1-1.13178-1.0405l-.87013-1.88325a.3164.3164 0 0 1 .15212-.41681l3.08196-1.4269a.3164.3164 0 0 1 .4168.15213l.87014 1.88325c.46548 1.00703.02738 2.2027-.97966 2.66818-.26469.12474-.55067.1856-.83666.1856Zm-2.00495-3.0272.7393 1.6003c.15517.33467.43203.5872.7819.71497s.7241.11561 1.05876-.03955c.69367-.31945.99487-1.14699.67542-1.84065l-.7393-1.6003-2.51608 1.16219Zm-9.97908 5.78665A1.9867 1.9867 0 0 1 .41985 9.973 2.01316 2.01316 0 0 1 .7819 7.1527l3.2797-2.5313a1.9928 1.9928 0 0 1 1.4847-.39855c.53546.06997 1.00704.34075 1.33562.7606a2.0293 2.0293 0 0 1 .4016 1.48469 2.0232 2.0232 0 0 1-.76365 1.33561l-3.27971 2.53128c-.35596.27382-.7819.41681-1.22305.41681ZM5.28161 4.8283c-.30424 0-.59935.1004-.8397.28599L1.1622 7.64556a1.3855 1.3855 0 0 0-.24948 1.9441c.22514.29207.55372.47765.92185.52633.36813.04564.73018-.05172 1.02225-.27686l3.2797-2.53128A1.3843 1.3843 0 0 0 6.386 5.3668a1.36 1.36 0 0 0-.9188-.5233c-.06085-.00912-.1217-.01216-.18255-.01216Z"/><path d="M4.68834 9.1333c-.09431 0-.18558-.0426-.24643-.1217L2.36699 6.32516c-.05172-.06694-.07302-.14908-.0639-.23123s.05477-.1582.11866-.20688l1.63682-1.2626a1.9928 1.9928 0 0 1 1.48469-.39855c.53546.06997 1.00703.34075 1.33561.7606a2.0293 2.0293 0 0 1 .4016 1.4847 2.0232 2.0232 0 0 1-.76364 1.3356L4.88002 9.0694c-.05781.0426-.12474.0639-.19168.0639m-1.6368-2.94505 1.6946 2.19357 1.39039-1.07397A1.3843 1.3843 0 0 0 6.386 5.3668a1.36 1.36 0 0 0-.9188-.5233c-.36813-.04867-.73322.04868-1.02225.27382L3.05457 6.1913Z"/><path d="M2.01407 10.75185A1.9867 1.9867 0 0 1 .41985 9.973 2.01316 2.01316 0 0 1 .7819 7.1527L2.4248 5.884c.1369-.10343.33162-.0791.4381.05781l2.07492 2.68645c.05172.06693.07302.14907.0639.23122s-.05477.1582-.11866.20688l-1.6429 1.26868c-.35292.27382-.7819.41681-1.22305.41681Zm.5446-4.1833L1.16523 7.64556c-.29207.22514-.47766.55068-.5233.9188-.04867.36814.04869.73323.27382 1.02225.22514.29207.55372.47766.92185.52634.36813.04564.73018-.05172 1.02225-.27686l1.39646-1.07701L2.5617 6.56551Z"/></svg>