<svg class="nok-icon" height="16" width="16" fill="currentColor" xmlns="http://www.w3.org/2000/svg" viewBox="0 0 16 16"><path d="M16 7.23018c0-1.17534-1.65132-1.17534-2.2709-1.17534h-.468v-.79242c0-.13827-.11169-.24996-.24996-.24996H5.25179L3.68556 1.0876C3.6244.93336 3.5074.81369 3.35583.74722A.6116.6116 0 0 0 2.8825.7419c-.15423.06116-.2739.17816-.34037.32973a.6116.6116 0 0 0-.00532.47333l1.3801 3.4675H2.82133c-.13828 0-.24996.11169-.24996.24996v.79242h-.29782c-.62224 0-2.2709 0-2.2709 1.17534 0 1.05568 1.5423 1.54496 2.56872 1.62473v4.1908c0 1.24447 1.01313 2.26026 2.26026 2.26026h6.1745c1.24448 0 2.26027-1.01313 2.26027-2.26027V8.8629c1.01579-.03191 2.7389-.51853 2.7389-1.6327Zm-2.7389.08775c.38557 0 .74987.02128.97324.0585-.20476.0718-.57704.12764-.97325.1436zM2.9995 1.36148c-.02393-.06116.00532-.1303.06648-.15157.01595-.00532.02925-.00798.04255-.00798a.1064.1064 0 0 1 .04786.01063c.01596.00798.04786.02394.06382.06382l1.48911 3.73874h-.25261zM.50258 7.23018c0-.18348 0-.67276 1.77098-.67276h.29782v.25794c-.53183.00531-1.14077.05584-1.34286.24995-.06914.06648-.10903.1569-.10903.2473 0 .12498.05053.24199.14626.33505.25261.25262.85092.33771 1.30563.36697v.33505C1.6593 8.27256.50524 7.8471.50524 7.23018Zm2.06614.28187c-.32973-.02393-.62755-.07446-.8004-.13562.1888-.0319.4813-.05318.8004-.05584v.19412Zm10.1898 5.53365c0 .96793-.78976 1.75769-1.75769 1.75769h-6.1745c-.96793 0-1.7577-.78976-1.7577-1.75769V5.51504h9.68723v7.53066Zm.50257-4.68539v-.3377c.46003-.01596 1.18864-.09042 1.47582-.37495.09573-.09572.14625-.21007.14625-.33505 0-.09307-.03988-.18082-.10902-.2473-.22337-.21538-.94931-.25793-1.51305-.24995v-.25794h.46801c1.76832 0 1.76832.48928 1.76832.67276 0 .6568-1.30563 1.09822-2.23899 1.13013Z"/><path d="M6.03357 4.50989q.04388 0 .08775-.01596c.01064-.00266 1.04238-.41216.52385-1.82682-.3377-.9174.17019-1.15938.23135-1.18597.12763-.05053.19145-.19412.14359-.32176a.2518.2518 0 0 0-.32441-.14625c-.01064.00266-1.04238.41216-.52385 1.82682.3377.92006-.17285 1.16204-.22869 1.18598-.1303.04786-.19412.19411-.14625.32441.03723.10105.13296.1622.234.1622Zm1.50507 0q.04388 0 .08775-.01596c.01064-.00266 1.04238-.41216.52385-1.82682-.3377-.9174.17019-1.15938.234-1.18597.12764-.05053.19146-.19412.1436-.32176a.2526.2526 0 0 0-.32442-.14625c-.01063.00266-1.04238.41216-.52385 1.82682.33771.92006-.17284 1.16204-.22868 1.18598-.1303.04786-.19412.19411-.14625.32441.03722.10105.13295.1622.234.1622Zm1.50507 0q.04388 0 .08775-.01596c.01064-.00266 1.04238-.41216.52385-1.82682-.33771-.9174.17018-1.15938.23134-1.18597.12764-.05053.19146-.19412.1436-.32176a.2518.2518 0 0 0-.32442-.14625c-.01063.00266-1.04238.41216-.52385 1.82682.33771.92006-.17284 1.16204-.22868 1.18598-.1303.04786-.19412.19411-.14625.32441.03722.10105.13295.1622.234.1622Z"/></svg>