<svg class="nok-icon %s" height="16" width="16" fill="currentColor" xmlns="http://www.w3.org/2000/svg" viewBox="0 0 16 16"><path d="M0 9.89c.1-.78 1.16-1.13 1.83-1.02q.55.11.98.46L2.43 6.2c-.06-1 .9-1.62 1.79-1.19v-.24c0-.33.32-.74.6-.9l.25-.13c.01-.26-.03-.54.03-.8a1.17 1.17 0 0 1 1.76-.72q-.01-.28.03-.56C7.07.76 8.14.41 8.85.96 9.1.38 9.68.07 10.3.2c.52.12.9.6.93 1.13l.3-.15c.65-.22 1.36.13 1.56.79l.05.2v3.28l.04-.02c.4-.3.6-.52 1.14-.6.86-.12 2.22.55 1.48 1.53-.24.32-.56.6-.82.92-.5.66-.74 1.26-1.06 2.01-.54 1.24-1.3 2.42-2.66 2.83q-.03.7-.31 1.37c-.78 1.73-2.62 2.32-4.4 2.33-1.95 0-3-.88-3.96-2.47-.48-.8-.8-1.45-1.5-2.12-.3-.29-1.02-.76-1.07-1.17zM9.3 5.1c.38-.04.8.15 1.02.45s.22.6.27.96l.61 5.04.02.03a3.6 3.6 0 0 0 1.84-1.76c.35-.64.56-1.34.92-1.97q.39-.7.93-1.3c.1-.13.55-.56.56-.7 0-.17-.3-.35-.44-.41-.66-.26-1.28.06-1.68.59-.09.11-.23.4-.3.46-.17.14-.43.05-.44-.17V2.3a.7.7 0 0 0-1.38-.04v3.12c-.04.37-.5.33-.53.03-.03-1.29.05-2.59-.01-3.87 0-.15.01-.25-.04-.4a.7.7 0 0 0-1.09-.3c-.1.09-.25.3-.25.44zm-.66.26c.05-.04.13-.06.14-.13V1.85c-.12-.86-1.32-.81-1.4.03v2.08l.03.03c.44 0 .87.25 1.07.64.12.23.14.48.16.73M6.86 4.11v-1a.63.63 0 0 0-1.14-.29c-.2.26-.1.58-.12.88.38.06.74.3.9.64.02.02.07-.05.1-.06q.11-.1.25-.17Zm1.8 5.21c-.08-.06-.08-.14-.1-.23-.2-1.36-.27-2.76-.5-4.12-.32-.79-1.46-.5-1.35.35l.44 3.69c.03.3-.37.41-.5.14L6.1 4.74a.7.7 0 0 0-1.24-.22c-.15.22-.13.4-.1.64.1 1.27.33 2.54.45 3.81.02.34-.42.4-.51.1-.16-1-.2-2.03-.37-3.02-.14-.88-1.23-.87-1.38-.03.12 1.39.34 2.77.47 4.15a.27.27 0 0 1-.38.18c-.09-.04-.23-.26-.3-.35-.4-.44-.93-.74-1.53-.6-.2.06-.44.19-.57.34-.2.23-.1.32.07.49.44.41.85.7 1.25 1.19 1 1.2 1.42 2.88 2.95 3.57 1.06.47 2.85.35 3.9-.12a3.1 3.1 0 0 0 1.9-3L10 6.08a.64.64 0 0 0-1.25.18l.35 2.88c0 .24-.29.36-.46.2ZM1.61 2.03c.11-.1.3-.1.4.03l1.13 1.56a.26.26 0 0 1-.44.28L1.58 2.34a.3.3 0 0 1 .04-.3Zm2.27-.81c.2-.03.28.1.31.28.1.5.12 1.05.2 1.57.04.28-.35.39-.49.15l-.03-.13c-.1-.54-.13-1.1-.2-1.65 0-.1.1-.2.2-.22ZM.5 3.7q.08-.01.16.02c.48.18.98.54 1.46.73.26.18.09.56-.22.48L.4 4.18c-.2-.14-.14-.45.1-.49Z"/></svg>