<svg class="nok-icon" height="16" width="16" fill="currentColor" xmlns="http://www.w3.org/2000/svg" viewBox="0 0 16 16"><path d="M11.69219 10.38763c.02444-.00917.07027.0061.10082 0 .58049.72713 5.08688 4.44529 3.96563 5.47489-1.0571.96849-4.69887-3.52569-5.42295-4.08173l1.3565-1.3901Zm-5.53294 2.0928c-4.00535 0-5.96372-3.05213-6.08898-5.94845C-.0611 3.4493 1.90643.21998 5.91789.00917 8.23678-.11 10.15543.82795 11.32862 2.658c1.26485 1.97365 1.38706 4.68054.30552 6.73668-1.0021 1.9095-2.85354 3.00325-5.20909 3.07963-.09165 0-.18025.00305-.26885.00305ZM5.96677.92573C2.38915 1.11208.87684 3.94118.98682 6.49226c.10694 2.52358 1.84534 5.17853 5.41074 5.0655 2.01336-.06722 3.58373-.98683 4.42696-2.5908.93183-1.77201.8249-4.10923-.2658-5.81402C9.57189 1.61314 7.94348.82185 5.96677.92572"/><path d="M2.51747 5.51155h7.70518v1.62842H2.51747z"/><path d="M7.18274 2.4747v7.70517H5.55432V2.4747z"/></svg>