<svg class="nok-icon" height="16" width="16" fill="currentColor" xmlns="http://www.w3.org/2000/svg" viewBox="0 0 16 16"><path d="M3.5 5.1c.7-.3 1.1-.9 1.1-1.7s-.8-1.9-2-1.9-1.9.5-2.2.9l.6 1c.4-.4.8-.6 1.3-.6s.9.3.9.7c0 .8-.8.9-1.4.9h-.2v1.2h.3c1 0 1.6.3 1.6 1s-.4.9-1.1.9-1.1-.4-1.3-.6L.5 8c.2.2.8.8 2.1.8s1.4-.2 1.8-.6.7-.9.7-1.5c0-.9-.4-1.6-1.3-1.8Zm6.4-2.7c-.6-.7-1.4-.9-2-.9s-1.3.1-2 .9C5.3 3.1 5 4 5 5.3s.3 2.2.9 2.9 1.4.9 2 .9 1.3-.1 2-.9c.6-.7.9-1.6.9-2.9s-.3-2.2-.9-2.9m-.6 2.8c0 1.5-.5 2.4-1.4 2.4s-1.4-.8-1.4-2.4.5-2.4 1.4-2.4 1.4.8 1.4 2.4m6.6-.2h-1.7V3.3h-1.1V5h-1.7v1.1h1.7v1.8h1.1V6.1h1.7z"/><rect width=".7" height=".6" x="5.1" y="11" rx="0" ry="0"/><path d="M5.7 11.8h-.6V14c0 .3 0 .3-.2.3h-.1v.5h.3c.5 0 .8-.3.8-.8v-2.2Zm1.2-.1c-.4 0-.7.1-.9.4l.2.4c0-.1.3-.2.5-.2s.4.1.4.4h-.3c-.6 0-.9.3-.9.7s.2.7.7.7.5-.1.6-.2v.2h.5v-1.2c0-.6-.3-1-.9-1Zm.3 1.4v.2s-.1.1-.4.1-.2 0-.2-.2.1-.2.4-.2h.2ZM9 11.7c-.4 0-.7.1-.9.4l.2.4c0-.1.3-.2.5-.2s.4.1.4.4h-.3c-.6 0-.9.3-.9.7s.2.7.7.7.5-.1.6-.2v.2h.5v-1.2c0-.6-.3-1-.9-1Zm.3 1.4v.2s-.1.1-.4.1-.2 0-.2-.2.1-.2.4-.2h.2Zm2.2-1.4c-.4 0-.5.1-.6.3v-.2h-.5v2.1h.6v-1.4c0-.2.3-.3.5-.3z"/></svg>