<svg class="nok-icon" height="16" width="16" fill="currentColor" xmlns="http://www.w3.org/2000/svg" viewBox="0 0 16 16"><path d="M8.05577 10.45229c0-.19172-.15686-.34859-.34858-.34859h-.30675a1.14336 1.14336 0 0 1-1.14336-1.13987v-.59607c-.00349-.30327.24052-.54728.5403-.55077.14641 0 .28236.05578.38693.15687.10458.10457.16035.24052.16384.38692 0 .19173.15338.3451.34858.34859.19172 0 .34859-.15686.34859-.34859 0-.33115-.13247-.64488-.3695-.87843a1.2305 1.2305 0 0 0-.87495-.35904H6.7939c-.68671 0-1.24096.5647-1.23747 1.25142v.59608c.00697.4915.19869.95512.55076 1.30021.34858.3451.80871.53334 1.29673.53334h.30676c.19172 0 .34858-.16035.34858-.35207Zm2.58998-9.02484c2.6597-.60305 4.12375-.66928 4.5804-.5647-.0523.05228-.13944.12549-.27539.2196-.15686.10806-.19869.32767-.08714.48453a.3486.3486 0 0 0 .48453.08715c.21263-.1464.78083-.5403.63093-1.02135-.08366-.26144-.33812-1.0562-5.4867.11155-.18824.04183-.30676.23006-.26144.4183.04183.18823.22658.30675.4183.26144Z"/><path d="M14.45229 3.7525c-.1708-.08714-.37996-.02091-.4706.1499-.08714.1708-.0209.37995.1499.47058.69368.35556.97952.58563 1.09804.70763-.2719.06972-.88192.05926-1.75686-.05229-.34162-.68322-.82963-1.28976-1.43268-1.7952.4183-.16035.81568-.31722 1.18518-.47756.17778-.0767.25795-.28236.18127-.45665a.3465.3465 0 0 0-.45665-.18126c-.47756.20566-1.0109.41481-1.58257.62396-1.00044-.62745-2.21002-1.00043-3.51721-1.00043h-.03486c-1.24793.00697-2.40523.34858-3.3743.93072C2.38432 1.90153 1.09456 1.2183.76689.86623c.44968-.11155 1.93813-.04531 4.66406.57865a.3451.3451 0 0 0 .4183-.26144c.04183-.18823-.0732-.37298-.26144-.4183C.36253-.4305.10806.37473.0244.63617c-.03137.10108-.0488.26492.05577.45664.31024.57865 1.79521 1.33508 3.6671 2.05665-.65533.52636-1.18866 1.1782-1.5512 1.91372-.77385.07669-1.21655.05577-1.42221.01046.13246-.13246.46361-.3939 1.28627-.80174.1708-.08715.244-.2963.15686-.4671s-.2963-.24402-.4671-.15687C.3939 4.3207-.12549 4.81569.0244 5.3037c.05926.18824.16384.51242 1.30719.51242.16732 0 .36253-.00697.57516-.0244-.15686.49499-.244 1.01438-.24052 1.55469.00697 1.45708.63094 2.8305 1.76035 3.87276a1.4397 1.4397 0 0 1 .37647 1.53726l-.94118 2.6562a.35207.35207 0 0 0 .32767.4671c.14292 0 .27887-.09062.32767-.23354l.94118-2.65621a2.1333 2.1333 0 0 0-.56122-2.28323c-.983-.90631-1.5268-2.10196-1.53377-3.36383 0-.57168.11155-1.11895.31024-1.62789.3207-.04183.67974-.09411 1.0841-.16732.01394 0 .02788-.01046.04182-.01743.20218.3695.58911.62397 1.03878.62397.62048 0 1.12593-.48105 1.17822-1.08758.01394 0 .0244 0 .03834-.00349.62397-.14989 1.27582-.32418 1.93464-.50893 1.06318.29978 3.2.86449 5.00218 1.11895.20218.50545.3207 1.04924.32418 1.61743v.13944c-.00348.0244 0 .0488 0 .0732v.53682c0 .08017.03138.15686.08018.2196l.96558 1.1817c.08714.10458.06971.26493-.03486.34859l-.86798.70762c-.08017.06623-.12897.16732-.12897.2719l.01046 2.04967c0 .22658-.08715.43922-.24401.59957-.16035.16034-.37299.25098-.59608.25098l-1.19564.00697c-1.45011-.00697-2.74685-.96558-3.13377-2.36689-.0523-.18475-.24401-.2928-.42876-.244-.18475.05228-.29281.244-.24401.42875.47059 1.6976 2.02876 2.8793 3.7926 2.8793h.0209l1.19565-.00697c.41133 0 .79826-.16383 1.09107-.45664a1.5338 1.5338 0 0 0 .44618-1.09455l-.01045-1.88236.739-.60305c.1952-.16035.3172-.38692.3416-.6379s-.0488-.49848-.20914-.69369l-.8889-1.0841v-.47407s0-.03137-.00696-.0488v-.10109c0-.52985-.09064-1.03878-.2475-1.52331.27887.0244.5438.04183.7878.04183.7634 0 1.3072-.13943 1.41874-.49847.1464-.46362-.31024-.92724-1.52331-1.5512ZM7.81874 2.43487h.03137c.9586 0 1.86144.2231 2.64575.61002-.7146.244-1.46754.48453-2.2379.71111L8 3.8292c-.08366-.0244-.16732-.04531-.25098-.06971-.87843-.25795-1.68366-.5159-2.41569-.77037a5.996 5.996 0 0 1 2.4889-.55077ZM4.84183 5.45708c-.2719 0-.4915-.2196-.4915-.4915s.2196-.4915.4915-.4915.4915.2196.4915.4915-.2196.4915-.4915.4915m1.0562-1.07364-.0209.01046a1.1852 1.1852 0 0 0-1.0353-.617c-.62048 0-1.12593.47757-1.17821 1.08759H3.6427q-.31372.05229-.58562.09412c.3695-.5926.87146-1.10502 1.47451-1.51286.70763.25447 1.4501.50196 2.1926.73203-.27539.0732-.55426.14292-.82266.20915Zm3.37779-.20566c.69716-.21612 1.36993-.43922 2.00087-.66231.53333.38344.983.85054 1.32462 1.38388-.92026-.15338-2.0427-.38693-3.3255-.72157"/></svg>