<svg class="nok-icon" height="16" width="16" fill="currentColor" xmlns="http://www.w3.org/2000/svg" viewBox="0 0 16 16"><path d="M13.65616 13.51003c-.73639.52722-1.52149.54155-2.30659.21203-.72493-.30659-.97994-1.01146-.9083-1.75071.02291-.23783.08309-.47565.20056-.68768.05445-.09742.02006-.17192-.0487-.24069-.31806-.31232-.63324-.6275-.94843-.93983-.05444-.05444-.10888-.06877-.18338-.04011-.34384.12894-.69055.24928-1.0659.25501-.1003 0-.11462.0831-.11462.16333v1.76504c0 .11748.05444.14613.16046.16905.24069.05158.48424.11462.69914.24642.40401.24928.64183.61891.70774 1.07737.13467.96561-.19198 1.83094-1.298 2.0659-.73925.1576-1.45558.08882-2.02578-.50144-.2063-.21203-.3152-.47277-.36677-.7593-.17765-.96562.20344-1.89686 1.26361-2.09456.22636-.04298.30373-.13467.29227-.3725-.02006-.51862-.0086-1.04011-.00573-1.5616 0-.13754-.03152-.20057-.18625-.21204-.32378-.02578-.63324-.1232-.92837-.26074-.10888-.05158-.17765-.02865-.25788.05158a78.5 78.5 0 0 1-.97707.97707c-.08883.08596-.10029.149-.04012.26934.37823.75932.3553 1.50717-.19484 2.17192-.24928.30086-.62178.4556-1.01146.4957-.54441.05445-1.0831.04299-1.57307-.26074-.46418-.2894-.69054-.70774-.74212-1.24642-.0573-.61604.08883-1.16046.57307-1.55587.45558-.3725 1.01146-.4384 1.58166-.37822.2235.02292.44413.0745.65043.16618.11175.05158.19484.02866.2808-.06017q.46848-.47707.94556-.94556c.08023-.07736.11461-.1404.03725-.24928-.23496-.31805-.39828-.67049-.47278-1.06017-.0172-.08883-.07736-.10029-.149-.10029H3.8854c-.10602 0-.1576.04298-.18338.15473-.18339.75645-.8109 1.24642-1.5874 1.24928-.37535 0-.74785.01146-1.11461-.12607-.57593-.22636-.99427-.7851-.9914-1.40688 0-.20917-.02866-.42407.02005-.63037.15187-.68195.59313-1.0745 1.25788-1.23496.54442-.1318 1.07164-.09455 1.58166.1404.44986.2063.71634.56734.82809 1.03725.03724.1576.10601.19485.24641.19485.38396 0 .77078-.01433 1.15473.00573.20057.0086.2722-.0831.29226-.25215.04585-.41261.18912-.78797.447-1.14327-.2894-.33524-.61032-.63897-.9341-.9427-.07163-.0659-.14327-.01432-.20917.0172-.60458.2808-1.22063.2808-1.8424.07163-.84814-.28367-1.14614-1.08023-1.06304-1.851.03151-.298.13753-.5702.30659-.81375.25788-.37536.64183-.58167 1.07163-.6361.55874-.07164 1.12607-.06591 1.63897.24928.40114.24641.61604.60458.71346 1.0487.1003.45273.0258.88253-.17192 1.2894-.04584.09743-.02578.15187.03725.2149.26648.26648.53582.53296.79943.8023.0831.08596.16332.08882.26075.03152.34097-.20344.71346-.3152 1.10888-.35244.11748-.01146.15473-.0659.15473-.17479 0-.48997-.00287-.97994 0-1.47277 0-.12321-.05731-.16906-.1662-.19771-.20343-.05444-.40687-.10029-.59598-.20058-.55588-.29799-.79943-.77077-.82522-1.37822-.01432-.3725 0-.73639.2149-1.0659.32952-.5129.80803-.76791 1.39255-.80802.65903-.04871 1.27794.05444 1.75359.5788.24641.2722.37535.59312.38681.95988.01433.39541-.01146.77937-.21776 1.13753-.24355.42407-.63037.6361-1.08596.7364-.21203.04584-.30086.1232-.2894.3553.02006.43552.0086.87678.00573 1.31232 0 .1318.02006.20916.18338.2149.39828.0086.76505.1404 1.12035.31232.0745.03724.13467.09455.22063.01146.32378-.32379.6533-.6447.98854-.97422-.26934-.3467-.36963-.72779-.36104-1.13467.0258-1.03438.69055-1.69054 1.70774-1.70773.44986-.0086.87966.02579 1.28367.25788.66476.38109.86246 1.0831.77937 1.7192-.16046 1.24068-1.24642 1.61031-2.2149 1.46704-.19198-.02865-.38396-.07736-.56447-.149-.11748-.04584-.2063-.03151-.30086.06591-.26075.2722-.53295.53582-.79943.8023-.0659.0659-.1404.13753-.06304.23208.27221.34098.39542.73926.44986 1.16046.02006.1576.08596.19771.2321.19484.36102-.0086.72492-.00573 1.08595 0 .1318 0 .21204-.04011.24929-.17478.2063-.77077.7278-1.149 1.50716-1.24355.47851-.05731.92837-.00573 1.3553.20917.46132.22922.75645.61031.82235 1.11747.06017.48424.0659.97995-.24642 1.40975-.32378.44699-.7679.67048-1.30659.69627-.38109.02006-.76504.03725-1.13753-.10888-.5129-.20344-.85387-.55588-.98281-1.0917-.03725-.15185-.09742-.1977-.24069-.1977a77.6 77.6 0 0 1-1.15473 0c-.12894 0-.1977.02292-.22636.17765-.0831.42693-.28653.8023-.59599 1.16046.34384.3381.67909.67049 1.0172 1.00286.10028.1003.18051 0 .2636-.03151.7192-.26648 1.4384-.27221 2.11175.1146.98281.56448.96275 2.12322.18912 2.77365M6.4699 9.21203c.11462.09743.23783.18339.36963.25502.60172.32665 1.24642.33238 1.88539.19484.39255-.08596.76504-.2636 1.02579-.61318.36103-.48424.45558-1.02292.3467-1.59885-.08596-.46705-.30659-.86247-.73066-1.11748-.53295-.32092-1.1232-.3811-1.72206-.31805-.45272.0487-.89112.20057-1.20917.54154-.65043.69914-.65616 1.9341.03152 2.6533m6.52435-.5874c.06304.09456.1318.18052.22637.24642.42693.30373.89684.33811 1.38108.21204.74499-.19484 1.07164-1.19198.61892-1.77077-.447-.56734-1.41834-.52723-1.8682-.28654-.4871.26075-.67908.98568-.3553 1.596m-8.96848 4.78223c.5616-.07737.86246-.38969.93983-1.06018.03725-.33237-.07737-.80515-.596-1.04011-.2894-.1318-.58165-.1404-.88251-.1318-.86247.02578-1.20917.70487-1.06877 1.42693.14326.73352 1.04011.94842 1.60458.80802m4.59886 1.75358c.0573-.03438.11748-.06876.17478-.10315.68195-.4212.6619-1.53295-.04011-1.9083-.38682-.20631-.8109-.2235-1.22923-.11462-.48997.12607-.77077.45845-.81948.95988-.04298.44986.10028.83668.50716 1.07737.4384.25788.90258.23495 1.40688.08882M2.90544 8.75645c.4556-.5616.28367-1.44126-.26647-1.73066-.32092-.16906-.66762-.18625-1.01146-.15473-.41834.04011-.7765.22063-.94556.63037-.19484.46705-.149.92264.21776 1.29513.47565.4871 1.39542.46992 2.00573-.04011m4.0831-7.65043c-.55588.64183-.2894 1.60458.51862 1.84813.30946.09456.62178.09743.9341.01433.38395-.10602.67049-.32378.79083-.72493.13467-.44126.03439-.81375-.25501-1.17192-.35244-.43553-1.62751-.45272-1.98854.03439m4.10315 10.7192c-.17765.63323.06877 1.15759.6533 1.404.23782.1003.4871.08597.73352.0831.88252-.02006 1.2722-.68195 1.08023-1.48997-.12608-.52436-.55587-.70487-1.03152-.77364-.55874-.08023-1.23782.09456-1.43553.77937M2.90544 2.86819c-.06017.04585-.12034.08883-.17765.13468-.51002.41833-.45272 1.38681.0917 1.74785.32091.21203.67048.23495 1.03724.22636.53009-.01146.98281-.34957 1.07164-.85674.09169-.52435-.04585-1.04298-.596-1.27793-.46418-.19771-.93122-.2063-1.42406.02578m8.80516-.25787c-.33811.14613-.56447.38968-.64184.7593-.10315.5129.03725 1.05158.5874 1.30087.31232.14326.63323.14326.95129.11174.40974-.04297.7593-.2235.90257-.64183.15473-.44986.17479-.90258-.20343-1.25788-.44986-.42407-.99714-.4384-1.596-.2722"/></svg>