<svg class="nok-icon %s" height="16" width="16" fill="currentColor" xmlns="http://www.w3.org/2000/svg" viewBox="0 0 16 16"><path d="M3.61 1.64a.3.3 0 0 0-.42.1l-.12.19a.3.3 0 0 0 .1.42.3.3 0 0 0 .41-.1l.13-.2a.3.3 0 0 0-.1-.41m7.55 5.68a3.43 3.43 0 1 0 0-6.85 3.43 3.43 0 0 0 0 6.85m0-6.23a2.81 2.81 0 1 1 0 5.63 2.81 2.81 0 0 1 0-5.63"/><path d="M15.32 9.47c-.83-1.03-2.37-1.66-4.35-1.77q-3.53-.21-5.28-1.6.46-.33.8-.82a.3.3 0 0 0-.06-.4.3.3 0 0 1-.1-.2q0-.06.04-.12a.3.3 0 0 0-.07-.37.25.25 0 0 1 .1-.44.3.3 0 0 0 .23-.28.2.2 0 0 1 .12-.16.3.3 0 0 0 .16-.34A2.96 2.96 0 0 0 4.01.64 3 3 0 0 0 1.5 2c-.19.02-.33.06-.34.06C-.05 2.35-.03 3.16 0 4.1v.1c.02.64.04 1.36.41 1.77a1 1 0 0 0 .82.34h.2c.76 2.28 3.04 3.93 5.04 4.61a8 8 0 0 0-1.34 4.54l.6-.03c0-.03-.1-2.54 1.49-4.48a.3.3 0 0 0 .05-.29.3.3 0 0 0-.2-.2C5.15 9.95 2.82 8.4 2.04 6.21l.3-.1a3 3 0 0 0 1.66.5 3 3 0 0 0 1.1-.2q1.9 1.66 5.83 1.9c1.8.1 3.2.65 3.9 1.54q.72.9.5 2.2l-.74 3.33.6.13.74-3.34a3.3 3.3 0 0 0-.62-2.7ZM.88 5.57C.65 5.32.64 4.7.62 4.2v-.1c-.03-.99 0-1.28.69-1.45a3 3 0 0 1 .67-.06c.58.08 1.22.7 1.24 1.49.03.88-.7 1.43-1.43 1.57a3 3 0 0 1-.55.07c-.23 0-.3-.06-.36-.13Zm2.7-2.47q.19-.15.42-.15a.68.68 0 1 1-.17 1.34v-.24a2 2 0 0 0-.26-.95ZM4 6q-.54 0-1-.22.48-.36.7-.9.15.05.31.05a1.3 1.3 0 0 0 0-2.58q-.43 0-.78.26-.4-.44-.95-.6A2.4 2.4 0 0 1 4 1.26c1.06 0 1.96.67 2.27 1.66a1 1 0 0 0-.2.31.86.86 0 0 0-.32 1.25l-.02.2q0 .25.12.45A2.4 2.4 0 0 1 4.01 6Z"/><path d="m11.4 15.37.76-2.93.59.16-.76 2.92zM4.17 5.16a.3.3 0 0 0-.43 0 .3.3 0 0 0 0 .43l.17.17q.1.09.21.09.15 0 .22-.1a.3.3 0 0 0 0-.43zm.81-.36-.16.16a.3.3 0 0 0 0 .43q.1.09.22.09c.12 0 .16-.03.22-.1l.16-.16a.3.3 0 0 0 0-.43.3.3 0 0 0-.43 0Zm.73-1.82.16-.17c.12-.12.12-.31 0-.43s-.32-.11-.44 0l-.16.18a.3.3 0 0 0 0 .43.3.3 0 0 0 .44 0Zm-.85-1.27a.3.3 0 1 0-.57.2l.08.22a.3.3 0 0 0 .39.18.3.3 0 0 0 .18-.39z"/></svg>