<svg xmlns="http://www.w3.org/2000/svg" xml:space="preserve" viewBox="0 0 420 406"><path fill="#FFF" d="M249 407H1V1h420v406H249m73-57.194c.247.38.406.896.753 1.121 6.218 4.041 13.227 3.086 20.062 3.045 5.479-.032 11.905-4.986 13.113-9.857 1.674-6.751-1.224-13.914-7.166-16.72-4.341-2.049-9.002-3.415-13.356-5.44-1.399-.65-2.273-2.428-3.387-3.69 1.274-1.094 2.56-3.133 3.818-3.115 4.94.071 9.869.79 14.802 1.269.698.276 1.692-.688 2.387-1.835 1.905-3.142 3.187-5.42-2.09-7.433-5.824-2.222-11.553-2.433-17.376-2.03-6.236.43-11.225 5.565-12.525 11.778-.976 4.663 2.024 10.977 7.266 13.692 3.968 2.054 8.523 2.962 12.54 4.943 1.743.86 3.44 2.982 3.869 4.83.201.866-2.466 2.833-4.151 3.624-5.469 2.566-9.86-.888-14.764-3.689-2.691.993-5.58 6.122-4.827 8.652.034.114.605.07 1.033.855M111.83 315.633c.629-2.09 1.258-4.182 1.467-6.764-.751-.328-1.503-.656-2.618-1.669-1.847-.522-3.663-1.299-5.545-1.521-7.003-.83-14.194-2.503-20.874 3.315-.458.655-.917 1.31-2.065 2.28-4.772 7.226-2.01 17.02 7.814 20.729 3.877 1.463 7.703 3.108 11.397 4.978.947.48 1.93 2.23 1.775 3.22-.212 1.35-1.223 3.2-2.371 3.674-6.476 2.678-11.805-.619-17.22-4.1-.875 1.333-1.78 2.47-2.425 3.737-2.718 5.343-2.683 6.824 3.17 8.319 6.375 1.628 13.226 2.018 19.833 1.808 2.673-.085 5.909-2.67 7.751-5.012 6.078-7.726 3.983-18.67-7.163-22.608-3.028-1.07-6.317-1.671-9.033-3.262-1.957-1.147-3.162-3.577-4.702-5.434 2.34-1.107 4.792-3.304 6.993-3.075 3.706.384 7.252 2.309 11.462 3.734.546-.647 1.093-1.293 2.354-2.349m201.926 33.372c.118-1.017.235-2.035.25-3.753-.724-1.417-1.449-2.834-2.164-4.883-.652.196-1.304.392-2.706.639-1.613.733-3.211 1.5-4.84 2.195-8.498 3.62-19.783-.178-19.712-10.462h30.4c0-4.034.172-7.696-.072-11.33-.126-1.871-.807-3.773-1.559-5.522-4.54-10.552-12.883-12.42-24.568-10.17-6.496 1.25-11.418 5.4-13.508 11.13-1.95 5.349-2.451 11.59-2.071 17.337.516 7.798 3.189 15.702 11.69 17.895 6.43 1.659 13.494 1.374 20.235 1.07 2.693-.122 5.277-2.62 8.625-4.146M252.823 34.042c-.747.316-1.467.765-2.246.927-18.896 3.914-34.934 13.16-49.147 25.982-2.893 2.61-2.552 4.631-.554 7.497 4.528 6.495 9.015 13.043 13.05 19.847 1.98 3.337 3.014 2.927 5.706.733 6.41-5.226 12.795-10.733 19.975-14.707 12.784-7.075 26.901-9.267 41.366-7.22 10.421 1.475 19.23 6.218 23.761 16.364 4.648 10.405 4.3 21.18 1.388 32.025-4.206 15.668-15.007 27.081-25.11 38.898-5.153 6.027-10.975 11.478-16.246 17.41-11.885 13.376-23.588 26.914-35.417 40.34-8.153 9.252-16.447 18.38-24.54 27.683-1.305 1.5-2.623 3.603-2.683 5.467-.281 8.771-.125 17.557-.125 26.489h150.763v-34.844h-96.82c1.018-1.618 1.552-2.806 2.38-3.73 6.374-7.114 12.807-14.175 19.217-21.255 12.711-14.04 25.865-27.71 37.97-42.253 7.943-9.542 15.241-19.86 21.284-30.693 10.638-19.069 12.51-40.011 9.059-61.284-1.675-10.326-6.372-19.516-13.821-27.29-12.162-12.69-27.616-17.534-44.354-18.213-11.285-.459-22.653 1.12-34.856 1.827M124 117.5v154.183h37.673V36c-8.978 0-17.63-.082-26.28.06-2.05.034-4.21.52-6.11 1.301-21.04 8.654-42.038 17.406-63.078 26.145l11.02 31.587c8.064-3.2 15.677-6.244 23.31-9.24 7.669-3.012 15.357-5.977 23.465-9.128V117.5m6.552 233.585c10.064 5.6 25.384 3.898 32.294-3.67l-4.388-7.8c-6.623 5.04-13.276 6.616-20.365 3.33-3.879-1.799-5.508-5.459-6.038-10.13h31.381c-.511-4.49-.858-8.54-1.454-12.553-1.237-8.32-5.57-13.528-13.615-14.998-8.22-1.502-16.332-.06-22.127 6.337-8.018 8.85-8.192 33.026 4.312 39.484m52.104-29.131c-4.172-4.105-3.779-6.211 1.618-7.57 1.49-.376 3.272-.228 4.772.2 3.5.998 6.91 2.313 10.276 3.472l3.608-8.284c-6.091-4.468-12.895-5.923-19.742-4.556-4.285.855-9.523 2.795-11.927 6.034-5.674 7.646-1.59 17.26 7.611 20.74 3.907 1.477 7.779 3.083 11.526 4.916 1.097.537 2.492 2.164 2.364 3.1-.19 1.392-1.385 3.393-2.565 3.744-2.339.695-5.084.986-7.437.454-3.843-.87-7.507-2.534-11.268-3.87a4910828 4910828 0 0 0-3.617 8.541c7.466 6.42 16.04 5.295 24.325 5.03 5.13-.165 10.336-5.806 11.7-11.673 1.1-4.727-1.15-10.938-5.618-13.405-4.747-2.622-9.879-4.545-15.626-6.873m43.574 12.087c1.704.932 3.566 1.662 5.08 2.84 2.781 2.163 2.476 5.62-.78 6.789-2.31.828-5.132 1.261-7.469.734-3.67-.83-7.122-2.617-10.871-4.078l-3.438 8.502c6.093 5.91 13.402 5.189 20.542 5.172 8.69-.02 13.297-3.721 15.468-12.424 1.32-5.292-2.332-11.401-8.99-14.567-4.053-1.926-8.346-3.356-12.367-5.34-1.27-.627-3.003-2.604-2.76-3.469.368-1.31 2.293-3.109 3.529-3.088 4.884.083 9.757.795 14.635 1.273.994.493 2.488-.399 2.653-1.491.335-2.218 3.708-5.093-.227-6.73-5.527-2.301-11.266-3.886-17.488-3.233-6.14.644-12.85 4.873-13.732 9.28-1.677 8.373.589 13.024 8.33 16.807 2.3 1.125 4.725 1.994 7.885 3.023M253 313.564v39.119h11.693V306.32H253v7.243M262.338 288h-8.984v11.64H265c0-2.514.217-4.7-.07-6.816-.223-1.65-1.071-3.215-2.592-4.824z"/><path fill="#0B2355" d="M253.259 34.023c11.767-.687 23.135-2.267 34.42-1.808 16.738.68 32.192 5.523 44.354 18.214 7.45 7.773 12.146 16.963 13.82 27.29 3.452 21.272 1.58 42.214-9.058 61.283-6.043 10.832-13.34 21.15-21.284 30.693-12.105 14.543-25.259 28.213-37.97 42.253-6.41 7.08-12.843 14.141-19.217 21.255-.828.924-1.362 2.112-2.38 3.73h96.82v34.844H202c0-8.932-.156-17.718.125-26.49.06-1.863 1.378-3.966 2.683-5.466 8.093-9.303 16.387-18.431 24.54-27.684 11.83-13.425 23.532-26.963 35.417-40.339 5.27-5.932 11.093-11.383 16.246-17.41 10.103-11.817 20.904-23.23 25.11-38.898 2.912-10.845 3.26-21.62-1.388-32.025-4.531-10.146-13.34-14.889-23.76-16.364-14.466-2.047-28.583.145-41.367 7.22-7.18 3.974-13.566 9.48-19.975 14.707-2.692 2.194-3.726 2.604-5.705-.733-4.036-6.804-8.523-13.352-13.051-19.847-1.998-2.866-2.34-4.887.554-7.497 14.213-12.821 30.25-22.068 49.147-25.982.78-.162 1.499-.611 2.682-.946zM124 117V76.725c-8.108 3.151-15.796 6.116-23.466 9.127-7.632 2.997-15.245 6.041-23.31 9.24L66.205 63.507c21.04-8.739 42.038-17.491 63.077-26.145 1.902-.782 4.061-1.267 6.11-1.301 8.65-.142 17.303-.06 26.281-.06v235.683H124V117zM311.833 341c.724 1.418 1.449 2.835 1.94 4.813a35.371 35.371 0 0 0-.73 3.302c-2.635 1.416-5.22 3.914-7.912 4.035-6.741.305-13.804.59-20.235-1.069-8.501-2.193-11.174-10.097-11.69-17.895-.38-5.748.12-11.988 2.071-17.337 2.09-5.73 7.012-9.88 13.508-11.13 11.685-2.25 20.028-.382 24.568 10.17.752 1.75 1.433 3.65 1.559 5.522.244 3.634.071 7.296.071 11.33h-30.399c-.071 10.284 11.214 14.081 19.712 10.462 1.629-.694 3.227-1.462 5.54-2.206 1.131-.005 1.564 0 1.997.004M297.497 315c-5.591-.868-11.297.186-12.948 8.876l19.854 1.356c-.242-4.906-1.65-8.552-6.906-10.232zM130.174 351.03c-12.126-6.403-11.952-30.578-3.934-39.43 5.795-6.397 13.907-7.838 22.127-6.336 8.044 1.47 12.378 6.677 13.615 14.998.596 4.013.943 8.063 1.454 12.553h-31.381c.53 4.671 2.16 8.331 6.038 10.13 7.089 3.286 13.742 1.71 20.365-3.33l4.388 7.8c-6.91 7.568-22.23 9.27-32.672 3.615m6.394-35.03-5.772 8.812h21c.439-7.312-5.243-12.782-15.228-8.813zM183.048 322.003c5.355 2.279 10.487 4.202 15.234 6.824 4.467 2.467 6.719 8.678 5.619 13.405-1.365 5.867-6.571 11.508-11.701 11.673-8.284.265-16.86 1.39-24.325-5.03a4910828 4910828 0 0 1 3.617-8.541c3.761 1.336 7.425 3 11.268 3.87 2.353.532 5.098.24 7.437-.454 1.18-.351 2.374-2.352 2.565-3.743.128-.937-1.267-2.564-2.364-3.1-3.747-1.834-7.62-3.44-11.526-4.917-9.2-3.48-13.285-13.094-7.611-20.74 2.404-3.24 7.642-5.179 11.927-6.034 6.847-1.367 13.65.088 19.742 4.556l-3.608 8.284c-3.367-1.16-6.776-2.474-10.276-3.472-1.5-.428-3.282-.576-4.772-.2-5.397 1.359-5.79 3.465-1.226 7.62zM225.834 334.02c-2.764-1.008-5.188-1.877-7.489-3.002-7.741-3.783-10.007-8.434-8.33-16.807.883-4.407 7.591-8.636 13.732-9.28 6.222-.653 11.96.932 17.488 3.232 3.935 1.638.562 4.513.227 6.73-.165 1.093-1.66 1.985-2.653 1.492-4.878-.478-9.751-1.19-14.635-1.273-1.236-.02-3.161 1.778-3.53 3.088-.242.865 1.492 2.842 2.761 3.469 4.021 1.984 8.314 3.414 12.367 5.34 6.658 3.166 10.31 9.275 8.99 14.567-2.171 8.703-6.778 12.404-15.468 12.424-7.14.017-14.449.738-20.542-5.172l3.438-8.502c3.749 1.461 7.202 3.249 10.871 4.078 2.337.527 5.16.094 7.468-.734 3.257-1.169 3.562-4.626.78-6.79-1.513-1.177-3.375-1.907-5.475-2.86zM84.958 308.885c5.982-5.709 13.173-4.036 20.176-3.206 1.882.222 3.698.999 5.785 2.255 1.093.964 1.946 1.195 2.798 1.426-.63 2.09-1.258 4.182-2.637 6.531-1.234.82-1.718 1.381-2.202 1.942-3.612-1.276-7.158-3.201-10.864-3.585-2.2-.229-4.653 1.968-6.993 3.075 1.54 1.857 2.745 4.287 4.702 5.434 2.716 1.59 6.005 2.193 9.033 3.262 11.146 3.937 13.241 14.882 7.163 22.608-1.842 2.342-5.078 4.927-7.75 5.012-6.608.21-13.459-.18-19.834-1.808-5.853-1.495-5.888-2.976-3.17-8.319.646-1.267 1.55-2.404 2.425-3.736 5.415 3.48 10.744 6.777 17.22 4.1 1.148-.476 2.16-2.325 2.371-3.676.155-.99-.828-2.739-1.775-3.219-3.694-1.87-7.52-3.515-11.397-4.978-9.824-3.709-12.586-13.503-7.13-20.917 1.15-.86 1.614-1.53 2.079-2.201zM326.11 340.953c4.589 2.147 8.98 5.6 14.449 3.035 1.685-.79 4.352-2.758 4.15-3.625-.429-1.847-2.125-3.969-3.869-4.829-4.016-1.98-8.571-2.889-12.54-4.943-5.241-2.715-8.241-9.029-7.265-13.692 1.3-6.213 6.29-11.349 12.525-11.779 5.823-.402 11.552-.191 17.375 2.03 5.278 2.014 3.996 4.292 2.091 7.434-.695 1.147-1.69 2.111-2.387 1.835-4.933-.479-9.863-1.198-14.802-1.269-1.257-.018-2.544 2.02-3.818 3.115 1.114 1.262 1.988 3.04 3.387 3.69 4.354 2.025 9.015 3.391 13.356 5.44 5.942 2.806 8.84 9.969 7.166 16.72-1.208 4.871-7.634 9.825-13.113 9.857-6.835.041-13.844.996-20.062-3.045-.347-.225-.506-.74-.519-1.714a673.046 673.046 0 0 1 3.875-8.26zM253 313.073v-6.752h11.693v46.362H253v-39.61zM262.813 288.004c1.046 1.606 1.894 3.171 2.117 4.821.287 2.117.07 4.302.07 6.816h-11.646v-11.64c2.83 0 5.907 0 9.46.003z"/><path fill="#0B2355" d="M325.952 340.626c-1.057 2.882-2.27 5.438-3.772 8.208-.607.186-1.178.231-1.212.117-.753-2.53 2.136-7.66 4.984-8.325zM313.399 349.06c-.19-.858-.025-1.772.426-2.896.166.806.049 1.824-.426 2.896zM109.177 317.908c.185-.636.669-1.197 1.545-1.812-.153.593-.7 1.24-1.545 1.812zM84.61 308.94c-.117.616-.581 1.287-1.385 1.988.118-.624.577-1.279 1.384-1.988zM113.507 309.114c-.642.015-1.495-.216-2.406-.838.693-.063 1.445.265 2.406.838zM311.837 340.685c-.437.311-.87.307-1.627.287.328-.21.98-.407 1.627-.287z"/><path fill="#FFF" d="M297.884 315.02c4.869 1.66 6.277 5.306 6.519 10.212l-19.855-1.355c1.652-8.69 7.358-9.745 13.336-8.856zM136.968 315.973c9.585-3.943 15.267 1.527 14.828 8.839h-21c2.247-3.432 4.01-6.122 6.172-8.84z"/></svg>