<svg xmlns="http://www.w3.org/2000/svg" viewBox="0 0 416 400">
    <path d="M103.6 149.5c17.1-6.6 25.7-19.6 25.7-38.5S111.6 69.3 82 69.3 38.4 80.1 29.6 89.2c-.3.3-.4.8-.1 1.2l14 21.9c.2.3.4.4.7.5.3 0 .6 0 .8-.3 8.2-8.6 18.1-13 29.5-13s19.9 5.8 19.9 16.5c0 16.9-17.8 20.4-32.7 20.4h-5.8c-.6 0-1 .4-1 1v26.3c0 .6.4 1 1 1h6.5c24.2 0 36.5 7.6 36.5 22.7s-9 19.2-25.3 19.2-25.4-8-30.9-14.1c-.2-.2-.5-.4-.9-.3-.3 0-.6.2-.8.5l-13.7 25.1c-.2.4-.1.9.2 1.2 5.7 5.5 19.1 18.4 48.2 18.4s33-4.4 43.2-12.8c10-8.2 15.3-20 15.3-34.1 0-21.2-10.3-35-30.6-41.1ZM253.4 88.4c-14.7-15.8-33.3-19.2-46.2-19.2s-31.5 3.3-46.3 19.2c-13.8 14.7-20.7 36.6-20.7 64.9s7 50.2 20.7 64.9c14.8 15.8 33.2 19.2 46.1 19.2s31.5-3.3 46.3-19.2c13.8-14.7 20.7-36.6 20.7-64.9s-6.9-50.2-20.6-64.9Zm-14.6 64.7c0 34.2-11.2 53-31.6 53s-31.8-18.8-31.8-53 11.3-53.2 31.8-53.2 31.6 18.9 31.6 53.2ZM392 147h-39v-39.3c0-.6-.4-1-1-1h-26.8c-.6 0-1 .4-1 1V147h-39c-.6 0-1 .4-1 1v25.8c0 .6.4 1 1 1h39V215c0 .6.4 1 1 1H352c.6 0 1-.4 1-1v-40.2h39c.6 0 1-.4 1-1V148c0-.6-.4-1-1-1Z"/>
    <rect width="15.2" height="14" x="139.3" y="281.9" rx="1" ry="1"/>
    <path d="M153.4 300.5h-13.1c-.6 0-1 .4-1 1v48.7c0 5.8-2.3 7-5.7 7s-2.6-.2-3.5-.5c-.3-.1-.7 0-.9.1-.3.2-.4.5-.4.8v10.5c0 .4.3.8.7.9 1.6.5 3.7.8 6.1.8 12.5 0 18.9-6.4 18.9-19.1v-49.1c0-.6-.4-1-1-1ZM183.2 299.3c-8.7 0-15.9 2.7-21.2 8-.3.3-.4.8-.2 1.2l4.8 8.3c.2.3.4.4.7.5.3 0 .6 0 .8-.3 2.3-2.3 6.4-5.1 12.8-5.1s8.2 2.4 8.3 8.3c-1.3-.1-3.3-.3-5.9-.3-13.9 0-22.1 5.9-22.1 15.7s5.8 15.3 15.5 15.3 11.2-2.5 13.2-4.6v2.4c0 .6.4 1 1 1h12c.6 0 1-.4 1-1v-27.8c0-14.4-7-21.6-20.9-21.6Zm6.2 30.8v5.5c-.9 1-3.2 3.2-8.3 3.2s-5.2-1.4-5.2-4.4 3-4.5 8.8-4.5 3.5 0 4.8.1ZM232.3 299.3c-8.7 0-15.9 2.7-21.2 8-.3.3-.4.8-.2 1.2l4.8 8.3c.2.3.4.4.7.5.3 0 .6 0 .8-.3 2"/>
</svg>