<svg xmlns="http://www.w3.org/2000/svg" xml:space="preserve" viewBox="0 0 416 400"><path d="M136.999 291.653c4.999.002 9.498.038 13.997-.003 2.927-.027 5.373.317 5.32 4.176-.05 3.75-1.879 5.489-5.54 5.493-5.332.005-10.664.02-15.996.021-8.165.003-16.333.125-24.494-.06-3.583-.081-5.044.977-5.003 4.803.167 15.662.143 31.327.01 46.99-.029 3.48 1.173 4.667 4.639 4.638 15.329-.13 30.661-.15 45.99.004 3.858.039 4.972-1.57 4.771-5.095-.179-3.155-.085-6.332.024-9.495.116-3.362 1.98-5.358 5.325-5.315 3.425.044 4.326 2.466 4.303 5.496-.044 5.999-.13 12 .025 17.996.104 4.047-1.915 5.985-5.65 5.998a8505.64 8505.64 0 0 1-63.486-.02c-3.758-.015-5.63-2.034-5.615-6.04.086-21.496.103-42.992-.018-64.488-.023-4.011 1.658-5.187 5.405-5.145 11.83.134 23.662.047 35.993.046zM95.65 60.002c.006-4.662.04-8.824.013-12.986-.023-3.434 1.511-5.345 5.062-5.346 16.817-.005 33.633 0 50.45 0 3.487 0 5.071 1.712 5.186 5.227.134 4.122-2.36 4.491-5.516 4.48-13.32-.048-26.643.143-39.958-.116-4.463-.086-5.688 1.42-5.624 5.742.225 15.148.182 30.303.02 45.453-.04 3.774.9 5.339 5.02 5.281 15.15-.211 30.303-.162 45.453-.021 3.665.034 5.19-1.203 4.946-4.915-.196-2.982-.187-6.008.085-8.982.282-3.09 1.628-5.266 5.371-5.171 3.794.096 4.228 2.349 4.196 5.327-.065 5.993-.142 11.991.034 17.98.105 3.598-1.442 5.334-4.916 5.338-21.645.026-43.29.014-64.934.012-3.959 0-4.945-2.281-4.925-5.855.094-16.982.039-33.965.037-51.448zM151.996 242.346c-16.66.004-32.821.026-48.982-.002-6.387-.01-7.343-.936-7.35-7.177-.028-20.66-.026-41.32.004-61.979.008-5.827.677-6.498 6.738-6.515 15.828-.045 31.656-.028 47.483.005 3.246.007 6.644-.028 6.415 4.764-.205 4.305-3.021 4.949-6.558 4.933-12.995-.058-25.992.092-38.985-.092-4.085-.058-5.54 1.268-5.487 5.448.196 15.159.184 30.323 0 45.482-.049 4.002.999 5.599 5.295 5.535 14.992-.225 29.99-.191 44.982-.024 3.944.043 5.43-1.333 5.164-5.231-.214-3.147-.212-6.352.14-9.481.329-2.935 2.269-5.081 5.313-4.947 3.232.142 4.273 2.49 4.2 5.62a395.242 395.242 0 0 0 0 17.493c.095 4.488-1.98 6.359-6.378 6.196-3.827-.14-7.663-.03-11.994-.028z"/><path d="M168.138 47.797c5.428-3.095 10.712-2.715 13.444.687 2.798 3.483 2.569 9.162-1.323 13.162a2206.053 2206.053 0 0 1-35.926 36.052c-4.188 4.11-9.93 3.697-14.164-.475-4.738-4.671-9.47-9.35-14.108-14.12-4.166-4.285-4.47-9.812-.897-13.305 3.291-3.216 9.631-2.91 13.483.682 1.338 1.247 2.596 2.578 3.914 3.847 1.31 1.261 2.65 2.492 4.613 4.332 10.3-10.275 20.488-20.438 30.964-30.862zM118.746 317.264c4.763-1.37 8.08.744 11.133 3.466a56.288 56.288 0 0 1 4.57 4.596c2.338 2.625 4.167 2.192 6.532-.248 8.68-8.956 17.582-17.695 26.358-26.558 4.468-4.512 8.966-4.998 13.095-1.275 3.995 3.603 3.976 9.282-.32 13.617a5127.74 5127.74 0 0 1-35.993 35.977c-4.796 4.744-9.978 4.508-14.77-.337-4.327-4.375-8.716-8.69-12.998-13.108-5.652-5.83-4.874-11.67 2.393-16.13zM176.537 189.52c-10.723 10.722-21.178 21.209-31.676 31.652-5.806 5.776-9.883 5.751-15.752-.041-4.5-4.442-9.016-8.869-13.397-13.426-4.075-4.24-4.087-9.608-.237-13.229 3.578-3.364 9.026-3.135 12.821.8 2.652 2.75 5.001 5.79 7.148 8.306 4.01-1.211 5.437-3.599 7.27-5.418 8.381-8.32 16.702-16.704 25.005-25.104 3.512-3.552 7.384-4.074 11.712-1.695 4.061 2.233 4.394 6.022 3.783 9.923-.588 3.76-4.311 5.285-6.677 8.233zM306 60.663c5.327 0 10.154.026 14.981-.008 3.232-.022 6.215.322 6.282 4.53.067 4.249-2.646 5.18-6.282 5.175-27.3-.03-54.598-.002-81.897.006-5.326.001-10.653-.037-15.98-.001-3.548.024-6.477-.791-6.323-5.113.143-4.033 3.032-4.596 6.323-4.594 27.465.02 54.93.008 82.896.005zM229.07 195.362c-2.819-.036-5.184.164-7.472-.168-2.826-.41-5.078-1.717-4.845-5.182.227-3.367 2.116-4.381 5.328-4.375 33.313.066 66.627.064 99.94-.005 3.253-.007 5.011 1.12 5.27 4.454.275 3.521-1.898 4.738-4.796 5.128-1.803.243-3.657.148-5.488.148-29.15.006-58.299.002-87.937 0zM296 319.358c-24.484.002-48.468-.025-72.452.035-3.61.009-6.926-.095-6.8-4.93.118-4.462 3.496-4.775 6.74-4.779 32.311-.04 64.623-.02 96.935-.001.991 0 2.026.016 2.966.287 2.696.776 4.318 2.4 3.875 5.468-.402 2.787-1.97 3.934-4.782 3.913-8.66-.066-17.321-.006-26.482.007zM247 98.358c-8.482-.002-16.465-.074-24.446.027-3.22.041-5.613-.611-5.828-4.4-.234-4.12 2.54-5.16 5.746-5.237 6.98-.17 13.967-.078 20.951-.08 9.812-.005 19.623-.03 29.434.027 2.713.016 5.456.322 6.34 3.591 1.055 3.907-.522 5.986-4.758 6.029-8.979.09-17.96.037-27.44.043zM256 223.361c-11.308-.01-22.116-.06-32.924-.005-3.617.018-6.396-.874-6.299-5.129.093-4.076 2.94-4.595 6.255-4.586 16.628.048 33.256.045 49.883.01 3.576-.006 6.422.83 6.332 5.114-.086 4.117-3.049 4.597-6.286 4.59-5.487-.012-10.974.003-16.961.006zM249 348.342c-8.99-.004-17.479-.03-25.968-.001-3.3.01-6.177-.622-6.257-4.662-.085-4.303 2.833-5.05 6.392-5.04 16.646.045 33.292.006 49.938.045 3.068.007 6.26.048 6.19 4.497-.066 4.24-2.699 5.206-6.325 5.177-7.823-.061-15.647-.017-23.97-.016z"/></svg>