<svg xmlns="http://www.w3.org/2000/svg" xml:space="preserve" viewBox="0 0 416 400"><path d="M159.481 113.422c23.089 18.604 42.735 39.759 57.642 65.832 5.179-8.69 10.346-16.94 16.462-24.542 13.691-17.017 28.556-32.8 46.841-45.032 3.057-2.045 6.272-3.797 9.734-5.01 2.606-.913 3.524-2.578 3.519-5.286-.045-24.919 8.777-47.04 21.634-67.853 2.925-4.734 6.825-6.164 10.275-3.932 3.46 2.239 3.618 5.45.534 10.437-11.066 17.895-18.165 37.213-20.672 58.14-.492 4.113-.367 7.928 3.156 11.326 6.222 6 6.955 14.522 8.63 22.393 2.961 13.925 2.405 28.126 1.99 42.227a69.634 69.634 0 0 1-6.267 26.957c-4.28 9.39-12.789 13.978-21.554 17.45-21.156 8.379-43.084 10.05-64.71 2.565-7.154-2.476-12.484-2.303-19.323.299-12.586 4.788-25.953 4.774-39.31 3.357-11.87-1.258-22.945-4.616-33.44-10.407-10.583-5.839-15.541-15.265-17.516-26.407-4.167-23.508-3.57-46.885 3.596-69.85 1.039-3.328 2.386-6.62 5.103-9.015 1.881-1.658 1.936-3.757 1.841-5.947-.586-13.556-3.953-26.497-8.65-39.15-2.963-7.982-7.018-15.398-11.516-22.595-.615-.984-1.134-2.028-1.684-3.052-1.966-3.655-1.553-7.025 2.204-8.959 3.367-1.733 6.495-.518 8.637 2.667 5.579 8.295 10.034 17.203 13.74 26.45 5.589 13.948 9.368 28.324 8.984 43.533-.044 1.75.22 3.041 2.355 3.758 6.341 2.127 12.026 5.588 17.765 9.646m148.147 38.4c-1.486-9.456-1.687-19.104-4.785-28.32-3.072-9.138-4.434-9.761-12.775-4.66-1.833 1.122-3.693 2.217-5.435 3.47-15.91 11.438-29.376 25.432-41.376 40.775-7.978 10.2-15.236 20.988-19.142 33.599-1.718 5.545-.962 7.494 4.242 9.916 1.79.834 3.7 1.467 5.615 1.973 10.345 2.739 20.868 3.317 31.447 1.975 11.005-1.395 21.364-4.835 30.612-11.097 3.187-2.157 5.546-4.999 6.85-8.888 4.129-12.31 4.957-24.977 4.747-38.742M128.6 135.983c-1.743 14.064-1.715 28.11-.32 42.228 1.443 14.59 9.102 23.605 22.89 27.976 7.939 2.516 15.913 4.145 24.294 4.732 10.124.709 19.779-.445 29.187-3.91 6.074-2.236 7.084-4.851 5.242-11.311-1.611-5.65-4.165-10.885-7.272-15.801-11.778-18.638-25.798-35.398-42.612-49.717-6.193-5.274-12.717-10.122-20.07-13.763-3.282-1.626-5.148-.779-6.683 2.482-2.444 5.192-3.292 10.743-4.656 17.084zM171.01 320.067c-13.082-12.738-28.483-21.08-44.799-27.967-6.03-2.545-6.695-4.067-5.735-10.62 1.174-8.021 2.107-16.076 3.189-24.11.796-5.908 4.35-8.162 9.831-5.918 21.28 8.714 43.535 11.94 66.36 13.496 13.85.945 27.568.601 41.251-.465 19.349-1.507 38.467-4.739 56.556-12.393 7.735-3.274 10.458-1.647 11.762 6.743 1.294 8.325 2.623 16.647 3.713 25 .484 3.71-1.32 6.19-4.921 7.662-12.018 4.912-23.54 10.749-34.125 18.38-23.092 16.645-39.38 37.698-43.845 66.594-.586 3.79-2.958 5.844-6.874 5.87-4.497.03-8.995.025-13.492.001-4.352-.023-6.655-2.169-7.244-6.554-2.77-20.6-13.525-37.098-27.079-52.103-1.201-1.33-2.846-2.26-4.548-3.616m-14.895-48.46c-7.22-.87-13.85-4.2-21.295-5.512-.524 3.979-.965 7.56-1.475 11.131-.422 2.957.89 4.773 3.602 5.713 5.69 1.97 10.858 4.997 16.003 8.032 29.497 17.402 52.032 40.45 60.458 74.88.396 1.617.736 3.479 2.833 3.591 2.423.13 2.9-1.908 3.317-3.682 5.194-22.06 17-39.946 33.626-55.16 12.53-11.464 26.406-20.569 41.969-27.16 3.973-1.682 5.178-4.3 4.295-8.266-.287-1.288-.743-2.59-.735-3.882.026-4.412-1.677-5.49-5.927-4.023-18.155 6.27-37.07 9.11-56.09 9.866-26.712 1.062-53.483.839-80.58-5.527z"/></svg>