<svg xmlns="http://www.w3.org/2000/svg" xml:space="preserve" viewBox="0 0 416 400"><path d="M69.65 266c-.004-32.461 1.66-64.403 1.058-96.374-.111-5.945-1.668-11.734-.692-17.838 2.147-13.433 10.383-21.037 23.06-22.524 12.306-1.444 24.959-1.962 37.273.512 11.334 2.276 20.288 11.002 20.178 25.129-.446 57.487-.187 114.98-.192 172.472 0 11.493-5.53 16.794-17.233 17.034-7.006.143-13.255-.842-17.258-7.482-1.702-2.823-2.215-5.812-2.209-9.036.038-19.497.006-38.994.027-58.49.003-2.872-.004-5.722-4.145-4.851-2.781.585-2.138 3.032-2.142 4.92-.04 18.33-.026 36.66-.028 54.99 0 1.667.082 3.34-.023 4.999-.371 5.868-2.534 10.71-8.375 12.958-14.851 5.72-29.667.346-29.367-17.93.317-19.324.07-38.659.068-58.49m12.688-20.5c-.001 15.66-.005 31.32-.003 46.98.002 10.995.1 21.99-.03 32.984-.05 4.167 1.53 6.145 5.809 6.223 5.983.108 7.508-1.221 7.522-7.67.046-21.49.053-42.981-.003-64.471-.01-3.731.587-6.79 5.174-6.834 6.496-.062 12.994-.054 19.49 0 3.176.025 4.946 1.659 5.02 4.922.03 1.332.028 2.665.029 3.998.003 20.99-.022 41.981.023 62.972.012 5.693 1.648 7.209 7.13 7.043 4.925-.15 6.148-1.811 6.15-8.63.01-55.142.007-110.284.004-165.426-.001-10.55-5.675-16.186-16.358-16.23-7.83-.032-15.668.203-23.487-.094-8.43-.32-16.863 6.196-16.666 16.277.566 28.976.197 57.97.196 87.957zM342.355 206.901c3.62 21.627 7.344 42.797 10.734 64.02.694 4.346-1.432 8.429-5.336 10.481-7.361 3.87-9.11 9.656-8.572 17.56.688 10.113.206 20.308.154 30.468-.048 9.19-6.373 15.704-15.592 15.847-3.442.053-6.898.493-10.369-.664-8.966-2.989-11.37-10.096-11.647-18.354-.28-8.318-.1-16.654-.061-24.981.012-2.714-.095-5.045-3.841-4.913-3.424.12-3.501 2.316-3.494 4.805.022 7.994.037 15.99-.007 23.984-.066 11.962-6.346 17.577-18.138 18.38-12.656.86-20.525-8.325-19.667-19.913.711-9.608-.002-19.313.224-28.968.084-3.603-1.112-6.04-4.122-7.815-3.012-1.775-5.992-3.655-8.196-6.425-2.651-3.33-4.021-6.82-3.211-11.45 4.333-24.78 8.365-49.611 12.44-74.435 2.44-14.86 4.477-29.792 7.252-44.587 1.662-8.86 7.85-14.628 16.002-17.789 13.195-5.115 26.67-5.138 39.887-.075 11.256 4.311 16.056 13.186 17.575 24.916 2.144 16.557 5.266 32.986 7.985 49.908m-32.254 77.83c4.241.828 4.188 4.193 4.206 7.364.063 10.992-.004 21.985.05 32.977.027 5.909 1.557 7.563 6.705 7.59 5.208.025 6.542-1.435 6.574-7.574.054-10.326.537-20.686-.136-30.969-.599-9.159.566-16.706 9.946-20.878 2.18-.97 2.973-2.772 2.417-5.657-1.751-9.089-2.88-18.296-4.39-27.434-4.587-27.728-9.276-55.44-13.84-83.172-.985-5.991-3.583-10.475-9.417-13.005-9.158-3.971-18.48-3.593-27.749-1.117-7.067 1.888-10.932 6.874-12.119 14.27-5.61 34.963-11.362 69.902-17.139 104.837-1.81 10.95-1.985 11.374 7.982 16.494 4.778 2.455 6.272 5.786 6.206 10.756-.153 11.49-.072 22.984-.035 34.476.018 5.466 1.369 6.943 6.097 6.952 4.753.009 6.154-1.48 6.181-6.928.054-10.66-.031-21.32.047-31.978.036-4.815 2.199-6.972 6.998-7.036 6.828-.09 13.657-.017 21.416.031zM237.35 321.984c0 2.661-.203 4.848.034 6.987 1.052 9.507-7.002 15.607-14.009 16.301-9.524.944-16.158-3.994-17.733-13.491-2.245-13.54-.394-27.225-.97-40.833-.137-3.208.516-6.507-.669-10.068-2.351 1.564-1.654 3.533-1.66 5.154-.052 13.988-.396 27.99.145 41.959.269 6.93-5.677 14.233-12.425 15.265-9.392 1.438-16.99-2.94-19.175-11.012-.822-3.038-1.296-6.118-1.282-9.33.09-20.982-.75-42.004.276-62.936.994-20.302.217-40.574.862-60.845.131-4.119-1.146-7.972-.52-12.295 1.63-11.248 8.847-16.95 18.686-18.538 10.24-1.653 20.923-1.958 31.23.277 11.879 2.575 17.203 9.826 17.205 22.016.005 43.63.003 87.262.004 131.389M225.651 251.5c0-19.656.008-39.312-.004-58.968-.005-7.86-4.315-12.122-12.361-12.188-5.997-.05-11.994-.037-17.99 0-9.304.058-12.952 3.72-12.954 13.023-.01 43.144-.004 86.288-.003 129.431 0 1-.001 2 .02 2.999.066 2.896 1.656 5.143 4.35 5.092 2.404-.045 3.954-2.218 3.93-4.956-.012-1.332.019-2.665.02-3.997.003-15.659-.03-31.317.027-46.975.02-5.224 2.043-7.193 7.244-7.286 3.83-.07 7.663-.047 11.493-.01 6.24.061 7.905 1.734 7.915 8.083.027 16.158-.017 32.317.031 48.475.01 3.381-.786 8.181 4.15 8.02 4.538-.15 4.13-4.784 4.132-8.28.005-23.822 0-47.642 0-72.463zM287.659 122.833c-21.603-7.084-27.4-33.26-13.004-50.155 9.764-11.457 33.856-10.457 42.61-2.12 13.14 12.516 13.56 33.717.477 45.725-8.484 7.788-18.665 9.513-30.083 6.55m26.98-27.649c.003-.832.036-1.665.006-2.495-.395-10.8-8.87-16.688-17.534-16.896-8.584-.205-17.31 6.117-17.725 16.65-.392 9.975 6.351 17.997 15.806 19.152 8.888 1.086 17.288-5.646 19.446-16.41zM100.344 64.88c17.92-4.777 35.317 3.478 39.504 20.846 3.042 12.617-1.316 25.777-11.785 33.162-9.658 6.813-25.139 7.169-34.79.2-9.042-6.53-13.917-15.75-13.2-26.945.831-12.979 7.14-22.562 20.271-27.263m26.429 35.323c4.982-8.537-.86-19.373-10.435-23.343-6.33-2.625-12.106-1.04-17.084 3.126-4.821 4.035-7.615 9.433-6.61 15.818 1.237 7.868 8.22 14.68 15.275 15.77 7.261 1.124 14.234-2.88 18.854-11.371z"/><path d="M213.278 164.729c-15.614 5.543-30.644-3.34-33.725-16.295-3.18-13.372-.96-24.377 14.205-31.73 11.18-5.422 25.694-.877 32.17 9.997 7.008 11.765 4.576 31.117-12.65 38.028m-9.71-37.35c-1.137.185-2.31.248-3.403.576-5.755 1.727-8.769 6.096-9.505 11.61-.658 4.932 1.916 8.995 6.068 11.74 4.553 3.01 9.241 3.292 13.999.215 4.658-3.013 7.52-8.597 6.537-12.943-1.285-5.678-5.823-10.76-13.696-11.198z"/></svg>