<svg xmlns="http://www.w3.org/2000/svg" xml:space="preserve" viewBox="0 0 416 400"><path d="M354.706 255.546c-6.736 16.515-16.28 30.716-27.81 43.795-20.87 23.673-46.72 39.2-77.14 46.542-33.003 7.965-65.36 5.224-96.782-8.367-28.69-12.41-51.027-32.095-67.773-58.12-13.19-20.496-21.147-42.946-23.679-67.414-3.382-32.696 2.12-63.537 17.679-92.451 13.868-25.774 33.714-45.884 58.936-60.732 17.582-10.351 36.632-16.52 56.753-18.93 26.833-3.215 52.808.57 77.894 10.906 18.252 7.52 34.36 18.307 48.137 32.14 21.789 21.88 35.957 48.116 42.552 78.499 3.433 15.818 3.426 31.745 2.656 47.624-.774 15.96-5.15 31.348-11.423 46.508M136.83 303.605c29.895 21.858 63.202 30.043 99.61 23.498 29.898-5.374 54.866-20.061 75.115-42.807 12.223-13.73 21.375-29.216 27.166-46.603 7.203-21.628 8.836-43.675 5.09-66.28-4.79-28.904-18.211-53.283-38.538-73.76-11.604-11.69-25.471-20.67-40.716-27.347-16.512-7.233-33.919-10.472-51.723-10.703-8.125-.105-16.45.958-24.562 2.774-20.4 4.566-39.123 12.7-55.437 25.885-17.614 14.235-31.204 31.614-40.206 52.499-10.093 23.418-13.662 47.808-9.966 72.99 2.495 16.994 8.083 33.097 16.73 48.093 9.436 16.363 21.97 29.876 37.437 41.76z"/><path d="M157.98 238.88c-3.31-5.232-6.072-10.35-7.804-15.921-.925-2.976-2.765-3.755-5.614-3.645-3.826.149-7.67.171-11.493-.032-4.437-.235-7.608-2.34-8.322-7.023-.996-6.53.945-10.76 5.464-12.585 3.697-1.493 7.555-1.008 11.353-.984 3.006.019 4.143-1.18 4.131-4.171-.012-2.956-1.093-4.203-4.117-4.215-3.624-.015-7.286.568-10.866-.828-4.89-1.906-7.105-6.427-5.96-12.738.74-4.076 4.436-7.506 8.947-6.957 10.123 1.233 15.589-1.696 20.42-12.022 11.222-23.975 31.342-38.16 57.597-42.895 14.546-2.624 28.735-.63 42.418 4.78 7.132 2.82 9.756 8.011 7.453 13.885-2.407 6.142-7.994 8.337-15.297 5.754-6.125-2.166-12.267-3.737-18.85-4.07-15.931-.803-29.648 4.242-41.345 14.829-5.763 5.217-10.868 11.047-13.453 18.587 1.993 1.565 3.895.995 5.65 1.004 11.828.058 23.658-.002 35.487.047 6.268.026 10.383 3.837 10.516 9.562.134 5.741-4.67 10.996-10.563 11.053-14.16.136-28.324.048-42.486.077-2.3.004-4.773-.403-4.948 3.243-.167 3.49.721 5.161 4.66 5.109 13.493-.182 26.99-.051 40.486-.068 3.592-.005 6.963.553 9.582 3.303 2.83 2.973 4.113 6.349 2.629 10.422-1.566 4.299-4.255 7.003-9.184 6.98-11.995-.058-23.992-.014-35.988-.01h-5.824c1.258 6.562 5.163 10.73 8.78 14.87 11.173 12.793 25.684 19.443 42.39 20.063 8.312.309 16.762-1.587 24.547-5.473 6.38-3.184 12.906-.923 15.253 4.724 2.599 6.25-.061 12.138-6.801 14.832-3.39 1.354-6.786 2.769-10.293 3.75-23.029 6.44-44.774 2.818-64.929-9.506-9.537-5.833-17.366-13.867-23.625-23.73z"/></svg>