<svg xmlns="http://www.w3.org/2000/svg" xml:space="preserve" viewBox="0 0 416 400"><path d="M135.342 66.034c.297 3.742 1.387 6.95 1.017 10.325-.518 4.716 1.5 6.406 6.352 6.38 31.333-.17 62.666-.082 94-.082 15.5 0 31.002-.151 46.498.08 4.657.07 6.337-1.966 6.413-6.139.055-2.999-.075-6.005.072-8.998.232-4.722 2.465-6.875 7.246-6.91 9.332-.067 18.666-.07 28 0 5.448.04 7.479 2.049 7.374 7.656-.507 27.258-7.02 52.77-21.965 75.899-13.34 20.643-30.664 37.432-49.845 52.497-3.371 2.648-6.651 5.413-10.254 8.353 4.204 5.047 9.69 8.22 14.447 12.182 21.611 17.996 41.151 37.712 53.547 63.428 7.486 15.528 12.024 31.874 13.244 49.163.303 4.293.977 8.57.826 12.891-.187 5.332-2.407 7.539-7.663 7.57-9 .054-18 .06-27 .011-5.871-.032-7.817-2.155-8.015-8.232-.12-3.646.418-7.306-.455-10.943-.624-2.6-1.734-3.859-4.728-3.853-47.667.086-95.333.076-143 .008-3.708-.006-5.28 1.68-5.062 5.117.275 4.363-.743 8.588-1.046 12.884-.247 3.51-2.145 5.02-5.52 5.017-9.833-.007-19.667.08-29.499-.04-4.592-.057-6.62-2.394-6.65-7.417-.135-22.468 4.76-43.787 14.868-63.87 6.532-12.975 14.974-24.55 24.613-35.463 12.184-13.794 26.66-24.852 40.75-36.42.496-.408.966-.848 2.008-1.765-5.304-4.311-10.407-8.402-15.448-12.567-22.366-18.481-42.222-39.067-54.375-65.94-6.258-13.84-10.167-28.317-11.574-43.52-.492-5.307-.85-10.576-.86-15.891-.008-4.49 2.04-6.797 6.65-6.777 9.833.042 19.666.014 29.5.01 3.306-.003 5.475 1.257 5.534 5.356m5.164 215.035c9.273-15.238 21.871-27.518 35.371-38.846 15.388-12.911 32.086-24.114 48.442-35.748 23.543-16.747 46.694-33.834 64.964-56.724 16.85-21.11 26.53-44.908 29.308-71.64.161-1.559.653-3.902-1.38-4.338-4.06-.871-8.448-1.229-12.31.123-2.579.902-2.266 4.562-2.478 7.095-1.445 17.23-7.258 32.945-16.26 47.562-12.761 20.724-30.927 36.185-49.97 50.695-20.703 15.776-42.66 29.844-63.045 46.07-15.928 12.68-30.565 26.63-42.415 43.255-13.175 18.483-20.454 39.282-23.313 61.7-.855 6.712-.2 7.382 6.687 7.391 1.832.003 3.664-.015 5.495-.046 1.741-.03 2.783-.822 3.002-2.648.294-2.464.73-4.911 1.017-7.376 1.927-16.59 7.231-31.96 16.885-46.525M122.482 75.091c-4.255-3.454-9.482-2.418-13.57-1.055-3.304 1.101-1.424 5.797-.94 8.976.1.655.24 1.305.323 1.962 2.532 19.943 9.635 38.216 20.783 54.83 14.71 21.922 34.51 38.793 55.345 54.568 1.75 1.325 3.654 2.135 5.514.966 3.568-2.244 6.92-4.83 10.587-7.435-1.228-1.104-1.925-1.814-2.704-2.418-15.062-11.668-30.019-23.384-43.022-37.495-18.89-20.5-29.96-44.258-32.316-72.899M295.346 300.43c4.365 10.836 6.64 22.173 7.85 33.732.3 2.877 1.68 3.448 4.235 3.549 10.987.435 11.13.49 10.21-10.421-1.346-15.932-6.275-30.898-13.912-44.807-15.126-27.55-38.011-47.916-62.883-66.31-1.285-.95-2.865-2.244-4.54-1.124-3.643 2.436-7.13 5.103-10.979 7.891 1.355 1.242 2.135 2.08 3.033 2.763 15.16 11.535 30.245 23.063 43.039 37.427 9.843 11.051 17.76 23.115 23.947 37.3M196.5 111.66c25.974.001 51.949.01 77.924-.01 2.266-.001 4.898.595 6.11-2.175 1.773-4.053 3.877-8.015 4.432-12.776H140.693c.473 3.365 1.601 6.07 2.58 8.851 1.662 4.726 4.579 6.404 9.773 6.254 14.14-.408 28.301-.143 43.454-.144M145.24 301.524c-1.862 3.665-3.988 7.244-3.978 11.816h143.27c.663-2.819-1.094-4.704-1.61-6.89-1.34-5.677-4.69-7.254-10.444-7.22-40.277.243-80.555.116-120.833.14-2.094.001-4.406-.57-6.405 2.154m59.26-176.19h-49.446c1.712 4.753 4.933 7.327 7.163 10.596 2.415 3.537 5.66 4.883 10.179 4.844 26.472-.229 52.946-.11 79.42-.113 7.441-.001 16.232-7.216 18.127-15.326l-65.444-.001m36 159.329h29.86c-1.266-2.224-1.966-3.52-2.727-4.78-4.288-7.1-10.01-10.027-18.842-9.77-24.447.712-48.929.247-73.397.25-9.89.002-15.312 3.867-19.345 14.3h84.45m-46.91-28h50.145c-14.398-20.37-45.153-22.277-61.534-.62 3.456 1.038 6.966.466 11.389.62m44.723-96.848c1.916-1.205 3.716-2.509 4.752-5.134h-60.63c12.698 18.337 41.62 21.305 55.878 5.134z"/></svg>