<svg xmlns="http://www.w3.org/2000/svg" xml:space="preserve" viewBox="0 0 416 400"><path d="M227.96 75.667c21.924 5.222 42.136 13.42 59.89 26.797 22.202 16.728 38.92 37.464 45.447 65.17.824 3.495 2.39 5.778 5.695 7.48 17.866 9.208 31.945 22.439 39.086 41.455 8.966 23.876 5.142 46.262-10.28 66.696-4.973 6.589-11.01 11.955-17.666 16.647-2.794 1.97-2.074 4.188-1.366 6.525 1.922 6.35 3.965 12.663 5.965 18.989.35 1.108.876 2.182 1.066 3.314.685 4.093 1.96 8.715-2.35 11.353-4.123 2.524-8.619 1.798-12.587-1.19-7.153-5.386-14.75-10.28-21.363-16.261-6.293-5.692-13.07-5.044-20.352-4.079-18.435 2.444-36.369.131-53.86-6.006-.939-.33-1.976-.58-2.745-1.161-10.128-7.664-20.945-3.14-31.531-1.747-13.371 1.76-26.696 2.344-40.175.943-7.593-.79-15.127-1.707-22.587-3.26-2.404-.5-4.225-.126-6.345 1.471-15.09 11.37-30.338 22.529-45.553 33.731-1.468 1.08-3.115 1.917-4.576 3.004-3.75 2.788-7.406 1.516-10.644-.638-3.04-2.022-2.979-5.545-2.157-8.65 1.782-6.734 3.885-13.383 5.916-20.05 2.709-8.888 5.386-17.789 8.266-26.623.904-2.776.043-4.26-2.246-5.754-7.509-4.904-14.617-10.405-20.872-16.81-16.863-17.272-28.602-37.392-32.108-61.593-3.188-22.012.674-42.838 11.53-62.367C67.6 110.416 96.24 91.43 130.704 79.657c23.914-8.168 48.562-8.848 73.351-7.798 7.867.333 15.657 2.468 23.905 3.808M200.25 88.349c-13.714-.235-27.374-.566-41.032 1.867-30.383 5.415-57.488 17.161-79.081 39.782-18.49 19.37-28.532 42.014-25.84 69.376 2.259 22.964 13.609 41.286 29.53 57.037 6.942 6.867 14.993 12.55 23.603 17.353 3.358 1.874 5.241 4.74 5.01 9.015-.194 3.597-1.599 6.753-2.446 10.111-1.783 7.064-5.005 13.775-6.043 22.26 10.844-7.793 20.913-14.535 30.378-22.04 4.662-3.695 9.148-3.9 14.398-2.801 14.978 3.132 30.117 5.321 45.422 4.155 5.551-.423 11.508.271 17.565-2.62-8.077-7.005-13.312-15.199-17.287-24.256-7.753-17.662-7.952-35.434-.14-53.04 8.544-19.262 23.351-32.246 42.133-41.28 20.4-9.813 41.772-12.206 64.02-9.873 4.62.485 9.156 2.177 13.852 1.693.116-.68.303-1.05.208-1.323-6.325-18.15-18.032-32.524-32.765-44.254-23.501-18.71-50.894-28.026-81.485-31.162m32.396 198.444c2.512 1.61 4.907 3.446 7.553 4.791 21.821 11.096 44.673 13.981 68.58 8.485 4.341-.999 8.47-.681 12.168 2.522 3.223 2.79 6.866 5.096 10.597 7.815.438-3.644-1.222-6.282-2.018-9.095-1.397-4.94-.117-8.76 4.375-11.35 10.399-5.997 18.97-13.828 25.095-24.247 6.316-10.742 8.754-22.404 6.025-34.43-3.92-17.274-14.719-29.813-29.807-38.744-15.66-9.27-32.618-13.577-50.815-13.192-25.112.53-47.286 8.169-64.653 27.02-15.698 17.04-19.432 40.32-6.346 60.9 4.913 7.726 11.455 13.727 19.246 19.525z"/></svg>