<svg xmlns="http://www.w3.org/2000/svg" xml:space="preserve" viewBox="0 0 416 400"><path d="M272.12 67.857c20.061-8.344 38.964-7.32 56.485 5.449 14.28 10.406 21.931 24.79 22.63 42.376.56 14.083-.357 28.201 3.02 42.119a154.194 154.194 0 0 0 10.217 29.04c3.645 7.795 2.429 10.898-5.728 13.847-1.95.705-4.286.778-5.864 2.916 3.336 3.267 7.881 4.141 11.793 6.106 6.438 3.236 10.891 7.754 12.821 14.919 3.2 11.88 5.494 23.863 5.869 36.188.118 3.89-.931 6.669-5.465 6.47-4.231-.186-6.004-2.54-6.296-6.733-.75-10.755-2.718-21.316-5.585-31.72-.948-3.441-2.714-5.904-6.04-7.404a4084.86 4084.86 0 0 1-36.237-16.584c-2.763-1.278-4.85-.973-7.034 1.35-4.564 4.852-9.37 9.478-14.122 14.151-4.141 4.073-7.789 4.18-12.1.09-4.954-4.7-9.824-9.501-14.511-14.466-2.211-2.343-4.034-2.43-6.92-1.092-11.142 5.162-22.421 10.03-33.684 14.927-5.043 2.193-8.38 5.445-9.525 11.18-1.165 5.836-2.838 11.587-3.457 17.521-.356 3.417-1.393 5.977-6.25 6.396 5.016 2.378 8.976 4.421 13.067 6.158 6.736 2.858 10.127 8.3 12.018 14.968.587 2.07 1.136 4.176 1.425 6.303.742 5.453 2.39 9.697 8.35 12.017 4.29 1.671 5.234 6.68 5.29 11.117.136 10.995.09 21.994.012 32.99-.035 4.831-2.374 7.855-6.108 7.526-4.272-.376-5.618-3.328-5.565-7.403.125-9.662-.073-19.33.081-28.99.07-4.305-1.197-6.3-5.976-6.29-59.483.116-118.967.106-178.451.002-4.676-.009-6.096 1.843-5.998 6.27.211 9.492.105 18.993.044 28.49-.035 5.273-2.306 8.336-6.21 7.912-4.591-.5-5.568-3.792-5.51-7.967.154-11.162.07-22.327.045-33.49-.012-5.663 1.875-10.164 7.618-12.09 2.777-.931 3.778-2.93 4.314-5.493.611-2.919 1.424-5.799 1.945-8.732 1.738-9.791 7.672-15.72 16.726-19.312 13.576-5.389 27.014-11.128 40.49-16.769 6.56-2.746 7.607-6.548 3.362-12.018-5.872-7.566-9.94-16.126-13.267-24.996-1.704-4.543-3.53-8.632-6.852-12.404-4.585-5.206-4.596-11.79-1.35-17.754 2.618-4.808 1.894-9.544 1.62-14.501-.685-12.354-.219-24.578 6.849-35.41 2.304-3.53 5.665-6.258 9.593-7.707 3.707-1.367 6.54-3.591 9.276-6.282 8.961-8.81 20.386-10.107 31.654-7.901 25.017 4.897 40.643 20.474 47.068 45.143 1.772 6.805 1.588 13.793.393 20.633-.47 2.691-.033 4.765.93 7.119 2.275 5.555 2.697 11.597-1.456 16.024-5.652 6.025-6.812 13.856-10.171 20.768-2.986 6.144-5.893 12.283-10.557 17.38-3.45 3.77-3.145 8.575 1.438 10.69 9.135 4.22 18.558 7.817 28.434 11.908-.718-9.953 1.905-18.728 4.028-27.568 1.54-6.409 4.772-11.546 11.177-14.35 4.703-2.058 9.207-4.573 14.399-7.186-3.524-1.558-6.615-2.928-9.708-4.293-4.56-2.012-6.116-5.643-3.807-10.075 6.986-13.405 11.346-27.714 13.35-42.552 1.025-7.582 1.077-15.392.898-23.224-.48-21.062 6.006-39.572 24.92-51.674 1.96-1.254 3.878-2.575 6.155-4.033m-17.814 71.375c.116-2.82.313-5.64.333-8.46.06-8.397.645-9.217 8.751-11.126 9.089-2.141 17.922-4.995 26.113-9.545 5.568-3.092 10.843-6.427 12.435-13.411.671-2.943 3.508-3.077 6.146-3.028 2.43.046 4.628.89 4.971 3.278 1.246 8.677 6.819 14.65 14 17.547 10.57 4.267 12.359 11.605 11.366 21.407-.484 4.783-.026 9.656-.125 14.485a53.923 53.923 0 0 1-1.82 12.744c-2.06 7.755-6.115 14.287-12.155 19.627-1.516 1.34-3.257 2.551-2.368 5.436.878 2.85 2.726 3.432 5.087 3.872a44.758 44.758 0 0 0 16.341.037c2.782-.51 6.066-.085 8.334-2.95-.448-1.22-.862-2.466-1.356-3.678-7.151-17.54-11.363-35.633-10.806-54.722.188-6.451.342-12.905-.852-19.373-3.507-18.99-17.379-33.474-37.852-36.581-15.172-2.302-30.234 4.696-40.653 20.221-9.295 13.85-7.029 29.592-6.73 45.496-1.916 5.014-1.396 10.41-2.466 15.577-2.386 11.525-6.021 22.65-10.584 33.842 9.054 3.184 17.793 3.635 26.757 1.802 2.486-.508 3.039-2.127 3.581-4.153.535-1.999-.447-2.99-1.838-4.156-6.958-5.832-11.232-13.254-13.353-22.11-1.693-7.07-.092-14.307-1.257-22.078m-113.622-24.117c-4.922 1.422-9.128 3.86-12.041 8.247-1.192 1.794-2.473 3.6-4.894 3.877-8.337.953-11.925 6.646-13.302 13.988-1.784 9.52-1.572 19.12-.32 28.739.5 3.844 1.25 7.956-3.086 10.745-2.129 1.369-1.61 4.077.188 5.084 4.514 2.527 5.447 6.915 6.722 11.165 1.976 6.584 5.07 12.676 8.468 18.56 3.462 5.994 7.021 12.041 15.123 13.09 5.127.663 10.244 1.49 15.368.97 8.157-.83 16.059-2.054 20.788-10.416 2.95-5.216 5.815-10.413 8.277-15.883 2.81-6.245 3.39-13.608 9.575-18.243 2.414-1.809.477-3.926-1.272-5.346-2.735-2.22-3.206-5.004-1.976-8.045 5.08-12.57 2.044-24.082-4.5-35.11-8.737-14.72-26.746-23.914-43.118-21.422m87.484 161.29c-.754-2.495-2.892-3.753-4.95-4.635a3124.691 3124.691 0 0 0-43.057-18.074c-2.39-.984-4.816-1.587-7.685-.587-15.516 5.413-31.156 5.931-46.718.13-2.739-1.02-5.203-.732-7.704.306-12.71 5.277-25.333 10.769-38.128 15.83-7.201 2.849-11.133 7.798-12.58 15.296-1.35 6.998-1.567 6.978 5.491 6.98 48.604.008 97.208.082 145.811-.034 15.185-.037 14.993 3.37 9.52-15.212m54.54-98.636c20.882 11.903 44.225-6.73 43.005-26.564-.378-6.135-.229-12.32.005-18.468.118-3.09-1.04-5.069-3.572-6.496-4.788-2.7-9.223-5.845-13.01-9.882-1.414-1.508-3.11-2.71-5.225-1.034-10.115 8.013-22.101 11.886-34.22 15.44-2.452.72-3.464 2.082-3.387 4.684.152 5.155-.041 10.32.062 15.477.235 11.77 5.722 20.493 16.343 26.843m8.579 26.418 5.76 4.115c4.632-3.525 8.364-7.742 12.255-11.782.93-.966 1.708-2.153.994-3.588-.854-1.716-2.29-.832-3.51-.613-7.23 1.297-14.45 1.75-21.641-.202-1.167-.316-2.202-.755-2.964.708-.74 1.419.202 2.152 1.002 2.984 2.533 2.632 5.07 5.261 8.104 8.378m-134.25 37.153c-8.477.098-16.96.412-26.137-1.633 5.433 7.23 29.978 7.22 35.774.768-3.101-.496-5.927.227-9.638.865z"/></svg>