<svg xmlns="http://www.w3.org/2000/svg" xml:space="preserve" viewBox="0 0 416 400"><path d="M324.812 358.945c-11.345 8.643-23.963 11.506-37.667 11.469-51.658-.141-103.318-.038-154.976-.053-20.501-.006-36.557-8.3-47.619-25.774-4.182-6.605-5.774-14.065-6.823-21.633a7718.533 7718.533 0 0 1-7.927-59.012c-2.446-18.699-4.715-37.422-7.18-56.119a4258.244 4258.244 0 0 0-6.826-49.639c-1.881-13.077-.928-25.358 7.692-36.3 6.834-8.674 15.842-13.068 26.416-14.082 7.265-.697 14.653-.042 21.983-.167 3.132-.053 4.509.992 4.475 4.3-.128 12.56.908 10.055-9.791 10.442-5.956.215-11.988-.916-17.86.957-13.846 4.416-20.549 16.268-18.213 30.67 2.355 14.52 3.884 29.172 5.87 43.753 1.85 13.597 3.89 27.17 5.732 40.768 1.822 13.443 3.486 26.908 5.25 40.36 2.024 15.42 3.744 30.89 6.217 46.238 2.637 16.363 18.798 29.517 35.343 29.525 22.33.012 44.66.01 66.99.008 7.75 0 7.753-.008 7.754-8.003.004-31.828.059-63.657-.05-95.485-.015-4.15 1.719-6.666 5.367-7.99 3.535-1.284 6.067.612 8.268 3.104 1.625 1.84 1.073 4.118 1.075 6.23.036 31.829.027 63.657.038 95.486.002 6.636.02 6.655 6.513 6.659 22.997.012 45.994.034 68.99.005 17.046-.021 33.056-15.263 34.93-32.314 1.788-16.282 4.433-32.47 6.6-48.712 2.165-16.241 4.156-32.505 6.313-48.747 2.155-16.237 4.48-32.452 6.615-48.692 1.23-9.355 2.411-18.724 3.294-28.117 1.145-12.19-8.309-25.036-24.666-25.674-5.657-.22-11.334-.178-16.994-.004-3.676.113-5.452-.884-5.346-5.027.29-11.381-.8-9.727 9.56-9.64 7.621.065 15.286-.932 22.874.88 16.362 3.907 28.594 17.705 29.458 34.516.533 10.368-1.529 20.351-2.734 30.472-1.683 14.128-3.573 28.23-5.44 42.336-1.78 13.447-3.676 26.879-5.463 40.325-1.873 14.103-3.637 28.22-5.524 42.322-1.405 10.495-2.533 21.05-4.506 31.44-2.217 11.68-8.703 21.057-18.012 28.919z"/><path d="M207.056 39.664c22.237-1.329 41.133 5.775 56.92 20.396 11.71 10.844 19.486 24.49 22.19 40.319 4.725 27.658-1.764 52.315-22.586 71.86-12.634 11.86-27.812 18.726-45.492 20.267-20.727 1.806-39.24-3.376-55.255-16.27-17.054-13.73-26.6-31.651-28.296-53.858-1.453-19.03 2.865-36.258 14.066-51.554 14.293-19.52 33.647-30.064 58.453-31.16m42.76 29.096c-14.41-11.806-30.797-16.694-49.209-13.313-21.052 3.865-36.62 15.727-45.605 34.957-9.376 20.07-7.914 40.219 4.301 58.827 13.782 20.993 33.856 31.104 58.708 28.122 36.866-4.423 59.879-38.75 53.558-72.042-2.743-14.445-9.382-26.866-21.753-36.551zM175.428 305.07c1.803 7.196-.067 12.17-5.263 14.777-5.274 2.647-11.182 1.684-14.531-2.37-3.768-4.558-3.893-10.622-.314-15.124 5.602-7.049 15.759-5.86 20.108 2.718zM134.583 298.936c6.067 4.415 7.72 8.303 6.094 13.611-1.679 5.485-5.014 8.454-10.15 8.72-4.816.251-8.79-1.328-11.16-5.856-2.566-4.9-2.422-10.393 1.108-13.937 3.805-3.821 8.561-4.832 14.108-2.538zM301.08 300.931c7.702 11.509-.431 20.438-8.41 20.367-4.676-.041-8.307-1.883-10.499-6.228-2.447-4.851-1.837-9.725 1.426-13.534 2.991-3.493 7.4-4.889 12.235-3.113 1.717.63 3.5 1.057 5.247 2.508zM152.763 266.146c2.918-9.096 5.104-10.73 13.506-10.477 5.56.167 9.865 4.529 10.06 10.19.222 6.48-3.979 11.899-9.656 12.453-8.472.827-12.073-2.209-13.91-12.166zM249.463 300.377c5.112-2.998 9.96-3.92 14.722-.267 4.773 3.66 5.884 11.926 2.344 16.571-3.702 4.857-11.168 6.102-16.06 2.679-5.28-3.697-6.49-11.353-2.701-17.311.348-.548.917-.956 1.695-1.672zM303.28 228.751c-3.037 5.816-7.794 7.414-13.536 6.49-3.865-.623-6.565-3.021-8.034-6.633-2.112-5.194-.696-10.632 3.477-13.874 3.334-2.591 10.195-2.945 13.663-.704 4.956 3.203 6.454 7.946 4.43 14.721zM266.07 231.907c-5.901 4.811-14.55 4.603-18.094-.12-4.182-5.574-2.858-13.838 2.812-17.547 4.147-2.714 11.327-2.105 14.792 1.253 3.63 3.519 3.95 10.313.49 16.414zM303.306 262.17c1.99 6.757-.51 13.078-5.863 15.432-5.741 2.525-12.1.477-15.07-4.855-3.12-5.598-1.814-11.726 3.277-15.382 5.4-3.88 13.041-1.96 17.656 4.805zM127.243 255.675c10.863-2.044 16.09 9.221 12.915 15.846-2.431 5.076-7.78 7.887-14.014 6.706-4.598-.872-8.388-6.003-8.477-11.475-.092-5.691 3.366-9.879 9.576-11.077zM120.887 215.918c5.162-3.887 11.48-4.503 15.421-1.451 3.796 2.94 5.598 6.922 4.481 11.735-1.076 4.639-3.558 8.217-8.67 9.053-5.586.913-10.34-.683-13.18-5.72-2.623-4.65-1.498-9.217 1.948-13.617zM252.682 255.905c1.738-.154 3.067-.23 4.395-.229 5.808.006 9.59 2.347 10.927 6.735 1.63 5.35.175 11.23-3.382 13.657-4.485 3.062-10.92 3.142-14.44.18-4.477-3.767-5.749-9.174-3.67-14.341 1.143-2.842 3.26-4.496 6.17-6.002zM169.122 234.843c-9.966 1.122-13.246-.61-15.616-7.868-1.58-4.842.78-10.817 5.218-13.203 4.924-2.648 11.755-1.196 15.286 3.25 3.22 4.053 3.154 10.421-.31 14.19-1.214 1.321-2.792 2.309-4.578 3.63z"/><path d="M207.504 108.466c7.859-6.915 15.452-13.588 23.04-20.27 1.123-.989 2.125-2.142 3.339-2.998 3.428-2.418 8.732-1.997 10.969.759 2.294 2.826 2.13 8.207-.8 10.921-7.425 6.877-15.044 13.544-22.584 20.298-1.975 1.77-3.908 3.589-5.927 5.307-1.638 1.396-3.25 2.89-5.097 3.957-3.426 1.98-8.591 1.073-10.393-1.779-2.246-3.555-1.8-6.962 1.161-9.973 1.984-2.018 4.015-3.99 6.292-6.222z"/></svg>