<svg xmlns="http://www.w3.org/2000/svg" xml:space="preserve" viewBox="0 0 416 400"><path d="M57.964 230.039c-13.897-14.426-20.772-31.578-23.45-50.89-1.564-11.275-.661-21.853 5.226-31.648 6.066-10.091 15.43-15.23 26.908-16.843 5.143-.723 10.257-1.924 15.642-.257-4.457-10.412-12.186-16.42-21.975-20.04-7.525-2.782-9.902-5.741-8.117-10.503 1.636-4.363 4.73-5.051 12.38-2.491 7.502 2.51 14.279 6.28 19.904 11.955 1.153 1.163 2.422 2.21 3.39 3.086 1.619.025 2.178-.774 2.729-1.643 10.178-16.037 25.259-18.667 41.798-14.79 9.164 2.147 17.164 7.002 24.509 12.906 3.282 2.638 4.602 6.045 2.857 9.68-1.543 3.212-4.512 4.079-8.455 3.261-4.584-.95-8.196 2.034-11.148 5.285-1.412 1.555-2.287 3.599-3.7 5.9 6.539 3.505 12.443 7.577 16.035 14.305 4.934 9.24 6.634 18.81 5.32 29.287-1.465 11.672-4.658 22.751-9.623 33.288-4.773 10.13-11.123 19.103-20.485 25.773-6.46 4.603-13.533 5.376-20.91 4.44-7.638-.968-15.168-1.092-22.796.057-10.365 1.561-18.97-1.924-26.04-10.118m14.702-5.196c3.072 1.697 6.054 2.689 9.847 1.948 8.501-1.662 17.174-2.05 25.678-.014 4.494 1.076 8.203.067 11.557-2.665 18.982-15.462 25.457-36.51 24.454-59.758-.567-13.149-11.817-21.234-25.247-20.959-6.864.141-13.399 2.138-19.762 4.55-3.36 1.274-6.484 1.122-9.492-.62-3.224-1.867-6.799-2.623-10.309-3.57-7.598-2.052-24.262 2.947-28.129 10.95-4.125 8.54-4.74 17.074-2.956 26.098 3.371 17.041 10.419 32.076 24.36 44.04m52.807-116.691c-9.671-3.959-24.08 6.4-25.243 15.099 16.064 10.752 23.82 3.677 34.7-11.488-.837-.514-1.614-1.175-2.512-1.504-2.013-.739-4.087-1.312-6.945-2.107zM303.512 212.099c-21.025-3.754-36.982-14.605-48.392-31.897-16.686-25.286-15.036-59.056 3.634-82.919 16.026-20.483 37.542-29.568 62.909-27.361 33.8 2.94 59.078 26.499 64.395 59.455 4.126 25.57-3.642 48.008-23.074 65.54-11.726 10.58-25.614 16.714-41.76 17.579-5.819.311-11.52-.495-17.712-.397M266.16 110.563c-11.535 19.076-11.945 38.454-1.844 58.265 11.486 22.53 39.528 34.893 64.044 29.19 28.223-6.565 49.493-36.095 44.534-66.15-3.92-23.757-26.92-46.718-50.834-48.482-23.565-1.739-42.066 7.196-55.9 27.177zM302.482 225.257c23.244-2.986 46.077-5.726 68.873-8.745 3.643-.482 7.23-.871 10.887-.828 3.73.043 5.711 2.415 5.787 5.599.075 3.119-.96 6.462-4.951 7.012-10.318 1.422-20.652 2.723-30.981 4.066-14.428 1.876-28.852 3.777-43.285 5.608-11.817 1.5-23.65 2.874-35.466 4.374-14.438 1.833-28.864 3.761-43.3 5.607-14.277 1.825-28.561 3.586-42.84 5.395-14.767 1.872-29.531 3.773-44.298 5.651-14.112 1.795-28.222 3.604-42.34 5.355-11.982 1.486-23.994 2.758-35.948 4.443-3.003.423-5.95.5-8.926.488-4.014-.018-5.605-2.868-5.839-6.185-.23-3.276 1.524-5.866 5.052-6.343 13.118-1.772 26.253-3.417 39.381-5.107 13.948-1.796 27.897-3.593 41.846-5.384 11.978-1.537 23.958-3.057 35.935-4.598 14.6-1.878 29.193-3.797 43.796-5.645 11.812-1.496 23.635-2.91 35.453-4.368 11.658-1.438 23.315-2.89 34.973-4.327 5.255-.648 10.512-1.277 16.191-2.068zM233 359.364c-25.977-.007-51.454-.014-76.932-.018-3.19 0-6.727.3-7.959-3.52-1.11-3.447-.41-6.475 2.28-9.545 11.223-12.813 22.05-25.97 33.105-38.932 6.555-7.686 13.264-15.24 19.9-22.857 3.044-3.495 6.137-6.95 9.101-10.511 3.644-4.378 8.421-4.643 12.213-.438 12.519 13.882 24.565 28.167 36.532 42.527 8.578 10.292 17.474 20.322 26.337 30.373 2.42 2.746 3.63 5.776 2.295 9.123-1.35 3.382-4.497 3.866-7.916 3.844-16.151-.104-32.304-.046-48.956-.046m-7.726-64.215c-1.689-2.663-3.627-5.062-7.047-6.787l-49.645 57.964h100.74c-15.135-17.582-29.36-34.107-44.048-51.177z"/><path d="M56.41 155.446c4.944-5.29 10.497-8.551 17.563-8.796 3.088-.107 5.823.417 6.24 4.085.408 3.575.299 7.102-4.072 8.488-5.004 1.586-9.637 3.696-11.762 9.009-.547 1.368-.839 2.839-1.248 4.263-1.517 5.273-3.844 6.826-9.164 5.763-4.747-.95-4.622-4.908-4.14-8.272.753-5.26 2.453-10.308 6.583-14.54zM327.8 116.835c10.846 6.097 15.423 15.201 14.506 27.072-.8 10.363-6.345 17.626-15.496 22.144-17.045 8.417-37.59-4.686-38.318-23.612-.534-13.894 8.35-24.696 18.933-27.024 6.694-1.472 13.507-1.654 20.375 1.42m-1.588 16.598c-.925-.959-1.774-2.008-2.787-2.862-4.05-3.414-9.591-3.83-14.356-1.159-4.506 2.527-8.22 9.014-7.559 13.2.877 5.546 5.464 10.783 10.848 11.827 5.26 1.02 10.258-.242 13.454-4.606 3.542-4.835 4.46-10.345.4-16.4zM325.773 178.692c1.77 6.976-2.656 10.98-6.678 14.715-2.302 2.137-5.845 1.347-8.255-.743-2.124-1.842-2.71-4.379-1.482-7.237 1.26-2.935 2.811-5.66 5.032-7.925 3.913-3.99 7.407-3.685 11.383 1.19zM284.317 104.25c4.648 2.32 5.851 5.578 4.161 10.058-.696 1.845-.905 3.878-1.633 5.707-1.455 3.662-4.537 4.7-8.111 4.188-3.288-.472-4.92-3.007-4.92-5.985-.003-4.325 1.31-8.55 3.48-12.253 1.335-2.277 4.007-2.758 7.023-1.715zM267.977 147.99c-3.498-2.121-4.624-4.903-4.336-8.576.274-3.484 2.493-5.017 5.384-5.524 4.208-.74 12.91 6.536 13.264 10.811.203 2.455-.442 4.786-2.556 6.074-2.092 1.274-4.516 2.177-6.971.51-1.5-1.017-3.007-2.021-4.785-3.294zM287.743 178.845c-3.936 2.083-7.076 1.35-9.647-1.625-2.993-3.463-6.579-6.823-5.243-12.076.8-3.15 3.508-4.583 6.452-4.288 5.442.544 7.845 5.21 10.33 9.166 1.79 2.85.824 6.06-1.892 8.823zM340.26 179.983c-4.98-5.692-3.719-10.348 3.047-12.591 2.67-.885 5.32-1.844 8.224-1.714 2.883.13 4.858 1.757 5.52 4.26.662 2.5 1.184 5.788-1.528 7.319-4.548 2.568-9.42 4.698-15.263 2.726zM348.916 139.615c2.312-2.652 4.407-5.024 6.723-7.158 2.998-2.763 6.434-2.657 9.448-.247 3.067 2.453 2.904 6.507.031 9.609-1.129 1.22-2.356 2.347-3.503 3.55-2.526 2.652-5.265 4.606-9.171 2.973-3.872-1.618-3.915-4.913-3.528-8.727zM322.616 109.046c-6.15.313-13.136-5.716-13.823-11.447-.409-3.413 2.155-6.573 5.606-6.91 4.222-.412 9.68 3.306 11.455 8.673 1.14 3.448 1.355 7.34-3.238 9.684zM355.361 114.27c-.076 2.557.212 4.716-.999 6.69-1.558 2.543-3.84 3.77-6.667 3.083-2.657-.645-4.886-2.162-4.985-5.364-.072-2.311.061-4.631-.077-6.936-.192-3.181.272-6.177 3.492-7.496 2.427-.994 5.319-1.367 7.544.495 2.528 2.115 2.739 5.059 1.769 8.113-.097.305-.05.656-.077 1.416z"/></svg>