<svg xmlns="http://www.w3.org/2000/svg" xml:space="preserve" viewBox="0 0 416 400"><path d="M267.181 310.647c12.523 7.99 20.607 2.114 27.753-7.537 2.573-3.476 5.058-5.79 9.707-5.497 17.868 1.121 24.78-9.364 29.878-22.06 6.14-15.292 3.375-29.684-5.955-42.897-3.261-4.619-3.812-8.765-.67-13.704 5.852-9.198 4.727-18.693.177-28.03-2.02-4.144-1.896-7.848.867-11.64 10.044-13.778 11.25-28.367 3.556-43.594-2.301-4.554-2.645-8.33 1.128-12.696 3.404-3.937 3.2-9.612 4.008-14.67.078-.488.015-.998.02-1.498.147-15.714-4.977-21.034-20.843-21.461-3.673-.099-6.676-1.238-9.375-3.84-9.348-9.01-16.998-10.34-28.228-4.047-4.934 2.764-8.784 2.855-13.808.308-12.106-6.14-23.819-4.365-34.672 3.502-6.211 4.502-7.67 4.844-13.613.625-7.053-5.008-14.47-3.915-21.972-1.913-3.67.98-7.247 2.375-10.779 3.8-4.125 1.663-7.282 1.549-10.392-2.47-5.916-7.643-15.584-9.227-26.825-4.274-5.917 2.607-10.41 2.512-16.086-1.295-10.132-6.794-21.468-9.292-32.905-2.703-8.28 4.77-9.81 13.315-10.76 21.864-.593 5.332.542 10.596 1.531 15.793.751 3.943.22 6.863-3.055 9.695-7.42 6.418-8.685 15.02-6.989 24.146.723 3.885 2.179 7.657 3.539 11.395 2.195 6.031 1.355 8.619-4.164 11.49-3.349 1.741-3.583 4.972-3.871 8.1-.877 9.52 1.679 18.223 7.263 25.827 3.71 5.054 4.013 9.442.782 14.953-4.89 8.342-8.484 17.197-8.153 27.308.409 12.443 10.418 26.176 23.173 30.943 13.254 4.953 26.558 1.648 35.76-8.882 6.067-6.944 5.422-18.439-1.129-26.629-2.935-3.67-6.317-6.766-9.887-9.721-5.22-4.321-5.945-6.648-3.249-13.257 3.937-9.65 5.131-19.179-.28-28.693-.246-.433-.394-.956-.73-1.3-6.03-6.169-6.353-11.829-.608-19.023 5.246-6.568.737-13.945-1.616-20.752-.648-1.874-1.973-3.53-2.51-5.42-1.061-3.734-1.067-7.398 3.06-9.466 6.28-3.145 8.694-9.009 10.351-15.134 2.52-9.312 5.43-10.495 14.07-6.048 8.68 4.468 17.876 2.882 26.74.487 4.633-1.25 8.195-.909 11.96 2.202 8.234 6.804 17.185 7.338 26.262 1.669 4.09-2.555 7.272-2.464 11.129.877 8.373 7.253 18.004 7.895 27.959 3.498 4.668-2.062 8.635-2.411 13.576.247 6.771 3.641 13.971.755 20.78-1.395 3.316-1.048 6.568-2.42 9.673-3.993 3.143-1.592 6.312-1.923 8.843.397 2.573 2.36 2.274 5.855 1.161 8.893-1.254 3.424-2.812 6.699-3.622 10.317-2.08 9.298-.33 17.381 6.591 24.219 4.681 4.624 4.759 9.09-.24 12.622-8.302 5.867-9.015 13.637-6.619 22.465.521 1.92.978 3.91 1.864 5.667 3.173 6.293 3.115 11.72-1.149 18.056-4.589 6.82-2.566 14.707.661 21.955.812 1.825 1.842 3.565 2.521 5.435 2.104 5.794.156 9.307-5.728 10.558-6.199 1.318-9.816 6.075-13.511 10.511-4.175 5.012-6.625 5.758-12.255 2.673-9.647-5.287-19.026-4.44-27.676 3.046-3.145 2.721-6.338 3.878-10.4 3.745-5.3-.173-10.553-.075-15.818 1.34-17.553 4.718-19.338 24.986-12.406 36.168 3.113 5.02 7.985 8.409 11.47 13.11 3.551 4.792 5.228 9.873 4.919 15.775-.16 3.065-1.223 5.18-4.516 5.478-3.309.298-7.182.09-7.684-3.738-1.01-7.694-6.602-12.156-11.112-17.264-8.63-9.774-11.9-20.799-9.654-33.577.37-2.106.437-4.266.679-6.758-7.288-1.542-14.748-1.834-21.762-4.477-4.858-1.83-9.617-3.71-13.682-6.958-2.314-1.85-3.904-1.615-5.795.686-12.466 15.165-28.96 19.26-47.029 14.415-19.128-5.128-31.1-18.288-35.238-38.02-2.462-11.736-.078-22.84 5.058-33.316 2.476-5.05 2.906-9.11.023-14.287-5.92-10.633-7.517-22.23-4.913-34.221.52-2.401.976-5.444 2.613-6.851 4.035-3.469 3.095-7.162 1.977-11.273-3.044-11.194-3.162-22.667 3.793-32.054 5.166-6.972 4.708-13.945 4.46-21.3-.33-9.742 1.225-18.912 6.806-27.05 5.952-8.68 14.509-12.79 24.85-13.559 11.385-.846 22.23.66 31.941 7.192 2.244 1.51 4.256.007 6.164-.609 9.474-3.056 19.81-4.95 27.936.733 9.49 6.637 18.085 2.975 27.045 1.39 7.178-1.268 13.865-.279 20.457 2.151 2.72 1.003 4.764.97 7.438-.502 13.228-7.282 27.014-8.553 41.195-2.815 2.254.912 4.2.87 6.605-.144 14.326-6.036 27.858-5.262 39.81 5.654 2.713 2.478 6.126 2.242 9.29 2.907 6.887 1.45 13.282 3.63 18.895 8.25 9.013 7.421 8.998 17.278 8.072 27.375-.68 7.41-1.669 14.842-5.05 21.655-.895 1.802.123 3.207.708 4.722 2.523 6.54 4.155 13.307 4.555 20.291.544 9.47-2.902 17.932-7.364 26.009-1.86 3.368-2.383 6.375-1.05 10.28 3.541 10.381 3.391 20.886-1.063 31.075-1.345 3.077-.045 5.506 1.285 8.006 5.057 9.509 9.032 19.479 8.128 30.383-1.634 19.71-8.175 36.928-26.86 47.056-4.02 2.179-8.455 3.354-12.867 3.442-3.964.08-6.579 1.637-9.007 4.351-5.916 6.612-12.722 11.482-22.005 12.338-6.537.603-12.325-1.502-18.323-3.931-3.821 4.97-2.724 10.928-3.652 16.3-.681 3.945-1.754 6.175-6.054 6.14-4.54-.038-6.748-2.14-6.808-6.67-.123-9.25.687-18.308 6.115-26.209 4.584-6.67 8.555-7.358 15.406-2.838m-71.979-169.09c-3.567 5.996-7.44 11.783-11.871 17.18-.834 1.016-1.723 1.833-1.618 3.436.456 7.016 6.502 14.579 13.31 16.467 8.588 2.382 16.053-1.01 23.151-4.977 10.48-5.857 19.689-13.475 28.148-21.999 3.44-3.466 8.022-3.953 10.513-1.276 2.374 2.55 1.98 7.826-1.067 10.785-3.93 3.817-7.618 7.86-11.946 11.309-3.156 2.515-6.968 4.41-9.404 7.98.533.484.832.947 1.246 1.103 14.49 5.455 28.68 3.592 42.724-1.79.972-.373 1.86-.827 2.17-1.881 1.413-4.8 3.01-9.479 6.465-13.317 1.1-1.222.012-2.66-.63-3.69-5.518-8.847-6.413-18.552-5.359-28.83-1.991.37-3.758.672-5.514 1.03-7.068 1.442-14.182 2.185-21.085-.46-4.595-1.762-7.93-.423-11.06 2.933-6.475 6.941-13.43 13.365-21.243 18.798-4.003 2.784-9.177 2.647-11.288-.186-2.517-3.378-1.27-7.841 3.177-11.05 3.457-2.495 7.009-4.863 9.776-8.393-3.324-1.446-6.42-2.602-9.34-4.1-6.372-3.267-12.56-1.32-15.918 5.125-.918 1.76-2.02 3.426-3.337 5.803m.598 50.783c-13.132-1.047-20.739-9.222-26.153-20.983-12.708 6.805-25.542 8.7-38.404 1.484-2.326 2.087-2.883 3.883-1.143 6.641 1.647 2.613 2.584 5.739 3.471 8.746.885 3.003 2.594 4.563 5.597 5.61 16.194 5.644 32.679 8.326 49.819 5.943 4.325-.602 8.02 2.11 8.25 5.997.24 4.02-1.57 7.284-5.717 7.357-10.46.184-20.943.863-31.4-.404-8.049-.975-15.963-2.55-23.566-5.077-4.95 8.57-4.026 13.485 3.205 18.867 3.178 2.365 6.946 1.768 10.505 2.364 15.894 2.664 31.775 2.754 47.337-1.484 14.697-4.002 26.972-11.488 31.595-27.325.564-1.93 2.888-4.803.028-6.263-3.668-1.872-7.066-6.228-11.489-4.506-6.886 2.68-13.824 3.278-21.935 3.033m-7.547 78.315c2.127-.149 4.434.542 6.32-.827 9.843-7.15 21.072-9.242 32.914-9.198 2.41.009 4.337-1.017 4.93-3.398.9-3.61.91-7.25-1.21-10.554-4.247-6.624-15.76-10.767-23.325-8.334-10.803 3.473-21.79 5.508-33.207 5.052-8.04-.322-16.1.403-24.297-.743 0 1.867-.359 3.449.065 4.782 1.544 4.864-.304 10.532 5.953 14.229 9.717 5.742 19.602 9.482 31.857 8.99m93.798-72.434c-.774-1.237.214-3.079-1.802-4.323-11.636 3.475-23.816 5.558-36.565 4.122-1.829 11.473-7.308 20.758-15.64 29.355 1.06.577 1.63.917 2.224 1.207 8.743 4.282 14.529 10.863 16.096 20.715.435 2.735 2.218 2.317 4.14 1.92 4.106-.85 8.296-1.19 12.295.213 5.024 1.762 8.621 1.31 12.884-2.918 6.865-6.81 7.345-6.24 4.806-15.4-.92-3.32-2.466-4.138-5.738-2.81-5.415 2.198-11.059 3.365-17.006 3.086-4.025-.19-6.833-1.344-7.045-5.861-.201-4.288 2.04-6.249 6.131-6.912 6.544-1.06 13.09-2.202 18.978-5.59 10.2-5.87 9.734-7.726 6.242-16.804m-105.6-53.267c2.976-4.3 6.462-8.298 8.24-13.302-9.311-5.672-9.468-5.503-15.523 2.732-2.934 3.99-6.341 7.697-9.925 11.123-2.902 2.774-6.538 2.644-9.446-.139-2.81-2.689-2.714-5.89-.244-8.947 2.457-3.04 4.905-6.086 7.994-9.922-6.744-.222-12.712.121-18.556-2.102-1.655 3.09-2.505 6.605-4.735 8.478-6.56 5.507-4.654 11.577-2.747 18.249 3.302 11.549 14.256 14.844 24.247 11.434 8.845-3.019 14.726-9.901 20.695-17.604z"/></svg>