<svg xmlns="http://www.w3.org/2000/svg" xml:space="preserve" viewBox="0 0 416 400"><path d="M55.69 277.626c8.032-5.066 15.647-10.16 24.456-12.98 2.812-.9 4.608-2.533 6.18-5.188 7.164-12.099 17.788-18.551 31.98-19.985 8.267-.834 16.087.543 24.087 1.664 4.52.634 8.822-.957 12.905-2.849 16.515-7.651 25.433-21.86 32.171-37.788 5.262-12.438 8.192-25.538 10.459-38.828.448-2.63-.064-4.234-1.468-6.296-8.599-12.633-16.628-25.64-23.404-39.342-6.631-13.411-12.104-27.34-14.948-42.08-1.633-8.463-2.26-17.092-.403-25.712 1.389-6.451 8.68-12.48 16.28-13.58 9.072-1.313 17.713.377 26.348 2.93 3.474 1.026 2.935 3.536 3.004 5.954.46 16.115 3.736 31.555 10.992 46.044.594 1.185 1.22 2.365 1.951 3.468 6.743 10.171 7.514 10.174 17.294 3.235 16.329-11.587 34.024-20.33 54.183-22.392 22.075-2.258 41.97 3.247 59.287 17.86 13.201 11.138 23.074 24.759 30.993 39.741 10.743 20.326 14.336 42.105 11.54 65.093-2.723 22.375-12.545 41.73-23.808 60.668-6.282 10.563-12.534 21.121-19.878 30.998-10.944 14.716-23.135 28.395-36.707 40.631-21.677 19.544-45.89 35.042-74.77 41.866-30.332 7.168-59.564 3.658-87.761-9.45-21.3-9.902-40.109-23.371-56.98-39.608-2.09-2.01-3.892-2.737-6.564-1.286-8.187 4.446-16.174 9.127-23.027 15.58-2.395 2.254-3.603 5.172-5.343 7.773-1.635 2.444-3.167 2.74-5.822 1.697-11.811-4.644-20.673-12.25-25.665-24.15-3.71-8.844-1.755-14.99 5.206-21.412 8.568-7.906 17.577-15.185 27.233-22.276m296.823-28.037c6.215-8.289 11.07-17.345 15.046-26.882 7.537-18.078 11.322-36.601 7.387-56.253-5.088-25.414-17.932-46.374-37.08-63.298-15.103-13.35-33.152-18.637-53.188-14.389-20.953 4.443-38.869 14.893-54.59 29.263-1.352 1.237-2.416 2.646-4.695 1.594-6.397-2.955-12.374-6.426-16.697-12.188-11.944-15.916-16.633-34.408-19.028-53.708-.198-1.593.388-3.519-1.685-4.283-4.892-1.804-10-2.045-14.471.565-3.587 2.093-2.914 6.614-2.767 9.998.532 12.217 4.209 23.795 8.794 35.013 8.207 20.078 19.51 38.46 31.879 56.195 1.337 1.917 2.2 3.665 1.77 5.94-1.198 6.333-2.78 12.619-3.534 19.004-.756 6.403-3.763 12.334-4.174 19.26-.711 1.477-1.544 2.91-2.115 4.44-6.159 16.512-14.222 31.749-28.252 43.118-10.151 8.227-21.498 13.312-34.752 12.209-5.735-.477-11.34-2.053-17.232-1.925-12.554.273-22.525 6.924-26.75 18.615-.97 2.683-1.946 4.35-5.282 4.813-4.22.586-8.253 2.356-12.165 4.284-13.668 6.736-25.487 16.106-36.808 26.074-7.91 6.966-7.569 9.78.374 17.201.365.341.735.68 1.068 1.051 2.39 2.664 4.53 2.638 7.062-.078 9.881-10.595 22.842-16.367 35.645-22.344 2.056-.96 3.915-1.092 5.801.897 4.227 4.455 8.898 8.454 13.474 12.56 16.065 14.42 33.548 26.582 53.604 34.712 23.835 9.661 48.331 12.331 73.374 5.371 26.683-7.416 49.218-22.162 69.423-40.641 10.545-9.644 20.056-20.327 28.656-31.76 8.075-10.736 16.248-21.431 21.908-34.428z"/><path d="M205.911 195.418c5.832-22.32 18.975-38.517 38.401-49.755 9.469-5.477 19.75-8.312 30.697-9.034 18.481-1.22 35.736 2.335 51.091 13.008 18.51 12.865 30.087 30.486 32.967 52.862 2.06 16.005-.296 31.815-6.996 47.135-3.783 4.62-6.178 9.777-10 14.031-19.167 21.33-42.71 30.235-71.279 26.864-31.234-3.686-57.325-28.076-64.627-58.285-2.92-12.077-2.7-24.246-.254-36.826m133.611-8.524c-5.818-13.172-15.64-22.682-28.158-29.199-21.132-11.001-42.42-10.062-62.63 2.086-17.849 10.729-28.245 27.29-30.178 47.942-2.102 22.447 6.177 41.239 23.923 55.53 12.1 9.745 26.179 14.94 41.467 14.125 17.949-.957 33.345-8.317 45.743-22.092 16.461-18.289 20.87-45.628 9.833-68.392z"/></svg>