<svg xmlns="http://www.w3.org/2000/svg" xml:space="preserve" viewBox="0 0 416 400"><path d="M59.69 234.515c-2.23-9.638 3.78-15.299 8.956-21.318 8.21-9.548 16.46-19.062 24.615-28.657 3.534-4.158 4.038-9.35 4.372-14.508.702-10.83-2.414-21.428-1.999-32.256.968-25.207 8.602-47.695 27.668-65.032 13.228-12.029 29.35-19.134 46.002-25.26 21.632-7.96 44.015-10.15 66.705-8.651 18.438 1.217 36.187 6.04 53.327 13.21 15.074 6.305 28.681 14.757 40.094 26.366 17.83 18.133 29.21 39.496 32.055 65.21 3.059 27.635-2.054 53.701-12.752 79.116-3.844 9.13-9.694 16.986-14.051 25.757-7.508 15.11-13.323 30.886-16.693 47.285-2.051 9.977-.975 20.533-.132 30.837.918 11.23 2.716 22.33 4.4 33.456.566 3.747-1.041 6.552-5.118 7.215-4.756.774-7.685-1.035-8.302-5.615-1.61-11.967-3.735-23.857-4.34-35.975-.257-5.115-.524-10.26-.908-15.377-1.245-16.616 4.524-31.721 9.87-46.89 4.816-13.665 11.902-26.2 19-38.834 9.323-16.599 14.253-34.847 16.35-53.936 2.07-18.85-.724-36.657-8.838-53.673-9.683-20.306-24.803-35.543-44.245-46.58-17.971-10.202-37.272-16.012-57.87-18.213-32.84-3.51-62.58 5.18-91.139 20.683-23.067 12.522-33.733 32.62-37.134 57.344-1.307 9.503-.19 19.23 1.001 28.83 1.844 14.87-.198 28.5-11.325 40.002-8.742 9.038-16.558 18.975-24.703 28.581-1.86 2.192-2.885 4.3 1.49 5.09 5.858 1.056 11.589 3.027 17.475 3.651 5.401.573 8.325 3.14 10.226 7.904 2.46 6.166 5.207 12.229 6.632 18.74.763 3.49 2.45 4.952 6.197 4.723 5.312-.325 10.661-.148 15.992-.048 5.077.096 7.56 2.345 7.63 6.642.072 4.336-2.41 6.935-7.347 6.914-5.632-.025-11.271.624-16.915-.527-5.035-1.028-4.308 3.577-4.398 5.938-.319 8.355-1.685 16.469-3.878 24.5-.57 2.085-.475 4.266.134 6.414 1.78 6.267 6.346 8.796 15.773 9.104 15.89.518 31.372-2.359 46.809-5.5 10.693-2.175 13.496-.547 17.226 9.947 3.305 9.298 4.814 18.893 5.741 28.635.4 4.202-1.581 6.751-5.626 7.444-4.35.745-6.582-1.883-7.361-5.702-1.387-6.798-2.301-13.694-3.768-20.472-1.395-6.445-2.066-6.906-8.342-5.558-12.015 2.58-24.217 3.69-36.407 4.75-8.137.71-16.253-.434-24.045-2.998-7.875-2.59-12.507-9.858-13.247-18.166-.92-10.34 2.18-20.083 3.551-30.06 1.784-12.989-.43-25.075-5.993-36.753-.877-1.84-2.139-2.638-4.154-3.038-6.33-1.254-12.66-2.575-18.886-4.261-5.005-1.356-8.206-4.814-9.375-10.43z"/><path d="M241.183 81.579c5.333 6.659 12.113 7.66 19.807 7.18 12.457-.779 24.12 2.71 34.643 9.114 11.613 7.067 19.323 17.69 21.35 31.089a511.792 511.792 0 0 0 5.475 30.152c3.133 14.697-6.053 25.401-16.383 27.881-9.802 2.353-18.05 6.514-26.417 12.155-15.863 10.696-32.236 7.342-47.66-2.31-2.666-1.67-4.681-2.053-7.715-.67-12.063 5.497-28.089 2.094-38.484-8.548-4.195-4.294-8.767-6.292-14.486-7.523-8.71-1.875-17.242-4.462-24.908-9.556-12.206-8.11-15.466-21.39-9.684-34.977 4.214-9.901 10.855-18.181 19.251-24.961 2.326-1.879 3.738-4.13 4.166-7.092 1.378-9.532 7.624-15.887 15.667-19.297 17.98-7.622 36.777-11.23 56.298-6.367 3.023.754 5.834 2.36 9.08 3.73m18.206 110.083c4.918.493 9.008-1.57 13.089-3.975 7.316-4.312 12.019-13.662 22.591-11.793.937.166 2.003-.097 2.954-.36 11.84-3.276 13.956-11.12 10.001-19.008-3.897-7.774-14.193-12.074-22.939-10.622-3.766.625-7.577-1.785-8.094-5.564-.502-3.662.876-6.518 4.814-7.562 4.39-1.164 8.768-1.698 13.272-.463 2.66.729 5.414 1.113 8.726 1.771-1.125-9.402-5.217-16.644-12.104-22.014-9.202-7.175-20.234-9.54-31.593-10.717-4.158-.43-6.395.784-5.808 5.434.247 1.962.278 4.058-.14 5.974-.846 3.88-3.2 6.069-7.496 5.584-3.977-.45-5.902-2.654-5.978-6.581-.03-1.5-.003-3-.02-4.499-.1-8.552-3.502-13.543-11.646-15.874-16.485-4.718-32.187-1.39-47.303 5.578-2.893 1.334-6.367 2.862-7.054 7.182 1.098.203 1.876.424 2.666.48 11.302.813 22.318 2.975 32.957 6.931 4.933 1.834 6.503 6.846 3.344 10.712-2.455 3.006-5.713 2.422-8.74 1.561-7.175-2.04-14.35-4.185-21.749-5.061-5.859-.694-12.325-2.164-17.386 1.864-7.346 5.846-13.096 13.234-16.962 21.901-2.035 4.56-2.127 8.924 1.44 13.023 6.069 6.972 14.46 8.986 22.857 10.924 2.311.533 2.486-1.535 2.563-3.308.21-4.798-.14-9.57.79-14.403.905-4.71 3.702-6.276 7.67-5.922 3.972.354 5.33 3.364 5.255 7.175-.091 4.662-.033 9.328-.01 13.993.064 13.206 17.33 26.23 30.043 19.478 4.564-2.424 8.424-5.759 12.294-9.209 7.848-6.997 16.455-12.937 27.04-15.188 4.337-.922 8.5 1.464 9.344 5.312.764 3.486-2.18 6.887-6.387 7.99-8.164 2.138-14.607 7.218-21.23 12.22 4.636 4.833 10.395 6.98 18.93 7.036z"/><path d="M206.563 146.21c-.843-6.337.909-8.353 6.549-8.585 5.438-.223 10.653 1.519 16.325.472 6.27-1.156 11.779-3.48 16.986-6.727 3.574-2.229 6.67-1.958 9.395.83 2.595 2.656 2.019 7.367-1.238 10.175-5.16 4.448-11.474 6.663-18.01 8.015-8.368 1.731-16.814 1.476-25.239.087-2.376-.392-3.98-1.54-4.768-4.266z"/></svg>