<svg xmlns="http://www.w3.org/2000/svg" xml:space="preserve" viewBox="0 0 416 400"><path d="M40.88 192.952c-8.375-10.891-5.323-22.93 8.51-33.544-2.602-3.687-6.281-6.714-7.606-11.323-2.896-10.074.492-18.792 9.877-24.774 7.54-4.806 17.924-3.55 25.228 3.44 8.063 7.717 16.002 15.577 23.727 23.632 2.863 2.984 4.71 3.077 7.636.114 14.871-15.057 29.92-29.937 44.893-44.894.568-.567.985-1.284 1.484-1.946-1.453-3.146-4.161-4.937-6.348-7.16-7.246-7.365-14.556-14.668-21.855-21.981-5.933-5.944-6.024-13.33-3.805-20.438 2.643-8.465 10.035-13.029 17.927-13.502 7.694-.461 14.042 1.84 19.47 7.984 6.053-8.21 12.671-14.625 23.705-12.922 10.143 1.564 15.274 10.01 22.609 15.93 3.982-2.506 6.814-6.232 10.177-9.35 3.55-3.293 6.99-3.555 10.527-.233a357.085 357.085 0 0 1 14.871 14.817c3.38 3.572 3.185 6.75-.294 10.556-3.011 3.294-6.156 6.465-9.262 9.71 3.094 5.391 8.002 8.524 11.432 13.026 7.066 9.273 6.314 23.138-5.048 31.038-1.068.742-2.452 1.103-3.029 2.91 4.958 5.168 8.241 11.164 7.71 18.938-.658 9.635-6.59 14.829-14.558 18.424-6.32 2.851-14.483.98-19.752-4.243-8.64-8.564-17.246-17.162-25.892-25.72-1.041-1.03-1.86-2.393-4.21-2.905-16.75 15.79-33.016 32.632-49.316 49.248.375 2.724 2.372 3.922 3.83 5.404 7.594 7.721 15.328 15.307 22.934 23.017 6.548 6.637 8.896 14.549 5.208 23.252-3.491 8.241-10.158 13.246-19.214 13.678-4.548.216-9.261-.975-12.863-4.444-1.659-1.597-3.34-3.17-5.202-4.935-2.032 2.638-3.411 5.24-5.34 7.493-6.804 7.942-21.834 8.619-29.185.837-3.532-3.738-6.63-7.886-9.77-11.662-5.42 3.498-8.151 6.892-11.3 9.811-4.624 4.288-7.407 4.24-11.877-.192-4.496-4.459-9.106-8.806-13.508-13.354-4.001-4.133-3.898-7.475.27-11.566 3.07-3.013 6.338-5.826 10.022-9.189-4.682-4.739-8.62-8.726-12.813-12.982M144.847 76.623l3.885 3.887c21.784 21.78 43.555 43.574 65.359 65.335 5.76 5.75 10.15 6.298 14.61 2.006 4.582-4.409 4.253-8.682-1.492-14.445a47540.123 47540.123 0 0 0-78.394-78.43c-4.17-4.164-8.123-4.283-12.171-.606-4.674 4.243-5.147 8.324-1.105 12.943 2.734 3.125 5.87 5.898 9.308 9.31m-8.283 127.313c-20.267-20.264-40.531-40.53-60.802-60.791-2.944-2.943-5.78-6.013-8.907-8.748-3.403-2.977-7.011-2.557-10.398.263-5.226 4.352-5.506 9.147-.626 14.048 15.4 15.469 30.852 30.884 46.298 46.305 11.201 11.182 22.376 22.392 33.665 33.484 4.421 4.344 8.769 3.894 13.37-.99 3.51-3.726 3.26-7.699-.782-11.767-3.758-3.783-7.544-7.537-11.818-11.804m-37.428 30.383c5.821 2.668 8.596 1.8 12.665-3.622 2.586-3.446 2.042-6.52-.78-9.35a28292.364 28292.364 0 0 0-48.704-48.706c-3.3-3.294-6.853-2.948-10.307-.313-5.497 4.194-5.868 9.41-.522 14.798 15.585 15.704 31.367 31.214 47.648 47.193M230.698 93.816c-4.94-4.949-9.866-9.914-14.827-14.843-9.684-9.623-19.36-19.255-29.098-28.822-4.16-4.087-8.606-3.948-12.668.187-4.061 4.133-4.002 8.331.172 12.563 2.923 2.963 5.824 5.948 8.764 8.894 12.463 12.492 24.883 25.028 37.433 37.431 4.867 4.81 8.143 4.686 12.805.093 4.52-4.452 4.518-7.747-.02-12.819-.665-.744-1.377-1.447-2.56-2.684m-63.522 21.607c-2.62-3.432-4.964-2.687-7.698.112-9.663 9.893-19.49 19.625-29.226 29.446-5.606 5.655-11.158 11.365-16.634 16.949 5.322 8.739 6.103 8.873 12.726 2.293 13.83-13.74 27.543-27.599 41.517-41.19 3.004-2.921 2.788-4.836-.685-7.61M68.805 222.259c-1.254-3.645-4.512-5.403-7.325-8.174-2.452 2.447-5.333 4.098-6.584 7.635l7.114 6.772c3.081-1.294 4.808-3.51 6.795-6.233M225.279 66.474c1.27-1.492 3.098-2.558 3.704-5.037-2.058-2.53-4.437-4.972-7.354-7.157-2.525 1.852-4.747 3.692-6.377 6.613 2.12 2.078 4.175 3.995 6.111 6.026 1.247 1.309 2.297.975 3.916-.445zM346.522 282.622c2.04 4.962 3.932 9.57 5.898 14.144 1.992 4.635 5.704 6.709 10.609 6.892 12.259.458 23.457 9.345 22.409 23.282-.523 6.956-.082 13.984-.092 20.98-.022 14.2-10.403 25.158-24.602 25.347-18.486.247-36.99.516-55.46-.076-13.29-.426-25.304-5.38-35.053-14.667-13.732-13.079-26.92-26.74-40.872-39.575-10.791-9.927-20.78-20.641-31.49-30.612-5.835-5.432-11.812-10.566-16.692-16.993-11.553-15.215-10.04-44.04 5.21-58.149 16.981-15.708 32.847-32.62 49.213-48.992 1.282-1.282 2.422-2.81 4.259-3.362 3.692-1.112 6.22.971 6.47 5.23.416 7.115-.805 14.28.954 21.36 2.612 10.525 10.786 17.202 21.486 17.224 13.825.027 27.651.12 41.474-.054 4.667-.059 6.854 1.535 8.555 6.206 6.806 18.692 14.266 37.146 21.483 55.688a3506.469 3506.469 0 0 1 6.241 16.127m-54.029-67.253c-7.999-.004-15.999.054-23.998-.026-15.59-.154-28.14-10.37-31.53-25.41-.716-3.173.52-6.55-1.043-9.898-1.062.735-1.982 1.187-2.666 1.874-12.71 12.743-25.35 25.555-38.113 38.243-2.69 2.674-.6 4.061 1.01 5.675 35.912 35.964 71.856 71.896 107.735 107.893 5.365 5.382 11.69 7.972 19.23 7.948 12.833-.041 25.667.096 38.498-.063 4.15-.052 7.347 1.358 7.27 5.54-.068 3.808-3.11 5.318-7.081 5.27-12.998-.16-26.008.246-38.995-.172-10.374-.334-19.563-3.686-27.245-11.443-34.476-34.814-69.209-69.374-103.879-103.996-1.466-1.464-2.65-3.48-5.085-3.614-5.813 10.552-3.598 25.474 6.019 34.863 15.23 14.87 30.327 29.877 45.953 44.35 13.185 12.21 25.667 25.175 38.62 37.64 8.31 7.998 18.195 12.617 29.958 12.61 17.166-.012 34.332.016 51.498-.013 9.445-.015 16.473-6.525 16.918-16.026.303-6.486.266-13.005.011-19.494-.283-7.215-4.943-12.436-11.646-12.666-11.757-.403-19.351-6.202-23.047-17.08-1.076-3.168-2.66-4.102-5.763-4.056-8.497.129-16.999.078-25.497-.018-3.506-.04-5.81-2.011-5.777-5.502.031-3.304 2.39-5 5.632-5.097 3.83-.116 7.67.069 11.498-.08 4.376-.172 8.85.733 13.162-.697-1.722-9.557-1.722-9.557-10.76-9.572-3-.005-6 0-9-.012-4.499-.018-9.007.119-13.494-.122-3.436-.185-5.512-1.91-5.224-5.805.27-3.674 2.354-4.806 5.66-4.764 4.166.054 8.34.155 12.497-.03 4.044-.178 8.213.865 12.18-.743-2.39-10.217-2.741-10.506-12.417-10.519-7.333-.01-14.666-.044-21.999-.028-2.914.006-4.41-1.797-4.575-4.283-.163-2.44 1.056-4.614 3.786-5.1 1.785-.317 3.647-.264 5.474-.271 6.947-.027 13.893-.011 21.293-.011-.328-6.205-3.284-10.767-4.908-15.703-3.164-9.62-3.267-9.587-13.164-9.594-2-.001-4 .001-6.996.002zM224.82 341.659c.975.001 1.475.013 1.974.002 3.865-.086 7.418.923 7.318 5.422-.098 4.386-3.512 5.33-7.475 5.303-15.305-.107-30.612-.025-45.918-.073-3.012-.01-6.221-.006-6.985-3.99-.843-4.393 1.187-6.634 6.189-6.65 14.807-.048 29.614-.015 44.897-.014zM178.453 331.274c-4.081-.853-5.265-3.271-4.7-6.701.613-3.72 3.446-3.92 6.414-3.911 7.46.024 14.92.046 22.38-.01 3.55-.027 5.67 1.254 5.773 5.136.103 3.908-2.174 5.446-5.541 5.505-7.955.137-15.914.032-24.326-.019z"/></svg>