<svg xmlns="http://www.w3.org/2000/svg" xml:space="preserve" viewBox="0 0 416 400"><path d="M124.659 237.985c.001-11.83.107-23.164-.043-34.494-.07-5.287-1.66-10.065-5.915-13.705-8.61-7.368-21.235-3.063-23.466 8.018a40028.147 40028.147 0 0 1-15.103 74.536c-1.557 7.654 2.218 14.988 9.412 18.233 22.243 10.031 44.438 20.17 66.754 30.038 4.374 1.934 6.31 4.302 6.162 9.331a631.146 631.146 0 0 0 .003 37.99c.177 5.775-3.018 5.525-6.917 5.459-3.767-.064-7.226.502-6.99-5.398.418-10.482.022-20.995.16-31.492.04-3.089-.983-4.821-3.885-6.092-15.504-6.788-30.934-13.744-46.368-20.69-5.604-2.523-11.282-4.93-16.688-7.833-9.455-5.076-14.902-12.824-15.151-23.921-.288-12.799 3.688-24.877 6.012-37.227 2.912-15.47 6.601-30.804 9.153-46.328 3.648-22.189 29.966-26.465 43.463-17.189 7.733 5.314 12.014 12.661 12.077 22.16.083 12.332.144 24.666-.055 36.996-.061 3.753 1.03 5.69 4.812 6.765 14.077 4.002 28.362 6.363 42.953 7.702 13.326 1.222 26.612.846 39.894.681 18.798-.233 37.313-2.904 55.372-8.488 3.448-1.066 4.423-2.727 4.393-6.008-.105-11.498-.083-22.998-.022-34.497.1-18.667 12.486-30.736 31.04-29.787 11.149.571 22.58 8.182 24.865 21.134 4.37 24.768 9.968 49.316 14.77 74.011 3.58 18.412-3.43 30.15-20.784 37.36-15.171 6.304-30.055 13.298-45.063 19.994-3.79 1.69-7.51 3.553-11.368 5.07-3.581 1.408-4.982 3.63-4.878 7.599.268 10.159-.12 20.335.17 30.493.133 4.654-2.165 5.234-5.822 4.954-3.298-.254-7.132 1.084-7.016-4.802.273-13.827.14-27.663.037-41.494-.022-2.913 1.033-4.303 3.767-5.523 22.453-10.02 44.878-20.106 67.164-30.49 9.978-4.65 12.508-10.687 10.329-21.496-4.775-23.69-9.53-47.385-14.233-71.09-1.812-9.136-7.022-12.933-16.875-12.062-6.28.554-12.351 7.558-12.401 14.71-.104 14.832-.18 29.667.061 44.496.071 4.381-1.346 6.418-5.584 7.826-15.322 5.093-30.894 8.624-47.014 10.022-21.29 1.846-42.624 1.264-63.878.59-17.703-.562-35.074-4.722-51.946-10.533-4.195-1.445-5.915-3.698-5.407-8.04.27-2.301.048-4.66.049-7.49z"/><path d="M194.942 96.6c23.542-4.906 44.514-.312 63.15 14.326 15.683 12.318 24.627 28.777 26.93 48.24 2.38 20.127-2.08 38.886-15.174 55.134-16.763 20.797-38.693 29.684-64.874 27.889-15.579-1.068-29.457-7.075-41.434-17.487-12.75-11.084-21.071-24.664-24.158-41.205-4.686-25.102 1.266-47.25 19.027-66.032 10.007-10.583 21.851-17.723 36.533-20.865m43.992 125.863c6.984-4.433 13.676-8.955 19.128-15.562 15.625-18.935 18.67-44.289 7.505-65.595-13.806-26.343-45.27-40.508-75.021-29.21-28.583 10.856-44.772 40.958-37.71 70.227 9.17 38.003 50.474 57.263 86.098 40.14zM302.208 75.424c2.935-3.097 2.564-6.96 3.398-10.433 1.012-4.218 3.671-5.584 7.647-5.31 3.975.274 6.032 2.376 6.077 6.37.08 7.194-2.12 14.02-3.608 20.938-.541 2.517-3.032 3.836-5.623 4.25-1.125.178-2.337.1-3.468-.098-9.539-1.672-9.505-1.683-11.34 8.054-.484 2.576-.852 5.266-3.875 6.434-2.84 1.097-5.693 1.158-8.055-.653-2.39-1.832-2.95-4.75-2.446-7.64.88-5.043 1.912-10.063 2.995-15.067 1.382-6.379 4.98-8.733 11.542-7.32 2.144.46 4.215.802 6.756.475zM137.177 76.76c3.315 7.58 4.441 15.243 5.105 22.971.318 3.705-1.827 5.943-5.412 6.526-3.908.635-6.966-.693-8.085-4.752-1.006-3.648-1.685-7.385-2.57-11.354-3.339.592-6.72.157-10.183.915-4.11.899-7.576-.68-8.602-5.372-1.27-5.8-2.689-11.579-3.655-17.43-.792-4.803 1.538-8.154 5.325-8.57 5.256-.577 8.316 1.677 9.179 6.772.055.326.024.665.064.994 1.076 8.851 1.413 9.056 10.112 7.468 2.96-.54 5.972-.716 8.722 1.832zM266.712 67.414c-1.748.523-3.146 1-4.89 1.594.72 3.033 1.47 6.058 2.153 9.098.932 4.154-.89 8.133-4.097 9.067-4.49 1.306-8.448-.626-9.817-5.235-1.603-5.394-2.973-10.87-4.158-16.371-1.017-4.724 1.6-8.07 7.036-9.6 8.219-2.312 8.269-2.324 6.211-10.777-.85-3.491-.859-6.578 2.507-8.838 2.567-1.723 5.114-2.136 7.938-.547 1.946 1.094 2.694 2.84 3.2 4.809 1.44 5.617 2.969 11.214 4.269 16.864.815 3.542-.788 6.233-3.92 7.803-1.9.952-4.046 1.408-6.432 2.133zM149.594 44.807c1.124-3.251.824-6.617 4.018-8.621 2.788-1.75 5.327-1.45 7.981-.173 2.476 1.19 2.73 3.442 2.785 5.906.058 2.535-.225 5.01-1.076 7.335-1.42 3.879.35 5.506 3.854 6.22 1.294.265 2.574.603 3.845.962 5.555 1.569 7.286 3.915 6.183 9.362-1.148 5.667-2.582 11.291-4.206 16.842-1.22 4.175-4.674 5.78-9.157 4.487-4.01-1.157-5.392-3.987-4.536-8.031.683-3.225 1.272-6.47 1.922-9.805-2.694-2.077-5.959-2.103-8.909-2.975-3.827-1.132-5.91-3.263-5.68-7.536.254-4.706 1.879-9.063 2.976-13.973zM316.743 110.694c4.505.37 6.65 4.324 10.547 5.482 2.99-1.156 3.678-4.395 5.407-6.697 2.904-3.868 6.825-3.641 10.297-2.024 3.388 1.579 4.416 5.08 2.352 8.517-3.244 5.401-6.578 10.778-10.303 15.85-2.536 3.456-6.187 3.272-9.844 1.403-2.652-1.354-4.454-4.072-7.716-4.706-2.205 1.694-3.687 4.087-5.334 6.348-2.61 3.585-6.934 4.54-10.44 2.36-3.243-2.016-4.07-6.364-1.7-10.145 2.646-4.218 5.396-8.379 8.294-12.425 1.907-2.662 4.398-4.585 8.44-3.963zM90.44 109.366c.7.982 1.2 1.65 1.59 2.379 2.405 4.503 4.823 5.13 9.088 1.448 5.59-4.825 10.811-3.488 14.822 2.71 2.337 3.613 4.76 7.17 7.032 10.824 2.43 3.909 1.746 8.373-1.48 10.598-3.216 2.218-7.596 1.197-10.428-2.434-.101-.13-.173-.284-.272-.416-4.633-6.188-4.633-6.188-11.298-2.045-5.483 3.409-9.395 2.548-13-2.9-2.375-3.588-4.636-7.253-7.083-10.79-2.47-3.57-2.658-7.21.011-10.531 2.058-2.56 7.202-1.93 11.019 1.157z"/></svg>