<svg xmlns="http://www.w3.org/2000/svg" width="560" height="541.333" version="1.0" viewBox="0 0 420 406"><path d="M119 56.9c-6.9 2.2-9.3 3.4-15.2 7.9-5.8 4.4-12.2 13.3-15.1 21-2.2 5.7-2.2 5.8-2.5 112.9L86 306H50.1l-2 2.6c-1.7 2.1-2.1 4.1-2.1 9.9 0 18.8 5.4 29.6 18.2 36.6l6.3 3.4h216l4.7-2.2c6.6-3 13.3-9.6 16.5-16.2l2.8-5.6.3-113.3.2-113.2h48.1l2.6-2.6c2.5-2.5 2.5-2.8 2.1-14.3-.3-10.3-.7-12.5-3.1-17.4-3.5-7-11.1-13.9-18.3-16.6-5.4-2.1-6.9-2.1-111.7-2-98.7 0-106.6.1-111.7 1.8zm182.2 16.3-2.7 5.2-.5 126.1c-.6 138.8-.1 129.6-6.6 135.7-2.9 2.7-10.1 5.8-13.3 5.8-3.8 0-9.4-2.3-12.8-5.3-5.6-5-7.3-9.6-7.3-21 0-15.3 9.7-13.7-81.5-13.7H99l.2-105.8c.3-99.9.4-106 2.1-110.4 2.1-5.4 9.1-13.6 14.3-16.9 7.9-4.8 6.4-4.8 100.1-4.8l88.2-.1-2.7 5.2zm36.6-3.6c7.9 3.3 13.2 11.7 13.2 21.1V94h-40v-5.2c0-14.5 14-24.6 26.8-19.2zm-92.7 257.9c.4 5.8 1.3 9.4 3.3 13.3l2.7 5.2-88.3-.2-88.3-.3-4.2-2.3c-6.4-3.4-9.7-9-10.1-17.3l-.4-6.9 92.3.2 92.4.3.6 8z"/><path d="M144 127.7c-5.1 1.9-6.6 7.7-3 11.3 2 2 3.3 2 57.5 2s55.5 0 57.5-2c2.6-2.6 2.6-7.2-.1-9.6-2-1.8-4.6-1.9-56.3-2.1-29.7-.1-54.8.1-55.6.4zM141 169c-2.6 2.6-2.6 7.2.1 9.6 2 1.8 4.4 1.9 57.4 1.9s55.4-.1 57.4-1.9c2.7-2.4 2.7-7 .1-9.6-2-2-3.3-2-57.5-2s-55.5 0-57.5 2zM140.6 209.2c-.9 1.2-1.6 3.2-1.6 4.3 0 1.1.7 3.1 1.6 4.3l1.5 2.2h112.8l1.5-2.2c2.1-3 2-7.1-.2-9.1-1.7-1.5-7.2-1.7-58-1.7h-56.1l-1.5 2.2zM144 246.7c-5.1 1.9-6.6 7.7-3 11.3 1.9 1.9 3.3 2 31 2s29.1-.1 31-2c2.6-2.6 2.6-7.2-.1-9.6-2-1.8-4.1-1.9-29.8-2.1-15.2-.1-28.3.1-29.1.4z"/></svg>