<svg xmlns="http://www.w3.org/2000/svg" viewBox="0 0 561.3 541.3"><path d="M281.1 29.7c3.6 0 7.2.6 10 1.8 2.4.9 6 3.7 8 6 3.6 4.3 3.6 4.7 3.6 23.2v18.9l8.5 14.7 8.5 14.7 68.8.7 68.8.7 3.5 3.5c2.4 2.4 3.7 5.5 4.1 9.7.7 5.6.4 6.4-4 10.8-4.1 4.1-5.5 4.7-11.5 4.7s-6.8.4-6.8.9c.1.7 16.7 32.8 37.1 71.7l36.9 70.7 6.7.7 6.7.7-.4 7.3c-2.4 39.1-30.7 73.1-69.6 83.5-5.8 1.5-14.2 2.3-22.7 2.3s-16.9-.8-22.7-2.3c-34.1-8.8-59.5-34.1-68-68-1.5-5.9-2.7-13.5-2.7-17.1v-6.4h12.8l36.9-70.7c20.3-38.8 36.9-71.2 36.9-72s-14.6-1.1-44.9-1.1h-18.7l-63.7.4V453l38 .7c36.8.7 38.1.8 42.3 3.7 13.3 9.5 12.8 33.3-.8 42.5L378 503l-98-.3c-111.7-.4-102.3.7-108.8-12.3-6.1-12.1-3.1-26.7 7.1-33.5l4.9-3.3h75.3V139h-64c-35.2 0-64 .4-64 .9s16.7 32.9 37.1 72l36.9 71.1h13.1l-.8 10.3c-2.3 32.9-26.1 64.1-58.3 76.8-11 4.3-22.3 6.3-33.5 6.3-38.5 0-75-24.1-88.1-62.3-2.3-6.5-4.3-15.6-4.7-21.2l-.8-9.9h13.1l36.7-70.1c20.1-38.7 36.8-71.1 37.1-72 .4-1.5-1.3-1.9-6.4-1.9s-7.5-.7-10.7-3.9c-6.7-6.5-6.9-14-.8-21.1l3.2-3.7 69.1-.7 69.1-.7 8.4-14 8.3-14V62.1c.1-17.2.4-19.2 3.2-23.2 1.6-2.4 5.1-5.5 7.6-6.8 3-1.6 7.4-2.5 11.8-2.5m187.5 253.2c16.1 0 26.9 0 27-.3.3-.3-11.5-24.9-26-54.9s-28-57.3-29.7-60.8l-3.2-6.3-29.5 60.9-29.6 60.9 58.8.4h32.2m-308.6.1c14.1 0 23.4 0 23.6-.2.1-.3-12.5-27.2-28.4-59.7-15.7-32.5-29.3-59.7-30-60.4h-.1c-1 0-4.7 6.4-9.6 16.7-4.7 9.9-17.9 37.1-29.3 60.5l-20.8 42.7 58.9.4h35.8m121-268.1c-4.1 0-11.9.5-18.8 4.2-4.7 2.5-10 7.2-12.9 11.6-5.7 8.2-5.7 14.6-5.7 31.6v14.7c-.1 0-6.3 10.5-6.3 10.5l-4.1 6.8-60.7.6-69.1.7c-4.3 0-8.4 2-11.2 5.2l-3.2 3.7c-11.3 13.1-10.7 29.4 1.6 41.5 2 2 4 3.6 5.9 4.7-6.6 12.9-16.9 32.7-28.7 55.4L35.5 268h-4c-4.2 0-8.2 1.8-11 4.8-2.8 3.1-4.3 7.2-3.9 11.4l.8 9.8c.5 6.9 2.7 17.2 5.5 25 7.4 21.5 21.3 39.8 40.2 52.9 18.4 12.7 39.9 19.5 62.1 19.5s26.5-2.5 38.9-7.3c18.4-7.3 34.6-19.6 46.8-35.7 12.4-16.3 19.6-34.9 21-54l.8-10.2c.3-4.2-1.1-8.3-3.9-11.4-2.8-3.1-6.8-4.8-11-4.8h-4l-32.7-63c-10.5-20.1-19.8-38-26.4-50.8 10.1-.1 23.5-.2 40-.2h49v284.7h-60.3c-3 0-5.9.9-8.4 2.6l-4.9 3.3c-16.4 11-21.6 33.7-12.1 52.7.3.7.6 1.3 1 2 1.4 3.1 3.5 7.8 8.7 11.5 5.2 3.7 11.5 4.9 17 5.5 11.4 1.3 30.5 1.3 72.5 1.5h23l98 .3c2.9 0 5.8-.9 8.2-2.5l4.7-3.1s.1 0 .2-.1c10.5-7.1 16.9-19.7 17.1-33.7.2-13.7-5.8-26.3-16-33.5-4.8-3.4-8.9-4.8-16.2-5.4-6.1-.5-16-.7-34.4-1.1l-23.3-.4V154.6l48.8-.3H407c-6.2 12.1-15.2 29.5-26.5 51.1L347.8 268h-3.7c-8.3 0-15 6.7-15 15v6.4c0 5.4 1.6 14.5 3.1 20.7 9.9 39.2 39.3 68.7 78.8 78.9 9.2 2.4 20.5 2.8 26.5 2.8s17.3-.4 26.5-2.8c22.1-5.9 41.6-18.3 56.2-35.9 14.7-17.6 23.2-38.8 24.5-61.2v-.1l.4-7.3c.4-8-5.5-14.9-13.5-15.7l-5.3-.5-33.2-63.5c-11.8-22.5-21.7-41.6-28.2-54.3 2.2-1.4 4.4-3.2 6.7-5.5 7.6-7.6 9.5-12.8 8.3-23-.7-7.6-3.6-13.9-8.4-18.7l-3.5-3.5c-2.8-2.8-6.5-4.4-10.5-4.4l-68.8-.7-60.3-.6-4.2-7.3-6.5-11.2V60.7c0-19.7 0-24.4-7.1-32.9 0 0-.1-.2-.2-.3-3.1-3.5-8.4-7.9-13.5-9.9-5.7-2.4-11.7-2.9-15.7-2.9Zm120.4 252.8 19.2-39.5 16.2-33.4c5.4 10.9 12.2 25 19.3 39.5 6.8 14 12.2 25.2 16.2 33.7h-35.9l-35-.2Zm-312.2 0 10.4-21.3c8.5-17.5 18.7-38.4 25.1-51.6 4.8 9.7 10.7 21.7 17 34.8 7.2 14.7 13.6 28.1 18.5 38.4H124.4l-35.1-.2Z"/></svg>