<svg xmlns="http://www.w3.org/2000/svg" width="560" height="534.667" version="1.0" viewBox="0 0 420 401"><path d="M112.5 27.7c-5.2 1.2-11.7 3.6-13 5-3.7 3.6-2.1 6 14.9 23.2 13.5 13.7 16.5 17.2 17.1 20.3 1.7 8.8-6 17.8-15.1 17.8-4.8 0-10-4-24.9-18.9-15-15.2-17.2-16.6-20.7-13.9-4.9 3.8-7.5 26.7-4.4 38.8 5.1 19.8 20.2 35.9 39.6 42.2 5.3 1.7 9.3 2.1 21.6 2.2 14.3.2 15.3.3 19.5 2.9 2.4 1.4 5.8 3.7 7.4 5.1l3 2.4-2.2 2.9c-5 6.3-12.5 19.1-13.9 23.8-1.9 6.5-5.9 29.6-7.9 45.3-1 8.7-2.3 14.1-4.1 18.2-2.8 6.2-2.4 8.8 1.5 10.9 6.9 3.7 11.6-6 14.6-30.4 3.2-25.9 6.2-39.1 10.7-47.8 4.7-9 16.4-22.1 25.2-28.2 5.5-3.8 5.5-3.8 10.3-2.5 4.3 1.2 7.3 3.9 30.1 26.4 13.9 13.7 25.1 25.5 24.9 26.1-.6 2.2-11 6.5-15.7 6.5-6.4 0-11-3.2-26-18.4-9.9-10-13-12.6-15.2-12.6-2.7 0-5.8 3.1-5.8 5.7 0 .7 3.8 5.4 8.5 10.5 15.5 16.8 18.4 28.4 12.2 48.1-1.5 4.9-1.8 7.2-1.1 8.4 3.2 5.1 8.7 4.1 11.3-2 2.6-6.1 4.1-13.8 4.1-21.5v-6.7l28.5 28.5c15.7 15.7 28.5 28.8 28.5 29.2 0 .4-4.8 4.8-10.7 9.8-28.7 24.4-41.3 31-57.1 29.6l-7.4-.6-7.7 7.5-7.7 7.4-39.9-39.9c-30.8-30.8-40.6-40-42.4-40-1.8 0-6.7 4.2-18.8 16.2-9 9-16.6 17.3-17 18.6-.8 3.3 2.2 7.2 5.5 7.2 2.1 0 5.5-2.8 16.4-13.7l13.8-13.8 43.5 43.5 43.5 43.5-13.5 13.5c-11.4 11.4-13.5 14-13.5 16.6 0 3.8 1.6 5.4 5.5 5.4 2.6 0 5.3-2.3 19.3-16.3 19.1-19.1 19.1-19.2 11.2-27.2l-5-5.1 5.5-5.4 5.5-5.5 7.5-.1c17.7-.5 33.9-9.3 62.5-34.2l10.5-9.1 8.1 8c9.5 9.2 14.5 11.8 22.7 11.9 6.8 0 11.4-2.1 17.1-7.7 5.1-5.1 7.6-10.6 7.6-17.2 0-7.5-2.8-12.9-11.8-22.3l-7.5-7.8 8.4-8.8c10.6-10.9 12.6-16.5 9.8-26.6-1.3-4.6-11.2-15.1-15.2-16.1-2.4-.6-2.5-1-2.4-7.9.1-6.1-.3-7.9-2.5-11.8-3.3-5.5-8.4-10.2-13.2-11.9-3.6-1.3-3.6-1.4-3-5.9 2.2-17-16.7-32-32.1-25.5l-3.5 1.4-1.4-3.4c-1.9-4.4-8.8-11.3-13.4-13.2-4.7-2-12.8-1.9-17.6.1-2.2.9-8.2 5.8-13.6 11.1l-9.6 9.5-13.6-13.8c-16.3-16.6-16.8-17.5-16.6-37.2.1-10.9-.2-13.5-2.4-20.3-6.4-19.4-22.7-34.6-41.9-39.2-5.9-1.4-20.8-1.9-25.4-.8zM130.9 39c17.1 2.8 30.7 14.1 37.3 31.3 1.7 4.1 2.2 8.5 2.7 21.7.8 20.3 2.1 23.8 13.2 35.5 7 7.4 7.2 7.7 4.2 7.1-3.7-.8-7.9 1.1-16.3 7.3-3 2.3-6 3.9-6.6 3.7-.7-.3-3.9-2.5-7.1-4.9-8.3-6.4-12.9-7.7-28.1-7.7-14.6-.1-19.2-.9-27.9-5.2-16.3-8-28.4-29.6-25.9-46.3l.8-4.7 12.7 12.5c14.1 14 17.4 15.9 26.6 15.9 15.4.1 26.4-10.9 26.5-26.2 0-9.9-2.7-14.4-16.4-28-11.4-11.2-11.6-11.5-8.9-12.1 4.3-1 6.3-1 13.2.1zm118 90.5c4.6 2.3 8.1 7.2 8.1 11.2 0 3.3-1.1 4.8-12 15.7l-12 12.1-8.2-8.2-8.3-8.3 11-11.1c13.4-13.5 15.4-14.6 21.4-11.4zm34.4 14.9c5.1 2.1 8.7 7 8.7 11.9 0 3.9-.5 4.6-16.2 20.4-8.9 9-16.7 16.3-17.3 16.3-.6 0-4.6-3.6-9-8l-8-8 15.5-15.6c13.5-13.6 19.1-18.2 22.3-18.4.4 0 2.2.6 4 1.4zm23.3 35c3.7 3.6 4.4 5 4.4 8.1 0 3.6-.9 4.8-14.2 18.3-15.3 15.4-18.9 17.9-23.5 16.1-5.3-2-10.3-8.3-10.3-13 0-1.6 4.9-7.2 15.7-18.1 15-15 15.9-15.8 19.6-15.8 3.3 0 4.7.7 8.3 4.4zm18 32c3.7 3.6 4.4 5 4.4 8.1 0 3.6-.9 4.7-11.9 15.9-10.8 10.9-12.3 12-15.5 12-4.1 0-8.1-2.6-11.4-7.5-3.9-5.6-2.7-7.9 10.6-21.2 11-10.8 12.1-11.7 15.7-11.7 3.1 0 4.5.7 8.1 4.4zm-68.2 12c4.7 6.3 12.2 10.6 18.2 10.6 2 0 2.4.5 2.4 3 0 6.9 6.7 16.2 14.4 19.9 5 2.5 13.1 2.8 18 .7l3.4-1.4 7 7.2c8.1 8.2 10.7 12.6 9.7 16.5-1 3.8-4.8 8.4-8.8 10.6-3.2 1.7-4 1.7-7.9.6-3.7-1.1-9.4-6.4-40.6-37.4L236 217.6l3.7-1.1c2.1-.7 5.6-2.1 7.8-3.2l4-2.1 1.1 4.3c.6 2.4 2.3 6 3.8 7.9z"/></svg>