<svg xmlns="http://www.w3.org/2000/svg" data-name="Layer 2" viewBox="0 0 1199.94 1065.5"><defs><linearGradient id="a" x1="286.02" x2="932.8" y1="1063.52" y2="115.37" gradientUnits="userSpaceOnUse"><stop offset="0" stop-color="#c1dff3"/><stop offset=".5" stop-color="#cee0cf"/><stop offset="1" stop-color="#faebc0"/></linearGradient><linearGradient id="b" x1="295.93" x2="919.49" y1="1047.28" y2="133.18" gradientUnits="userSpaceOnUse"><stop offset="0" stop-color="#7ac5ed"/><stop offset=".5" stop-color="#9ec9a4"/><stop offset="1" stop-color="#fedf7e"/></linearGradient><linearGradient id="c" x1="305.18" x2="906.4" y1="1031.67" y2="150.31" gradientUnits="userSpaceOnUse"><stop offset="0" stop-color="#00aae5"/><stop offset=".5" stop-color="#60b178"/><stop offset="1" stop-color="#ffd41f"/></linearGradient></defs><g data-name="Laag 1" style="isolation:isolate"><path fill="#f6f6f6" d="M599.81 334.13c-185 0-288 106-288 262.65s103 262.64 288 262.64c183.55 0 288-105.95 288-262.64s-104.45-262.65-288-262.65Zm10.6 798.38C215 1132.51.06 917.62.06 599.76S217.94 67 610.41 67C1004.38 67 1200 281.9 1200 599.76s-197.11 532.75-589.59 532.75Z" opacity=".5" style="mix-blend-mode:multiply" transform="translate(-.06 -67.01)"/><path fill="url(#a)" d="M599.81 263c-198.47 0-313.88 126.84-313.88 334.77s115.41 334.28 313.88 334.28c197.48 0 313.88-126.35 313.88-334.28S797.29 263 599.81 263Zm7.07 869.51c-349.2 0-548.67-204.94-548.67-532.75S259.67 67 606.88 67c348.2 0 534.83 204.94 534.83 532.75s-187.62 532.76-534.83 532.76Z" opacity=".67" transform="translate(-.06 -67.01)"/><path fill="url(#b)" d="M599.81 191.87c-211.91 0-339.75 147.73-339.75 406.9s127.84 405.9 339.75 405.9c211.41 0 339.74-146.74 339.74-405.9s-128.33-406.9-339.74-406.9Zm3.54 940.64c-302.94 0-487-195-487-532.75S301.4 67 603.35 67c302.43 0 480.06 195 480.06 532.75s-178.12 532.76-480.06 532.76Z" opacity=".83" transform="translate(-.06 -67.01)"/><path fill="url(#c)" d="M599.81 120.73c-225.34 0-365.62 168.63-365.62 479s140.28 477.57 365.62 477.57 365.61-167.14 365.61-477.54-140.27-479.03-365.61-479.03Zm0 1011.78c-256.68 0-425.31-185-425.31-532.75S343.13 67 599.81 67s425.31 185.05 425.31 532.75-168.63 532.76-425.31 532.76Z" transform="translate(-.06 -67.01)"/></g></svg>