<svg xmlns="http://www.w3.org/2000/svg" data-name="Layer 2" viewBox="0 0 1202.94 1068.17">
  <defs>
    <linearGradient id="a" x1="285.23" x2="933.63" y1="1066.01" y2="115.49" gradientUnits="userSpaceOnUse">
      <stop offset="0" stop-color="#005188"/>
      <stop offset=".5" stop-color="#215477"/>
      <stop offset="1" stop-color="#59596f"/>
    </linearGradient>
    <linearGradient id="b" x1="295.17" x2="920.29" y1="1049.73" y2="133.35" gradientUnits="userSpaceOnUse">
      <stop offset="0" stop-color="#007cb5"/>
      <stop offset=".5" stop-color="#3a8082"/>
      <stop offset="1" stop-color="#a69067"/>
    </linearGradient>
    <linearGradient id="c" x1="304.45" x2="907.17" y1="1034.08" y2="150.52" gradientUnits="userSpaceOnUse">
      <stop offset="0" stop-color="#00aae5"/>
      <stop offset=".5" stop-color="#60b178"/>
      <stop offset="1" stop-color="#ffd41f"/>
    </linearGradient>
  </defs>
  <path fill="#162d61" d="M601.25 267.79c-185.51 0-288.74 106.2-288.74 263.3S415.74 794.4 601.25 794.4c184 0 288.73-106.22 288.73-263.31s-104.72-263.3-288.73-263.3Zm10.63 800.38C215.44 1068.17 0 852.74 0 534.09S218.44-.01 611.88-.01c394.95 0 591.06 215.43 591.06 534.09s-197.6 534.09-591.06 534.09Z"/>
  <path fill="url(#a)" d="M599.81 263.49c-199 0-314.67 127.16-314.67 335.61s115.7 335.11 314.67 335.11c198 0 314.66-126.66 314.66-335.11S797.79 263.49 599.81 263.49Zm7.09 871.69c-350.08 0-550-205.46-550-534.08S258.82 67 606.9 67c349.1 0 536.16 205.47 536.16 534.1S955 1135.18 606.9 1135.18Z" transform="translate(1.44 -67.01)"/>
  <path fill="url(#b)" d="M599.81 192.18c-212.44 0-340.6 148.11-340.6 407.92S387.37 1007 599.81 1007c211.94 0 340.59-147.09 340.59-406.9S811.75 192.18 599.81 192.18Zm3.54 943c-303.69 0-488.21-195.48-488.21-534.08S300.65 67 603.35 67c303.2 0 481.27 195.48 481.27 534.09s-178.57 534.09-481.27 534.09Z" transform="translate(1.44 -67.01)"/>
  <path fill="url(#c)" d="M599.81 120.87c-225.9 0-366.53 169.05-366.53 480.23s140.63 478.73 366.53 478.73S966.34 912.27 966.34 601.1 825.71 120.87 599.81 120.87Zm0 1014.31c-257.32 0-426.37-185.51-426.37-534.08S342.49 67 599.81 67s426.37 185.51 426.37 534.09-169.05 534.09-426.37 534.09Z" transform="translate(1.44 -67.01)"/>
</svg>
